<svg id="issues" xmlns="http://www.w3.org/2000/svg" width="16" height="16" viewBox="0 0 16 16">
  <path id="Vector" d="M13.246,9a.75.75,0,0,1,.743.648l.007.1v1.5a2.75,2.75,0,0,1-2.578,2.745L11.25,14l-1.5,0a.75.75,0,0,1-.1-1.493l.1-.007,1.5,0a1.25,1.25,0,0,0,1.241-1.122l.007-.128V9.75a.75.75,0,0,1,.75-.75ZM.75,9a.75.75,0,0,1,.75.75v1.5A1.25,1.25,0,0,0,2.748,12.5l1.5,0a.75.75,0,0,1,0,1.5l-1.5,0A2.75,2.75,0,0,1,0,11.247V9.75A.75.75,0,0,1,.75,9ZM7,5A2,2,0,1,1,5,7,2,2,0,0,1,7,5ZM9.751,0l1.5,0A2.75,2.75,0,0,1,14,2.753v1.5a.75.75,0,0,1-1.5,0v-1.5A1.25,1.25,0,0,0,11.248,1.5l-1.5,0a.75.75,0,0,1,0-1.5Zm-5.5,0a.75.75,0,1,1,0,1.5l-1.5,0A1.25,1.25,0,0,0,1.5,2.753v1.5a.75.75,0,0,1-1.5,0v-1.5A2.75,2.75,0,0,1,2.75,0Z" transform="translate(1 1)" fill="#858699"/>
</svg>
