<svg id="settings" xmlns="http://www.w3.org/2000/svg" width="14.04" height="14.04" viewBox="0 0 14.04 14.04">
  <path id="Vector" d="M7.58,0a.5.5,0,0,1,.49.42L8.32,1.9a.49.49,0,0,0,.33.38,3.35,3.35,0,0,1,.52.22.49.49,0,0,0,.51,0l1.22-.87a.5.5,0,0,1,.64,0l.82.82a.5.5,0,0,1,.05.64l-.87,1.22a.49.49,0,0,0,0,.51,3.35,3.35,0,0,1,.22.52.49.49,0,0,0,.38.33l1.48.25a.5.5,0,0,1,.42.49V7.58a.5.5,0,0,1-.42.49l-1.48.25a.49.49,0,0,0-.38.33,3.379,3.379,0,0,1-.22.52.49.49,0,0,0,0,.51l.87,1.22a.5.5,0,0,1-.05.64l-.82.82a.5.5,0,0,1-.64.05l-1.22-.87a.49.49,0,0,0-.51,0,3.379,3.379,0,0,1-.52.22.49.49,0,0,0-.33.38l-.25,1.48a.5.5,0,0,1-.49.42H6.42a.5.5,0,0,1-.49-.42L5.68,12.1a.49.49,0,0,0-.33-.38,3.379,3.379,0,0,1-.52-.22.49.49,0,0,0-.51,0l-1.22.87a.5.5,0,0,1-.64-.05l-.82-.82a.5.5,0,0,1,0-.64l.87-1.22a.49.49,0,0,0,0-.51,3.379,3.379,0,0,1-.22-.52.49.49,0,0,0-.38-.33L.42,8.07A.5.5,0,0,1,0,7.58V6.42a.5.5,0,0,1,.42-.49L1.9,5.68a.49.49,0,0,0,.38-.33,3.379,3.379,0,0,1,.22-.52.49.49,0,0,0,0-.51L1.59,3.1a.5.5,0,0,1,0-.64l.82-.82a.5.5,0,0,1,.64,0l1.22.87a.49.49,0,0,0,.51,0,3.379,3.379,0,0,1,.52-.22.49.49,0,0,0,.33-.38L5.93.42A.5.5,0,0,1,6.42,0ZM7,5a2,2,0,1,0,1.414.586A2,2,0,0,0,7,5Z" transform="translate(0 0)" fill="#858699"/>
</svg>
