<svg xmlns="http://www.w3.org/2000/svg" width="20.28" height="20.81" viewBox="0 0 20.28 20.81">
    <path id="Path_31133" data-name="Path 31133" d="M7.5,2a6.524,6.524,0,0,0,.03,11A5.5,5.5,0,1,1,7.5,2M19.07,3.5,20.5,4.93,4.93,20.5,3.5,19.07ZM12.89,5.93,11.41,5,9.97,6l.42-1.7L9,3.24l1.75-.12.58-1.65L12,3.1l1.73.03L12.38,4.26ZM9.59,9.54,8.43,8.81l-1.12.78.34-1.32L6.56,7.44l1.36-.09.45-1.29.51,1.27,1.36.03-1.05.87ZM19,13.5a5.5,5.5,0,0,1-8.76,4.43l7.69-7.69A5.487,5.487,0,0,1,19,13.5m-4.4,6.58,2.77-1.15-.24,3.35Zm4.33-2.7,1.15-2.77,2.2,2.54Zm1.15-4.96L18.94,9.64l3.34.24ZM9.63,18.93l2.77,1.15L9.87,22.27Z" transform="translate(-2 -1.47)" fill="#f4c45e"/>
  </svg>
  