<svg id="code" xmlns="http://www.w3.org/2000/svg" width="15.995" height="9.47" viewBox="0 0 15.995 9.47">
  <path id="Vector" d="M7.825,8.942a.656.656,0,1,1-1.287-.257L8.17.528A.656.656,0,0,1,9.457.785ZM4.444,1.894a.656.656,0,0,1-.131.919L1.75,4.735,4.313,6.657a.656.656,0,0,1-.787,1.05L.263,5.26a.656.656,0,0,1,0-1.05L3.526,1.762A.656.656,0,0,1,4.444,1.894Zm7.106,0a.656.656,0,0,1,.919-.131L15.733,4.21a.656.656,0,0,1,0,1.05L12.47,7.707a.656.656,0,0,1-.787-1.05l2.563-1.922L11.682,2.813A.656.656,0,0,1,11.551,1.894Z" transform="translate(0 0)" fill-rule="evenodd"/>
</svg>
