<svg id="sun" xmlns="http://www.w3.org/2000/svg" width="16" height="16" viewBox="0 0 16 16">
  <path id="Vector" d="M6.238,2.24V.76a.76.76,0,1,1,1.52,0V2.24a.76.76,0,0,1-1.52,0Z" transform="translate(1 1)" fill="#ff8000"/>
  <path id="Vector-2" data-name="Vector" d="M2.24,7.758H.76a.76.76,0,1,1,0-1.52H2.24a.76.76,0,0,1,0,1.52Z" transform="translate(1 1)" fill="#ff8000"/>
  <path id="Vector-3" data-name="Vector" d="M13.24,6.239a.76.76,0,0,1,0,1.52H11.76a.76.76,0,0,1,0-1.52Z" transform="translate(1 1)" fill="#ff8000"/>
  <path id="Vector-4" data-name="Vector" d="M10.875,2.048A.76.76,0,0,1,11.95,3.123L10.9,4.17A.76.76,0,1,1,9.828,3.095Z" transform="translate(1 1)" fill="#ff8000"/>
  <path id="Vector-5" data-name="Vector" d="M2.05,3.123A.76.76,0,1,1,3.125,2.048L4.172,3.095A.76.76,0,1,1,3.1,4.17Z" transform="translate(1 1)" fill="#ff8000"/>
  <path id="Vector-6" data-name="Vector" d="M9.114,4.884a3,3,0,1,1-4.243,0A3,3,0,0,1,9.114,4.884Z" transform="translate(1 1)" fill="#ff8000"/>
  <path id="Vector-7" data-name="Vector" d="M10.9,9.826l1.047,1.047a.76.76,0,1,1-1.075,1.075L9.829,10.9A.76.76,0,1,1,10.9,9.826Z" transform="translate(1 1)" fill="#ff8000"/>
  <path id="Vector-8" data-name="Vector" d="M4.172,10.9,3.125,11.948A.76.76,0,1,1,2.05,10.873L3.1,9.827A.76.76,0,0,1,4.172,10.9Z" transform="translate(1 1)" fill="#ff8000"/>
  <path id="Vector-9" data-name="Vector" d="M7.759,13.239a.76.76,0,1,1-1.52,0v-1.48a.76.76,0,1,1,1.52,0Z" transform="translate(1 1)" fill="#ff8000"/>
</svg>
