<svg xmlns="http://www.w3.org/2000/svg" width="14.794" height="14.794" viewBox="0 0 14.794 14.794">
    <g id="Icon_feather-copy" data-name="Icon feather-copy" transform="translate(-2.5 -2.5)">
        <path id="Path_28543" data-name="Path 28543"
            d="M15.038,13.5h6.923A1.538,1.538,0,0,1,23.5,15.038v6.923A1.538,1.538,0,0,1,21.962,23.5H15.038A1.538,1.538,0,0,1,13.5,21.962V15.038A1.538,1.538,0,0,1,15.038,13.5Z"
            transform="translate(-6.706 -6.706)" fill="none" stroke="#737373" stroke-linecap="round"
            stroke-linejoin="round" stroke-width="1" />
        <path id="Path_28544" data-name="Path 28544"
            d="M5.308,13H4.538A1.538,1.538,0,0,1,3,11.462V4.538A1.538,1.538,0,0,1,4.538,3h6.923A1.538,1.538,0,0,1,13,4.538v.769"
            fill="none" stroke="#737373" stroke-linecap="round" stroke-linejoin="round"
            stroke-width="1" />
    </g>
</svg>
  