<svg id="layers" xmlns="http://www.w3.org/2000/svg" width="16" height="16" viewBox="0 0 16 16">
  <path id="Vector" d="M11.654,9.8l2.1.826a.4.4,0,0,1,.073.707l-.072.037-6.4,2.527a1,1,0,0,1-.616.038l-.12-.039L.253,11.365a.4.4,0,0,1-.071-.707l.072-.037L2.343,9.8l3.726,1.479a2.494,2.494,0,0,0,1.836,0Zm0-4.018,2.1.826a.4.4,0,0,1,.073.707l-.072.037L9.6,8.988l-.981.387-1.263.5-.039.012-.081.027a.986.986,0,0,1-.1.02l-.032,0a.987.987,0,0,1-.241,0l-.123-.024-.12-.039L5.391,9.385l-1-.4L.253,7.347A.4.4,0,0,1,.181,6.64L.253,6.6l2.09-.825L6.069,7.257a2.494,2.494,0,0,0,1.836,0ZM6.622.07a1,1,0,0,1,.733,0l6.4,2.515a.4.4,0,0,1,0,.744L9.6,4.97l-2.244.886-.081.028L7.212,5.9a.994.994,0,0,1-.348.018l-.123-.024-.12-.039L.253,3.329a.4.4,0,0,1,0-.744Z" transform="translate(1 1)" fill="#858699" fill-rule="evenodd"/>
</svg>
