<svg xmlns="http://www.w3.org/2000/svg" width="14" height="13.07" viewBox="0 0 14 13.07">
  <path id="Path_8" data-name="Path 8" d="M18.6,36.953a4.62,4.62,0,0,1,1.1-1.745,4.668,4.668,0,0,1,6.6,0l.5.5H25.335a.934.934,0,0,0,0,1.867h3.731A.933.933,0,0,0,30,36.643V32.909a.934.934,0,1,0-1.867,0V34.4l-.511-.513A6.534,6.534,0,0,0,16.84,36.334a.933.933,0,0,0,1.759.621Zm-1.928,2.529a.929.929,0,0,0-.4.239.908.908,0,0,0-.236.408c-.009.035-.018.073-.023.111a.853.853,0,0,0-.012.149v3.722a.934.934,0,1,0,1.867,0V42.621l.513.511h0A6.539,6.539,0,0,0,29.163,40.69a.933.933,0,1,0-1.759-.621,4.62,4.62,0,0,1-1.1,1.745,4.668,4.668,0,0,1-6.6,0l0,0-.5-.5h1.47a.934.934,0,1,0,0-1.867H16.945a1.128,1.128,0,0,0-.14.009A.687.687,0,0,0,16.671,39.482Z" transform="translate(-16 -31.975)" fill="#eeeffc"/>
</svg>
