<svg id="air-vent" xmlns="http://www.w3.org/2000/svg" width="22" height="20.928" viewBox="0 0 22 20.928">
  <path id="Vector" d="M5,11A1,1,0,0,0,5,9ZM1,8H1ZM3,1V1ZM19,1V1ZM17,9a1,1,0,0,0,0,2ZM5,5A1,1,0,0,0,5,7ZM17,7a1,1,0,0,0,0-2Zm1.023,8.009a1,1,0,0,0-1.445,1.382ZM14.14,19.53l-.548.836.007,0Zm-1.14-2H12c0,.015,0,.031,0,.046ZM14,10a1,1,0,0,0-2,0ZM6.3,14.314a1,1,0,1,0-1.4-1.428ZM9,15H8v.014Zm1-5a1,1,0,1,0-2,0ZM5,9H3v2H5ZM3,9a1,1,0,0,1-.707-.293L.879,10.121A3,3,0,0,0,3,11Zm-.707-.293A1,1,0,0,1,2,8H0a3,3,0,0,0,.879,2.121ZM2,8V3H0V8ZM2,3a1,1,0,0,1,.293-.707L.879.879A3,3,0,0,0,0,3Zm.293-.707A1,1,0,0,1,3,2V0A3,3,0,0,0,.879.879ZM3,2H19V0H3ZM19,2a1,1,0,0,1,.707.293L21.121.879A3,3,0,0,0,19,0Zm.707.293A1,1,0,0,1,20,3h2A3,3,0,0,0,21.121.879ZM20,3V8h2V3Zm0,5a1,1,0,0,1-.293.707l1.414,1.414A3,3,0,0,0,22,8Zm-.293.707A1,1,0,0,1,19,9v2a3,3,0,0,0,2.121-.879ZM19,9H17v2h2ZM5,7H17V5H5Zm11.577,9.391a1.5,1.5,0,0,1,.415.982l2-.073a3.5,3.5,0,0,0-.968-2.291Zm.415.982a1.5,1.5,0,0,1-.342,1.01l1.543,1.273a3.5,3.5,0,0,0,.8-2.356Zm-.342,1.01a1.5,1.5,0,0,1-.926.528l.308,1.976a3.5,3.5,0,0,0,2.161-1.231Zm-.926.528a1.5,1.5,0,0,1-1.043-.221L13.6,20.371a3.5,3.5,0,0,0,2.433.515Zm-1.036-.216a1.531,1.531,0,0,1-.49-.522l-1.738.99a3.529,3.529,0,0,0,1.131,1.2Zm-.49-.522a1.53,1.53,0,0,1-.2-.688l-2,.091a3.531,3.531,0,0,0,.46,1.587ZM14,17.53V10H12v7.53ZM4.9,12.886a3,3,0,0,0-.764,1.252l1.91.594a1,1,0,0,1,.255-.417Zm-.764,1.252a3,3,0,0,0-.08,1.464l1.963-.382a1,1,0,0,1,.027-.488ZM4.056,15.6a3,3,0,0,0,.624,1.327l1.547-1.267a1,1,0,0,1-.208-.442Zm.624,1.327a3,3,0,0,0,1.178.873l.761-1.849a1,1,0,0,1-.393-.291Zm1.178.873a3,3,0,0,0,1.451.21L7.1,16.023a1,1,0,0,1-.484-.07Zm1.451.21a3,3,0,0,0,1.378-.5L7.563,15.855a1,1,0,0,1-.459.168Zm1.378-.5a3,3,0,0,0,.974-1.1L7.887,15.49a1,1,0,0,1-.325.365Zm.974-1.1A3,3,0,0,0,10,14.986l-2,.028a1,1,0,0,1-.113.476ZM10,15V10H8v5Z" fill="#09090b"/>
</svg>
