<svg id="alarm-clock-off" xmlns="http://www.w3.org/2000/svg" width="22" height="22" viewBox="0 0 22 22">
  <path id="Vector" d="M6.5,6.643A1,1,0,1,0,5.235,5.1ZM17.9,17.765a1,1,0,0,0-1.545-1.27Zm.01-4.671a1,1,0,0,0,1.976.312ZM9.594,3.112a1,1,0,1,0,.312,1.976Zm10.7,2.595a1,1,0,0,0,1.414-1.414ZM18.707,1.293a1,1,0,0,0-1.414,1.414ZM5.978,18.366a1,1,0,1,0-1.436-1.392Zm-3.7.938A1,1,0,0,0,3.718,20.7ZM1.707.293A1,1,0,0,0,.293,1.707ZM20.293,21.707a1,1,0,0,0,1.414-1.414Zm-16.586-18A1,1,0,0,0,2.293,2.293ZM.293,4.293A1,1,0,0,0,1.707,5.707Zm4.942.8A9,9,0,0,0,2.908,8.008l1.787.9A7,7,0,0,1,6.5,6.643ZM2.908,8.008a9,9,0,0,0-.948,3.6l2,.1a7,7,0,0,1,.737-2.8Zm-.948,3.6a9,9,0,0,0,.593,3.679l1.866-.72a7,7,0,0,1-.461-2.861Zm.593,3.679a9,9,0,0,0,2.032,3.123L6,17a7,7,0,0,1-1.581-2.429Zm2.032,3.123a9,9,0,0,0,3.123,2.032l.72-1.866A7,7,0,0,1,6,17Zm3.123,2.032a9,9,0,0,0,3.679.593l-.1-2a7,7,0,0,1-2.861-.461Zm3.679.593a9,9,0,0,0,3.6-.948l-.9-1.787a7,7,0,0,1-2.8.737Zm3.6-.948A9,9,0,0,0,17.9,17.765L16.357,16.5a7,7,0,0,1-2.264,1.81Zm4.9-6.686a9,9,0,0,0-.331-4.187l-1.9.618a7,7,0,0,1,.257,3.257Zm-.331-4.187a9,9,0,0,0-2.195-3.581L15.948,7.052a7,7,0,0,1,1.707,2.785ZM17.362,5.638a9,9,0,0,0-3.581-2.195l-.618,1.9a7,7,0,0,1,2.785,1.707ZM13.781,3.443a9,9,0,0,0-4.187-.331l.312,1.976a7,7,0,0,1,3.257.257Zm7.926.85-3-3L17.293,2.707l3,3ZM4.542,16.974,2.282,19.3,3.718,20.7l2.26-2.33ZM.293,1.707l20,20,1.414-1.414-20-20Zm2,.586-2,2L1.707,5.707l2-2Z" fill="#09090b"/>
</svg>
