<svg id="alarm-smoke" xmlns="http://www.w3.org/2000/svg" width="22" height="20" viewBox="0 0 22 20">
  <path id="Vector" d="M9,19a1,1,0,0,0,2,0Zm4-5a1,1,0,0,0-2,0Zm1,5a1,1,0,0,0,2,0Zm4-5a1,1,0,0,0-2,0Zm.966-7.742a1,1,0,1,0-1.932-.515ZM17.2,9l-.966-.258c-.005.019-.01.038-.014.058ZM16,10v1h.02ZM6,10l-.02,1H6ZM4.8,9l.98-.2q-.006-.029-.014-.058Zm.166-3.258a1,1,0,1,0-1.932.515ZM20,1V1ZM19,6V6ZM3,6V6ZM1,4H1ZM2,1V1ZM4,19a1,1,0,0,0,2,0Zm4-5a1,1,0,0,0-2,0Zm3,5a2.329,2.329,0,0,1,.214-1.052,4.339,4.339,0,0,1,.567-.824,6.21,6.21,0,0,0,.808-1.208A4.321,4.321,0,0,0,13,14H11a2.329,2.329,0,0,1-.214,1.052,4.338,4.338,0,0,1-.567.824,6.211,6.211,0,0,0-.808,1.208A4.321,4.321,0,0,0,9,19Zm5,0a2.329,2.329,0,0,1,.214-1.052,4.339,4.339,0,0,1,.567-.824,6.21,6.21,0,0,0,.808-1.208A4.321,4.321,0,0,0,18,14H16a2.329,2.329,0,0,1-.214,1.052,4.339,4.339,0,0,1-.567.824,6.21,6.21,0,0,0-.808,1.208A4.321,4.321,0,0,0,14,19ZM17.034,5.742l-.8,3,1.932.515.8-3ZM16.22,8.8a.25.25,0,0,1-.085.142l1.28,1.536A2.25,2.25,0,0,0,18.18,9.2Zm-.085.142A.25.25,0,0,1,15.98,9l.04,2a2.25,2.25,0,0,0,1.4-.521ZM16,9H6v2H16ZM6.02,9a.25.25,0,0,1-.155-.058l-1.28,1.536A2.25,2.25,0,0,0,5.98,11Zm-.155-.058A.25.25,0,0,1,5.78,8.8l-1.96.4a2.25,2.25,0,0,0,.764,1.279Zm-.1-.2-.8-3-1.932.515.8,3ZM20,2h0L21.414.586A2,2,0,0,0,20,0Zm0,0h2A2,2,0,0,0,21.414.586Zm0,0V4h2V2Zm0,2a1,1,0,0,1-.293.707l1.414,1.414A3,3,0,0,0,22,4Zm-.293.707A1,1,0,0,1,19,5V7a3,3,0,0,0,2.121-.879ZM19,5H3V7H19ZM3,5a1,1,0,0,1-.707-.293L.879,6.121A3,3,0,0,0,3,7Zm-.707-.293A1,1,0,0,1,2,4H0A3,3,0,0,0,.879,6.121ZM2,4V2H0V4ZM2,2H2L.586.586A2,2,0,0,0,0,2ZM2,2H2V0A2,2,0,0,0,.586.586ZM2,2H20V0H2ZM6,19a2.329,2.329,0,0,1,.214-1.052,4.338,4.338,0,0,1,.567-.824,6.211,6.211,0,0,0,.808-1.208A4.321,4.321,0,0,0,8,14H6a2.329,2.329,0,0,1-.214,1.052,4.338,4.338,0,0,1-.567.824,6.211,6.211,0,0,0-.808,1.208A4.321,4.321,0,0,0,4,19Z" fill="#09090b"/>
</svg>
