<svg id="align-vertical-space-between" xmlns="http://www.w3.org/2000/svg" width="22" height="20" viewBox="0 0 22 20">
  <path id="Vector" d="M1,18a1,1,0,0,0,0,2Zm20,2a1,1,0,0,0,0-2ZM1,0A1,1,0,0,0,1,2ZM21,2a1,1,0,0,0,0-2ZM6,14H16V12H6Zm10,0a1,1,0,0,1,1,1h2a3,3,0,0,0-3-3Zm1,1v2h2V15Zm0,2a1,1,0,0,1-1,1v2a3,3,0,0,0,3-3Zm-1,1H6v2H16ZM6,18a1,1,0,0,1-1-1H3a3,3,0,0,0,3,3ZM5,17V15H3v2Zm0-2a1,1,0,0,1,1-1V12a3,3,0,0,0-3,3ZM8,2h6V0H8Zm6,0a1,1,0,0,1,1,1h2a3,3,0,0,0-3-3Zm1,1V5h2V3Zm0,2a1,1,0,0,1-1,1V8a3,3,0,0,0,3-3ZM14,6H8V8h6ZM8,6A1,1,0,0,1,7,5H5A3,3,0,0,0,8,8ZM7,5V3H5V5ZM7,3A1,1,0,0,1,8,2V0A3,3,0,0,0,5,3ZM1,20H21V18H1ZM1,2H21V0H1Z" fill="#09090b"/>
</svg>
