<svg id="align-horizontal-space-between" xmlns="http://www.w3.org/2000/svg" width="20" height="22" viewBox="0 0 20 22">
  <path id="Vector" d="M2,1A1,1,0,0,0,0,1ZM0,21a1,1,0,0,0,2,0ZM20,1a1,1,0,0,0-2,0ZM18,21a1,1,0,0,0,2,0ZM3,5H5V3H3ZM5,5A1,1,0,0,1,6,6H8A3,3,0,0,0,5,3ZM6,6V16H8V6ZM6,16a1,1,0,0,1-1,1v2a3,3,0,0,0,3-3ZM5,17H3v2H5ZM3,17a1,1,0,0,1-1-1H0a3,3,0,0,0,3,3ZM2,16V6H0V16ZM2,6A1,1,0,0,1,3,5V3A3,3,0,0,0,0,6ZM15,7h2V5H15Zm2,0a1,1,0,0,1,1,1h2a3,3,0,0,0-3-3Zm1,1v6h2V8Zm0,6a1,1,0,0,1-1,1v2a3,3,0,0,0,3-3Zm-1,1H15v2h2Zm-2,0a1,1,0,0,1-1-1H12a3,3,0,0,0,3,3Zm-1-1V8H12v6Zm0-6a1,1,0,0,1,1-1V5a3,3,0,0,0-3,3ZM0,1V21H2V1ZM18,1V21h2V1Z" fill="#09090b"/>
</svg>
