<svg id="align-center-vertical" xmlns="http://www.w3.org/2000/svg" width="22" height="22" viewBox="0 0 22 22">
  <path id="Vector" d="M12,1a1,1,0,0,0-2,0ZM10,21a1,1,0,0,0,2,0ZM7,10A1,1,0,0,0,7,8ZM1,7H1ZM7,4A1,1,0,0,0,7,2Zm8,4a1,1,0,0,0,0,2Zm4-5V3ZM15,2a1,1,0,0,0,0,2ZM7,20a1,1,0,0,0,0-2ZM4,17H4Zm3-3a1,1,0,0,0,0-2Zm8-2a1,1,0,0,0,0,2Zm0,6a1,1,0,0,0,0,2ZM10,1V21h2V1ZM7,8H3v2H7ZM3,8a1,1,0,0,1-.707-.293L.879,9.121A3,3,0,0,0,3,10Zm-.707-.293A1,1,0,0,1,2,7H0A3,3,0,0,0,.879,9.121ZM2,7V5H0V7ZM2,5A1.006,1.006,0,0,1,3,4V2A3.006,3.006,0,0,0,0,5ZM3,4H7V2H3Zm12,6h4V8H15Zm4,0a3,3,0,0,0,2.121-.879L19.707,7.707A1,1,0,0,1,19,8Zm2.121-.879A3,3,0,0,0,22,7H20a1,1,0,0,1-.293.707ZM22,7V5H20V7Zm0-2a3,3,0,0,0-.879-2.121L19.707,4.293A1,1,0,0,1,20,5Zm-.879-2.121A3,3,0,0,0,19,2V4a1,1,0,0,1,.707.293ZM19,2H15V4h4ZM7,18H6v2H7ZM6,18a1,1,0,0,1-.707-.293L3.879,19.121A3,3,0,0,0,6,20Zm-.707-.293A1,1,0,0,1,5,17H3a3,3,0,0,0,.879,2.121ZM5,17V15H3v2Zm0-2a1.006,1.006,0,0,1,1-1V12a3.006,3.006,0,0,0-3,3Zm1-1H7V12H6Zm9,0h1V12H15Zm1,0a1,1,0,0,1,.707.293l1.414-1.414A3,3,0,0,0,16,12Zm.707.293A1,1,0,0,1,17,15h2a3,3,0,0,0-.879-2.121ZM17,15v2h2V15Zm0,2a1,1,0,0,1-.293.707l1.414,1.414A3,3,0,0,0,19,17Zm-.293.707A1,1,0,0,1,16,18v2a3,3,0,0,0,2.121-.879ZM16,18H15v2h1Z" fill="#09090b"/>
</svg>
