<svg id="align-end-vertical" xmlns="http://www.w3.org/2000/svg" width="22" height="22" viewBox="0 0 22 22">
  <path id="Vector" d="M20,21a1,1,0,0,0,2,0ZM22,1a1,1,0,0,0-2,0ZM3,4H15V2H3ZM15,4a1,1,0,0,1,1,1h2a3,3,0,0,0-3-3Zm1,1V7h2V5Zm0,2a1,1,0,0,1-1,1v2a3,3,0,0,0,3-3ZM15,8H3v2H15ZM3,8A1,1,0,0,1,2,7H0a3,3,0,0,0,3,3ZM2,7V5H0V7ZM2,5A1,1,0,0,1,3,4V2A3,3,0,0,0,0,5Zm8,9h5V12H10Zm5,0a1,1,0,0,1,1,1h2a3,3,0,0,0-3-3Zm1,1v2h2V15Zm0,2a1,1,0,0,1-1,1v2a3,3,0,0,0,3-3Zm-1,1H10v2h5Zm-5,0a1,1,0,0,1-1-1H7a3,3,0,0,0,3,3ZM9,17V15H7v2Zm0-2a1,1,0,0,1,1-1V12a3,3,0,0,0-3,3Zm13,6V1H20V21Z" fill="#09090b"/>
</svg>
