<svg id="align-vertical-justify-end" xmlns="http://www.w3.org/2000/svg" width="22" height="22" viewBox="0 0 22 22">
  <path id="Vector" d="M1,20a1,1,0,0,0,0,2Zm20,2a1,1,0,0,0,0-2ZM6,12H16V10H6Zm10,0a1,1,0,0,1,1,1h2a3,3,0,0,0-3-3Zm1,1v2h2V13Zm0,2a1,1,0,0,1-1,1v2a3,3,0,0,0,3-3Zm-1,1H6v2H16ZM6,16a1,1,0,0,1-1-1H3a3,3,0,0,0,3,3ZM5,15V13H3v2Zm0-2a1,1,0,0,1,1-1V10a3,3,0,0,0-3,3ZM8,2h6V0H8Zm6,0a1,1,0,0,1,1,1h2a3,3,0,0,0-3-3Zm1,1V5h2V3Zm0,2a1,1,0,0,1-1,1V8a3,3,0,0,0,3-3ZM14,6H8V8h6ZM8,6A1,1,0,0,1,7,5H5A3,3,0,0,0,8,8ZM7,5V3H5V5ZM7,3A1,1,0,0,1,8,2V0A3,3,0,0,0,5,3ZM1,22H21V20H1Z" fill="#09090b"/>
</svg>
