<svg id="align-horizontal-justify-start" xmlns="http://www.w3.org/2000/svg" width="22" height="22" viewBox="0 0 22 22">
  <path id="Vector" d="M2,1A1,1,0,0,0,0,1ZM0,21a1,1,0,0,0,2,0ZM7,5H9V3H7ZM9,5a1,1,0,0,1,1,1h2A3,3,0,0,0,9,3Zm1,1V16h2V6Zm0,10a1,1,0,0,1-1,1v2a3,3,0,0,0,3-3ZM9,17H7v2H9ZM7,17a1,1,0,0,1-1-1H4a3,3,0,0,0,3,3ZM6,16V6H4V16ZM6,6A1,1,0,0,1,7,5V3A3,3,0,0,0,4,6ZM17,7h2V5H17Zm2,0a1,1,0,0,1,1,1h2a3,3,0,0,0-3-3Zm1,1v6h2V8Zm0,6a1,1,0,0,1-1,1v2a3,3,0,0,0,3-3Zm-1,1H17v2h2Zm-2,0a1,1,0,0,1-1-1H14a3,3,0,0,0,3,3Zm-1-1V8H14v6Zm0-6a1,1,0,0,1,1-1V5a3,3,0,0,0-3,3ZM0,1V21H2V1Z" fill="#09090b"/>
</svg>
