<svg id="ampersands" xmlns="http://www.w3.org/2000/svg" width="22" height="13" viewBox="0 0 22 13">
  <path id="Vector" d="M8.486,12.858a1,1,0,0,0,1.029-1.715ZM4,1V1ZM6,3H6Zm4,4A1,1,0,0,0,8,7Zm10.486,5.858a1,1,0,1,0,1.029-1.715ZM16,1V1Zm6,6a1,1,0,0,0-2,0ZM9.514,11.142A16.308,16.308,0,0,1,4.447,6.556,7.031,7.031,0,0,1,3,3H1A8.894,8.894,0,0,0,2.8,7.694a18.3,18.3,0,0,0,5.683,5.163ZM3,3a1,1,0,0,1,.293-.707L1.879.879A3,3,0,0,0,1,3Zm.293-.707A1,1,0,0,1,4,2V0A3,3,0,0,0,1.879.879ZM4,2a1,1,0,0,1,.707.293L6.121.879A3,3,0,0,0,4,0Zm.707.293A1,1,0,0,1,5,3H7A3,3,0,0,0,6.121.879ZM5,3a.96.96,0,0,1-.436.744A11.9,11.9,0,0,1,2.985,4.768C1.755,5.506,0,6.641,0,9H2c0-1.141.745-1.756,2.014-2.518A13.352,13.352,0,0,0,5.874,5.256,2.933,2.933,0,0,0,7,3ZM0,9a3.946,3.946,0,0,0,4,4V11A1.947,1.947,0,0,1,2,9Zm4,4a5.951,5.951,0,0,0,6-6H8a3.952,3.952,0,0,1-4,4Zm17.514-1.858a16.308,16.308,0,0,1-5.067-4.587A7.031,7.031,0,0,1,15,3H13a8.894,8.894,0,0,0,1.8,4.694,18.3,18.3,0,0,0,5.683,5.163ZM15,3a1,1,0,0,1,.293-.707L13.879.879A3,3,0,0,0,13,3Zm.293-.707A1,1,0,0,1,16,2V0a3,3,0,0,0-2.121.879ZM16,2a1,1,0,0,1,.707.293L18.121.879A3,3,0,0,0,16,0Zm.707.293A1,1,0,0,1,17,3h2A3,3,0,0,0,18.121.879ZM17,3a.96.96,0,0,1-.436.744,11.9,11.9,0,0,1-1.578,1.023C13.755,5.506,12,6.641,12,9h2c0-1.141.745-1.756,2.014-2.518a13.355,13.355,0,0,0,1.859-1.227A2.934,2.934,0,0,0,19,3ZM12,9a3.946,3.946,0,0,0,4,4V11a1.947,1.947,0,0,1-2-2Zm4,4a5.951,5.951,0,0,0,6-6H20a3.952,3.952,0,0,1-4,4Z" transform="translate(0)" fill="#09090b"/>
</svg>
