<svg id="antenna" xmlns="http://www.w3.org/2000/svg" width="22" height="22" viewBox="0 0 22 22">
  <path id="Vector" d="M.106,10.553a1,1,0,0,0,1.789.894ZM6.895,1.447A1,1,0,0,0,5.106.553ZM5.106,10.553a1,1,0,0,0,1.789.894Zm6.789-9.106A1,1,0,1,0,10.106.553Zm-1.789,9.106a1,1,0,0,0,1.789.894Zm6.789-9.106A1,1,0,1,0,15.106.553Zm-1.789,9.106a1,1,0,1,0,1.789.894Zm6.789-9.106A1,1,0,1,0,20.106.553ZM3.5,5a1,1,0,1,0,0,2Zm15,2a1,1,0,0,0,0-2ZM12,15a1,1,0,0,0-2,0Zm-2,6a1,1,0,1,0,2,0ZM1.895,11.447l5-10L5.106.553l-5,10Zm5,0,5-10L10.106.553l-5,10Zm5,0,5-10L15.106.553l-5,10Zm5,0,5-10L20.106.553l-5,10ZM3.5,7h15V5H3.5ZM10,15v6h2V15Z" transform="translate(0 0)" fill="#09090b"/>
</svg>
