<svg id="app-window-mac" xmlns="http://www.w3.org/2000/svg" width="22" height="18" viewBox="0 0 22 18">
  <path id="Vector" d="M5,4A1,1,0,0,0,5,6Zm.01,2a1,1,0,0,0,0-2ZM9,4A1,1,0,0,0,9,6Zm.01,2a1,1,0,1,0,0-2ZM13,4a1,1,0,0,0,0,2Zm.01,2a1,1,0,0,0,0-2ZM3,2H19V0H3ZM19,2a1,1,0,0,1,1,1h2a3,3,0,0,0-3-3Zm1,1V15h2V3Zm0,12a1,1,0,0,1-1,1v2a3,3,0,0,0,3-3Zm-1,1H3v2H19ZM3,16a1,1,0,0,1-1-1H0a3,3,0,0,0,3,3ZM2,15V3H0V15ZM2,3A1,1,0,0,1,3,2V0A3,3,0,0,0,0,3ZM5,6h.01V4H5ZM9,6h.01V4H9Zm4,0h.01V4H13Z" fill="#09090b"/>
</svg>
