<svg id="archive-x" xmlns="http://www.w3.org/2000/svg" width="22" height="20" viewBox="0 0 22 20">
  <path id="Vector" d="M4,6A1,1,0,0,0,2,6ZM3,17H3ZM20,6a1,1,0,0,0-2,0ZM7.793,14.293a1,1,0,0,0,1.414,1.414Zm6.414-3.586a1,1,0,0,0-1.414-1.414Zm-5-1.414a1,1,0,0,0-1.414,1.414Zm3.586,6.414a1,1,0,0,0,1.414-1.414ZM2,2H20V0H2ZM20,2h2a2,2,0,0,0-2-2Zm0,0V5h2V2Zm0,3V7a2,2,0,0,0,2-2Zm0,0H2V7H20ZM2,5H0A2,2,0,0,0,2,7ZM2,5V2H0V5ZM2,2V0A2,2,0,0,0,0,2ZM2,6V17H4V6ZM2,17a3,3,0,0,0,.879,2.121l1.414-1.414A1,1,0,0,1,4,17Zm.879,2.121A3,3,0,0,0,5,20V18a1,1,0,0,1-.707-.293ZM5,20H17V18H5Zm12,0a3,3,0,0,0,2.121-.879l-1.414-1.414A1,1,0,0,1,17,18Zm2.121-.879A3,3,0,0,0,20,17H18a1,1,0,0,1-.293.707ZM20,17V6H18V17ZM9.207,15.707l5-5L12.793,9.293l-5,5Zm-1.414-5,5,5,1.414-1.414-5-5Z" fill="#09090b"/>
</svg>
