<svg id="archive-restore" xmlns="http://www.w3.org/2000/svg" width="22" height="20" viewBox="0 0 22 20">
  <path id="Vector" d="M4,6A1,1,0,0,0,2,6ZM3,17H3Zm4,3a1,1,0,0,0,0-2ZM20,6a1,1,0,0,0-2,0ZM15,18a1,1,0,0,0,0,2ZM7.293,12.293a1,1,0,0,0,1.414,1.414ZM11,10l.707-.707a1,1,0,0,0-1.414,0Zm2.293,3.707a1,1,0,0,0,1.414-1.414ZM10,19a1,1,0,0,0,2,0ZM2,2H20V0H2ZM20,2h2a2,2,0,0,0-2-2Zm0,0V5h2V2Zm0,3V7a2,2,0,0,0,2-2Zm0,0H2V7H20ZM2,5H0A2,2,0,0,0,2,7ZM2,5V2H0V5ZM2,2V0A2,2,0,0,0,0,2ZM2,6V17H4V6ZM2,17a3,3,0,0,0,.879,2.121l1.414-1.414A1,1,0,0,1,4,17Zm.879,2.121A3,3,0,0,0,5,20V18a1,1,0,0,1-.707-.293ZM5,20H7V18H5ZM18,6V17h2V6Zm0,11a1,1,0,0,1-.293.707l1.414,1.414A3,3,0,0,0,20,17Zm-.293.707A1,1,0,0,1,17,18v2a3,3,0,0,0,2.121-.879ZM17,18H15v2h2ZM8.707,13.707l3-3L10.293,9.293l-3,3Zm1.586-3,3,3,1.414-1.414-3-3ZM10,10v9h2V10Z" fill="#09090b"/>
</svg>
