<svg id="area-chart" xmlns="http://www.w3.org/2000/svg" width="20" height="20" viewBox="0 0 20 20">
  <path id="Vector" d="M2,1A1,1,0,0,0,0,1ZM1,19H0a1,1,0,0,0,1,1Zm18,1a1,1,0,0,0,0-2ZM5,10l-.707-.707A1,1,0,0,0,4,10Zm0,5H4a1,1,0,0,0,1,1Zm12,0v1a1,1,0,0,0,1-1Zm0-9h1a1,1,0,0,0-1.707-.707Zm-5,5-.707.707a1,1,0,0,0,1.414,0ZM8,7l.707-.707a1,1,0,0,0-1.414,0ZM0,1V19H2V1ZM1,20H19V18H1ZM4,10v5H6V10Zm1,6H17V14H5Zm13-1V6H16v9ZM16.293,5.293l-5,5,1.414,1.414,5-5Zm-3.586,5-4-4L7.293,7.707l4,4Zm-5.414-4-3,3,1.414,1.414,3-3Z" fill="#09090b"/>
</svg>
