<svg id="armchair" xmlns="http://www.w3.org/2000/svg" width="20" height="18" viewBox="0 0 20 18">
  <path id="Vector" d="M15,1V1ZM5,1V1ZM3,3H3ZM1,13H1Zm14-3v1a1,1,0,0,0,1-1ZM5,10H4a1,1,0,0,0,1,1ZM5,8H5ZM1,8H1Zm1,9a1,1,0,0,0,2,0Zm14,0a1,1,0,0,0,2,0ZM18,6V3H16V6Zm0-3A3,3,0,0,0,17.121.879L15.707,2.293A1,1,0,0,1,16,3ZM17.121.879A3,3,0,0,0,15,0V2a1,1,0,0,1,.707.293ZM15,0H5V2H15ZM5,0A3,3,0,0,0,2.879.879L4.293,2.293A1,1,0,0,1,5,2ZM2.879.879A3,3,0,0,0,2,3H4a1,1,0,0,1,.293-.707ZM2,3V6H4V3ZM0,13a3,3,0,0,0,.879,2.121l1.414-1.414A1,1,0,0,1,2,13Zm.879,2.121A3,3,0,0,0,3,16V14a1,1,0,0,1-.707-.293ZM3,16H17V14H3Zm14,0a3,3,0,0,0,2.121-.879l-1.414-1.414A1,1,0,0,1,17,14Zm2.121-.879A3,3,0,0,0,20,13H18a1,1,0,0,1-.293.707ZM20,13V8H18v5Zm0-5a3,3,0,0,0-.879-2.121L17.707,7.293A1,1,0,0,1,18,8Zm-.879-2.121A3,3,0,0,0,17,5V7a1,1,0,0,1,.707.293ZM17,5a3,3,0,0,0-2.121.879l1.414,1.414A1,1,0,0,1,17,7Zm-2.121.879A3,3,0,0,0,14,8h2a1,1,0,0,1,.293-.707ZM14,8v2h2V8Zm1,1H5v2H15ZM6,10V8H4v2ZM6,8a3,3,0,0,0-.879-2.121L3.707,7.293A1,1,0,0,1,4,8ZM5.121,5.879A3,3,0,0,0,3,5V7a1,1,0,0,1,.707.293ZM3,5a3,3,0,0,0-2.121.879L2.293,7.293A1,1,0,0,1,3,7ZM.879,5.879A3,3,0,0,0,0,8H2a1,1,0,0,1,.293-.707ZM0,8v5H2V8Zm2,7v2H4V15Zm14,0v2h2V15Z" fill="#09090b"/>
</svg>
