<svg id="arrow-up-0-1" xmlns="http://www.w3.org/2000/svg" width="18" height="18" viewBox="0 0 18 18">
  <path id="Vector" d="M.293,4.293A1,1,0,0,0,1.707,5.707ZM5,1,5.707.293a1,1,0,0,0-1.414,0ZM8.293,5.707A1,1,0,1,0,9.707,4.293ZM4,17a1,1,0,0,0,2,0Zm10,0a1,1,0,0,0,2,0Zm1-6h1a1,1,0,0,0-1-1Zm-2-1a1,1,0,0,0,0,2Zm0,6a1,1,0,0,0,0,2Zm4,2a1,1,0,0,0,0-2ZM1.707,5.707l4-4L4.293.293l-4,4Zm2.586-4,4,4L9.707,4.293l-4-4ZM4,1V17H6V1ZM15,2a1,1,0,0,1,1,1h2a3,3,0,0,0-3-3Zm1,1V5h2V3Zm0,2a1,1,0,0,1-1,1V8a3,3,0,0,0,3-3ZM15,6a1,1,0,0,1-1-1H12a3,3,0,0,0,3,3ZM14,5V3H12V5Zm0-2a1,1,0,0,1,1-1V0a3,3,0,0,0-3,3Zm2,14V11H14v6Zm-1-7H13v2h2Zm-2,8h4V16H13Z" fill="#09090b"/>
</svg>
