<svg id="arrow-left-right" xmlns="http://www.w3.org/2000/svg" width="18" height="20" viewBox="0 0 18 20">
  <path id="Vector" d="M5.707,1.707A1,1,0,0,0,4.293.293ZM1,5,.293,4.293a1,1,0,0,0,0,1.414ZM4.293,9.707A1,1,0,0,0,5.707,8.293ZM17,6a1,1,0,0,0,0-2ZM12.293,18.293a1,1,0,0,0,1.414,1.414ZM17,15l.707.707a1,1,0,0,0,0-1.414Zm-3.293-4.707a1,1,0,0,0-1.414,1.414ZM1,14a1,1,0,0,0,0,2ZM4.293.293l-4,4L1.707,5.707l4-4Zm-4,5.414,4,4L5.707,8.293l-4-4ZM1,6H17V4H1ZM13.707,19.707l4-4-1.414-1.414-4,4Zm4-5.414-4-4-1.414,1.414,4,4ZM17,14H1v2H17Z" transform="translate(0 0)" fill="#09090b"/>
</svg>
