<svg id="arrow-big-down-dash" xmlns="http://www.w3.org/2000/svg" width="16" height="16" viewBox="0 0 16 16">
  <path id="Vector" d="M11,2a1,1,0,0,0,0-2ZM5,0A1,1,0,0,0,5,2Zm6,5h1a1,1,0,0,0-1-1Zm0,3H10a1,1,0,0,0,1,1Zm4,0,.707.707A1,1,0,0,0,15,7ZM8,15l-.707.707a1,1,0,0,0,1.414,0ZM1,8V7A1,1,0,0,0,.293,8.707ZM5,8V9A1,1,0,0,0,6,8ZM5,5V4A1,1,0,0,0,4,5Zm6-5H5V2h6ZM10,5V8h2V5Zm1,4h4V7H11Zm3.293-1.707-7,7,1.414,1.414,7-7Zm-5.586,7-7-7L.293,8.707l7,7ZM1,9H5V7H1ZM6,8V5H4V8ZM5,6h6V4H5Z" transform="translate(0)" fill="#09090b"/>
</svg>
