<svg id="arrow-down-wide-narrow" xmlns="http://www.w3.org/2000/svg" width="20" height="18" viewBox="0 0 20 18">
  <path id="Vector" d="M1.707,12.293A1,1,0,0,0,.293,13.707ZM5,17l-.707.707a1,1,0,0,0,1.414,0Zm4.707-3.293a1,1,0,0,0-1.414-1.414ZM6,1A1,1,0,0,0,4,1ZM9,0A1,1,0,0,0,9,2ZM19,2a1,1,0,0,0,0-2ZM9,4A1,1,0,0,0,9,6Zm7,2a1,1,0,0,0,0-2ZM9,8a1,1,0,0,0,0,2Zm4,2a1,1,0,0,0,0-2ZM.293,13.707l4,4,1.414-1.414-4-4Zm5.414,4,4-4L8.293,12.293l-4,4ZM6,17V1H4V17ZM9,2H19V0H9ZM9,6h7V4H9Zm0,4h4V8H9Z" transform="translate(0)" fill="#09090b"/>
</svg>
