<svg id="arrow-up-a-z" xmlns="http://www.w3.org/2000/svg" width="19" height="18" viewBox="0 0 19 18">
  <path id="Vector" d="M.293,4.293A1,1,0,0,0,1.707,5.707ZM5,1,5.707.293a1,1,0,0,0-1.414,0ZM8.293,5.707A1,1,0,1,0,9.707,4.293ZM4,17a1,1,0,0,0,2,0ZM18,6a1,1,0,0,0,0-2ZM13,4a1,1,0,0,0,0,2ZM12,7a1,1,0,0,0,2,0Zm6-3.5h0ZM17,7a1,1,0,0,0,2,0Zm-4,3a1,1,0,0,0,0,2Zm5,1,.768.64A1,1,0,0,0,18,10Zm-5,6-.768-.64A1,1,0,0,0,13,18Zm5,1a1,1,0,0,0,0-2ZM1.707,5.707l4-4L4.293.293l-4,4Zm2.586-4,4,4L9.707,4.293l-4-4ZM4,1V17H6V1ZM18,4H13V6h5ZM14,7V3.5H12V7Zm0-3.5a1.5,1.5,0,0,1,.439-1.061L13.025,1.025A3.5,3.5,0,0,0,12,3.5Zm.439-1.061A1.5,1.5,0,0,1,15.5,2V0a3.5,3.5,0,0,0-2.475,1.025ZM15.5,2a1.5,1.5,0,0,1,1.061.439l1.414-1.414A3.5,3.5,0,0,0,15.5,0Zm1.061.439A1.5,1.5,0,0,1,17,3.5h2a3.5,3.5,0,0,0-1.025-2.475ZM17,3.5V7h2V3.5ZM13,12h5V10H13Zm4.232-1.64-5,6,1.536,1.28,5-6ZM13,18h5V16H13Z" fill="#09090b"/>
</svg>
