<svg id="audio-waveform" xmlns="http://www.w3.org/2000/svg" width="22" height="22" viewBox="0 0 22 22">
  <path id="Vector" d="M1,11a1,1,0,0,0,0,2Zm2-1H3ZM5,4V4ZM7,6H7Zm6-5V1Zm2,2h0Zm0,13h0Zm6-5a1,1,0,0,0,0-2ZM1,13a3,3,0,0,0,2.121-.879L1.707,10.707A1,1,0,0,1,1,11Zm2.121-.879A3,3,0,0,0,4,10H2a1,1,0,0,1-.293.707ZM4,10V6H2v4ZM4,6a1,1,0,0,1,.293-.707L2.879,3.879A3,3,0,0,0,2,6Zm.293-.707A1,1,0,0,1,5,5V3a3,3,0,0,0-2.121.879ZM5,5a1,1,0,0,1,.707.293L7.121,3.879A3,3,0,0,0,5,3Zm.707.293A1,1,0,0,1,6,6H8a3,3,0,0,0-.879-2.121ZM6,6V19H8V6ZM6,19a3,3,0,0,0,.879,2.121l1.414-1.414A1,1,0,0,1,8,19Zm.879,2.121A3,3,0,0,0,9,22V20a1,1,0,0,1-.707-.293ZM9,22a3,3,0,0,0,2.121-.879L9.707,19.707A1,1,0,0,1,9,20Zm2.121-.879A3,3,0,0,0,12,19H10a1,1,0,0,1-.293.707ZM12,19V3H10V19ZM12,3a1,1,0,0,1,.293-.707L10.879.879A3,3,0,0,0,10,3Zm.293-.707A1,1,0,0,1,13,2V0a3,3,0,0,0-2.121.879ZM13,2a1,1,0,0,1,.707.293L15.121.879A3,3,0,0,0,13,0Zm.707.293A1,1,0,0,1,14,3h2A3,3,0,0,0,15.121.879ZM14,3V16h2V3Zm0,13a3,3,0,0,0,.879,2.121l1.414-1.414A1,1,0,0,1,16,16Zm.879,2.121A3,3,0,0,0,17,19V17a1,1,0,0,1-.707-.293ZM17,19a3,3,0,0,0,2.121-.879l-1.414-1.414A1,1,0,0,1,17,17Zm2.121-.879A3,3,0,0,0,20,16H18a1,1,0,0,1-.293.707ZM20,16V12H18v4Zm0-4a1,1,0,0,1,.293-.707L18.879,9.879A3,3,0,0,0,18,12Zm.293-.707A1,1,0,0,1,21,11V9a3,3,0,0,0-2.121.879Z" fill="#09090b"/>
</svg>
