<svg id="axe" xmlns="http://www.w3.org/2000/svg" width="22.121" height="20.121" viewBox="0 0 22.121 20.121">
  <path id="Vector" d="M13.828,10.707a1,1,0,0,0-1.414-1.414ZM4.621,18.5l-.707-.707h0Zm-1.5.621v0ZM1,17H1Zm.621-1.5-.707-.707h0Zm9.207-7.793A1,1,0,0,0,9.414,6.293ZM14.121,11h1a1,1,0,0,0-.293-.707Zm-6-6-.707-.707a1,1,0,0,0,0,1.414Zm4-4,.707-.707a1,1,0,0,0-1.414,0Zm6,6-.707.707A1,1,0,0,0,18.121,8Zm3,0,.993.118A1,1,0,0,0,21.121,6Zm-7,7h-1a1,1,0,0,0,1.118.993ZM12.414,9.293l-8.5,8.5,1.414,1.414,8.5-8.5Zm-8.5,8.5a1.121,1.121,0,0,1-.793.328v2a3.121,3.121,0,0,0,2.207-.914Zm-.793.328a1.121,1.121,0,0,1-.793-.328L.914,19.207a3.121,3.121,0,0,0,2.207.914Zm-.793-.328A1.121,1.121,0,0,1,2,17H0a3.121,3.121,0,0,0,.914,2.207ZM2,17a1.121,1.121,0,0,1,.328-.793L.914,14.793A3.121,3.121,0,0,0,0,17Zm.328-.793,8.5-8.5L9.414,6.293l-8.5,8.5Zm12.5-5.914-6-6L7.414,5.707l6,6Zm-6-4.586,4-4L11.414.293l-4,4Zm2.586-4,6,6,1.414-1.414-6-6ZM18.121,8h3V6h-3Zm2.007-1.118a7,7,0,0,1-2,4.124l1.414,1.414a9,9,0,0,0,2.573-5.3Zm-2,4.124a7,7,0,0,1-4.124,2l.236,1.986a9,9,0,0,0,5.3-2.573ZM15.121,14V11h-2v3Z" transform="translate(0)" fill="#09090b"/>
</svg>
