<svg id="baby" xmlns="http://www.w3.org/2000/svg" width="21.856" height="19.913" viewBox="0 0 21.856 19.913">
  <path id="Vector" d="M7.928,9a1,1,0,0,0,0,2Zm.01,2a1,1,0,0,0,0-2Zm5.99-2a1,1,0,0,0,0,2Zm.01,2a1,1,0,1,0,0-2Zm-4.5,2.142a1,1,0,0,0-1.029,1.715Zm4,1.715a1,1,0,1,0-1.029-1.715ZM18.71,3.676a1,1,0,1,0-1.563,1.247ZM19.728,8.2l-.982.19a1,1,0,0,0,.546.71Zm0,3.6-.436-.9a1,1,0,0,0-.542.69Zm-17.6,0,.978-.21a1,1,0,0,0-.542-.69ZM1,10H1ZM2.128,8.2l.436.9a1,1,0,0,0,.544-.7Zm8.8-7.2V0h0Zm1,4a1,1,0,1,0-2,0Zm-4,6h.01V9h-.01Zm6,0h.01V9h-.01ZM8.414,14.858a4.932,4.932,0,0,0,2.514.642v-2a2.95,2.95,0,0,1-1.486-.358Zm2.514.642a4.932,4.932,0,0,0,2.514-.642l-1.029-1.715a2.95,2.95,0,0,1-1.485.358ZM17.146,4.924a8,8,0,0,1,1.6,3.467L20.71,8.01a10,10,0,0,0-2-4.333ZM19.292,9.1a1,1,0,0,1,.412.369L21.4,8.407A3,3,0,0,0,20.164,7.3Zm.412.369a1,1,0,0,1,.153.531h2A3,3,0,0,0,21.4,8.407Zm.153.531a1,1,0,0,1-.153.531L21.4,11.593A3,3,0,0,0,21.856,10Zm-.153.531a1,1,0,0,1-.412.369l.872,1.8A3,3,0,0,0,21.4,11.593ZM18.75,11.59a8,8,0,0,1-2.793,4.544l1.257,1.555a10,10,0,0,0,3.492-5.681Zm-2.793,4.544a8,8,0,0,1-5.029,1.778v2a10,10,0,0,0,6.286-2.223Zm-5.029,1.778A8,8,0,0,1,5.9,16.135L4.642,17.69a10,10,0,0,0,6.286,2.223ZM5.9,16.135A8,8,0,0,1,3.106,11.59L1.15,12.01A10,10,0,0,0,4.642,17.69ZM2.564,10.9a1,1,0,0,1-.411-.369L.458,11.593A3,3,0,0,0,1.692,12.7Zm-.411-.369A1,1,0,0,1,2,10H0a3,3,0,0,0,.458,1.593ZM2,10a1,1,0,0,1,.153-.531L.458,8.407A3,3,0,0,0,0,10Zm.153-.531A1,1,0,0,1,2.564,9.1L1.692,7.3A3,3,0,0,0,.458,8.407ZM3.108,8.4A8,8,0,0,1,5.88,3.808L4.614,2.26A10,10,0,0,0,1.148,8ZM5.88,3.808A8,8,0,0,1,10.93,2l0-2A10,10,0,0,0,4.614,2.26ZM10.928,2a3.3,3.3,0,0,1,1.916.537,1.206,1.206,0,0,1,.584.963h2A3.193,3.193,0,0,0,14.012.913,5.285,5.285,0,0,0,10.928,0Zm2.5,1.5c0,1.06-.643,1.5-1,1.5V7c1.843,0,3-1.76,3-3.5Zm-1,1.5a1.007,1.007,0,0,1-.513-.119c-.039-.025-.038-.034-.023-.012a.253.253,0,0,1,.036.13h-2a1.861,1.861,0,0,0,.913,1.569A2.981,2.981,0,0,0,12.428,7Z" transform="translate(0)" fill="#09090b"/>
</svg>
