<svg id="backpack" xmlns="http://www.w3.org/2000/svg" width="18" height="22" viewBox="0 0 18 22">
  <path id="Vector" d="M5,5V5Zm8,0V5ZM1,19H1ZM5,5A1,1,0,0,0,7,5ZM8,1V1Zm2,0V1Zm1,4a1,1,0,0,0,2,0ZM4,20a1,1,0,0,0,2,0Zm3-7v0Zm5,7a1,1,0,0,0,2,0ZM5,8a1,1,0,0,0,0,2Zm8,2a1,1,0,0,0,0-2ZM5,16a1,1,0,0,0,0,2Zm8,2a1,1,0,0,0,0-2ZM2,9a3,3,0,0,1,.879-2.121L1.464,5.464A5,5,0,0,0,0,9Zm.879-2.121A3,3,0,0,1,5,6V4A5,5,0,0,0,1.464,5.464ZM5,6h8V4H5Zm8,0a3,3,0,0,1,2.121.879l1.414-1.414A5,5,0,0,0,13,4Zm2.121.879A3,3,0,0,1,16,9h2a5,5,0,0,0-1.465-3.536ZM16,9V19h2V9Zm0,10a1,1,0,0,1-.293.707l1.414,1.414A3,3,0,0,0,18,19Zm-.293.707A1,1,0,0,1,15,20v2a3,3,0,0,0,2.121-.879ZM15,20H3v2H15ZM3,20a1,1,0,0,1-.707-.293L.879,21.121A3,3,0,0,0,3,22Zm-.707-.293A1,1,0,0,1,2,19H0a3,3,0,0,0,.879,2.121ZM2,19V9H0V19ZM7,5V3H5V5ZM7,3a1,1,0,0,1,.293-.707L5.879.879A3,3,0,0,0,5,3Zm.293-.707A1,1,0,0,1,8,2V0A3,3,0,0,0,5.879.879ZM8,2h2V0H8Zm2,0a1,1,0,0,1,.707.293L12.121.879A3,3,0,0,0,10,0Zm.707.293A1,1,0,0,1,11,3h2A3,3,0,0,0,12.121.879ZM11,3V5h2V3ZM6,20V15H4v5Zm0-5a1,1,0,0,1,.293-.707L4.879,12.879A3,3,0,0,0,4,15Zm.293-.707A1,1,0,0,1,7,14V12a3,3,0,0,0-2.121.879ZM7,14h4V12H7Zm4,0a1,1,0,0,1,.707.293l1.414-1.414A3,3,0,0,0,11,12Zm.707.293A1,1,0,0,1,12,15h2a3,3,0,0,0-.879-2.121ZM12,15v5h2V15ZM5,10h8V8H5Zm0,8h8V16H5Z" fill="#09090b"/>
</svg>
