<svg id="baggage-claim" xmlns="http://www.w3.org/2000/svg" width="22" height="22" viewBox="0 0 22 22">
  <path id="Vector" d="M21,18a1,1,0,0,0,0-2ZM3,15H3ZM3,6H3ZM1,3A1,1,0,0,0,1,5ZM15,13a1,1,0,0,0,2,0ZM14,1V1ZM13,1V1ZM10,13a1,1,0,0,0,2,0Zm11,3H5v2H21ZM5,16a1,1,0,0,1-.707-.293L2.879,17.121A3,3,0,0,0,5,18Zm-.707-.293A1,1,0,0,1,4,15H2a3,3,0,0,0,.879,2.121ZM4,15V6H2v9ZM4,6a3,3,0,0,0-.879-2.121L1.707,5.293A1,1,0,0,1,2,6ZM3.121,3.879A3,3,0,0,0,1,3V5a1,1,0,0,1,.707.293ZM17,13V3H15V13ZM17,3A3,3,0,0,0,16.121.879L14.707,2.293A1,1,0,0,1,15,3ZM16.121.879A3,3,0,0,0,14,0V2a1,1,0,0,1,.707.293ZM14,0H13V2h1ZM13,0a3,3,0,0,0-2.121.879l1.414,1.414A1,1,0,0,1,13,2ZM10.879.879A3,3,0,0,0,10,3h2a1,1,0,0,1,.293-.707ZM10,3V13h2V3ZM8,6H19V4H8ZM19,6h2a2,2,0,0,0-2-2Zm0,0v6h2V6Zm0,6v2a2,2,0,0,0,2-2Zm0,0H8v2H19ZM8,12H6a2,2,0,0,0,2,2Zm0,0V6H6v6ZM8,6V4A2,2,0,0,0,6,6ZM18,19a1,1,0,0,1-1,1v2a3,3,0,0,0,3-3Zm-1,1a1,1,0,0,1-1-1H14a3,3,0,0,0,3,3Zm-1-1a1,1,0,0,1,1-1V16a3,3,0,0,0-3,3Zm1-1a1,1,0,0,1,1,1h2a3,3,0,0,0-3-3ZM9,19a1,1,0,0,1-1,1v2a3,3,0,0,0,3-3ZM8,20a1,1,0,0,1-1-1H5a3,3,0,0,0,3,3ZM7,19a1,1,0,0,1,1-1V16a3,3,0,0,0-3,3Zm1-1a1,1,0,0,1,1,1h2a3,3,0,0,0-3-3Z" fill="#09090b"/>
</svg>
