<svg id="banana" xmlns="http://www.w3.org/2000/svg" width="22.001" height="22" viewBox="0 0 22.001 22">
  <path id="Vector" d="M2.5,11.132A1,1,0,0,0,3.5,12.868ZM13,14l-.894.447a1,1,0,0,0,1.349.443Zm7,4.982a1,1,0,1,0,2,.037ZM4.15,16.89l-.265-.964h0Zm7-12-.953.3,0,0ZM3.5,12.868a8.018,8.018,0,0,1,4.93-1.128,4.675,4.675,0,0,1,3.68,2.707l1.789-.894A6.671,6.671,0,0,0,8.7,9.759a10,10,0,0,0-6.2,1.372Zm9.959,2.022A4.5,4.5,0,0,1,15.7,14.4l.087-2a6.5,6.5,0,0,0-3.237.7ZM15.7,14.4a4.5,4.5,0,0,1,2.19.68l1.06-1.7a6.5,6.5,0,0,0-3.164-.982Zm2.19.68a4.5,4.5,0,0,1,1.571,1.671l1.758-.953a6.5,6.5,0,0,0-2.269-2.414Zm1.571,1.671A4.5,4.5,0,0,1,20,18.982l2,.037a6.5,6.5,0,0,0-.785-3.218Zm-15.041,1.1c6.006-1.654,9.53-7.56,7.686-13.271L10.2,5.2c1.456,4.508-1.28,9.343-6.314,10.729ZM12.1,4.587a5.6,5.6,0,0,1-.325-2.217.722.722,0,0,1,.112-.357s0,0,0,0A.3.3,0,0,1,12,2V0a2.087,2.087,0,0,0-1.591.67A2.625,2.625,0,0,0,9.8,2.1a7.488,7.488,0,0,0,.4,3.091ZM12,2c1,0,1.994.879,2.814,2.511A11.3,11.3,0,0,1,16,9h2a13.249,13.249,0,0,0-1.4-5.386C15.726,1.871,14.225,0,12,0Zm4,7c0,6.119-3.909,11-9.49,11v2C13.509,22,18,15.881,18,9ZM6.51,20a16.568,16.568,0,0,1-3.429-.224,2.19,2.19,0,0,1-.908-.38A.455.455,0,0,1,2,19H0a2.447,2.447,0,0,0,.874,1.916,4.112,4.112,0,0,0,1.755.808A18.253,18.253,0,0,0,6.51,22ZM2,19a.693.693,0,0,1,.061-.359.481.481,0,0,1,.21-.155,4.554,4.554,0,0,1,.8-.276c.186-.051.386-.1.614-.161s.469-.122.73-.195l-.537-1.927c-.242.067-.472.128-.695.185s-.438.113-.642.169a6.4,6.4,0,0,0-1.174.419,2.439,2.439,0,0,0-1.013.892A2.631,2.631,0,0,0,0,19Z" transform="translate(0)" fill="#09090b"/>
</svg>
