<svg id="banknote" xmlns="http://www.w3.org/2000/svg" width="22" height="14" viewBox="0 0 22 14">
  <path id="Vector" d="M5,6A1,1,0,0,0,5,8Zm.01,2a1,1,0,0,0,0-2ZM17,6a1,1,0,0,0,0,2Zm.01,2a1,1,0,0,0,0-2ZM3,2H19V0H3ZM19,2a1,1,0,0,1,1,1h2a3,3,0,0,0-3-3Zm1,1v8h2V3Zm0,8a1,1,0,0,1-1,1v2a3,3,0,0,0,3-3Zm-1,1H3v2H19ZM3,12a1,1,0,0,1-1-1H0a3,3,0,0,0,3,3ZM2,11V3H0v8ZM2,3A1,1,0,0,1,3,2V0A3,3,0,0,0,0,3ZM12,7a1,1,0,0,1-1,1v2a3,3,0,0,0,3-3ZM11,8a1,1,0,0,1-1-1H8a3,3,0,0,0,3,3ZM10,7a1,1,0,0,1,1-1V4A3,3,0,0,0,8,7Zm1-1a1,1,0,0,1,1,1h2a3,3,0,0,0-3-3ZM5,8h.01V6H5ZM17,8h.01V6H17Z" fill="#09090b"/>
</svg>
