<svg id="bath" xmlns="http://www.w3.org/2000/svg" width="22" height="20" viewBox="0 0 22 20">
  <path id="Vector" d="M7.293,4.707A1,1,0,0,0,8.707,3.293ZM5.5,1.5l-.748.663.041.044ZM4.5,1l.082-1Q4.541,0,4.5,0ZM3,15H3Zm17-5a1,1,0,0,0-2,0ZM9.707,3.707A1,1,0,1,0,8.293,2.293Zm-3.414.586A1,1,0,0,0,7.707,5.707ZM1,9a1,1,0,0,0,0,2Zm20,2a1,1,0,0,0,0-2ZM7,17a1,1,0,0,0-2,0ZM5,19a1,1,0,0,0,2,0Zm12-2a1,1,0,0,0-2,0Zm-2,2a1,1,0,0,0,2,0ZM8.707,3.293l-2.5-2.5L4.793,2.207l2.5,2.5ZM6.248.837A2.5,2.5,0,0,0,4.582,0L4.418,2a.5.5,0,0,1,.333.167ZM4.5,0A2.515,2.515,0,0,0,2,2.5H4A.515.515,0,0,1,4.5,2ZM2,2.5V15H4V2.5ZM2,15a3,3,0,0,0,.879,2.121l1.414-1.414A1,1,0,0,1,4,15Zm.879,2.121A3,3,0,0,0,5,18V16a1,1,0,0,1-.707-.293ZM5,18H17V16H5Zm12,0a3,3,0,0,0,2.121-.879l-1.414-1.414A1,1,0,0,1,17,16Zm2.121-.879A3,3,0,0,0,20,15H18a1,1,0,0,1-.293.707ZM20,15V10H18v5ZM8.293,2.293l-2,2L7.707,5.707l2-2ZM1,11H21V9H1Zm4,6v2H7V17Zm10,0v2h2V17Z" fill="#09090b"/>
</svg>
