<svg id="battery-charging" xmlns="http://www.w3.org/2000/svg" width="22" height="12" viewBox="0 0 22 12">
  <path id="Vector" d="M14,0a1,1,0,1,0,0,2Zm1,1V1Zm-2,9a1,1,0,0,0,0,2ZM5,2A1,1,0,0,0,5,0ZM3,1V1ZM1,3H1ZM1,9H1Zm3,3a1,1,0,0,0,0-2ZM10.857,1.515A1,1,0,1,0,9.143.486ZM7,6l-.857-.515A1,1,0,0,0,7,7Zm4,0,.858.515A1,1,0,0,0,11,5ZM7.143,10.486a1,1,0,1,0,1.715,1.029ZM22,5a1,1,0,0,0-2,0ZM20,7a1,1,0,1,0,2,0ZM14,2h1V0H14Zm1,0a1,1,0,0,1,.707.293L17.121.879A3,3,0,0,0,15,0Zm.707.293A1,1,0,0,1,16,3h2A3,3,0,0,0,17.121.879ZM16,3V9h2V3Zm0,6a1,1,0,0,1-.293.707l1.414,1.414A3,3,0,0,0,18,9Zm-.293.707A1,1,0,0,1,15,10v2a3,3,0,0,0,2.121-.879ZM15,10H13v2h2ZM5,0H3V2H5ZM3,0A3,3,0,0,0,.879.879L2.293,2.293A1,1,0,0,1,3,2ZM.879.879A3,3,0,0,0,0,3H2a1,1,0,0,1,.293-.707ZM0,3V9H2V3ZM0,9a3,3,0,0,0,.879,2.121L2.293,9.707A1,1,0,0,1,2,9Zm.879,2.121A3,3,0,0,0,3,12V10a1,1,0,0,1-.707-.293ZM3,12H4V10H3ZM9.143.486l-3,5L7.857,6.515l3-5ZM7,7h4V5H7Zm3.143-1.515-3,5,1.715,1.029,3-5ZM20,5V7h2V5Z" transform="translate(0 0)" fill="#09090b"/>
</svg>
