<svg id="bean" xmlns="http://www.w3.org/2000/svg" width="22.005" height="22.005" viewBox="0 0 22.005 22.005">
  <path id="Vector" d="M9.17,5.6l.972.233h0ZM5.6,9.17l.233.972h0ZM7,21V20H7ZM21,7h0ZM5.259,9.219a1,1,0,1,0-1.828.812ZM10.03,3.431a1,1,0,0,0-.812,1.828ZM8.2,5.369A3.977,3.977,0,0,1,7.3,7.3L8.712,8.712a5.9,5.9,0,0,0,1.43-2.876ZM7.3,7.3a3.972,3.972,0,0,1-1.928.9l.466,1.945a5.9,5.9,0,0,0,2.876-1.43ZM5.37,8.2A7,7,0,0,0,1.258,11L2.9,12.145a5,5,0,0,1,2.937-2ZM1.258,11A7,7,0,0,0,.049,15.828l1.986-.235A5,5,0,0,1,2.9,12.145ZM.049,15.828a7,7,0,0,0,2.3,4.411l1.328-1.5a5,5,0,0,1-1.646-3.151Zm2.3,4.411A7,7,0,0,0,7.005,22l0-2A5,5,0,0,1,3.68,18.744ZM7,22A15,15,0,0,0,22,7H20A13,13,0,0,1,7,20Zm15-15a7,7,0,0,0-1.765-4.653l-1.5,1.328A5,5,0,0,1,20,7ZM20.239,2.353a7,7,0,0,0-4.411-2.3l-.235,1.986A5,5,0,0,1,18.744,3.68ZM15.828.049A7,7,0,0,0,11,1.258L12.145,2.9a5,5,0,0,1,3.448-.864ZM11,1.258A7,7,0,0,0,8.2,5.37l1.945.466a5,5,0,0,1,2-2.937ZM3.431,10.031A5,5,0,0,0,4.9,11.925l1.239-1.57a3,3,0,0,1-.883-1.137ZM4.9,11.925a5,5,0,0,0,2.185.991l.365-1.966a3,3,0,0,1-1.311-.595Zm2.185.991a5,5,0,0,0,2.395-.141l-.593-1.91a3,3,0,0,1-1.437.084Zm2.395-.141a5,5,0,0,0,2.054-1.24l-1.414-1.414a3,3,0,0,1-1.232.744Zm2.054-1.24a5,5,0,0,0,1.24-2.054l-1.91-.593a3,3,0,0,1-.744,1.232Zm1.24-2.054a5,5,0,0,0,.14-2.395l-1.966.365a3,3,0,0,1-.084,1.437Zm.14-2.395A5,5,0,0,0,11.925,4.9l-1.57,1.239a3,3,0,0,1,.595,1.311ZM11.925,4.9A5,5,0,0,0,10.03,3.431L9.218,5.259a3,3,0,0,1,1.137.883Z" transform="translate(0 0)" fill="#09090b"/>
</svg>
