<svg id="bean-off" xmlns="http://www.w3.org/2000/svg" width="22.004" height="22.002" viewBox="0 0 22.004 22.002">
  <path id="Vector" d="M8.712,8.709A1,1,0,0,0,7.3,7.3ZM5.6,9.167l.233.972h0ZM7,21V20H7Zm10.608-3.394A1,1,0,0,0,16.2,16.2Zm-8.733-14a1,1,0,1,0,1.75.968ZM21,7h0Zm-2.562,6.184a1,1,0,1,0,1.758.953ZM5.26,9.217a1,1,0,0,0-1.829.81Zm6.28,2.32a1,1,0,1,0-1.415-1.414ZM10.03,3.429a1,1,0,1,0-.812,1.828Zm.719,3.36a1,1,0,0,0,1.828-.811ZM1.712.3A1,1,0,0,0,.3,1.709ZM20.3,21.709A1,1,0,0,0,21.712,20.3ZM7.3,7.3a3.972,3.972,0,0,1-1.928.9l.466,1.945a5.9,5.9,0,0,0,2.876-1.43Zm-1.928.9A7,7,0,0,0,1.258,11L2.9,12.142a5,5,0,0,1,2.937-2ZM1.258,11A7,7,0,0,0,.049,15.826l1.986-.235A5,5,0,0,1,2.9,12.142ZM.049,15.826a7,7,0,0,0,2.3,4.411l1.328-1.5A5,5,0,0,1,2.035,15.59Zm2.3,4.411A7,7,0,0,0,7.005,22l0-2A5,5,0,0,1,3.68,18.741ZM7,22a14.96,14.96,0,0,0,5.743-1.138l-.765-1.848A12.961,12.961,0,0,1,7.006,20Zm5.743-1.138a14.96,14.96,0,0,0,4.866-3.255L16.2,16.2a12.96,12.96,0,0,1-4.216,2.82ZM10.629,4.579a5,5,0,0,1,2.4-2.172L12.238.57A7,7,0,0,0,8.879,3.611Zm2.4-2.172a5,5,0,0,1,3.227-.248l.5-1.936A7,7,0,0,0,12.238.57Zm3.227-.248a5,5,0,0,1,2.7,1.78L20.54,2.715A7,7,0,0,0,16.756.223Zm2.7,1.78A5,5,0,0,1,20,7h2A7,7,0,0,0,20.54,2.715ZM20,7a12.938,12.938,0,0,1-1.562,6.184l1.758.953A14.937,14.937,0,0,0,22,7ZM3.431,10.027a5,5,0,0,0,1.471,1.9l1.24-1.569A3,3,0,0,1,5.26,9.217Zm1.471,1.9a5,5,0,0,0,2.186.993l.366-1.966a3,3,0,0,1-1.312-.6Zm2.186.993a5,5,0,0,0,2.4-.14l-.593-1.91a3,3,0,0,1-1.438.084Zm2.4-.14a5,5,0,0,0,2.055-1.241l-1.415-1.414a3,3,0,0,1-1.233.745ZM9.218,5.257a3.015,3.015,0,0,1,1.531,1.532l1.828-.811A5.015,5.015,0,0,0,10.03,3.429ZM.3,1.709l20,20L21.712,20.3l-20-20Z" transform="translate(0 0)" fill="#09090b"/>
</svg>
