<svg id="bed-double" xmlns="http://www.w3.org/2000/svg" width="22" height="18" viewBox="0 0 22 18">
  <path id="Vector" d="M0,17a1,1,0,0,0,2,0ZM3,7V7ZM20,17a1,1,0,0,0,2,0ZM5,1V1ZM17,1V1ZM12,1a1,1,0,0,0-2,0ZM10,7a1,1,0,0,0,2,0ZM1,14a1,1,0,0,0,0,2Zm20,2a1,1,0,0,0,0-2ZM2,17V9H0v8ZM2,9a1,1,0,0,1,.293-.707L.879,6.879A3,3,0,0,0,0,9Zm.293-.707A1,1,0,0,1,3,8V6a3,3,0,0,0-2.121.879ZM3,8H19V6H3ZM19,8a1,1,0,0,1,.707.293l1.414-1.414A3,3,0,0,0,19,6Zm.707.293A1,1,0,0,1,20,9h2a3,3,0,0,0-.879-2.121ZM20,9v8h2V9ZM4,7V3H2V7ZM4,3a1,1,0,0,1,.293-.707L2.879.879A3,3,0,0,0,2,3Zm.293-.707A1,1,0,0,1,5,2V0A3,3,0,0,0,2.879.879ZM5,2H17V0H5ZM17,2a1,1,0,0,1,.707.293L19.121.879A3,3,0,0,0,17,0Zm.707.293A1,1,0,0,1,18,3h2A3,3,0,0,0,19.121.879ZM18,3V7h2V3ZM10,1V7h2V1ZM1,16H21V14H1Z" fill="#09090b"/>
</svg>
