<svg id="beef" xmlns="http://www.w3.org/2000/svg" width="20.998" height="22" viewBox="0 0 20.998 22">
  <path id="Vector" d="M11.5,1V2h0ZM5.278,5.6l.943.332.013-.039ZM2.1,11.68l.634.773.038-.033ZM4,17v1H4Zm11.4-4.3-.6-.8-.04.032Zm3-8.138a1,1,0,0,0-1.8.875ZM19.688,9.5l.952-.306a1,1,0,0,0-.053-.132Zm.31,2-1,0v0Zm-2.6,5.2-.6-.8-.041.032ZM6,21v1H6Zm-2.68-1.66.895-.447h0ZM2.292,15.053A1,1,0,0,0,.5,15.947ZM13,7.5A1.5,1.5,0,0,1,11.5,9v2A3.5,3.5,0,0,0,15,7.5ZM11.5,9A1.5,1.5,0,0,1,10,7.5H8A3.5,3.5,0,0,0,11.5,11ZM10,7.5A1.5,1.5,0,0,1,11.5,6V4A3.5,3.5,0,0,0,8,7.5ZM11.5,6A1.5,1.5,0,0,1,13,7.5h2A3.5,3.5,0,0,0,11.5,4Zm0-6A7.5,7.5,0,0,0,7.035,1.47L8.224,3.078A5.5,5.5,0,0,1,11.5,2ZM7.035,1.47A7.5,7.5,0,0,0,4.322,5.308l1.913.585A5.5,5.5,0,0,1,8.224,3.078Zm-2.7,3.8c-.284.809-.477,1.466-.639,2.011a13.361,13.361,0,0,1-.443,1.332A6.293,6.293,0,0,1,1.426,10.94L2.77,12.42A8.244,8.244,0,0,0,5.1,9.382a15.164,15.164,0,0,0,.515-1.533c.163-.548.343-1.161.608-1.917ZM1.464,10.907A4,4,0,0,0,.145,12.931l1.927.535a2,2,0,0,1,.659-1.012ZM.145,12.931a4,4,0,0,0,.088,2.414l1.883-.673a2,2,0,0,1-.044-1.207Zm.088,2.414a4,4,0,0,0,1.462,1.924l1.153-1.635a2,2,0,0,1-.731-.962Zm1.462,1.924A4,4,0,0,0,4,18V16a2,2,0,0,1-1.151-.366ZM4,18a19.881,19.881,0,0,0,12.04-4.532l-1.28-1.536A17.891,17.891,0,0,1,4,16Zm12-4.5a7.5,7.5,0,0,0,2.659-3.764l-1.909-.6A5.5,5.5,0,0,1,14.8,11.9Zm2.659-3.764a7.5,7.5,0,0,0-.044-4.608l-1.9.632a5.5,5.5,0,0,1,.032,3.379Zm-.044-4.608a7.5,7.5,0,0,0-2.73-3.713L14.714,3.038a5.5,5.5,0,0,1,2,2.723Zm-2.73-3.713A7.5,7.5,0,0,0,11.5,0V2a5.5,5.5,0,0,1,3.216,1.038ZM16.6,5.438l2.19,4.5,1.8-.875-2.19-4.5Zm2.137,4.368A5.482,5.482,0,0,1,19,11.5l2,.006a7.478,7.478,0,0,0-.358-2.309ZM19,11.5a5.489,5.489,0,0,1-.58,2.459l1.789.894A7.489,7.489,0,0,0,21,11.5Zm-.58,2.459A5.491,5.491,0,0,1,16.8,15.9L18,17.5a7.49,7.49,0,0,0,2.21-2.646Zm-1.661,1.972A17.891,17.891,0,0,1,6,20v2a19.881,19.881,0,0,0,12.04-4.532ZM6,20a2,2,0,0,1-1.05-.3L3.9,21.4A4,4,0,0,0,6,22Zm-1.05-.3a2,2,0,0,1-.736-.807l-1.789.893A4,4,0,0,0,3.9,21.4Zm-.737-.808-1.92-3.84L.5,15.947l1.92,3.84Z" transform="translate(0 0)" fill="#09090b"/>
</svg>
