<svg id="bell-electric" xmlns="http://www.w3.org/2000/svg" width="22" height="22" viewBox="0 0 22 22">
  <path id="Vector" d="M18.685,2.535a1,1,0,1,0-1.771.93ZM18,8.009a1,1,0,1,0,2-.018ZM8,7A1,1,0,0,0,8,9Zm.01,2a1,1,0,0,0,0-2ZM13,17a1,1,0,0,0,0,2Zm5.307.107a1,1,0,1,0-1.414-1.414ZM16.915,3.465A10.063,10.063,0,0,1,18,8.009l2-.018a12.057,12.057,0,0,0-1.315-5.456ZM8,9h.01V7H8Zm6-1a6,6,0,0,1-6,6v2a8,8,0,0,0,8-8ZM8,14A6,6,0,0,1,2,8H0a8,8,0,0,0,8,8ZM2,8A6,6,0,0,1,8,2V0A8,8,0,0,0,0,8ZM8,2a6,6,0,0,1,6,6h2A8,8,0,0,0,8,0ZM5,16h6V14H5Zm6,0a1,1,0,0,1,1,1h2a3,3,0,0,0-3-3Zm1,1v2h2V17Zm0,2a1,1,0,0,1-1,1v2a3,3,0,0,0,3-3Zm-1,1H5v2h6ZM5,20a1,1,0,0,1-1-1H2a3,3,0,0,0,3,3ZM4,19V17H2v2Zm0-2a1,1,0,0,1,1-1V14a3,3,0,0,0-3,3Zm9,2a8.415,8.415,0,0,0,3.884-.911,6.975,6.975,0,0,0,1.026-.643c.119-.09.211-.168.278-.227l.08-.073.025-.024.009-.009,0,0h0s0,0-.706-.708-.707-.707-.706-.708h0l0,0,0,0,0,0-.032.029c-.033.029-.089.076-.167.136a5,5,0,0,1-.731.457A6.419,6.419,0,0,1,13,17Zm7-4a1,1,0,0,1-1,1v2a3,3,0,0,0,3-3Zm-1,1a1,1,0,0,1-1-1H16a3,3,0,0,0,3,3Zm-1-1a1,1,0,0,1,1-1V12a3,3,0,0,0-3,3Zm1-1a1,1,0,0,1,1,1h2a3,3,0,0,0-3-3Z" fill="#09090b"/>
</svg>
