<svg id="bell" xmlns="http://www.w3.org/2000/svg" width="20" height="22.005" viewBox="0 0 20 22.005">
  <path id="Vector" d="M4,7H4Zm6-6V1Zm6,6h0Zm3,9v1a1,1,0,0,0,.555-1.832ZM1,16l-.555-.832A1,1,0,0,0,1,17Zm8.176,3.518a1,1,0,1,0-1.753.964Zm3.4.964a1,1,0,1,0-1.753-.964ZM5,7A5,5,0,0,1,6.465,3.464L5.05,2.05A7,7,0,0,0,3,7ZM6.465,3.464A5,5,0,0,1,10,2V0A7,7,0,0,0,5.05,2.05ZM10,2a5,5,0,0,1,3.535,1.464L14.95,2.05A7,7,0,0,0,10,0Zm3.535,1.464A5,5,0,0,1,15,7h2a7,7,0,0,0-2.05-4.95ZM15,7a15.706,15.706,0,0,0,1.622,7.6,7.923,7.923,0,0,0,1.183,1.662,5.03,5.03,0,0,0,.426.4c.055.046.1.082.138.109l.046.034.017.012.007,0,0,0h0s0,0,.556-.831.555-.832.556-.831h0l0,0,0,0,0,0,0,0c-.008-.006-.026-.019-.052-.042a3.042,3.042,0,0,1-.254-.242,5.939,5.939,0,0,1-.879-1.244A13.751,13.751,0,0,1,17,7Zm4,8H1v2H19ZM1,16c.555.832.555.832.556.831h0l0,0,.007,0,.017-.012.046-.034c.036-.027.083-.063.138-.109a5.018,5.018,0,0,0,.426-.4A7.925,7.925,0,0,0,3.378,14.6,15.706,15.706,0,0,0,5,7H3a13.751,13.751,0,0,1-1.378,6.646A5.938,5.938,0,0,1,.743,14.89a3.037,3.037,0,0,1-.254.242c-.027.022-.044.036-.052.042l0,0,0,0,0,0,0,0h0s0,0,.556.831Zm6.424,4.482A2.94,2.94,0,0,0,8.5,21.6l1.018-1.722a.939.939,0,0,1-.345-.356ZM8.5,21.6a2.94,2.94,0,0,0,1.5.409v-2a.94.94,0,0,1-.478-.131Zm1.5.409a2.94,2.94,0,0,0,1.5-.409l-1.018-1.722a.94.94,0,0,1-.478.131Zm1.5-.409a2.939,2.939,0,0,0,1.08-1.114l-1.753-.964a.939.939,0,0,1-.345.356Z" transform="translate(0 0)" fill="#09090b"/>
</svg>
