<svg id="between-vertical-start" xmlns="http://www.w3.org/2000/svg" width="20" height="21" viewBox="0 0 20 21">
  <path id="Vector" d="M13.707,1.707A1,1,0,0,0,12.293.293ZM10,4l-.707.707a1,1,0,0,0,1.414,0ZM7.707.293A1,1,0,0,0,6.293,1.707ZM2,8H7V6H2ZM7,8H9A2,2,0,0,0,7,6ZM7,8V19H9V8ZM7,19v2a2,2,0,0,0,2-2Zm0,0H2v2H7ZM2,19H0a2,2,0,0,0,2,2Zm0,0V8H0V19ZM2,8V6A2,2,0,0,0,0,8ZM12.293.293l-3,3,1.414,1.414,3-3Zm-1.586,3-3-3L6.293,1.707l3,3ZM13,8h5V6H13Zm5,0h2a2,2,0,0,0-2-2Zm0,0V19h2V8Zm0,11v2a2,2,0,0,0,2-2Zm0,0H13v2h5Zm-5,0H11a2,2,0,0,0,2,2Zm0,0V8H11V19ZM13,8V6a2,2,0,0,0-2,2Z" fill="#09090b"/>
</svg>
