<svg id="between-horizontal-start" xmlns="http://www.w3.org/2000/svg" width="21" height="20" viewBox="0 0 21 20">
  <path id="Vector" d="M1.707,6.293A1,1,0,1,0,.293,7.707ZM4,10l.707.707a1,1,0,0,0,0-1.414ZM.293,12.293a1,1,0,0,0,1.414,1.414ZM8,2H19V0H8ZM19,2h2a2,2,0,0,0-2-2Zm0,0V7h2V2Zm0,5V9a2,2,0,0,0,2-2Zm0,0H8V9H19ZM8,7H6A2,2,0,0,0,8,9ZM8,7V2H6V7ZM8,2V0A2,2,0,0,0,6,2ZM.293,7.707l3,3L4.707,9.293l-3-3Zm3,1.586-3,3,1.414,1.414,3-3ZM8,13H19V11H8Zm11,0h2a2,2,0,0,0-2-2Zm0,0v5h2V13Zm0,5v2a2,2,0,0,0,2-2Zm0,0H8v2H19ZM8,18H6a2,2,0,0,0,2,2Zm0,0V13H6v5Zm0-5V11a2,2,0,0,0-2,2Z" fill="#09090b"/>
</svg>
