<svg id="biceps-flexed" xmlns="http://www.w3.org/2000/svg" width="21.991" height="22" viewBox="0 0 21.991 22">
  <path id="Vector" d="M10.482,11.621a1,1,0,1,0,1.836.792ZM20.991,14h0ZM1.62,18.538l-.6.8h0ZM1,17.176,2,17.2H2ZM9.991,6V6ZM8.831,4.457A1,1,0,0,0,7.152,5.543Zm4.56,9.343a1,1,0,0,0,1.2-1.6Zm-7.9.8a1,1,0,1,0,1.833.8ZM9.465,6.685A1,1,0,0,0,8.446,4.965ZM6.191,13.4a1,1,0,0,0,1.6,1.2Zm6.127-.987a4,4,0,0,1,1.826-1.964l-.923-1.774a6,6,0,0,0-2.739,2.946Zm1.826-1.964A4,4,0,0,1,16.8,10.08l.405-1.959a6,6,0,0,0-3.985.553ZM16.8,10.08a4,4,0,0,1,2.292,1.392l1.551-1.263a6,6,0,0,0-3.438-2.088Zm2.292,1.392a4,4,0,0,1,.9,2.527h2a6,6,0,0,0-1.347-3.791Zm.9,2.528c0,3.1-3.306,6-8,6v2c5.306,0,10-3.364,10-8Zm-8,6a26.05,26.05,0,0,1-5.661-.59,11.263,11.263,0,0,1-4.115-1.675l-1.19,1.607A13.2,13.2,0,0,0,5.887,21.36a28.041,28.041,0,0,0,6.1.64ZM2.216,17.735A.633.633,0,0,1,2,17.2l-2-.042a2.624,2.624,0,0,0,1.024,2.186ZM2,17.2A36.871,36.871,0,0,1,3.225,7.344,9.51,9.51,0,0,1,5.356,3.466,4.888,4.888,0,0,1,8.991,2V0A6.885,6.885,0,0,0,3.939,2.055,11.469,11.469,0,0,0,1.318,6.742,38.741,38.741,0,0,0,0,17.156ZM8.991,2a2,2,0,0,1,1.414.586L11.82,1.172A4,4,0,0,0,8.991,0Zm1.414.586A2,2,0,0,1,10.991,4h2A4,4,0,0,0,11.82,1.172ZM10.991,4a1,1,0,0,1-.293.707l1.414,1.414A3,3,0,0,0,12.991,4Zm-.293.707A1,1,0,0,1,9.991,5V7a3,3,0,0,0,2.121-.879ZM9.991,5a1.549,1.549,0,0,1-.784-.16,1.1,1.1,0,0,1-.376-.383L7.152,5.543A3.083,3.083,0,0,0,8.217,6.577,3.518,3.518,0,0,0,9.991,7Zm4.6,7.2a6,6,0,0,0-2.451-1.09l-.384,1.963a4,4,0,0,1,1.634.726Zm-2.451-1.09A6,6,0,0,0,9.46,11.2l.51,1.934a4,4,0,0,1,1.787-.058ZM9.46,11.2a6,6,0,0,0-2.375,1.246l1.3,1.519a4,4,0,0,1,1.583-.831ZM7.086,12.444A6,6,0,0,0,5.491,14.6l1.833.8a4,4,0,0,1,1.063-1.438Zm1.36-7.479a3.184,3.184,0,0,0-1.38,2.111,13.182,13.182,0,0,0-.259,2.482c-.031.855-.046,1.642-.141,2.351A3.252,3.252,0,0,1,6.191,13.4l1.6,1.2a5.153,5.153,0,0,0,.857-2.427c.111-.831.128-1.747.157-2.542a11.4,11.4,0,0,1,.206-2.092c.133-.56.311-.769.453-.853Z" transform="translate(0 0)" fill="#09090b"/>
</svg>
