<svg id="bike" xmlns="http://www.w3.org/2000/svg" width="22" height="19" viewBox="0 0 22 19">
  <path id="Vector" d="M10,14.5a1,1,0,0,0,2,0ZM11,11h1a1,1,0,0,0-.293-.707ZM8,8l-.6-.8a1,1,0,0,0-.107,1.507Zm4-3,.832-.555A1,1,0,0,0,11.4,4.2Zm2,3-.832.555A1,1,0,0,0,14,9Zm2,1a1,1,0,0,0,0-2Zm4,5.5A2.5,2.5,0,0,1,17.5,17v2A4.5,4.5,0,0,0,22,14.5ZM17.5,17A2.5,2.5,0,0,1,15,14.5H13A4.5,4.5,0,0,0,17.5,19ZM15,14.5A2.5,2.5,0,0,1,17.5,12V10A4.5,4.5,0,0,0,13,14.5ZM17.5,12A2.5,2.5,0,0,1,20,14.5h2A4.5,4.5,0,0,0,17.5,10ZM7,14.5A2.5,2.5,0,0,1,4.5,17v2A4.5,4.5,0,0,0,9,14.5ZM4.5,17A2.5,2.5,0,0,1,2,14.5H0A4.5,4.5,0,0,0,4.5,19ZM2,14.5A2.5,2.5,0,0,1,4.5,12V10A4.5,4.5,0,0,0,0,14.5ZM4.5,12A2.5,2.5,0,0,1,7,14.5H9A4.5,4.5,0,0,0,4.5,10ZM14,2V4a2,2,0,0,0,2-2Zm0,0H12a2,2,0,0,0,2,2Zm0,0V0a2,2,0,0,0-2,2Zm0,0h2a2,2,0,0,0-2-2ZM12,14.5V11H10v3.5Zm-.293-4.207-3-3L7.293,8.707l3,3ZM8.6,8.8l4-3L11.4,4.2l-4,3Zm2.568-3.245,2,3,1.664-1.109-2-3ZM14,9h2V7H14Z" fill="#09090b"/>
</svg>
