<svg id="binary" xmlns="http://www.w3.org/2000/svg" width="14" height="18" viewBox="0 0 14 18">
  <path id="Vector" d="M1,16a1,1,0,0,0,0,2Zm4,2a1,1,0,0,0,0-2ZM9,6A1,1,0,0,0,9,8Zm4,2a1,1,0,0,0,0-2ZM1,10a1,1,0,0,0,0,2Zm2,1H4a1,1,0,0,0-1-1ZM2,17a1,1,0,0,0,2,0ZM9,0A1,1,0,0,0,9,2Zm2,1h1a1,1,0,0,0-1-1ZM10,7a1,1,0,0,0,2,0Zm1,5a1,1,0,0,1,1,1h2a3,3,0,0,0-3-3Zm1,1v2h2V13Zm0,2a1,1,0,0,1-1,1v2a3,3,0,0,0,3-3Zm-1,1a1,1,0,0,1-1-1H8a3,3,0,0,0,3,3Zm-1-1V13H8v2Zm0-2a1,1,0,0,1,1-1V10a3,3,0,0,0-3,3ZM3,2A1,1,0,0,1,4,3H6A3,3,0,0,0,3,0ZM4,3V5H6V3ZM4,5A1,1,0,0,1,3,6V8A3,3,0,0,0,6,5ZM3,6A1,1,0,0,1,2,5H0A3,3,0,0,0,3,8ZM2,5V3H0V5ZM2,3A1,1,0,0,1,3,2V0A3,3,0,0,0,0,3ZM1,18H5V16H1ZM9,8h4V6H9ZM1,12H3V10H1Zm1-1v6H4V11ZM9,2h2V0H9Zm1-1V7h2V1Z" fill="#09090b"/>
</svg>
