<svg id="biohazard" xmlns="http://www.w3.org/2000/svg" width="22" height="19.401" viewBox="0 0 22 19.401">
  <path id="Vector" d="M6.641,1.339A1,1,0,0,0,4.759.662ZM.238,8.553a1,1,0,1,0,1.524,1.3ZM8.8,9.369A1,1,0,1,0,9.8,7.632ZM17.241.662a1,1,0,0,0-1.882.677Zm2.982,9.168a1,1,0,1,0,1.554-1.258ZM12.2,7.632A1,1,0,0,0,13.2,9.369Zm3.344,11.756a1,1,0,0,0,.3-1.977Zm-9.4-2.077a1,1,0,0,0,.3,1.977ZM12.3,3.981A1,1,0,1,0,12.7,2.02ZM9.3,2.02A1,1,0,0,0,9.7,3.981Zm5.989,11.273a1,1,0,0,0,1.414,1.414Zm3.156-1.477a1,1,0,0,0-1.9-.632Zm-13-.632a1,1,0,1,0-1.9.632Zm-.156,3.523a1,1,0,0,0,1.414-1.414ZM12,9.5a1,1,0,0,1-1,1v2a3,3,0,0,0,3-3Zm-1,1a1,1,0,0,1-1-1H8a3,3,0,0,0,3,3Zm-1-1a1,1,0,0,1,1-1v-2a3,3,0,0,0-3,3Zm1-1a1,1,0,0,1,1,1h2a3,3,0,0,0-3-3ZM4.759.662A6.7,6.7,0,0,0,7.337,8.526L8.463,6.874A4.7,4.7,0,0,1,6.641,1.339Zm3.558,6.13A6.826,6.826,0,0,0,.238,8.553l1.524,1.3A4.826,4.826,0,0,1,7.483,8.609ZM7.4,8.568l1.4.8L9.8,7.632l-1.4-.8Zm7.955-7.229a4.7,4.7,0,0,1-1.822,5.535l1.127,1.652A6.7,6.7,0,0,0,17.241.662Zm-.812,7.256a4.56,4.56,0,0,1,5.676,1.235l1.554-1.258a6.559,6.559,0,0,0-8.124-1.765ZM13.6,6.832l-1.4.8L13.2,9.369l1.4-.8Zm2.248,10.58A4.561,4.561,0,0,1,12,13.063l-2,.074a6.562,6.562,0,0,0,5.547,6.251ZM10,13.024a4.641,4.641,0,0,1-3.855,4.288l.3,1.977A6.641,6.641,0,0,0,12,13.177ZM10,11.5v1.6h2V11.5Zm2.7-9.48a8.575,8.575,0,0,0-3.392,0L9.7,3.981a6.575,6.575,0,0,1,2.608,0Zm4.011,12.688a7.435,7.435,0,0,0,1.742-2.891l-1.9-.632a5.441,5.441,0,0,1-1.258,2.109ZM3.551,11.816a7.435,7.435,0,0,0,1.742,2.891l1.414-1.414a5.44,5.44,0,0,1-1.258-2.109Z" transform="translate(0 0)" fill="#09090b"/>
</svg>
