<svg id="bitcoin" xmlns="http://www.w3.org/2000/svg" width="13.481" height="20.422" viewBox="0 0 13.481 20.422">
  <path id="Vector" d="M8.3,9.573a1,1,0,0,0-.348,1.97ZM1.174,15.425a1,1,0,0,0-.347,1.97Zm4.4,3.824a1,1,0,0,0,1.97.346Zm2.548-8.691L8.3,9.573h0ZM9.339,3.665l-.174.985h0ZM4.358,8.879a1,1,0,0,0-.347,1.97ZM3.6,1.638a1,1,0,0,0-.347,1.97Zm4.75,1.853a1,1,0,1,0,1.969.348Zm2.318-1.622A1,1,0,1,0,8.7,1.521ZM1.635,18.553A1,1,0,0,0,3.6,18.9Zm5.1-17.38A1,1,0,0,0,4.761.826Zm0,17.263a4.75,4.75,0,0,0,3.727-.769,4.556,4.556,0,0,0,1.076-6.1,4.751,4.751,0,0,0-3.239-2l-.348,1.97A2.762,2.762,0,0,1,9.87,12.677a2.558,2.558,0,0,1-.6,3.381,2.762,2.762,0,0,1-2.193.409Zm.347-1.97L1.174,15.425l-.347,1.97,5.907,1.042Zm-1.159.812-.346,1.97,1.97.346.346-1.97ZM7.95,11.543a4.75,4.75,0,0,0,3.727-.768,4.556,4.556,0,0,0,1.075-6.1,4.751,4.751,0,0,0-3.24-2L9.166,4.65a2.762,2.762,0,0,1,1.921,1.134,2.557,2.557,0,0,1-.6,3.381A2.761,2.761,0,0,1,8.3,9.573ZM8.3,9.573l-3.94-.694-.347,1.97,3.94.694ZM9.513,2.68,3.6,1.638l-.347,1.97L9.166,4.65Zm.81,1.159.348-1.97L8.7,1.521l-.348,1.97ZM3.6,18.9,6.731,1.174,4.761.827,1.635,18.553Z" transform="translate(0 0)" fill="#09090b"/>
</svg>
