<svg id="blinds" xmlns="http://www.w3.org/2000/svg" width="21" height="20" viewBox="0 0 21 20">
  <path id="Vector" d="M2,0A1,1,0,0,0,2,2ZM20,2a1,1,0,0,0,0-2ZM19,6a1,1,0,0,0,0-2ZM7,4A1,1,0,0,0,7,6Zm12,6a1,1,0,0,0,0-2ZM7,8a1,1,0,0,0,0,2Zm2,8a1,1,0,0,0,0,2Zm10,2a1,1,0,0,0,0-2ZM7,12a1,1,0,0,0,0,2Zm12,2a1,1,0,0,0,0-2ZM4,1A1,1,0,0,0,2,1ZM2,2H20V0H2ZM19,4H7V6H19Zm0,4H7v2H19ZM9,18H19V16H9ZM7,14H19V12H7ZM2,1V15H4V1ZM4,17a1,1,0,0,1-1,1v2a3,3,0,0,0,3-3ZM3,18a1,1,0,0,1-1-1H0a3,3,0,0,0,3,3ZM2,17a1,1,0,0,1,1-1V14a3,3,0,0,0-3,3Zm1-1a1,1,0,0,1,1,1H6a3,3,0,0,0-3-3Z" fill="#09090b"/>
</svg>
