<svg id="bluetooth-connected" xmlns="http://www.w3.org/2000/svg" width="20" height="22" viewBox="0 0 20 22">
  <path id="Vector" d="M5.707,5.293A1,1,0,0,0,4.293,6.707ZM15,16l.707.707a1,1,0,0,0,0-1.414Zm-5,5H9a1,1,0,0,0,1.707.707ZM10,1l.707-.707A1,1,0,0,0,9,1Zm5,5,.707.707a1,1,0,0,0,0-1.414ZM4.293,15.293a1,1,0,1,0,1.414,1.414ZM16,10a1,1,0,0,0,0,2Zm3,2a1,1,0,0,0,0-2ZM1,10a1,1,0,0,0,0,2Zm3,2a1,1,0,0,0,0-2Zm.293-5.293,10,10,1.414-1.414-10-10Zm10,8.586-5,5,1.414,1.414,5-5ZM11,21V1H9V21ZM9.293,1.707l5,5,1.414-1.414-5-5Zm5,3.586-10,10,1.414,1.414,10-10ZM16,12h3V10H16ZM1,12H4V10H1Z" transform="translate(0 0)" fill="#09090b"/>
</svg>
