<svg id="bluetooth" xmlns="http://www.w3.org/2000/svg" width="12" height="22" viewBox="0 0 12 22">
  <path id="Vector" d="M1.707,5.293A1,1,0,0,0,.293,6.707ZM11,16l.707.707a1,1,0,0,0,0-1.414ZM6,21H5a1,1,0,0,0,1.707.707ZM6,1,6.707.293A1,1,0,0,0,5,1Zm5,5,.707.707a1,1,0,0,0,0-1.414ZM.293,15.293a1,1,0,1,0,1.414,1.414Zm0-8.586,10,10,1.414-1.414-10-10Zm10,8.586-5,5,1.414,1.414,5-5ZM7,21V1H5V21ZM5.293,1.707l5,5,1.414-1.414-5-5Zm5,3.586-10,10,1.414,1.414,10-10Z" transform="translate(0 0)" fill="#09090b"/>
</svg>
