<svg id="bone" xmlns="http://www.w3.org/2000/svg" width="22" height="22" viewBox="0 0 22 22">
  <path id="Vector" d="M18.5,4V4ZM1,15.5H1ZM3.5,18v0Zm.5.5H4ZM16.707,9.707c.018-.018.015-.014.024-.015a.875.875,0,0,1,.281.026c.189.038.335.084.61.153A3.625,3.625,0,0,0,18.5,10V8a1.758,1.758,0,0,1-.39-.068c-.16-.04-.457-.125-.7-.175a2.214,2.214,0,0,0-2.113.536ZM18.5,10a3.5,3.5,0,0,0,2.475-1.025L19.561,7.561A1.5,1.5,0,0,1,18.5,8Zm2.475-1.025A3.5,3.5,0,0,0,22,6.5H20a1.5,1.5,0,0,1-.439,1.061ZM22,6.5a3.5,3.5,0,0,0-1.025-2.475L19.561,5.439A1.5,1.5,0,0,1,20,6.5ZM20.975,4.025A3.5,3.5,0,0,0,18.5,3V5a1.5,1.5,0,0,1,1.061.439ZM18.5,3a.5.5,0,0,1,.354.146L17.439,4.561A1.5,1.5,0,0,0,18.5,5Zm.354.146A.5.5,0,0,1,19,3.5H17a1.5,1.5,0,0,0,.439,1.061ZM19,3.5a3.5,3.5,0,0,0-1.025-2.475L16.561,2.439A1.5,1.5,0,0,1,17,3.5ZM17.975,1.025A3.5,3.5,0,0,0,15.5,0V2a1.5,1.5,0,0,1,1.061.439ZM15.5,0a3.5,3.5,0,0,0-2.475,1.025l1.414,1.414A1.5,1.5,0,0,1,15.5,2ZM13.025,1.025A3.5,3.5,0,0,0,12,3.5h2a1.5,1.5,0,0,1,.439-1.061ZM12,3.5a3.622,3.622,0,0,0,.129.878c.069.276.116.421.153.61a.874.874,0,0,1,.026.281c0,.008,0,.006-.015.024l1.414,1.414a2.214,2.214,0,0,0,.536-2.113c-.05-.247-.135-.545-.175-.7A1.76,1.76,0,0,1,14,3.5Zm.293,1.793-7,7,1.414,1.414,7-7Zm-7,7c-.018.018-.016.014-.024.015a.874.874,0,0,1-.281-.026c-.189-.038-.335-.084-.61-.153A3.622,3.622,0,0,0,3.5,12v2a1.76,1.76,0,0,1,.39.068c.16.04.457.125.7.175a2.214,2.214,0,0,0,2.113-.536ZM3.5,12a3.5,3.5,0,0,0-2.475,1.025l1.414,1.414A1.5,1.5,0,0,1,3.5,14ZM1.025,13.025A3.5,3.5,0,0,0,0,15.5H2a1.5,1.5,0,0,1,.439-1.061ZM0,15.5a3.5,3.5,0,0,0,1.025,2.475l1.414-1.414A1.5,1.5,0,0,1,2,15.5Zm1.025,2.475A3.5,3.5,0,0,0,3.5,19V17a1.5,1.5,0,0,1-1.061-.439ZM3.5,19a.505.505,0,0,1-.5-.5H5A1.5,1.5,0,0,0,3.5,17ZM3,18.5a3.5,3.5,0,0,0,1.025,2.475l1.414-1.414A1.5,1.5,0,0,1,5,18.5Zm1.025,2.475A3.5,3.5,0,0,0,6.5,22V20a1.5,1.5,0,0,1-1.061-.439ZM6.5,22a3.5,3.5,0,0,0,2.475-1.025L7.561,19.561A1.5,1.5,0,0,1,6.5,20Zm2.475-1.025A3.5,3.5,0,0,0,10,18.5H8a1.5,1.5,0,0,1-.439,1.061ZM10,18.5a3.625,3.625,0,0,0-.129-.878c-.069-.276-.116-.421-.153-.61a.875.875,0,0,1-.026-.281c0-.008,0-.006.015-.024L8.293,15.293a2.214,2.214,0,0,0-.536,2.112c.05.247.135.545.175.7A1.758,1.758,0,0,1,8,18.5Zm-.293-1.793,7-7L15.293,8.293l-7,7Z" fill="#09090b"/>
</svg>
