<svg id="book-dashed" xmlns="http://www.w3.org/2000/svg" width="18" height="22" viewBox="0 0 18 22">
  <path id="Vector" d="M17,22a1,1,0,0,0,0-2Zm-2-2a1,1,0,0,0,0,2Zm3-6a1,1,0,0,0-2,0Zm-1,2v1a1,1,0,0,0,1-1Zm-2-1a1,1,0,0,0,0,2ZM1,18.5H1ZM2,14a1,1,0,0,0-2,0ZM18,7a1,1,0,0,0-2,0Zm-2,3a1,1,0,0,0,2,0ZM15,0a1,1,0,0,0,0,2Zm2,1h1a1,1,0,0,0-1-1ZM16,3a1,1,0,0,0,2,0ZM0,10a1,1,0,0,0,2,0ZM2,8A1,1,0,0,0,0,8ZM9,0A1,1,0,0,0,9,2Zm2,2a1,1,0,0,0,0-2ZM9,20a1,1,0,0,0,0,2Zm2,2a1,1,0,0,0,0-2ZM9,15a1,1,0,0,0,0,2Zm2,2a1,1,0,0,0,0-2ZM5,22a1,1,0,0,0,0-2ZM3.5,16v0ZM5,17a1,1,0,0,0,0-2ZM0,4A1,1,0,0,0,2,4Zm1-.5H1ZM3.5,1V1ZM5,2A1,1,0,0,0,5,0ZM17,20H15v2h2Zm-1-6v2h2V14Zm1,1H15v2h2ZM2,18.5V14H0v4.5ZM16,7v3h2V7ZM15,2h2V0H15Zm1-1V3h2V1ZM2,10V8H0v2ZM9,2h2V0H9ZM9,22h2V20H9Zm0-5h2V15H9ZM5,20H3.5v2H5ZM3.5,20a1.5,1.5,0,0,1-1.061-.439L1.025,20.975A3.5,3.5,0,0,0,3.5,22Zm-1.061-.439A1.5,1.5,0,0,1,2,18.5H0a3.5,3.5,0,0,0,1.025,2.475ZM2,18.5a1.5,1.5,0,0,1,.439-1.061L1.025,16.025A3.5,3.5,0,0,0,0,18.5Zm.439-1.061A1.5,1.5,0,0,1,3.5,17V15a3.5,3.5,0,0,0-2.475,1.025ZM3.5,17H5V15H3.5ZM2,4V3.5H0V4Zm0-.5a1.5,1.5,0,0,1,.439-1.061L1.025,1.025A3.5,3.5,0,0,0,0,3.5Zm.439-1.061A1.5,1.5,0,0,1,3.5,2V0A3.5,3.5,0,0,0,1.025,1.025ZM3.5,2H5V0H3.5Z" fill="#09090b"/>
</svg>
