<svg id="book-up-2" xmlns="http://www.w3.org/2000/svg" width="18" height="22" viewBox="0 0 18 22">
  <path id="Vector" d="M1,18.5H1Zm0-15H1ZM3.5,2a1,1,0,0,0,0-2ZM15,0a1,1,0,0,0,0,2Zm2,1h1a1,1,0,0,0-1-1Zm0,20v1a1,1,0,0,0,1-1ZM3.5,16v0ZM17,17a1,1,0,0,0,0-2ZM8,12a1,1,0,0,0,2,0ZM9,6l.707-.707a1,1,0,0,0-1.414,0ZM5.293,8.293A1,1,0,0,0,6.707,9.707Zm6,1.414a1,1,0,1,0,1.414-1.414Zm-6-6.414A1,1,0,0,0,6.707,4.707ZM9,1,9.707.293a1,1,0,0,0-1.414,0Zm2.293,3.707a1,1,0,0,0,1.414-1.414ZM2,18.5V3.5H0v15Zm0-15a1.5,1.5,0,0,1,.439-1.061L1.025,1.025A3.5,3.5,0,0,0,0,3.5Zm.439-1.061A1.5,1.5,0,0,1,3.5,2V0A3.5,3.5,0,0,0,1.025,1.025ZM15,2h2V0H15Zm1-1V21h2V1Zm1,19H3.5v2H17ZM3.5,20a1.5,1.5,0,0,1-1.061-.439L1.025,20.975A3.5,3.5,0,0,0,3.5,22Zm-1.061-.439A1.5,1.5,0,0,1,2,18.5H0a3.5,3.5,0,0,0,1.025,2.475ZM2,18.5a1.5,1.5,0,0,1,.439-1.061L1.025,16.025A3.5,3.5,0,0,0,0,18.5Zm.439-1.061A1.5,1.5,0,0,1,3.5,17V15a3.5,3.5,0,0,0-2.475,1.025ZM3.5,17H17V15H3.5ZM10,12V6H8v6ZM6.707,9.707l3-3L8.293,5.293l-3,3Zm1.586-3,3,3,1.414-1.414-3-3Zm-1.586-2,3-3L8.293.293l-3,3Zm1.586-3,3,3,1.414-1.414-3-3Z" fill="#09090b"/>
</svg>
