<svg id="bookmark-minus" xmlns="http://www.w3.org/2000/svg" width="16" height="20" viewBox="0 0 16 20">
  <path id="Vector" d="M15,19l-.5.868A1,1,0,0,0,16,19ZM8,15l.5-.868a1,1,0,0,0-.992,0ZM1,19H0a1,1,0,0,0,1.5.868ZM3,1V1ZM13,1V1ZM11,9a1,1,0,0,0,0-2ZM5,7A1,1,0,0,0,5,9ZM15.5,18.132l-7-4L7.5,15.868l7,4Zm-7.992-4-7,4L1.5,19.868l7-4ZM2,19V3H0V19ZM2,3a1,1,0,0,1,.293-.707L.879.879A3,3,0,0,0,0,3Zm.293-.707A1,1,0,0,1,3,2V0A3,3,0,0,0,.879.879ZM3,2H13V0H3ZM13,2a1,1,0,0,1,.707.293L15.121.879A3,3,0,0,0,13,0Zm.707.293A1,1,0,0,1,14,3h2A3,3,0,0,0,15.121.879ZM14,3V19h2V3ZM11,7H5V9h6Z" fill="#09090b"/>
</svg>
