<svg id="book-key" xmlns="http://www.w3.org/2000/svg" width="18" height="22" viewBox="0 0 18 22">
  <path id="Vector" d="M1,18.5H1Zm0-15H1ZM3.5,1V1ZM11,2a1,1,0,0,0,0-2Zm7,5a1,1,0,0,0-2,0ZM17,21v1a1,1,0,0,0,1-1ZM3.5,16v0ZM17,17a1,1,0,0,0,0-2Zm.707-15.293A1,1,0,0,0,16.293.293ZM11.793,4.793a1,1,0,0,0,1.414,1.414Zm4.914-3.5a1,1,0,1,0-1.414,1.414Zm-.414,2.414a1,1,0,1,0,1.414-1.414ZM2,18.5V3.5H0v15Zm0-15a1.5,1.5,0,0,1,.439-1.061L1.025,1.025A3.5,3.5,0,0,0,0,3.5Zm.439-1.061A1.5,1.5,0,0,1,3.5,2V0A3.5,3.5,0,0,0,1.025,1.025ZM3.5,2H11V0H3.5ZM16,7V21h2V7Zm1,13H3.5v2H17ZM3.5,20a1.5,1.5,0,0,1-1.061-.439L1.025,20.975A3.5,3.5,0,0,0,3.5,22Zm-1.061-.439A1.5,1.5,0,0,1,2,18.5H0a3.5,3.5,0,0,0,1.025,2.475ZM2,18.5a1.5,1.5,0,0,1,.439-1.061L1.025,16.025A3.5,3.5,0,0,0,0,18.5Zm.439-1.061A1.5,1.5,0,0,1,3.5,17V15a3.5,3.5,0,0,0-2.475,1.025ZM3.5,17H17V15H3.5ZM12,7a1,1,0,0,1-1,1v2a3,3,0,0,0,3-3ZM11,8a1,1,0,0,1-1-1H8a3,3,0,0,0,3,3ZM10,7a1,1,0,0,1,1-1V4A3,3,0,0,0,8,7Zm1-1a1,1,0,0,1,1,1h2a3,3,0,0,0-3-3ZM16.293.293l-4.5,4.5,1.414,1.414,4.5-4.5Zm-1,2.414,1,1,1.414-1.414-1-1Z" fill="#09090b"/>
</svg>
