<svg id="boxes" xmlns="http://www.w3.org/2000/svg" width="22" height="21.336" viewBox="0 0 22 21.336">
  <path id="Vector" d="M1.97,11.585l-.515-.857h0ZM1,13.3l-1,0v0Zm0,3.24H0v0Zm.97,1.71-.515.857h0Zm3,1.8.515-.857h0Zm2.06,0-.514-.858h0ZM1.775,11.458A1,1,0,1,0,.745,13.172ZM5,20.336a1,1,0,0,0,2,0Zm9.97-.29.515-.857h0Zm1.03.286v0Zm1.03-.286-.514-.858h0Zm3-1.8.514.858h0Zm.97-1.71,1,0v0Zm0-3.24h1v0Zm-.97-1.71.515-.857h0Zm1.225,1.587a1,1,0,0,0-1.031-1.714ZM15,20.336a1,1,0,0,0,2,0ZM6.97,3.086l-.515-.857h0ZM6,4.8l-1,0v0Zm10,0h1v0Zm-.97-1.71.515-.857h0Zm-3-1.8-.515.857h0ZM11,1V1Zm-1.03.286.514.857h0ZM6.775,2.958A1,1,0,1,0,5.744,4.672Zm9.48,1.714a1,1,0,0,0-1.031-1.714Zm-14.8,6.056A3,3,0,0,0,.391,11.82l1.74.987a1,1,0,0,1,.355-.364ZM.391,11.82A3,3,0,0,0,0,13.293l2,0a1,1,0,0,1,.13-.491ZM0,13.3v3.24H2V13.3Zm0,3.242a3,3,0,0,0,.391,1.474l1.74-.987A1,1,0,0,1,2,16.533Zm.391,1.474A3,3,0,0,0,1.455,19.1l1.03-1.714a1,1,0,0,1-.355-.364ZM1.456,19.1l3,1.8,1.029-1.715-3-1.8Zm3,1.8A3,3,0,0,0,6,21.331v-2a1,1,0,0,1-.515-.143ZM6,21.331A3,3,0,0,0,7.545,20.9l-1.03-1.714A1,1,0,0,1,6,19.331ZM7.544,20.9l3.97-2.38-1.028-1.715-3.97,2.38ZM12,17.666v-5.5H10v5.5Zm-.486-6.358-5-3L5.485,10.023l5,3Zm-6.029-3-4.03,2.42,1.03,1.715,4.03-2.42Zm1.03,6-4.74-2.85L.745,13.172l4.74,2.85Zm0,1.714,5-3-1.029-1.715-5,3ZM5,15.165v5.17H7v-5.17Zm5.486,3.358,3.97,2.38,1.028-1.715-3.97-2.38Zm3.969,2.38A3,3,0,0,0,16,21.331v-2a1,1,0,0,1-.515-.143ZM16,21.331a3,3,0,0,0,1.545-.428l-1.03-1.714a1,1,0,0,1-.515.143Zm1.545-.428,3-1.8-1.029-1.715-3,1.8Zm3-1.8a3,3,0,0,0,1.064-1.091l-1.74-.987a1,1,0,0,1-.355.364Zm1.064-1.091A3,3,0,0,0,22,16.538l-2,0a1,1,0,0,1-.13.491ZM22,16.535V13.3H20v3.24Zm0-3.242a3,3,0,0,0-.391-1.474l-1.74.987A1,1,0,0,1,20,13.3Zm-.391-1.474a3,3,0,0,0-1.064-1.091l-1.03,1.714a1,1,0,0,1,.355.364Zm-1.065-1.091-4.03-2.42-1.03,1.715,4.03,2.42Zm-5.059-2.42-5,3,1.029,1.715,5-3Zm1.029,6-5-3-1.029,1.715,5,3Zm0,1.714,4.74-2.85-1.031-1.714-4.74,2.85ZM15,15.165v5.17h2v-5.17ZM6.455,2.228A3,3,0,0,0,5.391,3.32l1.74.987a1,1,0,0,1,.355-.364ZM5.391,3.32A3,3,0,0,0,5,4.793l2,0a1,1,0,0,1,.13-.491ZM5,4.8v4.37H7V4.8Zm12,4.37V4.8H15v4.37Zm0-4.372a3,3,0,0,0-.391-1.474l-1.74.987A1,1,0,0,1,15,4.8ZM16.609,3.32a3,3,0,0,0-1.064-1.091l-1.03,1.714a1,1,0,0,1,.355.364ZM15.545,2.228l-3-1.8L11.516,2.143l3,1.8Zm-3-1.8A3,3,0,0,0,11,0V2a1,1,0,0,1,.515.143ZM11,0A3,3,0,0,0,9.455.428l1.03,1.714A1,1,0,0,1,11,2ZM9.455.428l-3,1.8L7.484,3.943l3-1.8Zm2.06,5.38-4.74-2.85L5.744,4.672l4.74,2.85Zm0,1.714,4.74-2.85L15.225,2.958l-4.74,2.85ZM12,12.165v-5.5H10v5.5Z" fill="#09090b"/>
</svg>
