<svg id="brain-circuit" xmlns="http://www.w3.org/2000/svg" width="20.501" height="22.005" viewBox="0 0 20.501 22.005">
  <path id="Vector" d="M11,4.009l-1,0v0ZM5,4.134l1-.041v0ZM2.478,9.9l.631.776h0Zm5.191,1.162a1,1,0,1,0,.664,1.887Zm4.33-3a1,1,0,0,0-2-.109ZM4.535,6.008a1,1,0,0,0,1.733-1Zm-.987,4.375a1,1,0,0,0-.97-1.749ZM5,18.009a1,1,0,1,0,0-2Zm6-7a1,1,0,1,0,0,2Zm4,2a1,1,0,0,0,0-2Zm2,4v-1h0Zm1,3a1,1,0,0,0,2,0Zm-7-14a1,1,0,1,0,0,2Zm8,2a1,1,0,0,0,0-2Zm-5-1a1,1,0,1,0,2,0Zm1-3h0Zm2-1a1,1,0,0,0,0-2Zm-5,1a4,4,0,0,0-.309-1.554l-1.845.771A2,2,0,0,1,10,4.006Zm-.309-1.554A4,4,0,0,0,10.8,1.146L9.4,2.573a2,2,0,0,1,.444.656ZM10.8,1.146A4,4,0,0,0,9.476.282L8.739,2.141a2,2,0,0,1,.664.432ZM9.476.282A4,4,0,0,0,7.917,0l.042,2a2,2,0,0,1,.779.141ZM7.917,0A4,4,0,0,0,6.372.347l.815,1.827A2,2,0,0,1,7.959,2ZM6.372.347a4,4,0,0,0-1.29.919l1.46,1.367a2,2,0,0,1,.645-.459Zm-1.29.919a4,4,0,0,0-.832,1.348l1.876.693a2,2,0,0,1,.416-.674ZM4.249,2.613A4,4,0,0,0,4,4.178l2-.089a2,2,0,0,1,.122-.783Zm.506.552A5,5,0,0,0,2.76,4.2l1.3,1.523a3,3,0,0,1,1.2-.62ZM2.76,4.2A5,5,0,0,0,1.42,6l1.832.8a3,3,0,0,1,.8-1.082ZM1.42,6A5,5,0,0,0,1,8.211L3,8.13A3,3,0,0,1,3.252,6.8ZM1,8.211A5,5,0,0,0,1.6,10.378L3.358,9.43A3,3,0,0,1,3,8.13Zm.843.917A5,5,0,0,0,.4,11.051l1.84.783a3,3,0,0,1,.869-1.154ZM.4,11.051a5,5,0,0,0-.381,2.377l1.993-.168a3,3,0,0,1,.229-1.427ZM.018,13.429a5,5,0,0,0,.774,2.28l1.683-1.08a3,3,0,0,1-.465-1.368Zm.774,2.28a5,5,0,0,0,1.75,1.654l.983-1.742a3,3,0,0,1-1.05-.992Zm1.25.655A5,5,0,0,0,2.2,18.387l1.922-.553a3,3,0,0,1-.092-1.214ZM2.2,18.387a5,5,0,0,0,.945,1.8l1.544-1.271a3,3,0,0,1-.567-1.077Zm.945,1.8a5,5,0,0,0,1.581,1.272l.912-1.78a3,3,0,0,1-.948-.763Zm1.581,1.272a5,5,0,0,0,1.956.539l.13-2a3,3,0,0,1-1.174-.324Zm1.956.54a5,5,0,0,0,2.009-.282l-.674-1.883A3,3,0,0,1,6.807,20Zm2.009-.282a5,5,0,0,0,1.732-1.057l-1.367-1.46a3,3,0,0,1-1.039.634Zm1.732-1.057A5,5,0,0,0,11.587,19l-1.834-.8a3,3,0,0,1-.7,1ZM11.587,19A5,5,0,0,0,12,17.01l-2,0A3,3,0,0,1,9.753,18.2ZM12,17.009v-13H10v13ZM8.333,12.952a5.5,5.5,0,0,0,2.575-1.888l-1.6-1.2a3.5,3.5,0,0,1-1.639,1.2Zm2.575-1.888a5.5,5.5,0,0,0,1.092-3l-2-.109a3.5,3.5,0,0,1-.695,1.909ZM4,4.175a4,4,0,0,0,.531,1.833l1.733-1A2,2,0,0,1,6,4.093Zm-.9,6.5a3,3,0,0,1,.439-.3l-.97-1.749a5,5,0,0,0-.731.494ZM5,16.009a3,3,0,0,1-1.476-.388l-.983,1.742A5,5,0,0,0,5,18.009Zm6-3h4v-2H11Zm0,5h6v-2H11Zm6,0a1,1,0,0,1,.707.293l1.414-1.414A3,3,0,0,0,17,16.009Zm.707.293a1,1,0,0,1,.293.707h2a3,3,0,0,0-.879-2.121Zm.293.707v1h2v-1Zm-7-11h8v-2H11Zm5-1v-3H14v3Zm0-3a1,1,0,0,1,.293-.707L14.88,1.887A3,3,0,0,0,14,4.009Zm.293-.707A1,1,0,0,1,17,3.009v-2a3,3,0,0,0-2.121.879ZM14.5,12.009a.5.5,0,0,1,.5-.5v2a1.5,1.5,0,0,0,1.5-1.5Zm.5-.5a.5.5,0,0,1,.5.5h-2a1.5,1.5,0,0,0,1.5,1.5Zm.5.5a.5.5,0,0,1-.5.5v-2a1.5,1.5,0,0,0-1.5,1.5Zm-.5.5a.5.5,0,0,1-.5-.5h2a1.5,1.5,0,0,0-1.5-1.5Zm1.5-10.5a.5.5,0,0,1,.5-.5v2a1.5,1.5,0,0,0,1.5-1.5Zm.5-.5a.5.5,0,0,1,.5.5h-2a1.5,1.5,0,0,0,1.5,1.5Zm.5.5a.5.5,0,0,1-.5.5v-2a1.5,1.5,0,0,0-1.5,1.5Zm-.5.5a.5.5,0,0,1-.5-.5h2A1.5,1.5,0,0,0,17,.509Zm1.5,17.5a.5.5,0,0,1,.5-.5v2a1.5,1.5,0,0,0,1.5-1.5Zm.5-.5a.5.5,0,0,1,.5.5h-2a1.5,1.5,0,0,0,1.5,1.5Zm.5.5a.5.5,0,0,1-.5.5v-2a1.5,1.5,0,0,0-1.5,1.5Zm-.5.5a.5.5,0,0,1-.5-.5h2a1.5,1.5,0,0,0-1.5-1.5Zm-.5-13.5a.5.5,0,0,1,.5-.5v2a1.5,1.5,0,0,0,1.5-1.5Zm.5-.5a.5.5,0,0,1,.5.5h-2a1.5,1.5,0,0,0,1.5,1.5Zm.5.5a.5.5,0,0,1-.5.5v-2a1.5,1.5,0,0,0-1.5,1.5Zm-.5.5a.5.5,0,0,1-.5-.5h2a1.5,1.5,0,0,0-1.5-1.5Z" transform="translate(0 0)" fill="#09090b"/>
</svg>
