<svg id="briefcase-medical" xmlns="http://www.w3.org/2000/svg" width="22" height="20" viewBox="0 0 22 20">
  <path id="Vector" d="M12,10a1,1,0,0,0-2,0Zm-2,4a1,1,0,0,0,2,0Zm3-1a1,1,0,0,0,0-2ZM9,11a1,1,0,0,0,0,2Zm5-6a1,1,0,0,0,2,0ZM13,1V1ZM9,1V1ZM7,3H7ZM6,5A1,1,0,0,0,8,5ZM18,5a1,1,0,0,0-2,0ZM16,19a1,1,0,0,0,2,0ZM6,5A1,1,0,0,0,4,5ZM4,19a1,1,0,0,0,2,0Zm6-9v4h2V10Zm3,1H9v2h4Zm3-6V3H14V5Zm0-2A3,3,0,0,0,15.121.879L13.707,2.293A1,1,0,0,1,14,3ZM15.121.879A3,3,0,0,0,13,0V2a1,1,0,0,1,.707.293ZM13,0H9V2h4ZM9,0A3,3,0,0,0,6.879.879L8.293,2.293A1,1,0,0,1,9,2ZM6.879.879A3,3,0,0,0,6,3H8a1,1,0,0,1,.293-.707ZM6,3V5H8V3ZM16,5V19h2V5ZM4,5V19H6V5ZM3,6H19V4H3ZM19,6a1,1,0,0,1,1,1h2a3,3,0,0,0-3-3Zm1,1V17h2V7Zm0,10a1,1,0,0,1-1,1v2a3,3,0,0,0,3-3Zm-1,1H3v2H19ZM3,18a1,1,0,0,1-1-1H0a3,3,0,0,0,3,3ZM2,17V7H0V17ZM2,7A1,1,0,0,1,3,6V4A3,3,0,0,0,0,7Z" fill="#09090b"/>
</svg>
