<svg id="briefcase-business" xmlns="http://www.w3.org/2000/svg" width="22" height="20" viewBox="0 0 22 20">
  <path id="Vector" d="M11,10a1,1,0,0,0,0,2Zm.01,2a1,1,0,1,0,0-2ZM14,5a1,1,0,0,0,2,0ZM13,1V1ZM9,1V1ZM7,3H7ZM6,5A1,1,0,0,0,8,5Zm15.551,7.835a1,1,0,1,0-1.1-1.669ZM11,15v0ZM1.551,11.165a1,1,0,1,0-1.1,1.669ZM11,12h.01V10H11Zm5-7V3H14V5Zm0-2A3,3,0,0,0,15.121.879L13.707,2.293A1,1,0,0,1,14,3ZM15.121.879A3,3,0,0,0,13,0V2a1,1,0,0,1,.707.293ZM13,0H9V2h4ZM9,0A3,3,0,0,0,6.879.879L8.293,2.293A1,1,0,0,1,9,2ZM6.879.879A3,3,0,0,0,6,3H8a1,1,0,0,1,.293-.707ZM6,3V5H8V3Zm14.449,8.165A17.15,17.15,0,0,1,11,14v2a19.15,19.15,0,0,0,10.551-3.169ZM11,14a17.15,17.15,0,0,1-9.449-2.838l-1.1,1.669A19.15,19.15,0,0,0,11,16ZM3,6H19V4H3ZM19,6a1,1,0,0,1,1,1h2a3,3,0,0,0-3-3Zm1,1V17h2V7Zm0,10a1,1,0,0,1-1,1v2a3,3,0,0,0,3-3Zm-1,1H3v2H19ZM3,18a1,1,0,0,1-1-1H0a3,3,0,0,0,3,3ZM2,17V7H0V17ZM2,7A1,1,0,0,1,3,6V4A3,3,0,0,0,0,7Z" transform="translate(0)" fill="#09090b"/>
</svg>
