<svg id="briefcase" xmlns="http://www.w3.org/2000/svg" width="22" height="20" viewBox="0 0 22 20">
  <path id="Vector" d="M14,19a1,1,0,0,0,2,0ZM13,1V1ZM9,1V1ZM7,3H7ZM6,19a1,1,0,0,0,2,0Zm10,0V3H14V19ZM16,3A3,3,0,0,0,15.121.879L13.707,2.293A1,1,0,0,1,14,3ZM15.121.879A3,3,0,0,0,13,0V2a1,1,0,0,1,.707.293ZM13,0H9V2h4ZM9,0A3,3,0,0,0,6.879.879L8.293,2.293A1,1,0,0,1,9,2ZM6.879.879A3,3,0,0,0,6,3H8a1,1,0,0,1,.293-.707ZM6,3V19H8V3ZM3,6H19V4H3ZM19,6a1,1,0,0,1,1,1h2a3,3,0,0,0-3-3Zm1,1V17h2V7Zm0,10a1,1,0,0,1-1,1v2a3,3,0,0,0,3-3Zm-1,1H3v2H19ZM3,18a1,1,0,0,1-1-1H0a3,3,0,0,0,3,3ZM2,17V7H0V17ZM2,7A1,1,0,0,1,3,6V4A3,3,0,0,0,0,7Z" fill="#09090b"/>
</svg>
