<svg id="bring-to-front" xmlns="http://www.w3.org/2000/svg" width="22" height="22" viewBox="0 0 22 22">
  <path id="Vector" d="M3,10A1,1,0,0,0,3,8ZM1,7H1ZM3,1V1ZM7,1V1ZM8,3a1,1,0,0,0,2,0Zm6,16a1,1,0,0,0-2,0Zm5-7a1,1,0,0,0,0,2ZM9,8h4V6H9Zm4,0a1,1,0,0,1,1,1h2a3,3,0,0,0-3-3Zm1,1v4h2V9Zm0,4a1,1,0,0,1-1,1v2a3,3,0,0,0,3-3Zm-1,1H9v2h4ZM9,14a1,1,0,0,1-1-1H6a3,3,0,0,0,3,3ZM8,13V9H6v4ZM8,9A1,1,0,0,1,9,8V6A3,3,0,0,0,6,9ZM3,8a1,1,0,0,1-.707-.293L.879,9.121A3,3,0,0,0,3,10Zm-.707-.293A1,1,0,0,1,2,7H0A3,3,0,0,0,.879,9.121ZM2,7V3H0V7ZM2,3a1,1,0,0,1,.293-.707L.879.879A3,3,0,0,0,0,3Zm.293-.707A1,1,0,0,1,3,2V0A3,3,0,0,0,.879.879ZM3,2H7V0H3ZM7,2a1,1,0,0,1,.707.293L9.121.879A3,3,0,0,0,7,0Zm.707.293A1,1,0,0,1,8,3h2A3,3,0,0,0,9.121.879ZM12,19a3,3,0,0,0,.879,2.121l1.414-1.414A1,1,0,0,1,14,19Zm.879,2.121A3,3,0,0,0,15,22V20a1,1,0,0,1-.707-.293ZM15,22h4V20H15Zm4,0a3,3,0,0,0,2.121-.879l-1.414-1.414A1,1,0,0,1,19,20Zm2.121-.879A3,3,0,0,0,22,19H20a1,1,0,0,1-.293.707ZM22,19V15H20v4Zm0-4a3,3,0,0,0-.879-2.121l-1.414,1.414A1,1,0,0,1,20,15Zm-.879-2.121A3,3,0,0,0,19,12v2a1,1,0,0,1,.707.293Z" fill="#09090b"/>
</svg>
