<svg id="brush" xmlns="http://www.w3.org/2000/svg" width="22.023" height="21.027" viewBox="0 0 22.023 21.027">
  <path id="Vector" d="M7.349,9.219a1,1,0,0,0,1.413,1.415Zm8.777-7.352.707.708.012-.012Zm4.03,4.03-.7-.718-.012.012Zm-8.768,7.374A1,1,0,1,0,12.8,14.683Zm-5.322-.3,0-1h0Zm-5,5.04.714-.7L1.773,17.3Zm8-2.02-1,0v0Zm-.3-5.352,8.07-8.06L15.42,1.159l-8.07,8.06Zm8.082-8.072a1.851,1.851,0,0,1,.6-.413L16.658.311a3.851,3.851,0,0,0-1.25.86Zm.6-.413A1.85,1.85,0,0,1,18.159,2l-.016-2a3.85,3.85,0,0,0-1.485.311ZM18.159,2a1.85,1.85,0,0,1,.716.138L19.632.287A3.85,3.85,0,0,0,18.143,0Zm.716.138a1.85,1.85,0,0,1,.607.4L20.9,1.128a3.85,3.85,0,0,0-1.263-.84Zm.607.4a1.849,1.849,0,0,1,.4.607l1.851-.758a3.848,3.848,0,0,0-.84-1.263Zm.4.607a1.848,1.848,0,0,1,.138.716l2,.016a3.849,3.849,0,0,0-.287-1.49Zm.138.716a1.849,1.849,0,0,1-.149.714l1.839.787a3.848,3.848,0,0,0,.311-1.485Zm-.149.714a1.851,1.851,0,0,1-.413.6l1.392,1.437a3.85,3.85,0,0,0,.86-1.25Zm-.426.613-8.06,8.08L12.8,14.683l8.06-8.08ZM6.066,11.967a4.007,4.007,0,0,0-4,4.02h2a2.007,2.007,0,0,1,2-2.02Zm-4,4.02s0,0,0,0a.332.332,0,0,1-.068.08,2.4,2.4,0,0,1-.561.346c-.15.073-.233.11-.393.188a3.691,3.691,0,0,0-.43.236,1.365,1.365,0,0,0-.544.651,1.129,1.129,0,0,0-.018.73,1.224,1.224,0,0,0,.307.5L1.773,17.3a.779.779,0,0,1,.187.317.872.872,0,0,1-.014.56.679.679,0,0,1-.226.324,1.987,1.987,0,0,1,.193-.1c.084-.041.274-.129.406-.194a4.279,4.279,0,0,0,1.048-.683,2.082,2.082,0,0,0,.7-1.536ZM.353,18.708a6.89,6.89,0,0,0,4.714,2.319v-2A4.943,4.943,0,0,1,1.78,17.306Zm4.714,2.319a5.02,5.02,0,0,0,5-5.04h-2a3.02,3.02,0,0,1-3,3.04Zm5-5.037a4.01,4.01,0,0,0-.3-1.536l-1.85.759a2.01,2.01,0,0,1,.15.77Zm-.3-1.536a4.01,4.01,0,0,0-.865-1.3l-1.419,1.41a2.009,2.009,0,0,1,.434.653Zm-.865-1.3a4.009,4.009,0,0,0-1.3-.874l-.771,1.845a2.009,2.009,0,0,1,.651.438Zm-1.3-.874a4.01,4.01,0,0,0-1.534-.31l-.007,2a2.011,2.011,0,0,1,.769.156Z" transform="translate(0 0)" fill="#09090b"/>
</svg>
