<svg id="bug-off" xmlns="http://www.w3.org/2000/svg" width="22" height="22" viewBox="0 0 22 22">
  <path id="Vector" d="M13,6.13a1,1,0,0,0,2,0ZM14,5h0ZM8.86,2.9l-.715.7a1,1,0,0,0,1.428,0ZM7.715.3A1,1,0,0,0,6.285,1.7Zm4.7,1.872a1,1,0,0,0,1.414,1.414Zm3.294-.466A1,1,0,0,0,14.293.293ZM21,13a1,1,0,0,0,0-2Zm-4-1H16a1,1,0,0,0,1,1ZM13,6V6ZM11.7,5a1,1,0,0,0,0,2Zm9.27-1a1,1,0,0,0-2,0Zm-4.6,3.005a1,1,0,0,0,.209,1.989ZM1.707.293A1,1,0,0,0,.293,1.707ZM20.293,21.707a1,1,0,0,0,1.414-1.414ZM7.275,7.518a1,1,0,0,0-1.15-1.636ZM5,10H6V9.993Zm0,3,1,0v0Zm11.985,3.649a1,1,0,1,0-1.71-1.037ZM10,19a1,1,0,0,0,2,0Zm2-8a1,1,0,0,0-2,0ZM5,13a1,1,0,0,0,0-2ZM1,11a1,1,0,0,0,0,2Zm0,9a1,1,0,0,0,2,0Zm4.848-3a1,1,0,0,0-.1-2ZM15,6.13V5H13V6.13ZM15,5a4,4,0,0,0-.68-2.228L12.66,3.887A2,2,0,0,1,13,5Zm-.68-2.228A4,4,0,0,0,12.513,1.3l-.756,1.851a2,2,0,0,1,.9.736ZM12.513,1.3a4,4,0,0,0-2.32-.215l.4,1.959a2,2,0,0,1,1.16.107Zm-2.32-.215A4,4,0,0,0,8.147,2.2L9.573,3.6A2,2,0,0,1,10.6,3.044ZM9.575,2.2,7.715.3,6.285,1.7l1.86,1.9Zm4.253,1.387,1.88-1.88L14.293.293l-1.88,1.88ZM21,11H17v2h4Zm-3,1V10H16v2Zm0-2a5,5,0,0,0-1.465-3.536L15.122,7.879A3,3,0,0,1,16,10ZM16.536,6.464A5,5,0,0,0,13,5V7a3,3,0,0,1,2.121.879ZM13,5H11.7V7H13Zm5.97-1a3.014,3.014,0,0,1-2.6,3.005l.209,1.989A5.013,5.013,0,0,0,20.97,4ZM.293,1.707l20,20,1.414-1.414-20-20ZM6.125,5.882a5,5,0,0,0-1.57,1.8L6.333,8.6a3,3,0,0,1,.942-1.081Zm-1.57,1.8A5,5,0,0,0,4,10.007l2-.014A3,3,0,0,1,6.333,8.6ZM4,10v3H6V10Zm0,3a7,7,0,0,0,1.414,4.24l1.6-1.205A5,5,0,0,1,6,13Zm1.414,4.24a7,7,0,0,0,3.691,2.52l.541-1.925a5,5,0,0,1-2.636-1.8Zm3.691,2.52a7,7,0,0,0,4.464-.227l-.734-1.861a5,5,0,0,1-3.188.162Zm4.464-.227a7,7,0,0,0,3.417-2.881l-1.71-1.037a5,5,0,0,1-2.44,2.058ZM12,19V11H10v8ZM5,11H1v2H5ZM3,20a3.043,3.043,0,0,1,2.848-3l-.1-2A5.043,5.043,0,0,0,1,20Z" fill="#09090b"/>
</svg>
