<svg id="building-2" xmlns="http://www.w3.org/2000/svg" width="22" height="22" viewBox="0 0 22 22">
  <path id="Vector" d="M7,1V1Zm8,0V1ZM5,12a1,1,0,0,0,0-2ZM1,13H1Zm0,6H1ZM17,7a1,1,0,0,0,0,2ZM9,4A1,1,0,0,0,9,6Zm4,2a1,1,0,0,0,0-2ZM9,8a1,1,0,0,0,0,2Zm4,2a1,1,0,0,0,0-2ZM9,12a1,1,0,0,0,0,2Zm4,2a1,1,0,0,0,0-2ZM9,16a1,1,0,0,0,0,2Zm4,2a1,1,0,0,0,0-2ZM6,21V3H4V21ZM6,3a1,1,0,0,1,.293-.707L4.879.879A3,3,0,0,0,4,3Zm.293-.707A1,1,0,0,1,7,2V0A3,3,0,0,0,4.879.879ZM7,2h8V0H7Zm8,0a1,1,0,0,1,.707.293L17.121.879A3,3,0,0,0,15,0Zm.707.293A1,1,0,0,1,16,3h2A3,3,0,0,0,17.121.879ZM16,3V21h2V3Zm1,17H5v2H17ZM5,10H3v2H5ZM3,10a3,3,0,0,0-2.121.879l1.414,1.414A1,1,0,0,1,3,12Zm-2.121.879A3,3,0,0,0,0,13H2a1,1,0,0,1,.293-.707ZM0,13v6H2V13Zm0,6a3,3,0,0,0,.879,2.121l1.414-1.414A1,1,0,0,1,2,19Zm.879,2.121A3,3,0,0,0,3,22V20a1,1,0,0,1-.707-.293ZM3,22H5V20H3ZM17,9h2V7H17Zm2,0a1,1,0,0,1,.707.293l1.414-1.414A3,3,0,0,0,19,7Zm.707.293A1,1,0,0,1,20,10h2a3,3,0,0,0-.879-2.121ZM20,10v9h2V10Zm0,9a1,1,0,0,1-.293.707l1.414,1.414A3,3,0,0,0,22,19Zm-.293.707A1,1,0,0,1,19,20v2a3,3,0,0,0,2.121-.879ZM19,20H17v2h2ZM9,6h4V4H9Zm0,4h4V8H9Zm0,4h4V12H9Zm0,4h4V16H9Z" fill="#09090b"/>
</svg>
