<svg id="bus" xmlns="http://www.w3.org/2000/svg" width="22" height="16" viewBox="0 0 22 16">
  <path id="Vector" d="M8,1A1,1,0,0,0,6,1ZM6,7A1,1,0,0,0,8,7Zm9-6a1,1,0,0,0-2,0ZM13,7a1,1,0,0,0,2,0ZM1,6A1,1,0,0,0,1,8ZM20.6,8a1,1,0,0,0,0-2ZM20,13v1a1,1,0,0,0,.959-.718Zm.8-2.8.965.263.005-.021Zm0-2.4.97-.243-.007-.027Zm-1.4-5,.963-.27-.005-.018ZM3,1V1ZM1,3H1ZM1,13H0a1,1,0,0,0,1,1ZM6,1V7H8V1Zm7,0V7h2V1ZM1,8H20.6V6H1Zm16,6h3V12H17Zm3-1,.959.282h0v0l0-.015.017-.056L21.043,13c.052-.177.124-.425.205-.707.163-.563.365-1.269.517-1.827l-1.93-.526c-.148.542-.346,1.237-.508,1.8-.081.28-.153.526-.2.7l-.06.207-.016.055,0,.014v0h0L20,13Zm1.77-2.557A5.94,5.94,0,0,0,22,9H20a4.145,4.145,0,0,1-.17.957ZM22,9a5.94,5.94,0,0,0-.23-1.443l-1.94.485A4.145,4.145,0,0,1,20,9Zm-.237-1.47-1.4-5-1.926.539,1.4,5ZM20.358,2.513A3.583,3.583,0,0,0,17,0V2a1.586,1.586,0,0,1,1.442,1.087ZM17,0H3V2H17ZM3,0A3,3,0,0,0,.879.879L2.293,2.293A1,1,0,0,1,3,2ZM.879.879A3,3,0,0,0,0,3H2a1,1,0,0,1,.293-.707ZM0,3V13H2V3ZM1,14H4V12H1Zm6-1a1,1,0,0,1-1,1v2a3,3,0,0,0,3-3ZM6,14a1,1,0,0,1-1-1H3a3,3,0,0,0,3,3ZM5,13a1,1,0,0,1,1-1V10a3,3,0,0,0-3,3Zm1-1a1,1,0,0,1,1,1H9a3,3,0,0,0-3-3Zm2,2h5V12H8Zm8-1a1,1,0,0,1-1,1v2a3,3,0,0,0,3-3Zm-1,1a1,1,0,0,1-1-1H12a3,3,0,0,0,3,3Zm-1-1a1,1,0,0,1,1-1V10a3,3,0,0,0-3,3Zm1-1a1,1,0,0,1,1,1h2a3,3,0,0,0-3-3Z" fill="#09090b"/>
</svg>
