<svg id="cable" xmlns="http://www.w3.org/2000/svg" width="22" height="20" viewBox="0 0 22 20">
  <path id="Vector" d="M15,19a1,1,0,0,0,2,0Zm0-4h0Zm2-2v0Zm0,0a1,1,0,0,0,2,0Zm1-8.5h0ZM14.5,1V1ZM11,4.5h0ZM7.5,19v0ZM5,7A1,1,0,0,0,3,7ZM19,19a1,1,0,0,0,2,0ZM2,3V3ZM7,1A1,1,0,0,0,5,1ZM7,5H7ZM1,5H1ZM3,1A1,1,0,0,0,1,1ZM17,19V17H15v2Zm-1-3h0l-1.414,1.414A2,2,0,0,0,16,18Zm0,0H14a2,2,0,0,0,.586,1.414Zm0,0V15H14v1Zm0-1a1,1,0,0,1,.293-.707l-1.414-1.414A3,3,0,0,0,14,15Zm.293-.707A1,1,0,0,1,17,14V12a3,3,0,0,0-2.121.879ZM17,14h2V12H17Zm2,0a1,1,0,0,1,.707.293l1.414-1.414A3,3,0,0,0,19,12Zm.707.293A1,1,0,0,1,20,15h2a3,3,0,0,0-.879-2.121ZM20,15v1h2V15Zm0,1h0l1.414,1.414A2,2,0,0,0,22,16Zm0,0h0v2a2,2,0,0,0,1.414-.586Zm-1-3V4.5H17V13Zm0-8.5a4.5,4.5,0,0,0-1.318-3.182L16.268,2.732A2.5,2.5,0,0,1,17,4.5ZM17.682,1.318A4.5,4.5,0,0,0,14.5,0V2a2.5,2.5,0,0,1,1.768.732ZM14.5,0a4.5,4.5,0,0,0-3.182,1.318l1.414,1.414A2.5,2.5,0,0,1,14.5,2ZM11.318,1.318A4.5,4.5,0,0,0,10,4.5h2a2.5,2.5,0,0,1,.732-1.768ZM10,4.5v11h2V4.5Zm0,11a2.5,2.5,0,0,1-.732,1.768l1.414,1.414A4.5,4.5,0,0,0,12,15.5Zm-.732,1.768A2.5,2.5,0,0,1,7.5,18v2a4.5,4.5,0,0,0,3.182-1.318ZM7.5,18a2.5,2.5,0,0,1-1.768-.732L4.318,18.682A4.5,4.5,0,0,0,7.5,20Zm-1.768-.732A2.5,2.5,0,0,1,5,15.5H3a4.5,4.5,0,0,0,1.318,3.182ZM5,15.5V7H3v8.5ZM21,19V17H19v2Zm-1-3H16v2h4ZM2,4H6V2H2ZM7,3V1H5V3ZM6,4H6L7.414,2.586A2,2,0,0,0,6,2ZM6,4H8a2,2,0,0,0-.586-1.414ZM6,4V5H8V4ZM6,5a1,1,0,0,1-.293.707L7.121,7.121A3,3,0,0,0,8,5Zm-.293.707A1,1,0,0,1,5,6V8a3,3,0,0,0,2.121-.879ZM5,6H3V8H5ZM3,6a1,1,0,0,1-.707-.293L.879,7.121A3,3,0,0,0,3,8Zm-.707-.293A1,1,0,0,1,2,5H0A3,3,0,0,0,.879,7.121ZM2,5V4H0V5ZM2,4H2L.586,2.586A2,2,0,0,0,0,4ZM2,4H2V2a2,2,0,0,0-1.414.586ZM3,3V1H1V3Z" fill="#09090b"/>
</svg>
