<svg id="cake-slice" xmlns="http://www.w3.org/2000/svg" width="20" height="20" viewBox="0 0 20 20">
  <path id="Vector" d="M5.794,6.7A1,1,0,1,0,4.606,5.1ZM1,9,.406,8.2A1,1,0,0,0,0,9ZM12,1l.447-.894a1,1,0,0,0-1.033.084ZM7.815,2.789A1,1,0,1,0,8.985,4.411ZM14,12a1,1,0,0,0,0-2ZM1,10a1,1,0,0,0,0,2Zm13,6a1,1,0,0,0,0-2ZM1,14a1,1,0,0,0,0,2ZM8,5A1,1,0,0,1,7,6V8a3,3,0,0,0,3-3ZM7,6A1,1,0,0,1,6,5H4A3,3,0,0,0,7,8ZM6,5A1,1,0,0,1,7,4V2A3,3,0,0,0,4,5ZM7,4A1,1,0,0,1,8,5h2A3,3,0,0,0,7,2ZM4.606,5.1.406,8.2,1.594,9.8l4.2-3.1ZM0,9v9H2V9Zm0,9a2,2,0,0,0,.568,1.432A2,2,0,0,0,2,20V18a.169.169,0,0,1-.05-.005L1.962,18A.13.13,0,0,1,2,18.038a.07.07,0,0,1,.006.012A.169.169,0,0,1,2,18Zm2,2H18V18H2Zm16,0a1.942,1.942,0,0,0,2-2H18a.169.169,0,0,1-.005.05A.07.07,0,0,1,18,18.038.13.13,0,0,1,18.038,18l.012-.006A.169.169,0,0,1,18,18Zm2-2V9H18v9Zm0-9a5.255,5.255,0,0,0-.637-2.26,12.639,12.639,0,0,0-1.595-2.38A17.055,17.055,0,0,0,12.447.106l-.894,1.789A15.057,15.057,0,0,1,16.232,5.64a10.653,10.653,0,0,1,1.343,1.995A3.366,3.366,0,0,1,18,9ZM11.415.189l-3.6,2.6L8.985,4.411l3.6-2.6ZM14,10H1v2H14Zm0,4H1v2H14Z" transform="translate(0 0)" fill="#09090b"/>
</svg>
