<svg id="calculator" xmlns="http://www.w3.org/2000/svg" width="18" height="22" viewBox="0 0 18 22">
  <path id="Vector" d="M5,4A1,1,0,0,0,5,6Zm8,2a1,1,0,0,0,0-2Zm1,7a1,1,0,0,0-2,0Zm-2,4a1,1,0,0,0,2,0Zm1-9a1,1,0,0,0,0,2Zm.01,2a1,1,0,0,0,0-2ZM9,8a1,1,0,0,0,0,2Zm.01,2a1,1,0,1,0,0-2ZM5,8a1,1,0,0,0,0,2Zm.01,2a1,1,0,0,0,0-2ZM9,12a1,1,0,0,0,0,2Zm.01,2a1,1,0,1,0,0-2ZM5,12a1,1,0,0,0,0,2Zm.01,2a1,1,0,0,0,0-2ZM9,16a1,1,0,0,0,0,2Zm.01,2a1,1,0,1,0,0-2ZM5,16a1,1,0,0,0,0,2Zm.01,2a1,1,0,0,0,0-2ZM3,2H15V0H3ZM15,2a1,1,0,0,1,1,1h2a3,3,0,0,0-3-3Zm1,1V19h2V3Zm0,16a1,1,0,0,1-1,1v2a3,3,0,0,0,3-3Zm-1,1H3v2H15ZM3,20a1,1,0,0,1-1-1H0a3,3,0,0,0,3,3ZM2,19V3H0V19ZM2,3A1,1,0,0,1,3,2V0A3,3,0,0,0,0,3ZM5,6h8V4H5Zm7,7v4h2V13Zm1-3h.01V8H13ZM9,10h.01V8H9ZM5,10h.01V8H5Zm4,4h.01V12H9ZM5,14h.01V12H5Zm4,4h.01V16H9ZM5,18h.01V16H5Z" fill="#09090b"/>
</svg>
