<svg id="calendar-range" xmlns="http://www.w3.org/2000/svg" width="20" height="22" viewBox="0 0 20 22">
  <path id="Vector" d="M15,1a1,1,0,0,0-2,0ZM13,5a1,1,0,0,0,2,0ZM1,8a1,1,0,0,0,0,2Zm18,2a1,1,0,0,0,0-2ZM7,1A1,1,0,0,0,5,1ZM5,5A1,1,0,0,0,7,5Zm10,9a1,1,0,0,0,0-2ZM9,12a1,1,0,0,0,0,2Zm2,6a1,1,0,0,0,0-2ZM5,16a1,1,0,0,0,0,2Zm0-4a1,1,0,0,0,0,2Zm.01,2a1,1,0,0,0,0-2ZM15,16a1,1,0,0,0,0,2Zm.01,2a1,1,0,0,0,0-2ZM3,4H17V2H3ZM17,4a1,1,0,0,1,1,1h2a3,3,0,0,0-3-3Zm1,1V19h2V5Zm0,14a1,1,0,0,1-1,1v2a3,3,0,0,0,3-3Zm-1,1H3v2H17ZM3,20a1,1,0,0,1-1-1H0a3,3,0,0,0,3,3ZM2,19V5H0V19ZM2,5A1,1,0,0,1,3,4V2A3,3,0,0,0,0,5ZM13,1V5h2V1ZM1,10H19V8H1ZM5,1V5H7V1ZM15,12H9v2h6Zm-4,4H5v2h6ZM5,14h.01V12H5Zm10,4h.01V16H15Z" fill="#09090b"/>
</svg>
