<svg id="calendar-check-2" xmlns="http://www.w3.org/2000/svg" width="21" height="22" viewBox="0 0 21 22">
  <path id="Vector" d="M7,1A1,1,0,0,0,5,1ZM5,5A1,1,0,0,0,7,5ZM15,1a1,1,0,0,0-2,0ZM13,5a1,1,0,0,0,2,0Zm5,8a1,1,0,0,0,2,0ZM17,3V3ZM3,3V3ZM1,5H1ZM1,19H1Zm10,3a1,1,0,0,0,0-2ZM1,8a1,1,0,0,0,0,2Zm18,2a1,1,0,0,0,0-2Zm-4.293,8.293a1,1,0,0,0-1.414,1.414ZM16,21l-.707.707a1,1,0,0,0,1.414,0Zm4.707-3.293a1,1,0,0,0-1.414-1.414ZM5,1V5H7V1Zm8,0V5h2V1Zm7,12V5H18v8Zm0-8a3,3,0,0,0-.879-2.121L17.707,4.293A1,1,0,0,1,18,5Zm-.879-2.121A3,3,0,0,0,17,2V4a1,1,0,0,1,.707.293ZM17,2H3V4H17ZM3,2a3,3,0,0,0-2.121.879L2.293,4.293A1,1,0,0,1,3,4ZM.879,2.879A3,3,0,0,0,0,5H2a1,1,0,0,1,.293-.707ZM0,5V19H2V5ZM0,19a3,3,0,0,0,.879,2.121l1.414-1.414A1,1,0,0,1,2,19Zm.879,2.121A3,3,0,0,0,3,22V20a1,1,0,0,1-.707-.293ZM3,22h8V20H3ZM1,10H19V8H1Zm12.293,9.707,2,2,1.414-1.414-2-2Zm3.414,2,4-4-1.414-1.414-4,4Z" fill="#09090b"/>
</svg>
