<svg id="calendar-check" xmlns="http://www.w3.org/2000/svg" width="20" height="22" viewBox="0 0 20 22">
  <path id="Vector" d="M7,1A1,1,0,0,0,5,1ZM5,5A1,1,0,0,0,7,5ZM15,1a1,1,0,0,0-2,0ZM13,5a1,1,0,0,0,2,0ZM1,8a1,1,0,0,0,0,2Zm18,2a1,1,0,0,0,0-2ZM7.707,14.293a1,1,0,0,0-1.414,1.414ZM9,17l-.707.707a1,1,0,0,0,1.414,0Zm4.707-3.293a1,1,0,0,0-1.414-1.414ZM5,1V5H7V1Zm8,0V5h2V1ZM3,4H17V2H3ZM17,4a1,1,0,0,1,1,1h2a3,3,0,0,0-3-3Zm1,1V19h2V5Zm0,14a1,1,0,0,1-1,1v2a3,3,0,0,0,3-3Zm-1,1H3v2H17ZM3,20a1,1,0,0,1-1-1H0a3,3,0,0,0,3,3ZM2,19V5H0V19ZM2,5A1,1,0,0,1,3,4V2A3,3,0,0,0,0,5ZM1,10H19V8H1Zm5.293,5.707,2,2,1.414-1.414-2-2Zm3.414,2,4-4-1.414-1.414-4,4Z" fill="#09090b"/>
</svg>
