<svg id="camera-off" xmlns="http://www.w3.org/2000/svg" width="22" height="22" viewBox="0 0 22 22">
  <path id="Vector" d="M1.707.293A1,1,0,0,0,.293,1.707ZM20.293,21.707a1,1,0,0,0,1.414-1.414ZM6,7A1,1,0,0,0,6,5ZM3,6V6ZM1,8H1Zm0,9H1Zm18,3a1,1,0,0,0,0-2ZM8.5,2a1,1,0,0,0,0,2Zm5,1,.768-.64A1,1,0,0,0,13.5,2ZM16,6l-.768.64A1,1,0,0,0,16,7Zm3,0V6Zm1,9.5a1,1,0,0,0,2,0Zm-6.153-.692a1,1,0,0,0-1.453-1.374Zm-4.28-4.2A1,1,0,0,0,8.193,9.153ZM.293,1.707l20,20,1.414-1.414-20-20ZM6,5H3V7H6ZM3,5a3,3,0,0,0-2.121.879L2.293,7.293A1,1,0,0,1,3,7ZM.879,5.879A3,3,0,0,0,0,8H2a1,1,0,0,1,.293-.707ZM0,8v9H2V8Zm0,9a3,3,0,0,0,.879,2.121l1.414-1.414A1,1,0,0,1,2,17Zm.879,2.121A3,3,0,0,0,3,20V18a1,1,0,0,1-.707-.293ZM3,20H19V18H3ZM8.5,4h5V2h-5Zm4.232-.36,2.5,3,1.536-1.28-2.5-3ZM16,7h3V5H16Zm3,0a1,1,0,0,1,.707.293l1.414-1.414A3,3,0,0,0,19,5Zm.707.293A1,1,0,0,1,20,8h2a3,3,0,0,0-.879-2.121ZM20,8v7.5h2V8Zm-7.606,5.434a2,2,0,0,1-.649.457l.8,1.831a4,4,0,0,0,1.3-.914Zm-.649.457a2,2,0,0,1-.776.168l.028,2a4,4,0,0,0,1.552-.337Zm-.776.168a2,2,0,0,1-.78-.147l-.752,1.853A4,4,0,0,0,11,16.059Zm-.78-.147a2,2,0,0,1-.662-.439L8.113,14.888a4,4,0,0,0,1.323.878Zm-.662-.439a2,2,0,0,1-.439-.662l-1.853.752a4,4,0,0,0,.878,1.323Zm-.439-.662a2,2,0,0,1-.147-.78l-2-.028a4,4,0,0,0,.294,1.561Zm-.147-.78a2,2,0,0,1,.168-.776l-1.831-.8A4,4,0,0,0,6.942,12Zm.168-.776a2,2,0,0,1,.457-.649L8.193,9.153a4,4,0,0,0-.914,1.3Z" fill="#09090b"/>
</svg>
