<svg id="captions" xmlns="http://www.w3.org/2000/svg" width="20" height="16" viewBox="0 0 20 16">
  <path id="Vector" d="M5,10a1,1,0,0,0,0,2Zm4,2a1,1,0,0,0,0-2Zm4-2a1,1,0,0,0,0,2Zm2,2a1,1,0,0,0,0-2ZM5,6A1,1,0,0,0,5,8ZM7,8A1,1,0,0,0,7,6Zm4-2a1,1,0,0,0,0,2Zm4,2a1,1,0,0,0,0-2ZM3,2H17V0H3ZM17,2a1,1,0,0,1,1,1h2a3,3,0,0,0-3-3Zm1,1V13h2V3Zm0,10a1,1,0,0,1-1,1v2a3,3,0,0,0,3-3Zm-1,1H3v2H17ZM3,14a1,1,0,0,1-1-1H0a3,3,0,0,0,3,3ZM2,13V3H0V13ZM2,3A1,1,0,0,1,3,2V0A3,3,0,0,0,0,3Zm3,9H9V10H5Zm8,0h2V10H13ZM5,8H7V6H5Zm6,0h4V6H11Z" fill="#09090b"/>
</svg>
