<svg id="carrot" xmlns="http://www.w3.org/2000/svg" width="21.73" height="21.7" viewBox="0 0 21.73 21.7">
  <path id="Vector" d="M1,20.7l-.942-.334a1,1,0,0,0,1.277,1.277Zm12.73-6.36-.707-.708h0ZM7.37,7.97l-.707-.708h0Zm-.705,5.739a1,1,0,0,0,1.411-1.418Zm-.639-3.458a1,1,0,0,0-1.411,1.418Zm7.338,4.456a1,1,0,0,0,1.414-1.414Zm-1.046-3.874A1,1,0,0,0,10.9,12.247ZM20.73,8l.833.554a1,1,0,0,0,0-1.107Zm-7-7,.554-.833a1,1,0,0,0-1.108,0ZM1,20.7l.334.942h0l.006,0,.023-.008.086-.031.324-.118c.279-.1.681-.252,1.171-.441.979-.376,2.317-.909,3.747-1.533s2.96-1.342,4.324-2.093a15.821,15.821,0,0,0,3.421-2.369l-1.414-1.414a14.011,14.011,0,0,1-2.971,2.031c-1.291.71-2.762,1.4-4.16,2.012s-2.7,1.13-3.664,1.5c-.48.184-.872.331-1.144.431l-.312.114-.081.029-.02.007,0,0h0Zm13.437-5.652a5.5,5.5,0,0,0,1.194-1.784L13.783,12.5a3.5,3.5,0,0,1-.76,1.135Zm1.194-1.784a5.5,5.5,0,0,0,.42-2.1l-2,0a3.5,3.5,0,0,1-.267,1.339Zm.42-2.1a5.5,5.5,0,0,0-.417-2.105l-1.848.764a3.5,3.5,0,0,1,.265,1.34Zm-.417-2.105a5.5,5.5,0,0,0-1.191-1.786L13.027,8.682a3.5,3.5,0,0,1,.758,1.136ZM14.443,7.268a5.5,5.5,0,0,0-1.784-1.194l-.767,1.847a3.5,3.5,0,0,1,1.135.76ZM12.659,6.075a5.5,5.5,0,0,0-2.1-.42l0,2a3.5,3.5,0,0,1,1.339.268Zm-2.1-.42a5.5,5.5,0,0,0-2.105.417L9.213,7.92a3.5,3.5,0,0,1,1.34-.265Zm-2.105.417A5.5,5.5,0,0,0,6.663,7.262L8.077,8.678A3.5,3.5,0,0,1,9.213,7.92ZM6.663,7.263a15.876,15.876,0,0,0-2.375,3.424c-.752,1.365-1.472,2.9-2.1,4.324S1.035,17.777.658,18.755c-.188.49-.338.891-.441,1.17-.051.14-.091.249-.118.324l-.031.086-.008.022,0,.006v0h0L1,20.7l.942.335h0l0,0,.007-.02.029-.08c.026-.071.064-.177.114-.312.1-.271.246-.663.431-1.142.369-.96.891-2.267,1.5-3.662s1.3-2.868,2.015-4.159A14.058,14.058,0,0,1,8.077,8.677Zm1.412,5.028-2.05-2.04L4.615,11.669l2.05,2.04Zm6.7,1-2.46-2.46L10.9,12.247l2.46,2.46ZM20.73,8l.832-.554h0v0l0,0-.006-.009L21.533,7.4l-.062-.086c-.052-.07-.125-.165-.22-.276a6.6,6.6,0,0,0-.82-.812A5.037,5.037,0,0,0,17.23,5V7a3.046,3.046,0,0,1,1.926.77,4.59,4.59,0,0,1,.569.563c.064.076.112.137.141.177l.03.041,0,.006h0Zm-3.5-3a5.286,5.286,0,0,0-2.963,1.2,10.688,10.688,0,0,0-.9.759c-.11.1-.2.19-.26.253l-.073.075-.021.022L13,7.315l0,0h0L13.73,8l.732.681h0l0,0,.011-.011.051-.052c.046-.047.116-.116.206-.2a8.693,8.693,0,0,1,.733-.616A3.42,3.42,0,0,1,17.23,7Zm-3.5,3-.832.554h0v0l0,0,.006.009.019.027c.015.022.036.051.062.086.052.07.125.165.22.276a6.581,6.581,0,0,0,.82.812A5.037,5.037,0,0,0,17.23,11V9A3.046,3.046,0,0,1,15.3,8.23a4.59,4.59,0,0,1-.569-.563c-.064-.076-.112-.137-.141-.177l-.03-.041,0-.006h0Zm3.5,3a5.037,5.037,0,0,0,3.2-1.23,6.6,6.6,0,0,0,.82-.812c.094-.112.168-.206.22-.276l.062-.086.019-.027.006-.009,0,0v0h0L20.73,8,19.9,7.446h0l0,.006-.03.041c-.029.04-.077.1-.141.177a4.59,4.59,0,0,1-.569.563A3.046,3.046,0,0,1,17.23,9ZM13.73,1c-.554-.833-.554-.832-.554-.832h0l0,0-.009.006L13.133.2l-.085.062c-.07.052-.165.125-.276.22a6.588,6.588,0,0,0-.812.82,5.037,5.037,0,0,0-1.23,3.2h2a3.046,3.046,0,0,1,.77-1.926,4.584,4.584,0,0,1,.563-.569c.076-.064.137-.112.177-.141l.041-.03.006,0h0s0,0-.554-.832Zm-3,3.5a5.037,5.037,0,0,0,1.23,3.2,6.588,6.588,0,0,0,.812.82c.111.094.206.168.276.22l.085.062.027.019.009.006,0,0h0s0,0,.554-.832.554-.832.554-.832h0l-.006,0-.041-.03c-.04-.029-.1-.077-.177-.141a4.584,4.584,0,0,1-.563-.569A3.046,3.046,0,0,1,12.73,4.5Zm3,3.5.677.736h0l0,0,.007-.006L14.44,8.7l.075-.073c.063-.062.15-.149.254-.259a10.46,10.46,0,0,0,.761-.9A5.273,5.273,0,0,0,16.73,4.5h-2a3.4,3.4,0,0,1-.8,1.773A8.457,8.457,0,0,1,13.316,7c-.084.089-.153.158-.2.2l-.052.05-.011.011,0,0h0Zm3-3.5A5.037,5.037,0,0,0,15.5,1.3a6.588,6.588,0,0,0-.812-.82c-.111-.094-.206-.168-.276-.22L14.327.2,14.3.178,14.29.172l0,0h0s0,0-.554.832-.554.832-.554.832h0l.006,0,.042.03c.04.029.1.077.177.141a4.584,4.584,0,0,1,.563.569A3.046,3.046,0,0,1,14.73,4.5Z" transform="translate(0)" fill="#09090b"/>
</svg>
