<svg id="cast" xmlns="http://www.w3.org/2000/svg" width="22" height="18" viewBox="0 0 22 18">
  <path id="Vector" d="M0,5A1,1,0,0,0,2,5ZM3,1V1ZM19,1V1ZM13,16a1,1,0,0,0,0,2ZM1.106,8.006A1,1,0,0,0,.895,9.994Zm6.9,9.1a1,1,0,0,0,1.989-.211ZM1.183,12.017a1,1,0,0,0-.366,1.966Zm2.834,5.166a1,1,0,0,0,1.966-.366ZM1,16a1,1,0,0,0,0,2Zm.01,2a1,1,0,0,0,0-2ZM2,5V3H0V5ZM2,3a1,1,0,0,1,.293-.707L.879.879A3,3,0,0,0,0,3Zm.293-.707A1,1,0,0,1,3,2V0A3,3,0,0,0,.879.879ZM3,2H19V0H3ZM19,2a1,1,0,0,1,.707.293L21.121.879A3,3,0,0,0,19,0Zm.707.293A1,1,0,0,1,20,3h2A3,3,0,0,0,21.121.879ZM20,3V15h2V3Zm0,12a1,1,0,0,1-.293.707l1.414,1.414A3,3,0,0,0,22,15Zm-.293.707A1,1,0,0,1,19,16v2a3,3,0,0,0,2.121-.879ZM19,16H13v2h6ZM.895,9.994a8,8,0,0,1,4.813,2.3l1.414-1.414A10,10,0,0,0,1.106,8.006Zm4.813,2.3a8,8,0,0,1,2.3,4.813l1.989-.211a10,10,0,0,0-2.873-6.016Zm-4.89,1.69a4,4,0,0,1,2.1,1.1l1.414-1.414a6,6,0,0,0-3.144-1.656Zm2.1,1.1a4,4,0,0,1,1.1,2.1l1.966-.366a6,6,0,0,0-1.656-3.144ZM1,18h.01V16H1Z" transform="translate(0)" fill="#09090b"/>
</svg>
