<svg id="cat" xmlns="http://www.w3.org/2000/svg" width="20.01" height="20.183" viewBox="0 0 20.01 20.183">
  <path id="Vector" d="M10.01,3.183v-1h0Zm2,.26-.253.967a1,1,0,0,0,1-.3Zm6.42-2.26-.385.923h0Zm-.42,7-.962-.273a1,1,0,0,0,.08.743Zm-16,0,.9.433A1,1,0,0,0,2.97,7.9Zm6-4.77-.747.665a1,1,0,0,0,.971.31Zm-1,8.77a1,1,0,0,0-2,0Zm-2,.5a1,1,0,0,0,2,0Zm10-.5a1,1,0,0,0-2,0Zm-2,.5a1,1,0,0,0,2,0Zm-3.75,1.75v-1a1,1,0,0,0-.707,1.707Zm1.5,0,.707.707a1,1,0,0,0-.707-1.707Zm-.75.75-.707.707a1,1,0,0,0,1.414,0Zm0-11a6.954,6.954,0,0,1,1.747.227l.506-1.935a8.954,8.954,0,0,0-2.253-.293Zm2.747-.075A6.719,6.719,0,0,1,15.672,2.3a5.985,5.985,0,0,1,1.473-.289,2.183,2.183,0,0,1,.9.1L18.815.26A4.106,4.106,0,0,0,17.037.012a7.975,7.975,0,0,0-1.976.382,8.71,8.71,0,0,0-3.8,2.385Zm5.29-2c-.187-.078-.208-.21-.173-.114a2.025,2.025,0,0,1,.081.567,11.575,11.575,0,0,1-.2,2.176c-.135.806-.312,1.6-.458,2.2-.072.3-.136.544-.182.715-.023.085-.041.152-.053.2l-.014.05,0,.012v0h0l.962.273.962.272h0v0l0-.016.016-.058c.014-.05.033-.122.058-.213.049-.182.116-.442.192-.756.152-.625.342-1.471.487-2.342a13.46,13.46,0,0,0,.223-2.582,3.925,3.925,0,0,0-.2-1.175A1.731,1.731,0,0,0,18.813.26Zm-.92,6.546a6.461,6.461,0,0,1,.882,2.97h2a8.422,8.422,0,0,0-1.117-3.91Zm.882,2.97c0,3.729-3.385,6.56-8,6.56v2c5.325,0,10-3.369,10-8.56Zm-8,6.56c-4.624,0-8-2.738-8-6.56h-2c0,5.3,4.684,8.56,10,8.56Zm-8-6.56a7.1,7.1,0,0,1,.9-3.007l-1.8-.867a8.995,8.995,0,0,0-1.1,3.873Zm0-3.44L2.97,7.9h0v0l0-.012-.014-.05c-.013-.045-.032-.111-.055-.2-.047-.171-.114-.417-.19-.715-.152-.6-.339-1.393-.482-2.2A11.642,11.642,0,0,1,2,2.549a2.019,2.019,0,0,1,.074-.566c.033-.1.012.043-.181.123L1.125.26A1.719,1.719,0,0,0,.189,1.319,3.912,3.912,0,0,0,0,2.5,13.522,13.522,0,0,0,.255,5.076c.155.871.354,1.717.513,2.342.08.313.15.573.2.756.025.091.046.163.06.213l.017.057,0,.016v0h0l.959-.282ZM1.9,2.106A2.268,2.268,0,0,1,2.814,2a6.207,6.207,0,0,1,1.5.282A6.637,6.637,0,0,1,7.263,4.078l1.494-1.33A8.624,8.624,0,0,0,4.91.376a8.2,8.2,0,0,0-2-.368A4.186,4.186,0,0,0,1.125.26ZM8.234,4.388a8.04,8.04,0,0,1,1.779-.2l-.006-2a10.039,10.039,0,0,0-2.221.255Zm-3.224,7.8v.5h2v-.5Zm8,0v.5h2v-.5Zm-3.75,3.25h1.5v-2H9.26Zm.793-1.707-.75.75,1.414,1.414.75-.75Zm.664.75-.75-.75L8.553,15.141l.75.75Z" transform="translate(0 0)" fill="#09090b"/>
</svg>
