<svg id="cherry" xmlns="http://www.w3.org/2000/svg" width="22" height="22" viewBox="0 0 22 22">
  <path id="Vector" d="M1,16H1Zm10,0h0ZM6,13l-.625.781a1,1,0,0,0,1.249,0Zm10,0-.625.781a1,1,0,0,0,1.249,0ZM11,1V0a1,1,0,0,0-.977.787ZM21,8V9a1,1,0,0,0,1-1ZM0,16a6,6,0,0,0,1.757,4.243l1.414-1.414A4,4,0,0,1,2,16Zm1.757,4.243A6,6,0,0,0,6,22V20a4,4,0,0,1-2.828-1.172ZM6,22a6,6,0,0,0,4.243-1.757L8.828,18.828A4,4,0,0,1,6,20Zm4.243-1.757A6,6,0,0,0,12,16H10a4,4,0,0,1-1.172,2.828ZM12,16a5.013,5.013,0,0,0-1.99-4.1,3.557,3.557,0,0,0-2.222-.657,4.185,4.185,0,0,0-2.413.981l1.249,1.562a2.2,2.2,0,0,1,1.259-.545,1.559,1.559,0,0,1,.981.3A3.025,3.025,0,0,1,10,16ZM6.625,12.219a4.185,4.185,0,0,0-2.413-.981A3.557,3.557,0,0,0,1.99,11.9,5.013,5.013,0,0,0,0,16H2a3.025,3.025,0,0,1,1.135-2.465,1.559,1.559,0,0,1,.981-.3,2.2,2.2,0,0,1,1.259.545ZM10,16a6,6,0,0,0,1.757,4.243l1.414-1.414A4,4,0,0,1,12,16Zm1.757,4.243A6,6,0,0,0,16,22V20a4,4,0,0,1-2.828-1.172ZM16,22a6,6,0,0,0,4.243-1.757l-1.414-1.414A4,4,0,0,1,16,20Zm4.243-1.757A6,6,0,0,0,22,16H20a4,4,0,0,1-1.172,2.828ZM22,16a5.012,5.012,0,0,0-1.99-4.1,3.557,3.557,0,0,0-2.222-.657,4.185,4.185,0,0,0-2.413.981l1.249,1.562a2.2,2.2,0,0,1,1.259-.545,1.559,1.559,0,0,1,.981.3A3.025,3.025,0,0,1,20,16Zm-5.375-3.781a4.185,4.185,0,0,0-2.413-.981,3.557,3.557,0,0,0-2.222.657A5.012,5.012,0,0,0,10,16h2a3.025,3.025,0,0,1,1.135-2.465,1.559,1.559,0,0,1,.981-.3,2.2,2.2,0,0,1,1.259.545ZM6.67,13.742A14.882,14.882,0,0,0,10.388,7.45a55.6,55.6,0,0,0,1.589-6.236L10.023.787A53.836,53.836,0,0,1,8.495,6.805,12.952,12.952,0,0,1,5.33,12.258ZM10.18,1.572a38.445,38.445,0,0,1,3.007,5.6A32.75,32.75,0,0,1,14.474,10.5,9.771,9.771,0,0,1,15,13.02l2-.04a11.625,11.625,0,0,0-.62-3.088,34.7,34.7,0,0,0-1.366-3.531A40.284,40.284,0,0,0,11.82.428ZM21,7a8.054,8.054,0,0,1-4.949-1.558,16.845,16.845,0,0,1-4.2-4.964L10.147,1.522A18.776,18.776,0,0,0,14.876,7.06,10.051,10.051,0,0,0,21,9ZM11,2a10.4,10.4,0,0,1,6.509,2.4A9.091,9.091,0,0,1,19.4,6.464,3.187,3.187,0,0,1,20,8h2a5.073,5.073,0,0,0-.918-2.617,11.08,11.08,0,0,0-2.308-2.531A12.4,12.4,0,0,0,11,0Z" fill="#09090b"/>
</svg>
