<svg id="chrome" xmlns="http://www.w3.org/2000/svg" width="22" height="22" viewBox="0 0 22 22">
  <path id="Vector" d="M20.17,8a1,1,0,0,0,0-2ZM3.816,4.56a1,1,0,1,0-1.731,1ZM6.674,13.5a1,1,0,1,0,1.731-1Zm2.339,6.94a1,1,0,0,0,1.732,1ZM15.326,13.5a1,1,0,0,0-1.732-1ZM20,11a9,9,0,0,1-9,9v2A11,11,0,0,0,22,11Zm-9,9a9,9,0,0,1-9-9H0A11,11,0,0,0,11,22ZM2,11a9,9,0,0,1,9-9V0A11,11,0,0,0,0,11Zm9-9a9,9,0,0,1,9,9h2A11,11,0,0,0,11,0Zm3,9a3,3,0,0,1-3,3v2a5,5,0,0,0,5-5Zm-3,3a3,3,0,0,1-3-3H6a5,5,0,0,0,5,5ZM8,11a3,3,0,0,1,3-3V6a5,5,0,0,0-5,5Zm3-3a3,3,0,0,1,3,3h2a5,5,0,0,0-5-5Zm9.17-2H11V8h9.17ZM2.084,5.561l4.59,7.94,1.731-1L3.816,4.56ZM10.746,21.44l4.58-7.94-1.732-1-4.58,7.94Z" fill="#09090b"/>
</svg>
