<svg id="cigarette" xmlns="http://www.w3.org/2000/svg" width="22" height="15" viewBox="0 0 22 15">
  <path id="Vector" d="M17,11a1,1,0,0,0,0-2ZM1,10V9a1,1,0,0,0-1,1Zm0,4H0a1,1,0,0,0,1,1Zm16,1a1,1,0,0,0,0-2Zm5-5a1,1,0,0,0-2,0Zm-2,4a1,1,0,0,0,2,0ZM7,10a1,1,0,0,0-2,0ZM5,14a1,1,0,0,0,2,0ZM16,6a1,1,0,0,0,2,0Zm0-5a1,1,0,0,0-2,0Zm4,5a1,1,0,0,0,2,0Zm0-5a1,1,0,0,0-2,0ZM17,9H1v2H17ZM0,10v4H2V10Zm1,5H17V13H1Zm19-5v4h2V10ZM5,10v4H7V10ZM18,6a4.321,4.321,0,0,0-.411-1.917,6.209,6.209,0,0,0-.808-1.208,4.341,4.341,0,0,1-.567-.824A2.33,2.33,0,0,1,16,1H14a4.321,4.321,0,0,0,.411,1.917,6.209,6.209,0,0,0,.808,1.208,4.341,4.341,0,0,1,.567.824A2.33,2.33,0,0,1,16,6Zm4,0a4.321,4.321,0,0,0-.411-1.917,6.209,6.209,0,0,0-.808-1.208,4.341,4.341,0,0,1-.567-.824A2.33,2.33,0,0,1,20,1H18a4.321,4.321,0,0,0,.411,1.917,6.209,6.209,0,0,0,.808,1.208,4.341,4.341,0,0,1,.567.824A2.33,2.33,0,0,1,20,6Z" fill="#09090b"/>
</svg>
