<svg id="circle-parking" xmlns="http://www.w3.org/2000/svg" width="22" height="22" viewBox="0 0 22 22">
  <path id="Vector" d="M7,16a1,1,0,0,0,2,0ZM8,6V5A1,1,0,0,0,7,6Zm0,5a1,1,0,0,0,0,2Zm12,0a9,9,0,0,1-9,9v2A11,11,0,0,0,22,11Zm-9,9a9,9,0,0,1-9-9H0A11,11,0,0,0,11,22ZM2,11a9,9,0,0,1,9-9V0A11,11,0,0,0,0,11Zm9-9a9,9,0,0,1,9,9h2A11,11,0,0,0,11,0ZM9,16V6H7V16ZM8,7h4V5H8Zm4,0a2,2,0,0,1,1.414.586l1.414-1.414A4,4,0,0,0,12,5Zm1.414.586A2,2,0,0,1,14,9h2a4,4,0,0,0-1.172-2.828ZM14,9a2,2,0,0,1-.586,1.414l1.414,1.414A4,4,0,0,0,16,9Zm-.586,1.414A2,2,0,0,1,12,11v2a4,4,0,0,0,2.828-1.172ZM12,11H8v2h4Z" fill="#09090b"/>
</svg>
