<svg id="circle-dollar-sign" xmlns="http://www.w3.org/2000/svg" width="22" height="22" viewBox="0 0 22 22">
  <path id="Vector" d="M15,8a1,1,0,0,0,0-2ZM7,9H7Zm0,5a1,1,0,0,0,0,2Zm3,3a1,1,0,0,0,2,0ZM12,5a1,1,0,0,0-2,0Zm8,6a9,9,0,0,1-9,9v2A11,11,0,0,0,22,11Zm-9,9a9,9,0,0,1-9-9H0A11,11,0,0,0,11,22ZM2,11a9,9,0,0,1,9-9V0A11,11,0,0,0,0,11Zm9-9a9,9,0,0,1,9,9h2A11,11,0,0,0,11,0Zm4,4H9V8h6ZM9,6a3,3,0,0,0-2.121.879L8.293,8.293A1,1,0,0,1,9,8Zm-2.121.879A3,3,0,0,0,6,9H8a1,1,0,0,1,.293-.707ZM6,9a3,3,0,0,0,.879,2.121L8.293,9.707A1,1,0,0,1,8,9Zm.879,2.121A3,3,0,0,0,9,12V10a1,1,0,0,1-.707-.293ZM9,12h4V10H9Zm4,0a1,1,0,0,1,.707.293l1.414-1.414A3,3,0,0,0,13,10Zm.707.293A1,1,0,0,1,14,13h2a3,3,0,0,0-.879-2.121ZM14,13a1,1,0,0,1-.293.707l1.414,1.414A3,3,0,0,0,16,13Zm-.293.707A1,1,0,0,1,13,14v2a3,3,0,0,0,2.121-.879ZM13,14H7v2h6Zm-1,3V5H10V17Z" fill="#09090b"/>
</svg>
