<svg id="circle-arrow-up" xmlns="http://www.w3.org/2000/svg" width="22" height="22" viewBox="0 0 22 22">
  <path id="Vector" d="M14.293,11.707a1,1,0,0,0,1.414-1.414ZM11,7l.707-.707a1,1,0,0,0-1.414,0ZM6.293,10.293a1,1,0,0,0,1.414,1.414ZM10,15a1,1,0,0,0,2,0Zm10-4a9,9,0,0,1-9,9v2A11,11,0,0,0,22,11Zm-9,9a9,9,0,0,1-9-9H0A11,11,0,0,0,11,22ZM2,11a9,9,0,0,1,9-9V0A11,11,0,0,0,0,11Zm9-9a9,9,0,0,1,9,9h2A11,11,0,0,0,11,0Zm4.707,8.293-4-4L10.293,7.707l4,4Zm-5.414-4-4,4,1.414,1.414,4-4ZM12,15V7H10v8Z" fill="#09090b"/>
</svg>
