<svg id="circle-dashed" xmlns="http://www.w3.org/2000/svg" width="22" height="22" viewBox="0 0 22 22">
  <path id="Vector" d="M8.91.2a1,1,0,0,0,.38,1.964Zm3.8,1.964A1,1,0,1,0,13.09.2ZM13.09,21.8a1,1,0,1,0-.38-1.963Zm-3.8-1.964A1,1,0,1,0,8.91,21.8ZM17.17,1.893a1,1,0,0,0-1.122,1.656Zm1.3,4.086a1,1,0,0,0,1.66-1.116ZM.2,13.09a1,1,0,1,0,1.964-.38Zm1.964-3.8A1,1,0,1,0,.2,8.91Zm17.943,7.88a1,1,0,0,0-1.656-1.122Zm-4.086,1.3a1,1,0,0,0,1.116,1.66ZM21.8,8.91a1,1,0,0,0-1.964.38Zm-1.964,3.8a1,1,0,1,0,1.964.38ZM1.893,4.83A1,1,0,0,0,3.549,5.952Zm4.086-1.3a1,1,0,1,0-1.116-1.66ZM4.83,20.107a1,1,0,1,0,1.122-1.656Zm-1.3-4.086a1,1,0,1,0-1.66,1.116ZM9.29,2.164a9,9,0,0,1,3.42,0L13.09.2A11,11,0,0,0,8.91.2Zm3.42,17.673a9,9,0,0,1-3.42,0L8.91,21.8a11,11,0,0,0,4.18,0ZM16.048,3.549a9,9,0,0,1,2.421,2.43l1.66-1.116a11,11,0,0,0-2.959-2.97ZM2.164,12.71a9,9,0,0,1,0-3.42L.2,8.91a11,11,0,0,0,0,4.18Zm16.288,3.338a9,9,0,0,1-2.43,2.421l1.116,1.66a11,11,0,0,0,2.97-2.959ZM19.836,9.29a9,9,0,0,1,0,3.42l1.964.38a11,11,0,0,0,0-4.18ZM3.549,5.952a9,9,0,0,1,2.43-2.421L4.863,1.871A11,11,0,0,0,1.893,4.83Zm2.4,12.5a9,9,0,0,1-2.421-2.43l-1.66,1.116a11,11,0,0,0,2.959,2.97Z" transform="translate(0 0)" fill="#09090b"/>
</svg>
