<svg id="circle-power" xmlns="http://www.w3.org/2000/svg" width="22" height="22" viewBox="0 0 22 22">
  <path id="Vector" d="M10,11a1,1,0,0,0,2,0Zm2-5a1,1,0,0,0-2,0Zm3.8,1.4a1,1,0,1,0-1.6,1.2Zm-8,1.2A1,1,0,1,0,6.2,7.4ZM20,11a9,9,0,0,1-9,9v2A11,11,0,0,0,22,11Zm-9,9a9,9,0,0,1-9-9H0A11,11,0,0,0,11,22ZM2,11a9,9,0,0,1,9-9V0A11,11,0,0,0,0,11Zm9-9a9,9,0,0,1,9,9h2A11,11,0,0,0,11,0Zm1,9V6H10v5Zm2.2-2.4a4,4,0,0,1,.784,2.041l1.992-.18A6,6,0,0,0,15.8,7.4Zm.784,2.041a4,4,0,0,1-.406,2.148l1.789.894a6,6,0,0,0,.609-3.222Zm-.406,2.148A4,4,0,0,1,13.1,14.4l1.052,1.7a6,6,0,0,0,2.212-2.421ZM13.1,14.4A4,4,0,0,1,11,15v2a6,6,0,0,0,3.154-.9ZM11,15a4,4,0,0,1-2.1-.6L7.846,16.1A6,6,0,0,0,11,17Zm-2.1-.6a4,4,0,0,1-1.475-1.614l-1.789.894A6,6,0,0,0,7.846,16.1ZM7.422,12.789a4,4,0,0,1-.406-2.148l-1.992-.18a6,6,0,0,0,.609,3.222Zm-.406-2.148A4,4,0,0,1,7.8,8.6L6.2,7.4a6,6,0,0,0-1.176,3.061Z" fill="#09090b"/>
</svg>
