<svg id="circle-check-big" xmlns="http://www.w3.org/2000/svg" width="22" height="22" viewBox="0 0 22 22">
  <path id="Vector" d="M22,10.086a1,1,0,0,0-2,0Zm-1,.92h0ZM14.663,2.779A1,1,0,0,0,15.477.952ZM8.707,9.3a1,1,0,0,0-1.414,1.414ZM11,13.006l-.707.707a1,1,0,0,0,1.414,0ZM21.707,3.713A1,1,0,0,0,20.293,2.3ZM20,10.086v.92h2v-.92Zm0,.919a9,9,0,0,1-1.792,5.384l1.6,1.2A11,11,0,0,0,22,11.006Zm-1.792,5.384a9,9,0,0,1-4.657,3.242l.567,1.918a11,11,0,0,0,5.691-3.962Zm-4.657,3.242a9,9,0,0,1-5.671-.188l-.693,1.876a11,11,0,0,0,6.931.23Zm-5.671-.188A9,9,0,0,1,3.45,15.9L1.772,16.987a11,11,0,0,0,5.416,4.331ZM3.45,15.9a9,9,0,0,1-1.43-5.491l-2-.132a11,11,0,0,0,1.748,6.711ZM2.02,10.408A9,9,0,0,1,4.158,5.153l-1.52-1.3A11,11,0,0,0,.024,10.276ZM4.158,5.153A9,9,0,0,1,9.017,2.221L8.576.27A11,11,0,0,0,2.638,3.853ZM9.017,2.221a9,9,0,0,1,5.646.558L15.477.952A11,11,0,0,0,8.576.27ZM7.293,10.713l3,3L11.707,12.3l-3-3Zm4.414,3,10-10L20.293,2.3l-10,10Z" transform="translate(0 0)" fill="#09090b"/>
</svg>
