<svg id="circle-fading-plus" xmlns="http://www.w3.org/2000/svg" width="22.002" height="22" viewBox="0 0 22.002 22">
  <path id="Vector" d="M11,0a1,1,0,1,0,0,2Zm6.642,17.075a1,1,0,0,0,1.476,1.35ZM12,7a1,1,0,0,0-2,0Zm-2,8a1,1,0,0,0,2,0Zm5-3a1,1,0,0,0,0-2ZM7,10a1,1,0,0,0,0,2ZM2.45,8.187a1,1,0,1,0-1.9-.625ZM0,10.863a1,1,0,0,0,2,.025ZM2.747,14.6a1,1,0,1,0-1.834.8Zm.839,4.537a1,1,0,1,0,1.348-1.477ZM2.9,3.558A1,1,0,0,0,4.373,4.911Zm2.275.582A1,1,0,0,0,3.88,2.616ZM7.98,19.478a1,1,0,0,0-.671,1.884ZM15.7,20.944a1,1,0,1,0-.855-1.808ZM11,2a9,9,0,0,1,4.917,1.461L17.01,1.786A11,11,0,0,0,11,0Zm4.917,1.461a9,9,0,0,1,3.32,3.91l1.83-.806A11,11,0,0,0,17.01,1.786Zm3.32,3.91a9,9,0,0,1,.645,5.089l1.973.325a11,11,0,0,0-.788-6.22Zm.645,5.089a9,9,0,0,1-2.24,4.615l1.476,1.35a11,11,0,0,0,2.738-5.64ZM10,7v8h2V7Zm5,3H7v2h8ZM.55,7.563a11,11,0,0,0-.55,3.3l2,.025a9,9,0,0,1,.45-2.7ZM.913,15.4a11,11,0,0,0,2.673,3.74l1.348-1.477A9,9,0,0,1,2.747,14.6ZM4.373,4.911a9,9,0,0,1,.8-.771L3.88,2.616a11,11,0,0,0-.98.943ZM7.308,21.362a11,11,0,0,0,8.394-.418l-.855-1.808a9,9,0,0,1-6.868.342Z" transform="translate(0 0)" fill="#09090b"/>
</svg>
