<svg id="circle-parking-off" xmlns="http://www.w3.org/2000/svg" width="22" height="22" viewBox="0 0 22 22">
  <path id="Vector" d="M4.707,3.293A1,1,0,0,0,3.293,4.707ZM17.293,18.707a1,1,0,0,0,1.414-1.414ZM12,11a1,1,0,0,0,0,2ZM8,6V5A1,1,0,0,0,7,6ZM7,8A1,1,0,0,0,9,8Zm0,8a1,1,0,1,0,2,0Zm2-2.34a1,1,0,0,0-2,0ZM20,11a9,9,0,0,1-9,9v2A11,11,0,0,0,22,11Zm-9,9a9,9,0,0,1-9-9H0A11,11,0,0,0,11,22ZM2,11a9,9,0,0,1,9-9V0A11,11,0,0,0,0,11Zm9-9a9,9,0,0,1,9,9h2A11,11,0,0,0,11,0ZM3.293,4.707l14,14,1.414-1.414-14-14ZM12,13a4,4,0,0,0,2.828-1.172l-1.414-1.414A2,2,0,0,1,12,11Zm2.828-1.172A4,4,0,0,0,16,9H14a2,2,0,0,1-.586,1.414ZM16,9a4,4,0,0,0-1.172-2.828L13.414,7.586A2,2,0,0,1,14,9ZM14.828,6.172A4,4,0,0,0,12,5V7a2,2,0,0,1,1.414.586ZM12,5H8V7h4ZM7,6V8H9V6ZM9,16V13.66H7V16Z" fill="#09090b"/>
</svg>
