<svg id="circle-off" xmlns="http://www.w3.org/2000/svg" width="22.013" height="22.013" viewBox="0 0 22.013 22.013">
  <path id="Vector" d="M1.72.293A1,1,0,0,0,.306,1.707ZM20.306,21.707a1,1,0,1,0,1.414-1.414ZM7,.758a1,1,0,0,0,.728,1.863ZM19.382,14.285a1,1,0,0,0,1.862.729Zm-.582,4.5a1,1,0,1,0-1.414-1.414Zm-7.787,2.226v0ZM4.64,4.627A1,1,0,1,0,3.226,3.213ZM.306,1.707l20,20,1.414-1.414-20-20Zm7.421.914A9,9,0,0,1,12.848,2.2l.41-1.957A11,11,0,0,0,7,.758ZM12.848,2.2a9,9,0,0,1,4.519,2.447l1.415-1.414A11,11,0,0,0,13.259.239Zm4.519,2.447a9,9,0,0,1,2.443,4.521l1.958-.409a11,11,0,0,0-2.986-5.526Zm2.443,4.521a9,9,0,0,1-.429,5.121l1.862.729a11,11,0,0,0,.524-6.259Zm-2.425,8.209a9.012,9.012,0,0,1-2.924,1.954l.765,1.848A11.014,11.014,0,0,0,18.8,18.787Zm-2.924,1.954a9.013,9.013,0,0,1-3.449.686v2a11.014,11.014,0,0,0,4.214-.838Zm-3.449.686a9.013,9.013,0,0,1-3.449-.686L6.8,21.174a11.013,11.013,0,0,0,4.214.838Zm-3.449-.686A9.012,9.012,0,0,1,4.64,17.373L3.226,18.787A11.014,11.014,0,0,0,6.8,21.174ZM4.64,17.373a9.012,9.012,0,0,1-1.954-2.924l-1.848.765a11.012,11.012,0,0,0,2.387,3.573ZM2.686,14.449A9.013,9.013,0,0,1,2,11H0a11.013,11.013,0,0,0,.838,4.214ZM2,11a9.013,9.013,0,0,1,.686-3.449L.838,6.786A11.013,11.013,0,0,0,0,11Zm.686-3.449A9.012,9.012,0,0,1,4.64,4.627L3.226,3.213A11.012,11.012,0,0,0,.838,6.786Z" fill="#09090b"/>
</svg>
