<svg id="circle-arrow-out-up-right" xmlns="http://www.w3.org/2000/svg" width="22" height="22" viewBox="0 0 22 22">
  <path id="Vector" d="M22,11a1,1,0,0,0-2,0ZM11,2a1,1,0,0,0,0-2ZM21,1h1a1,1,0,0,0-1-1ZM10.293,10.293a1,1,0,0,0,1.414,1.414ZM15,0a1,1,0,0,0,0,2Zm5,7a1,1,0,0,0,2,0Zm0,4a9,9,0,0,1-1.517,5l1.663,1.111A11,11,0,0,0,22,11Zm-1.517,5a9,9,0,0,1-4.039,3.315l.765,1.848a11,11,0,0,0,4.937-4.051Zm-4.039,3.315a9,9,0,0,1-5.2.512l-.39,1.962a11,11,0,0,0,6.355-.626Zm-5.2.512a9,9,0,0,1-4.608-2.463L3.222,18.778a11,11,0,0,0,5.632,3.01ZM4.636,17.364a9,9,0,0,1-2.463-4.608l-1.962.39a11,11,0,0,0,3.01,5.632ZM2.173,12.756a9,9,0,0,1,.512-5.2L.837,6.79a11,11,0,0,0-.626,6.356Zm.512-5.2A9,9,0,0,1,6,3.517L4.889,1.854A11,11,0,0,0,.837,6.79ZM6,3.517A9,9,0,0,1,11,2V0A11,11,0,0,0,4.889,1.854ZM20.293.293l-10,10,1.414,1.414,10-10ZM15,2h6V0H15Zm5-1V7h2V1Z" transform="translate(0 0)" fill="#09090b"/>
</svg>
