<svg id="circle-x" xmlns="http://www.w3.org/2000/svg" width="22" height="22" viewBox="0 0 22 22">
  <path id="Vector" d="M14.707,8.707a1,1,0,1,0-1.414-1.414ZM7.293,13.293a1,1,0,0,0,1.414,1.414Zm1.414-6A1,1,0,0,0,7.293,8.707Zm4.586,7.414a1,1,0,0,0,1.414-1.414ZM20,11a9,9,0,0,1-9,9v2A11,11,0,0,0,22,11Zm-9,9a9,9,0,0,1-9-9H0A11,11,0,0,0,11,22ZM2,11a9,9,0,0,1,9-9V0A11,11,0,0,0,0,11Zm9-9a9,9,0,0,1,9,9h2A11,11,0,0,0,11,0Zm2.293,5.293-6,6,1.414,1.414,6-6Zm-6,1.414,6,6,1.414-1.414-6-6Z" fill="#09090b"/>
</svg>
