<svg id="clapperboard" xmlns="http://www.w3.org/2000/svg" width="20.977" height="20.977" viewBox="0 0 20.977 20.977">
  <path id="Vector" d="M19.177,4.977l.279.96a1,1,0,0,0,.677-1.254Zm-18.1,2.6L.112,7.84q.012.045.028.088Zm1.3-2.5-.284-.959h0Zm13.5-4L15.614.112l-.021.006Zm2.5,1.3-.958.287,0,.007ZM5.96,3.655A1,1,0,0,0,4.394,4.9ZM7.494,8.8A1,1,0,0,0,9.06,7.555Zm4.673-7.035a1,1,0,0,0-1.581,1.225Zm1.519,5.225a1,1,0,0,0,1.581-1.225Zm6.291,2.988h1a1,1,0,0,0-1-1Zm-18,8h0ZM18.9,4.017l-17.2,5,.558,1.92,17.2-5ZM2.913,9.626l-.9-2.4-1.873.7.9,2.4ZM2.042,7.314a1.025,1.025,0,0,1,.623-1.279L2.089,4.119A3.022,3.022,0,0,0,.112,7.84Zm.619-1.278,13.5-4L15.593.118l-13.5,4ZM16.14,2.042a1.025,1.025,0,0,1,1.279.623l1.916-.575A3.022,3.022,0,0,0,15.614.112Zm1.281.629.8,2.6,1.912-.588-.8-2.6ZM4.394,4.9l3.1,3.9L9.06,7.555l-3.1-3.9Zm6.192-1.91,3.1,4,1.581-1.225-3.1-4Zm-8.61,7.987h18v-2h-18Zm17-1v8h2v-8Zm0,8a1,1,0,0,1-.293.707L20.1,20.1a3,3,0,0,0,.879-2.121Zm-.293.707a1,1,0,0,1-.707.293v2A3,3,0,0,0,20.1,20.1Zm-.707.293h-14v2h14Zm-14,0a1,1,0,0,1-.707-.293L1.855,20.1a3,3,0,0,0,2.121.879Zm-.707-.293a1,1,0,0,1-.293-.707h-2A3,3,0,0,0,1.855,20.1Zm-.293-.707v-8h-2v8Z" transform="translate(0 0)" fill="#09090b"/>
</svg>
