<svg id="clipboard-copy" xmlns="http://www.w3.org/2000/svg" width="19" height="22" viewBox="0 0 19 22">
  <path id="Vector" d="M5,4A1,1,0,0,0,5,2ZM3,3V3ZM1,5H1ZM1,19H1Zm17-2a1,1,0,0,0-2,0ZM13,2a1,1,0,0,0,0,2Zm2,1V3Zm1,6a1,1,0,0,0,2,0Zm2,5a1,1,0,0,0,0-2ZM8,13l-.707-.707a1,1,0,0,0,0,1.414Zm4.707-3.293a1,1,0,1,0-1.414-1.414Zm-1.414,8a1,1,0,0,0,1.414-1.414ZM6,2h6V0H6Zm6,0h2a2,2,0,0,0-2-2Zm0,0V4h2V2Zm0,2V6a2,2,0,0,0,2-2Zm0,0H6V6h6ZM6,4H4A2,2,0,0,0,6,6ZM6,4V2H4V4ZM6,2V0A2,2,0,0,0,4,2ZM5,2H3V4H5ZM3,2a3,3,0,0,0-2.121.879L2.293,4.293A1,1,0,0,1,3,4ZM.879,2.879A3,3,0,0,0,0,5H2a1,1,0,0,1,.293-.707ZM0,5V19H2V5ZM0,19a3,3,0,0,0,.879,2.121l1.414-1.414A1,1,0,0,1,2,19Zm.879,2.121A3,3,0,0,0,3,22V20a1,1,0,0,1-.707-.293ZM3,22H15V20H3Zm12,0a3,3,0,0,0,2.121-.879l-1.414-1.414A1,1,0,0,1,15,20Zm2.121-.879A3,3,0,0,0,18,19H16a1,1,0,0,1-.293.707ZM18,19V17H16v2ZM13,4h2V2H13Zm2,0a1,1,0,0,1,.707.293l1.414-1.414A3,3,0,0,0,15,2Zm.707.293A1,1,0,0,1,16,5h2a3,3,0,0,0-.879-2.121ZM16,5V9h2V5Zm2,7H8v2H18ZM11.293,8.293l-4,4,1.414,1.414,4-4Zm-4,5.414,4,4,1.414-1.414-4-4Z" fill="#09090b"/>
</svg>
