<svg id="clipboard-pen-line" xmlns="http://www.w3.org/2000/svg" width="20" height="22" viewBox="0 0 20 22">
  <path id="Vector" d="M5,4A1,1,0,0,0,5,2ZM3,3V3ZM1,5H1ZM1,19H1Zm17-.5a1,1,0,0,0-2,0ZM13,2a1,1,0,0,0,0,2Zm2,1V2h0Zm.864,1.5a1,1,0,1,0,1.732-1ZM5,16a1,1,0,0,0,0,2Zm1,2a1,1,0,0,0,0-2Zm12.378-6.374.707.708h0ZM16.876,8V8Zm-1.5.622-.707-.707h0Zm-4.01,4.012.707.707h0Zm-.506.854-.96-.28h0Zm-.837,2.87.96.28h0Zm.62.62-.28-.96h0Zm2.87-.837.28.96h0Zm.854-.506-.707-.707h0ZM6,2h6V0H6Zm6,0h2a2,2,0,0,0-2-2Zm0,0V4h2V2Zm0,2V6a2,2,0,0,0,2-2Zm0,0H6V6h6ZM6,4H4A2,2,0,0,0,6,6ZM6,4V2H4V4ZM6,2V0A2,2,0,0,0,4,2ZM5,2H3V4H5ZM3,2a3,3,0,0,0-2.121.879L2.293,4.293A1,1,0,0,1,3,4ZM.879,2.879A3,3,0,0,0,0,5H2a1,1,0,0,1,.293-.707ZM0,5V19H2V5ZM0,19a3,3,0,0,0,.879,2.121l1.414-1.414A1,1,0,0,1,2,19Zm.879,2.121A3,3,0,0,0,3,22V20a1,1,0,0,1-.707-.293ZM3,22H15V20H3Zm12,0a3,3,0,0,0,2.121-.879l-1.414-1.414A1,1,0,0,1,15,20Zm2.121-.879A3,3,0,0,0,18,19H16a1,1,0,0,1-.293.707ZM18,19v-.5H16V19ZM13,4h2V2H13Zm2,0a1,1,0,0,1,.5.134l1-1.732A3,3,0,0,0,15,2Zm.5.134a1,1,0,0,1,.366.366l1.732-1a3,3,0,0,0-1.1-1.1ZM5,18H6V16H5Zm14.085-5.667A3.124,3.124,0,0,0,20,10.124H18a1.124,1.124,0,0,1-.329.795ZM20,10.124a3.124,3.124,0,0,0-.915-2.209L17.671,9.329a1.124,1.124,0,0,1,.329.795Zm-.915-2.209A3.124,3.124,0,0,0,16.876,7V9a1.124,1.124,0,0,1,.795.329ZM16.876,7a3.124,3.124,0,0,0-2.209.915l1.414,1.414A1.124,1.124,0,0,1,16.876,9Zm-2.209.915-4.01,4.012,1.415,1.414,4.01-4.012Zm-4.01,4.012A3,3,0,0,0,9.9,13.208l1.92.561a1,1,0,0,1,.253-.427ZM9.9,13.208l-.837,2.87,1.92.56.837-2.87Zm-.837,2.87a1.5,1.5,0,0,0-.013.792l1.937-.5a.5.5,0,0,1,0,.264Zm-.013.792a1.5,1.5,0,0,0,.392.688l1.414-1.414a.5.5,0,0,1,.131.229Zm.392.688a1.5,1.5,0,0,0,.688.392l.5-1.937a.5.5,0,0,1,.229.131Zm.688.392a1.5,1.5,0,0,0,.792-.013l-.56-1.92a.5.5,0,0,1,.264,0Zm.792-.013,2.87-.837-.56-1.92-2.87.837Zm2.87-.837a3,3,0,0,0,1.281-.759l-1.415-1.414a1,1,0,0,1-.427.253Zm1.28-.758,4.013-4.009-1.413-1.415-4.013,4.009Z" fill="#09090b"/>
</svg>
