<svg id="clipboard-pen" xmlns="http://www.w3.org/2000/svg" width="18" height="22" viewBox="0 0 18 22">
  <path id="Vector" d="M13,2a1,1,0,0,0,0,2Zm2,1V3ZM9.5,20a1,1,0,0,0,0,2ZM0,12.5a1,1,0,0,0,2,0ZM3,3V3ZM5,4A1,1,0,0,0,5,2Zm5.378,10.626.707.707h0Zm.622-1.5h0ZM8.876,11v0Zm-1.5.622-.707-.707h0Zm-5.01,5.012.707.707h0Zm-.506.854-.96-.28h0Zm-.837,2.87.96.28h0Zm.62.62-.28-.96h0Zm2.87-.837.28.96h0Zm.854-.506-.707-.707h0ZM6,2h6V0H6Zm6,0h2a2,2,0,0,0-2-2Zm0,0V4h2V2Zm0,2V6a2,2,0,0,0,2-2Zm0,0H6V6h6ZM6,4H4A2,2,0,0,0,6,6ZM6,4V2H4V4ZM6,2V0A2,2,0,0,0,4,2Zm7,2h2V2H13Zm2,0a1,1,0,0,1,.707.293l1.414-1.414A3,3,0,0,0,15,2Zm.707.293A1,1,0,0,1,16,5h2a3,3,0,0,0-.879-2.121ZM16,5V19h2V5Zm0,14a1,1,0,0,1-.293.707l1.414,1.414A3,3,0,0,0,18,19Zm-.293.707A1,1,0,0,1,15,20v2a3,3,0,0,0,2.121-.879ZM15,20H9.5v2H15ZM2,12.5V5H0v7.5ZM2,5a1,1,0,0,1,.293-.707L.879,2.879A3,3,0,0,0,0,5Zm.293-.707A1,1,0,0,1,3,4V2a3,3,0,0,0-2.121.879ZM3,4H5V2H3Zm8.085,11.333a3.124,3.124,0,0,0,.677-1.014l-1.848-.765a1.124,1.124,0,0,1-.244.365Zm.677-1.014a3.125,3.125,0,0,0,.238-1.2H10a1.124,1.124,0,0,1-.086.43Zm.238-1.2a3.125,3.125,0,0,0-.238-1.2l-1.848.765a1.124,1.124,0,0,1,.086.43Zm-.238-1.2a3.124,3.124,0,0,0-.677-1.014L9.671,12.329a1.124,1.124,0,0,1,.244.365Zm-.677-1.014a3.124,3.124,0,0,0-1.014-.677l-.765,1.848a1.124,1.124,0,0,1,.365.244Zm-1.014-.677A3.124,3.124,0,0,0,8.876,10v2a1.124,1.124,0,0,1,.43.085ZM8.876,10a3.124,3.124,0,0,0-1.2.238l.765,1.848A1.124,1.124,0,0,1,8.876,12Zm-1.2.238a3.124,3.124,0,0,0-1.014.677l1.414,1.414a1.124,1.124,0,0,1,.365-.244Zm-1.014.677-5.01,5.012,1.414,1.414,5.01-5.012Zm-5.01,5.012A3,3,0,0,0,.9,17.208l1.92.561a1,1,0,0,1,.253-.427ZM.9,17.208l-.837,2.87,1.92.56.837-2.87Zm-.837,2.87a1.5,1.5,0,0,0-.013.792l1.937-.5a.5.5,0,0,1,0,.264Zm-.013.792a1.5,1.5,0,0,0,.392.688l1.414-1.414a.5.5,0,0,1,.131.229Zm.392.688a1.5,1.5,0,0,0,.688.392l.5-1.937a.5.5,0,0,1,.229.131Zm.688.392a1.5,1.5,0,0,0,.792-.013l-.56-1.92a.5.5,0,0,1,.264,0Zm.792-.013,2.87-.837-.56-1.92-2.87.837Zm2.87-.837a3,3,0,0,0,1.281-.759L4.658,18.928a1,1,0,0,1-.427.253Zm1.281-.758,5.013-5.009L9.671,13.919,4.658,18.928Z" fill="#09090b"/>
</svg>
