<svg id="cloud-sun" xmlns="http://www.w3.org/2000/svg" width="21.999" height="22" viewBox="0 0 21.999 22">
  <path id="Vector" d="M12,1a1,1,0,1,0-2,0ZM10,3a1,1,0,1,0,2,0Zm-5.363.223A1,1,0,0,0,3.222,4.637Zm0,2.824A1,1,0,0,0,6.046,4.633ZM19,10a1,1,0,0,0,0,2Zm2,2a1,1,0,0,0,0-2ZM18.776,4.637a1,1,0,1,0-1.414-1.414Zm-2.824,0a1,1,0,0,0,1.414,1.414Zm-1.993,6.854a1,1,0,1,0,1.973.326ZM8.526,6.653a1,1,0,0,0,.989,1.738ZM12,21v0ZM6,21v1H6Zm4.9-6-.98.2a1,1,0,0,0,.98.8ZM12,15v0ZM10,1V3h2V1ZM3.222,4.637l1.41,1.41L6.046,4.633l-1.41-1.41ZM19,12h2V10H19ZM17.362,3.223l-1.41,1.41,1.414,1.414,1.41-1.41Zm-1.43,8.59a5,5,0,0,0-.327-2.758l-1.843.778a3,3,0,0,1,.2,1.655Zm-.327-2.758A5,5,0,0,0,13.858,6.9L12.714,8.537a3,3,0,0,1,1.049,1.3ZM13.858,6.9A5,5,0,0,0,11.227,6l-.091,2a3,3,0,0,1,1.578.535ZM11.227,6a5,5,0,0,0-2.7.649l.989,1.738A3,3,0,0,1,11.136,8ZM12,20H6v2h6ZM6,20a4,4,0,0,1-2.138-.62l-1.069,1.69A6,6,0,0,0,6,22Zm-2.138-.62a4,4,0,0,1-1.476-1.666l-1.807.857a6,6,0,0,0,2.213,2.5ZM2.386,17.714a4,4,0,0,1-.357-2.2L.044,15.276a6,6,0,0,0,.535,3.3Zm-.357-2.2A4,4,0,0,1,2.9,13.47L1.353,12.2A6,6,0,0,0,.044,15.276ZM2.9,13.47a4,4,0,0,1,1.832-1.264l-.633-1.9a6,6,0,0,0-2.748,1.9Zm1.832-1.264a4,4,0,0,1,2.224-.089l.479-1.942a6,6,0,0,0-3.336.134Zm2.224-.089a4,4,0,0,1,1.927,1.113l1.442-1.385a6,6,0,0,0-2.891-1.669Zm1.927,1.113A4,4,0,0,1,9.919,15.2l1.96-.4a6,6,0,0,0-1.551-2.956ZM10.9,16H12V14H10.9ZM12,16a2,2,0,0,1,1.414.586l1.414-1.414A4,4,0,0,0,12,14Zm1.414.586A2,2,0,0,1,14,18h2a4,4,0,0,0-1.172-2.828ZM14,18a2,2,0,0,1-.586,1.414l1.414,1.414A4,4,0,0,0,16,18Zm-.586,1.414A2,2,0,0,1,12,20v2a4,4,0,0,0,2.828-1.172Z" transform="translate(0)" fill="#09090b"/>
</svg>
