<svg id="cloud-rain-wind" xmlns="http://www.w3.org/2000/svg" width="21.998" height="20.998" viewBox="0 0 21.998 20.998">
  <path id="Vector" d="M2.283,13.6a1,1,0,1,0,1.429-1.4ZM14.707,6l-.958.286A1,1,0,0,0,14.707,7ZM16.5,6V7h0Zm1.945,7.41a1,1,0,0,0,1.111,1.663ZM7.279,19.6a1,1,0,1,0,1.838.788Zm4.838-6.212a1,1,0,0,0-1.838-.788Zm-3.2-2A1,1,0,0,0,7.078,10.6ZM4.078,17.6a1,1,0,1,0,1.838.788Zm12.838-6.212a1,1,0,1,0-1.838-.788ZM12.078,17.6a1,1,0,1,0,1.838.788ZM3.712,12.2a6,6,0,0,1-1.4-2.3l-1.9.632A8,8,0,0,0,2.283,13.6Zm-1.4-2.3a6,6,0,0,1-.255-2.684L.069,6.948a8,8,0,0,0,.34,3.579ZM2.052,7.211A6,6,0,0,1,3,4.686l-1.667-1.1A8,8,0,0,0,.069,6.948ZM3,4.686A6,6,0,0,1,4.954,2.83L3.939,1.107A8,8,0,0,0,1.331,3.582ZM4.954,2.83a6,6,0,0,1,2.571-.812L7.368.025A8,8,0,0,0,3.939,1.107Zm2.571-.812a6,6,0,0,1,2.667.4L10.924.553A8,8,0,0,0,7.368.025Zm2.667.4a6,6,0,0,1,2.224,1.524l1.472-1.354A8,8,0,0,0,10.924.553Zm2.224,1.524a6,6,0,0,1,1.332,2.344l1.916-.572a8,8,0,0,0-1.776-3.126ZM14.707,7H16.5V5h-1.79ZM16.5,7a3.5,3.5,0,0,1,2.085.689L19.774,6.08A5.5,5.5,0,0,0,16.5,5Zm2.085.689a3.5,3.5,0,0,1,1.264,1.8L21.761,8.9A5.5,5.5,0,0,0,19.774,6.08Zm1.264,1.8a3.5,3.5,0,0,1-.054,2.2l1.883.674a5.5,5.5,0,0,0,.085-3.45Zm-.054,2.2a3.5,3.5,0,0,1-1.351,1.731l1.111,1.663a5.5,5.5,0,0,0,2.123-2.72ZM9.117,20.391l3-7L10.279,12.6l-3,7ZM7.078,10.6l-3,7,1.838.788,3-7Zm8,0-3,7,1.838.788,3-7Z" transform="translate(0 0)" fill="#09090b"/>
</svg>
