<svg id="cloud-sun-rain" xmlns="http://www.w3.org/2000/svg" width="21.999" height="22" viewBox="0 0 21.999 22">
  <path id="Vector" d="M12,1a1,1,0,1,0-2,0ZM10,3a1,1,0,1,0,2,0Zm-5.363.223A1,1,0,0,0,3.222,4.637Zm0,2.824A1,1,0,0,0,6.046,4.633ZM19,10a1,1,0,0,0,0,2Zm2,2a1,1,0,0,0,0-2ZM18.776,4.637a1,1,0,1,0-1.414-1.414Zm-2.824,0a1,1,0,0,0,1.414,1.414Zm-1.993,6.854a1,1,0,1,0,1.973.326ZM8.526,6.653a1,1,0,0,0,.989,1.738ZM1.2,19.6a1,1,0,1,0,1.6-1.2ZM10.9,15l-.98.2a1,1,0,0,0,.98.8ZM12,15v1h0Zm1.335,4.493a1,1,0,1,0,1.33,1.493ZM11,19a1,1,0,0,0-2,0ZM9,21a1,1,0,0,0,2,0ZM7,18a1,1,0,0,0-2,0ZM5,20a1,1,0,0,0,2,0ZM10,1V3h2V1ZM3.222,4.637l1.41,1.41L6.046,4.633l-1.41-1.41ZM19,12h2V10H19ZM17.362,3.223l-1.41,1.41,1.414,1.414,1.41-1.41Zm-1.429,8.59a5,5,0,0,0-.327-2.758l-1.843.778a3,3,0,0,1,.2,1.655Zm-.327-2.758A5,5,0,0,0,13.857,6.9L12.714,8.537a3,3,0,0,1,1.049,1.3ZM13.857,6.9A5,5,0,0,0,11.227,6l-.091,2a3,3,0,0,1,1.578.535ZM11.227,6a5,5,0,0,0-2.7.649l.989,1.738A3,3,0,0,1,11.136,8ZM2.8,18.4a4,4,0,0,1-.723-1.623l-1.962.388A6,6,0,0,0,1.2,19.6Zm-.723-1.623A4,4,0,0,1,2.127,15L.191,14.5a6,6,0,0,0-.077,2.664ZM2.127,15a4,4,0,0,1,.815-1.578L1.413,12.134A6,6,0,0,0,.191,14.5Zm.815-1.578a4,4,0,0,1,1.418-1.07l-.82-1.824a6,6,0,0,0-2.127,1.6Zm1.418-1.07A4,4,0,0,1,6.1,12l.051-2a6,6,0,0,0-2.612.525ZM6.1,12a4,4,0,0,1,1.722.438l.912-1.78A6,6,0,0,0,6.153,10Zm1.722.438a4,4,0,0,1,1.362,1.141l1.593-1.21a6,6,0,0,0-2.043-1.711Zm1.362,1.141A4,4,0,0,1,9.919,15.2l1.959-.4a6,6,0,0,0-1.1-2.427ZM10.9,16H12V14H10.9ZM12,16a2,2,0,0,1,1.136.352L14.269,14.7A4,4,0,0,0,12,14Zm1.136.352a2,2,0,0,1,.735.935l1.869-.713a4,4,0,0,0-1.471-1.87Zm.735.935a2,2,0,0,1,.075,1.187l1.943.474a4,4,0,0,0-.149-2.374Zm.075,1.187a2,2,0,0,1-.613,1.019l1.33,1.493a4,4,0,0,0,1.225-2.039ZM9,19v2h2V19ZM5,18v2H7V18Z" transform="translate(0)" fill="#09090b"/>
</svg>
