<svg id="cloud" xmlns="http://www.w3.org/2000/svg" width="21.998" height="16" viewBox="0 0 21.998 16">
  <path id="Vector" d="M8,15v1H8Zm6.71-9-.958.286A1,1,0,0,0,14.708,7ZM16.5,6V6Zm0,8H8v2h8.5ZM8,14a6,6,0,0,1-3.15-.894L3.8,14.807A8,8,0,0,0,8,16Zm-3.15-.894A6,6,0,0,1,2.637,10.69l-1.788.9A8,8,0,0,0,3.8,14.807ZM2.637,10.69a6,6,0,0,1-.614-3.217L.031,7.3a8,8,0,0,0,.818,4.289ZM2.023,7.474A6,6,0,0,1,3.19,4.414l-1.6-1.2A8,8,0,0,0,.031,7.3ZM3.19,4.414a6,6,0,0,1,2.6-1.992L5.052.563A8,8,0,0,0,1.586,3.218Zm2.6-1.992a6,6,0,0,1,3.258-.33L9.4.123a8,8,0,0,0-4.344.44Zm3.258-.33a6,6,0,0,1,2.946,1.43l1.331-1.493A8,8,0,0,0,9.4.123Zm2.946,1.43A6,6,0,0,1,13.75,6.286l1.917-.571a8,8,0,0,0-2.342-3.685ZM14.708,7H16.5V5h-1.79ZM16.5,7a3.5,3.5,0,0,1,2.475,1.025l1.414-1.414A5.5,5.5,0,0,0,16.5,5Zm2.475,1.025A3.5,3.5,0,0,1,20,10.5h2a5.5,5.5,0,0,0-1.611-3.889ZM20,10.5a3.5,3.5,0,0,1-1.025,2.475l1.414,1.414A5.5,5.5,0,0,0,22,10.5Zm-1.025,2.475A3.5,3.5,0,0,1,16.5,14v2a5.5,5.5,0,0,0,3.889-1.611Z" transform="translate(0 0)" fill="#09090b"/>
</svg>
