<svg id="cloud-off" xmlns="http://www.w3.org/2000/svg" width="22.004" height="22" viewBox="0 0 22.004 22">
  <path id="Vector" d="M1.71.293A1,1,0,0,0,.3,1.707ZM20.3,21.707a1,1,0,1,0,1.414-1.414ZM5.244,5.67a1,1,0,0,0-.919-1.777ZM8,18V17H8Zm8.5,0V17h0Zm1.6.764a1,1,0,1,0-.58-1.914Zm1.539-3.708a1,1,0,1,0,1.792.889ZM16.5,9v1h0Zm-1.79,0-.958.286a1,1,0,0,0,.958.714ZM9.146,3.08A1,1,0,1,0,8.86,5.06ZM.3,1.707l20,20,1.414-1.414-20-20Zm4.03,2.187A8,8,0,0,0,.72,7.684l1.82.829a6,6,0,0,1,2.7-2.843ZM.72,7.684a8,8,0,0,0-.493,5.208l1.943-.473A6,6,0,0,1,2.54,8.513ZM.227,12.892a8,8,0,0,0,2.832,4.4l1.235-1.573a6,6,0,0,1-2.124-3.3Zm2.832,4.4A8,8,0,0,0,8,19V17a6,6,0,0,1-3.709-1.281ZM8,19h8.5V17H8Zm8.5,0a5.5,5.5,0,0,0,1.6-.236l-.58-1.914A3.5,3.5,0,0,1,16.5,17Zm4.929-3.056A5.5,5.5,0,0,0,22,13.24l-2,.095a3.5,3.5,0,0,1-.361,1.721ZM22,13.24a5.5,5.5,0,0,0-.82-2.639l-1.7,1.054A3.5,3.5,0,0,1,20,13.335Zm-.82-2.639a5.5,5.5,0,0,0-2-1.907l-.972,1.748a3.5,3.5,0,0,1,1.273,1.214Zm-2-1.907A5.5,5.5,0,0,0,16.5,8v2a3.5,3.5,0,0,1,1.7.441ZM16.5,8h-1.79v2H16.5Zm-.832.714a8.008,8.008,0,0,0-2.44-3.77L11.924,6.458a6.009,6.009,0,0,1,1.83,2.828Zm-2.44-3.77A8.008,8.008,0,0,0,9.146,3.08L8.86,5.06a6.008,6.008,0,0,1,3.065,1.4Z" transform="translate(0)" fill="#09090b"/>
</svg>
