<svg id="cloudy" xmlns="http://www.w3.org/2000/svg" width="21.998" height="19.998" viewBox="0 0 21.998 19.998">
  <path id="Vector" d="M16.5,19V18h0ZM8,19v1H8Zm6.71-9-.958.286a1,1,0,0,0,.958.714Zm1.79,0v1h0ZM20,8a1,1,0,0,0,2,0ZM15.791,5l-.962.273A1,1,0,0,0,15.791,6ZM4.106,5.315a1,1,0,1,0,1.966.365ZM16.5,18H8v2h8.5ZM8,18a6,6,0,0,1-3.15-.895L3.8,18.805A8,8,0,0,0,8,20ZM4.848,17.1a6,6,0,0,1-2.211-2.415l-1.788.9A8,8,0,0,0,3.8,18.805ZM2.637,14.688a6,6,0,0,1-.614-3.217L.031,11.3a8,8,0,0,0,.818,4.289Zm-.614-3.217A6,6,0,0,1,3.19,8.411l-1.6-1.2A8,8,0,0,0,.031,11.3ZM3.19,8.411a6,6,0,0,1,2.6-1.992L5.052,4.561A8,8,0,0,0,1.586,7.216Zm2.6-1.992a6,6,0,0,1,3.258-.33L9.4,4.121a8,8,0,0,0-4.344.44Zm3.258-.33a6,6,0,0,1,2.946,1.43l1.331-1.493A8,8,0,0,0,9.4,4.121Zm2.946,1.43a6,6,0,0,1,1.757,2.764l1.917-.571a8,8,0,0,0-2.342-3.685ZM14.708,11H16.5V9h-1.79Zm1.79,0a3.5,3.5,0,0,1,1.339.266L18.6,9.416A5.5,5.5,0,0,0,16.5,9Zm1.339.266a3.5,3.5,0,0,1,1.135.759l1.414-1.414A5.5,5.5,0,0,0,18.6,9.416Zm1.135.759a3.5,3.5,0,0,1,.759,1.135l1.848-.765a5.5,5.5,0,0,0-1.192-1.784Zm.759,1.135A3.5,3.5,0,0,1,20,14.5h2a5.5,5.5,0,0,0-.419-2.1ZM20,14.5a3.5,3.5,0,0,1-.266,1.339l1.848.765A5.5,5.5,0,0,0,22,14.5Zm-.266,1.339a3.5,3.5,0,0,1-.759,1.135l1.414,1.414A5.5,5.5,0,0,0,21.58,16.6Zm-.759,1.135a3.5,3.5,0,0,1-1.135.759l.765,1.848a5.5,5.5,0,0,0,1.784-1.192Zm-1.135.759A3.5,3.5,0,0,1,16.5,18v2a5.5,5.5,0,0,0,2.1-.419ZM22,8a4,4,0,0,0-1.172-2.828L19.412,6.584A2,2,0,0,1,20,8ZM20.826,5.169A4,4,0,0,0,18,4V6a2,2,0,0,1,1.414.586ZM18,4H15.791V6H18Zm-1.245.727a6.5,6.5,0,0,0-2.457-3.5L13.127,2.847a4.5,4.5,0,0,1,1.7,2.424ZM14.3,1.224A6.5,6.5,0,0,0,10.2.007l.093,2a4.5,4.5,0,0,1,2.839.842ZM10.2.007A6.5,6.5,0,0,0,6.226,1.6L7.54,3.108A4.5,4.5,0,0,1,10.288,2ZM6.226,1.6a6.5,6.5,0,0,0-2.12,3.715l1.966.365A4.5,4.5,0,0,1,7.54,3.108Z" transform="translate(0 0)" fill="#09090b"/>
</svg>
