<svg id="clover" xmlns="http://www.w3.org/2000/svg" width="20.994" height="20.994" viewBox="0 0 20.994 20.994">
  <path id="Vector" d="M.293,19.287A1,1,0,0,0,1.707,20.7Zm2.086-8.526A1,1,0,0,0,3.661,9.227ZM11,2.014l-.767.641a1,1,0,0,0,1.535,0Zm7.98,7.98-.641-.767a1,1,0,0,0,0,1.535ZM11,17.974l.767-.641a1,1,0,0,0-1.535,0Zm-4.17-3.81.708.707a1,1,0,0,0-1.384-1.443ZM3.676,10.731A1,1,0,0,0,2.323,9.258ZM14.463,5.117.293,19.287,1.707,20.7l14.17-14.17Zm-10.8,4.11A1.827,1.827,0,0,1,3.2,8.654l-1.782.908a3.827,3.827,0,0,0,.957,1.2ZM3.2,8.654a1.827,1.827,0,0,1-.195-.706l-2,.134a3.827,3.827,0,0,0,.408,1.48ZM3.01,7.948a1.827,1.827,0,0,1,.1-.726L1.22,6.561a3.827,3.827,0,0,0-.206,1.521Zm.1-.726a1.827,1.827,0,0,1,.376-.629L2.007,5.244A3.827,3.827,0,0,0,1.22,6.561Zm.376-.629a1.827,1.827,0,0,1,.593-.431L3.248,4.341a3.827,3.827,0,0,0-1.241.9Zm.593-.431A1.827,1.827,0,0,1,4.79,6L4.745,4a3.827,3.827,0,0,0-1.5.342ZM4.79,6a1.827,1.827,0,0,1,.721.13l.743-1.857A3.827,3.827,0,0,0,4.745,4Zm.721.13a1.827,1.827,0,0,1,.612.4L7.536,5.117a3.827,3.827,0,0,0-1.281-.845ZM7.537,5.118a1.827,1.827,0,0,1-.4-.612L5.278,5.25a3.827,3.827,0,0,0,.845,1.281Zm-.4-.612A1.827,1.827,0,0,1,7,3.785L5,3.739a3.827,3.827,0,0,0,.273,1.51ZM7,3.785a1.827,1.827,0,0,1,.163-.714L5.346,2.243A3.827,3.827,0,0,0,5,3.739Zm.163-.714A1.827,1.827,0,0,1,7.6,2.478L6.249,1a3.827,3.827,0,0,0-.9,1.241ZM7.6,2.478A1.827,1.827,0,0,1,8.227,2.1L7.567.215A3.827,3.827,0,0,0,6.249,1ZM8.227,2.1A1.827,1.827,0,0,1,8.953,2l.134-2A3.827,3.827,0,0,0,7.567.215ZM8.953,2a1.827,1.827,0,0,1,.706.195L10.567.417A3.827,3.827,0,0,0,9.087.009Zm.706.195a1.827,1.827,0,0,1,.573.457l1.535-1.282a3.827,3.827,0,0,0-1.2-.957Zm2.108.457A1.827,1.827,0,0,1,12.34,2.2L11.433.417a3.827,3.827,0,0,0-1.2.957ZM12.34,2.2A1.827,1.827,0,0,1,13.047,2l-.134-2a3.827,3.827,0,0,0-1.48.408ZM13.047,2a1.827,1.827,0,0,1,.726.1l.66-1.888A3.827,3.827,0,0,0,12.912.009Zm.726.1a1.826,1.826,0,0,1,.629.376L15.751,1A3.827,3.827,0,0,0,14.433.215Zm.629.376a1.828,1.828,0,0,1,.431.593l1.821-.828A3.828,3.828,0,0,0,15.751,1Zm.431.593A1.828,1.828,0,0,1,15,3.785l2-.046a3.828,3.828,0,0,0-.342-1.5ZM15,3.785a1.827,1.827,0,0,1-.13.721l1.857.743A3.828,3.828,0,0,0,17,3.739Zm-.13.721a1.827,1.827,0,0,1-.4.612l1.415,1.413a3.828,3.828,0,0,0,.844-1.281Zm1.011,2.026a1.826,1.826,0,0,1,.611-.4l-.743-1.857a3.826,3.826,0,0,0-1.281.845Zm.611-.4A1.827,1.827,0,0,1,17.209,6l.046-2a3.827,3.827,0,0,0-1.51.273ZM17.209,6a1.827,1.827,0,0,1,.714.163l.828-1.821A3.827,3.827,0,0,0,17.255,4Zm.714.163a1.827,1.827,0,0,1,.593.431l1.477-1.349a3.828,3.828,0,0,0-1.242-.9Zm.593.431a1.827,1.827,0,0,1,.376.629l1.888-.66a3.828,3.828,0,0,0-.787-1.318Zm.376.629a1.828,1.828,0,0,1,.1.726l2,.134a3.829,3.829,0,0,0-.206-1.521Zm.1.726a1.827,1.827,0,0,1-.195.706l1.782.908a3.826,3.826,0,0,0,.408-1.48Zm-.195.706a1.828,1.828,0,0,1-.457.573l1.282,1.535a3.827,3.827,0,0,0,.956-1.2Zm-.457,2.108a1.829,1.829,0,0,1,.457.573l1.782-.908a3.827,3.827,0,0,0-.956-1.2Zm.457.573a1.827,1.827,0,0,1,.195.706l2-.134a3.825,3.825,0,0,0-.408-1.48Zm.195.706a1.828,1.828,0,0,1-.1.726l1.888.66a3.829,3.829,0,0,0,.206-1.521Zm-.1.726a1.827,1.827,0,0,1-.376.629l1.477,1.349a3.828,3.828,0,0,0,.787-1.318Zm-.376.629a1.827,1.827,0,0,1-.593.431l.828,1.821a3.829,3.829,0,0,0,1.242-.9Zm-.593.431a1.826,1.826,0,0,1-.714.163l.046,2a3.828,3.828,0,0,0,1.5-.342Zm-.714.163a1.827,1.827,0,0,1-.721-.13l-.743,1.857a3.828,3.828,0,0,0,1.51.273Zm-.721-.13a1.828,1.828,0,0,1-.612-.4l-1.413,1.415a3.826,3.826,0,0,0,1.281.845Zm-2.026,1.011a1.827,1.827,0,0,1,.4.612l1.857-.743a3.828,3.828,0,0,0-.845-1.281Zm.4.612A1.826,1.826,0,0,1,15,16.2l2,.046a3.828,3.828,0,0,0-.273-1.51ZM15,16.2a1.828,1.828,0,0,1-.163.714l1.821.828A3.828,3.828,0,0,0,17,16.25Zm-.163.714a1.829,1.829,0,0,1-.431.593l1.349,1.476a3.827,3.827,0,0,0,.9-1.241Zm-.431.593a1.827,1.827,0,0,1-.629.376l.66,1.888a3.828,3.828,0,0,0,1.318-.787Zm-.629.376a1.828,1.828,0,0,1-.726.1l-.134,2a3.825,3.825,0,0,0,1.521-.206Zm-.726.1a1.827,1.827,0,0,1-.706-.195l-.908,1.782a3.827,3.827,0,0,0,1.48.408Zm-.706-.195a1.826,1.826,0,0,1-.573-.457l-1.535,1.282a3.828,3.828,0,0,0,1.2.957Zm-2.108-.457a1.827,1.827,0,0,1-.573.457l.908,1.782a3.828,3.828,0,0,0,1.2-.957Zm-.573.457a1.827,1.827,0,0,1-.706.195l.134,2a3.827,3.827,0,0,0,1.48-.408Zm-.706.195a1.828,1.828,0,0,1-.726-.1l-.66,1.888a3.825,3.825,0,0,0,1.521.206Zm-.726-.1a1.828,1.828,0,0,1-.629-.376L6.249,18.987a3.828,3.828,0,0,0,1.318.787ZM7.6,17.511a1.828,1.828,0,0,1-.431-.593l-1.821.828a3.827,3.827,0,0,0,.9,1.241Zm-.431-.593A1.827,1.827,0,0,1,7,16.2L5,16.25a3.827,3.827,0,0,0,.342,1.5ZM7,16.2a1.827,1.827,0,0,1,.13-.721l-1.857-.743A3.827,3.827,0,0,0,5,16.25Zm.13-.721a1.827,1.827,0,0,1,.4-.612L6.122,13.458a3.827,3.827,0,0,0-.845,1.281Zm-.981-2.055a1.831,1.831,0,0,1-1.316.481l-.085,2A3.831,3.831,0,0,0,7.506,14.9Zm-1.316.481a1.831,1.831,0,0,1-1.271-.591L2.093,14.671a3.831,3.831,0,0,0,2.659,1.236Zm-1.271-.591A1.831,1.831,0,0,1,3.085,12l-2-.085a3.831,3.831,0,0,0,1.006,2.754ZM3.085,12a1.831,1.831,0,0,1,.591-1.271L2.323,9.258a3.831,3.831,0,0,0-1.236,2.659Zm3.037-5.47,8.34,8.34,1.414-1.414-8.34-8.34Z" transform="translate(0 0)" fill="#09090b"/>
</svg>
