<svg id="codesandbox" xmlns="http://www.w3.org/2000/svg" width="20" height="22.078" viewBox="0 0 20 22.078">
  <path id="Vector" d="M19,15h0Zm0-8h0Zm-1-1.73.5-.866,0,0Zm-7-4-.5.866,0,0Zm-2,0,.5.868,0,0Zm-7,4L1.5,4.4l0,0ZM1,7H1Zm0,8H1Zm1,1.73-.5.866,0,0Zm7,4,.5-.866,0,0Zm2,0-.5-.868,0,0Zm7-4,.5.868,0,0ZM6,2.342A1,1,0,0,0,5,4.074Zm4,3.466-.5.866a1,1,0,0,0,1,0Zm5-1.734a1,1,0,1,0-1-1.732ZM4.5,18.788a1,1,0,0,0,2,0Zm1-5.19h1a1,1,0,0,0-.5-.866Zm-4-3.466a1,1,0,1,0-1,1.732Zm18,1.732a1,1,0,1,0-1-1.732Zm-5,1.734-.5-.866a1,1,0,0,0-.5.866Zm-1,5.19a1,1,0,1,0,2,0ZM1.771,5.092a1,1,0,0,0-1,1.731ZM10,11.008l-.5.866a1,1,0,0,0,1,0Zm9.231-4.184a1,1,0,1,0-1-1.731ZM9,21.078a1,1,0,0,0,2,0ZM11,11a1,1,0,0,0-2,0Zm9,4V7H18v8Zm0-8a3,3,0,0,0-.4-1.5l-1.732,1A1,1,0,0,1,18,7Zm-.4-1.5a3,3,0,0,0-1.1-1.1l-1,1.732a1,1,0,0,1,.366.366ZM18.5,4.4l-7-4L10.5,2.136l7,4Zm-7-4A3,3,0,0,0,10,0V2a1,1,0,0,1,.5.134ZM10,0A3,3,0,0,0,8.5.4l1,1.732A1,1,0,0,1,10,2ZM8.5.4l-7,4L2.5,6.136l7-4Zm-7,4A3,3,0,0,0,.4,5.5l1.732,1A1,1,0,0,1,2.5,6.134ZM.4,5.5A3,3,0,0,0,0,7L2,7a1,1,0,0,1,.134-.5ZM0,7v8H2V7Zm0,8a3,3,0,0,0,.4,1.5l1.732-1A1,1,0,0,1,2,15Zm.4,1.5a3,3,0,0,0,1.1,1.1l1-1.732a1,1,0,0,1-.366-.366Zm1.1,1.1,7,4L9.5,19.86l-7-4Zm7,4A3,3,0,0,0,10,22V20a1,1,0,0,1-.5-.134ZM10,22a3,3,0,0,0,1.5-.4l-1-1.732A1,1,0,0,1,10,20Zm1.5-.4,7-4L17.5,15.86l-7,4Zm7-4a3,3,0,0,0,1.1-1.1l-1.732-1a1,1,0,0,1-.366.366Zm1.1-1.1A3,3,0,0,0,20,15l-2,0a1,1,0,0,1-.134.5ZM5,4.074l4.5,2.6,1-1.732L6,2.342Zm5.5,2.6,4.5-2.6L14,2.342l-4.5,2.6Zm-4,12.114V13.6h-2v5.19ZM6,12.732l-4.5-2.6-1,1.732,4.5,2.6Zm12.5-2.6-4.5,2.6,1,1.732,4.5-2.6Zm-5,3.466v5.19h2V13.6ZM.769,6.824l8.73,5.05,1-1.731-8.73-5.05Zm9.731,5.05,8.73-5.05-1-1.731L9.5,10.142Zm.5,9.2V11H9v10.08Z" transform="translate(0)" fill="#09090b"/>
</svg>
