<svg id="codepen" xmlns="http://www.w3.org/2000/svg" width="22" height="22" viewBox="0 0 22 22">
  <path id="Vector" d="M11,1l.545-.838a1,1,0,0,0-1.09,0ZM21,7.5h1a1,1,0,0,0-.455-.838Zm0,7,.545.838A1,1,0,0,0,22,14.5ZM11,21l-.545.838a1,1,0,0,0,1.09,0ZM1,14.5H0a1,1,0,0,0,.455.838Zm0-7L.455,6.662A1,1,0,0,0,0,7.5Zm9.455-5.662,10,6.5,1.09-1.677-10-6.5ZM20,7.5v7h2v-7Zm.455,6.162-10,6.5,1.09,1.677,10-6.5Zm-8.91,6.5-10-6.5L.455,15.338l10,6.5ZM2,14.5v-7H0v7ZM1.545,8.338l10-6.5L10.455.162l-10,6.5ZM12,21V14.5H10V21ZM20.427,6.681l-10,7,1.147,1.638,10-7Zm-8.853,7-10-7L.427,8.319l10,7Zm-10,1.638,10-7L10.427,6.681l-10,7Zm8.853-7,10,7,1.147-1.638-10-7ZM10,1V7.5h2V1Z" transform="translate(0 0)" fill="#09090b"/>
</svg>
