<svg id="cog" xmlns="http://www.w3.org/2000/svg" width="22" height="22" viewBox="0 0 22 22">
  <path id="Vector" d="M19,11h0ZM12,1a1,1,0,0,0-2,0ZM10,21a1,1,0,0,0,2,0Zm5.134-.84a1,1,0,0,0,1.732-1Zm.732-2.731a1,1,0,0,0-1.732,1ZM9.134,9.77a1,1,0,0,0,1.732-1ZM6.866,1.84a1,1,0,1,0-1.732,1ZM19.16,16.866a1,1,0,0,0,1-1.732Zm-.729-2.732a1,1,0,0,0-1,1.732Zm-15.59-9a1,1,0,0,0-1,1.732Zm.729,2.732a1,1,0,0,0,1-1.732ZM21,12a1,1,0,0,0,0-2ZM1,10a1,1,0,0,0,0,2ZM20.161,6.866a1,1,0,0,0-1-1.732ZM17.43,6.134a1,1,0,0,0,1,1.732Zm-15.59,9a1,1,0,0,0,1,1.732Zm2.731.732a1,1,0,0,0-1-1.732Zm12.3-13.025a1,1,0,0,0-1.732-1Zm-2.732.729a1,1,0,0,0,1.732,1Zm-3.268,9.66a1,1,0,1,0-1.732-1ZM5.134,19.16a1,1,0,1,0,1.732,1ZM11,20a9,9,0,0,0,6.364-2.636L15.95,15.95A7,7,0,0,1,11,18Zm6.364-2.636A9,9,0,0,0,20,11H18a7,7,0,0,1-2.05,4.95ZM20,11a9,9,0,0,0-2.636-6.364L15.95,6.05A7,7,0,0,1,18,11ZM17.364,4.636A9,9,0,0,0,11,2V4a7,7,0,0,1,4.95,2.05ZM11,2A9,9,0,0,0,4.636,4.636L6.05,6.05A7,7,0,0,1,11,4ZM4.636,4.636A9,9,0,0,0,2,11H4A7,7,0,0,1,6.05,6.05ZM2,11a9,9,0,0,0,2.636,6.364L6.05,15.95A7,7,0,0,1,4,11Zm2.636,6.364A9,9,0,0,0,11,20V18a7,7,0,0,1-4.95-2.05ZM11,14a3,3,0,0,0,2.121-.879l-1.414-1.414A1,1,0,0,1,11,12Zm2.121-.879A3,3,0,0,0,14,11H12a1,1,0,0,1-.293.707ZM14,11a3,3,0,0,0-.879-2.121l-1.414,1.414A1,1,0,0,1,12,11Zm-.879-2.121A3,3,0,0,0,11,8v2a1,1,0,0,1,.707.293ZM11,8a3,3,0,0,0-2.121.879l1.414,1.414A1,1,0,0,1,11,10Zm-2.121.879A3,3,0,0,0,8,11h2a1,1,0,0,1,.293-.707ZM8,11a3,3,0,0,0,.879,2.121l1.414-1.414A1,1,0,0,1,10,11Zm.879,2.121A3,3,0,0,0,11,14V12a1,1,0,0,1-.707-.293ZM10,1V3h2V1Zm2,20V19H10v2Zm4.866-1.84-1-1.73-1.732,1,1,1.73Zm-6-10.389-4-6.93-1.732,1,4,6.93Zm9.295,6.364-1.73-1-1,1.732,1.73,1ZM1.839,6.866l1.73,1,1-1.732-1.73-1ZM13,12h8V10H13ZM1,12H3V10H1ZM19.16,5.134l-1.73,1,1,1.732,1.73-1ZM2.84,16.866l1.73-1-1-1.732-1.73,1ZM15.134,1.84l-1,1.73,1.732,1,1-1.73Zm-6,10.39-4,6.93,1.732,1,4-6.93Z" fill="#09090b"/>
</svg>
