<svg id="coins" xmlns="http://www.w3.org/2000/svg" width="21.994" height="21.992" viewBox="0 0 21.994 21.992">
  <path id="Vector" d="M17.439,8.433a1,1,0,1,0-.7,1.874Zm-7.157,8.232a1,1,0,1,0-1.885.669ZM6,4A1,1,0,0,0,6,6ZM7,5H8A1,1,0,0,0,7,4ZM6,9A1,1,0,0,0,8,9Zm10.422,3.178A1,1,0,0,0,15,13.582ZM16.41,13.59l.707.707a1,1,0,0,0,0-1.409ZM12.883,15.7A1,1,0,0,0,14.3,17.117ZM12,7a5,5,0,0,1-5,5v2a7,7,0,0,0,7-7ZM7,12A5,5,0,0,1,2,7H0a7,7,0,0,0,7,7ZM2,7A5,5,0,0,1,7,2V0A7,7,0,0,0,0,7ZM7,2a5,5,0,0,1,5,5h2A7,7,0,0,0,7,0Zm9.74,8.307a5,5,0,0,1,2.038,1.418l1.514-1.307a7,7,0,0,0-2.853-1.985Zm2.038,1.418a5,5,0,0,1,1.1,2.223l1.956-.418a7,7,0,0,0-1.547-3.113Zm1.1,2.223a5,5,0,0,1-.1,2.481L21.7,17a7,7,0,0,0,.141-3.473Zm-.1,2.481A5,5,0,0,1,18.5,18.555l1.4,1.425A7,7,0,0,0,21.7,17ZM18.5,18.555A5,5,0,0,1,16.355,19.8l.545,1.924a7,7,0,0,0,3-1.747ZM16.355,19.8a5,5,0,0,1-2.482.062l-.448,1.949a7,7,0,0,0,3.475-.087Zm-2.482.062a5,5,0,0,1-2.206-1.14l-1.33,1.493a7,7,0,0,0,3.088,1.6Zm-2.206-1.14a5,5,0,0,1-1.386-2.06L8.4,17.335a7,7,0,0,0,1.94,2.884ZM6,6H7V4H6ZM6,5V9H8V5Zm9,8.582.7.71,1.424-1.4-.7-.71Zm.7-.7-2.82,2.82L14.3,17.117l2.82-2.82Z" fill="#09090b"/>
</svg>
