<svg id="combine" xmlns="http://www.w3.org/2000/svg" width="22" height="22" viewBox="0 0 22 22">
  <path id="Vector" d="M13,0a1,1,0,0,0,0,2Zm0,8a1,1,0,0,0,0,2Zm6-8a1,1,0,0,0,0,2Zm0,8a1,1,0,0,0,0,2ZM9,17l.707.707a1,1,0,0,0,0-1.414ZM2,13a1,1,0,0,0-2,0Zm3.293,6.293a1,1,0,0,0,1.414,1.414Zm1.414-6a1,1,0,0,0-1.414,1.414ZM3,2H7V0H3ZM7,2A1,1,0,0,1,8,3h2A3,3,0,0,0,7,0ZM8,3V7h2V3ZM8,7A1,1,0,0,1,7,8v2a3,3,0,0,0,3-3ZM7,8H3v2H7ZM3,8A1,1,0,0,1,2,7H0a3,3,0,0,0,3,3ZM2,7V3H0V7ZM2,3A1,1,0,0,1,3,2V0A3,3,0,0,0,0,3ZM13,2a1.006,1.006,0,0,1,1,1h2a3.006,3.006,0,0,0-3-3Zm1,1V7h2V3Zm0,4a1.006,1.006,0,0,1-1,1v2a3.006,3.006,0,0,0,3-3Zm5-5a1.006,1.006,0,0,1,1,1h2a3.006,3.006,0,0,0-3-3Zm1,1V7h2V3Zm0,4a1.006,1.006,0,0,1-1,1v2a3.006,3.006,0,0,0,3-3ZM9,16H4v2H9ZM4,16a1.947,1.947,0,0,1-2-2H0a3.946,3.946,0,0,0,4,4ZM2,14V13H0v1Zm4.707,6.707,3-3L8.293,16.293l-3,3Zm3-4.414-3-3L5.293,14.707l3,3ZM15,14h4V12H15Zm4,0a1,1,0,0,1,1,1h2a3,3,0,0,0-3-3Zm1,1v4h2V15Zm0,4a1,1,0,0,1-1,1v2a3,3,0,0,0,3-3Zm-1,1H15v2h4Zm-4,0a1,1,0,0,1-1-1H12a3,3,0,0,0,3,3Zm-1-1V15H12v4Zm0-4a1,1,0,0,1,1-1V12a3,3,0,0,0-3,3Z" fill="#09090b"/>
</svg>
