<svg id="compass" xmlns="http://www.w3.org/2000/svg" width="22" height="22" viewBox="0 0 22 22">
  <path id="Vector" d="M15.24,6.76l.949.316a1,1,0,0,0-1.265-1.265Zm-1.8,5.411-.949-.316h0Zm-1.265,1.265-.316-.949h0ZM6.76,15.24l-.949-.316a1,1,0,0,0,1.265,1.265Zm1.8-5.411.949.316h0ZM9.829,8.564l.316.949h0Zm4.462-2.12-1.8,5.411,1.9.633,1.8-5.411Zm-1.8,5.411a1,1,0,0,1-.242.391L13.66,13.66a3,3,0,0,0,.725-1.173Zm-.242.391a1,1,0,0,1-.391.242l.632,1.9a3,3,0,0,0,1.173-.725Zm-.391.242-5.411,1.8.633,1.9,5.411-1.8ZM7.709,15.556l1.8-5.411-1.9-.633-1.8,5.411Zm1.8-5.411a1,1,0,0,1,.242-.391L8.34,8.34a3,3,0,0,0-.725,1.173Zm.242-.391a1,1,0,0,1,.391-.242l-.632-1.9A3,3,0,0,0,8.34,8.34Zm.391-.242,5.411-1.8-.633-1.9-5.411,1.8ZM20,11a9,9,0,0,1-9,9v2A11,11,0,0,0,22,11Zm-9,9a9,9,0,0,1-9-9H0A11,11,0,0,0,11,22ZM2,11a9,9,0,0,1,9-9V0A11,11,0,0,0,0,11Zm9-9a9,9,0,0,1,9,9h2A11,11,0,0,0,11,0Z" fill="#09090b"/>
</svg>
