<svg id="computer" xmlns="http://www.w3.org/2000/svg" width="22" height="22" viewBox="0 0 22 22">
  <path id="Vector" d="M5,16a1,1,0,0,0,0,2Zm2,2a1,1,0,0,0,0-2Zm4-2a1,1,0,0,0,0,2Zm6,2a1,1,0,0,0,0-2ZM6,2H16V0H6ZM16,2a1,1,0,0,1,1,1h2a3,3,0,0,0-3-3Zm1,1V7h2V3Zm0,4a1,1,0,0,1-1,1v2a3,3,0,0,0,3-3ZM16,8H6v2H16ZM6,8A1,1,0,0,1,5,7H3a3,3,0,0,0,3,3ZM5,7V3H3V7ZM5,3A1,1,0,0,1,6,2V0A3,3,0,0,0,3,3ZM3,14H19V12H3Zm16,0a1,1,0,0,1,1,1h2a3,3,0,0,0-3-3Zm1,1v4h2V15Zm0,4a1,1,0,0,1-1,1v2a3,3,0,0,0,3-3Zm-1,1H3v2H19ZM3,20a1,1,0,0,1-1-1H0a3,3,0,0,0,3,3ZM2,19V15H0v4Zm0-4a1,1,0,0,1,1-1V12a3,3,0,0,0-3,3Zm3,3H7V16H5Zm6,0h6V16H11Z" fill="#09090b"/>
</svg>
