<svg id="component" xmlns="http://www.w3.org/2000/svg" width="22" height="22" viewBox="0 0 22 22">
  <path id="Vector" d="M4.5,7.5l.707-.707a1,1,0,0,0-1.414,0ZM8,11l.707.707a1,1,0,0,0,0-1.414ZM4.5,14.5l-.707.707a1,1,0,0,0,1.414,0ZM1,11l-.707-.707a1,1,0,0,0,0,1.414ZM11,1l.707-.707a1,1,0,0,0-1.414,0Zm3.5,3.5.707.707a1,1,0,0,0,0-1.414ZM11,8l-.707.707a1,1,0,0,0,1.414,0ZM7.5,4.5l-.707-.707a1,1,0,0,0,0,1.414Zm10,3,.707-.707a1,1,0,0,0-1.414,0ZM21,11l.707.707a1,1,0,0,0,0-1.414Zm-3.5,3.5-.707.707a1,1,0,0,0,1.414,0ZM14,11l-.707-.707a1,1,0,0,0,0,1.414Zm-3,3,.707-.707a1,1,0,0,0-1.414,0Zm3.5,3.5.707.707a1,1,0,0,0,0-1.414ZM11,21l-.707.707a1,1,0,0,0,1.414,0ZM7.5,17.5l-.707-.707a1,1,0,0,0,0,1.414ZM3.793,8.207l3.5,3.5,1.414-1.414-3.5-3.5Zm3.5,2.086-3.5,3.5,1.414,1.414,3.5-3.5Zm-2.086,3.5-3.5-3.5L.293,11.707l3.5,3.5Zm-3.5-2.086,3.5-3.5L3.793,6.793l-3.5,3.5Zm8.586-10,3.5,3.5,1.414-1.414-3.5-3.5Zm3.5,2.086-3.5,3.5,1.414,1.414,3.5-3.5Zm-2.086,3.5-3.5-3.5L6.793,5.207l3.5,3.5Zm-3.5-2.086,3.5-3.5L10.293.293l-3.5,3.5Zm8.586,3,3.5,3.5,1.414-1.414-3.5-3.5Zm3.5,2.086-3.5,3.5,1.414,1.414,3.5-3.5Zm-2.086,3.5-3.5-3.5-1.414,1.414,3.5,3.5Zm-3.5-2.086,3.5-3.5L16.793,6.793l-3.5,3.5Zm-4.414,3,3.5,3.5,1.414-1.414-3.5-3.5Zm3.5,2.086-3.5,3.5,1.414,1.414,3.5-3.5Zm-2.086,3.5-3.5-3.5L6.793,18.207l3.5,3.5Zm-3.5-2.086,3.5-3.5-1.414-1.414-3.5,3.5Z" fill="#09090b"/>
</svg>
