<svg id="cone" xmlns="http://www.w3.org/2000/svg" width="20" height="21.994" viewBox="0 0 20 21.994">
  <path id="Vector" d="M18.006,17.992a1,1,0,0,0,1.788-.9ZM10.9,1.564,10,2l.006.012ZM10,1V1Zm-.9.564.894.448L10,2ZM.206,17.1a1,1,0,0,0,1.788.9Zm19.588,0-8-15.98-1.788.9,8,15.98ZM11.8,1.128a2,2,0,0,0-.738-.823L10,2h0ZM11.062.305A2,2,0,0,0,10,0V2h0ZM10,0A2,2,0,0,0,8.938.305L10,2h0ZM8.938.305a2,2,0,0,0-.738.823L10,2h0Zm-.732.811-8,15.98,1.788.9,8-15.98ZM18,17.994a.051.051,0,0,1,0,.015.292.292,0,0,1-.032.066,1.236,1.236,0,0,1-.291.3,5.531,5.531,0,0,1-1.626.79A19.981,19.981,0,0,1,10,19.994v2a21.937,21.937,0,0,0,6.68-.93,7.448,7.448,0,0,0,2.232-1.117A2.531,2.531,0,0,0,20,17.994Zm-8,2a19.982,19.982,0,0,1-6.048-.827,5.53,5.53,0,0,1-1.626-.79,1.237,1.237,0,0,1-.291-.3A.3.3,0,0,1,2,18.009a.051.051,0,0,1,0-.015H0a2.531,2.531,0,0,0,1.088,1.953A7.448,7.448,0,0,0,3.32,21.064a21.937,21.937,0,0,0,6.68.93Zm-8-2a.052.052,0,0,1,0-.015.3.3,0,0,1,.032-.066,1.237,1.237,0,0,1,.291-.3,5.527,5.527,0,0,1,1.626-.79A19.981,19.981,0,0,1,10,15.994v-2a21.937,21.937,0,0,0-6.68.93,7.45,7.45,0,0,0-2.232,1.117A2.531,2.531,0,0,0,0,17.994Zm8-2a19.981,19.981,0,0,1,6.048.827,5.528,5.528,0,0,1,1.626.79,1.236,1.236,0,0,1,.291.3.294.294,0,0,1,.032.066.052.052,0,0,1,0,.015h2a2.531,2.531,0,0,0-1.088-1.953,7.45,7.45,0,0,0-2.232-1.117,21.937,21.937,0,0,0-6.68-.93Z" transform="translate(0)" fill="#09090b"/>
</svg>
