<svg id="construction" xmlns="http://www.w3.org/2000/svg" width="22" height="20" viewBox="0 0 22 20">
  <path id="Vector" d="M17,12a1,1,0,0,0-2,0Zm-2,7a1,1,0,0,0,2,0ZM7,12a1,1,0,0,0-2,0ZM5,19a1,1,0,0,0,2,0ZM17,1a1,1,0,0,0-2,0ZM15,4a1,1,0,0,0,2,0ZM7,1A1,1,0,0,0,5,1ZM5,4A1,1,0,0,0,7,4Zm3.293,8.707a1,1,0,1,0,1.414-1.414ZM2.007,3.593A1,1,0,1,0,.593,5.007Zm11.7-.3a1,1,0,0,0-1.414,1.414Zm6.286,9.114a1,1,0,1,0,1.414-1.414ZM7.707,3.293A1,1,0,0,0,6.293,4.707Zm6.586,9.414a1,1,0,0,0,1.414-1.414ZM2,5H20V3H2ZM20,5h2a2,2,0,0,0-2-2Zm0,0v6h2V5Zm0,6v2a2,2,0,0,0,2-2Zm0,0H2v2H20ZM2,11H0a2,2,0,0,0,2,2Zm0,0V5H0v6ZM2,5V3A2,2,0,0,0,0,5Zm13,7v7h2V12ZM5,12v7H7V12ZM15,1V4h2V1ZM5,1V4H7V1ZM9.707,11.293l-7.7-7.7L.593,5.007l7.7,7.7Zm2.586-6.586,7.7,7.7,1.414-1.414-7.7-7.7Zm-6,0,8,8,1.414-1.414-8-8Z" fill="#09090b"/>
</svg>
