<svg id="contact" xmlns="http://www.w3.org/2000/svg" width="20" height="22" viewBox="0 0 20 22">
  <path id="Vector" d="M14,17a1,1,0,0,0,2,0Zm-1-2v0ZM7,15v0ZM4,17a1,1,0,0,0,2,0ZM7,1A1,1,0,0,0,5,1ZM5,3A1,1,0,0,0,7,3ZM15,1a1,1,0,0,0-2,0ZM13,3a1,1,0,0,0,2,0Zm3,14a3,3,0,0,0-.879-2.121l-1.414,1.414A1,1,0,0,1,14,17Zm-.879-2.121A3,3,0,0,0,13,14v2a1,1,0,0,1,.707.293ZM13,14H7v2h6ZM7,14a3,3,0,0,0-2.121.879l1.414,1.414A1,1,0,0,1,7,16Zm-2.121.879A3,3,0,0,0,4,17H6a1,1,0,0,1,.293-.707ZM3,4H17V2H3ZM17,4a1,1,0,0,1,1,1h2a3,3,0,0,0-3-3Zm1,1V19h2V5Zm0,14a1,1,0,0,1-1,1v2a3,3,0,0,0,3-3Zm-1,1H3v2H17ZM3,20a1,1,0,0,1-1-1H0a3,3,0,0,0,3,3ZM2,19V5H0V19ZM2,5A1,1,0,0,1,3,4V2A3,3,0,0,0,0,5Zm9,4a1,1,0,0,1-1,1v2a3,3,0,0,0,3-3Zm-1,1A1,1,0,0,1,9,9H7a3,3,0,0,0,3,3ZM9,9a1,1,0,0,1,1-1V6A3,3,0,0,0,7,9Zm1-1a1,1,0,0,1,1,1h2a3,3,0,0,0-3-3ZM5,1V3H7V1Zm8,0V3h2V1Z" fill="#09090b"/>
</svg>
