<svg id="cooking-pot" xmlns="http://www.w3.org/2000/svg" width="22" height="22" viewBox="0 0 22 22">
  <path id="Vector" d="M1,10a1,1,0,0,0,0,2Zm20,2a1,1,0,0,0,0-2Zm-1-1a1,1,0,1,0-2,0ZM3,19H3Zm1-8a1,1,0,1,0-2,0ZM2.757,6.03a1,1,0,0,0,.485,1.94Zm16.485-2.06a1,1,0,0,0-.485-1.94ZM6.89,6.022A1,1,0,0,0,8.83,5.539Zm.52-2.051.97-.241v0Zm1.45-2.43L8.62.57h0Zm1.94-.48.24.971h0Zm2.43,1.46-.971.24v0Zm-.52,2.043a1,1,0,1,0,1.94-.485ZM1,12H21V10H1Zm17-1v8h2V11Zm0,8a1,1,0,0,1-.293.707l1.414,1.414A3,3,0,0,0,20,19Zm-.293.707A1,1,0,0,1,17,20v2a3,3,0,0,0,2.121-.879ZM17,20H5v2H17ZM5,20a1,1,0,0,1-.707-.293L2.879,21.122A3,3,0,0,0,5,22Zm-.707-.293A1,1,0,0,1,4,19H2a3,3,0,0,0,.879,2.121ZM4,19V11H2v8ZM3.243,7.971l16-4-.485-1.94-16,4ZM8.83,5.539l-.45-1.81L6.44,4.212l.45,1.81ZM8.379,3.725a1,1,0,0,1-.02-.39L6.38,3.046a3,3,0,0,0,.06,1.17Zm-.02-.39a1,1,0,0,1,.131-.368L6.773,1.943a3,3,0,0,0-.392,1.1Zm.131-.368a1,1,0,0,1,.262-.29l-1.194-1.6a3,3,0,0,0-.785.869Zm.262-.29A1,1,0,0,1,9.1,2.51L8.616.571a3,3,0,0,0-1.058.5ZM9.1,2.511l1.94-.48L10.56.09,8.62.57Zm1.944-.481a1,1,0,0,1,.391-.019L11.728.032a3,3,0,0,0-1.172.058Zm.391-.019a1,1,0,0,1,.368.132L12.833.428a3,3,0,0,0-1.105-.4Zm.368.132a1,1,0,0,1,.29.263L13.7,1.218a3,3,0,0,0-.868-.79Zm.29.263a1,1,0,0,1,.166.354L14.2,2.281a3,3,0,0,0-.5-1.063Zm.167.357.45,1.8,1.94-.485-.45-1.8Z" transform="translate(0 0)" fill="#09090b"/>
</svg>
