<svg id="copyright" xmlns="http://www.w3.org/2000/svg" width="22" height="22" viewBox="0 0 22 22">
  <path id="Vector" d="M14.536,14.538a1,1,0,1,0-1.413-1.415Zm-1.413-5.66a1,1,0,1,0,1.413-1.415ZM20,11a9,9,0,0,1-9,9v2A11,11,0,0,0,22,11Zm-9,9a9,9,0,0,1-9-9H0A11,11,0,0,0,11,22ZM2,11a9,9,0,0,1,9-9V0A11,11,0,0,0,0,11Zm9-9a9,9,0,0,1,9,9h2A11,11,0,0,0,11,0Zm2.123,11.123a3,3,0,0,1-1.536.82l.389,1.962a5,5,0,0,0,2.56-1.367Zm-1.536.82a3,3,0,0,1-1.733-.171l-.766,1.848a5,5,0,0,0,2.888.285Zm-1.733-.171a3,3,0,0,1-1.346-1.1L6.845,13.777a5,5,0,0,0,2.243,1.842Zm-1.346-1.1A3,3,0,0,1,8,11H6a5,5,0,0,0,.842,2.777ZM8,11a3,3,0,0,1,.505-1.666L6.845,8.223A5,5,0,0,0,6,11Zm.505-1.666a3,3,0,0,1,1.346-1.1L9.088,6.381A5,5,0,0,0,6.845,8.223Zm1.346-1.1a3,3,0,0,1,1.733-.171L11.976,6.1a5,5,0,0,0-2.888.285Zm1.733-.171a3,3,0,0,1,1.536.82l1.413-1.415A5,5,0,0,0,11.976,6.1Z" fill="#09090b"/>
</svg>
