<svg id="copy-plus" xmlns="http://www.w3.org/2000/svg" width="22" height="22" viewBox="0 0 22 22">
  <path id="Vector" d="M15,11a1,1,0,0,0-2,0Zm-2,6a1,1,0,0,0,2,0Zm-2-4a1,1,0,0,0,0,2Zm6,2a1,1,0,0,0,0-2ZM3,16a1,1,0,0,0,0-2ZM14,3a1,1,0,0,0,2,0Zm-1,8v6h2V11Zm-2,4h6V13H11ZM9,8H19V6H9ZM19,8a1,1,0,0,1,1,1h2a3,3,0,0,0-3-3Zm1,1V19h2V9Zm0,10a1,1,0,0,1-1,1v2a3,3,0,0,0,3-3Zm-1,1H9v2H19ZM9,20a1,1,0,0,1-1-1H6a3,3,0,0,0,3,3ZM8,19V9H6V19ZM8,9A1,1,0,0,1,9,8V6A3,3,0,0,0,6,9ZM3,14a1.006,1.006,0,0,1-1-1H0a3.006,3.006,0,0,0,3,3ZM2,13V3H0V13ZM2,3A1.006,1.006,0,0,1,3,2V0A3.006,3.006,0,0,0,0,3ZM3,2H13V0H3ZM13,2a1.006,1.006,0,0,1,1,1h2a3.006,3.006,0,0,0-3-3Z" fill="#09090b"/>
</svg>
