<svg id="corner-left-down" xmlns="http://www.w3.org/2000/svg" width="18" height="18" viewBox="0 0 18 18">
  <path id="Vector" d="M11.707,12.707a1,1,0,0,0-1.414-1.414ZM6,17l-.707.707a1,1,0,0,0,1.414,0ZM1.707,11.293A1,1,0,0,0,.293,12.707ZM17,2a1,1,0,0,0,0-2ZM10,1V1ZM6,5H6Zm4.293,6.293-5,5,1.414,1.414,5-5Zm-3.586,5-5-5L.293,12.707l5,5ZM17,0H10V2h7ZM10,0A5,5,0,0,0,6.464,1.464L7.879,2.879A3,3,0,0,1,10,2ZM6.464,1.464A5,5,0,0,0,5,5H7a3,3,0,0,1,.879-2.121ZM5,5V17H7V5Z" transform="translate(0)" fill="#09090b"/>
</svg>
