<svg id="currency" xmlns="http://www.w3.org/2000/svg" width="20" height="20" viewBox="0 0 20 20">
  <path id="Vector" d="M1.707.293A1,1,0,0,0,.293,1.707ZM3.293,4.707A1,1,0,0,0,4.707,3.293Zm16.414-3A1,1,0,0,0,18.293.293ZM15.293,3.293a1,1,0,1,0,1.414,1.414Zm-15,15a1,1,0,0,0,1.414,1.414Zm4.414-1.586a1,1,0,1,0-1.414-1.414Zm13.586,3a1,1,0,0,0,1.414-1.414Zm-1.586-4.414a1,1,0,1,0-1.414,1.414ZM17,10a7,7,0,0,1-7,7v2a9,9,0,0,0,9-9Zm-7,7a7,7,0,0,1-7-7H1a9,9,0,0,0,9,9ZM3,10a7,7,0,0,1,7-7V1a9,9,0,0,0-9,9Zm7-7a7,7,0,0,1,7,7h2a9,9,0,0,0-9-9ZM.293,1.707l3,3L4.707,3.293l-3-3Zm18-1.414-3,3,1.414,1.414,3-3ZM1.707,19.707l3-3L3.293,15.293l-3,3Zm18-1.414-3-3-1.414,1.414,3,3Z" fill="#09090b"/>
</svg>
