<svg id="database-zap" xmlns="http://www.w3.org/2000/svg" width="21" height="22.012" viewBox="0 0 21 22.012">
  <path id="Vector" d="M1,4H1ZM1,18l1,.012V18Zm12.117,3.833a1,1,0,1,0-.234-1.986ZM18,7a1,1,0,0,0,2,0Zm1.858,4.514a1,1,0,0,0-1.715-1.029ZM16,16l-.858-.514A1,1,0,0,0,16,17Zm4,0,.858.514A1,1,0,0,0,20,15Zm-3.858,4.486a1,1,0,1,0,1.715,1.029ZM2,11A1,1,0,1,0,0,11Zm10.69,3.868a1,1,0,1,0-.2-1.99ZM18,4a.051.051,0,0,1,0,.015.293.293,0,0,1-.032.066,1.235,1.235,0,0,1-.291.3,5.529,5.529,0,0,1-1.626.79A19.982,19.982,0,0,1,10,6V8a21.937,21.937,0,0,0,6.68-.93,7.448,7.448,0,0,0,2.232-1.117A2.531,2.531,0,0,0,20,4ZM10,6a19.982,19.982,0,0,1-6.048-.827,5.528,5.528,0,0,1-1.626-.79,1.236,1.236,0,0,1-.291-.3A.3.3,0,0,1,2,4.015.052.052,0,0,1,2,4H0A2.531,2.531,0,0,0,1.088,5.953,7.449,7.449,0,0,0,3.32,7.07,21.937,21.937,0,0,0,10,8ZM2,4a.052.052,0,0,1,0-.015.3.3,0,0,1,.032-.066,1.236,1.236,0,0,1,.291-.3,5.528,5.528,0,0,1,1.626-.79A19.982,19.982,0,0,1,10,2V0A21.937,21.937,0,0,0,3.32.93,7.449,7.449,0,0,0,1.088,2.047,2.531,2.531,0,0,0,0,4Zm8-2a19.982,19.982,0,0,1,6.048.827,5.529,5.529,0,0,1,1.626.79,1.235,1.235,0,0,1,.291.3A.293.293,0,0,1,18,3.985.051.051,0,0,1,18,4h2a2.531,2.531,0,0,0-1.088-1.953A7.448,7.448,0,0,0,16.68.93,21.937,21.937,0,0,0,10,0ZM0,4V18H2V4ZM0,17.988a2.735,2.735,0,0,0,1.451,2.234L2.54,18.544a1.788,1.788,0,0,1-.48-.417.405.405,0,0,1-.056-.1.1.1,0,0,1,0-.015v0H2Zm1.451,2.234a10.113,10.113,0,0,0,3.108,1.209l.461-1.946a8.2,8.2,0,0,1-2.48-.941Zm3.108,1.209a22.922,22.922,0,0,0,4.149.551l.093-2a20.941,20.941,0,0,1-3.781-.5Zm4.149.551a27.3,27.3,0,0,0,4.409-.149l-.234-1.986a25.3,25.3,0,0,1-4.082.137ZM18,4V7h2V4Zm.142,6.486-3,5,1.715,1.029,3-5ZM16,17h4V15H16Zm3.142-1.514-3,5,1.715,1.029,3-5ZM0,11A2.724,2.724,0,0,0,1.409,13.18l1.1-1.668a1.732,1.732,0,0,1-.455-.4.4.4,0,0,1-.054-.1A.1.1,0,0,1,2,11v0H2ZM1.409,13.18a9.759,9.759,0,0,0,2.983,1.2l.481-1.941a7.847,7.847,0,0,1-2.36-.922Zm2.983,1.2a22.289,22.289,0,0,0,4,.574l.117-2a20.3,20.3,0,0,1-3.631-.519Zm4,.574a27.545,27.545,0,0,0,4.3-.085l-.2-1.99a25.56,25.56,0,0,1-3.986.079Z" transform="translate(0 0)" fill="#09090b"/>
</svg>
