<svg id="delete" xmlns="http://www.w3.org/2000/svg" width="22" height="16" viewBox="0 0 22 16">
  <path id="Vector" d="M19,1V1ZM8,1V0a1,1,0,0,0-.707.293ZM1,8,.293,7.293a1,1,0,0,0,0,1.414Zm7,7-.707.707A1,1,0,0,0,8,16Zm9.707-9.293a1,1,0,0,0-1.414-1.414Zm-7.414,4.586a1,1,0,0,0,1.414,1.414Zm1.414-6a1,1,0,1,0-1.414,1.414Zm4.586,7.414a1,1,0,1,0,1.414-1.414ZM19,0H8V2H19ZM7.293.293l-7,7L1.707,8.707l7-7Zm-7,8.414,7,7,1.414-1.414-7-7ZM8,16H19V14H8Zm11,0a3,3,0,0,0,2.121-.879l-1.414-1.414A1,1,0,0,1,19,14Zm2.121-.879A3,3,0,0,0,22,13H20a1,1,0,0,1-.293.707ZM22,13V3H20V13ZM22,3A3,3,0,0,0,21.121.879L19.707,2.293A1,1,0,0,1,20,3ZM21.121.879A3,3,0,0,0,19,0V2a1,1,0,0,1,.707.293ZM16.293,4.293l-6,6,1.414,1.414,6-6Zm-6,1.414,6,6,1.414-1.414-6-6Z" fill="#09090b"/>
</svg>
