<svg id="diamond" xmlns="http://www.w3.org/2000/svg" width="22.003" height="22.004" viewBox="0 0 22.003 22.004">
  <path id="Vector" d="M1.707,9.3,2.413,10h0ZM1,11H1Zm.707,1.7L2.414,12h0ZM9.3,20.3,10,19.59h0ZM11,21v0Zm1.7-.707L12,19.59h0Zm7.59-7.59L19.59,12h0Zm0-3.41L19.59,10h0Zm-7.59-7.59L12,2.413h0Zm-3.41,0L10,2.414h0ZM1,8.589A3.41,3.41,0,0,0,.26,9.7l1.848.766A1.41,1.41,0,0,1,2.413,10ZM.26,9.7A3.41,3.41,0,0,0,0,11H2a1.41,1.41,0,0,1,.107-.54ZM0,11a3.41,3.41,0,0,0,.26,1.306l1.848-.766A1.41,1.41,0,0,1,2,11Zm.26,1.306A3.409,3.409,0,0,0,1,13.414L2.414,12a1.411,1.411,0,0,1-.306-.458ZM1,13.414,8.59,21,10,19.59,2.414,12ZM8.589,21a3.41,3.41,0,0,0,1.107.74l.766-1.848A1.409,1.409,0,0,1,10,19.59Zm1.107.74A3.41,3.41,0,0,0,11,22V20a1.409,1.409,0,0,1-.54-.108ZM11,22a3.41,3.41,0,0,0,1.306-.26L11.542,19.9A1.41,1.41,0,0,1,11,20Zm1.306-.26A3.41,3.41,0,0,0,13.414,21L12,19.59a1.41,1.41,0,0,1-.458.306ZM13.414,21,21,13.414,19.59,12,12,19.59ZM21,13.414a3.411,3.411,0,0,0,.74-1.107L19.9,11.542A1.41,1.41,0,0,1,19.59,12Zm.74-1.107A3.41,3.41,0,0,0,22,11H20a1.41,1.41,0,0,1-.108.54ZM22,11a3.41,3.41,0,0,0-.26-1.306l-1.848.766A1.409,1.409,0,0,1,20,11ZM21.744,9.7A3.41,3.41,0,0,0,21,8.589L19.59,10a1.409,1.409,0,0,1,.306.458ZM21,8.59,13.414,1,12,2.414,19.59,10ZM13.414,1A3.409,3.409,0,0,0,12.307.26l-.766,1.848A1.411,1.411,0,0,1,12,2.413ZM12.307.26A3.41,3.41,0,0,0,11,0V2a1.41,1.41,0,0,1,.54.107ZM11,0A3.41,3.41,0,0,0,9.7.26l.766,1.848A1.41,1.41,0,0,1,11,2ZM9.7.26A3.41,3.41,0,0,0,8.589,1L10,2.414a1.41,1.41,0,0,1,.458-.306ZM8.59,1,1,8.59,2.414,10,10,2.414Z" fill="#09090b"/>
</svg>
