<svg id="diameter" xmlns="http://www.w3.org/2000/svg" width="22.009" height="22.009" viewBox="0 0 22.009 22.009">
  <path id="Vector" d="M4.932,1.831A1,1,0,0,0,6.037,3.5ZM18.511,15.972a1,1,0,0,0,1.667,1.1ZM6.122,4.707A1,1,0,0,0,4.707,6.122ZM15.887,17.3A1,1,0,0,0,17.3,15.887ZM3.5,6.037a1,1,0,1,0-1.667-1.1ZM17.077,20.178a1,1,0,0,0-1.1-1.667ZM19,18a1,1,0,0,1-1,1v2a3,3,0,0,0,3-3Zm-1,1a1,1,0,0,1-1-1H15a3,3,0,0,0,3,3Zm-1-1a1,1,0,0,1,1-1V15a3,3,0,0,0-3,3Zm1-1a1,1,0,0,1,1,1h2a3,3,0,0,0-3-3ZM5,4A1,1,0,0,1,4,5V7A3,3,0,0,0,7,4ZM4,5A1,1,0,0,1,3,4H1A3,3,0,0,0,4,7ZM3,4A1,1,0,0,1,4,3V1A3,3,0,0,0,1,4ZM4,3A1,1,0,0,1,5,4H7A3,3,0,0,0,4,1ZM6.037,3.5a9,9,0,0,1,5.871-1.453l.2-1.99A11,11,0,0,0,4.932,1.831Zm5.871-1.453a9,9,0,0,1,5.465,2.591l1.414-1.414A11,11,0,0,0,12.108.055Zm5.465,2.591A9,9,0,0,1,19.964,10.1l1.99-.2a11,11,0,0,0-3.167-6.68ZM19.964,10.1a9,9,0,0,1-1.453,5.871l1.667,1.1A11,11,0,0,0,21.954,9.9ZM4.707,6.122,15.887,17.3,17.3,15.887,6.122,4.707ZM1.831,4.932A11,11,0,0,0,.055,12.108l1.99-.2A9,9,0,0,1,3.5,6.037ZM.055,12.108a11,11,0,0,0,3.167,6.679l1.414-1.414a9,9,0,0,1-2.591-5.465Zm3.167,6.679A11,11,0,0,0,9.9,21.954l.2-1.99a9,9,0,0,1-5.465-2.591ZM9.9,21.954a11,11,0,0,0,7.176-1.776l-1.1-1.667A9,9,0,0,1,10.1,19.964Z" transform="translate(0 0)" fill="#09090b"/>
</svg>
