<svg id="disc-3" xmlns="http://www.w3.org/2000/svg" width="22" height="22" viewBox="0 0 22 22">
  <path id="Vector" d="M4,11a1,1,0,0,0,2,0ZM7.473,7.54A1,1,0,1,0,6.127,6.06ZM18,11a1,1,0,0,0-2,0Zm-3.473,3.46a1,1,0,1,0,1.345,1.48ZM20,11a9,9,0,0,1-9,9v2A11,11,0,0,0,22,11Zm-9,9a9,9,0,0,1-9-9H0A11,11,0,0,0,11,22ZM2,11a9,9,0,0,1,9-9V0A11,11,0,0,0,0,11Zm9-9a9,9,0,0,1,9,9h2A11,11,0,0,0,11,0ZM6,11A4.645,4.645,0,0,1,7.473,7.54L6.127,6.06A6.644,6.644,0,0,0,4,11Zm6,0a1,1,0,0,1-1,1v2a3,3,0,0,0,3-3Zm-1,1a1,1,0,0,1-1-1H8a3,3,0,0,0,3,3Zm-1-1a1,1,0,0,1,1-1V8a3,3,0,0,0-3,3Zm1-1a1,1,0,0,1,1,1h2a3,3,0,0,0-3-3Zm5,1a4.645,4.645,0,0,1-1.473,3.46l1.345,1.48A6.644,6.644,0,0,0,18,11Z" fill="#09090b"/>
</svg>
