<svg id="disc-album" xmlns="http://www.w3.org/2000/svg" width="20" height="20" viewBox="0 0 20 20">
  <path id="Vector" d="M10,9a1,1,0,0,0,0,2Zm.01,2a1,1,0,0,0,0-2ZM3,2H17V0H3ZM17,2a1,1,0,0,1,1,1h2a3,3,0,0,0-3-3Zm1,1V17h2V3Zm0,14a1,1,0,0,1-1,1v2a3,3,0,0,0,3-3Zm-1,1H3v2H17ZM3,18a1,1,0,0,1-1-1H0a3,3,0,0,0,3,3ZM2,17V3H0V17ZM2,3A1,1,0,0,1,3,2V0A3,3,0,0,0,0,3Zm12,7a4,4,0,0,1-4,4v2a6,6,0,0,0,6-6Zm-4,4a4,4,0,0,1-4-4H4a6,6,0,0,0,6,6ZM6,10a4,4,0,0,1,4-4V4a6,6,0,0,0-6,6Zm4-4a4,4,0,0,1,4,4h2a6,6,0,0,0-6-6Zm0,5h.01V9H10Z" fill="#09090b"/>
</svg>
