<svg width="11" height="12" viewBox="0 0 11 12" fill="none" xmlns="http://www.w3.org/2000/svg">
    <path d="M6.5 6C6.5 6.24723 6.42669 6.4889 6.28934 6.69446C6.15198 6.90002 5.95676 7.06024 5.72835 7.15485C5.49995 7.24946 5.24861 7.27421 5.00614 7.22598C4.76366 7.17775 4.54093 7.0587 4.36612 6.88388C4.1913 6.70907 4.07225 6.48634 4.02402 6.24386C3.97579 6.00139 4.00054 5.75005 4.09515 5.52165C4.18976 5.29324 4.34998 5.09801 4.55554 4.96066C4.7611 4.82331 5.00277 4.75 5.25 4.75C5.58152 4.75 5.89946 4.8817 6.13388 5.11612C6.3683 5.35054 6.5 5.66848 6.5 6Z" fill="#666666"/>
    </svg>
    