<svg id="dna-off" xmlns="http://www.w3.org/2000/svg" width="22" height="22" viewBox="0 0 22 22">
  <path id="Vector" d="M14.743,1.669A1,1,0,1,0,13.257.331ZM11.5,5.5l-.965-.262a1,1,0,0,0,.258.97Zm.793,2.207a1,1,0,0,0,1.414-1.414Zm3-2a1,1,0,0,0,1.414-1.414ZM13.816,1.4A1,1,0,1,0,12.4,2.816ZM.331,13.257a1,1,0,0,0,1.338,1.487ZM11,12a1,1,0,0,0,0-2ZM1.707.293A1,1,0,0,0,.293,1.707ZM20.293,21.707a1,1,0,0,0,1.414-1.414ZM19.707,7.293a1,1,0,0,0-1.414,1.414ZM19.184,9.6A1,1,0,0,0,20.6,8.184Zm2.485-.855a1,1,0,0,0-1.338-1.487ZM16.5,10.5l-.707.707a1,1,0,0,0,.97.258Zm-.293-1.707a1,1,0,0,0-1.414,1.414ZM2.816,12.4A1,1,0,0,0,1.4,13.816Zm-.523,2.305a1,1,0,1,0,1.414-1.414Zm3.914-3.914a1,1,0,0,0-1.414,1.414Zm-.414,2.414a1,1,0,1,0,1.414-1.414Zm.914,3.086a1,1,0,0,0-1.414,1.414ZM8.184,20.6A1,1,0,0,0,9.6,19.184Zm-.927-.267a1,1,0,0,0,1.487,1.338ZM10.5,16.5l.965.263a1,1,0,0,0-.258-.97Zm-.793-2.207a1,1,0,1,0-1.414,1.414ZM13.257.331a11.834,11.834,0,0,0-2.722,4.907l1.93.525a9.838,9.838,0,0,1,2.278-4.093ZM10.793,6.207l1.5,1.5,1.414-1.414-1.5-1.5Zm5.914-1.914L13.816,1.4,12.4,2.816l2.891,2.891ZM1.669,14.743C4.694,12.021,7.668,12,11,12V10C7.666,10,3.972,9.979.331,13.257ZM.293,1.707l20,20,1.414-1.414-20-20Zm18,7,.891.891L20.6,8.184l-.891-.891Zm2.038-1.45a9.836,9.836,0,0,1-4.094,2.278l.525,1.93a11.833,11.833,0,0,0,4.906-2.722ZM17.207,9.793l-1-1-1.414,1.414,1,1ZM1.4,13.816l.891.891,1.414-1.414L2.816,12.4Zm3.391-1.609,1,1,1.414-1.414-1-1Zm.5,5.5L8.184,20.6,9.6,19.184,6.707,16.293Zm3.45,3.962a11.833,11.833,0,0,0,2.722-4.906l-1.93-.525a9.836,9.836,0,0,1-2.278,4.094Zm2.464-5.876-1.5-1.5L8.293,15.707l1.5,1.5Z" transform="translate(0 0)" fill="#09090b"/>
</svg>
