<svg id="dna" xmlns="http://www.w3.org/2000/svg" width="22" height="22" viewBox="0 0 22 22">
  <path id="Vector" d="M9.707,14.293a1,1,0,1,0-1.414,1.414Zm.086,2.914a1,1,0,1,0,1.414-1.414Zm2.5-9.5a1,1,0,0,0,1.414-1.414Zm-.086-2.914a1,1,0,0,0-1.414,1.414Zm2.536-3.124A1,1,0,1,0,13.257.331ZM10.2,6.85a1,1,0,0,0,1.979.286Zm6,1.943a1,1,0,0,0-1.414,1.414Zm-.414,2.414a1,1,0,1,0,1.414-1.414Zm-.5-5.5a1,1,0,0,0,1.414-1.414ZM13.816,1.4A1,1,0,1,0,12.4,2.816ZM.331,13.257a1,1,0,0,0,1.338,1.487ZM21.669,8.743a1,1,0,1,0-1.338-1.487Zm-1.962-1.45a1,1,0,0,0-1.414,1.414ZM19.184,9.6A1,1,0,0,0,20.6,8.184ZM2.816,12.4A1,1,0,0,0,1.4,13.816Zm-.523,2.305a1,1,0,1,0,1.414-1.414Zm3.914-3.914a1,1,0,0,0-1.414,1.414Zm-.414,2.414a1,1,0,1,0,1.414-1.414Zm.914,3.086a1,1,0,0,0-1.414,1.414ZM8.184,20.6A1,1,0,0,0,9.6,19.184Zm-.927-.267a1,1,0,0,0,1.487,1.338ZM11.8,15.15a1,1,0,0,0-1.979-.286Zm-3.5.557,1.5,1.5,1.414-1.414-1.5-1.5Zm5.414-9.414-1.5-1.5L10.793,6.207l1.5,1.5ZM13.257.331A11.884,11.884,0,0,0,10.2,6.85l1.979.286a9.889,9.889,0,0,1,2.561-5.467Zm1.536,9.876,1,1,1.414-1.414-1-1Zm1.914-5.914L13.816,1.4,12.4,2.816l2.891,2.891ZM1.669,14.743C4.694,12.021,7.668,12,11,12s7.027.021,10.669-3.257L20.331,7.257C17.306,9.979,14.332,10,11,10S3.973,9.979.331,13.257ZM18.293,8.707l.891.891L20.6,8.184l-.891-.891ZM1.4,13.816l.891.891,1.414-1.414L2.816,12.4Zm3.391-1.609,1,1,1.414-1.414-1-1Zm.5,5.5L8.184,20.6,9.6,19.184,6.707,16.293Zm3.45,3.962A11.884,11.884,0,0,0,11.8,15.15l-1.979-.286a9.888,9.888,0,0,1-2.561,5.467Z" transform="translate(0 0)" fill="#09090b"/>
</svg>
