<svg id="dollar-sign" xmlns="http://www.w3.org/2000/svg" width="14" height="22" viewBox="0 0 14 22">
  <path id="Vector" d="M8,1A1,1,0,0,0,6,1ZM6,21a1,1,0,0,0,2,0ZM12,5a1,1,0,0,0,0-2ZM1,7.5H1ZM4.5,11v0Zm5,0V10h0Zm0,7v1h0ZM1,17a1,1,0,0,0,0,2ZM6,1V21H8V1Zm6,2H4.5V5H12ZM4.5,3A4.5,4.5,0,0,0,1.318,4.318L2.732,5.732A2.5,2.5,0,0,1,4.5,5ZM1.318,4.318A4.5,4.5,0,0,0,0,7.5H2a2.5,2.5,0,0,1,.732-1.768ZM0,7.5a4.5,4.5,0,0,0,1.318,3.182L2.732,9.268A2.5,2.5,0,0,1,2,7.5Zm1.318,3.182A4.5,4.5,0,0,0,4.5,12V10a2.5,2.5,0,0,1-1.768-.732ZM4.5,12h5V10h-5Zm5,0a2.5,2.5,0,0,1,1.768.732l1.414-1.414A4.5,4.5,0,0,0,9.5,10Zm1.768.732A2.5,2.5,0,0,1,12,14.5h2a4.5,4.5,0,0,0-1.318-3.182ZM12,14.5a2.5,2.5,0,0,1-.732,1.768l1.414,1.414A4.5,4.5,0,0,0,14,14.5Zm-.732,1.768A2.5,2.5,0,0,1,9.5,17v2a4.5,4.5,0,0,0,3.182-1.318ZM9.5,17H1v2H9.5Z" fill="#09090b"/>
</svg>
