<svg id="drafting-compass" xmlns="http://www.w3.org/2000/svg" width="20" height="20" viewBox="0 0 20 20">
  <path id="Vector" d="M.129,18.51a1,1,0,0,0,1.743.98ZM9.892,5.23a1,1,0,1,0-1.743-.98Zm1.971-.979a1,1,0,0,0-1.744.979Zm.186,4.419a1,1,0,0,0,1.744-.979ZM17.719,10.7A1,1,0,0,0,16.281,9.3ZM3.719,9.3A1,1,0,1,0,2.281,10.7ZM18.128,19.49a1,1,0,0,0,1.743-.98Zm-.417-4.821a1,1,0,1,0-1.743.981ZM11,3a1,1,0,0,1-1,1V6a3,3,0,0,0,3-3ZM10,4A1,1,0,0,1,9,3H7a3,3,0,0,0,3,3ZM9,3a1,1,0,0,1,1-1V0A3,3,0,0,0,7,3Zm1-1a1,1,0,0,1,1,1h2a3,3,0,0,0-3-3ZM1.872,19.49,9.892,5.23,8.149,4.25.129,18.51ZM10.118,5.229l1.93,3.44,1.744-.979-1.93-3.44ZM16.281,9.3a8.667,8.667,0,0,1-12.563,0L2.281,10.7a10.667,10.667,0,0,0,15.437,0Zm3.59,9.205-2.16-3.84-1.743.981,2.16,3.84Z" transform="translate(0)" fill="#09090b"/>
</svg>
