<svg id="dribbble" xmlns="http://www.w3.org/2000/svg" width="22" height="22" viewBox="0 0 22 22">
  <path id="Vector" d="M18.849,4.785A1,1,0,1,0,17.411,3.4ZM1.186,8.942a1,1,0,0,0,.129,2Zm19.356,3.876a1,1,0,1,0,.417-1.956ZM3.588,17.537a1,1,0,0,0,1.564,1.247ZM8.368,1.161A1,1,0,0,0,6.752,2.339ZM14.588,19.7a1,1,0,1,0,1.944-.469ZM20,11a9,9,0,0,1-9,9v2A11,11,0,0,0,22,11Zm-9,9a9,9,0,0,1-9-9H0A11,11,0,0,0,11,22ZM2,11a9,9,0,0,1,9-9V0A11,11,0,0,0,0,11Zm9-9a9,9,0,0,1,9,9h2A11,11,0,0,0,11,0Zm6.411,1.4C13.775,7.162,8.886,8.445,1.186,8.942l.129,2c7.8-.5,13.351-1.82,17.535-6.153Zm3.548,7.467c-7.043-1.5-12.93,1.1-17.37,6.675l1.564,1.247c4.039-5.068,9.193-7.285,15.39-5.965ZM6.752,2.339a43.962,43.962,0,0,1,4.787,7.823A51.775,51.775,0,0,1,14.588,19.7l1.944-.469a53.7,53.7,0,0,0-3.173-9.9,45.906,45.906,0,0,0-4.99-8.172Z" fill="#09090b"/>
</svg>
