<svg id="droplets" xmlns="http://www.w3.org/2000/svg" width="20" height="21.009" viewBox="0 0 20 21.009">
  <path id="Vector" d="M5,3.28l.981-.2a1,1,0,0,0-1.961,0Zm4.712.769a1,1,0,0,0,1.7,1.061ZM12,1,12.98.8A1,1,0,0,0,11.021.8Zm7,12H18v0ZM7.8,17.262a1,1,0,0,0-1.413,1.416ZM5,15.28a5.042,5.042,0,0,0,5-5.05H8a3.042,3.042,0,0,1-3,3.05Zm5-5.05A5.106,5.106,0,0,0,7.922,6.265L6.658,7.815A3.125,3.125,0,0,1,8,10.23ZM7.922,6.265A5.671,5.671,0,0,1,5.981,3.084l-1.961.392A7.67,7.67,0,0,0,6.658,7.815Zm-3.9-3.181A5.586,5.586,0,0,1,2.085,6.259L3.335,7.821A7.584,7.584,0,0,0,5.981,3.476ZM2.085,6.259A5.078,5.078,0,0,0,0,10.23H2A3.093,3.093,0,0,1,3.335,7.821ZM0,10.23a5.042,5.042,0,0,0,5,5.05v-2a3.042,3.042,0,0,1-3-3.05Zm11.408-5.12A11.971,11.971,0,0,0,12.979,1.2L11.021.8A9.97,9.97,0,0,1,9.712,4.049ZM11.019,1.2a12.427,12.427,0,0,0,4.356,7.085l1.249-1.562A10.43,10.43,0,0,1,12.98.8Zm4.356,7.085A6.063,6.063,0,0,1,18,13h2a8.043,8.043,0,0,0-3.375-6.281ZM18,13a5.981,5.981,0,0,1-1,3.33L18.67,17.44A7.979,7.979,0,0,0,20,13Zm-1,3.33a5.98,5.98,0,0,1-2.68,2.213l.77,1.846A7.981,7.981,0,0,0,18.67,17.44Zm-2.68,2.213a5.98,5.98,0,0,1-3.459.348l-.387,1.962a7.98,7.98,0,0,0,4.615-.465Zm-3.459.348A5.979,5.979,0,0,1,7.8,17.262L6.384,18.678a7.98,7.98,0,0,0,4.094,2.181Z" transform="translate(0 0)" fill="#09090b"/>
</svg>
