<svg id="droplet" xmlns="http://www.w3.org/2000/svg" width="16" height="21" viewBox="0 0 16 21">
  <path id="Vector" d="M8,1,8.981.8A1,1,0,0,0,7.019.8ZM8,21a8,8,0,0,0,5.657-2.343l-1.414-1.414A6,6,0,0,1,8,19Zm5.657-2.343A8,8,0,0,0,16,13H14a6,6,0,0,1-1.757,4.243ZM16,13a8.044,8.044,0,0,0-3.375-6.281L11.375,8.281A6.063,6.063,0,0,1,14,13ZM12.625,6.719A10.429,10.429,0,0,1,8.981.8L7.019,1.2a12.428,12.428,0,0,0,4.356,7.085ZM7.019.8A10.429,10.429,0,0,1,3.375,6.719L4.625,8.281A12.428,12.428,0,0,0,8.981,1.2ZM3.375,6.719A8.043,8.043,0,0,0,0,13H2A6.063,6.063,0,0,1,4.625,8.281ZM0,13a8,8,0,0,0,2.343,5.657l1.414-1.414A6,6,0,0,1,2,13Zm2.343,5.657A8,8,0,0,0,8,21V19a6,6,0,0,1-4.243-1.757Z" fill="#09090b"/>
</svg>
