<svg id="drum" xmlns="http://www.w3.org/2000/svg" width="22" height="22" viewBox="0 0 22 22">
  <path id="Vector" d="M1.707.293A1,1,0,0,0,.293,1.707ZM8.293,9.707A1,1,0,0,0,9.707,8.293Zm13.414-8A1,1,0,0,0,20.293.293ZM12.293,8.293a1,1,0,0,0,1.414,1.414ZM7,12.4a1,1,0,0,0-2,0ZM5,20.3a1,1,0,0,0,2,0Zm12-7.9a1,1,0,0,0-2,0Zm-2,7.9a1,1,0,0,0,2,0ZM1,16H1ZM.293,1.707l8,8L9.707,8.293l-8-8Zm20-1.414-8,8,1.414,1.414,8-8ZM20,8c0,.8-.673,1.789-2.376,2.641A15.231,15.231,0,0,1,11,12v2a17.2,17.2,0,0,0,7.518-1.57C20.434,11.472,22,9.964,22,8Zm-9,4a15.23,15.23,0,0,1-6.624-1.359C2.673,9.789,2,8.8,2,8H0c0,1.964,1.566,3.472,3.482,4.43A17.2,17.2,0,0,0,11,14ZM2,8c0-.8.673-1.789,2.376-2.641A15.23,15.23,0,0,1,11,4V2A17.2,17.2,0,0,0,3.482,3.57C1.566,4.528,0,6.036,0,8Zm9-4a15.231,15.231,0,0,1,6.624,1.359C19.327,6.211,20,7.2,20,8h2c0-1.964-1.566-3.472-3.482-4.43A17.2,17.2,0,0,0,11,2ZM5,12.4v7.9H7V12.4Zm5,.6v8h2V13Zm5-.6v7.9h2V12.4ZM0,8v8H2V8Zm0,8c0,1.9,1.482,3.43,3.482,4.43l.894-1.789C2.625,17.765,2,16.756,2,16Zm3.482,4.43A17.292,17.292,0,0,0,11,22V20a15.32,15.32,0,0,1-6.624-1.359ZM11,22a17.292,17.292,0,0,0,7.518-1.57l-.894-1.789A15.32,15.32,0,0,1,11,20Zm7.518-1.57C20.518,19.43,22,17.9,22,16H20c0,.756-.625,1.765-2.376,2.641ZM22,16V8H20v8Z" fill="#09090b"/>
</svg>
