<svg id="drumstick" xmlns="http://www.w3.org/2000/svg" width="22.015" height="21.975" viewBox="0 0 22.015 21.975">
  <path id="Vector" d="M14.416,14.632l.306.952a1,1,0,0,0,.563-1.448Zm6.23-6.23-.5.869A1,1,0,0,0,21.6,8.708ZM8.013,12.419A1,1,0,1,0,6.6,11.005ZM4.706,14.312l-.483.876a1,1,0,0,0,1.19-.169Zm-1.65,4.65.981-.195a1,1,0,0,0-.8-.789Zm4.66-1.66L7.009,16.6a1,1,0,0,0-.176,1.176Zm3.3-1.883A1,1,0,1,0,9.6,14.005Zm3.1-1.739a5.554,5.554,0,0,1-3.587.046L9.837,15.6a7.542,7.542,0,0,0,4.885-.02Zm-3.587.046a3.657,3.657,0,0,1-2.156-2.035l-1.839.785A5.656,5.656,0,0,0,9.837,15.6ZM8.368,11.692a5.332,5.332,0,0,1-.113-3.521L6.329,7.633a7.321,7.321,0,0,0,.2,4.844ZM8.255,8.171a8.612,8.612,0,0,1,2.224-3.706L9.065,3.051A10.61,10.61,0,0,0,6.329,7.633Zm2.224-3.706a8.612,8.612,0,0,1,3.706-2.224L13.647.315A10.609,10.609,0,0,0,9.065,3.051Zm3.706-2.224a5.332,5.332,0,0,1,3.521.113L18.491.515a7.321,7.321,0,0,0-4.844-.2Zm3.521.113A3.657,3.657,0,0,1,19.74,4.51l1.878-.687A5.657,5.657,0,0,0,18.491.515ZM19.74,4.51A5.554,5.554,0,0,1,19.694,8.1l1.9.611a7.543,7.543,0,0,0,.02-4.885Zm1.4,3.024a4.424,4.424,0,0,0-3.219-.384L18.38,9.1a2.437,2.437,0,0,1,1.771.174ZM17.923,7.15a6.431,6.431,0,0,0-3.029,1.73l1.414,1.414A4.435,4.435,0,0,1,18.38,9.1ZM14.894,8.88a6.431,6.431,0,0,0-1.73,3.029l1.947.457a4.435,4.435,0,0,1,1.2-2.072Zm-1.73,3.029a4.425,4.425,0,0,0,.384,3.219l1.737-.991a2.437,2.437,0,0,1-.174-1.771Zm-6.564-.9L4,13.605l1.414,1.414,2.6-2.6Zm-1.41,2.431a3.5,3.5,0,0,0-1.443-.426l-.14,1.995a1.5,1.5,0,0,1,.619.182ZM3.746,13.01a3.5,3.5,0,0,0-1.489.22l.71,1.87a1.5,1.5,0,0,1,.638-.094Zm-1.489.22A3.5,3.5,0,0,0,1,14.054l1.43,1.4a1.5,1.5,0,0,1,.54-.353ZM1,14.054a3.5,3.5,0,0,0-.8,1.277L2.086,16a1.5,1.5,0,0,1,.341-.547ZM.2,15.331a3.5,3.5,0,0,0-.187,1.493l1.991-.184a1.5,1.5,0,0,1,.08-.64ZM.015,16.825a3.5,3.5,0,0,0,.458,1.434l1.73-1a1.5,1.5,0,0,1-.2-.614Zm.458,1.434A3.5,3.5,0,0,0,1.49,19.367L2.639,17.73a1.5,1.5,0,0,1-.436-.475ZM1.49,19.367a3.5,3.5,0,0,0,1.389.579l.355-1.968a1.5,1.5,0,0,1-.6-.248Zm.586-.21a3.5,3.5,0,0,0,.6,1.367l1.621-1.171a1.5,1.5,0,0,1-.255-.586Zm.6,1.367a3.5,3.5,0,0,0,1.11.995l.987-1.74a1.5,1.5,0,0,1-.476-.426Zm1.11.995a3.5,3.5,0,0,0,1.423.443l.174-1.992a1.5,1.5,0,0,1-.61-.19Zm1.423.443a3.5,3.5,0,0,0,1.479-.19l-.671-1.884a1.5,1.5,0,0,1-.634.081Zm1.479-.19a3.5,3.5,0,0,0,1.265-.788L6.554,19.55a1.5,1.5,0,0,1-.542.338Zm1.265-.788a3.5,3.5,0,0,0,.823-1.243l-1.865-.724a1.5,1.5,0,0,1-.353.533Zm.823-1.243A3.5,3.5,0,0,0,9,18.268l-2,.118a1.5,1.5,0,0,1-.1.631ZM9,18.268a3.5,3.5,0,0,0-.4-1.435l-1.766.938a1.5,1.5,0,0,1,.173.615Zm-.579-.259,2.59-2.59L9.6,14.005,7.009,16.6Z" transform="translate(0 0)" fill="#09090b"/>
</svg>
