<svg id="ear" xmlns="http://www.w3.org/2000/svg" width="15" height="22" viewBox="0 0 15 22">
  <path id="Vector" d="M0,7.5a1,1,0,0,0,2,0ZM7.5,1V1ZM14,7.5h0Zm-6,10H8Zm-6,0a1,1,0,0,0-2,0Zm7-10a1,1,0,0,0,2,0ZM7.5,5V5ZM5,8.5H4a1,1,0,0,0,1,1Zm0,3a1,1,0,0,0,0,2Zm-3-4A5.5,5.5,0,0,1,3.611,3.611L2.2,2.2A7.5,7.5,0,0,0,0,7.5ZM3.611,3.611A5.5,5.5,0,0,1,7.5,2V0A7.5,7.5,0,0,0,2.2,2.2ZM7.5,2a5.5,5.5,0,0,1,3.889,1.611L12.8,2.2A7.5,7.5,0,0,0,7.5,0Zm3.889,1.611A5.5,5.5,0,0,1,13,7.5h2a7.5,7.5,0,0,0-2.2-5.3ZM13,7.5a5.48,5.48,0,0,1-.787,3,8.4,8.4,0,0,1-1.853,1.978,17.949,17.949,0,0,0-2.182,1.961A4.54,4.54,0,0,0,7,17.5H9a2.549,2.549,0,0,1,.7-1.755,16.538,16.538,0,0,1,1.943-1.726,10.332,10.332,0,0,0,2.272-2.46A7.472,7.472,0,0,0,15,7.5Zm-6,10a2.5,2.5,0,0,1-.19.957l1.848.765A4.5,4.5,0,0,0,9,17.5Zm-.19.957a2.5,2.5,0,0,1-.542.811l1.414,1.414a4.5,4.5,0,0,0,.975-1.46Zm-.542.811a2.5,2.5,0,0,1-.811.542l.765,1.848a4.5,4.5,0,0,0,1.46-.976Zm-.811.542A2.5,2.5,0,0,1,4.5,20v2a4.5,4.5,0,0,0,1.722-.343ZM4.5,20a2.5,2.5,0,0,1-.957-.19l-.765,1.848A4.5,4.5,0,0,0,4.5,22Zm-.957-.19a2.5,2.5,0,0,1-.811-.542L1.318,20.682a4.5,4.5,0,0,0,1.46.976Zm-.811-.542a2.5,2.5,0,0,1-.542-.811l-1.848.765a4.5,4.5,0,0,0,.975,1.46Zm-.542-.811A2.5,2.5,0,0,1,2,17.5H0a4.5,4.5,0,0,0,.343,1.722ZM11,7.5A3.5,3.5,0,0,0,9.975,5.025L8.561,6.439A1.5,1.5,0,0,1,9,7.5ZM9.975,5.025A3.5,3.5,0,0,0,7.5,4V6a1.5,1.5,0,0,1,1.061.439ZM7.5,4A3.5,3.5,0,0,0,5.025,5.025L6.439,6.439A1.5,1.5,0,0,1,7.5,6ZM5.025,5.025A3.5,3.5,0,0,0,4,7.5H6a1.5,1.5,0,0,1,.439-1.061ZM4,7.5v1H6v-1Zm1,2a1,1,0,0,1,.707.293L7.121,8.379A3,3,0,0,0,5,7.5Zm.707.293A1,1,0,0,1,6,10.5H8a3,3,0,0,0-.879-2.121ZM6,10.5a1,1,0,0,1-.293.707l1.414,1.414A3,3,0,0,0,8,10.5Zm-.293.707A1,1,0,0,1,5,11.5v2a3,3,0,0,0,2.121-.879Z" transform="translate(0 0)" fill="#09090b"/>
</svg>
