<svg id="eclipse" xmlns="http://www.w3.org/2000/svg" width="22" height="22" viewBox="0 0 22 22">
  <path id="Vector" d="M8.929,6h0ZM16,13.071v0ZM20,11a9,9,0,0,1-9,9v2A11,11,0,0,0,22,11Zm-9,9a9,9,0,0,1-9-9H0A11,11,0,0,0,11,22ZM2,11a9,9,0,0,1,9-9V0A11,11,0,0,0,0,11Zm9-9a9,9,0,0,1,9,9h2A11,11,0,0,0,11,0ZM10.293.293A8.071,8.071,0,0,0,7.929,6h2a6.071,6.071,0,0,1,1.778-4.293ZM7.929,6a8.071,8.071,0,0,0,2.364,5.707l1.414-1.414A6.071,6.071,0,0,1,9.929,6Zm2.364,5.707A8.071,8.071,0,0,0,16,14.071v-2a6.071,6.071,0,0,1-4.293-1.778ZM16,14.071a8.072,8.072,0,0,0,5.707-2.364l-1.414-1.414A6.072,6.072,0,0,1,16,12.071Z" fill="#09090b"/>
</svg>
