<svg id="egg-fried" xmlns="http://www.w3.org/2000/svg" width="22" height="22" viewBox="0 0 22 22">
  <path id="Vector" d="M13,11.5A2.5,2.5,0,0,1,10.5,14v2A4.5,4.5,0,0,0,15,11.5ZM10.5,14A2.5,2.5,0,0,1,8,11.5H6A4.5,4.5,0,0,0,10.5,16ZM8,11.5A2.5,2.5,0,0,1,10.5,9V7A4.5,4.5,0,0,0,6,11.5ZM10.5,9A2.5,2.5,0,0,1,13,11.5h2A4.5,4.5,0,0,0,10.5,7ZM3,7A4.79,4.79,0,0,1,4.437,3.415,5.766,5.766,0,0,1,8.5,2V0A7.752,7.752,0,0,0,3.063,1.96,6.786,6.786,0,0,0,1,7ZM8.5,2a6.309,6.309,0,0,1,2.512.419,3.893,3.893,0,0,1,1.375,1.006c.423.462.741.936,1.229,1.564A9.331,9.331,0,0,0,15.4,6.8l1.2-1.6a7.36,7.36,0,0,1-1.405-1.439c-.387-.5-.84-1.148-1.333-1.686A5.888,5.888,0,0,0,11.8.581,8.271,8.271,0,0,0,8.5,0Zm6.9,4.8a19.483,19.483,0,0,0,2.006,1.284,11.138,11.138,0,0,1,1.461.94,2.7,2.7,0,0,1,.81,1.034A4.808,4.808,0,0,1,20,12h2a6.764,6.764,0,0,0-.49-2.745,4.691,4.691,0,0,0-1.375-1.779,12.906,12.906,0,0,0-1.726-1.123A17.583,17.583,0,0,1,16.6,5.2ZM20,12a5.3,5.3,0,0,1-1.479,4.192A6.606,6.606,0,0,1,14,17.5v2a8.547,8.547,0,0,0,5.854-1.817A7.265,7.265,0,0,0,22,12Zm-6,5.5a4.7,4.7,0,0,0-3.265,1.482,4.482,4.482,0,0,1-1.076.713A4,4,0,0,1,8,20v2a5.988,5.988,0,0,0,2.466-.476,6.435,6.435,0,0,0,1.549-1.006C12.822,19.845,13.172,19.5,14,19.5ZM8,20a7.409,7.409,0,0,1-4.231-1.251A3.9,3.9,0,0,1,2,15.5H0a5.892,5.892,0,0,0,2.606,4.876A9.4,9.4,0,0,0,8,22ZM2,15.5a3.991,3.991,0,0,1,.607-2.361A4.555,4.555,0,0,0,3.5,10.5h-2a2.672,2.672,0,0,1-.607,1.611A5.967,5.967,0,0,0,0,15.5Zm1.5-5a9.568,9.568,0,0,0-.274-2.154A6.552,6.552,0,0,1,3,7H1a8.227,8.227,0,0,0,.274,1.779A7.615,7.615,0,0,1,1.5,10.5Z" transform="translate(0 0)" fill="#09090b"/>
</svg>
