<svg id="egg" xmlns="http://www.w3.org/2000/svg" width="17.098" height="22" viewBox="0 0 17.098 22">
  <path id="Vector" d="M8.549,21l-.008,1h.016Zm7.5-10-1,.083h0ZM8.549,1,8.56,0H8.538Zm-7.5,10,1,.083h0ZM8.557,22a7.805,7.805,0,0,0,7.079-3.85,12.494,12.494,0,0,0,1.41-7.233l-1.993.166a10.516,10.516,0,0,1-1.14,6.052A5.815,5.815,0,0,1,8.541,20Zm8.489-11.083a15.127,15.127,0,0,0-2.735-7.109C12.874,1.785,10.833.026,8.56,0L8.538,2c1.278.014,2.806,1.085,4.142,2.966a13.141,13.141,0,0,1,2.373,6.116ZM8.538,0C6.266.026,4.224,1.785,2.788,3.809A15.127,15.127,0,0,0,.053,10.917l1.993.165A13.141,13.141,0,0,1,4.418,4.966C5.754,3.085,7.283,2.014,8.56,2ZM.053,10.917a12.494,12.494,0,0,0,1.41,7.233A7.805,7.805,0,0,0,8.541,22l.016-2a5.815,5.815,0,0,1-5.371-2.865,10.516,10.516,0,0,1-1.14-6.052Z" transform="translate(0 0)" fill="#09090b"/>
</svg>
