<svg id="external-link" xmlns="http://www.w3.org/2000/svg" width="20" height="20" viewBox="0 0 20 20">
  <path id="Vector" d="M13,0a1,1,0,0,0,0,2Zm6,1h1a1,1,0,0,0-1-1ZM18,7a1,1,0,0,0,2,0ZM7.293,11.293a1,1,0,0,0,1.414,1.414ZM17,11a1,1,0,0,0-2,0ZM1,17H1ZM3,4V4ZM9,5A1,1,0,0,0,9,3Zm4-3h6V0H13Zm5-1V7h2V1ZM8.707,12.707l11-11L18.293.293l-11,11ZM15,11v6h2V11Zm0,6a1,1,0,0,1-.293.707l1.414,1.414A3,3,0,0,0,17,17Zm-.293.707A1,1,0,0,1,14,18v2a3,3,0,0,0,2.121-.879ZM14,18H3v2H14ZM3,18a1,1,0,0,1-.707-.293L.879,19.121A3,3,0,0,0,3,20Zm-.707-.293A1,1,0,0,1,2,17H0a3,3,0,0,0,.879,2.121ZM2,17V6H0V17ZM2,6a1,1,0,0,1,.293-.707L.879,3.879A3,3,0,0,0,0,6Zm.293-.707A1,1,0,0,1,3,5V3a3,3,0,0,0-2.121.879ZM3,5H9V3H3Z" fill="#09090b"/>
</svg>
