<svg id="eye-off" xmlns="http://www.w3.org/2000/svg" width="22" height="22" viewBox="0 0 22 22">
  <path id="Vector" d="M9.562,9.611A1,1,0,0,0,8.2,8.148Zm4.29,4.19a1,1,0,1,0-1.463-1.363ZM9.606,3.088a1,1,0,1,0,.247,1.985ZM11,4V3h0Zm10,7,.906.423a1,1,0,0,0,.013-.817Zm-2.449,2.053a1,1,0,0,0,1.558,1.254ZM6.173,6.437A1,1,0,1,0,5.047,4.784ZM1,11l-.9-.428a1,1,0,0,0-.015.822Zm10,7,0-1h0Zm5.941-.775a1,1,0,1,0-1.1-1.669ZM1.707.293A1,1,0,0,0,.293,1.707ZM20.293,21.707a1,1,0,0,0,1.414-1.414ZM8.2,8.148a4,4,0,0,0-.927,1.3l1.827.814a2,2,0,0,1,.463-.649Zm-.927,1.3A4,4,0,0,0,6.926,11l2,.035a2,2,0,0,1,.173-.779ZM6.926,11a4,4,0,0,0,.291,1.569l1.854-.749a2,2,0,0,1-.145-.784Zm.29,1.569A4,4,0,0,0,8.1,13.9l1.414-1.414a2,2,0,0,1-.44-.665ZM8.1,13.9a4,4,0,0,0,1.33.88l.749-1.854a2,2,0,0,1-.665-.44Zm1.33.88a4,4,0,0,0,1.569.29l-.035-2a2,2,0,0,1-.784-.145Zm1.569.29a4,4,0,0,0,1.557-.346L11.739,12.9a2,2,0,0,1-.779.173Zm1.557-.346a4,4,0,0,0,1.3-.927l-1.463-1.363a2,2,0,0,1-.649.463Zm-2.7-9.656A9.43,9.43,0,0,1,11,5l0-2a11.431,11.431,0,0,0-1.392.088ZM11,5a9.268,9.268,0,0,1,6.892,3.18,13.392,13.392,0,0,1,1.67,2.237c.181.3.314.557.4.729.043.086.074.152.094.194l.021.046,0,.009h0L21,11l.919-.395h0v0l0-.007-.009-.021-.032-.072c-.028-.06-.068-.145-.121-.25-.105-.211-.261-.506-.471-.857A15.385,15.385,0,0,0,19.358,6.82,11.264,11.264,0,0,0,11,3Zm9.094,5.577a12.166,12.166,0,0,1-1.543,2.476l1.558,1.254a14.158,14.158,0,0,0,1.8-2.884ZM5.047,4.784A14.526,14.526,0,0,0,.1,10.572l1.808.856A12.526,12.526,0,0,1,6.173,6.437ZM1,11c-.919.394-.919.394-.919.395h0v0l0,.007.009.021.032.072c.028.06.068.145.121.25.105.211.261.506.471.857a15.387,15.387,0,0,0,1.923,2.575A11.264,11.264,0,0,0,11,19V17a9.268,9.268,0,0,1-6.892-3.18,13.392,13.392,0,0,1-1.67-2.237c-.181-.3-.314-.557-.4-.729-.043-.086-.074-.152-.094-.194l-.021-.046,0-.009h0L1,11Zm10,8a10.74,10.74,0,0,0,5.943-1.775l-1.1-1.669A8.74,8.74,0,0,1,11,17ZM.293,1.707l20,20,1.414-1.414-20-20Z" transform="translate(0)" fill="#09090b"/>
</svg>
