<svg id="eye" xmlns="http://www.w3.org/2000/svg" width="22" height="16" viewBox="0 0 22 16">
  <path id="Vector" d="M1,8,.081,7.606a1,1,0,0,0,0,.788ZM21,8l.919.394a1,1,0,0,0,0-.788ZM1,8l.919.395h0l0-.009.021-.046c.02-.042.051-.108.094-.194.086-.172.219-.424.4-.729A13.388,13.388,0,0,1,4.108,5.18,9.268,9.268,0,0,1,11,2V0A11.264,11.264,0,0,0,2.642,3.82,15.386,15.386,0,0,0,.719,6.395c-.209.351-.365.647-.471.857-.053.105-.093.19-.121.25L.1,7.574l-.009.021,0,.007v0h0L1,8ZM11,2a9.268,9.268,0,0,1,6.892,3.18,13.386,13.386,0,0,1,1.67,2.237c.181.3.314.557.4.729.043.086.074.152.094.194l.021.046,0,.009h0L21,8l.919-.395h0v0l0-.007L21.9,7.574,21.872,7.5c-.028-.06-.068-.145-.121-.25-.105-.211-.261-.506-.471-.857A15.392,15.392,0,0,0,19.358,3.82,11.264,11.264,0,0,0,11,0ZM21,8l-.919-.395h0l0,.009-.021.046c-.02.042-.051.108-.094.194-.086.172-.219.424-.4.729a13.386,13.386,0,0,1-1.67,2.237A9.268,9.268,0,0,1,11,14v2a11.264,11.264,0,0,0,8.358-3.819,15.393,15.393,0,0,0,1.923-2.575c.209-.351.365-.647.471-.857.053-.105.093-.19.121-.25l.032-.072.009-.021,0-.007v0h0ZM11,14a9.268,9.268,0,0,1-6.892-3.18,13.388,13.388,0,0,1-1.67-2.237c-.181-.3-.314-.557-.4-.729-.043-.086-.074-.152-.094-.194l-.021-.046,0-.009h0L1,8l-.919.395h0v0l0,.007L.1,8.426.128,8.5c.028.06.068.145.121.25.105.211.261.506.471.857A15.387,15.387,0,0,0,2.642,12.18,11.264,11.264,0,0,0,11,16Zm2-6a2,2,0,0,1-2,2v2a4,4,0,0,0,4-4Zm-2,2A2,2,0,0,1,9,8H7a4,4,0,0,0,4,4ZM9,8a2,2,0,0,1,2-2V4A4,4,0,0,0,7,8Zm2-2a2,2,0,0,1,2,2h2a4,4,0,0,0-4-4Z" transform="translate(0)" fill="#09090b"/>
</svg>
