<svg id="fence" xmlns="http://www.w3.org/2000/svg" width="22" height="20" viewBox="0 0 22 20">
  <path id="Vector" d="M3,1,3.707.293a1,1,0,0,0-1.414,0ZM1,3,.293,2.293A1,1,0,0,0,0,3ZM5,3H6a1,1,0,0,0-.293-.707ZM5,5A1,1,0,0,0,5,7ZM9,7A1,1,0,0,0,9,5ZM5,15a1,1,0,0,0,0,2Zm4,2a1,1,0,0,0,0-2ZM11,1l.707-.707a1,1,0,0,0-1.414,0ZM9,3l-.707-.707A1,1,0,0,0,8,3Zm4,0h1a1,1,0,0,0-.293-.707Zm0,2a1,1,0,0,0,0,2Zm4,2a1,1,0,0,0,0-2Zm-4,8a1,1,0,0,0,0,2Zm4,2a1,1,0,0,0,0-2ZM19,1l.707-.707a1,1,0,0,0-1.414,0ZM17,3l-.707-.707A1,1,0,0,0,16,3Zm4,0h1a1,1,0,0,0-.293-.707ZM2.293.293l-2,2L1.707,3.707l2-2ZM0,3V18H2V3ZM0,18a2,2,0,0,0,.568,1.432A2,2,0,0,0,2,20V18a.169.169,0,0,1-.05-.005L1.962,18A.13.13,0,0,1,2,18.038a.07.07,0,0,1,.006.012A.169.169,0,0,1,2,18Zm2,2H4V18H2Zm2,0a1.942,1.942,0,0,0,2-2H4a.169.169,0,0,1-.005.05A.07.07,0,0,1,4,18.038.129.129,0,0,1,4.038,18l.012-.006A.169.169,0,0,1,4,18Zm2-2V3H4V18ZM5.707,2.293l-2-2L2.293,1.707l2,2ZM5,7H9V5H5ZM5,17H9V15H5ZM10.293.293l-2,2L9.707,3.707l2-2ZM8,3V18h2V3ZM8,18a1.942,1.942,0,0,0,2,2V18a.169.169,0,0,1-.05-.005L9.962,18a.129.129,0,0,1,.037.037.07.07,0,0,1,.006.012A.169.169,0,0,1,10,18Zm2,2h2V18H10Zm2,0a1.942,1.942,0,0,0,2-2H12a.169.169,0,0,1-.005.05A.07.07,0,0,1,12,18.038.13.13,0,0,1,12.038,18l.012-.006A.169.169,0,0,1,12,18Zm2-2V3H12V18ZM13.707,2.293l-2-2L10.293,1.707l2,2ZM13,7h4V5H13Zm0,10h4V15H13ZM18.293.293l-2,2,1.414,1.414,2-2ZM16,3V18h2V3Zm0,15a1.942,1.942,0,0,0,2,2V18a.169.169,0,0,1-.05-.005l.012.006a.13.13,0,0,1,.037.037.07.07,0,0,1,.006.012A.169.169,0,0,1,18,18Zm2,2h2V18H18Zm2,0a1.942,1.942,0,0,0,2-2H20a.169.169,0,0,1-.005.05A.07.07,0,0,1,20,18.038.13.13,0,0,1,20.038,18l.012-.006A.169.169,0,0,1,20,18Zm2-2V3H20V18ZM21.707,2.293l-2-2L18.293,1.707l2,2Z" fill="#09090b"/>
</svg>
