<svg id="file-json" xmlns="http://www.w3.org/2000/svg" width="18" height="22" viewBox="0 0 18 22">
  <path id="Vector" d="M12,1l.707-.707A1,1,0,0,0,12,0ZM3,1V1ZM1,3H1ZM1,19H1ZM17,6h1a1,1,0,0,0-.293-.707ZM12,1a1,1,0,0,0-2,0Zm1,6V7Zm4,1a1,1,0,0,0,0-2ZM7,12a1,1,0,0,0,0-2ZM5,13a1,1,0,0,0,0,2Zm2,5a1,1,0,0,0,0-2Zm4-2a1,1,0,0,0,0,2Zm2-1a1,1,0,0,0,0-2Zm-2-5a1,1,0,0,0,0,2ZM12,0H3V2h9ZM3,0A3,3,0,0,0,.879.879L2.293,2.293A1,1,0,0,1,3,2ZM.879.879A3,3,0,0,0,0,3H2a1,1,0,0,1,.293-.707ZM0,3V19H2V3ZM0,19a3,3,0,0,0,.879,2.121l1.414-1.414A1,1,0,0,1,2,19Zm.879,2.121A3,3,0,0,0,3,22V20a1,1,0,0,1-.707-.293ZM3,22H15V20H3Zm12,0a3,3,0,0,0,2.121-.879l-1.414-1.414A1,1,0,0,1,15,20Zm2.121-.879A3,3,0,0,0,18,19H16a1,1,0,0,1-.293.707ZM18,19V6H16V19ZM17.707,5.293l-5-5L11.293,1.707l5,5ZM10,1V5h2V1Zm0,4a3,3,0,0,0,.879,2.121l1.414-1.414A1,1,0,0,1,12,5Zm.879,2.121A3,3,0,0,0,13,8V6a1,1,0,0,1-.707-.293ZM13,8h4V6H13ZM7,10a2,2,0,0,0-1.414.586L7,12H7Zm-1.414.586A2,2,0,0,0,5,12H7ZM5,12v1H7V12Zm0,1H5l1.414,1.414A2,2,0,0,0,7,13Zm0,0H5v2a2,2,0,0,0,1.414-.586Zm0,2H5l1.414-1.414A2,2,0,0,0,5,13Zm0,0H7a2,2,0,0,0-.586-1.414Zm0,0v1H7V15Zm0,1a2,2,0,0,0,.586,1.414L7,16H5Zm.586,1.414A2,2,0,0,0,7,18V16H7ZM11,18a2,2,0,0,0,1.414-.586L11,16h0Zm1.414-.586A2,2,0,0,0,13,16H11ZM13,16V15H11v1Zm0-1h0l-1.414-1.414A2,2,0,0,0,11,15Zm0,0h0V13a2,2,0,0,0-1.414.586Zm0-2h0l-1.414,1.414A2,2,0,0,0,13,15Zm0,0H11a2,2,0,0,0,.586,1.414Zm0,0V12H11v1Zm0-1a2,2,0,0,0-.586-1.414L11,12h2Zm-.586-1.414A2,2,0,0,0,11,10v2h0Z" fill="#09090b"/>
</svg>
