<svg id="file-output" xmlns="http://www.w3.org/2000/svg" width="20" height="22.016" viewBox="0 0 20 22.016">
  <path id="Vector" d="M14,1a1,1,0,0,0-2,0Zm1,6V7Zm4,1a1,1,0,0,0,0-2ZM2,6A1,1,0,0,0,4,6ZM5,1V1ZM3.934,19.507a1,1,0,1,0-1.742.983ZM5.063,21V20a1,1,0,0,0-.129.008ZM17,21v1h0ZM19,6h1a1,1,0,0,0-.293-.707ZM14,1l.707-.707A1,1,0,0,0,14,0ZM4.707,10.707A1,1,0,0,0,3.293,9.293ZM1,13l-.707-.707a1,1,0,0,0,0,1.414Zm2.293,3.707a1,1,0,0,0,1.414-1.414ZM11,14a1,1,0,0,0,0-2ZM12,1V5h2V1Zm0,4a3,3,0,0,0,.879,2.121l1.414-1.414A1,1,0,0,1,14,5Zm.879,2.121A3,3,0,0,0,15,8V6a1,1,0,0,1-.707-.293ZM15,8h4V6H15ZM4,6V3H2V6ZM4,3a1,1,0,0,1,.293-.707L2.879.879A3,3,0,0,0,2,3Zm.293-.707A1,1,0,0,1,5,2V0A3,3,0,0,0,2.879.879Zm-2.1,18.2A3,3,0,0,0,3.463,21.7l.894-1.789a1,1,0,0,1-.424-.4ZM3.463,21.7a3,3,0,0,0,1.729.292l-.258-1.983a1,1,0,0,1-.576-.1Zm1.6.3H17V20H5.063ZM17,22a3,3,0,0,0,2.121-.879l-1.414-1.414A1,1,0,0,1,17,20Zm2.121-.879A3,3,0,0,0,20,19H18a1,1,0,0,1-.293.707ZM20,19V6H18V19ZM19.707,5.293l-5-5L13.293,1.707l5,5ZM14,0H5V2h9ZM3.293,9.293l-3,3,1.414,1.414,3-3Zm1.414,6-3-3L.293,13.707l3,3ZM1,14H11V12H1Z" fill="#09090b"/>
</svg>
