<svg id="file-music" xmlns="http://www.w3.org/2000/svg" width="18" height="22" viewBox="0 0 18 22">
  <path id="Vector" d="M0,11.4a1,1,0,0,0,2,0ZM3,1V1Zm8.5,0,.707-.707A1,1,0,0,0,11.5,0ZM17,6.5h1a1,1,0,0,0-.293-.707ZM7.5,20a1,1,0,0,0,0,2ZM5,9.3l-.16-.987A1,1,0,0,0,4,9.3ZM13,8h1a1,1,0,0,0-1.16-.987Zm-1,7a1,1,0,0,1-1,1v2a3,3,0,0,0,3-3Zm-1,1a1,1,0,0,1-1-1H8a3,3,0,0,0,3,3Zm-1-1a1,1,0,0,1,1-1V12a3,3,0,0,0-3,3Zm1-1a1,1,0,0,1,1,1h2a3,3,0,0,0-3-3ZM4,17a1,1,0,0,1-1,1v2a3,3,0,0,0,3-3ZM3,18a1,1,0,0,1-1-1H0a3,3,0,0,0,3,3ZM2,17a1,1,0,0,1,1-1V14a3,3,0,0,0-3,3Zm1-1a1,1,0,0,1,1,1H6a3,3,0,0,0-3-3ZM2,11.4V3H0v8.4ZM2,3a1,1,0,0,1,.293-.707L.879.879A3,3,0,0,0,0,3Zm.293-.707A1,1,0,0,1,3,2V0A3,3,0,0,0,.879.879ZM3,2h8.5V0H3Zm7.793-.293,5.5,5.5,1.414-1.414-5.5-5.5ZM16,6.5V19h2V6.5ZM16,19a1,1,0,0,1-.293.707l1.414,1.414A3,3,0,0,0,18,19Zm-.293.707A1,1,0,0,1,15,20v2a3,3,0,0,0,2.121-.879ZM15,20H7.5v2H15ZM6,17V9.3H4V17Zm-.84-6.713,8-1.3L12.84,7.013l-8,1.3ZM12,8v7h2V8Z" fill="#09090b"/>
</svg>
