<svg id="file-pie-chart" xmlns="http://www.w3.org/2000/svg" width="20" height="22" viewBox="0 0 20 22">
  <path id="Vector" d="M14,1a1,1,0,0,0-2,0Zm1,6V7Zm4,1a1,1,0,0,0,0-2ZM15,20a1,1,0,1,0,0,2ZM19,6h1a1,1,0,0,0-.293-.707ZM14,1l.707-.707A1,1,0,0,0,14,0ZM5,1V1ZM3,3H3ZM2,6.5a1,1,0,0,0,2,0Zm1.681,4.76a1,1,0,0,0-1.328-1.5Zm8.549,8.392a1,1,0,1,0-1.495-1.329ZM7,15H6a1,1,0,0,0,1,1ZM7,9V8A1,1,0,0,0,6,9Zm6,6v1a1,1,0,0,0,1-1ZM12,1V5h2V1Zm0,4a3,3,0,0,0,.879,2.121l1.414-1.414A1,1,0,0,1,14,5Zm.879,2.121A3,3,0,0,0,15,8V6a1,1,0,0,1-.707-.293ZM15,8h4V6H15Zm0,14h2V20H15Zm2,0a3,3,0,0,0,2.121-.879l-1.414-1.414A1,1,0,0,1,17,20Zm2.121-.879A3,3,0,0,0,20,19H18a1,1,0,0,1-.293.707ZM20,19V6H18V19ZM19.708,5.293l-5-5L13.293,1.707l5,5ZM14,0H5V2h9ZM5,0A3,3,0,0,0,2.879.879L4.293,2.293A1,1,0,0,1,5,2ZM2.879.879A3,3,0,0,0,2,3H4a1,1,0,0,1,.293-.707ZM2,3V6.5H4V3Zm.353,6.764a7,7,0,0,0-1.694,2.27l1.812.847a5,5,0,0,1,1.21-1.621ZM.659,12.034A7,7,0,0,0,0,14.789l2,.06a5,5,0,0,1,.469-1.968ZM0,14.789a7,7,0,0,0,.489,2.79l1.859-.737A5,5,0,0,1,2,14.849Zm.489,2.79a7,7,0,0,0,1.555,2.368l1.415-1.413a5,5,0,0,1-1.111-1.691Zm1.555,2.368A7,7,0,0,0,4.413,21.5l.739-1.858a5,5,0,0,1-1.69-1.112ZM4.413,21.5A7,7,0,0,0,7.2,22l-.058-2a5,5,0,0,1-1.992-.352ZM7.2,22a7,7,0,0,0,2.756-.653l-.845-1.813A5,5,0,0,1,7.145,20Zm2.756-.653a7,7,0,0,0,2.272-1.692l-1.495-1.329a5,5,0,0,1-1.623,1.208ZM8,15V9H6v6ZM7,10a5,5,0,0,1,3.536,1.465L11.95,10.05A7,7,0,0,0,7,8Zm3.536,1.465A5,5,0,0,1,12,15h2a7,7,0,0,0-2.05-4.95ZM13,14H7v2h6Z" transform="translate(0)" fill="#09090b"/>
</svg>
