<svg id="file-pen" xmlns="http://www.w3.org/2000/svg" width="18" height="22" viewBox="0 0 18 22">
  <path id="Vector" d="M9.5,20a1,1,0,0,0,0,2ZM17,6h1a1,1,0,0,0-.293-.707ZM12,1l.707-.707A1,1,0,0,0,12,0ZM3,1V1ZM1,3H1ZM0,12.5a1,1,0,0,0,2,0ZM12,1a1,1,0,0,0-2,0Zm1,6V7Zm4,1a1,1,0,0,0,0-2Zm-6.622,6.626.707.707h0Zm.622-1.5h0ZM8.876,11v0Zm-1.5.622-.707-.707h0Zm-5.01,5.012.707.707h0Zm-.506.854-.96-.28h0Zm-.837,2.87.96.28h0Zm.62.62-.28-.96h0Zm2.87-.837.28.96h0Zm.854-.506-.707-.707h0ZM9.5,22H15V20H9.5ZM15,22a3,3,0,0,0,2.121-.879l-1.414-1.414A1,1,0,0,1,15,20Zm2.121-.879A3,3,0,0,0,18,19H16a1,1,0,0,1-.293.707ZM18,19V6H16V19ZM17.707,5.293l-5-5L11.293,1.707l5,5ZM12,0H3V2h9ZM3,0A3,3,0,0,0,.879.879L2.293,2.293A1,1,0,0,1,3,2ZM.879.879A3,3,0,0,0,0,3H2a1,1,0,0,1,.293-.707ZM0,3v9.5H2V3ZM10,1V5h2V1Zm0,4a3,3,0,0,0,.879,2.121l1.414-1.414A1,1,0,0,1,12,5Zm.879,2.121A3,3,0,0,0,13,8V6a1,1,0,0,1-.707-.293ZM13,8h4V6H13Zm-1.915,7.333a3.124,3.124,0,0,0,.677-1.014l-1.848-.765a1.124,1.124,0,0,1-.244.365Zm.677-1.014a3.125,3.125,0,0,0,.238-1.2H10a1.124,1.124,0,0,1-.086.43Zm.238-1.2a3.125,3.125,0,0,0-.238-1.2l-1.848.765a1.124,1.124,0,0,1,.086.43Zm-.238-1.2a3.124,3.124,0,0,0-.677-1.014L9.671,12.329a1.124,1.124,0,0,1,.244.365Zm-.677-1.014a3.124,3.124,0,0,0-1.014-.677l-.765,1.848a1.124,1.124,0,0,1,.365.244Zm-1.014-.677A3.124,3.124,0,0,0,8.876,10v2a1.124,1.124,0,0,1,.43.085ZM8.876,10a3.124,3.124,0,0,0-1.2.238l.765,1.848A1.124,1.124,0,0,1,8.876,12Zm-1.2.238a3.124,3.124,0,0,0-1.014.677l1.414,1.414a1.124,1.124,0,0,1,.365-.244Zm-1.014.677-5.01,5.012,1.414,1.414,5.01-5.012Zm-5.01,5.012A3,3,0,0,0,.9,17.208l1.92.561a1,1,0,0,1,.253-.427ZM.9,17.208l-.837,2.87,1.92.56.837-2.87Zm-.837,2.87a1.5,1.5,0,0,0-.013.792l1.937-.5a.5.5,0,0,1,0,.264Zm-.013.792a1.5,1.5,0,0,0,.392.688l1.414-1.414a.5.5,0,0,1,.131.229Zm.392.688a1.5,1.5,0,0,0,.688.392l.5-1.937a.5.5,0,0,1,.229.131Zm.688.392a1.5,1.5,0,0,0,.792-.013l-.56-1.92a.5.5,0,0,1,.264,0Zm.792-.013,2.87-.837-.56-1.92-2.87.837Zm2.87-.837a3,3,0,0,0,1.281-.759L4.658,18.928a1,1,0,0,1-.427.253Zm1.281-.758,5.013-5.009L9.671,13.919,4.658,18.928Z" fill="#09090b"/>
</svg>
