<svg id="file-audio" xmlns="http://www.w3.org/2000/svg" width="20" height="22" viewBox="0 0 20 22">
  <path id="Vector" d="M16.5,20a1,1,0,0,0,0,2ZM19,6h1a1,1,0,0,0-.293-.707ZM14,1l.707-.707A1,1,0,0,0,14,0ZM5,1V1ZM3,3H3ZM2,6A1,1,0,0,0,4,6ZM14,1a1,1,0,0,0-2,0Zm1,6V7Zm4,1a1,1,0,0,0,0-2ZM0,18a1,1,0,0,0,2,0Zm5,0H5Zm0,1H5ZM1,19H1Zm0-4H1Zm12,0h0Zm-1,3a1,1,0,0,0,2,0Zm4.5,4H17V20h-.5Zm.5,0a3,3,0,0,0,2.121-.879l-1.414-1.414A1,1,0,0,1,17,20Zm2.121-.879A3,3,0,0,0,20,19H18a1,1,0,0,1-.293.707ZM20,19V6H18V19ZM19.707,5.293l-5-5L13.293,1.707l5,5ZM14,0H5V2h9ZM5,0A3,3,0,0,0,2.879.879L4.293,2.293A1,1,0,0,1,5,2ZM2.879.879A3,3,0,0,0,2,3H4a1,1,0,0,1,.293-.707ZM2,3V6H4V3ZM12,1V5h2V1Zm0,4a3,3,0,0,0,.879,2.121l1.414-1.414A1,1,0,0,1,14,5Zm.879,2.121A3,3,0,0,0,15,8V6a1,1,0,0,1-.707-.293ZM15,8h4V6H15ZM2,18a1,1,0,0,1,.293-.707L.879,15.879A3,3,0,0,0,0,18Zm.293-.707A1,1,0,0,1,3,17V15a3,3,0,0,0-2.121.879ZM3,17a1,1,0,0,1,.707.293l1.414-1.414A3,3,0,0,0,3,15Zm.707.293A1,1,0,0,1,4,18H6a3,3,0,0,0-.879-2.121ZM4,18v1H6V18Zm0,1a1,1,0,0,1-.293.707l1.414,1.414A3,3,0,0,0,6,19Zm-.293.707A1,1,0,0,1,3,20v2a3,3,0,0,0,2.121-.879ZM3,20a1,1,0,0,1-.707-.293L.879,21.121A3,3,0,0,0,3,22Zm-.707-.293A1,1,0,0,1,2,19H0a3,3,0,0,0,.879,2.121ZM2,19V15H0v4Zm0-4a5,5,0,0,1,1.464-3.535L2.05,10.05A7,7,0,0,0,0,15Zm1.464-3.535A5,5,0,0,1,7,10V8a7,7,0,0,0-4.95,2.05ZM7,10a5,5,0,0,1,3.536,1.465L11.95,10.05A7,7,0,0,0,7,8Zm3.536,1.465A5,5,0,0,1,12,15h2a7,7,0,0,0-2.05-4.95ZM12,15v4h2V15Zm0,4a1,1,0,0,1-.293.707l1.414,1.414A3,3,0,0,0,14,19Zm-.293.707A1,1,0,0,1,11,20v2a3,3,0,0,0,2.121-.879ZM11,20a1,1,0,0,1-.707-.293L8.879,21.121A3,3,0,0,0,11,22Zm-.707-.293A1,1,0,0,1,10,19H8a3,3,0,0,0,.879,2.121ZM10,19V18H8v1Zm0-1a1,1,0,0,1,.293-.707L8.879,15.879A3,3,0,0,0,8,18Zm.293-.707A1,1,0,0,1,11,17V15a3,3,0,0,0-2.121.879ZM11,17a1,1,0,0,1,.707.293l1.414-1.414A3,3,0,0,0,11,15Zm.707.293A1,1,0,0,1,12,18h2a3,3,0,0,0-.879-2.121Z" fill="#09090b"/>
</svg>
