<svg id="file-audio-2" xmlns="http://www.w3.org/2000/svg" width="20" height="22" viewBox="0 0 20 22">
  <path id="Vector" d="M3,20a1,1,0,0,0,0,2ZM19,6h1a1,1,0,0,0-.293-.707ZM14,1l.707-.707A1,1,0,0,0,14,0ZM5,1V1ZM3,3H3ZM2,5A1,1,0,0,0,4,5ZM14,1a1,1,0,0,0-2,0Zm1,6V7Zm4,1a1,1,0,0,0,0-2ZM5,9V9Zm4,4H9ZM3,22H17V20H3Zm14,0a3,3,0,0,0,2.121-.879l-1.414-1.414A1,1,0,0,1,17,20Zm2.121-.879A3,3,0,0,0,20,19H18a1,1,0,0,1-.293.707ZM20,19V6H18V19ZM19.707,5.293l-5-5L13.293,1.707l5,5ZM14,0H5V2h9ZM5,0A3,3,0,0,0,2.879.879L4.293,2.293A1,1,0,0,1,5,2ZM2.879.879A3,3,0,0,0,2,3H4a1,1,0,0,1,.293-.707ZM2,3V5H4V3ZM12,1V5h2V1Zm0,4a3,3,0,0,0,.879,2.121l1.414-1.414A1,1,0,0,1,14,5Zm.879,2.121A3,3,0,0,0,15,8V6a1,1,0,0,1-.707-.293ZM15,8h4V6H15ZM2,16v2a2,2,0,0,0,2-2Zm0,0H0a2,2,0,0,0,2,2Zm0,0V14a2,2,0,0,0-2,2Zm0,0H4a2,2,0,0,0-2-2Zm0,0V13H0v3Zm0-3a3,3,0,0,1,.879-2.121L1.464,9.464A5,5,0,0,0,0,13Zm.879-2.121A3,3,0,0,1,5,10V8A5,5,0,0,0,1.464,9.464ZM5,10a3,3,0,0,1,2.121.879L8.536,9.464A5,5,0,0,0,5,8Zm2.121.879A3,3,0,0,1,8,13h2A5,5,0,0,0,8.536,9.464ZM8,13v3h2V13Zm0,3v2a2,2,0,0,0,2-2Zm0,0H6a2,2,0,0,0,2,2Zm0,0V14a2,2,0,0,0-2,2Zm0,0h2a2,2,0,0,0-2-2Z" fill="#09090b"/>
</svg>
