<svg id="file-code-2" xmlns="http://www.w3.org/2000/svg" width="20" height="22" viewBox="0 0 20 22">
  <path id="Vector" d="M3,20a1,1,0,0,0,0,2ZM19,6h1a1,1,0,0,0-.293-.707ZM14,1l.707-.707A1,1,0,0,0,14,0ZM5,1V1ZM3,3H3ZM2,7A1,1,0,0,0,4,7ZM14,1a1,1,0,0,0-2,0Zm1,6V7Zm4,1a1,1,0,0,0,0-2ZM4.707,11.707a1,1,0,0,0-1.414-1.414ZM1,14l-.707-.707a1,1,0,0,0,0,1.414Zm2.293,3.707a1,1,0,0,0,1.414-1.414Zm4-1.414a1,1,0,0,0,1.414,1.414ZM11,14l.707.707a1,1,0,0,0,0-1.414ZM8.707,10.293a1,1,0,0,0-1.414,1.414ZM3,22H17V20H3Zm14,0a3,3,0,0,0,2.121-.879l-1.414-1.414A1,1,0,0,1,17,20Zm2.121-.879A3,3,0,0,0,20,19H18a1,1,0,0,1-.293.707ZM20,19V6H18V19ZM19.707,5.293l-5-5L13.293,1.707l5,5ZM14,0H5V2h9ZM5,0A3,3,0,0,0,2.879.879L4.293,2.293A1,1,0,0,1,5,2ZM2.879.879A3,3,0,0,0,2,3H4a1,1,0,0,1,.293-.707ZM2,3V7H4V3ZM12,1V5h2V1Zm0,4a3,3,0,0,0,.879,2.121l1.414-1.414A1,1,0,0,1,14,5Zm.879,2.121A3,3,0,0,0,15,8V6a1,1,0,0,1-.707-.293ZM15,8h4V6H15ZM3.293,10.293l-3,3,1.414,1.414,3-3Zm-3,4.414,3,3,1.414-1.414-3-3Zm8.414,3,3-3-1.414-1.414-3,3Zm3-4.414-3-3L7.293,11.707l3,3Z" fill="#09090b"/>
</svg>
