<svg id="file-volume" xmlns="http://www.w3.org/2000/svg" width="20" height="22" viewBox="0 0 20 22">
  <path id="Vector" d="M10.8,9.4a1,1,0,1,0-1.6,1.2Zm-1.6,6a1,1,0,1,0,1.6,1.2ZM14,1a1,1,0,0,0-2,0Zm1,6V7Zm4,1a1,1,0,0,0,0-2ZM4.134,19.5a1,1,0,0,0-1.732,1ZM5,21v1H5ZM19,6h1a1,1,0,0,0-.293-.707ZM14,1l.707-.707A1,1,0,0,0,14,0ZM5,1V1ZM3,3H3ZM2,6A1,1,0,0,0,4,6ZM6,9H7a1,1,0,0,0-1.555-.832ZM3,11v1a1,1,0,0,0,.555-.168ZM1,11V10a1,1,0,0,0-1,1Zm0,4H0a1,1,0,0,0,1,1Zm2,0,.555-.832A1,1,0,0,0,3,14Zm3,2-.555.832A1,1,0,0,0,7,17Zm3.2-6.4A4,4,0,0,1,10,13h2a6,6,0,0,0-1.2-3.6ZM10,13a4,4,0,0,1-.8,2.4l1.6,1.2A6,6,0,0,0,12,13ZM12,1V5h2V1Zm0,4a3,3,0,0,0,.879,2.121l1.414-1.414A1,1,0,0,1,14,5Zm.879,2.121A3,3,0,0,0,15,8V6a1,1,0,0,1-.707-.293ZM15,8h4V6H15ZM2.4,20.5a3,3,0,0,0,1.1,1.1l1-1.732a1,1,0,0,1-.366-.366Zm1.1,1.1A3,3,0,0,0,5,22V20a1,1,0,0,1-.5-.134ZM5,22H17V20H5Zm12,0a3,3,0,0,0,2.121-.879l-1.414-1.414A1,1,0,0,1,17,20Zm2.121-.879A3,3,0,0,0,20,19H18a1,1,0,0,1-.293.707ZM20,19V6H18V19ZM19.707,5.293l-5-5L13.293,1.707l5,5ZM14,0H5V2h9ZM5,0A3,3,0,0,0,2.879.879L4.293,2.293A1,1,0,0,1,5,2ZM2.879.879A3,3,0,0,0,2,3H4a1,1,0,0,1,.293-.707ZM2,3V6H4V3ZM5.445,8.168l-3,2,1.109,1.664,3-2ZM3,10H1v2H3ZM0,11v4H2V11Zm1,5H3V14H1Zm1.445-.168,3,2,1.109-1.664-3-2ZM7,17V9H5v8Z" fill="#09090b"/>
</svg>
