<svg id="file-key" xmlns="http://www.w3.org/2000/svg" width="18" height="22" viewBox="0 0 18 22">
  <path id="Vector" d="M12,1l.707-.707A1,1,0,0,0,12,0ZM3,1V1ZM1,3H1ZM1,19H1ZM17,6h1a1,1,0,0,0-.293-.707ZM13.707,9.707a1,1,0,1,0-1.414-1.414ZM7.793,12.793a1,1,0,0,0,1.414,1.414Zm4.914-3.5a1,1,0,0,0-1.414,1.414Zm-.414,2.414a1,1,0,0,0,1.414-1.414ZM12,0H3V2h9ZM3,0A3,3,0,0,0,.879.879L2.293,2.293A1,1,0,0,1,3,2ZM.879.879A3,3,0,0,0,0,3H2a1,1,0,0,1,.293-.707ZM0,3V19H2V3ZM0,19a3,3,0,0,0,.879,2.121l1.414-1.414A1,1,0,0,1,2,19Zm.879,2.121A3,3,0,0,0,3,22V20a1,1,0,0,1-.707-.293ZM3,22H15V20H3Zm12,0a3,3,0,0,0,2.121-.879l-1.414-1.414A1,1,0,0,1,15,20Zm2.121-.879A3,3,0,0,0,18,19H16a1,1,0,0,1-.293.707ZM18,19V6H16V19ZM17.707,5.293l-5-5L11.293,1.707l5,5ZM8,15a1,1,0,0,1-1,1v2a3,3,0,0,0,3-3ZM7,16a1,1,0,0,1-1-1H4a3,3,0,0,0,3,3ZM6,15a1,1,0,0,1,1-1V12a3,3,0,0,0-3,3Zm1-1a1,1,0,0,1,1,1h2a3,3,0,0,0-3-3Zm5.293-5.707-4.5,4.5,1.414,1.414,4.5-4.5Zm-1,2.414,1,1,1.414-1.414-1-1Z" fill="#09090b"/>
</svg>
