<svg id="file-type-2" xmlns="http://www.w3.org/2000/svg" width="20" height="22" viewBox="0 0 20 22">
  <path id="Vector" d="M3,20a1,1,0,0,0,0,2ZM19,6h1a1,1,0,0,0-.293-.707ZM14,1l.707-.707A1,1,0,0,0,14,0ZM5,1V1ZM3,3H3ZM2,7A1,1,0,0,0,4,7ZM14,1a1,1,0,0,0-2,0Zm1,6V7Zm4,1a1,1,0,0,0,0-2ZM0,12a1,1,0,0,0,2,0Zm1-1V10a1,1,0,0,0-1,1Zm6,0H8a1,1,0,0,0-1-1ZM6,12a1,1,0,0,0,2,0ZM5,11a1,1,0,0,0-2,0ZM3,17a1,1,0,0,0,2,0Zm0-1a1,1,0,0,0,0,2Zm2,2a1,1,0,0,0,0-2ZM3,22H17V20H3Zm14,0a3,3,0,0,0,2.121-.879l-1.414-1.414A1,1,0,0,1,17,20Zm2.121-.879A3,3,0,0,0,20,19H18a1,1,0,0,1-.293.707ZM20,19V6H18V19ZM19.707,5.293l-5-5L13.293,1.707l5,5ZM14,0H5V2h9ZM5,0A3,3,0,0,0,2.879.879L4.293,2.293A1,1,0,0,1,5,2ZM2.879.879A3,3,0,0,0,2,3H4a1,1,0,0,1,.293-.707ZM2,3V7H4V3ZM12,1V5h2V1Zm0,4a3,3,0,0,0,.879,2.121l1.414-1.414A1,1,0,0,1,14,5Zm.879,2.121A3,3,0,0,0,15,8V6a1,1,0,0,1-.707-.293ZM15,8h4V6H15ZM2,12V11H0v1ZM1,12H7V10H1Zm5-1v1H8V11ZM3,11v6H5V11Zm0,7H5V16H3Z" fill="#09090b"/>
</svg>
