<svg id="file-heart" xmlns="http://www.w3.org/2000/svg" width="19.997" height="22" viewBox="0 0 19.997 22">
  <path id="Vector" d="M3,20a1,1,0,0,0,0,2ZM19,6h1a1,1,0,0,0-.293-.707ZM14,1,14.7.293A1,1,0,0,0,14,0ZM5,1V1ZM3,3H3ZM2,5A1,1,0,0,0,4,5ZM14,1a1,1,0,0,0-2,0Zm1,6V7Zm4,1a1,1,0,0,0,0-2ZM9.288,9.7h1a1,1,0,0,0-.293-.708Zm-2.66-.52.382.924.006,0Zm-.78.53.7.717L6.57,10.4Zm-.35.34-.7.717a1,1,0,0,0,1.394,0Zm-.35-.34-.708.706.011.011ZM2.5,9.18l.371.929.011,0Zm-.79.53.7.711,0,0Zm.2,3.74-.71.7.007.007ZM5.5,17l-.7.711a1,1,0,0,0,1.405,0Zm3.6-3.55.7.712.008-.008Zm.19-3.74h-1a1,1,0,0,0,.3.711ZM3,22H17V20H3Zm14,0a3,3,0,0,0,2.121-.879L17.7,19.707A1,1,0,0,1,17,20Zm2.121-.879A3,3,0,0,0,20,19H18a1,1,0,0,1-.293.707ZM20,19V6H18V19ZM19.7,5.293l-5-5L13.29,1.707l5,5ZM14,0H5V2h9ZM5,0A3,3,0,0,0,2.876.879L4.29,2.293A1,1,0,0,1,5,2ZM2.876.879A3,3,0,0,0,2,3H4a1,1,0,0,1,.293-.707ZM2,3V5H4V3ZM12,1V5h2V1Zm0,4a3,3,0,0,0,.879,2.121L14.29,5.707A1,1,0,0,1,14,5Zm.879,2.121A3,3,0,0,0,15,8V6a1,1,0,0,1-.707-.293ZM15,8h4V6H15Zm-5,.992a3.43,3.43,0,0,0-1.765-.939l-.384,1.963a1.43,1.43,0,0,1,.736.392ZM8.229,8.053a3.43,3.43,0,0,0-1.989.205L7.016,10.1a1.43,1.43,0,0,1,.829-.085Zm-1.983.2a3.3,3.3,0,0,0-1.12.763L6.57,10.4a1.3,1.3,0,0,1,.44-.3Zm-1.094.737-.35.34,1.394,1.435.35-.34Zm1.044.34-.35-.34L4.451,10.427l.35.34ZM5.856,9A3.43,3.43,0,0,0,4.1,8.062l-.392,1.961a1.43,1.43,0,0,1,.732.393ZM4.1,8.062a3.43,3.43,0,0,0-1.984.194L2.88,10.1a1.43,1.43,0,0,1,.827-.081Zm-1.973.189A3.338,3.338,0,0,0,1,9l1.414,1.414a1.341,1.341,0,0,1,.454-.309ZM1,9A3.58,3.58,0,0,0,1.2,14.154l1.42-1.408a1.591,1.591,0,0,1-.207-2.325Zm.2,5.162,3.59,3.55L6.2,16.289l-3.59-3.55Zm5,3.551,3.6-3.55L8.4,12.738l-3.6,3.55Zm3.608-3.558A3.579,3.579,0,0,0,9.991,9L8.584,10.421a1.59,1.59,0,0,1-.2,2.325Zm.48-4.444V9.7h-2v.01Z" transform="translate(0)" fill="#09090b"/>
</svg>
