<svg id="file-image" xmlns="http://www.w3.org/2000/svg" width="18" height="22" viewBox="0 0 18 22">
  <path id="Vector" d="M12,1l.707-.707A1,1,0,0,0,12,0ZM3,1V1ZM1,3H1ZM1,19H1ZM17,6h1a1,1,0,0,0-.293-.707ZM12,1a1,1,0,0,0-2,0Zm1,6V7Zm4,1a1,1,0,0,0,0-2Zm-.707,8.707a1,1,0,0,0,1.414-1.414Zm-.589-2L16.411,14h0ZM14,14v0Zm-1.7.706L11.589,14h0Zm-7,5.589a1,1,0,0,0,1.414,1.414ZM12,0H3V2h9ZM3,0A3,3,0,0,0,.879.879L2.293,2.293A1,1,0,0,1,3,2ZM.879.879A3,3,0,0,0,0,3H2a1,1,0,0,1,.293-.707ZM0,3V19H2V3ZM0,19a3,3,0,0,0,.879,2.121l1.414-1.414A1,1,0,0,1,2,19Zm.879,2.121A3,3,0,0,0,3,22V20a1,1,0,0,1-.707-.293ZM3,22H15V20H3Zm12,0a3,3,0,0,0,2.121-.879l-1.414-1.414A1,1,0,0,1,15,20Zm2.121-.879A3,3,0,0,0,18,19H16a1,1,0,0,1-.293.707ZM18,19V6H16V19ZM17.707,5.293l-5-5L11.293,1.707l5,5ZM10,1V5h2V1Zm0,4a3,3,0,0,0,.879,2.121l1.414-1.414A1,1,0,0,1,12,5Zm.879,2.121A3,3,0,0,0,13,8V6a1,1,0,0,1-.707-.293ZM13,8h4V6H13ZM8,11a1,1,0,0,1-1,1v2a3,3,0,0,0,3-3ZM7,12a1,1,0,0,1-1-1H4a3,3,0,0,0,3,3ZM6,11a1,1,0,0,1,1-1V8a3,3,0,0,0-3,3Zm1-1a1,1,0,0,1,1,1h2A3,3,0,0,0,7,8Zm10.707,5.293-1.3-1.3L15,15.411l1.3,1.3Zm-1.3-1.3A3.41,3.41,0,0,0,14,13v2a1.41,1.41,0,0,1,1,.413ZM14,13a3.41,3.41,0,0,0-2.411,1L13,15.411A1.41,1.41,0,0,1,14,15Zm-2.411,1-6.3,6.3,1.414,1.414,6.3-6.3Z" fill="#09090b"/>
</svg>
