<svg id="film" xmlns="http://www.w3.org/2000/svg" width="20" height="20" viewBox="0 0 20 20">
  <path id="Vector" d="M6,1A1,1,0,0,0,4,1ZM4,19a1,1,0,0,0,2,0ZM1,4.5a1,1,0,0,0,0,2Zm4,2a1,1,0,0,0,0-2ZM1,9a1,1,0,0,0,0,2Zm18,2a1,1,0,0,0,0-2ZM1,13.5a1,1,0,0,0,0,2Zm4,2a1,1,0,0,0,0-2ZM16,1a1,1,0,0,0-2,0ZM14,19a1,1,0,0,0,2,0ZM15,4.5a1,1,0,0,0,0,2Zm4,2a1,1,0,0,0,0-2Zm-4,7a1,1,0,0,0,0,2Zm4,2a1,1,0,0,0,0-2ZM3,2H17V0H3ZM17,2a1,1,0,0,1,1,1h2a3,3,0,0,0-3-3Zm1,1V17h2V3Zm0,14a1,1,0,0,1-1,1v2a3,3,0,0,0,3-3Zm-1,1H3v2H17ZM3,18a1,1,0,0,1-1-1H0a3,3,0,0,0,3,3ZM2,17V3H0V17ZM2,3A1,1,0,0,1,3,2V0A3,3,0,0,0,0,3ZM4,1V19H6V1ZM1,6.5H5v-2H1ZM1,11H19V9H1Zm0,4.5H5v-2H1ZM14,1V19h2V1Zm1,5.5h4v-2H15Zm0,9h4v-2H15Z" fill="#09090b"/>
</svg>
