<svg id="filter-x" xmlns="http://www.w3.org/2000/svg" width="22" height="20" viewBox="0 0 22 20">
  <path id="Vector" d="M12.013,2a1,1,0,0,0,0-2ZM1,1V0A1,1,0,0,0,.236,1.646Zm8,9.46h1a1,1,0,0,0-.236-.646ZM9,17H8a1,1,0,0,0,.553.894Zm4,2-.447.894A1,1,0,0,0,14,19Zm0-8.54-.761-.649A1,1,0,0,0,12,10.46Zm1.661-.406a1,1,0,0,0-1.522-1.3Zm7.046-8.347A1,1,0,1,0,20.293.293ZM15.293,5.293a1,1,0,0,0,1.414,1.414Zm1.414-5a1,1,0,0,0-1.414,1.414Zm3.586,6.414a1,1,0,0,0,1.414-1.414ZM12.013,0H1V2H12.013ZM.236,1.646l8,9.46L9.764,9.814l-8-9.46ZM8,10.46V17h2V10.46Zm.553,7.434,4,2,.894-1.789-4-2ZM14,19V10.46H12V19Zm-.239-7.891.9-1.055-1.522-1.3-.9,1.055ZM20.293.293l-5,5,1.414,1.414,5-5Zm-5,1.414,5,5,1.414-1.414-5-5Z" transform="translate(0)" fill="#09090b"/>
</svg>
