<svg id="fish" xmlns="http://www.w3.org/2000/svg" width="22.001" height="20" viewBox="0 0 22.001 20">
  <path id="Vector" d="M5.5,10l-.965-.262a1,1,0,0,0,0,.524ZM21,10l.965.261a1,1,0,0,0,0-.524Zm-3,0a1,1,0,0,0-2,0Zm-2,.5a1,1,0,0,0,2,0Zm-1.795,6.037a1,1,0,0,0,1.59-1.214ZM13,10h0Zm2.8-5.323a1,1,0,0,0-1.59-1.214ZM5,8.67a1,1,0,0,0,2,0ZM1.731,3.5l.163-.987A1,1,0,0,0,.9,2.945Zm.23,6.5.771.637a1,1,0,0,0,0-1.271Zm-.23,6.5L.9,17.059a1,1,0,0,0,.992.428ZM7,11.33a1,1,0,1,0-2,0ZM8.478,5.445a1,1,0,0,0,1.965-.37ZM7,1V0a1,1,0,0,0-.727,1.686Zm5.8,0V2h0Zm1.98,1.67.987-.162v0Zm-.757,1.562A1,1,0,1,0,16,3.908ZM16,16.092a1,1,0,1,0-1.974-.324ZM14.781,17.33l.986.165v0ZM12.8,19l0-1h0ZM8.5,19l-.75-.661A1,1,0,0,0,8.5,20Zm2.49-3.986a1,1,0,1,0-2,.013ZM6.466,10.262A6.889,6.889,0,0,1,9.333,6.528,8.527,8.527,0,0,1,14,5V3A10.522,10.522,0,0,0,8.2,4.877,8.876,8.876,0,0,0,4.536,9.738ZM14,5c2.982,0,5.177,2.1,6.035,5.262l1.93-.524C20.944,5.978,18.139,3,14,3Zm6.035,4.739C19.178,12.906,16.984,15,14,15v2c4.136,0,6.943-2.966,7.965-6.739ZM14,15a8.532,8.532,0,0,1-4.669-1.525A6.875,6.875,0,0,1,6.466,9.739l-1.93.523A8.863,8.863,0,0,0,8.2,15.127,10.528,10.528,0,0,0,14,17Zm2-5v.5h2V10ZM15.8,15.323A8.77,8.77,0,0,1,14,10H12a10.77,10.77,0,0,0,2.211,6.537ZM14,10a8.77,8.77,0,0,1,1.8-5.323l-1.59-1.214A10.77,10.77,0,0,0,12,10ZM7,8.67A6.4,6.4,0,0,0,5.719,4.64,5.959,5.959,0,0,0,1.894,2.513L1.568,4.487A3.97,3.97,0,0,1,4.15,5.88,4.412,4.412,0,0,1,5,8.67ZM.9,2.945A6.95,6.95,0,0,0,.01,6.773a6.505,6.505,0,0,0,1.178,3.861L2.734,9.366a4.608,4.608,0,0,1-.725-2.639,5.063,5.063,0,0,1,.554-2.672ZM1.19,9.363A6.473,6.473,0,0,0,0,13.227a6.9,6.9,0,0,0,.9,3.832L2.56,15.942A5.016,5.016,0,0,1,2,13.273a4.573,4.573,0,0,1,.73-2.636Zm.7,8.124A5.959,5.959,0,0,0,5.719,15.36,6.4,6.4,0,0,0,7,11.33H5a4.413,4.413,0,0,1-.851,2.79,3.969,3.969,0,0,1-2.582,1.393Zm8.55-12.412A10.5,10.5,0,0,0,7.728.314L6.274,1.686a8.59,8.59,0,0,1,2.2,3.759ZM7,2h5.8V0H7Zm5.8,0a1,1,0,0,1,.648.236L14.743.707A3,3,0,0,0,12.8,0Zm.648.236a1,1,0,0,1,.342.6l1.973-.33a3,3,0,0,0-1.025-1.8Zm.341.6.23,1.4L16,3.908l-.23-1.4Zm.23,12.936-.23,1.4,1.974.324.23-1.4Zm-.23,1.4a1,1,0,0,1-.342.6l1.29,1.529a3,3,0,0,0,1.025-1.8Zm-.342.6A1,1,0,0,1,12.8,18L12.8,20a3,3,0,0,0,1.945-.707ZM12.8,18H8.5v2h4.3Zm-3.55,1.662a6.96,6.96,0,0,0,1.74-4.648l-2,.013a4.96,4.96,0,0,1-1.24,3.312Z" transform="translate(0 0)" fill="#09090b"/>
</svg>
