<svg id="fish-off" xmlns="http://www.w3.org/2000/svg" width="22.001" height="22" viewBox="0 0 22.001 22">
  <path id="Vector" d="M16,11.5a1,1,0,0,0,2,0Zm2-.5a1,1,0,0,0-2,0Zm-1.107,6.456a1,1,0,1,0-.737-1.859ZM14,17l.006-1H14ZM5.5,11l-.965-.262a1,1,0,0,0,0,.524ZM8.307,8.348a1,1,0,0,0-1.37-1.457Zm2.416-3.756a1,1,0,1,0,.685,1.879ZM14,5V4h-.009Zm7,6,.965.262a1,1,0,0,0,0-.524Zm-2.228,2.478a1,1,0,0,0,1.629,1.16ZM5,9.67a1,1,0,1,0,2,0ZM1.731,4.5l.163-.987A1,1,0,0,0,.9,3.945Zm.23,6.5.771.637a1,1,0,0,0,0-1.271Zm-.23,6.5L.9,18.059a1,1,0,0,0,.992.428ZM7,12.33a1,1,0,1,0-2,0Zm5.53-4.683a1,1,0,1,0,1.9.623ZM15.8,5.677a1,1,0,0,0-1.589-1.214Zm-1.59,11.86a1,1,0,0,0,1.59-1.214Zm.038-4.462a1,1,0,1,0-1.943.473ZM16,17.092a1,1,0,1,0-1.974-.324ZM14.781,18.33l.986.165v0ZM12.8,20l0-1h0ZM8.5,20l-.75-.661A1,1,0,0,0,8.5,21Zm2.49-3.986a1,1,0,1,0-2,.013ZM7.531,1a1,1,0,0,0,0,2ZM12.8,2V3h0Zm1.98,1.67.987-.162v0Zm-.757,1.562A1,1,0,1,0,16,4.908ZM1.708.293A1,1,0,0,0,.294,1.707ZM20.294,21.707a1,1,0,1,0,1.414-1.414ZM16.158,15.6a5.743,5.743,0,0,1-2.151.4l-.012,2a7.746,7.746,0,0,0,2.9-.544ZM14,16a8.532,8.532,0,0,1-4.669-1.525,6.875,6.875,0,0,1-2.866-3.737l-1.93.523A8.863,8.863,0,0,0,8.2,16.127,10.528,10.528,0,0,0,14,18ZM6.466,11.262A6.36,6.36,0,0,1,8.307,8.348L6.937,6.892a8.353,8.353,0,0,0-2.4,3.846Zm4.943-4.791A7.8,7.8,0,0,1,14.01,6l-.018-2a9.8,9.8,0,0,0-3.268.592ZM14,6c2.982,0,5.177,2.1,6.035,5.262l1.93-.524C20.944,6.978,18.139,4,14,4Zm6.035,4.738a8.593,8.593,0,0,1-1.263,2.74l1.629,1.16a10.588,10.588,0,0,0,1.563-3.376ZM7,9.67A6.4,6.4,0,0,0,5.719,5.64,5.959,5.959,0,0,0,1.894,3.513L1.568,5.487A3.97,3.97,0,0,1,4.15,6.88,4.412,4.412,0,0,1,5,9.67ZM.9,3.945A6.95,6.95,0,0,0,.01,7.773a6.506,6.506,0,0,0,1.178,3.861l1.547-1.268a4.608,4.608,0,0,1-.725-2.639,5.063,5.063,0,0,1,.554-2.672Zm.291,6.418A6.473,6.473,0,0,0,0,14.227a6.9,6.9,0,0,0,.9,3.832L2.56,16.941A5.016,5.016,0,0,1,2,14.273a4.573,4.573,0,0,1,.73-2.636Zm.7,8.124A5.959,5.959,0,0,0,5.719,16.36,6.4,6.4,0,0,0,7,12.33H5a4.413,4.413,0,0,1-.851,2.79,3.969,3.969,0,0,1-2.582,1.393ZM14.431,8.269A8.77,8.77,0,0,1,15.8,5.677L14.206,4.463a10.77,10.77,0,0,0-1.676,3.184ZM15.8,16.323a8.769,8.769,0,0,1-1.551-3.248l-1.943.473a10.771,10.771,0,0,0,1.9,3.988Zm-1.771.445-.23,1.4,1.974.324.23-1.4Zm-.23,1.4a1,1,0,0,1-.342.6l1.29,1.529a3,3,0,0,0,1.025-1.8Zm-.342.6A1,1,0,0,1,12.8,19L12.8,21a3,3,0,0,0,1.945-.707ZM12.8,19H8.5v2h4.3Zm-3.55,1.662a6.96,6.96,0,0,0,1.74-4.648l-2,.013a4.96,4.96,0,0,1-1.24,3.312ZM7.531,3H12.8V1H7.531ZM12.8,3a1,1,0,0,1,.648.236l1.29-1.529A3,3,0,0,0,12.8,1Zm.648.236a1,1,0,0,1,.342.6l1.973-.33a3,3,0,0,0-1.025-1.8Zm.341.6.23,1.4L16,4.908l-.23-1.4ZM.294,1.707l20,20,1.414-1.414-20-20ZM16,11v.5h2V11Z" transform="translate(0)" fill="#09090b"/>
</svg>
