<svg id="flag-off" xmlns="http://www.w3.org/2000/svg" width="22" height="22" viewBox="0 0 22 22">
  <path id="Vector" d="M7,0A1,1,0,0,0,7,2ZM19,2h1a1,1,0,0,0-1.707-.707ZM18,13a1,1,0,0,0,2,0ZM2,21a1,1,0,0,0,2,0ZM4,3A1,1,0,0,0,2,3ZM2.293,13.293a1,1,0,0,0,1.414,1.414ZM15,16a1,1,0,0,0,0-2ZM1.707.293A1,1,0,0,0,.293,1.707ZM20.293,21.707a1,1,0,0,0,1.414-1.414ZM7,2a9.544,9.544,0,0,1,3.629.928A11.428,11.428,0,0,0,15,4V2a9.544,9.544,0,0,1-3.629-.928A11.428,11.428,0,0,0,7,0Zm8,2a9.4,9.4,0,0,0,3.5-.572,4.664,4.664,0,0,0,.855-.44,2.907,2.907,0,0,0,.235-.173c.029-.024.054-.046.074-.064l.027-.025.011-.01,0,0,0,0h0s0,0-.706-.708-.707-.708-.706-.708h0l0,0,0,0,.006-.006.009-.008s0,0,0,0-.031.025-.073.053a2.682,2.682,0,0,1-.489.247A7.442,7.442,0,0,1,15,2Zm3-2V13h2V2ZM4,21V3H2V21ZM3,14c.707.707.707.708.706.708h0l0,0,0,0-.006.006-.009.008s0,0,0,0,.031-.025.073-.053a2.685,2.685,0,0,1,.489-.247A7.441,7.441,0,0,1,7,14V12a9.4,9.4,0,0,0-3.5.571,4.659,4.659,0,0,0-.855.44c-.1.066-.177.125-.235.173-.029.024-.054.046-.074.064l-.027.025-.011.01,0,0,0,0h0s0,0,.706.708Zm4,0a9.543,9.543,0,0,1,3.629.929A11.429,11.429,0,0,0,15,16V14a9.543,9.543,0,0,1-3.629-.929A11.429,11.429,0,0,0,7,12ZM.293,1.707l20,20,1.414-1.414-20-20Z" transform="translate(0)" fill="#09090b"/>
</svg>
