<svg id="flame-kindling" xmlns="http://www.w3.org/2000/svg" width="16" height="22" viewBox="0 0 16 22">
  <path id="Vector" d="M8,1,8.949.684A1,1,0,0,0,8,0Zm3.5,4.5-.707.707.007.007ZM13,9h1s0-.009,0-.014ZM8,14v0ZM3,9H3Zm.1-.9.962-.275a1,1,0,0,0-1.91-.041Zm3.3-2-.735.678q.022.024.046.047ZM.726,20.038a1,1,0,1,0,.549,1.923Zm14.549-2.077a1,1,0,1,0-.549-1.923Zm-14-1.923a1,1,0,1,0-.549,1.923Zm13.451,5.923a1,1,0,1,0,.549-1.923ZM7.052,1.316c1.1,3.3,2.964,4.113,3.742,4.891l1.414-1.414C10.985,3.57,9.849,3.385,8.949.684Zm3.749,4.9a4,4,0,0,1,1.2,2.8l2-.028a6,6,0,0,0-1.8-4.2ZM12,9a4,4,0,0,1-1.172,2.828l1.414,1.414A6,6,0,0,0,14,9Zm-1.172,2.828A4,4,0,0,1,8,13v2a6,6,0,0,0,4.243-1.757ZM8,13a4,4,0,0,1-2.828-1.172L3.758,13.243A6,6,0,0,0,8,15ZM5.172,11.828A4,4,0,0,1,4,9H2a6,6,0,0,0,1.757,4.243ZM4,9a1.883,1.883,0,0,1,.049-.584l-1.9-.632A3.716,3.716,0,0,0,2,9ZM2.139,8.375A3,3,0,0,0,2.8,9.568l1.48-1.345a1,1,0,0,1-.221-.4ZM2.8,9.568a3,3,0,0,0,1.125.775l.73-1.862a1,1,0,0,1-.375-.258Zm1.125.775a3,3,0,0,0,1.352.2L5.109,8.547a1,1,0,0,1-.451-.065Zm1.352.2a3,3,0,0,0,1.3-.423L5.542,8.406a1,1,0,0,1-.433.141Zm1.3-.423a3,3,0,0,0,.976-.955L5.867,8.087a1,1,0,0,1-.325.318Zm.976-.955a3,3,0,0,0,.452-1.289L6.018,7.658a1,1,0,0,1-.151.43Zm.452-1.289a3,3,0,0,0-.167-1.356l-1.877.69a1,1,0,0,1,.056.452ZM7.839,6.516a3,3,0,0,0-.751-1.141L5.712,6.825a1,1,0,0,1,.25.38Zm-.7-1.094a2.11,2.11,0,0,1-.64-1.283,1.785,1.785,0,0,1,.286-1.046,2.965,2.965,0,0,1,.792-.848C7.905,2.007,8.068,2,8,2V0A2.933,2.933,0,0,0,6.409.618,4.964,4.964,0,0,0,5.07,2.057,3.778,3.778,0,0,0,4.5,4.274a4.089,4.089,0,0,0,1.166,2.5Zm-5.86,16.54,14-4-.549-1.923-14,4Zm-.549-4,14,4,.549-1.923-14-4Z" transform="translate(0)" fill="#09090b"/>
</svg>
