<svg id="flame" xmlns="http://www.w3.org/2000/svg" width="16" height="21" viewBox="0 0 16 21">
  <path id="Vector" d="M4.5,12.5v0ZM6,7l.894-.447h0ZM8,1,8.981.8A1,1,0,0,0,7.342.247Zm7,12h0ZM1,13H1Zm1-3H3a1,1,0,0,0-1.78-.626Zm2.5,3.5a3.5,3.5,0,0,0,2.475-1.025L5.561,11.061A1.5,1.5,0,0,1,4.5,11.5Zm2.475-1.025A3.5,3.5,0,0,0,8,10H6a1.5,1.5,0,0,1-.439,1.061ZM8,10A6.61,6.61,0,0,0,6.894,6.553l-1.789.894A4.805,4.805,0,0,1,6,10ZM6.894,6.553A2.753,2.753,0,0,1,6.7,4.265,6.5,6.5,0,0,1,8.659,1.753L7.342.247a8.431,8.431,0,0,0-2.518,3.34,4.746,4.746,0,0,0,.283,3.86ZM7.019,1.2a12.428,12.428,0,0,0,4.356,7.085l1.249-1.562A10.429,10.429,0,0,1,8.981.8Zm4.356,7.085A6.063,6.063,0,0,1,14,13h2a8.044,8.044,0,0,0-3.375-6.281ZM14,13a6,6,0,0,1-.457,2.3l1.848.765A8,8,0,0,0,16,13Zm-.457,2.3a6,6,0,0,1-1.3,1.947l1.414,1.414a8,8,0,0,0,1.734-2.6Zm-1.3,1.947a6,6,0,0,1-1.946,1.3l.765,1.848a8,8,0,0,0,2.6-1.734Zm-1.947,1.3A6,6,0,0,1,8,19v2a8,8,0,0,0,3.062-.609ZM8,19a6,6,0,0,1-2.3-.457l-.765,1.848A8,8,0,0,0,8,21Zm-2.3-.457a6,6,0,0,1-1.947-1.3L2.343,18.657a8,8,0,0,0,2.6,1.734Zm-1.947-1.3a6,6,0,0,1-1.3-1.946l-1.848.765a8,8,0,0,0,1.734,2.6ZM2.457,15.3A6,6,0,0,1,2,13H0a8,8,0,0,0,.609,3.061ZM2,13a4.027,4.027,0,0,1,.78-2.374L1.22,9.374A6.014,6.014,0,0,0,0,13ZM1,10a3.5,3.5,0,0,0,1.025,2.475l1.414-1.414A1.5,1.5,0,0,1,3,10Zm1.025,2.475A3.5,3.5,0,0,0,4.5,13.5v-2a1.5,1.5,0,0,1-1.061-.439Z" transform="translate(0 0)" fill="#09090b"/>
</svg>
