<svg id="flip-vertical-2" xmlns="http://www.w3.org/2000/svg" width="22" height="20" viewBox="0 0 22 20">
  <path id="Vector" d="M16,1l.707.707A1,1,0,0,0,16,0ZM11,6l-.707.707a1,1,0,0,0,1.414,0ZM6,1V0a1,1,0,0,0-.707,1.707ZM16,19v1a1,1,0,0,0,.707-1.707Zm-5-5,.707-.707a1,1,0,0,0-1.414,0ZM6,19l-.707-.707A1,1,0,0,0,6,20ZM3,11A1,1,0,0,0,3,9ZM1,9a1,1,0,0,0,0,2Zm8,2A1,1,0,0,0,9,9ZM7,9a1,1,0,0,0,0,2Zm8,2a1,1,0,0,0,0-2ZM13,9a1,1,0,0,0,0,2Zm8,2a1,1,0,0,0,0-2ZM19,9a1,1,0,0,0,0,2ZM15.293.293l-5,5,1.414,1.414,5-5Zm-3.586,5-5-5L5.293,1.707l5,5ZM6,2H16V0H6ZM16.707,18.293l-5-5-1.414,1.414,5,5Zm-6.414-5-5,5,1.414,1.414,5-5ZM6,20H16V18H6ZM3,9H1v2H3ZM9,9H7v2H9Zm6,0H13v2h2Zm6,0H19v2h2Z" transform="translate(0 0)" fill="#09090b"/>
</svg>
