<svg id="flower-2" xmlns="http://www.w3.org/2000/svg" width="16" height="22" viewBox="0 0 16 22">
  <path id="Vector" d="M8,10H8Zm7,6h1a1,1,0,0,0-1-1ZM1,16V15a1,1,0,0,0-1,1ZM9,4a2,2,0,0,1,.337-1.111L7.674,1.778A4,4,0,0,0,7,4Zm.337-1.111a2,2,0,0,1,.9-.737L9.469.3a4,4,0,0,0-1.8,1.473Zm.9-.737a2,2,0,0,1,1.156-.114L11.78.077A4,4,0,0,0,9.469.3Zm1.156-.114a2,2,0,0,1,1.024.547l1.414-1.414A4,4,0,0,0,11.78.077Zm1.024.547a2,2,0,0,1,.547,1.024l1.962-.39a4,4,0,0,0-1.095-2.048Zm.547,1.024a2,2,0,0,1-.114,1.156l1.848.765a4,4,0,0,0,.228-2.311Zm-.114,1.156a2,2,0,0,1-.737.9l1.111,1.663a4,4,0,0,0,1.473-1.8Zm-.737.9A2,2,0,0,1,11,6V8a4,4,0,0,0,2.222-.674ZM9,4a4,4,0,0,0-.674-2.222L6.663,2.889A2,2,0,0,1,7,4ZM8.326,1.778A4,4,0,0,0,6.531.3L5.765,2.152a2,2,0,0,1,.9.737ZM6.531.3A4,4,0,0,0,4.22.077l.39,1.962a2,2,0,0,1,1.156.114ZM4.22.077A4,4,0,0,0,2.172,1.172L3.586,2.586A2,2,0,0,1,4.61,2.038ZM2.172,1.172A4,4,0,0,0,1.077,3.22l1.962.39a2,2,0,0,1,.547-1.024ZM1.077,3.22A4,4,0,0,0,1.3,5.531l1.848-.765A2,2,0,0,1,3.038,3.61ZM1.3,5.531a4,4,0,0,0,1.473,1.8L3.889,5.663a2,2,0,0,1-.737-.9Zm1.473,1.8A4,4,0,0,0,5,8V6a2,2,0,0,1-1.111-.337ZM7,4V5H9V4ZM5,6a4,4,0,0,0-2.222.674L3.889,8.337A2,2,0,0,1,5,8Zm-2.222.674A4,4,0,0,0,1.3,8.469l1.848.765a2,2,0,0,1,.737-.9ZM1.3,8.469a4,4,0,0,0-.228,2.311l1.962-.39a2,2,0,0,1,.114-1.156ZM1.077,10.78a4,4,0,0,0,1.095,2.048l1.414-1.414a2,2,0,0,1-.547-1.024Zm1.095,2.048A4,4,0,0,0,4.22,13.923l.39-1.962a2,2,0,0,1-1.024-.547ZM4.22,13.923A4,4,0,0,0,6.531,13.7l-.765-1.848a2,2,0,0,1-1.156.114ZM6.531,13.7a4,4,0,0,0,1.8-1.473L6.663,11.111a2,2,0,0,1-.9.737Zm1.8-1.473A4,4,0,0,0,9,10H7a2,2,0,0,1-.337,1.111ZM5,8H6V6H5Zm6,0a2,2,0,0,1,1.111.337l1.111-1.663A4,4,0,0,0,11,6Zm1.111.337a2,2,0,0,1,.737.9L14.7,8.469a4,4,0,0,0-1.473-1.8Zm.737.9a2,2,0,0,1,.114,1.156l1.962.39A4,4,0,0,0,14.7,8.469Zm.114,1.156a2,2,0,0,1-.547,1.024l1.414,1.414a4,4,0,0,0,1.095-2.048Zm-.547,1.024a2,2,0,0,1-1.024.547l.39,1.962a4,4,0,0,0,2.048-1.095Zm-1.024.547a2,2,0,0,1-1.156-.114L9.469,13.7a4,4,0,0,0,2.311.228Zm-1.156-.114a2,2,0,0,1-.9-.737L7.674,12.222a4,4,0,0,0,1.8,1.473Zm-.9-.737A2,2,0,0,1,9,10H7a4,4,0,0,0,.674,2.222ZM11,6H10V8h1ZM9,10V9H7v1ZM9,7A1,1,0,0,1,8,8v2a3,3,0,0,0,3-3ZM8,8A1,1,0,0,1,7,7H5a3,3,0,0,0,3,3ZM7,7A1,1,0,0,1,8,6V4A3,3,0,0,0,5,7ZM8,6A1,1,0,0,1,9,7h2A3,3,0,0,0,8,4ZM7,9V21H9V9ZM8,22a10.031,10.031,0,0,0,5.637-1.423A5.3,5.3,0,0,0,16,16H14a3.3,3.3,0,0,1-1.488,2.923A8.092,8.092,0,0,1,8,20Zm7-7a10.031,10.031,0,0,0-5.637,1.423A5.3,5.3,0,0,0,7,21H9a3.3,3.3,0,0,1,1.487-2.923A8.093,8.093,0,0,1,15,17ZM8,20a8.092,8.092,0,0,1-4.513-1.077A3.3,3.3,0,0,1,2,16H0a5.3,5.3,0,0,0,2.363,4.577A10.031,10.031,0,0,0,8,22ZM1,17a8.092,8.092,0,0,1,4.513,1.077A3.3,3.3,0,0,1,7,21H9a5.3,5.3,0,0,0-2.363-4.577A10.031,10.031,0,0,0,1,15Z" transform="translate(0 0)" fill="#09090b"/>
</svg>
