<svg id="folder-dot" xmlns="http://www.w3.org/2000/svg" width="22" height="19" viewBox="0 0 22 19">
  <path id="Vector" d="M19,4V4ZM11.07,4l-.005,1h.005ZM9.41,3.1l.835-.55-.01-.014ZM8.59,1.9l-.835.55.01.014ZM6.93,1l.005-1H6.93ZM3,1V1ZM1,3H1ZM3,19H19V17H3Zm16,0a3,3,0,0,0,2.121-.879l-1.414-1.414A1,1,0,0,1,19,17Zm2.121-.879A3,3,0,0,0,22,16H20a1,1,0,0,1-.293.707ZM22,16V6H20V16ZM22,6a3,3,0,0,0-.879-2.121L19.707,5.293A1,1,0,0,1,20,6Zm-.879-2.121A3,3,0,0,0,19,3V5a1,1,0,0,1,.707.293ZM19,3H11.07V5H19ZM11.075,3a1,1,0,0,1-.471-.121L9.65,4.637A3,3,0,0,0,11.065,5ZM10.6,2.879a1,1,0,0,1-.359-.329l-1.67,1.1a3,3,0,0,0,1.076.987Zm-.368-.343-.82-1.2L7.764,2.464l.82,1.2ZM9.425,1.35A3,3,0,0,0,8.35.363L7.4,2.121a1,1,0,0,1,.359.329ZM8.35.363A3,3,0,0,0,6.935,0l-.01,2a1,1,0,0,1,.471.121ZM6.93,0H3V2H6.93ZM3,0A3,3,0,0,0,.879.879L2.293,2.293A1,1,0,0,1,3,2ZM.879.879A3,3,0,0,0,0,3H2a1,1,0,0,1,.293-.707ZM0,3V16H2V3ZM0,16a3.006,3.006,0,0,0,3,3V17a1.006,1.006,0,0,1-1-1Zm11-5v2a2,2,0,0,0,2-2Zm0,0H9a2,2,0,0,0,2,2Zm0,0V9a2,2,0,0,0-2,2Zm0,0h2a2,2,0,0,0-2-2Z" fill="#09090b"/>
</svg>
