<svg id="folder-clock" xmlns="http://www.w3.org/2000/svg" width="22" height="21" viewBox="0 0 22 21">
  <path id="Vector" d="M6,19a1,1,0,0,0,0-2ZM1,16H1ZM3,1V1ZM6.9,1V2h.01Zm1.69.9-.835.55.006.009ZM9.4,3.1l.835-.55-.006-.009Zm1.67.9V5h0ZM19,4V4Zm1,2a1,1,0,0,0,2,0Zm-4,6a1,1,0,0,0-2,0Zm-1,2H14a1,1,0,0,0,.293.707Zm.293,1.707a1,1,0,0,0,1.414-1.414ZM20,14a5,5,0,0,1-5,5v2a7,7,0,0,0,7-7Zm-5,5a5,5,0,0,1-5-5H8a7,7,0,0,0,7,7Zm-5-5a5,5,0,0,1,5-5V7a7,7,0,0,0-7,7Zm5-5a5,5,0,0,1,5,5h2a7,7,0,0,0-7-7ZM6,17H3v2H6ZM3,17a1,1,0,0,1-.707-.293L.879,18.121A3,3,0,0,0,3,19Zm-.707-.293A1,1,0,0,1,2,16H0a3,3,0,0,0,.879,2.121ZM2,16V3H0V16ZM2,3a1,1,0,0,1,.293-.707L.879.879A3,3,0,0,0,0,3Zm.293-.707A1,1,0,0,1,3,2V0A3,3,0,0,0,.879.879ZM3,2H6.9V0H3ZM6.91,2a1,1,0,0,1,.48.117L8.33.352A3,3,0,0,0,6.89,0Zm.48.117a1,1,0,0,1,.365.333l1.67-1.1a3,3,0,0,0-1.1-1Zm.372.342.81,1.2,1.658-1.119-.81-1.2Zm.8,1.191a3,3,0,0,0,1.082.991L10.6,2.88a1,1,0,0,1-.361-.33Zm1.082.991A3,3,0,0,0,11.07,5V3a1,1,0,0,1-.474-.12ZM11.07,5H19V3H11.07ZM19,5a1,1,0,0,1,.707.293l1.414-1.414A3,3,0,0,0,19,3Zm.707.293A1,1,0,0,1,20,6h2a3,3,0,0,0-.879-2.121ZM14,12v2h2V12Zm.293,2.707,1,1,1.414-1.414-1-1Z" transform="translate(0 0)" fill="#09090b"/>
</svg>
