<svg id="folder-open-dot" xmlns="http://www.w3.org/2000/svg" width="22.003" height="19" viewBox="0 0 22.003 19">
  <path id="Vector" d="M4.106,11.553a1,1,0,0,0,1.789.894ZM6.45,9.1l-.893-.45v0ZM8.24,8l0,1h0ZM19,8V9h0Zm1.94,2.5.968.25h0Zm-1.55,6-.968-.25h0ZM17.45,18l0-1h0ZM1,16H1ZM6.93,1l.005-1H6.93Zm1.66.9-.835.55.01.014Zm.82,1.2.835-.55-.01-.014Zm1.66.9-.005,1h.005ZM17,4V4ZM5.894,12.447l1.45-2.9L5.556,8.653l-1.45,2.9Zm1.449-2.9a1,1,0,0,1,.369-.4l-1.047-1.7A3,3,0,0,0,5.557,8.65Zm.369-.4A1,1,0,0,1,8.238,9l0-2a3,3,0,0,0-1.577.444ZM8.24,9H19V7H8.24ZM19,9a1,1,0,0,1,.441.1l.878-1.8A3,3,0,0,0,19,7Zm.441.1a1,1,0,0,1,.351.285l1.58-1.226A3,3,0,0,0,20.321,7.3Zm.351.285a1,1,0,0,1,.189.411l1.959-.4a3,3,0,0,0-.568-1.233Zm.189.411a1,1,0,0,1-.011.452l1.936.5a3,3,0,0,0,.033-1.357Zm-.011.452-1.55,6,1.936.5,1.55-6Zm-1.55,6a1,1,0,0,1-.357.541l1.223,1.582a3,3,0,0,0,1.07-1.623Zm-.357.541a1,1,0,0,1-.613.209l0,2a3,3,0,0,0,1.84-.627ZM17.45,17H3v2H17.45ZM3,17a1,1,0,0,1-.707-.293L.879,18.121A3,3,0,0,0,3,19Zm-.707-.293A1,1,0,0,1,2,16H0a3,3,0,0,0,.879,2.121ZM2,16V3H0V16ZM2,3A1.006,1.006,0,0,1,3,2V0A3.006,3.006,0,0,0,0,3ZM3,2H6.93V0H3ZM6.925,2a1,1,0,0,1,.471.121L8.35.363A3,3,0,0,0,6.935,0Zm.471.121a1,1,0,0,1,.359.329l1.67-1.1A3,3,0,0,0,8.35.363Zm.368.343.82,1.2,1.651-1.128-.82-1.2Zm.81,1.186a3,3,0,0,0,1.076.987L10.6,2.879a1,1,0,0,1-.359-.329Zm1.076.987A3,3,0,0,0,11.065,5l.01-2a1,1,0,0,1-.471-.121ZM11.07,5H17V3H11.07ZM17,5a1,1,0,0,1,.707.293l1.414-1.414A3,3,0,0,0,17,3Zm.707.293A1,1,0,0,1,18,6h2a3,3,0,0,0-.879-2.121ZM18,6V8h2V6Zm-5,7v2a2,2,0,0,0,2-2Zm0,0H11a2,2,0,0,0,2,2Zm0,0V11a2,2,0,0,0-2,2Zm0,0h2a2,2,0,0,0-2-2Z" fill="#09090b"/>
</svg>
