<svg id="folders" xmlns="http://www.w3.org/2000/svg" width="22" height="19" viewBox="0 0 22 19">
  <path id="Vector" d="M19,4V4ZM15.1,4V3h-.01Zm-1.69-.9.835-.55-.007-.009ZM12.6,1.9l-.835.55.006.009ZM10.93,1V0h0ZM7,1V1ZM5,3H5Zm0,9H5ZM2,5A1,1,0,0,0,0,5ZM1,16H1Zm16,3a1,1,0,0,0,0-2Zm2-4a3,3,0,0,0,2.121-.879l-1.414-1.414A1,1,0,0,1,19,13Zm2.121-.879A3,3,0,0,0,22,12H20a1,1,0,0,1-.293.707ZM22,12V6H20v6Zm0-6a3,3,0,0,0-.879-2.121L19.707,5.293A1,1,0,0,1,20,6Zm-.879-2.121A3,3,0,0,0,19,3V5a1,1,0,0,1,.707.293ZM19,3H15.1V5H19ZM15.09,3a1,1,0,0,1-.48-.117l-.94,1.765A3,3,0,0,0,15.11,5Zm-.48-.117a1,1,0,0,1-.365-.333l-1.67,1.1a3,3,0,0,0,1.1,1Zm-.372-.342-.81-1.2L11.771,2.459l.81,1.2Zm-.8-1.191A3,3,0,0,0,12.353.359L11.4,2.12a1,1,0,0,1,.361.33ZM12.353.359A3,3,0,0,0,10.93,0V2a1,1,0,0,1,.474.12ZM10.93,0H7V2h3.93ZM7,0A3,3,0,0,0,4.879.879L6.293,2.293A1,1,0,0,1,7,2ZM4.879.879A3,3,0,0,0,4,3H6a1,1,0,0,1,.293-.707ZM4,3v9H6V3Zm0,9a3,3,0,0,0,.879,2.121l1.414-1.414A1,1,0,0,1,6,12Zm.879,2.121A3,3,0,0,0,7,15V13a1,1,0,0,1-.707-.293ZM7,15H19V13H7ZM0,5V16H2V5ZM0,16a3,3,0,0,0,.879,2.121l1.414-1.414A1,1,0,0,1,2,16Zm.879,2.121A3,3,0,0,0,3,19V17a1,1,0,0,1-.707-.293ZM3,19H17V17H3Z" fill="#09090b"/>
</svg>
