<svg id="folder-output" xmlns="http://www.w3.org/2000/svg" width="22" height="19.001" viewBox="0 0 22 19.001">
  <path id="Vector" d="M0,5.5a1,1,0,1,0,2,0ZM3,1V1ZM6.9,1V2h.01Zm1.69.9-.835.55.006.009ZM9.4,3.1l.835-.55-.006-.009Zm1.67.9V5h0ZM19,4V4ZM3,18V17H2.969ZM1.969,16.251a1,1,0,1,0-1.937.5ZM1,11l-.707-.707a1,1,0,0,0,0,1.414Zm10,1a1,1,0,0,0,0-2ZM4.707,8.707A1,1,0,0,0,3.293,7.293Zm-1.414,6a1,1,0,1,0,1.414-1.414ZM2,5.5V3H0V5.5ZM2,3a1,1,0,0,1,.293-.707L.879.879A3,3,0,0,0,0,3Zm.293-.707A1,1,0,0,1,3,2V0A3,3,0,0,0,.879.879ZM3,2H6.9V0H3ZM6.91,2a1,1,0,0,1,.48.117L8.33.352A3,3,0,0,0,6.89,0Zm.48.117a1,1,0,0,1,.365.333l1.67-1.1a3,3,0,0,0-1.1-1Zm.372.342.81,1.2,1.658-1.119-.81-1.2Zm.8,1.191a3,3,0,0,0,1.082.991L10.6,2.88a1,1,0,0,1-.361-.33Zm1.082.991A3,3,0,0,0,11.07,5V3a1,1,0,0,1-.474-.12ZM11.07,5H19V3H11.07ZM19,5a1,1,0,0,1,.707.293l1.414-1.414A3,3,0,0,0,19,3Zm.707.293A1,1,0,0,1,20,6h2a3,3,0,0,0-.879-2.121ZM20,6V16h2V6Zm0,10a1,1,0,0,1-.293.707l1.414,1.414A3,3,0,0,0,22,16Zm-.293.707A1,1,0,0,1,19,17v2a3,3,0,0,0,2.121-.879ZM19,17H3v2H19ZM2.969,17a1,1,0,0,1-.632-.2l-1.2,1.6a3,3,0,0,0,1.895.6Zm-.632-.2a1,1,0,0,1-.368-.551l-1.937.5A3,3,0,0,0,1.137,18.4ZM1,12H11V10H1ZM3.293,7.293l-3,3,1.414,1.414,3-3Zm-3,4.414,3,3,1.414-1.414-3-3Z" transform="translate(0 0)" fill="#09090b"/>
</svg>
