<svg id="folder-heart" xmlns="http://www.w3.org/2000/svg" width="22" height="20" viewBox="0 0 22 20">
  <path id="Vector" d="M10,19a1,1,0,0,0,0-2ZM1,16H1ZM3,1V1ZM6.9,1V2h.01Zm1.69.9-.835.55.006.009ZM9.4,3.1l.835-.55-.006-.009Zm1.67.9V5h0ZM19,4V4Zm1,3.5a1,1,0,0,0,2,0Zm-7.1,7.95-.707.707.005,0Zm-.2-3.73.7.711,0,0Zm3.44,0-.708.706.021.021Zm.36.34-.687.727a1,1,0,0,0,1.394-.02Zm.34-.34.707.707,0,0Zm3.45-.01-.708.706h0Zm-.2,3.74.7.711.007-.007ZM16.5,19l-.7.712a1,1,0,0,0,1.405,0ZM10,17H3v2h7ZM3,17a1,1,0,0,1-.707-.293L.879,18.121A3,3,0,0,0,3,19Zm-.707-.293A1,1,0,0,1,2,16H0a3,3,0,0,0,.879,2.121ZM2,16V3H0V16ZM2,3a1,1,0,0,1,.293-.707L.879.879A3,3,0,0,0,0,3Zm.293-.707A1,1,0,0,1,3,2V0A3,3,0,0,0,.879.879ZM3,2H6.9V0H3ZM6.91,2a1,1,0,0,1,.48.117L8.33.352A3,3,0,0,0,6.89,0Zm.48.117a1,1,0,0,1,.365.333l1.67-1.1a3,3,0,0,0-1.1-1Zm.372.342.81,1.2,1.658-1.119-.81-1.2Zm.8,1.191a3,3,0,0,0,1.082.991L10.6,2.88a1,1,0,0,1-.361-.33Zm1.082.991A3,3,0,0,0,11.07,5V3a1,1,0,0,1-.474-.12ZM11.07,5H19V3H11.07ZM19,5a1,1,0,0,1,.707.293l1.414-1.414A3,3,0,0,0,19,3Zm.707.293A1,1,0,0,1,20,6h2a3,3,0,0,0-.879-2.121ZM20,6V7.5h2V6Zm-6.393,8.743a1.588,1.588,0,0,1-.2-2.312L12,11.009a3.577,3.577,0,0,0,.2,5.148Zm-.2-2.316a1.431,1.431,0,0,1,.464-.311l-.766-1.847a3.43,3.43,0,0,0-1.114.745Zm.464-.311a1.431,1.431,0,0,1,.548-.109v-2a3.43,3.43,0,0,0-1.314.262Zm.548-.109a1.43,1.43,0,0,1,.548.109l.766-1.847a3.43,3.43,0,0,0-1.314-.262Zm.548.109a1.431,1.431,0,0,1,.464.311l1.416-1.413a3.43,3.43,0,0,0-1.114-.745Zm.486.331.36.34,1.373-1.454-.36-.34Zm1.754.32.34-.34-1.414-1.414-.34.34Zm.345-.345a1.431,1.431,0,0,1,.464-.314l-.774-1.844a3.43,3.43,0,0,0-1.114.754Zm.464-.314a1.429,1.429,0,0,1,.55-.111l-.006-2a3.43,3.43,0,0,0-1.318.267Zm.55-.111a1.43,1.43,0,0,1,.55.108l.764-1.848A3.429,3.429,0,0,0,18.56,10Zm.55.108a1.431,1.431,0,0,1,.466.312L21,11a3.431,3.431,0,0,0-1.118-.747Zm.467.312a1.591,1.591,0,0,1-.2,2.329l1.42,1.408A3.58,3.58,0,0,0,21,11Zm-.2,2.322-3.59,3.55L17.2,19.711l3.59-3.55ZM17.2,18.288l-3.6-3.55-1.4,1.424,3.6,3.55Z" transform="translate(0 0)" fill="#09090b"/>
</svg>
