<svg id="footprints" xmlns="http://www.w3.org/2000/svg" width="20.001" height="22" viewBox="0 0 20.001 22">
  <path id="Vector" d="M2,15H2ZM1,7l1,.012H2Zm5,8H6Zm13-4-1,.011h0Zm-5,8h0Zm0-4a1,1,0,0,0,0,2Zm4,2a1,1,0,0,0,0-2ZM2,11a1,1,0,1,0,0,2Zm4,2a1,1,0,0,0,0-2ZM3,15V12.62H1V15Zm0-2.38a9.377,9.377,0,0,0-.555-2.961A7.942,7.942,0,0,1,2,7.012L0,6.988a9.9,9.9,0,0,0,.533,3.258A7.485,7.485,0,0,1,1,12.62ZM2,7.011A6.829,6.829,0,0,1,2.975,3.52,2.937,2.937,0,0,1,5.5,2V0A4.928,4.928,0,0,0,1.292,2.44,8.82,8.82,0,0,0,0,6.989ZM5.5,2a1.151,1.151,0,0,1,1.09.621A3.829,3.829,0,0,1,7,4.5H9a5.785,5.785,0,0,0-.688-2.9A3.143,3.143,0,0,0,5.5,0ZM7,4.5a12.05,12.05,0,0,1-.942,4.038A13.768,13.768,0,0,0,5,13.18H7a11.93,11.93,0,0,1,.942-3.971A13.907,13.907,0,0,0,9,4.5ZM5,13.18V15H7V13.18ZM5,15a1,1,0,0,1-.293.707l1.414,1.414A3,3,0,0,0,7,15Zm-.293.707A1,1,0,0,1,4,16v2a3,3,0,0,0,2.121-.879ZM4,16a1,1,0,0,1-.707-.293L1.879,17.121A3,3,0,0,0,4,18Zm-.707-.293A1,1,0,0,1,3,15H1a3,3,0,0,0,.879,2.121ZM19,19V16.62H17V19Zm0-2.38a7.484,7.484,0,0,1,.467-2.374A9.9,9.9,0,0,0,20,10.988l-2,.024a7.942,7.942,0,0,1-.445,2.647A9.378,9.378,0,0,0,17,16.62Zm1-5.631A8.819,8.819,0,0,0,18.709,6.44,4.928,4.928,0,0,0,14.5,4V6a2.937,2.937,0,0,1,2.526,1.52A6.828,6.828,0,0,1,18,11.011ZM14.5,4a3.142,3.142,0,0,0-2.812,1.6A5.784,5.784,0,0,0,11,8.5h2a3.829,3.829,0,0,1,.41-1.879A1.151,1.151,0,0,1,14.5,6ZM11,8.5a13.905,13.905,0,0,0,1.058,4.709A11.931,11.931,0,0,1,13,17.18h2a13.767,13.767,0,0,0-1.058-4.642A12.051,12.051,0,0,1,13,8.5Zm2,8.68V19h2V17.18ZM13,19a3,3,0,0,0,.879,2.121l1.414-1.414A1,1,0,0,1,15,19Zm.879,2.121A3,3,0,0,0,16,22V20a1,1,0,0,1-.707-.293ZM16,22a3,3,0,0,0,2.121-.879l-1.414-1.414A1,1,0,0,1,16,20Zm2.121-.879A3,3,0,0,0,19,19H17a1,1,0,0,1-.293.707ZM14,17h4V15H14ZM2,13H6V11H2Z" transform="translate(0 0)" fill="#09090b"/>
</svg>
