<svg id="forklift" xmlns="http://www.w3.org/2000/svg" width="21" height="21" viewBox="0 0 21 21">
  <path id="Vector" d="M10,12a1,1,0,0,0,0-2ZM1,13H1Zm5,4a1,1,0,0,0,0,2ZM15,1a1,1,0,0,0-2,0ZM14,18H13a1,1,0,0,0,1,1Zm6,1a1,1,0,0,0,0-2ZM3,11a1,1,0,0,0,2,0ZM9,4l.707-.707A1,1,0,0,0,9,3Zm4.293,5.707a1,1,0,1,0,1.414-1.414ZM10,10H3v2h7ZM3,10a3,3,0,0,0-2.121.879l1.414,1.414A1,1,0,0,1,3,12Zm-2.121.879A3,3,0,0,0,0,13H2a1,1,0,0,1,.293-.707ZM0,13v5H2V13Zm12,5a1,1,0,0,1-1,1v2a3,3,0,0,0,3-3Zm-1,1a1,1,0,0,1-1-1H8a3,3,0,0,0,3,3Zm-1-1a1,1,0,0,1,1-1V15a3,3,0,0,0-3,3Zm1-1a1,1,0,0,1,1,1h2a3,3,0,0,0-3-3ZM4,18a1,1,0,0,1-1,1v2a3,3,0,0,0,3-3ZM3,19a1,1,0,0,1-1-1H0a3,3,0,0,0,3,3ZM2,18a1,1,0,0,1,1-1V15a3,3,0,0,0-3,3Zm1-1a1,1,0,0,1,1,1H6a3,3,0,0,0-3-3Zm3,2H9V17H6ZM13,1V18h2V1Zm1,18h6V17H14ZM5,11V6H3v5ZM5,6A1.006,1.006,0,0,1,6,5V3A3.006,3.006,0,0,0,3,6ZM6,5H9V3H6Zm2.293-.293,5,5,1.414-1.414-5-5Z" fill="#09090b"/>
</svg>
