<svg id="gallery-thumbnails" xmlns="http://www.w3.org/2000/svg" width="20" height="20" viewBox="0 0 20 20">
  <path id="Vector" d="M2,18a1,1,0,0,0,0,2Zm1,2a1,1,0,0,0,0-2Zm4-2a1,1,0,0,0,0,2Zm1,2a1,1,0,0,0,0-2Zm4-2a1,1,0,0,0,0,2Zm1,2a1,1,0,0,0,0-2Zm4-2a1,1,0,0,0,0,2Zm1,2a1,1,0,0,0,0-2ZM3,2H17V0H3ZM17,2a1,1,0,0,1,1,1h2a3,3,0,0,0-3-3Zm1,1V13h2V3Zm0,10a1,1,0,0,1-1,1v2a3,3,0,0,0,3-3Zm-1,1H3v2H17ZM3,14a1,1,0,0,1-1-1H0a3,3,0,0,0,3,3ZM2,13V3H0V13ZM2,3A1,1,0,0,1,3,2V0A3,3,0,0,0,0,3ZM2,20H3V18H2Zm5,0H8V18H7Zm5,0h1V18H12Zm5,0h1V18H17Z" fill="#09090b"/>
</svg>
