<svg id="gamepad-2" xmlns="http://www.w3.org/2000/svg" width="22" height="16" viewBox="0 0 22 16">
  <path id="Vector" d="M5,6A1,1,0,0,0,5,8ZM9,8A1,1,0,0,0,9,6ZM8,5A1,1,0,0,0,6,5ZM6,9A1,1,0,0,0,8,9Zm8-2a1,1,0,0,0,0,2Zm.01,2a1,1,0,0,0,0-2ZM17,5a1,1,0,0,0,0,2Zm.01,2a1,1,0,0,0,0-2Zm-.69-6V0h0ZM5.68,1V0h0ZM1.7,4.59,2.7,4.7V4.693Zm-.017.152L.694,4.606l0,.017ZM1,12H1Zm3,3v0Zm3.414-2.414.707.707h0ZM8.828,12V11h0Zm4.344,0V11h0Zm1.414.586-.707.707h0ZM18,15v0Zm3-3h0Zm-.685-7.258.993-.119,0-.019ZM20.3,4.591l-.995.1,0,.015ZM5,8H9V6H5ZM6,5V9H8V5Zm8,4h.01V7H14Zm3-2h.01V5H17Zm-.68-7H5.68V2H16.32ZM5.68,0A5,5,0,0,0,2.331,1.288l1.34,1.485A3,3,0,0,1,5.68,2ZM2.331,1.288a5,5,0,0,0-1.624,3.2l1.989.2a3,3,0,0,1,.974-1.92ZM.709,4.475c-.012.1-.008.087-.014.131l1.981.272c.008-.058.019-.171.02-.173Zm-.016.147C.616,5.255,0,10.379,0,12H2c0-1.467.592-6.423.678-7.139ZM0,12a4,4,0,0,0,1.172,2.828l1.414-1.414A2,2,0,0,1,2,12Zm1.172,2.828A4,4,0,0,0,4,16V14a2,2,0,0,1-1.414-.586ZM4,16a3.57,3.57,0,0,0,2.707-1.293L5.293,13.293C4.8,13.782,4.56,14,4,14Zm2.707-1.293,1.414-1.414L6.707,11.879,5.293,13.293Zm1.414-1.414A1,1,0,0,1,8.828,13V11a3,3,0,0,0-2.121.879ZM8.828,13h4.344V11H8.828Zm4.344,0a1,1,0,0,1,.707.293l1.414-1.414A3,3,0,0,0,13.172,11Zm.707.293,1.414,1.414,1.414-1.414-1.414-1.414Zm1.414,1.414A3.57,3.57,0,0,0,18,16V14c-.56,0-.8-.218-1.293-.707ZM18,16a4,4,0,0,0,2.828-1.172l-1.414-1.414A2,2,0,0,1,18,14Zm2.828-1.172A4,4,0,0,0,22,12H20a2,2,0,0,1-.586,1.414ZM22,12c0-1.622-.616-6.745-.692-7.377l-1.986.239C19.408,5.577,20,10.532,20,12Zm-.695-7.4c-.006-.046,0-.019-.014-.129L19.3,4.708c0,.017,0,.031.007.063s.007.067.013.11Zm-.012-.115a5,5,0,0,0-1.623-3.2l-1.34,1.485a3,3,0,0,1,.974,1.92Zm-1.623-3.2A5,5,0,0,0,16.32,0V2a3,3,0,0,1,2.01.773Z" fill="#09090b"/>
</svg>
