<svg id="gauge" xmlns="http://www.w3.org/2000/svg" width="22" height="17.001" viewBox="0 0 22 17.001">
  <path id="Vector" d="M10.293,10.293a1,1,0,0,0,1.414,1.414Zm5.414-2.586a1,1,0,0,0-1.414-1.414ZM1.474,16.5a1,1,0,0,0,1.732-1Zm17.32-1a1,1,0,0,0,1.732,1Zm-7.087-3.793,4-4L14.293,6.293l-4,4ZM3.206,15.5A9,9,0,0,1,2,11H0a11,11,0,0,0,1.474,5.5ZM2,11A9,9,0,0,1,3.206,6.5l-1.732-1A11,11,0,0,0,0,11ZM3.206,6.5A9,9,0,0,1,6.5,3.206l-1-1.732A11,11,0,0,0,1.474,5.5ZM6.5,3.206A9,9,0,0,1,11,2V0A11,11,0,0,0,5.5,1.474ZM11,2a9,9,0,0,1,4.5,1.206l1-1.732A11,11,0,0,0,11,0Zm4.5,1.206A9,9,0,0,1,18.794,6.5l1.732-1A11,11,0,0,0,16.5,1.474ZM18.794,6.5A9,9,0,0,1,20,11h2a11,11,0,0,0-1.474-5.5ZM20,11a9,9,0,0,1-1.206,4.5l1.732,1A11,11,0,0,0,22,11Z" transform="translate(0)" fill="#09090b"/>
</svg>
