<svg id="gavel" xmlns="http://www.w3.org/2000/svg" width="21.121" height="21.121" viewBox="0 0 21.121 21.121">
  <path id="Vector" d="M13.328,12.207a1,1,0,0,0-1.414-1.414ZM4.621,19.5l-.707-.707h0Zm-1.5.621v0ZM1,18H1Zm.621-1.5-.707-.707h0Zm8.707-7.293A1,1,0,0,0,8.914,7.793Zm3.086,5.086a1,1,0,0,0,1.414,1.414Zm7.414-4.586a1,1,0,0,0-1.414-1.414ZM5.414,6.293A1,1,0,0,0,6.828,7.707Zm7.414-4.586A1,1,0,1,0,11.414.293Zm-5,3.586A1,1,0,0,0,6.414,6.707Zm6.586,9.414a1,1,0,0,0,1.414-1.414Zm4-4a1,1,0,0,0,1.414-1.414ZM11.828,1.293a1,1,0,0,0-1.414,1.414Zm.086,9.5-8,8,1.414,1.414,8-8Zm-8,8a1.121,1.121,0,0,1-.793.328v2a3.121,3.121,0,0,0,2.207-.914Zm-.793.328a1.121,1.121,0,0,1-.793-.328L.914,20.207a3.121,3.121,0,0,0,2.207.914Zm-.793-.328A1.121,1.121,0,0,1,2,18H0a3.121,3.121,0,0,0,.914,2.207ZM2,18a1.121,1.121,0,0,1,.328-.793L.914,15.793A3.121,3.121,0,0,0,0,18Zm.328-.793,8-8L8.914,7.793l-8,8Zm12.5-1.5,6-6L19.414,8.293l-6,6Zm-8-8,6-6L11.414.293l-6,6Zm-.414-1,8,8,1.414-1.414-8-8ZM19.828,9.293l-8-8L10.414,2.707l8,8Z" transform="translate(0 0)" fill="#09090b"/>
</svg>
