<svg id="git-compare-arrows" xmlns="http://www.w3.org/2000/svg" width="22" height="20" viewBox="0 0 22 20">
  <path id="Vector" d="M11,4l-.707-.707a1,1,0,0,0,0,1.414Zm5,0V4ZM13.293,7.707a1,1,0,0,0,1.414-1.414Zm1.414-6A1,1,0,0,0,13.293.293ZM11,16l.707.707a1,1,0,0,0,0-1.414ZM4,14H4Zm4.707-1.707a1,1,0,0,0-1.414,1.414Zm-1.414,6a1,1,0,0,0,1.414,1.414ZM6,4A2,2,0,0,1,4,6V8A4,4,0,0,0,8,4ZM4,6A2,2,0,0,1,2,4H0A4,4,0,0,0,4,8ZM2,4A2,2,0,0,1,4,2V0A4,4,0,0,0,0,4ZM4,2A2,2,0,0,1,6,4H8A4,4,0,0,0,4,0Zm7,3h5V3H11Zm5,0a1,1,0,0,1,.707.293l1.414-1.414A3,3,0,0,0,16,3Zm.707.293A1,1,0,0,1,17,6h2a3,3,0,0,0-.879-2.121ZM17,6v7h2V6Zm-2.293.293-3-3L10.293,4.707l3,3Zm-3-1.586,3-3L13.293.293l-3,3ZM20,16a2,2,0,0,1-2,2v2a4,4,0,0,0,4-4Zm-2,2a2,2,0,0,1-2-2H14a4,4,0,0,0,4,4Zm-2-2a2,2,0,0,1,2-2V12a4,4,0,0,0-4,4Zm2-2a2,2,0,0,1,2,2h2a4,4,0,0,0-4-4Zm-7,1H6v2h5ZM6,15a1,1,0,0,1-.707-.293L3.879,16.121A3,3,0,0,0,6,17Zm-.707-.293A1,1,0,0,1,5,14H3a3,3,0,0,0,.879,2.121ZM5,14V7H3v7Zm2.293-.293,3,3,1.414-1.414-3-3Zm3,1.586-3,3,1.414,1.414,3-3Z" fill="#09090b"/>
</svg>
