<svg id="git-graph" xmlns="http://www.w3.org/2000/svg" width="22" height="20" viewBox="0 0 22 20">
  <path id="Vector" d="M12,1a1,1,0,0,0-2,0ZM10,19a1,1,0,0,0,2,0Zm4.333-6.045a1,1,0,1,0,1.333,1.491ZM6,4A2,2,0,0,1,4,6V8A4,4,0,0,0,8,4ZM4,6A2,2,0,0,1,2,4H0A4,4,0,0,0,4,8ZM2,4A2,2,0,0,1,4,2V0A4,4,0,0,0,0,4ZM4,2A2,2,0,0,1,6,4H8A4,4,0,0,0,4,0ZM3,7v6H5V7Zm3,9a2,2,0,0,1-2,2v2a4,4,0,0,0,4-4ZM4,18a2,2,0,0,1-2-2H0a4,4,0,0,0,4,4ZM2,16a2,2,0,0,1,2-2V12a4,4,0,0,0-4,4Zm2-2a2,2,0,0,1,2,2H8a4,4,0,0,0-4-4ZM10,1V19h2V1ZM20,4a2,2,0,0,1-2,2V8a4,4,0,0,0,4-4ZM18,6a2,2,0,0,1-2-2H14a4,4,0,0,0,4,4ZM16,4a2,2,0,0,1,2-2V0a4,4,0,0,0-4,4Zm2-2a2,2,0,0,1,2,2h2a4,4,0,0,0-4-4ZM15.667,14.445a10,10,0,0,0,2.46-3.367L16.3,10.261a8,8,0,0,1-1.968,2.693Zm2.46-3.367A10,10,0,0,0,19,7L17,7a8,8,0,0,1-.7,3.262Z" fill="#09090b"/>
</svg>
