<svg id="git-pull-request-create" xmlns="http://www.w3.org/2000/svg" width="20" height="20" viewBox="0 0 20 20">
  <path id="Vector" d="M3,19a1,1,0,0,0,2,0ZM11,3a1,1,0,0,0,0,2Zm3,1V4Zm1,5a1,1,0,0,0,2,0Zm2,4a1,1,0,0,0-2,0Zm-2,6a1,1,0,0,0,2,0Zm4-2a1,1,0,0,0,0-2Zm-6-2a1,1,0,0,0,0,2ZM6,4A2,2,0,0,1,4,6V8A4,4,0,0,0,8,4ZM4,6A2,2,0,0,1,2,4H0A4,4,0,0,0,4,8ZM2,4A2,2,0,0,1,4,2V0A4,4,0,0,0,0,4ZM4,2A2,2,0,0,1,6,4H8A4,4,0,0,0,4,0ZM3,7V19H5V7Zm8-2h3V3H11Zm3,0a1,1,0,0,1,.707.293l1.414-1.414A3,3,0,0,0,14,3Zm.707.293A1,1,0,0,1,15,6h2a3,3,0,0,0-.879-2.121ZM15,6V9h2V6Zm0,7v6h2V13Zm4,2H13v2h6Z" fill="#09090b"/>
</svg>
