<svg id="gitlab" xmlns="http://www.w3.org/2000/svg" width="22.072" height="20.001" viewBox="0 0 22.072 20.001">
  <path id="Vector" d="M21.037,11.291l.95-.311,0,0Zm-3.33-10,.949-.316q-.01-.031-.022-.061Zm-.14-.18-.713.7a.991.991,0,0,0,.12.1ZM17.347,1,17.48.01A1,1,0,0,0,17.365,0Zm-.23.07-.572-.82-.021.015Zm-.14.18L16.05.874c-.007.018-.014.037-.021.056Zm-2.26,6.67v1a1,1,0,0,0,.947-.679Zm-7.36,0-.949.316a1,1,0,0,0,.949.684Zm-2.22-6.66-.967.257q.008.03.018.06Zm-.1-.18L5.765.4a1,1,0,0,0-.112-.1ZM4.777,1,4.759,2Q4.8,2,4.844,2Zm-.23.07L3.975.251,3.954.266Zm-.14.18L3.48.874Q3.469.9,3.459.933Zm-3.37,10.04-.948-.318,0,.007Zm.27.83-.586.811.008.006ZM11.037,19l-.577.816a1,1,0,0,0,1.156,0Zm9.69-6.88-.514-.858c-.022.013-.044.028-.065.043Zm1.259-1.146-3.33-10-1.9.632,3.33,10ZM18.633.914A1.421,1.421,0,0,0,18.16.306l-1.186,1.61a.58.58,0,0,1-.193-.249Zm-.354-.5a1.38,1.38,0,0,0-.8-.4l-.267,1.982a.62.62,0,0,1-.359-.179ZM17.365,0a1.39,1.39,0,0,0-.82.249l1.144,1.641a.61.61,0,0,1-.36.109Zm-.841.265a1.421,1.421,0,0,0-.473.609l1.853.753a.58.58,0,0,1-.193.249ZM16.03.93,13.77,7.6l1.894.642,2.26-6.67ZM14.717,6.921H7.357v2h7.36ZM8.305,7.6,6.085.945l-1.9.632,2.22,6.66ZM6.1,1A1.42,1.42,0,0,0,5.765.4L4.308,1.766a.58.58,0,0,1-.138-.249ZM5.653.294A1.38,1.38,0,0,0,4.709,0l.135,2a.62.62,0,0,1-.424-.131ZM4.795,0a1.39,1.39,0,0,0-.82.249L5.119,1.891A.61.61,0,0,1,4.759,2ZM3.954.266A1.42,1.42,0,0,0,3.48.874l1.853.753a.58.58,0,0,1-.193.249ZM3.459.933.089,10.973l1.9.636,3.37-10.04ZM.086,10.98a1.74,1.74,0,0,0,0,1.079l1.9-.619a.26.26,0,0,1,0,.161Zm0,1.079a1.74,1.74,0,0,0,.636.872L1.892,11.31a.26.26,0,0,1,.1.13Zm.644.878,9.73,6.88,1.155-1.633L1.884,11.3Zm10.886,6.879,9.69-6.88-1.158-1.631-9.69,6.88Zm9.625-6.837a1.71,1.71,0,0,0,.723-.869l-1.874-.7a.29.29,0,0,1,.123-.147Zm.723-.869a1.71,1.71,0,0,0,.023-1.13l-1.9.622a.29.29,0,0,1,0-.192Z" transform="translate(0 0)" fill="#09090b"/>
</svg>
