<svg id="glass-water" xmlns="http://www.w3.org/2000/svg" width="16" height="21" viewBox="0 0 16 21">
  <path id="Vector" d="M11.2,20V19h0ZM4.8,20V19H4.794Zm-2-1.79-.995.1h0ZM1,1V0A1,1,0,0,0,.005,1.1ZM15,1l.995.1A1,1,0,0,0,15,0ZM13.19,18.21l.995.1h0ZM1.4,9.2a1,1,0,1,0,1.2,1.6Zm13.2,1.6a1,1,0,1,0-1.2-1.6ZM11.2,19H4.8v2h6.4ZM4.794,19a1,1,0,0,1-.672-.255l-1.334,1.49A3,3,0,0,0,4.806,21Zm-.672-.255a1,1,0,0,1-.328-.64l-1.989.21a3,3,0,0,0,.983,1.92Zm-.327-.639L1.995.9.005,1.1l1.8,17.21ZM1,2H15V0H1ZM14.006.9,12.2,18.105l1.989.209L15.995,1.1ZM12.2,18.1a1,1,0,0,1-.326.639l1.337,1.487a3,3,0,0,0,.977-1.915Zm-.326.639A1,1,0,0,1,11.2,19v2a3,3,0,0,0,2.008-.77ZM2.6,10.8A4,4,0,0,1,5,10V8A6,6,0,0,0,1.4,9.2ZM5,10a4,4,0,0,1,2.4.8L8.6,9.2A6,6,0,0,0,5,8Zm2.4.8A6,6,0,0,0,11,12V10a4,4,0,0,1-2.4-.8ZM11,12a6,6,0,0,0,3.6-1.2L13.4,9.2A4,4,0,0,1,11,10Z" transform="translate(0 0)" fill="#09090b"/>
</svg>
