<svg id="globe-lock" xmlns="http://www.w3.org/2000/svg" width="22" height="22" viewBox="0 0 22 22">
  <path id="Vector" d="M15.664,14.207a1,1,0,1,0-1.957-.414ZM11,21l-.724.69a1,1,0,0,0,1.448,0ZM7,11H7ZM11,1l.724.69A1,1,0,0,0,11,0ZM21.5,14.3a1,1,0,0,0-1.908-.6ZM1,10a1,1,0,0,0,0,2Zm8.5,2a1,1,0,0,0,0-2ZM18,5a1,1,0,0,0,2,0ZM17,1V1ZM15,3h0ZM14,5a1,1,0,0,0,2,0Zm-.292,8.793a13.5,13.5,0,0,1-3.432,6.517l1.448,1.379a15.5,15.5,0,0,0,3.94-7.483ZM11.724,20.31A13.5,13.5,0,0,1,8,11H6a15.5,15.5,0,0,0,4.276,10.69ZM8,11a13.5,13.5,0,0,1,3.724-9.31L10.276.31A15.5,15.5,0,0,0,6,11ZM11,0A11,11,0,0,0,5.242,1.629l1.047,1.7A9,9,0,0,1,11,2ZM5.242,1.629a11,11,0,0,0-4.053,4.4l1.784.9a9,9,0,0,1,3.316-3.6Zm-4.053,4.4A11,11,0,0,0,.04,11.9l1.993-.164a9,9,0,0,1,.94-4.8ZM.04,11.9a11,11,0,0,0,2.1,5.605l1.612-1.183a9,9,0,0,1-1.714-4.586Zm2.1,5.605a11,11,0,0,0,4.719,3.679l.754-1.852a9,9,0,0,1-3.861-3.01Zm4.719,3.679a11,11,0,0,0,5.947.664l-.327-1.973a9,9,0,0,1-4.866-.543Zm5.947.664A11,11,0,0,0,18.216,19.3L16.9,17.795a9,9,0,0,1-4.43,2.084ZM18.216,19.3a11,11,0,0,0,3.28-5l-1.908-.6A9,9,0,0,1,16.9,17.795ZM1,12H9.5V10H1ZM20,5V3H18V5Zm0-2A3,3,0,0,0,19.121.879L17.707,2.293A1,1,0,0,1,18,3ZM19.121.879A3,3,0,0,0,17,0V2a1,1,0,0,1,.707.293ZM17,0a3,3,0,0,0-2.121.879l1.414,1.414A1,1,0,0,1,17,2ZM14.879.879A3,3,0,0,0,14,3h2a1,1,0,0,1,.293-.707ZM14,3V5h2V3Zm0,3h6V4H14Zm6,0h2a2,2,0,0,0-2-2Zm0,0V9h2V6Zm0,3v2a2,2,0,0,0,2-2Zm0,0H14v2h6ZM14,9H12a2,2,0,0,0,2,2Zm0,0V6H12V9Zm0-3V4a2,2,0,0,0-2,2Z" fill="#09090b"/>
</svg>
