<svg id="grid-2x2-check" xmlns="http://www.w3.org/2000/svg" width="21" height="20" viewBox="0 0 21 20">
  <path id="Vector" d="M11,1A1,1,0,0,0,9,1ZM1,17H1ZM3,1V1ZM17,1V1ZM1,9a1,1,0,0,0,0,2Zm13.707,7.293a1,1,0,0,0-1.414,1.414ZM16,19l-.707.707a1,1,0,0,0,1.414,0Zm4.707-3.293a1,1,0,0,0-1.414-1.414ZM9,1V18h2V1ZM9,18H9l1.414,1.414A2,2,0,0,0,11,18Zm0,0H9v2a2,2,0,0,0,1.414-.586Zm0,0H3v2H9ZM3,18a1,1,0,0,1-.707-.293L.879,19.121A3,3,0,0,0,3,20Zm-.707-.293A1,1,0,0,1,2,17H0a3,3,0,0,0,.879,2.121ZM2,17V3H0V17ZM2,3a1,1,0,0,1,.293-.707L.879.879A3,3,0,0,0,0,3Zm.293-.707A1,1,0,0,1,3,2V0A3,3,0,0,0,.879.879ZM3,2H17V0H3ZM17,2a1,1,0,0,1,.707.293L19.121.879A3,3,0,0,0,17,0Zm.707.293A1,1,0,0,1,18,3h2A3,3,0,0,0,19.121.879ZM18,3V9h2V3Zm0,6h0l1.414,1.414A2,2,0,0,0,20,9Zm0,0h0v2a2,2,0,0,0,1.414-.586Zm0,0H1v2H18Zm-4.707,8.707,2,2,1.414-1.414-2-2Zm3.414,2,4-4-1.414-1.414-4,4Z" fill="#09090b"/>
</svg>
