<svg id="grip" xmlns="http://www.w3.org/2000/svg" width="18" height="18" viewBox="0 0 18 18">
  <path id="Vector" d="M9,2V4a2,2,0,0,0,2-2ZM9,2H7A2,2,0,0,0,9,4ZM9,2V0A2,2,0,0,0,7,2ZM9,2h2A2,2,0,0,0,9,0Zm7,0V4a2,2,0,0,0,2-2Zm0,0H14a2,2,0,0,0,2,2Zm0,0V0a2,2,0,0,0-2,2Zm0,0h2a2,2,0,0,0-2-2ZM2,2V4A2,2,0,0,0,4,2ZM2,2H0A2,2,0,0,0,2,4ZM2,2V0A2,2,0,0,0,0,2ZM2,2H4A2,2,0,0,0,2,0ZM9,9v2a2,2,0,0,0,2-2ZM9,9H7a2,2,0,0,0,2,2ZM9,9V7A2,2,0,0,0,7,9ZM9,9h2A2,2,0,0,0,9,7Zm7,0v2a2,2,0,0,0,2-2Zm0,0H14a2,2,0,0,0,2,2Zm0,0V7a2,2,0,0,0-2,2Zm0,0h2a2,2,0,0,0-2-2ZM2,9v2A2,2,0,0,0,4,9ZM2,9H0a2,2,0,0,0,2,2ZM2,9V7A2,2,0,0,0,0,9ZM2,9H4A2,2,0,0,0,2,7Zm7,7v2a2,2,0,0,0,2-2Zm0,0H7a2,2,0,0,0,2,2Zm0,0V14a2,2,0,0,0-2,2Zm0,0h2a2,2,0,0,0-2-2Zm7,0v2a2,2,0,0,0,2-2Zm0,0H14a2,2,0,0,0,2,2Zm0,0V14a2,2,0,0,0-2,2Zm0,0h2a2,2,0,0,0-2-2ZM2,16v2a2,2,0,0,0,2-2Zm0,0H0a2,2,0,0,0,2,2Zm0,0V14a2,2,0,0,0-2,2Zm0,0H4a2,2,0,0,0-2-2Z" fill="#09090b"/>
</svg>
