<svg id="grip-vertical" xmlns="http://www.w3.org/2000/svg" width="10" height="18" viewBox="0 0 10 18">
  <path id="Vector" d="M2,9v2A2,2,0,0,0,4,9ZM2,9H0a2,2,0,0,0,2,2ZM2,9V7A2,2,0,0,0,0,9ZM2,9H4A2,2,0,0,0,2,7ZM2,2V4A2,2,0,0,0,4,2ZM2,2H0A2,2,0,0,0,2,4ZM2,2V0A2,2,0,0,0,0,2ZM2,2H4A2,2,0,0,0,2,0ZM2,16v2a2,2,0,0,0,2-2Zm0,0H0a2,2,0,0,0,2,2Zm0,0V14a2,2,0,0,0-2,2Zm0,0H4a2,2,0,0,0-2-2ZM8,9v2a2,2,0,0,0,2-2ZM8,9H6a2,2,0,0,0,2,2ZM8,9V7A2,2,0,0,0,6,9ZM8,9h2A2,2,0,0,0,8,7ZM8,2V4a2,2,0,0,0,2-2ZM8,2H6A2,2,0,0,0,8,4ZM8,2V0A2,2,0,0,0,6,2ZM8,2h2A2,2,0,0,0,8,0ZM8,16v2a2,2,0,0,0,2-2Zm0,0H6a2,2,0,0,0,2,2Zm0,0V14a2,2,0,0,0-2,2Zm0,0h2a2,2,0,0,0-2-2Z" fill="#09090b"/>
</svg>
