<svg id="group" xmlns="http://www.w3.org/2000/svg" width="20" height="20" viewBox="0 0 20 20">
  <path id="Vector" d="M0,5A1,1,0,0,0,2,5ZM5,2A1,1,0,0,0,5,0ZM15,0a1,1,0,0,0,0,2Zm3,5a1,1,0,0,0,2,0Zm2,10a1,1,0,0,0-2,0Zm-5,3a1,1,0,0,0,0,2ZM5,20a1,1,0,0,0,0-2ZM2,15a1,1,0,0,0-2,0ZM2,5V3H0V5ZM2,3A1.006,1.006,0,0,1,3,2V0A3.006,3.006,0,0,0,0,3ZM3,2H5V0H3ZM15,2h2V0H15Zm2,0a1.006,1.006,0,0,1,1,1h2a3.006,3.006,0,0,0-3-3Zm1,1V5h2V3Zm0,12v2h2V15Zm0,2a1.006,1.006,0,0,1-1,1v2a3.006,3.006,0,0,0,3-3Zm-1,1H15v2h2ZM5,18H3v2H5ZM3,18a1.006,1.006,0,0,1-1-1H0a3.006,3.006,0,0,0,3,3ZM2,17V15H0v2ZM6,6h5V4H6Zm5,0h2a2,2,0,0,0-2-2Zm0,0V9h2V6Zm0,3v2a2,2,0,0,0,2-2Zm0,0H6v2h5ZM6,9H4a2,2,0,0,0,2,2ZM6,9V6H4V9ZM6,6V4A2,2,0,0,0,4,6Zm3,5h5V9H9Zm5,0h2a2,2,0,0,0-2-2Zm0,0v3h2V11Zm0,3v2a2,2,0,0,0,2-2Zm0,0H9v2h5ZM9,14H7a2,2,0,0,0,2,2Zm0,0V11H7v3Zm0-3V9a2,2,0,0,0-2,2Z" fill="#09090b"/>
</svg>
