<svg id="hammer" xmlns="http://www.w3.org/2000/svg" width="20.994" height="20.034" viewBox="0 0 20.994 20.034">
  <path id="Vector" d="M13.7,10.747a1,1,0,1,0-1.414-1.414Zm-9.08,7.666-.707-.707h0Zm-1.5.621v0ZM1,16.913H1Zm.621-1.5-.707-.707ZM10.7,7.747A1,1,0,0,0,9.287,6.333Zm4.586,4.586A1,1,0,1,0,16.7,13.747ZM20.7,9.747a1,1,0,1,0-1.414-1.414Zm-1.914.5A1,1,0,1,0,20.2,8.833ZM17.58,7.626l.707-.707h0Zm-.586-1.414h0Zm0-1.172h1a1,1,0,0,0-.293-.707Zm-2.26-2.26.707-.707h0Zm-4.2-1.756-.007,1h0ZM6.994,1,7,0a1,1,0,0,0-.672,1.746Zm.92.82-.665.747,0,0Zm2.08,4.62h0Zm0,1.6h-1a1,1,0,0,0,.293.707Zm2,2-.707.707a1,1,0,0,0,.707.293Zm1.172,0v-1h0Zm1.414.586-.707.707h0Zm1.207,2.621A1,1,0,1,0,17.2,11.833Zm-3.5-3.914L3.914,17.706,5.328,19.12,13.7,10.747ZM3.914,17.706a1.121,1.121,0,0,1-.793.329v2a3.121,3.121,0,0,0,2.207-.914Zm-.793.329a1.121,1.121,0,0,1-.793-.329L.914,19.12a3.121,3.121,0,0,0,2.207.914Zm-.793-.329A1.121,1.121,0,0,1,2,16.913H0A3.121,3.121,0,0,0,.914,19.12ZM2,16.913a1.121,1.121,0,0,1,.328-.793L.914,14.706A3.121,3.121,0,0,0,0,16.913Zm.328-.793L10.7,7.747,9.287,6.333.914,14.706ZM16.7,13.747l4-4L19.287,8.333l-4,4Zm3.5-4.914L18.287,6.919,16.873,8.333l1.914,1.914ZM18.287,6.919a1,1,0,0,1-.293-.707h-2a3,3,0,0,0,.879,2.121Zm-.293-.707V5.04h-2V6.212ZM17.7,4.333l-2.26-2.26L14.027,3.487l2.26,2.26Zm-2.26-2.26a7,7,0,0,0-4.9-2.049l-.013,2a5,5,0,0,1,3.5,1.463ZM10.539.024,7,0,6.987,2l3.538.024ZM6.329,1.747l.92.82L8.58,1.073,7.66.253Zm.922.822A5.18,5.18,0,0,1,8.538,4.318L10.361,3.5A7.18,7.18,0,0,0,8.578,1.072ZM8.538,4.318a5.18,5.18,0,0,1,.457,2.123h2A7.18,7.18,0,0,0,10.361,3.5ZM8.994,6.44v1.6h2V6.44Zm.293,2.307,2,2L12.7,9.333l-2-2Zm2.707,2.293h1.172v-2H11.994Zm1.172,0a1,1,0,0,1,.707.293l1.415-1.414a3,3,0,0,0-2.121-.879Zm.707.293,1.914,1.914L17.2,11.833,15.287,9.919Z" transform="translate(0 0)" fill="#09090b"/>
</svg>
