<svg id="hand-metal" xmlns="http://www.w3.org/2000/svg" width="22.106" height="21" viewBox="0 0 22.106 21">
  <path id="Vector" d="M16.105,10.5a1,1,0,0,0,2,0Zm-1-4.5V6Zm-3,3.4a1,1,0,0,0,2,0Zm0-.4a1,1,0,0,0,2,0Zm-1-4V5Zm-3,4a1,1,0,0,0,2,0Zm0-.5a1,1,0,0,0,2,0Zm-1-7.5V1Zm-2,2h0Zm-1,9a1,1,0,0,0,2,0ZM5.4,13.707a1,1,0,0,0,1.414-1.414ZM4.346,11.24l.707-.707L5.018,10.5Zm-2.83,2.82-.742.67.035.037Zm3.6,3.6-.707.707,0,0ZM13.106,20v0Zm8-8h0Zm-2-9V3Zm-3,7a1,1,0,0,0,2,0Zm2,.5V8h-2v2.5Zm0-2.5a3,3,0,0,0-.879-2.121L15.813,7.293A1,1,0,0,1,16.105,8Zm-.879-2.121A3,3,0,0,0,15.106,5V7a1,1,0,0,1,.707.293ZM15.106,5a3,3,0,0,0-2.121.879L14.4,7.293A1,1,0,0,1,15.106,7Zm-2.121.879A3,3,0,0,0,12.106,8h2a1,1,0,0,1,.293-.707ZM12.106,8V9.4h2V8Zm2,1V7h-2V9Zm0-2a3,3,0,0,0-.879-2.121L11.813,6.293A1,1,0,0,1,12.106,7Zm-.879-2.121A3,3,0,0,0,11.106,4V6a1,1,0,0,1,.707.293ZM11.106,4a3,3,0,0,0-2.121.879L10.4,6.293A1,1,0,0,1,11.106,6Zm-2.121.879A3,3,0,0,0,8.105,7h2a1,1,0,0,1,.293-.707ZM8.105,7V9h2V7Zm2,1.5V3h-2V8.5Zm0-5.5A3,3,0,0,0,9.227.879L7.813,2.293A1,1,0,0,1,8.105,3ZM9.227.879A3,3,0,0,0,7.105,0V2a1,1,0,0,1,.707.293ZM7.105,0A3,3,0,0,0,4.984.879L6.4,2.293A1,1,0,0,1,7.105,2ZM4.984.879A3,3,0,0,0,4.105,3h2A1,1,0,0,1,6.4,2.293ZM4.105,3v9h2V3Zm2.707,9.293-1.76-1.76L3.638,11.947l1.76,1.76ZM5.018,10.5a3,3,0,0,0-2.087-.78l.046,2a1,1,0,0,1,.7.26ZM2.932,9.72a3,3,0,0,0-2.049.874l1.412,1.417a1,1,0,0,1,.683-.291Zm-2.049.874A3,3,0,0,0,0,12.641l2,.053a1,1,0,0,1,.294-.682ZM0,12.641a3,3,0,0,0,.772,2.09l1.484-1.34a1,1,0,0,1-.257-.7Zm.807,2.127,3.6,3.6,1.414-1.414-3.6-3.6Zm3.6,3.6A8.728,8.728,0,0,0,11.106,21V19A6.745,6.745,0,0,1,5.82,16.951ZM11.106,21h2V19h-2Zm2,0a9,9,0,0,0,6.364-2.636L18.055,16.95A7,7,0,0,1,13.106,19Zm6.364-2.636A9,9,0,0,0,22.106,12h-2a7,7,0,0,1-2.05,4.95ZM22.106,12V5h-2v7Zm0-7a3,3,0,0,0-.879-2.121L19.813,4.293A1,1,0,0,1,20.106,5Zm-.879-2.121A3,3,0,0,0,19.106,2V4a1,1,0,0,1,.707.293ZM19.106,2a3,3,0,0,0-2.121.879L18.4,4.293A1,1,0,0,1,19.106,4Zm-2.121.879A3,3,0,0,0,16.106,5h2a1,1,0,0,1,.293-.707ZM16.106,5v5h2V5Z" transform="translate(0)" fill="#09090b"/>
</svg>
