<svg id="hand-heart" xmlns="http://www.w3.org/2000/svg" width="22.027" height="20.24" viewBox="0 0 22.027 20.24">
  <path id="Vector" d="M10,11.24a1,1,0,0,0,0,2ZM7.6,8.84l.694.72A1,1,0,0,0,8.4,9.44ZM1.306,13.52a1,1,0,1,0,1.388,1.44Zm4.036,3.967a1,1,0,1,0,1.317,1.505ZM7.6,16.84l.659.753A1,1,0,0,0,8.4,17.44Zm8.2-1.8-.691-.723q-.032.031-.061.064Zm4.6-4.4-.687-.727,0,0ZM17.65,7.73l.681.733.006-.006ZM12.769,10.9a1,1,0,0,0,1.361,1.466ZM1.707,12.533A1,1,0,1,0,.293,13.947Zm4.586,7.414a1,1,0,0,0,1.414-1.414ZM20,4.04l-.993-.114A1,1,0,0,0,19,4.04Zm-5-1.8-.8.6a1,1,0,0,0,1.638-.055Zm-5,1.8h1c0-.016,0-.031,0-.047Zm1.5,2.8-.753.659q.027.031.056.059Zm3.5,3.4-.7.717a1,1,0,0,0,1.4-.01Zm-5,3h2v-2H10Zm2,0a3,3,0,0,0,2.121-.879l-1.414-1.414A1,1,0,0,1,12,11.24Zm2.121-.879A3,3,0,0,0,15,10.24H13a1,1,0,0,1-.293.707ZM15,10.24a3,3,0,0,0-.879-2.121L12.707,9.533A1,1,0,0,1,13,10.24Zm-.879-2.121A3,3,0,0,0,12,7.24v2a1,1,0,0,1,.707.293ZM12,7.24H9v2h3Zm-3,0a2.671,2.671,0,0,0-2.2,1l1.6,1.2c.057-.076.211-.2.6-.2Zm-2.094.88-5.6,5.4,1.388,1.44,5.6-5.4ZM6.659,18.993l1.6-1.4L6.942,16.088l-1.6,1.4ZM8.4,17.44c.057-.076.211-.2.6-.2v-2a2.671,2.671,0,0,0-2.2,1Zm.6-.2h4v-2H9Zm4,0A4.63,4.63,0,0,0,16.553,15.7l-1.505-1.317A2.634,2.634,0,0,1,13,15.24Zm3.491-1.477,4.6-4.4L19.709,9.918l-4.6,4.4Zm4.6-4.4a3,3,0,0,0,.939-2.1l-2-.057a1,1,0,0,1-.313.7Zm.939-2.1a3,3,0,0,0-.819-2.147L19.753,8.5a1,1,0,0,1,.273.716Zm-.819-2.147a3,3,0,0,0-2.1-.939l-.056,2a1,1,0,0,1,.7.313Zm-2.1-.939A3,3,0,0,0,16.963,7l1.374,1.454a1,1,0,0,1,.716-.273ZM16.969,7l-4.2,3.9,1.361,1.466,4.2-3.9ZM.293,13.947l6,6,1.414-1.414-6-6Zm18.914-6.5A5.044,5.044,0,0,0,21,4.04H19a3.189,3.189,0,0,1-1.207,1.993Zm1.786-3.293a3.73,3.73,0,0,0-.537-2.392l-1.7,1.055a1.729,1.729,0,0,1,.249,1.109Zm-.537-2.392A3.73,3.73,0,0,0,18.551.22L17.874,2.1a1.73,1.73,0,0,1,.884.715ZM18.551.22A3.73,3.73,0,0,0,16.1.194l.637,1.9a1.73,1.73,0,0,1,1.137.012ZM16.1.194a3.73,3.73,0,0,0-1.938,1.5l1.676,1.091a1.73,1.73,0,0,1,.9-.7ZM15.8,1.64A3.78,3.78,0,0,0,13.86.288L13.287,2.2a1.78,1.78,0,0,1,.913.637ZM13.86.288A3.78,3.78,0,0,0,11.5.353l.677,1.882A1.78,1.78,0,0,1,13.287,2.2ZM11.5.353A3.78,3.78,0,0,0,9.634,1.809L11.3,2.92a1.78,1.78,0,0,1,.877-.686ZM9.634,1.809A3.78,3.78,0,0,0,9,4.087l2-.094a1.78,1.78,0,0,1,.3-1.073ZM9,4.04A5.247,5.247,0,0,0,10.748,7.5l1.505-1.317C11.463,5.279,11,4.785,11,4.04Zm1.8,3.517,3.5,3.4L15.7,9.523l-3.5-3.4Zm4.9,3.39,3.5-3.5L17.793,6.033l-3.5,3.5Z" transform="translate(0 0)" fill="#09090b"/>
</svg>
