<svg id="hard-drive" xmlns="http://www.w3.org/2000/svg" width="22" height="18" viewBox="0 0 22 18">
  <path id="Vector" d="M21,9h1a1,1,0,0,0-.106-.448ZM1,9,.106,8.552A1,1,0,0,0,0,9ZM4.45,2.11l.894.448v0ZM1,15H1ZM17.55,2.11l-.9.445v0ZM15.76,1V0h0ZM6.24,1V0h0ZM5,12a1,1,0,0,0,0,2Zm.01,2a1,1,0,0,0,0-2ZM9,12a1,1,0,0,0,0,2Zm.01,2a1,1,0,1,0,0-2ZM21,8H1v2H21ZM3.556,1.662.106,8.552l1.788.9,3.45-6.89ZM0,9v6H2V9Zm0,6a3,3,0,0,0,.879,2.121l1.414-1.414A1,1,0,0,1,2,15Zm.879,2.121A3,3,0,0,0,3,18V16a1,1,0,0,1-.707-.293ZM3,18H19V16H3Zm16,0a3,3,0,0,0,2.121-.879l-1.414-1.414A1,1,0,0,1,19,16Zm2.121-.879A3,3,0,0,0,22,15H20a1,1,0,0,1-.293.707ZM22,15V9H20v6Zm-.106-6.448-3.45-6.89-1.788.9,3.45,6.89ZM18.445,1.665A3,3,0,0,0,17.34.45l-1.054,1.7a1,1,0,0,1,.369.4ZM17.34.45A3,3,0,0,0,15.76,0V2a1,1,0,0,1,.526.15ZM15.76,0H6.24V2h9.52ZM6.239,0A3,3,0,0,0,4.66.45l1.054,1.7A1,1,0,0,1,6.241,2ZM4.66.45A3,3,0,0,0,3.554,1.665l1.791.89a1,1,0,0,1,.369-.4ZM5,14h.01V12H5Zm4,0h.01V12H9Z" fill="#09090b"/>
</svg>
