<svg id="hard-hat" xmlns="http://www.w3.org/2000/svg" width="22" height="17" viewBox="0 0 22 17">
  <path id="Vector" d="M1,15H1Zm0-2H1ZM8,7a1,1,0,0,0,2,0Zm2-6V1Zm2,6a1,1,0,0,0,2,0ZM2,12a1,1,0,0,0,2,0ZM3,9H3ZM9,4A1,1,0,0,0,9,2Zm4-2a1,1,0,0,0,0,2Zm5,10a1,1,0,0,0,2,0ZM0,15a2,2,0,0,0,.586,1.414L2,15H0Zm.586,1.414A2,2,0,0,0,2,17V15H2ZM2,17H20V15H2Zm18,0a2,2,0,0,0,1.414-.586L20,15h0Zm1.414-.586A2,2,0,0,0,22,15H20ZM22,15V13H20v2Zm0-2a2,2,0,0,0-.586-1.414L20,13h2Zm-.586-1.414A2,2,0,0,0,20,11v2h0ZM20,11H2v2H20ZM2,11a2,2,0,0,0-1.414.586L2,13H2Zm-1.414.586A2,2,0,0,0,0,13H2ZM0,13v2H2V13ZM10,7V2H8V7Zm0-5h0L8.586.586A2,2,0,0,0,8,2Zm0,0h0V0A2,2,0,0,0,8.586.586Zm0,0h2V0H10Zm2,0h0L13.414.586A2,2,0,0,0,12,0Zm0,0h2A2,2,0,0,0,13.414.586Zm0,0V7h2V2ZM4,12V9H2v3ZM4,9A5,5,0,0,1,5.464,5.464L4.05,4.05A7,7,0,0,0,2,9ZM5.464,5.464A5,5,0,0,1,9,4V2A7,7,0,0,0,4.05,4.05ZM13,4a5,5,0,0,1,3.535,1.464L17.95,4.05A7,7,0,0,0,13,2Zm3.535,1.464A5,5,0,0,1,18,9h2a7,7,0,0,0-2.05-4.95ZM18,9v3h2V9Z" fill="#09090b"/>
</svg>
