<svg id="hard-drive-download" xmlns="http://www.w3.org/2000/svg" width="22" height="22" viewBox="0 0 22 22">
  <path id="Vector" d="M12,1a1,1,0,0,0-2,0ZM11,9l-.707.707a1,1,0,0,0,1.414,0Zm4.707-3.293a1,1,0,0,0-1.414-1.414Zm-8-1.414A1,1,0,0,0,6.293,5.707ZM5,16a1,1,0,0,0,0,2Zm.01,2a1,1,0,0,0,0-2ZM9,16a1,1,0,0,0,0,2Zm.01,2a1,1,0,1,0,0-2ZM10,1V9h2V1Zm4.293,3.293-4,4,1.414,1.414,4-4Zm-2.586,4-4-4L6.293,5.707l4,4ZM3,14H19V12H3Zm16,0a1,1,0,0,1,1,1h2a3,3,0,0,0-3-3Zm1,1v4h2V15Zm0,4a1,1,0,0,1-1,1v2a3,3,0,0,0,3-3Zm-1,1H3v2H19ZM3,20a1,1,0,0,1-1-1H0a3,3,0,0,0,3,3ZM2,19V15H0v4Zm0-4a1,1,0,0,1,1-1V12a3,3,0,0,0-3,3Zm3,3h.01V16H5Zm4,0h.01V16H9Z" fill="#09090b"/>
</svg>
