<svg id="haze" xmlns="http://www.w3.org/2000/svg" width="22" height="20.5" viewBox="0 0 22 20.5">
  <path id="Vector" d="M4.907,3.993A1,1,0,1,0,3.493,5.407ZM4.893,6.807A1,1,0,0,0,6.307,5.393ZM1,10.5a1,1,0,0,0,0,2Zm2,2a1,1,0,0,0,0-2Zm16-2a1,1,0,0,0,0,2Zm2,2a1,1,0,0,0,0-2ZM15.693,5.393a1,1,0,0,0,1.414,1.414Zm2.814.014a1,1,0,1,0-1.414-1.414ZM21,16.5a1,1,0,0,0,0-2Zm-20-2a1,1,0,0,0,0,2Zm20,6a1,1,0,0,0,0-2Zm-20-2a1,1,0,0,0,0,2Zm13-7a1,1,0,0,0,2,0Zm-3-4v0Zm-5,4a1,1,0,0,0,2,0Zm4-8a1,1,0,0,0,2,0ZM12,1a1,1,0,0,0-2,0ZM3.493,5.407l1.4,1.4L6.307,5.393l-1.4-1.4ZM1,12.5H3v-2H1Zm18,0h2v-2H19ZM17.107,6.807l1.4-1.4L17.093,3.993l-1.4,1.4ZM21,14.5H1v2H21Zm0,4H1v2H21Zm-5-7a5,5,0,0,0-1.465-3.536L13.121,9.379A3,3,0,0,1,14,11.5ZM14.535,7.964A5,5,0,0,0,11,6.5v2a3,3,0,0,1,2.121.879ZM11,6.5A5,5,0,0,0,7.464,7.964L8.879,9.379A3,3,0,0,1,11,8.5ZM7.464,7.964A5,5,0,0,0,6,11.5H8a3,3,0,0,1,.879-2.121ZM12,3.5V1H10V3.5Z" fill="#09090b"/>
</svg>
