<svg id="heading-2" xmlns="http://www.w3.org/2000/svg" width="19" height="14" viewBox="0 0 19 14">
  <path id="Vector" d="M1,6A1,1,0,0,0,1,8ZM9,8A1,1,0,0,0,9,6ZM0,13a1,1,0,0,0,2,0ZM2,1A1,1,0,0,0,0,1ZM8,13a1,1,0,0,0,2,0ZM10,1A1,1,0,0,0,8,1Zm8,13a1,1,0,0,0,0-2Zm-4-1H13a1,1,0,0,0,1,1Zm-.6-7.8a1,1,0,0,0,1.2,1.6ZM1,8H9V6H1Zm1,5V1H0V13Zm8,0V1H8V13Zm8-1H14v2h4Zm-3,1a2.6,2.6,0,0,1,.434-1.615,3.709,3.709,0,0,1,1.1-.912A7.853,7.853,0,0,0,18.1,9.333,3.22,3.22,0,0,0,19,7H17a1.23,1.23,0,0,1-.346.948,6.258,6.258,0,0,1-1.184.829,5.627,5.627,0,0,0-1.654,1.432A4.582,4.582,0,0,0,13,13Zm4-6a2.725,2.725,0,0,0-1.934-2.574A4.006,4.006,0,0,0,13.4,5.2l1.2,1.6a2.036,2.036,0,0,1,1.834-.476A.73.73,0,0,1,17,7Z" fill="#09090b"/>
</svg>
