<svg id="heading-3" xmlns="http://www.w3.org/2000/svg" width="19" height="14.18" viewBox="0 0 19 14.18">
  <path id="Vector" d="M1,6A1,1,0,0,0,1,8ZM9,8A1,1,0,0,0,9,6ZM0,13a1,1,0,0,0,2,0ZM2,1A1,1,0,0,0,0,1ZM8,13a1,1,0,0,0,2,0ZM10,1A1,1,0,0,0,8,1Zm3.993,3.638a1,1,0,0,0,1.014,1.724ZM16,8a1,1,0,0,0,0,2Zm-1.4,3.7a1,1,0,1,0-1.2,1.6ZM1,8H9V6H1Zm1,5V1H0V13Zm8,0V1H8V13Zm5.007-6.638a1.546,1.546,0,0,1,1.454-.145A.866.866,0,0,1,17,7h2a2.864,2.864,0,0,0-1.686-2.592,3.537,3.537,0,0,0-3.321.23ZM17,7a1,1,0,0,1-.293.707l1.414,1.414A3,3,0,0,0,19,7Zm-.293.707A1,1,0,0,1,16,8v2a3,3,0,0,0,2.121-.879ZM13.4,13.3a3.686,3.686,0,0,0,3.76.6A3.14,3.14,0,0,0,19,11H17a1.142,1.142,0,0,1-.66,1.076A1.711,1.711,0,0,1,14.6,11.7ZM19,11a3,3,0,0,0-.879-2.121l-1.414,1.414A1,1,0,0,1,17,11Zm-.879-2.121A3,3,0,0,0,16,8v2a1,1,0,0,1,.707.293Z" fill="#09090b"/>
</svg>
