<svg id="heart-off" xmlns="http://www.w3.org/2000/svg" width="22" height="22" viewBox="0 0 22 22">
  <path id="Vector" d="M1.707.293A1,1,0,0,0,.293,1.707ZM20.293,21.707a1,1,0,0,0,1.414-1.414Zm-4.086-5.5a1,1,0,0,0-1.414-1.414ZM11,20l-.707.707a1,1,0,0,0,1.414,0ZM4,13l.707-.707L4.7,12.281ZM1,7.5H1ZM3.751,3.942A1,1,0,1,0,2.529,2.358Zm4.2-2.824a1,1,0,1,0-.376,1.964ZM11,4l-.71.7a1,1,0,0,0,1.417,0Zm6.618,7.968a1,1,0,0,0,1.424,1.4ZM.293,1.707l20,20,1.414-1.414-20-20Zm14.5,13.086-4.5,4.5,1.414,1.414,4.5-4.5Zm-3.086,4.5-7-7L3.293,13.707l7,7ZM4.7,12.281C3.2,10.836,2,9.347,2,7.5H0c0,2.753,1.8,4.764,3.3,6.219ZM2,7.5a4.5,4.5,0,0,1,.462-1.983L.668,4.635A6.5,6.5,0,0,0,0,7.5Zm.462-1.983A4.5,4.5,0,0,1,3.751,3.942L2.529,2.358A6.5,6.5,0,0,0,.668,4.635Zm5.11-2.436A5.028,5.028,0,0,1,10.29,4.7L11.71,3.3A7,7,0,0,0,7.948,1.118Zm4.135,1.625a6.08,6.08,0,0,1,1.845-1.353A4.707,4.707,0,0,1,15.5,3V1a6.691,6.691,0,0,0-2.747.521,8.043,8.043,0,0,0-2.46,1.772ZM15.5,3a4.5,4.5,0,0,1,3.182,1.318L20.1,2.9A6.5,6.5,0,0,0,15.5,1Zm3.182,1.318A4.5,4.5,0,0,1,20,7.5h2a6.5,6.5,0,0,0-1.9-4.6ZM20,7.5c0,1.693-1.035,3.1-2.382,4.468l1.424,1.4C20.435,11.959,22,10.047,22,7.5Z" fill="#09090b"/>
</svg>
