<svg id="heart" xmlns="http://www.w3.org/2000/svg" width="22" height="20" viewBox="0 0 22 20">
  <path id="Vector" d="M18,12l-.7-.714-.007.007ZM11,3l-.707.707a1,1,0,0,0,1.414,0ZM1,6.5H1ZM4,12l.707-.707L4.7,11.281Zm7,7-.707.707a1,1,0,0,0,1.414,0Zm7.7-6.286C20.188,11.256,22,9.244,22,6.5H20c0,1.836-1.208,3.324-2.7,4.786ZM22,6.5a6.5,6.5,0,0,0-1.9-4.6L18.682,3.318A4.5,4.5,0,0,1,20,6.5ZM20.1,1.9A6.5,6.5,0,0,0,15.5,0V2a4.5,4.5,0,0,1,3.182,1.318ZM15.5,0a6.691,6.691,0,0,0-2.747.521,8.043,8.043,0,0,0-2.46,1.772l1.414,1.414a6.08,6.08,0,0,1,1.845-1.353A4.707,4.707,0,0,1,15.5,2ZM11.707,2.293A8.043,8.043,0,0,0,9.247.521,6.691,6.691,0,0,0,6.5,0V2a4.707,4.707,0,0,1,1.948.354,6.08,6.08,0,0,1,1.845,1.353ZM6.5,0A6.5,6.5,0,0,0,1.9,1.9L3.318,3.318A4.5,4.5,0,0,1,6.5,2ZM1.9,1.9A6.5,6.5,0,0,0,0,6.5H2A4.5,4.5,0,0,1,3.318,3.318ZM0,6.5c0,2.753,1.8,4.764,3.3,6.219L4.7,11.281C3.2,9.837,2,8.347,2,6.5Zm3.293,6.207,7,7,1.414-1.414-7-7Zm8.414,7,7-7-1.414-1.414-7,7Z" fill="#09090b"/>
</svg>
