<svg id="heart-handshake" xmlns="http://www.w3.org/2000/svg" width="22" height="20" viewBox="0 0 22 20">
  <path id="Vector" d="M18,12l-.7-.714-.007.007ZM1,6.5H1ZM4,12l.707-.707L4.7,11.281Zm7,7-.707.707a1,1,0,0,0,1.414,0ZM8.04,5.96l.7.71,0,0Zm0,3.08.707-.707,0,0Zm3,.07.668.745.009-.008Zm2.07-1.9-.672-.741,0,0Zm3.79,0-.672.741,0,0Zm2.292,3.4a1,1,0,1,0,1.337-1.488Zm-2.9,3.093a1,1,0,1,0,1.414-1.414Zm-.586-3.414a1,1,0,0,0-1.414,1.414Zm-2.414,6.414a1,1,0,0,0,1.414-1.414Zm-.586-3.414a1,1,0,0,0-1.414,1.414Zm5.993-.579C20.188,11.256,22,9.244,22,6.5H20c0,1.836-1.208,3.324-2.7,4.786ZM22,6.5a6.5,6.5,0,0,0-1.9-4.6L18.682,3.318A4.5,4.5,0,0,1,20,6.5ZM20.1,1.9A6.5,6.5,0,0,0,15.5,0V2a4.5,4.5,0,0,1,3.182,1.318ZM15.5,0a6.691,6.691,0,0,0-2.747.521,8.043,8.043,0,0,0-2.46,1.772l1.414,1.414a6.08,6.08,0,0,1,1.845-1.353A4.707,4.707,0,0,1,15.5,2ZM11.707,2.293A8.043,8.043,0,0,0,9.247.521,6.691,6.691,0,0,0,6.5,0V2a4.707,4.707,0,0,1,1.948.354,6.08,6.08,0,0,1,1.845,1.353ZM6.5,0A6.5,6.5,0,0,0,1.9,1.9L3.318,3.318A4.5,4.5,0,0,1,6.5,2ZM1.9,1.9A6.5,6.5,0,0,0,0,6.5H2A4.5,4.5,0,0,1,3.318,3.318ZM0,6.5c0,2.753,1.8,4.764,3.3,6.219L4.7,11.281C3.2,9.837,2,8.347,2,6.5Zm3.293,6.207,7,7,1.414-1.414-7-7Zm8.414,7,7-7-1.414-1.414-7,7ZM10.293,2.293l-2.96,2.96L8.747,6.667l2.96-2.96ZM7.336,5.25a3.17,3.17,0,0,0-.693,1.031l1.846.769a1.17,1.17,0,0,1,.256-.381ZM6.642,6.282A3.17,3.17,0,0,0,6.4,7.5h2a1.17,1.17,0,0,1,.09-.45ZM6.4,7.5a3.17,3.17,0,0,0,.244,1.218L8.489,7.95A1.17,1.17,0,0,1,8.4,7.5Zm.244,1.218A3.17,3.17,0,0,0,7.336,9.75L8.745,8.33a1.17,1.17,0,0,1-.256-.381Zm.691,1.029a3.175,3.175,0,0,0,4.375.107L10.373,8.365a1.175,1.175,0,0,1-1.625-.033Zm4.383.1,2.07-1.9L12.434,6.473l-2.07,1.9Zm2.066-1.9a1.82,1.82,0,0,1,1.223-.472v-2a3.82,3.82,0,0,0-2.567.991Zm1.223-.472a1.82,1.82,0,0,1,1.223.472l1.344-1.481a3.82,3.82,0,0,0-2.567-.991Zm1.227.475,2.96,2.66,1.337-1.488-2.96-2.66Zm1.475,4.339-2-2-1.414,1.414,2,2Zm-3,3-2-2-1.414,1.414,2,2Z" fill="#09090b"/>
</svg>
