<svg id="hexagon" xmlns="http://www.w3.org/2000/svg" width="20" height="21.996" viewBox="0 0 20 21.996">
  <path id="Vector" d="M19,15h0Zm0-8h0Zm-1-1.73.5-.866,0,0Zm-7-4-.5.866,0,0Zm-2,0,.5.868,0,0Zm-7,4L1.5,4.4l0,0ZM1,7H1Zm0,8H1Zm1,1.73-.5.866,0,0Zm7,4,.5-.866,0,0Zm2,0-.5-.868,0,0Zm7-4,.5.868,0,0ZM20,15V7H18v8Zm0-8a3,3,0,0,0-.4-1.5l-1.732,1A1,1,0,0,1,18,7Zm-.4-1.5a3,3,0,0,0-1.1-1.1l-1,1.732a1,1,0,0,1,.366.366ZM18.5,4.4l-7-4L10.5,2.136l7,4Zm-7-4A3,3,0,0,0,10,0V2a1,1,0,0,1,.5.134ZM10,0A3,3,0,0,0,8.5.4l1,1.732A1,1,0,0,1,10,2ZM8.5.4l-7,4L2.5,6.136l7-4Zm-7,4A3,3,0,0,0,.4,5.5l1.732,1A1,1,0,0,1,2.5,6.134ZM.4,5.5A3,3,0,0,0,0,7L2,7a1,1,0,0,1,.134-.5ZM0,7v8H2V7Zm0,8a3,3,0,0,0,.4,1.5l1.732-1A1,1,0,0,1,2,15Zm.4,1.5a3,3,0,0,0,1.1,1.1l1-1.732a1,1,0,0,1-.366-.366Zm1.1,1.1,7,4L9.5,19.86l-7-4Zm7,4A3,3,0,0,0,10,22V20a1,1,0,0,1-.5-.134ZM10,22a3,3,0,0,0,1.5-.4l-1-1.732A1,1,0,0,1,10,20Zm1.5-.4,7-4L17.5,15.86l-7,4Zm7-4a3,3,0,0,0,1.1-1.1l-1.732-1a1,1,0,0,1-.366.366Zm1.1-1.1A3,3,0,0,0,20,15l-2,0a1,1,0,0,1-.134.5Z" fill="#09090b"/>
</svg>
