<svg id="highlighter" xmlns="http://www.w3.org/2000/svg" width="21" height="18" viewBox="0 0 21 18">
  <path id="Vector" d="M7.707,8.707A1,1,0,1,0,6.293,7.293ZM1,14l-.707-.707A1,1,0,0,0,0,14Zm0,3H0a1,1,0,0,0,1,1Zm9,0v1a1,1,0,0,0,.707-.293Zm3.707-2.293a1,1,0,0,0-1.414-1.414Zm7-5a1,1,0,0,0-1.414-1.414ZM15.4,13.6l.7.714.007-.007Zm-2.8,0-.707.707.007.007ZM7.4,8.4l-.714.7.007.007Zm0-2.8-.707-.707L6.686,4.9Zm5.307-3.893A1,1,0,0,0,11.293.293ZM6.293,7.293l-6,6,1.414,1.414,6-6ZM0,14v3H2V14Zm1,4h9V16H1Zm9.707-.293,3-3-1.414-1.414-3,3Zm8.586-9.414-4.6,4.6,1.414,1.414,4.6-4.6ZM14.7,12.886a1,1,0,0,1-.7.286v2a3,3,0,0,0,2.1-.858Zm-.7.286a1,1,0,0,1-.7-.286l-1.4,1.428a3,3,0,0,0,2.1.858Zm-.693-.279-5.2-5.2L6.693,9.107l5.2,5.2ZM8.114,7.7A1,1,0,0,1,7.828,7h-2a3,3,0,0,0,.858,2.1ZM7.828,7a1,1,0,0,1,.286-.7L6.686,4.9A3,3,0,0,0,5.828,7Zm.279-.693,4.6-4.6L11.293.293l-4.6,4.6Z" transform="translate(0 0)" fill="#09090b"/>
</svg>
