<svg id="history" xmlns="http://www.w3.org/2000/svg" width="20" height="20" viewBox="0 0 20 20">
  <path id="Vector" d="M2,10a1,1,0,0,0-2,0Zm8-9V0h0ZM3.26,3.74l-.7-.719-.012.012ZM1,6H0A1,1,0,0,0,1,7ZM2,1A1,1,0,0,0,0,1ZM6,7A1,1,0,0,0,6,5Zm5-2A1,1,0,0,0,9,5Zm-1,5H9a1,1,0,0,0,.553.894Zm3.553,2.894a1,1,0,0,0,.894-1.789ZM0,10a10,10,0,0,0,1.685,5.556l1.663-1.111A8,8,0,0,1,2,10Zm1.685,5.556a10,10,0,0,0,4.488,3.683l.765-1.848a8,8,0,0,1-3.59-2.946Zm4.488,3.683a10,10,0,0,0,5.778.569l-.39-1.962a8,8,0,0,1-4.622-.455Zm5.778.569a10,10,0,0,0,5.12-2.737l-1.414-1.414a8,8,0,0,1-4.1,2.189Zm5.12-2.737a10,10,0,0,0,2.737-5.12l-1.962-.39a8,8,0,0,1-2.189,4.1Zm2.737-5.12a10,10,0,0,0-.569-5.778l-1.848.765a8,8,0,0,1,.455,4.622Zm-.569-5.778a10,10,0,0,0-3.683-4.488L14.445,3.348a8,8,0,0,1,2.946,3.59ZM15.556,1.685A10,10,0,0,0,10,0V2a8,8,0,0,1,4.445,1.348ZM10,0A10.75,10.75,0,0,0,2.565,3.021l1.39,1.438A8.75,8.75,0,0,1,10,2ZM2.553,3.033.293,5.293,1.707,6.707l2.26-2.26ZM0,1V6H2V1ZM1,7H6V5H1ZM9,5v5h2V5Zm.553,5.894,4,2,.894-1.789-4-2Z" fill="#09090b"/>
</svg>
