<svg id="hop-off" xmlns="http://www.w3.org/2000/svg" width="22" height="22.006" viewBox="0 0 22 22.006">
  <path id="Vector" d="M10.155,14.184a1,1,0,1,0-.669,1.885ZM15,15.976l-.047,1h.012Zm1.427.417a1,1,0,0,0-1.454-1.373Zm-5.868,2.275a1,1,0,0,0-.838,1.816Zm3.661,2.278-.151.989.021,0Zm.9-.71,1,.087v-.008Zm.473-4.509a1,1,0,0,0-1.947.458Zm-.107,3.395a1,1,0,1,0-.713,1.868ZM20,20.966l.072-1h-.013Zm1.406.448A1,1,0,1,0,19.994,20ZM17.726,3.85A1,1,0,0,0,16.254,5.2ZM20.14,9.026l.91-.414-.022-.046Zm-.68,1.13-.06-1-.025,0ZM15.749,8.924a1,1,0,0,0-.379,1.964Zm4.729.8a1,1,0,1,0-1.816.838Zm.462,4.5.991-.132,0-.019Zm-.881-.071A1,1,0,0,0,21.2,15.8ZM4.637,4.643A1,1,0,1,0,3.223,3.229ZM3.26,17.336l.776-.631v0Zm1.17-.12.927.374h0Zm1.07-6.71.318-.948a1,1,0,0,0-1.318.948Zm4.88.62-.142-.99-.013,0Zm1.187.467a1,1,0,0,0-1.413-1.415ZM5.191,16.255a1,1,0,0,0-1.342,1.483ZM9.02,20.146l-.417.909h0Zm1.13-.68-1-.085c0,.008,0,.017,0,.025ZM9.5,10.8a1,1,0,1,0-1.847.768ZM6.986.755a1,1,0,0,0,.728,1.863ZM17.33,3.266,16.7,4.04l0,0Zm-.12,1.17.371.928h0ZM11.1,4.487a1,1,0,1,0,.079,2ZM1.707.3A1,1,0,0,0,.293,1.713ZM20.293,21.713A1,1,0,0,0,21.707,20.3ZM9.486,16.069a20.694,20.694,0,0,0,5.467.906l.094-2a18.8,18.8,0,0,1-4.893-.793Zm5.479.907a1.9,1.9,0,0,0,1.463-.583L14.973,15.02a.157.157,0,0,1,.055-.039c.014-.005.018,0,.007,0ZM9.721,20.484a18.193,18.193,0,0,0,4.348,1.451l.3-1.977a16.315,16.315,0,0,1-3.812-1.289Zm4.37,1.454a1.78,1.78,0,0,0,2.026-1.615l-1.992-.173A.225.225,0,0,1,14.21,20a.2.2,0,0,1,.139-.045Zm2.026-1.623a16.465,16.465,0,0,0-.524-4.588l-1.947.458a14.621,14.621,0,0,1,.476,3.972Zm-1.344.676a18.491,18.491,0,0,0,5.168.974l.117-2a16.56,16.56,0,0,1-4.572-.846Zm5.155.973a1.9,1.9,0,0,0,.8-.114l-.7-1.875a.1.1,0,0,1,.042-.006Zm.8-.114a1.9,1.9,0,0,0,.679-.435L19.994,20a.1.1,0,0,1,.036-.023ZM16.254,5.2a19.831,19.831,0,0,1,3,4.284l1.775-.921a21.833,21.833,0,0,0-3.3-4.716ZM19.23,9.441a.2.2,0,0,1-.018-.094l2,.114a1.8,1.8,0,0,0-.159-.849Zm-.018-.094a.2.2,0,0,1,.028-.092l1.714,1.031a1.8,1.8,0,0,0,.255-.825Zm.028-.092a.2.2,0,0,1,.068-.068L20.344,10.9a1.8,1.8,0,0,0,.61-.611Zm.068-.068a.2.2,0,0,1,.092-.029l.12,2a1.8,1.8,0,0,0,.824-.257Zm.067-.027a13.4,13.4,0,0,1-3.625-.236l-.379,1.964a15.385,15.385,0,0,0,4.174.264Zm-.713,1.405a16.32,16.32,0,0,1,1.289,3.812l1.977-.3a18.19,18.19,0,0,0-1.451-4.348Zm1.287,3.793a.224.224,0,0,1,.11-.2L21.2,15.8a1.78,1.78,0,0,0,.73-1.7ZM3.223,3.229A11,11,0,0,0,.015,10.457l2,.1A9,9,0,0,1,4.637,4.643ZM.015,10.457a11,11,0,0,0,2.47,7.512L4.034,16.7a9,9,0,0,1-2.021-6.146Zm2.469,7.51a1.75,1.75,0,0,0,1.5.661,1.626,1.626,0,0,0,1.376-1.038L3.5,16.842a.317.317,0,0,1,.1-.127.4.4,0,0,1,.206-.079.262.262,0,0,1,.222.069Zm2.873-.377a16.85,16.85,0,0,0,.856-3.613A26.494,26.494,0,0,0,6.5,10.506h-2a24.567,24.567,0,0,1-.266,3.186,15.027,15.027,0,0,1-.731,3.15Zm-.176-6.136a11.443,11.443,0,0,0,5.354.66l-.311-1.976a9.492,9.492,0,0,1-4.406-.58Zm5.34.662a1.849,1.849,0,0,0,1.045-.522l-1.413-1.415a.15.15,0,0,1,.085-.042ZM3.849,17.738A21.537,21.537,0,0,0,8.6,21.055l.834-1.818a19.642,19.642,0,0,1-4.246-2.983Zm4.757,3.319a1.8,1.8,0,0,0,.849.159l-.114-2a.2.2,0,0,1,.094.018Zm.849.159a1.8,1.8,0,0,0,.825-.255L9.248,19.247a.2.2,0,0,1,.092-.028Zm.825-.255a1.8,1.8,0,0,0,.611-.61L9.18,19.315a.2.2,0,0,1,.068-.068Zm.611-.61a1.8,1.8,0,0,0,.257-.824l-2-.12a.2.2,0,0,1,.029-.091Zm.255-.8A19.386,19.386,0,0,0,9.5,10.8l-1.847.768a17.422,17.422,0,0,1,1.5,7.811ZM7.714,2.618A9,9,0,0,1,12.4,2.111L12.711.135a11,11,0,0,0-5.725.62ZM12.4,2.111A9,9,0,0,1,16.7,4.04l1.268-1.547A11,11,0,0,0,12.711.135Zm4.3,1.931a.262.262,0,0,1-.069-.222.4.4,0,0,1,.079-.206.318.318,0,0,1,.127-.1l.749,1.854a1.626,1.626,0,0,0,1.038-1.376,1.75,1.75,0,0,0-.661-1.5Zm.14-.534a21.493,21.493,0,0,1-5.738.979l.079,2a23.24,23.24,0,0,0,6.4-1.121ZM.293,1.713l20,20L21.707,20.3l-20-20Z" transform="translate(0 0)" fill="#09090b"/>
</svg>
