<svg id="hop" xmlns="http://www.w3.org/2000/svg" width="21.954" height="21.962" viewBox="0 0 21.954 21.962">
  <path id="Vector" d="M10.146,14.178a1,1,0,1,0-.669,1.885Zm4.845,1.792.054-1h-.007Zm.97-.97-1,.047v.007Zm.094-5.511a1,1,0,0,0-1.887.663ZM10.492,5.5v-1a1,1,0,0,0-.949,1.316ZM17.2,4.43,16.843,3.5l-.015.006Zm.12-1.17-.632.775h0ZM3.252,17.33l.776-.631h0Zm1.17-.12.927.375h0Zm1.07-6.71.318-.948a1,1,0,0,0-1.318.948Zm4.88.62.155.988h0Zm.73-.74.989.146v-.007Zm4.484,5.341a1,1,0,0,0-1.947.458Zm-.474,4.509-1-.079v0Zm-.9.7-.191.982.019,0Zm-3.644-2.26a1,1,0,1,0-.872,1.8Zm4.91.446a1,1,0,1,0-.713,1.868Zm4.513,1.844.069-1h-.01Zm.96-.96-1,.042c0,.009,0,.018,0,.027ZM21,14.812a1,1,0,0,0-1.9.635Zm-4.842-1.166a1,1,0,1,0-.453,1.948Zm4.063,1.474-.076-1h0Zm.7-.9.985-.172,0-.019ZM20.462,9.7a1,1,0,1,0-1.8.872Zm-2.743-5.86A1,1,0,0,0,16.245,5.2ZM20.132,9.02l.91-.414-.022-.046Zm-.68,1.13-.06-1-.025,0ZM11.57,7.658A1,1,0,1,0,10.794,9.5ZM3.214,4.637A1,1,0,0,0,4.629,3.223ZM1.992,2,2.7,1.293l-.007-.007Zm.7-.286A1,1,0,1,0,1.292.286Zm6.8,9.081a1,1,0,1,0-1.847.768Zm.647,8.664-1-.086c0,.008,0,.017,0,.025Zm-1.13.68-.46.888.046.022ZM5.188,16.253a1,1,0,1,0-1.353,1.473Zm4.289-.191a20.7,20.7,0,0,0,5.467.907l.094-2a18.8,18.8,0,0,1-4.893-.793Zm5.46.906a1.918,1.918,0,0,0,2.023-2.023l-2,.109a.082.082,0,0,1,.083-.083Zm2.023-2.016a21.052,21.052,0,0,0-.905-5.464l-1.887.663a19.157,19.157,0,0,1,.795,4.9ZM10.492,6.5a26.491,26.491,0,0,0,3.471-.286,16.85,16.85,0,0,0,3.613-.856L16.828,3.5a15.028,15.028,0,0,1-3.149.731,24.565,24.565,0,0,1-3.186.266Zm7.069-1.137a1.615,1.615,0,0,0,1.054-1.379,1.755,1.755,0,0,0-.662-1.5L16.69,4.036a.255.255,0,0,1-.069-.218A.4.4,0,0,1,16.7,3.61a.339.339,0,0,1,.141-.113Zm.393-2.878A11,11,0,0,0,10.444.022l.1,2A9,9,0,0,1,16.69,4.035ZM10.444.022A11,11,0,0,0,3.222,3.23L4.636,4.644A9,9,0,0,1,10.545,2.02ZM3.222,3.23A11,11,0,0,0,.014,10.453l2,.1A9,9,0,0,1,4.636,4.644ZM.014,10.453a11,11,0,0,0,2.463,7.509L4.027,16.7a9,9,0,0,1-2.015-6.144Zm2.462,7.509a1.75,1.75,0,0,0,1.5.661,1.626,1.626,0,0,0,1.376-1.038l-1.854-.749a.318.318,0,0,1,.1-.127.4.4,0,0,1,.206-.079.262.262,0,0,1,.222.069Zm2.873-.377a16.85,16.85,0,0,0,.856-3.613A26.493,26.493,0,0,0,6.492,10.5h-2a24.567,24.567,0,0,1-.266,3.186,15.028,15.028,0,0,1-.731,3.149Zm-.176-6.136a11.443,11.443,0,0,0,5.354.66l-.311-1.976a9.492,9.492,0,0,1-4.406-.58Zm5.358.659a1.881,1.881,0,0,0,1.038-.536l-1.424-1.4a.12.12,0,0,1,.066-.034Zm1.038-.536a1.88,1.88,0,0,0,.521-1.045l-1.979-.293a.12.12,0,0,1,.033-.067Zm.522-1.053a10.543,10.543,0,0,0-.652-5.335l-1.9.632a8.6,8.6,0,0,1,.568,4.425Zm1.546,5.66a14.62,14.62,0,0,1,.476,3.972l1.994.157a16.467,16.467,0,0,0-.523-4.588Zm.476,3.975a.233.233,0,0,1,.027-.091l1.762.947a1.769,1.769,0,0,0,.206-.7Zm.027-.091a.23.23,0,0,1,.061-.073l1.228,1.579a1.769,1.769,0,0,0,.473-.559Zm.061-.073a.23.23,0,0,1,.085-.042l.484,1.941a1.769,1.769,0,0,0,.659-.32Zm.085-.042a.232.232,0,0,1,.1,0l-.344,1.97a1.771,1.771,0,0,0,.732-.026Zm.114,0a15.642,15.642,0,0,1-3.835-1.278L9.7,20.47a17.635,17.635,0,0,0,4.325,1.442Zm.362,1.036a18.494,18.494,0,0,0,5.168.974l.117-2a16.56,16.56,0,0,1-4.572-.846Zm5.158.973a1.9,1.9,0,0,0,.8-.116l-.7-1.873a.1.1,0,0,1,.042-.006Zm.8-.116a1.9,1.9,0,0,0,.677-.436l-1.414-1.414a.1.1,0,0,1,.036-.023Zm.677-.436a1.9,1.9,0,0,0,.436-.677l-1.873-.7a.1.1,0,0,1,.023-.036Zm.436-.677a1.9,1.9,0,0,0,.116-.8l-2,.138a.1.1,0,0,1,.006-.042Zm.118-.77A18.681,18.681,0,0,0,21,14.812l-1.9.635a16.681,16.681,0,0,1,.849,4.595Zm-6.246-4.364a16.592,16.592,0,0,0,4.6.523l-.157-1.994a14.758,14.758,0,0,1-3.985-.477Zm4.593.523a1.77,1.77,0,0,0,.7-.206l-.947-1.762a.229.229,0,0,1,.091-.027Zm.7-.206a1.77,1.77,0,0,0,.559-.473l-1.579-1.228a.231.231,0,0,1,.073-.061Zm.559-.473a1.769,1.769,0,0,0,.32-.659L19.94,14.3a.231.231,0,0,1,.042-.086Zm.32-.659a1.771,1.771,0,0,0,.026-.732l-1.97.343a.229.229,0,0,1,0-.1Zm.023-.751A17.635,17.635,0,0,0,20.462,9.7l-1.8.872a15.639,15.639,0,0,1,1.278,3.835ZM16.245,5.2a19.82,19.82,0,0,1,3,4.284l1.775-.921a21.823,21.823,0,0,0-3.3-4.716Zm2.976,4.238A.2.2,0,0,1,19.2,9.34l2,.114a1.8,1.8,0,0,0-.159-.849ZM19.2,9.34a.2.2,0,0,1,.028-.092l1.714,1.031a1.8,1.8,0,0,0,.255-.825Zm.028-.092A.2.2,0,0,1,19.3,9.18l1.036,1.711a1.8,1.8,0,0,0,.61-.611ZM19.3,9.18a.2.2,0,0,1,.092-.029l.12,2a1.8,1.8,0,0,0,.824-.257Zm.066-.027a17.245,17.245,0,0,1-7.8-1.5L10.794,9.5a19.213,19.213,0,0,0,8.743,1.645ZM4.629,3.223,2.7,1.293,1.284,2.707l1.93,1.93ZM2.691,1.286a.3.3,0,0,1,.067.1L.914,2.159a1.7,1.7,0,0,0,.377.556Zm.067.1a.3.3,0,0,1,.023.116h-2a1.7,1.7,0,0,0,.133.659Zm.023.116a.3.3,0,0,1-.023.116L.914.841A1.7,1.7,0,0,0,.781,1.5Zm-.023.116a.3.3,0,0,1-.067.1L1.292.286A1.7,1.7,0,0,0,.914.841Zm4.89,9.948a17.446,17.446,0,0,1,1.5,7.81l1.993.171A19.41,19.41,0,0,0,9.495,10.8Zm1.5,7.836a.2.2,0,0,1,.029-.092l1.711,1.036a1.8,1.8,0,0,0,.257-.824Zm.029-.092a.2.2,0,0,1,.068-.068l1.031,1.714a1.8,1.8,0,0,0,.611-.61Zm.068-.068a.2.2,0,0,1,.092-.028l.114,2a1.8,1.8,0,0,0,.825-.255Zm.092-.028a.2.2,0,0,1,.094.018L8.6,21.05a1.8,1.8,0,0,0,.849.159Zm.14.04a19.82,19.82,0,0,1-4.284-3L3.835,17.726a21.826,21.826,0,0,0,4.716,3.3Z" transform="translate(0 0)" fill="#09090b"/>
</svg>
