<svg id="hospital" xmlns="http://www.w3.org/2000/svg" width="22" height="22" viewBox="0 0 22 22">
  <path id="Vector" d="M12,5a1,1,0,0,0-2,0ZM10,9a1,1,0,0,0,2,0Zm3,5a1,1,0,0,0,0-2ZM9,12a1,1,0,0,0,0,2Zm4,6a1,1,0,0,0,0-2ZM9,16a1,1,0,0,0,0,2Zm4-8a1,1,0,0,0,0-2ZM9,6A1,1,0,0,0,9,8Zm8,4a1,1,0,0,0,0,2ZM1,19H1ZM3,8V8ZM5,9A1,1,0,0,0,5,7ZM16,21a1,1,0,0,0,2,0ZM15,1V1ZM7,1V1ZM5,3H5ZM4,21a1,1,0,0,0,2,0ZM10,5V9h2V5Zm3,7H9v2h4Zm0,4H9v2h4ZM13,6H9V8h4Zm4,6h2V10H17Zm2,0a1,1,0,0,1,.707.293l1.414-1.414A3,3,0,0,0,19,10Zm.707.293A1,1,0,0,1,20,13h2a3,3,0,0,0-.879-2.121ZM20,13v6h2V13Zm0,6a1,1,0,0,1-.293.707l1.414,1.414A3,3,0,0,0,22,19Zm-.293.707A1,1,0,0,1,19,20v2a3,3,0,0,0,2.121-.879ZM19,20H3v2H19ZM3,20a1,1,0,0,1-.707-.293L.879,21.121A3,3,0,0,0,3,22Zm-.707-.293A1,1,0,0,1,2,19H0a3,3,0,0,0,.879,2.121ZM2,19V10H0v9Zm0-9a1,1,0,0,1,.293-.707L.879,7.879A3,3,0,0,0,0,10Zm.293-.707A1,1,0,0,1,3,9V7a3,3,0,0,0-2.121.879ZM3,9H5V7H3ZM18,21V3H16V21ZM18,3A3,3,0,0,0,17.121.879L15.707,2.293A1,1,0,0,1,16,3ZM17.121.879A3,3,0,0,0,15,0V2a1,1,0,0,1,.707.293ZM15,0H7V2h8ZM7,0A3,3,0,0,0,4.879.879L6.293,2.293A1,1,0,0,1,7,2ZM4.879.879A3,3,0,0,0,4,3H6a1,1,0,0,1,.293-.707ZM4,3V21H6V3Z" fill="#09090b"/>
</svg>
