<svg id="ice-cream-cone" xmlns="http://www.w3.org/2000/svg" width="16" height="21.958" viewBox="0 0 16 21.958">
  <path id="Vector" d="M7.08,20.35l-.93.367.01.025Zm1.84,0,.92.392.01-.025ZM13,6H12a1,1,0,0,0,1,1ZM3,6V7A1,1,0,0,0,4,6ZM1,8H1Zm1.07,2.367,4.08,10.35,1.861-.733L3.93,9.633ZM6.16,20.742a2,2,0,0,0,.737.885L8,19.958H8Zm.737.885a2,2,0,0,0,1.1.331v-2H8Zm1.1.331a2,2,0,0,0,1.1-.331L8,19.958H8Zm1.1-.331a2,2,0,0,0,.737-.885L8,19.958H8Zm.748-.91,4.08-10.35L12.07,9.633,7.99,19.983ZM14,6a6,6,0,0,0-1.757-4.243L10.828,3.172A4,4,0,0,1,12,6ZM12.243,1.757A6,6,0,0,0,8,0V2a4,4,0,0,1,2.828,1.172ZM8,0A6,6,0,0,0,3.757,1.757L5.172,3.172A4,4,0,0,1,8,2ZM3.757,1.757A6,6,0,0,0,2,6H4A4,4,0,0,1,5.172,3.172ZM13,7a1,1,0,0,1,.707.293l1.414-1.414A3,3,0,0,0,13,5Zm.707.293A1,1,0,0,1,14,8h2a3,3,0,0,0-.879-2.121ZM14,8a1,1,0,0,1-.293.707l1.414,1.414A3,3,0,0,0,16,8Zm-.293.707A1,1,0,0,1,13,9v2a3,3,0,0,0,2.121-.879ZM13,9H3v2H13ZM3,9a1,1,0,0,1-.707-.293L.879,10.121A3,3,0,0,0,3,11Zm-.707-.293A1,1,0,0,1,2,8H0a3,3,0,0,0,.879,2.121ZM2,8a1,1,0,0,1,.293-.707L.879,5.879A3,3,0,0,0,0,8Zm.293-.707A1,1,0,0,1,3,7V5a3,3,0,0,0-2.121.879Z" fill="#09090b"/>
</svg>
