<?xml version="1.0" encoding="iso-8859-1"?>
<!-- Uploaded to: SVG Repo, www.svgrepo.com, Generator: SVG Repo Mixer Tools -->
<!DOCTYPE svg PUBLIC "-//W3C//DTD SVG 1.1//EN" "http://www.w3.org/Graphics/SVG/1.1/DTD/svg11.dtd">
<svg fill="#000000" version="1.1" id="Capa_1" xmlns="http://www.w3.org/2000/svg" xmlns:xlink="http://www.w3.org/1999/xlink" 
	 width="800px" height="800px" viewBox="0 0 97.5 97.5" xml:space="preserve">
<g>
	<path d="M95.5,62.844h-6.164V58.84c0-7.135-5.804-12.938-12.938-12.938H52.445V34.656h6.088c1.104,0,2-0.896,2-2V13.09
		c0-1.104-0.896-2-2-2H38.967c-1.104,0-2,0.896-2,2v19.566c0,1.104,0.896,2,2,2h6.087v11.245H21.103
		c-7.135,0-12.938,5.804-12.938,12.938v4.004H2c-1.104,0-2,0.896-2,2V84.41c0,1.104,0.896,2,2,2h19.566c1.104,0,2-0.896,2-2V64.844
		c0-1.104-0.896-2-2-2h-6.009V58.84c0-3.058,2.487-5.545,5.545-5.545h23.951v9.549h-6.087c-1.104,0-2,0.896-2,2V84.41
		c0,1.104,0.896,2,2,2h19.566c1.104,0,2-0.896,2-2V64.844c0-1.104-0.896-2-2-2h-6.087v-9.549h23.951
		c3.058,0,5.545,2.487,5.545,5.545v4.004h-6.01c-1.104,0-2,0.896-2,2V84.41c0,1.104,0.896,2,2,2H95.5c1.104,0,2-0.896,2-2V64.844
		C97.5,63.739,96.604,62.844,95.5,62.844z"/>
</g>
</svg>