<svg xmlns="http://www.w3.org/2000/svg" width="14.001" height="14" viewBox="0 0 14.001 14">
  <path id="Vector" d="M4.378,6.5a.6.6,0,0,1,.6.6l0,1.774C7.351,9.1,13,9.791,13,10.2q0,.467-8.024,1.453V13.4a.6.6,0,0,1-.992.455L.139,10.548a.4.4,0,0,1,0-.607l3.847-3.3A.6.6,0,0,1,4.378,6.5ZM9.167.209a.6.6,0,0,1,.847-.063l3.847,3.309A.387.387,0,0,1,13.9,3.5a.4.4,0,0,1-.043.564l-3.847,3.3A.6.6,0,0,1,9.022,6.9l0-1.774C6.649,4.9,1,4.211,1,3.8q0-.467,8.024-1.453V.6A.6.6,0,0,1,9.167.209Z" transform="translate(14.001) rotate(90)" fill-rule="evenodd"/>
</svg>
