<svg xmlns="http://www.w3.org/2000/svg" width="13.326" height="13.326" viewBox="0 0 13.326 13.326">
  <path id="Vector" d="M7.969,8.869a.745.745,0,0,1,.067.977l-.067.076L5.51,12.38A3.228,3.228,0,0,1,.82,7.949l.126-.133L3.4,5.357a.745.745,0,0,1,1.12.977l-.067.076L2,8.869a1.738,1.738,0,0,0,2.353,2.555l.1-.1L6.915,8.869A.745.745,0,0,1,7.969,8.869Zm.524-4.036a.745.745,0,0,1,0,1.053L6.012,8.367A.745.745,0,0,1,4.959,7.314L7.439,4.833a.745.745,0,0,1,1.053,0ZM12.38.945a3.228,3.228,0,0,1,.126,4.432l-.126.133L9.922,7.969A.745.745,0,0,1,8.8,6.991l.067-.076,2.458-2.458A1.738,1.738,0,0,0,8.974,1.9l-.1.1L6.411,4.457a.745.745,0,0,1-1.12-.977L5.357,3.4,7.815.945a3.228,3.228,0,0,1,4.565,0Z" transform="translate(0 0)" fill="#858699"/>
</svg>
