<svg width="18" height="16" viewBox="0 0 18 16" fill="none" xmlns="http://www.w3.org/2000/svg">
    <path
        d="M17.2508 12.8196L10.4188 0.954739C10.2481 0.664055 10.0044 0.423035 9.71178 0.255567C9.41921 0.0880999 9.08795 0 8.75084 0C8.41373 0 8.08247 0.0880999 7.7899 0.255567C7.49732 0.423035 7.25359 0.664055 7.08287 0.954739L0.250838 12.8196C0.0865693 13.1007 0 13.4205 0 13.7461C0 14.0718 0.0865693 14.3915 0.250838 14.6727C0.419377 14.9651 0.66269 15.2075 0.955808 15.3748C1.24893 15.5422 1.58129 15.6286 1.91881 15.6251H15.5829C15.9201 15.6283 16.2522 15.5418 16.545 15.3744C16.8378 15.2071 17.0809 14.9649 17.2493 14.6727C17.4138 14.3917 17.5006 14.072 17.5009 13.7464C17.5012 13.4207 17.4149 13.1009 17.2508 12.8196ZM16.1672 14.0469C16.1077 14.1485 16.0222 14.2325 15.9195 14.2901C15.8168 14.3478 15.7006 14.3771 15.5829 14.3751H1.91881C1.80105 14.3771 1.68488 14.3478 1.58219 14.2901C1.4795 14.2325 1.39399 14.1485 1.33443 14.0469C1.28048 13.9556 1.25202 13.8514 1.25202 13.7454C1.25202 13.6393 1.28048 13.5351 1.33443 13.4438L8.16646 1.57896C8.22723 1.47784 8.31312 1.39417 8.4158 1.33608C8.51847 1.278 8.63443 1.24747 8.7524 1.24747C8.87037 1.24747 8.98633 1.278 9.089 1.33608C9.19168 1.39417 9.27758 1.47784 9.33834 1.57896L16.1704 13.4438C16.2238 13.5354 16.2518 13.6397 16.2512 13.7458C16.2507 13.8519 16.2217 13.9559 16.1672 14.0469ZM8.12584 9.37505V6.25005C8.12584 6.08429 8.19169 5.92532 8.3089 5.80811C8.42611 5.6909 8.58508 5.62505 8.75084 5.62505C8.9166 5.62505 9.07557 5.6909 9.19278 5.80811C9.30999 5.92532 9.37584 6.08429 9.37584 6.25005V9.37505C9.37584 9.54081 9.30999 9.69978 9.19278 9.81699C9.07557 9.9342 8.9166 10.0001 8.75084 10.0001C8.58508 10.0001 8.42611 9.9342 8.3089 9.81699C8.19169 9.69978 8.12584 9.54081 8.12584 9.37505ZM9.68834 12.1876C9.68834 12.373 9.63335 12.5542 9.53034 12.7084C9.42733 12.8626 9.28091 12.9827 9.1096 13.0537C8.9383 13.1246 8.7498 13.1432 8.56794 13.107C8.38608 13.0709 8.21904 12.9816 8.08792 12.8505C7.95681 12.7194 7.86753 12.5523 7.83135 12.3704C7.79518 12.1886 7.81374 12.0001 7.8847 11.8288C7.95566 11.6575 8.07582 11.5111 8.22999 11.408C8.38416 11.305 8.56542 11.2501 8.75084 11.2501C8.99948 11.2501 9.23794 11.3488 9.41375 11.5246C9.58957 11.7005 9.68834 11.9389 9.68834 12.1876Z"
        fill="black" />
</svg>
    