<svg width="16" height="16" viewBox="0 0 16 16" fill="none" xmlns="http://www.w3.org/2000/svg">
    <path
        d="M8.5 5.00002V7.71689L10.7575 9.07127C10.8712 9.13956 10.9531 9.25023 10.9853 9.37893C11.0174 9.50762 10.997 9.64381 10.9288 9.75752C10.8605 9.87123 10.7498 9.95316 10.6211 9.98527C10.4924 10.0174 10.3562 9.99706 10.2425 9.92877L7.7425 8.42877C7.66851 8.38432 7.60729 8.32146 7.56479 8.24633C7.52229 8.17119 7.49997 8.08634 7.5 8.00002V5.00002C7.5 4.86741 7.55268 4.74023 7.64645 4.64647C7.74022 4.5527 7.86739 4.50002 8 4.50002C8.13261 4.50002 8.25979 4.5527 8.35355 4.64647C8.44732 4.74023 8.5 4.86741 8.5 5.00002ZM8 2.00002C7.21125 1.99805 6.42994 2.15254 5.70128 2.45454C4.97263 2.75653 4.31111 3.20004 3.755 3.75939C3.30063 4.21939 2.89688 4.66189 2.5 5.12502V4.00002C2.5 3.86741 2.44732 3.74023 2.35355 3.64647C2.25979 3.5527 2.13261 3.50002 2 3.50002C1.86739 3.50002 1.74021 3.5527 1.64645 3.64647C1.55268 3.74023 1.5 3.86741 1.5 4.00002V6.50002C1.5 6.63263 1.55268 6.7598 1.64645 6.85357C1.74021 6.94734 1.86739 7.00002 2 7.00002H4.5C4.63261 7.00002 4.75979 6.94734 4.85355 6.85357C4.94732 6.7598 5 6.63263 5 6.50002C5 6.36741 4.94732 6.24023 4.85355 6.14647C4.75979 6.0527 4.63261 6.00002 4.5 6.00002H3.0625C3.50938 5.47377 3.95438 4.97814 4.46188 4.46439C5.15678 3.76949 6.04107 3.29477 7.00423 3.09957C7.96739 2.90436 8.96673 2.99732 9.87736 3.36682C10.788 3.73633 11.5696 4.366 12.1244 5.17715C12.6792 5.9883 12.9827 6.94497 12.9969 7.92761C13.0111 8.91026 12.7354 9.8753 12.2043 10.7022C11.6732 11.529 10.9102 12.181 10.0106 12.5767C9.11103 12.9724 8.1148 13.0942 7.1464 12.927C6.17799 12.7597 5.28034 12.3108 4.56563 11.6363C4.51786 11.5911 4.46167 11.5558 4.40026 11.5324C4.33885 11.509 4.27343 11.4979 4.20773 11.4997C4.14204 11.5016 4.07735 11.5164 4.01736 11.5432C3.95738 11.5701 3.90327 11.6085 3.85813 11.6563C3.81298 11.704 3.77769 11.7602 3.75427 11.8216C3.73084 11.883 3.71974 11.9485 3.7216 12.0142C3.72345 12.0799 3.73823 12.1445 3.76509 12.2045C3.79195 12.2645 3.83036 12.3186 3.87813 12.3638C4.59028 13.0358 5.45609 13.5234 6.4 13.7838C7.34391 14.0443 8.33722 14.0698 9.29326 13.8581C10.2493 13.6464 11.139 13.204 11.8847 12.5694C12.6304 11.9347 13.2095 11.1273 13.5713 10.2174C13.9332 9.30753 14.0669 8.32293 13.9607 7.34951C13.8546 6.37609 13.5118 5.44345 12.9623 4.63298C12.4128 3.8225 11.6733 3.15883 10.8083 2.69988C9.94334 2.24093 8.97919 2.00066 8 2.00002Z"
        fill="#334155" />
</svg>
    