<svg width="16" height="16" viewBox="0 0 16 16" fill="none" xmlns="http://www.w3.org/2000/svg">
    <path
        d="M13.5 2.5H2.5C2.23478 2.5 1.98043 2.60536 1.79289 2.79289C1.60536 2.98043 1.5 3.23478 1.5 3.5V13.5C1.50005 13.5852 1.52187 13.669 1.56341 13.7434C1.60494 13.8178 1.66481 13.8804 1.73732 13.9252C1.80983 13.9699 1.89258 13.9954 1.97771 13.9992C2.06285 14.003 2.14754 13.985 2.22375 13.9469L4 13.0588L5.77625 13.9469C5.84572 13.9816 5.92232 13.9997 6 13.9997C6.07768 13.9997 6.15428 13.9816 6.22375 13.9469L8 13.0588L9.77625 13.9469C9.84571 13.9816 9.92232 13.9997 10 13.9997C10.0777 13.9997 10.1543 13.9816 10.2238 13.9469L12 13.0588L13.7762 13.9469C13.8525 13.985 13.9372 14.003 14.0223 13.9992C14.1074 13.9954 14.1902 13.9699 14.2627 13.9252C14.3352 13.8804 14.3951 13.8178 14.4366 13.7434C14.4781 13.669 14.5 13.5852 14.5 13.5V3.5C14.5 3.23478 14.3946 2.98043 14.2071 2.79289C14.0196 2.60536 13.7652 2.5 13.5 2.5ZM13.5 12.6912L12.2238 12.0525C12.1543 12.0177 12.0777 11.9996 12 11.9996C11.9223 11.9996 11.8457 12.0177 11.7762 12.0525L10 12.9412L8.22375 12.0525C8.15428 12.0177 8.07768 11.9996 8 11.9996C7.92232 11.9996 7.84572 12.0177 7.77625 12.0525L6 12.9412L4.22375 12.0525C4.15429 12.0177 4.07768 11.9996 4 11.9996C3.92232 11.9996 3.84571 12.0177 3.77625 12.0525L2.5 12.6912V3.5H13.5V12.6912ZM8.5 7C8.5 6.86739 8.55268 6.74021 8.64645 6.64645C8.74021 6.55268 8.86739 6.5 9 6.5H12C12.1326 6.5 12.2598 6.55268 12.3536 6.64645C12.4473 6.74021 12.5 6.86739 12.5 7C12.5 7.13261 12.4473 7.25979 12.3536 7.35355C12.2598 7.44732 12.1326 7.5 12 7.5H9C8.86739 7.5 8.74021 7.44732 8.64645 7.35355C8.55268 7.25979 8.5 7.13261 8.5 7ZM8.5 9C8.5 8.86739 8.55268 8.74021 8.64645 8.64645C8.74021 8.55268 8.86739 8.5 9 8.5H12C12.1326 8.5 12.2598 8.55268 12.3536 8.64645C12.4473 8.74021 12.5 8.86739 12.5 9C12.5 9.13261 12.4473 9.25979 12.3536 9.35355C12.2598 9.44732 12.1326 9.5 12 9.5H9C8.86739 9.5 8.74021 9.44732 8.64645 9.35355C8.55268 9.25979 8.5 9.13261 8.5 9ZM4 10.5H7C7.13261 10.5 7.25979 10.4473 7.35355 10.3536C7.44732 10.2598 7.5 10.1326 7.5 10V6C7.5 5.86739 7.44732 5.74021 7.35355 5.64645C7.25979 5.55268 7.13261 5.5 7 5.5H4C3.86739 5.5 3.74021 5.55268 3.64645 5.64645C3.55268 5.74021 3.5 5.86739 3.5 6V10C3.5 10.1326 3.55268 10.2598 3.64645 10.3536C3.74021 10.4473 3.86739 10.5 4 10.5ZM4.5 6.5H6.5V9.5H4.5V6.5Z"
        fill="#334155" />
</svg>
    