<svg xmlns="http://www.w3.org/2000/svg" width="1468.124" height="1321.464"
  viewBox="0 0 1468.124 1321.464">
  <g id="Group_32265" data-name="Group 32265" transform="translate(-100.039 -93.313)">
    <path id="Path_28490" data-name="Path 28490"
      d="M544.42,981.78a130.788,130.788,0,0,1-102.03,37.63,197.514,197.514,0,0,0-138.93,43.73c-.14.12-.29.23-.43.35q-3.69,3.015-7.26,6.24c-.18.16-.36.32-.53.49-.97.88-1.94,1.78-2.9,2.69-.26.25-.52.49-.78.74q-1.665,1.59-3.31,3.22s0,.01-.02.02l-.02.02c-1.36,1.36-2.68,2.73-3.99,4.11-.34.36-.67.72-1,1.08-.98,1.06-1.96,2.12-2.91,3.19l-1.08,1.23c-.95,1.08-1.88,2.17-2.8,3.26-.3.36-.61.72-.91,1.08q-1.605,1.95-3.17,3.93c-.12.15-.24.29-.35.44q-3.66,4.68-6.99,9.53a.833.833,0,0,0-.08.12q-1.605,2.325-3.13,4.7c-.08.12-.16.25-.24.37q-1.53,2.385-2.99,4.8c-.01.02-.02.03-.03.05-45.86,76.09-35.98,176.37,29.67,242.01s165.93,75.53,242.01,29.67c.02,0,.03-.02.05-.03q2.415-1.455,4.8-2.99c.12-.08.25-.16.37-.24,1.58-1.02,3.14-2.06,4.7-3.13a.823.823,0,0,1,.12-.08q4.845-3.33,9.53-6.99l.44-.35c1.32-1.04,2.63-2.09,3.93-3.17.36-.3.72-.6,1.08-.91,1.09-.92,2.18-1.85,3.26-2.8l1.23-1.08q1.605-1.44,3.19-2.91c.36-.34.72-.66,1.08-1,1.38-1.31,2.76-2.63,4.11-3.99l.02-.02.02-.02c1.09-1.09,2.16-2.2,3.22-3.31.25-.26.49-.52.74-.78.91-.96,1.8-1.93,2.69-2.9.16-.18.33-.35.49-.53,2.15-2.38,4.22-4.8,6.24-7.26.12-.14.23-.29.35-.43a197.514,197.514,0,0,0,43.73-138.93,130.824,130.824,0,0,1,37.63-102.03L852.96,910.88,735.63,790.56,544.42,981.77Zm2.82,304.91-50.61,50.61-69.13,18.53-69.14-18.52-50.62-50.61-18.53-69.14,18.52-69.14,50.61-50.62,69.14-18.53,69.14,18.52,50.62,50.61,18.53,69.14-18.53,69.14Z" />
    <path id="Path_28491" data-name="Path 28491"
      d="M1543.75,265.49,1430.2,379.04l-133.22-30.98L1266,214.84l113.55-113.55a197.907,197.907,0,0,0-228.64,209.62,130.846,130.846,0,0,1-37.63,102.04L954.02,572.21l121.34,116.31L1232.1,531.78a130.8,130.8,0,0,1,102.04-37.63,197.907,197.907,0,0,0,209.62-228.64Z" />
    <path id="Path_28498" data-name="Path 28498"
      d="M547.9,498.32a1,1,0,0,0-.14.1,82.364,82.364,0,0,1-62.06,11.84c-43.12-8.98-94.07,3.11-109.47,11.98-11.01,6.34-14.33,8.92-22.85,17.84-23.99,25.11,3.35,74.37-7.84,101.31-10,24.1-58.42,73.68-81.69,85.49-19.17,9.73-43.51,6.24-61.78-8.49-10.08-8.13-49.97-45.68-59.25-54.65-9.39-8.86-18.44-18.07-27.02-27.77-15.55-17.57-20.15-41.73-11.3-61.32,10.74-23.78,58.07-74.4,81.69-85.49,26.41-12.4,72.54,8.53,96.53-16.57,11.6-12.14,10.35-15.68,17-32.19,2.74-9.69,5.46-19.31,8.2-28.99,7.47-40.95,24.86-87.17,68.13-132.46,51.17-53.55,97.43-101.97,179.18-141.29,120.37-56.29,254.5-45.3,283.99-39.29,69,14.06,112.57,51.04,63.79,52.15-260.99-9.4-258.42,100.7-235.64,164.38a81.063,81.063,0,0,1-6.56,68.03c-.37.63-.8,1.32-1.3,2.05L547.88,498.34Z" />
    <path id="Path_28499" data-name="Path 28499"
      d="M545.75,481.64c8.5-5.05,20.18-3.09,28.02,4.98L814.32,734.31c6.14,6.35,7.86,15.45,4.28,22.37a7.557,7.557,0,0,0-.41.92c-3.67,10.35-.42,23.69,9.19,33.76l551.76,570.25c49.35,51.59,118.66,65.51,162.69,21.48s30.12-113.34-21.48-162.69L953.14,665.6c-10.54-10.05-24.65-13.15-35.18-8.63-.03.01-.05.02-.08.03-6.94,3.14-15.68,1.44-21.86-4.53L650.21,413.76c-8.26-8.02-10.27-20.14-4.66-28.52l-99.8,96.4Z" />
  </g>
</svg>