<svg width="24" height="25" viewBox="0 0 24 25" fill="none" xmlns="http://www.w3.org/2000/svg">
    <path d="M16.3716 8.12656C16.1218 6.7835 15.5099 5.53418 14.602 4.51345C13.6941 3.49272 12.5246 2.73935 11.2198 2.33466C9.91506 1.92997 8.52453 1.88934 7.19836 2.21714C5.87218 2.54495 4.66072 3.22874 3.69475 4.19472C2.72877 5.16069 2.04498 6.37215 1.71717 7.69832C1.38937 9.0245 1.43 10.415 1.83469 11.7198C2.23938 13.0246 2.99275 14.194 4.01348 15.102C5.03421 16.0099 6.28353 16.6218 7.62659 16.8716C7.87639 18.2146 8.48828 19.4639 9.39619 20.4847C10.3041 21.5054 11.4736 22.2588 12.7783 22.6635C14.0831 23.0681 15.4736 23.1088 16.7998 22.781C18.126 22.4532 19.3375 21.7694 20.3034 20.8034C21.2694 19.8374 21.9532 18.626 22.281 17.2998C22.6088 15.9736 22.5682 14.5831 22.1635 13.2783C21.7588 11.9735 21.0054 10.8041 19.9847 9.89616C18.964 8.98825 17.7146 8.37636 16.3716 8.12656ZM21 15.5C21 15.6425 20.9935 15.7812 20.9832 15.9228L16.2957 11.2353C16.4173 10.7279 16.4858 10.2091 16.5 9.68749C17.79 10.0174 18.933 10.7682 19.7481 11.821C20.5632 12.8739 21.0038 14.1685 21 15.5ZM13.7438 15.3041L18.676 20.2372C18.214 20.5963 17.702 20.8859 17.1563 21.0969L12.2944 16.235C12.8115 15.981 13.2978 15.6687 13.7438 15.3041ZM14.8041 14.2437C15.1686 13.7983 15.4809 13.3127 15.735 12.7962L20.5969 17.6562C20.3858 18.2014 20.0962 18.7127 19.7372 19.1741L14.8041 14.2437ZM3.00003 9.49999C3.00003 8.31331 3.35192 7.15327 4.01121 6.16657C4.6705 5.17988 5.60757 4.41084 6.70392 3.95672C7.80028 3.50259 9.00668 3.38377 10.1706 3.61528C11.3345 3.84679 12.4036 4.41824 13.2427 5.25735C14.0818 6.09647 14.6532 7.16557 14.8847 8.32945C15.1162 9.49334 14.9974 10.6997 14.5433 11.7961C14.0892 12.8925 13.3201 13.8295 12.3334 14.4888C11.3468 15.1481 10.1867 15.5 9.00003 15.5C7.40926 15.4983 5.88414 14.8656 4.7593 13.7407C3.63446 12.6159 3.00176 11.0908 3.00003 9.49999ZM9.18753 17C9.70868 16.9873 10.2271 16.9204 10.7344 16.8003L15.4219 21.4878C15.2822 21.4981 15.1407 21.5047 14.9991 21.5047C13.6672 21.508 12.3722 21.0666 11.3195 20.2506C10.2668 19.4346 9.51649 18.2907 9.18753 17Z" fill="black"/>
    </svg>
    