<svg id="image-play" xmlns="http://www.w3.org/2000/svg" width="21.113" height="21.076" viewBox="0 0 21.113 21.076">
  <path id="Vector" d="M9.707,14.707a1,1,0,0,0-1.414-1.414ZM3.293,18.293a1,1,0,1,0,1.414,1.414ZM9,20a1,1,0,0,0,0-2ZM1,17H1ZM3,1V1ZM17,1V1Zm1,8.5a1,1,0,0,0,2,0ZM13.765,20l.53.848h0ZM13,19.576h0Zm0-8.2h0Zm.765-.424.53-.848h0Zm5.878,3.674-.53.848h0Zm0,1.7-.53-.848h0ZM8.293,13.293l-5,5,1.414,1.414,5-5ZM9,18H3v2H9ZM3,18a1,1,0,0,1-.707-.293L.879,19.121A3,3,0,0,0,3,20Zm-.707-.293A1,1,0,0,1,2,17H0a3,3,0,0,0,.879,2.121ZM2,17V3H0V17ZM2,3a1,1,0,0,1,.293-.707L.879.879A3,3,0,0,0,0,3Zm.293-.707A1,1,0,0,1,3,2V0A3,3,0,0,0,.879.879ZM3,2H17V0H3ZM17,2a1,1,0,0,1,.707.293L19.121.879A3,3,0,0,0,17,0Zm.707.293A1,1,0,0,1,18,3h2A3,3,0,0,0,19.121.879ZM18,3V9.5h2V3ZM13.235,19.152a.5.5,0,0,1,.252-.076l.052,2a1.5,1.5,0,0,0,.756-.228Zm.252-.076a.5.5,0,0,1,.255.063l-.97,1.749a1.5,1.5,0,0,0,.767.188Zm.255.063a.5.5,0,0,1,.188.184l-1.723,1.015a1.5,1.5,0,0,0,.565.551Zm.188.184a.5.5,0,0,1,.069.254H12a1.5,1.5,0,0,0,.208.761Zm.069.254v-8.2H12v8.2Zm0-8.2a.5.5,0,0,1-.069.254l-1.723-1.015A1.5,1.5,0,0,0,12,11.38Zm-.069.254a.5.5,0,0,1-.188.184l-.97-1.749a1.5,1.5,0,0,0-.565.551Zm-.188.183a.5.5,0,0,1-.255.063l.052-2a1.5,1.5,0,0,0-.767.188Zm-.255.063a.5.5,0,0,1-.252-.076l1.06-1.7a1.5,1.5,0,0,0-.756-.227Zm-.252-.076,5.878,3.674,1.06-1.7-5.878-3.674Zm5.878,3.674h0l1.749-.97a2,2,0,0,0-.689-.726Zm0,0h2a2,2,0,0,0-.251-.97Zm0,0h0l1.749.969a2,2,0,0,0,.251-.969Zm0,0h0l1.06,1.7a2,2,0,0,0,.689-.726Zm0,0-5.878,3.674,1.06,1.7,5.878-3.674ZM8,7A1,1,0,0,1,7,8v2a3,3,0,0,0,3-3ZM7,8A1,1,0,0,1,6,7H4a3,3,0,0,0,3,3ZM6,7A1,1,0,0,1,7,6V4A3,3,0,0,0,4,7ZM7,6A1,1,0,0,1,8,7h2A3,3,0,0,0,7,4Z" fill="#09090b"/>
</svg>
