<svg id="image" xmlns="http://www.w3.org/2000/svg" width="20" height="20" viewBox="0 0 20 20">
  <path id="Vector" d="M18.293,13.707a1,1,0,1,0,1.414-1.414ZM15.914,9.914l.707-.707h0Zm-2.828,0-.707-.707h0ZM3.293,18.293a1,1,0,1,0,1.414,1.414ZM3,2H17V0H3ZM17,2a1,1,0,0,1,1,1h2a3,3,0,0,0-3-3Zm1,1V17h2V3Zm0,14a1,1,0,0,1-1,1v2a3,3,0,0,0,3-3Zm-1,1H3v2H17ZM3,18a1,1,0,0,1-1-1H0a3,3,0,0,0,3,3ZM2,17V3H0V17ZM2,3A1,1,0,0,1,3,2V0A3,3,0,0,0,0,3ZM8,7A1,1,0,0,1,7,8v2a3,3,0,0,0,3-3ZM7,8A1,1,0,0,1,6,7H4a3,3,0,0,0,3,3ZM6,7A1,1,0,0,1,7,6V4A3,3,0,0,0,4,7ZM7,6A1,1,0,0,1,8,7h2A3,3,0,0,0,7,4Zm12.707,6.293L16.621,9.207l-1.414,1.414,3.086,3.086ZM16.621,9.207A3,3,0,0,0,14.5,8.328v2a1,1,0,0,1,.707.293ZM14.5,8.328a3,3,0,0,0-2.121.878l1.414,1.414a1,1,0,0,1,.707-.293Zm-2.121.878L3.293,18.293l1.414,1.414,9.086-9.086Z" fill="#09090b"/>
</svg>
