<svg id="image-off" xmlns="http://www.w3.org/2000/svg" width="22" height="22" viewBox="0 0 22 22">
  <path id="Vector" d="M1.707.293A1,1,0,0,0,.293,1.707ZM20.293,21.707a1,1,0,0,0,1.414-1.414ZM10.117,10.117A1,1,0,1,0,8.7,8.7ZM7.995,10v0Zm-2-2h0Zm1.293-.708A1,1,0,0,0,5.873,5.873Zm5.92,5.92a1,1,0,0,0-1.414-1.414ZM4.293,19.293a1,1,0,0,0,1.414,1.414Zm13.414-9a1,1,0,0,0-1.414,1.414ZM20,14l-.707.707A1,1,0,0,0,21,14ZM3.294,3.3A1,1,0,0,0,1.886,1.879ZM2,4,1,4V4ZM2,18H2Zm18.129,2.105a1,1,0,0,0-1.437-1.391ZM18,2V2ZM8,1A1,1,0,0,0,8,3ZM.293,1.707l20,20,1.414-1.414-20-20Zm8.41,7a1,1,0,0,1-.325.217l.765,1.848a3,3,0,0,0,.974-.651Zm-.325.217A1,1,0,0,1,7.995,9v2a3,3,0,0,0,1.148-.228ZM7.995,9a1,1,0,0,1-.383-.076l-.765,1.848A3,3,0,0,0,7.995,11ZM7.612,8.92A1,1,0,0,1,7.287,8.7L5.873,10.117a3,3,0,0,0,.974.651ZM7.287,8.7a1,1,0,0,1-.217-.325l-1.848.765a3,3,0,0,0,.651.974ZM7.07,8.378A1,1,0,0,1,6.994,8h-2a3,3,0,0,0,.228,1.148ZM6.994,8a1,1,0,0,1,.076-.383L5.222,6.847A3,3,0,0,0,4.994,8Zm.076-.383a1,1,0,0,1,.217-.325L5.873,5.873a3,3,0,0,0-.651.974Zm4.723,4.181-7.5,7.5,1.414,1.414,7.5-7.5Zm4.5-.086,3,3,1.414-1.414-3-3ZM1.886,1.879a2.99,2.99,0,0,0-.655.971l1.845.772A.99.99,0,0,1,3.294,3.3Zm-.655.971A2.99,2.99,0,0,0,1,4L3,4a.99.99,0,0,1,.077-.38ZM1,4V18H3V4ZM1,18a3,3,0,0,0,.879,2.121l1.414-1.414A1,1,0,0,1,3,18Zm.879,2.121A3,3,0,0,0,4,21V19a1,1,0,0,1-.707-.293ZM4,21H18V19H4Zm14,0a2.952,2.952,0,0,0,2.129-.895l-1.437-1.391A.952.952,0,0,1,18,19Zm3-7V4H19V14ZM21,4a3,3,0,0,0-.879-2.121L18.707,3.293A1,1,0,0,1,19,4Zm-.879-2.121A3,3,0,0,0,18,1V3a1,1,0,0,1,.707.293ZM18,1H8V3H18Z" transform="translate(0)" fill="#09090b"/>
</svg>
