<svg id="infinity" xmlns="http://www.w3.org/2000/svg" width="22" height="10" viewBox="0 0 22 10">
  <path id="Vector" d="M5,1V1ZM1,5H1ZM5,9V9ZM17,9V9Zm0-8V1ZM11.8,4.4C9.736,1.644,7.476,0,5,0V2c1.524,0,3.264,1.016,5.2,3.6ZM5,0A5,5,0,0,0,1.464,1.464L2.879,2.879A3,3,0,0,1,5,2ZM1.464,1.464A5,5,0,0,0,0,5H2a3,3,0,0,1,.879-2.121ZM0,5A5,5,0,0,0,1.464,8.536L2.879,7.121A3,3,0,0,1,2,5ZM1.464,8.536A5,5,0,0,0,5,10V8a3,3,0,0,1-2.121-.879ZM5,10c2.476,0,4.736-1.644,6.8-4.4L10.2,4.4C8.264,6.984,6.524,8,5,8Zm5.2-4.4C12.265,8.356,14.524,10,17,10V8c-1.524,0-3.264-1.016-5.2-3.6ZM17,10a5,5,0,0,0,3.535-1.464L19.121,7.121A3,3,0,0,1,17,8Zm3.535-1.464A5,5,0,0,0,22,5H20a3,3,0,0,1-.879,2.121ZM22,5a5,5,0,0,0-1.465-3.536L19.121,2.879A3,3,0,0,1,20,5ZM20.535,1.464A5,5,0,0,0,17,0V2a3,3,0,0,1,2.121.879ZM17,0c-2.476,0-4.736,1.644-6.8,4.4l1.6,1.2C13.735,3.016,15.476,2,17,2Z" fill="#09090b"/>
</svg>
