<svg id="inspection-panel" xmlns="http://www.w3.org/2000/svg" width="20" height="20" viewBox="0 0 20 20">
  <path id="Vector" d="M5,4A1,1,0,0,0,5,6Zm.01,2a1,1,0,0,0,0-2ZM15,4a1,1,0,0,0,0,2Zm.01,2a1,1,0,0,0,0-2ZM5,14a1,1,0,0,0,0,2Zm.01,2a1,1,0,0,0,0-2ZM15,14a1,1,0,0,0,0,2Zm.01,2a1,1,0,0,0,0-2ZM3,2H17V0H3ZM17,2a1,1,0,0,1,1,1h2a3,3,0,0,0-3-3Zm1,1V17h2V3Zm0,14a1,1,0,0,1-1,1v2a3,3,0,0,0,3-3Zm-1,1H3v2H17ZM3,18a1,1,0,0,1-1-1H0a3,3,0,0,0,3,3ZM2,17V3H0V17ZM2,3A1,1,0,0,1,3,2V0A3,3,0,0,0,0,3ZM5,6h.01V4H5ZM15,6h.01V4H15ZM5,16h.01V14H5Zm10,0h.01V14H15Z" fill="#09090b"/>
</svg>
