<svg id="iteration-ccw" xmlns="http://www.w3.org/2000/svg" width="18" height="22" viewBox="0 0 18 22">
  <path id="Vector" d="M16,9a1,1,0,0,0,2,0Zm1,8,.707.707a1,1,0,0,0,0-1.414Zm-3.293-4.707a1,1,0,0,0-1.414,1.414Zm-1.414,8a1,1,0,0,0,1.414,1.414ZM18,9A9.023,9.023,0,0,0,9,0V2a7.024,7.024,0,0,1,7,7ZM9,0A9.024,9.024,0,0,0,0,9H2A7.024,7.024,0,0,1,9,2ZM0,9a9.023,9.023,0,0,0,9,9V16A7.024,7.024,0,0,1,2,9Zm9,9h8V16H9Zm3.293-4.293,4,4,1.414-1.414-4-4Zm4,2.586-4,4,1.414,1.414,4-4Z" fill="#09090b"/>
</svg>
