<svg id="key-square" xmlns="http://www.w3.org/2000/svg" width="21.975" height="21.975" viewBox="0 0 21.975 21.975">
  <path id="Vector" d="M11.4,1.675,10.693.968h0Zm3.4,0,.707-.707h0Zm5.5,5.5-.707.707h0Zm0,3.4-.707-.707h0Zm-3.7,3.7.707.707h0Zm-3.4,0-.707.707h0Zm-5.5-5.5.707-.707h0Zm0-3.4.707.707h0Zm6.007-.107a1,1,0,1,0-1.414,1.414Zm1.586,4.414a1,1,0,0,0,1.414-1.414Zm-6.186.6A1,1,0,0,0,7.693,8.868ZM1,16.975l-.707-.707A1,1,0,0,0,0,16.975Zm5,4v1a1,1,0,0,0,1-1Zm0-3v-1a1,1,0,0,0-1,1Zm3,0v1a1,1,0,0,0,1-1Zm0-3v-1a1,1,0,0,0-1,1Zm2,0v1a1,1,0,0,0,.707-.293Zm2.107-.693a1,1,0,0,0-1.414-1.414Zm-1-11.9a1.481,1.481,0,0,1,1.986,0L15.507.968a3.477,3.477,0,0,0-4.814,0Zm1.986,0,5.5,5.5,1.414-1.414-5.5-5.5Zm5.5,5.5a1.481,1.481,0,0,1,0,1.986l1.414,1.414a3.477,3.477,0,0,0,0-4.814Zm0,1.986-3.7,3.7,1.414,1.414,3.7-3.7Zm-3.7,3.7a1.481,1.481,0,0,1-1.986,0l-1.414,1.414a3.477,3.477,0,0,0,4.814,0Zm-1.986,0-5.5-5.5L6.993,9.482l5.5,5.5Zm-5.5-5.5a1.481,1.481,0,0,1,0-1.986L6.993,4.668a3.477,3.477,0,0,0,0,4.814Zm0-1.986,3.7-3.7L10.693.968l-3.7,3.7Zm3.886.6,3,3,1.414-1.414-3-3Zm-4.6,2.186-7.4,7.4,1.414,1.414,7.4-7.4ZM0,16.975v3H2v-3Zm0,3a2,2,0,0,0,.568,1.432A2,2,0,0,0,2,21.975v-2a.169.169,0,0,1-.05-.005l.012.006A.13.13,0,0,1,2,20.014a.066.066,0,0,1,.006.012A.169.169,0,0,1,2,19.975Zm2,2H6v-2H2Zm5-1v-3H5v3Zm-1-2H9v-2H6Zm4-1v-3H8v3Zm-1-2h2v-2H9Zm2.707-.293,1.4-1.4-1.414-1.414-1.4,1.4Z" transform="translate(0 0)" fill="#09090b"/>
</svg>
