<svg id="key" xmlns="http://www.w3.org/2000/svg" width="21.586" height="21" viewBox="0 0 21.586 21">
  <path id="Vector" d="M15.207,5.793a1,1,0,0,0-1.414,1.414ZM16.8,8.8l-.707.707.007.007Zm1.4,0,.7.714.007-.007Zm2.1-2.1.707.707.007-.007Zm.286-.7h0ZM20.3,5.3l.714-.7-.007-.007ZM18.707,2.293a1,1,0,0,0-1.414,1.414Zm2-.586A1,1,0,1,0,19.293.293ZM9.693,9.893a1,1,0,0,0,1.414,1.414Zm4.1-2.686,2.3,2.3,1.414-1.414-2.3-2.3ZM16.1,9.514a2,2,0,0,0,1.4.572v-2h0Zm1.4.572a2,2,0,0,0,1.4-.572L17.5,8.086h0Zm1.407-.579,2.1-2.1L19.593,5.993l-2.1,2.1ZM21.014,7.4A2,2,0,0,0,21.586,6h-2ZM21.586,6a2,2,0,0,0-.572-1.4L19.586,6h2Zm-.579-1.407-2.3-2.3L17.293,3.707l2.3,2.3ZM19.293.293l-9.6,9.6,1.414,1.414,9.6-9.6ZM11,14.5A4.5,4.5,0,0,1,6.5,19v2A6.5,6.5,0,0,0,13,14.5ZM6.5,19A4.5,4.5,0,0,1,2,14.5H0A6.5,6.5,0,0,0,6.5,21ZM2,14.5A4.5,4.5,0,0,1,6.5,10V8A6.5,6.5,0,0,0,0,14.5ZM6.5,10A4.5,4.5,0,0,1,11,14.5h2A6.5,6.5,0,0,0,6.5,8Z" transform="translate(0 0)" fill="#09090b"/>
</svg>
