<svg id="keyboard-music" xmlns="http://www.w3.org/2000/svg" width="22" height="18" viewBox="0 0 22 18">
  <path id="Vector" d="M5,4A1,1,0,0,0,5,6ZM9,6A1,1,0,0,0,9,4Zm4-2a1,1,0,0,0,0,2Zm.01,2a1,1,0,0,0,0-2ZM17,4a1,1,0,0,0,0,2Zm.01,2a1,1,0,0,0,0-2ZM1,8a1,1,0,0,0,0,2Zm20,2a1,1,0,0,0,0-2ZM6,9A1,1,0,0,0,4,9ZM4,13a1,1,0,0,0,2,0Zm6-4A1,1,0,0,0,8,9ZM8,13a1,1,0,0,0,2,0Zm6-4a1,1,0,0,0-2,0Zm-2,4a1,1,0,0,0,2,0Zm6-4a1,1,0,0,0-2,0Zm-2,4a1,1,0,0,0,2,0ZM3,2H19V0H3ZM19,2a1,1,0,0,1,1,1h2a3,3,0,0,0-3-3Zm1,1V15h2V3Zm0,12a1,1,0,0,1-1,1v2a3,3,0,0,0,3-3Zm-1,1H3v2H19ZM3,16a1,1,0,0,1-1-1H0a3,3,0,0,0,3,3ZM2,15V3H0V15ZM2,3A1,1,0,0,1,3,2V0A3,3,0,0,0,0,3ZM5,6H9V4H5Zm8,0h.01V4H13Zm4,0h.01V4H17ZM1,10H21V8H1ZM4,9v4H6V9ZM8,9v4h2V9Zm4,0v4h2V9Zm4,0v4h2V9Z" fill="#09090b"/>
</svg>
