<svg id="lamp-wall-up" xmlns="http://www.w3.org/2000/svg" width="18" height="19" viewBox="0 0 18 19">
  <path id="Vector" d="M8,1V0a1,1,0,0,0-.919.606Zm6,0,.919-.394A1,1,0,0,0,14,0Zm3,7V9a1,1,0,0,0,.919-1.394ZM5,8l-.919-.394A1,1,0,0,0,5,9Zm7,0a1,1,0,0,0-2,0ZM5,14a1,1,0,0,0,0,2ZM1,12V11a1,1,0,0,0-1,1Zm4,2H5Zm0,2H5ZM1,18H0a1,1,0,0,0,1,1ZM8,2h6V0H8Zm5.081-.606,3,7,1.838-.788-3-7ZM17,7H5V9H17ZM5.919,8.394l3-7L7.081.606l-3,7ZM10,8v5h2V8Zm0,5a1,1,0,0,1-.293.707l1.414,1.414A3,3,0,0,0,12,13Zm-.293.707A1,1,0,0,1,9,14v2a3,3,0,0,0,2.121-.879ZM9,14H5v2H9ZM1,13H3V11H1Zm2,0a1,1,0,0,1,.707.293l1.414-1.414A3,3,0,0,0,3,11Zm.707.293A1,1,0,0,1,4,14H6a3,3,0,0,0-.879-2.121ZM4,14v2H6V14Zm0,2a1,1,0,0,1-.293.707l1.414,1.414A3,3,0,0,0,6,16Zm-.293.707A1,1,0,0,1,3,17v2a3,3,0,0,0,2.121-.879ZM3,17H1v2H3ZM2,18V12H0v6Z" fill="#09090b"/>
</svg>
