<svg id="lamp" xmlns="http://www.w3.org/2000/svg" width="18" height="22" viewBox="0 0 18 22">
  <path id="Vector" d="M5,1V0a1,1,0,0,0-.928.629Zm8,0,.929-.371A1,1,0,0,0,13,0Zm4,10v1a1,1,0,0,0,.929-1.371ZM1,11l-.928-.371A1,1,0,0,0,1,12Zm9,0a1,1,0,0,0-2,0ZM8,17a1,1,0,0,0,2,0ZM5,21H4a1,1,0,0,0,1,1Zm8,0v1a1,1,0,0,0,1-1ZM5,2h8V0H5Zm7.071-.629,4,10,1.857-.743-4-10ZM17,10H1v2H17ZM1.928,11.371l4-10L4.072.629l-4,10ZM8,11v6h2V11ZM6,21V19H4v2Zm0-2a1.006,1.006,0,0,1,1-1V16a3.006,3.006,0,0,0-3,3Zm1-1h4V16H7Zm4,0a1,1,0,0,1,.707.293l1.414-1.414A3,3,0,0,0,11,16Zm.707.293A1,1,0,0,1,12,19h2a3,3,0,0,0-.879-2.121ZM12,19v2h2V19Zm1,1H5v2h8Z" transform="translate(0)" fill="#09090b"/>
</svg>
