<svg id="lamp-desk" xmlns="http://www.w3.org/2000/svg" width="20" height="22" viewBox="0 0 20 22">
  <path id="Vector" d="M11,14l-.962.275a1,1,0,0,0,1.669.432Zm8-8,.707.707a1,1,0,0,0-.432-1.669ZM6,4l-.707-.707a1,1,0,0,0,0,1.414ZM9,1,9.707.293a1,1,0,0,0-1.414,0ZM8.207,6.207A1,1,0,0,0,6.793,4.793ZM2,11l-.707-.707a1,1,0,0,0-.187,1.154Zm2.106,6.447a1,1,0,0,0,1.789-.894ZM1,21H0a1,1,0,0,0,1,1Zm8,0v1a1,1,0,0,0,1-1ZM11.293,3.293l-3,3L9.707,7.707l3-3ZM8.038,7.275l2,7,1.923-.549-2-7Zm3.669,7.432,8-8L18.293,5.293l-8,8Zm7.568-9.669-7-2-.549,1.923,7,2ZM9.707,6.293l-3-3L5.293,4.707l3,3Zm-3-1.586,3-3L8.293.293l-3,3Zm1.586-3,3,3,1.414-1.414-3-3Zm-1.5,3.086-5.5,5.5,1.414,1.414,5.5-5.5ZM1.106,11.447l3,6,1.789-.894-3-6ZM2,21V19H0v2Zm0-2a1.006,1.006,0,0,1,1-1V16a3.006,3.006,0,0,0-3,3Zm1-1H7V16H3Zm4,0a1,1,0,0,1,.707.293l1.414-1.414A3,3,0,0,0,7,16Zm.707.293A1,1,0,0,1,8,19h2a3,3,0,0,0-.879-2.121ZM8,19v2h2V19Zm1,1H1v2H9Z" fill="#09090b"/>
</svg>
