<svg id="land-plot" xmlns="http://www.w3.org/2000/svg" width="22.014" height="21.998" viewBox="0 0 22.014 21.998">
  <path id="Vector" d="M10.56,6.106a1,1,0,0,0,.894,1.789ZM17.007,4l.447.894a1,1,0,0,0,0-1.789Zm-6-3,.447-.894A1,1,0,0,0,10.007,1Zm-1,10a1,1,0,1,0,2,0Zm-2.5.858a1,1,0,1,0-.992-1.737Zm-6,2.272L2,15l0,0ZM1,15H1Zm.507.87L2,15l0,0Zm8.5,4.86.5-.866,0,0Zm2,0-.5-.868,0,0Zm8.5-4.86L20.014,15l0,0Zm0-1.74L20.012,15h0Zm-5.005-4a1,1,0,1,0-.989,1.738Zm-9.508.851A1,1,0,1,0,5,12.718Zm10.027,8.036a1,1,0,1,0,.993-1.736Zm.993-6.3a1,1,0,1,0-.993-1.736Zm-12,4.564A1,1,0,1,0,6,19.018Zm6.444-9.388,6-3L16.56,3.106l-6,3Zm6-4.789-6-3L10.56,1.894l6,3ZM10.007,1V11h2V1Zm-3.5,9.122-5.5,3.14L2,15l5.5-3.14Zm-5.5,3.138a2,2,0,0,0-.742.733L2,15H2Zm-.742.733A2,2,0,0,0,0,15H2ZM0,15a2,2,0,0,0,.272,1.007L2,15H0Zm.272,1.007a2,2,0,0,0,.742.733L2,15H2Zm.739.731,8.5,4.86.993-1.736L2,15Zm8.5,4.858a3,3,0,0,0,1.5.4V20a1,1,0,0,1-.5-.134Zm1.5.4a3,3,0,0,0,1.5-.4l-1-1.732a1,1,0,0,1-.5.134Zm1.5-.4,8.5-4.86L20.011,15l-8.5,4.86ZM21,16.74a2,2,0,0,0,.742-.733L20.014,15h0Zm.742-.733A2,2,0,0,0,22.014,15h-2ZM22.014,15a2,2,0,0,0-.272-1.007L20.014,15h2Zm-.272-1.007A2,2,0,0,0,21,13.26L20.014,15h0ZM21,13.261l-5.5-3.13-.989,1.738,5.5,3.13ZM5,12.718l11.02,6.3.993-1.736-11.02-6.3Zm11.02-1.736-11.01,6.3L6,19.018l11.01-6.3Z" transform="translate(0 0)" fill="#09090b"/>
</svg>
