<svg id="laptop" xmlns="http://www.w3.org/2000/svg" width="20.774" height="17" viewBox="0 0 20.774 17">
  <path id="Vector" d="M16.387,1V1Zm-12,0V1Zm-2,2h0Zm17.28,11.55L18.773,15h0Zm-.9,1.45.007-1h-.007ZM2.007,16V15H2Zm-.9-1.45L2,15H2ZM19.387,12V3h-2v9Zm0-9A3,3,0,0,0,18.508.879L17.094,2.293A1,1,0,0,1,17.387,3ZM18.508.879A3,3,0,0,0,16.387,0V2a1,1,0,0,1,.707.293ZM16.387,0h-12V2h12Zm-12,0A3,3,0,0,0,2.266.879L3.68,2.293A1,1,0,0,1,4.387,2ZM2.266.879A3,3,0,0,0,1.387,3h2a1,1,0,0,1,.293-.707ZM1.387,3v9h2V3Zm17,8h-16v2h16Zm-.894,1.449L18.773,15l1.787-.9-1.28-2.55ZM18.774,15h0l2,.089a2,2,0,0,0-.212-.989Zm0,0h0l1.7,1.055a2,2,0,0,0,.3-.966Zm0,0h0l.966,1.751a2,2,0,0,0,.733-.7Zm0,0h0l-.014,2a2,2,0,0,0,.98-.249Zm-.007,0H2.007v2h16.76ZM2,15H2l-.966,1.751a2,2,0,0,0,.98.249Zm0,0H2L.3,16.055a2,2,0,0,0,.733.7Zm0,0H2l-2,.089a2,2,0,0,0,.3.966Zm0,0H2L.214,14.1A2,2,0,0,0,0,15.089Zm0,0,1.28-2.55-1.787-.9L.213,14.1Z" transform="translate(0)" fill="#09090b"/>
</svg>
