<svg id="layout-list" xmlns="http://www.w3.org/2000/svg" width="20" height="20" viewBox="0 0 20 20">
  <path id="Vector" d="M12,1a1,1,0,0,0,0,2Zm7,2a1,1,0,0,0,0-2ZM12,6a1,1,0,0,0,0,2Zm7,2a1,1,0,0,0,0-2Zm-7,4a1,1,0,0,0,0,2Zm7,2a1,1,0,0,0,0-2Zm-7,3a1,1,0,0,0,0,2Zm7,2a1,1,0,0,0,0-2ZM2,2H7V0H2ZM7,2H9A2,2,0,0,0,7,0ZM7,2V7H9V2ZM7,7V9A2,2,0,0,0,9,7ZM7,7H2V9H7ZM2,7H0A2,2,0,0,0,2,9ZM2,7V2H0V7ZM2,2V0A2,2,0,0,0,0,2ZM2,13H7V11H2Zm5,0H9a2,2,0,0,0-2-2Zm0,0v5H9V13Zm0,5v2a2,2,0,0,0,2-2Zm0,0H2v2H7ZM2,18H0a2,2,0,0,0,2,2Zm0,0V13H0v5Zm0-5V11a2,2,0,0,0-2,2ZM12,3h7V1H12Zm0,5h7V6H12Zm0,6h7V12H12Zm0,5h7V17H12Z" fill="#09090b"/>
</svg>
