<svg id="layout-panel-left" xmlns="http://www.w3.org/2000/svg" width="20" height="20" viewBox="0 0 20 20">
  <path id="Vector" d="M2,2H7V0H2ZM7,2H9A2,2,0,0,0,7,0ZM7,2V18H9V2ZM7,18v2a2,2,0,0,0,2-2Zm0,0H2v2H7ZM2,18H0a2,2,0,0,0,2,2Zm0,0V2H0V18ZM2,2V0A2,2,0,0,0,0,2ZM13,2h5V0H13Zm5,0h2a2,2,0,0,0-2-2Zm0,0V7h2V2Zm0,5V9a2,2,0,0,0,2-2Zm0,0H13V9h5ZM13,7H11a2,2,0,0,0,2,2Zm0,0V2H11V7Zm0-5V0a2,2,0,0,0-2,2Zm0,11h5V11H13Zm5,0h2a2,2,0,0,0-2-2Zm0,0v5h2V13Zm0,5v2a2,2,0,0,0,2-2Zm0,0H13v2h5Zm-5,0H11a2,2,0,0,0,2,2Zm0,0V13H11v5Zm0-5V11a2,2,0,0,0-2,2Z" fill="#09090b"/>
</svg>
