<svg id="layout-dashboard" xmlns="http://www.w3.org/2000/svg" width="20" height="20" viewBox="0 0 20 20">
  <path id="Vector" d="M2,2H7V0H2ZM7,2H9A2,2,0,0,0,7,0ZM7,2V9H9V2ZM7,9v2A2,2,0,0,0,9,9ZM7,9H2v2H7ZM2,9H0a2,2,0,0,0,2,2ZM2,9V2H0V9ZM2,2V0A2,2,0,0,0,0,2ZM13,2h5V0H13Zm5,0h2a2,2,0,0,0-2-2Zm0,0V5h2V2Zm0,3V7a2,2,0,0,0,2-2Zm0,0H13V7h5ZM13,5H11a2,2,0,0,0,2,2Zm0,0V2H11V5Zm0-3V0a2,2,0,0,0-2,2Zm0,9h5V9H13Zm5,0h2a2,2,0,0,0-2-2Zm0,0v7h2V11Zm0,7v2a2,2,0,0,0,2-2Zm0,0H13v2h5Zm-5,0H11a2,2,0,0,0,2,2Zm0,0V11H11v7Zm0-7V9a2,2,0,0,0-2,2ZM2,15H7V13H2Zm5,0H9a2,2,0,0,0-2-2Zm0,0v3H9V15Zm0,3v2a2,2,0,0,0,2-2Zm0,0H2v2H7ZM2,18H0a2,2,0,0,0,2,2Zm0,0V15H0v3Zm0-3V13a2,2,0,0,0-2,2Z" fill="#09090b"/>
</svg>
