<svg id="lectern" xmlns="http://www.w3.org/2000/svg" width="22" height="22" viewBox="0 0 22 22">
  <path id="Vector" d="M15,10a1,1,0,0,0,0,2Zm3,1V10h0Zm1.9-1.38.951.31,0-.008Zm1.056-3.333.953.3,0-.015ZM20,5V6h0ZM2,5V6H2ZM1.042,6.287l-.958.287,0,.015ZM2.1,9.621l-.953.3,0,.009ZM4,11V10H4Zm3,1a1,1,0,1,0,0-2Zm9-7a1,1,0,0,0,2,0Zm0-4V1ZM13,0a1,1,0,0,0,0,2Zm2,12h3V10H15Zm3,0a3,3,0,0,0,1.763-.572L18.588,9.809A1,1,0,0,1,18,10Zm1.763-.572a3,3,0,0,0,1.09-1.5l-1.9-.62a1,1,0,0,1-.363.5Zm1.093-1.506,1.056-3.333L20,5.985,18.949,9.318Zm1.061-3.348a2,2,0,0,0,.054-.921L20,6h0Zm.054-.921a2,2,0,0,0-.365-.847L20,6h0ZM21.6,4.806a2,2,0,0,0-.707-.593L20,6h0ZM20.9,4.213A2,2,0,0,0,20,4V6h0ZM20,4H2V6H20ZM2,4a2,2,0,0,0-.9.213L2,6H2Zm-.9.213A2,2,0,0,0,.4,4.806L2,6H2ZM.4,4.806a2,2,0,0,0-.365.847L2,6H2ZM.03,5.653a2,2,0,0,0,.054.921L2,6H2Zm.058.936L1.145,9.923l1.907-.6L2,5.985ZM1.147,9.932a3,3,0,0,0,1.091,1.5L3.412,9.81a1,1,0,0,1-.364-.5Zm1.091,1.5A3,3,0,0,0,4,12V10a1,1,0,0,1-.587-.19ZM4,12H7V10H4ZM18,5V2H16V5Zm0-3A2,2,0,0,0,17.414.586L16,2h2ZM17.414.586A2,2,0,0,0,16,0V2h0ZM16,0H13V2h3ZM8,10h6V8H8Zm6,0h2a2,2,0,0,0-2-2Zm0,0V20h2V10Zm0,10v2a2,2,0,0,0,2-2Zm0,0H8v2h6ZM8,20H6a2,2,0,0,0,2,2Zm0,0V10H6V20ZM8,10V8a2,2,0,0,0-2,2Z" transform="translate(0)" fill="#09090b"/>
</svg>
