<svg id="life-buoy" xmlns="http://www.w3.org/2000/svg" width="22" height="22" viewBox="0 0 22 22">
  <path id="Vector" d="M4.637,3.223A1,1,0,0,0,3.223,4.637ZM7.463,8.877A1,1,0,0,0,8.877,7.463Zm5.66-1.414a1,1,0,0,0,1.414,1.414Zm5.654-2.826a1,1,0,0,0-1.414-1.414Zm-4.24,8.486a1,1,0,0,0-1.414,1.414Zm2.826,5.654a1,1,0,0,0,1.414-1.414Zm-8.486-4.24a1,1,0,0,0-1.414-1.414ZM3.223,17.363a1,1,0,0,0,1.414,1.414ZM20,11a9,9,0,0,1-9,9v2A11,11,0,0,0,22,11Zm-9,9a9,9,0,0,1-9-9H0A11,11,0,0,0,11,22ZM2,11a9,9,0,0,1,9-9V0A11,11,0,0,0,0,11Zm9-9a9,9,0,0,1,9,9h2A11,11,0,0,0,11,0ZM3.223,4.637l4.24,4.24L8.877,7.463l-4.24-4.24Zm11.314,4.24,4.24-4.24L17.363,3.223l-4.24,4.24Zm-1.414,5.66,4.24,4.24,1.414-1.414-4.24-4.24Zm-5.66-1.414-4.24,4.24,1.414,1.414,4.24-4.24ZM14,11a3,3,0,0,1-3,3v2a5,5,0,0,0,5-5Zm-3,3a3,3,0,0,1-3-3H6a5,5,0,0,0,5,5ZM8,11a3,3,0,0,1,3-3V6a5,5,0,0,0-5,5Zm3-3a3,3,0,0,1,3,3h2a5,5,0,0,0-5-5Z" fill="#09090b"/>
</svg>
