<svg id="link" xmlns="http://www.w3.org/2000/svg" width="21.887" height="21.867" viewBox="0 0 21.887 21.867">
  <path id="Vector" d="M9.744,11.335a1,1,0,1,0-1.6,1.2Zm6.739,1.139-.707-.707h0Zm3-3,.707.707.012-.012ZM12.413,2.4l-.695-.719-.01.01Zm-2.425,1A1,1,0,1,0,11.4,4.823Zm2.154,7.128a1,1,0,0,0,1.6-1.2ZM5.4,9.394l.707.707h0Zm-3,3L1.7,11.687l-.012.012Zm7.07,7.07.695.719.012-.012Zm2.417-1a1,1,0,1,0-1.414-1.414ZM8.143,12.533A6,6,0,0,0,10.07,14.2l.959-1.755a4,4,0,0,1-1.285-1.114ZM10.07,14.2a6,6,0,0,0,2.448.719l.143-1.995a4,4,0,0,1-1.632-.479Zm2.448.719a6,6,0,0,0,2.526-.363l-.7-1.874a4,4,0,0,1-1.684.242Zm2.526-.363a6,6,0,0,0,2.146-1.38l-1.415-1.414a4,4,0,0,1-1.431.92Zm2.146-1.38,3-3L18.776,8.766l-3,3ZM20.2,10.168a6,6,0,0,0,1.684-4.22l-2,.017a4,4,0,0,1-1.123,2.814Zm1.684-4.22a6,6,0,0,0-1.757-4.19L18.715,3.172a4,4,0,0,1,1.171,2.794ZM20.13,1.757A6,6,0,0,0,15.939,0l-.017,2a4,4,0,0,1,2.794,1.171ZM15.939,0a6,6,0,0,0-4.22,1.684l1.389,1.439A4,4,0,0,1,15.922,2ZM11.708,1.694,9.988,3.4,11.4,4.823l1.72-1.71Zm2.036,7.64a6,6,0,0,0-1.928-1.672l-.959,1.755a4,4,0,0,1,1.285,1.114ZM11.816,7.663a6,6,0,0,0-2.448-.719L9.225,8.939a4,4,0,0,1,1.632.48ZM9.368,6.944a6,6,0,0,0-2.526.363l.7,1.874a4,4,0,0,1,1.684-.242Zm-2.526.363A6,6,0,0,0,4.7,8.687L6.111,10.1a4,4,0,0,1,1.431-.92ZM4.7,8.686l-3,3L3.111,13.1l3-3ZM1.684,11.7A6,6,0,0,0,0,15.919L2,15.9a4,4,0,0,1,1.123-2.814ZM0,15.919A6,6,0,0,0,1.757,20.11L3.172,18.7A4,4,0,0,1,2,15.9ZM1.757,20.11a6,6,0,0,0,4.19,1.757l.017-2A4,4,0,0,1,3.172,18.7Zm4.19,1.757a6,6,0,0,0,4.22-1.684L8.779,18.744a4,4,0,0,1-2.814,1.123Zm4.233-1.7,1.71-1.71-1.414-1.414-1.71,1.71Z" transform="translate(0 0)" fill="#09090b"/>
</svg>
