<svg id="link-2" xmlns="http://www.w3.org/2000/svg" width="22" height="12" viewBox="0 0 22 12">
  <path id="Vector" d="M8,12a1,1,0,0,0,0-2ZM6,11v0ZM6,1V1ZM8,2A1,1,0,0,0,8,0Zm6-2a1,1,0,0,0,0,2Zm2,1V1Zm0,10v0Zm-2-1a1,1,0,0,0,0,2ZM7,5A1,1,0,0,0,7,7Zm8,2a1,1,0,0,0,0-2ZM8,10H6v2H8ZM6,10A4,4,0,0,1,3.172,8.828L1.757,10.243A6,6,0,0,0,6,12ZM3.172,8.828A4,4,0,0,1,2,6H0a6,6,0,0,0,1.757,4.243ZM2,6A4,4,0,0,1,3.172,3.172L1.757,1.757A6,6,0,0,0,0,6ZM3.172,3.172A4,4,0,0,1,6,2V0A6,6,0,0,0,1.757,1.757ZM6,2H8V0H6Zm8,0h2V0H14Zm2,0a4,4,0,0,1,2.828,1.172l1.414-1.414A6,6,0,0,0,16,0Zm2.828,1.172A4,4,0,0,1,20,6h2a6,6,0,0,0-1.757-4.243ZM20,6a4,4,0,0,1-1.172,2.828l1.414,1.414A6,6,0,0,0,22,6ZM18.828,8.828A4,4,0,0,1,16,10v2a6,6,0,0,0,4.243-1.757ZM16,10H14v2h2ZM7,7h8V5H7Z" transform="translate(0 0)" fill="#09090b"/>
</svg>
