<svg id="list-end" xmlns="http://www.w3.org/2000/svg" width="20" height="16" viewBox="0 0 20 16">
  <path id="Vector" d="M14,8a1,1,0,0,0,0-2ZM1,6A1,1,0,0,0,1,8ZM14,2a1,1,0,0,0,0-2ZM1,0A1,1,0,0,0,1,2ZM8,14a1,1,0,0,0,0-2ZM1,12a1,1,0,0,0,0,2ZM20,1a1,1,0,0,0-2,0ZM12,13l-.707-.707a1,1,0,0,0,0,1.414Zm2.707-1.293a1,1,0,0,0-1.414-1.414Zm-1.414,4a1,1,0,0,0,1.414-1.414ZM14,6H1V8H14Zm0-6H1V2H14ZM8,12H1v2H8ZM18,1V11h2V1Zm0,10a1,1,0,0,1-.293.707l1.414,1.414A3,3,0,0,0,20,11Zm-.293.707A1,1,0,0,1,17,12v2a3,3,0,0,0,2.121-.879ZM17,12H12v2h5Zm-3.707-1.707-2,2,1.414,1.414,2-2Zm-2,3.414,2,2,1.414-1.414-2-2Z" fill="#09090b"/>
</svg>
