<svg id="list-start" xmlns="http://www.w3.org/2000/svg" width="20" height="16" viewBox="0 0 20 16">
  <path id="Vector" d="M14,10a1,1,0,0,0,0-2ZM1,8a1,1,0,0,0,0,2Zm13,8a1,1,0,0,0,0-2ZM1,14a1,1,0,0,0,0,2ZM8,4A1,1,0,0,0,8,2ZM1,2A1,1,0,0,0,1,4ZM18,15a1,1,0,0,0,2,0ZM17,3V3ZM12,3l-.707-.707a1,1,0,0,0,0,1.414Zm1.293,2.707a1,1,0,0,0,1.414-1.414Zm1.414-4A1,1,0,0,0,13.293.293ZM14,8H1v2H14Zm0,6H1v2H14ZM8,2H1V4H8ZM20,15V5H18V15ZM20,5a3,3,0,0,0-.879-2.121L17.707,4.293A1,1,0,0,1,18,5Zm-.879-2.121A3,3,0,0,0,17,2V4a1,1,0,0,1,.707.293ZM17,2H12V4h5ZM14.707,4.293l-2-2L11.293,3.707l2,2Zm-2-.586,2-2L13.293.293l-2,2Z" transform="translate(0 0)" fill="#09090b"/>
</svg>
