<svg id="list-todo" xmlns="http://www.w3.org/2000/svg" width="20" height="16" viewBox="0 0 20 16">
  <path id="Vector" d="M1.707,12.293A1,1,0,0,0,.293,13.707ZM3,15l-.707.707a1,1,0,0,0,1.414,0Zm4.707-3.293a1,1,0,0,0-1.414-1.414ZM11,1a1,1,0,0,0,0,2Zm8,2a1,1,0,0,0,0-2ZM11,7a1,1,0,0,0,0,2Zm8,2a1,1,0,0,0,0-2Zm-8,4a1,1,0,0,0,0,2Zm8,2a1,1,0,0,0,0-2ZM2,2H6V0H2ZM6,2H8A2,2,0,0,0,6,0ZM6,2V6H8V2ZM6,6V8A2,2,0,0,0,8,6ZM6,6H2V8H6ZM2,6H0A2,2,0,0,0,2,8ZM2,6V2H0V6ZM2,2V0A2,2,0,0,0,0,2ZM.293,13.707l2,2,1.414-1.414-2-2Zm3.414,2,4-4L6.293,10.293l-4,4ZM11,3h8V1H11Zm0,6h8V7H11Zm0,6h8V13H11Z" fill="#09090b"/>
</svg>
