<svg id="list-x" xmlns="http://www.w3.org/2000/svg" width="18" height="14" viewBox="0 0 18 14">
  <path id="Vector" d="M9,8A1,1,0,0,0,9,6ZM1,6A1,1,0,0,0,1,8ZM14,2a1,1,0,0,0,0-2ZM1,0A1,1,0,0,0,1,2ZM14,14a1,1,0,0,0,0-2ZM1,12a1,1,0,0,0,0,2ZM17.707,5.707a1,1,0,0,0-1.414-1.414ZM12.293,8.293a1,1,0,0,0,1.414,1.414Zm1.414-4a1,1,0,0,0-1.414,1.414Zm2.586,5.414a1,1,0,0,0,1.414-1.414ZM9,6H1V8H9Zm5-6H1V2H14Zm0,12H1v2H14Zm2.293-7.707-4,4,1.414,1.414,4-4Zm-4,1.414,4,4,1.414-1.414-4-4Z" fill="#09090b"/>
</svg>
