<svg id="list-restart" xmlns="http://www.w3.org/2000/svg" width="20" height="16" viewBox="0 0 20 16">
  <path id="Vector" d="M19,2a1,1,0,0,0,0-2ZM1,0A1,1,0,0,0,1,2ZM5,8A1,1,0,0,0,5,6ZM1,6A1,1,0,0,0,1,8Zm4,8a1,1,0,0,0,0-2ZM1,12a1,1,0,0,0,0,2Zm9.8.4a1,1,0,0,0-1.6,1.2ZM19,10h0ZM14.5,5.5v0ZM9,9H8a1,1,0,0,0,1,1Zm1-4A1,1,0,0,0,8,5Zm3,5a1,1,0,0,0,0-2ZM19,0H1V2H19ZM5,6H1V8H5Zm0,6H1v2H5Zm4.2,1.6a6,6,0,0,0,3.011,2.127l.6-1.909A4,4,0,0,1,10.8,12.4Zm3.011,2.127a6,6,0,0,0,3.686-.035l-.632-1.9a4,4,0,0,1-2.458.023Zm3.686-.035a6,6,0,0,0,2.97-2.184l-1.622-1.17a4,4,0,0,1-1.98,1.456Zm2.97-2.184A6,6,0,0,0,20,10H18a4,4,0,0,1-.755,2.339ZM20,10a5.5,5.5,0,0,0-1.611-3.889L16.975,7.525A3.5,3.5,0,0,1,18,10ZM18.389,6.111A5.5,5.5,0,0,0,14.5,4.5v2a3.5,3.5,0,0,1,2.475,1.025ZM14.5,4.5a5.815,5.815,0,0,0-4.117,1.7L11.8,7.617A3.815,3.815,0,0,1,14.5,6.5ZM10.383,6.2l-2.09,2.09L9.707,9.707l2.09-2.09ZM8,5V9h2V5Zm1,5h4V8H9Z" fill="#09090b"/>
</svg>
