<svg id="lock-open" xmlns="http://www.w3.org/2000/svg" width="20" height="22.005" viewBox="0 0 20 22.005">
  <path id="Vector" d="M4,10.005a1,1,0,0,0,2,0Zm1-4H5Zm8.92-.8a1,1,0,1,0,1.96-.4ZM3,11.005H17v-2H3Zm14,0a1,1,0,0,1,1,1h2a3,3,0,0,0-3-3Zm1,1v7h2v-7Zm0,7a1,1,0,0,1-1,1v2a3,3,0,0,0,3-3Zm-1,1H3v2H17Zm-14,0a1,1,0,0,1-1-1H0a3,3,0,0,0,3,3Zm-1-1v-7H0v7Zm0-7a1,1,0,0,1,1-1v-2a3,3,0,0,0-3,3Zm4-2v-4H4v4ZM6,6A4,4,0,0,1,7.031,3.319L5.547,1.978A6,6,0,0,0,4,6.006ZM7.031,3.319A4,4,0,0,1,9.6,2.02L9.4.03a6,6,0,0,0-3.85,1.948ZM9.6,2.02a4,4,0,0,1,2.774.759l1.186-1.61A6,6,0,0,0,9.4.03Zm2.774.759A4,4,0,0,1,13.92,5.2l1.96-.4a6,6,0,0,0-2.321-3.637Z" transform="translate(0 0)" fill="#09090b"/>
</svg>
