<svg id="lock-keyhole-open" xmlns="http://www.w3.org/2000/svg" width="20" height="22" viewBox="0 0 20 22">
  <path id="Vector" d="M4,9A1,1,0,0,0,6,9ZM5,6H5Zm8.464-2A1,1,0,0,0,15.2,3ZM10,15v2a2,2,0,0,0,2-2Zm0,0H8a2,2,0,0,0,2,2Zm0,0V13a2,2,0,0,0-2,2Zm0,0h2a2,2,0,0,0-2-2ZM3,10H17V8H3Zm14,0a1,1,0,0,1,1,1h2a3,3,0,0,0-3-3Zm1,1v8h2V11Zm0,8a1,1,0,0,1-1,1v2a3,3,0,0,0,3-3Zm-1,1H3v2H17ZM3,20a1,1,0,0,1-1-1H0a3,3,0,0,0,3,3ZM2,19V11H0v8Zm0-8a1,1,0,0,1,1-1V8a3,3,0,0,0-3,3ZM6,9V6H4V9ZM6,6a4,4,0,0,1,.827-2.435L5.24,2.347A6,6,0,0,0,4,6Zm.827-2.435A4,4,0,0,1,8.965,2.136L8.447.2A6,6,0,0,0,5.24,2.347ZM8.965,2.136a4,4,0,0,1,2.566.168L12.3.457A6,6,0,0,0,8.447.2Zm2.566.168A4,4,0,0,1,13.464,4L15.2,3A6,6,0,0,0,12.3.457Z" transform="translate(0 0)" fill="#09090b"/>
</svg>
