<svg id="lock" xmlns="http://www.w3.org/2000/svg" width="20" height="22" viewBox="0 0 20 22">
  <path id="Vector" d="M4,10a1,1,0,0,0,2,0ZM5,6H5Zm5-5V1Zm4,9a1,1,0,0,0,2,0ZM3,11H17V9H3Zm14,0a1,1,0,0,1,1,1h2a3,3,0,0,0-3-3Zm1,1v7h2V12Zm0,7a1,1,0,0,1-1,1v2a3,3,0,0,0,3-3Zm-1,1H3v2H17ZM3,20a1,1,0,0,1-1-1H0a3,3,0,0,0,3,3ZM2,19V12H0v7Zm0-7a1,1,0,0,1,1-1V9a3,3,0,0,0-3,3Zm4-2V6H4v4ZM6,6A4,4,0,0,1,7.172,3.172L5.757,1.757A6,6,0,0,0,4,6ZM7.172,3.172A4,4,0,0,1,10,2V0A6,6,0,0,0,5.757,1.757ZM10,2a4,4,0,0,1,2.828,1.172l1.414-1.414A6,6,0,0,0,10,0Zm2.828,1.172A4,4,0,0,1,14,6h2a6,6,0,0,0-1.757-4.243ZM14,6v4h2V6Z" transform="translate(0 0)" fill="#09090b"/>
</svg>
