<svg id="log-out" xmlns="http://www.w3.org/2000/svg" width="20" height="20" viewBox="0 0 20 20">
  <path id="Vector" d="M7,20a1,1,0,0,0,0-2ZM1,17H1ZM3,1V1ZM7,2A1,1,0,0,0,7,0Zm6.293,12.293a1,1,0,0,0,1.414,1.414ZM19,10l.707.707a1,1,0,0,0,0-1.414ZM14.707,4.293a1,1,0,0,0-1.414,1.414ZM7,9a1,1,0,0,0,0,2Zm0,9H3v2H7ZM3,18a1,1,0,0,1-.707-.293L.879,19.121A3,3,0,0,0,3,20Zm-.707-.293A1,1,0,0,1,2,17H0a3,3,0,0,0,.879,2.121ZM2,17V3H0V17ZM2,3a1,1,0,0,1,.293-.707L.879.879A3,3,0,0,0,0,3Zm.293-.707A1,1,0,0,1,3,2V0A3,3,0,0,0,.879.879ZM3,2H7V0H3ZM14.707,15.707l5-5L18.293,9.293l-5,5Zm5-6.414-5-5L13.293,5.707l5,5ZM19,9H7v2H19Z" fill="#09090b"/>
</svg>
