<svg id="mail-search" xmlns="http://www.w3.org/2000/svg" width="22" height="20" viewBox="0 0 22 20">
  <path id="Vector" d="M20,9.5a1,1,0,0,0,2,0ZM19,1V1ZM3,1V1ZM1,3H1Zm9.5,15a1,1,0,1,0,0-2ZM21.536,4.844a1,1,0,1,0-1.073-1.688ZM12.03,9.7l.531.847.005,0ZM11,10v0ZM9.97,9.7l-.536.844.005,0ZM1.536,3.156A1,1,0,1,0,.464,4.844ZM20,15h0Zm.293,4.707a1,1,0,1,0,1.414-1.414Zm-.086-2.914a1,1,0,0,0-1.414,1.414ZM22,9.5V3H20V9.5ZM22,3A3,3,0,0,0,21.121.879L19.707,2.293A1,1,0,0,1,20,3ZM21.121.879A3,3,0,0,0,19,0V2a1,1,0,0,1,.707.293ZM19,0H3V2H19ZM3,0A3,3,0,0,0,.879.879L2.293,2.293A1,1,0,0,1,3,2ZM.879.879A3,3,0,0,0,0,3H2a1,1,0,0,1,.293-.707ZM0,3V15H2V3ZM0,15a3.006,3.006,0,0,0,3,3V16a1.006,1.006,0,0,1-1-1Zm3,3h7.5V16H3ZM20.464,3.156l-8.97,5.7,1.073,1.688,8.97-5.7ZM11.5,8.853A.94.94,0,0,1,11,9v2a2.94,2.94,0,0,0,1.561-.449ZM11,9a.94.94,0,0,1-.5-.143L9.439,10.547A2.94,2.94,0,0,0,11,11Zm-.494-.14-8.97-5.7L.464,4.844l8.97,5.7ZM17,19a4,4,0,0,0,2.828-1.172l-1.414-1.414A2,2,0,0,1,17,17Zm2.828-1.172A4,4,0,0,0,21,15H19a2,2,0,0,1-.586,1.414ZM21,15a4,4,0,0,0-1.172-2.828l-1.414,1.414A2,2,0,0,1,19,15Zm-1.172-2.828A4,4,0,0,0,17,11v2a2,2,0,0,1,1.414.586ZM17,11a4,4,0,0,0-2.828,1.172l1.414,1.414A2,2,0,0,1,17,13Zm-2.828,1.172A4,4,0,0,0,13,15h2a2,2,0,0,1,.586-1.414ZM13,15a4,4,0,0,0,1.172,2.828l1.414-1.414A2,2,0,0,1,15,15Zm1.172,2.828A4,4,0,0,0,17,19V17a2,2,0,0,1-1.414-.586ZM19,15a2,2,0,0,1-2,2v2a4,4,0,0,0,4-4Zm-2,2a2,2,0,0,1-2-2H13a4,4,0,0,0,4,4Zm-2-2a2,2,0,0,1,2-2V11a4,4,0,0,0-4,4Zm2-2a2,2,0,0,1,2,2h2a4,4,0,0,0-4-4Zm4.707,5.293-1.5-1.5-1.414,1.414,1.5,1.5Z" transform="translate(0)" fill="#09090b"/>
</svg>
