<svg id="mailbox" xmlns="http://www.w3.org/2000/svg" width="22" height="16" viewBox="0 0 22 16">
  <path id="Vector" d="M1,13H1ZM14,4a1,1,0,0,0,0,2Zm3,1h1a1,1,0,0,0-1-1ZM16,7a1,1,0,0,0,2,0ZM8,14a1,1,0,0,0,0,2ZM5,5A1,1,0,0,0,5,7ZM6,7A1,1,0,0,0,6,5Zm14,6a1,1,0,0,1-.293.707l1.414,1.414A3,3,0,0,0,22,13Zm-.293.707A1,1,0,0,1,19,14v2a3,3,0,0,0,2.121-.879ZM19,14H3v2H19ZM3,14a1,1,0,0,1-.707-.293L.879,15.121A3,3,0,0,0,3,16Zm-.707-.293A1,1,0,0,1,2,13H0a3,3,0,0,0,.879,2.121ZM2,13V5.5H0V13ZM2,5.5A3.481,3.481,0,0,1,5.5,2V0A5.481,5.481,0,0,0,0,5.5ZM5.5,2H17V0H5.5ZM17,2a3.012,3.012,0,0,1,3,3h2a5.012,5.012,0,0,0-5-5Zm3,3v8h2V5ZM14,6h3V4H14Zm2-1V7h2V5ZM5.5,2A3.481,3.481,0,0,1,9,5.5h2A5.481,5.481,0,0,0,5.5,0ZM9,5.5V13h2V5.5ZM9,13a1,1,0,0,1-.293.707l1.414,1.414A3,3,0,0,0,11,13Zm-.293.707A1,1,0,0,1,8,14v2a3,3,0,0,0,2.121-.879ZM5,7H6V5H5Z" fill="#09090b"/>
</svg>
