<svg id="map-pin" xmlns="http://www.w3.org/2000/svg" width="18" height="22" viewBox="0 0 18 22">
  <path id="Vector" d="M17,9h0ZM9,21l-.6.8a1,1,0,0,0,1.2,0ZM9,1V1Zm7,8c0,2.6-1.771,5.362-3.747,7.586a30.354,30.354,0,0,1-2.661,2.631c-.363.318-.665.567-.874.735-.1.084-.186.148-.24.19l-.06.046L8.4,20.2l0,0h0L9,21l.6.8h0l.006,0,.02-.015.073-.056c.063-.049.154-.12.268-.212.228-.184.552-.45.938-.789a32.365,32.365,0,0,0,2.839-2.807C15.771,15.638,18,12.4,18,9ZM9,21l.6-.8h0l0,0-.014-.011-.06-.046c-.054-.042-.136-.106-.24-.19-.209-.168-.511-.417-.874-.735a30.355,30.355,0,0,1-2.661-2.631C3.77,14.362,2,11.6,2,9H0c0,3.4,2.23,6.638,4.253,8.914a32.358,32.358,0,0,0,2.839,2.807c.387.338.71.605.938.789.114.092.2.163.268.212l.073.056.02.015.006,0h0L9,21ZM2,9A7,7,0,0,1,4.05,4.05L2.636,2.636A9,9,0,0,0,0,9ZM4.05,4.05A7,7,0,0,1,9,2V0A9,9,0,0,0,2.636,2.636ZM9,2a7,7,0,0,1,4.95,2.05l1.414-1.414A9,9,0,0,0,9,0Zm4.95,2.05A7,7,0,0,1,16,9h2a9,9,0,0,0-2.636-6.364ZM11,9a2,2,0,0,1-2,2v2a4,4,0,0,0,4-4ZM9,11A2,2,0,0,1,7,9H5a4,4,0,0,0,4,4ZM7,9A2,2,0,0,1,9,7V5A4,4,0,0,0,5,9ZM9,7a2,2,0,0,1,2,2h2A4,4,0,0,0,9,5Z" transform="translate(0)" fill="#09090b"/>
</svg>
