<svg id="map-pin-off" xmlns="http://www.w3.org/2000/svg" width="22" height="22" viewBox="0 0 22 22">
  <path id="Vector" d="M5.253,5A1,1,0,0,0,3.607,3.861ZM3,9,2,9V9Zm8,12-.6.8a1,1,0,0,0,1.219-.014Zm5.786-4.381a1,1,0,0,0-1.571-1.237Zm.489-4.524a1,1,0,1,0,1.81.85ZM19,9l1,.019c0-.006,0-.012,0-.019ZM11,1l0,1h0ZM7.036.924a1,1,0,1,0,.888,1.792ZM9.083,8.432a1,1,0,0,0-1.906-.6ZM8,9H9V8.989Zm3,3,.01-1H11Zm1.172.823a1,1,0,0,0-.6-1.906ZM12.931,8.5A1,1,0,1,0,14.869,8ZM12,5.122a1,1,0,0,0-.5,1.935ZM1.707.293A1,1,0,0,0,.293,1.707ZM20.293,21.707a1,1,0,0,0,1.414-1.414ZM3.607,3.861A9.06,9.06,0,0,0,2,9L4,9A7.06,7.06,0,0,1,5.253,5ZM2,9c0,3.4,2.23,6.638,4.253,8.914a32.36,32.36,0,0,0,2.839,2.807c.387.338.71.605.938.789.114.092.2.163.268.212l.073.056.02.015.006,0h0L11,21l.6-.8h0l0,0-.014-.011-.061-.046c-.054-.042-.135-.106-.24-.19-.209-.168-.511-.417-.874-.735a30.366,30.366,0,0,1-2.661-2.631C5.77,14.361,4,11.6,4,9Zm9.619,12.786a30.944,30.944,0,0,0,5.167-5.167l-1.571-1.237a28.942,28.942,0,0,1-4.833,4.833Zm7.466-8.841A9.658,9.658,0,0,0,20,9.019l-2-.037a7.66,7.66,0,0,1-.725,3.114ZM20,9a9,9,0,0,0-2.636-6.364L15.95,4.05A7,7,0,0,1,18,9ZM17.364,2.636A9,9,0,0,0,11,0V2a7,7,0,0,1,4.95,2.05ZM11,0A8.88,8.88,0,0,0,7.036.924l.888,1.792A6.88,6.88,0,0,1,11,2ZM7.177,7.827A3.78,3.78,0,0,0,7,9.01l2-.021a1.78,1.78,0,0,1,.083-.557ZM7,9a4,4,0,0,0,1.172,2.828l1.414-1.414A2,2,0,0,1,9,9Zm1.172,2.828A4,4,0,0,0,11,13V11a2,2,0,0,1-1.414-.586ZM10.99,13a3.779,3.779,0,0,0,1.183-.177l-.6-1.906a1.782,1.782,0,0,1-.557.083Zm3.879-5a4,4,0,0,0-1.04-1.831L12.411,7.582a2,2,0,0,1,.52.916Zm-1.04-1.831A4,4,0,0,0,12,5.122l-.5,1.935a2,2,0,0,1,.913.524ZM.293,1.707l20,20,1.414-1.414-20-20Z" transform="translate(0)" fill="#09090b"/>
</svg>
