<svg id="map" xmlns="http://www.w3.org/2000/svg" width="20" height="19.529" viewBox="0 0 20 19.529">
  <path id="Vector" d="M12.106,3.317l-.447.894h0Zm1.788,0,.447.895h0Zm3.659-1.83L17.106.592h0Zm1.447.9h0Zm0,12.764h0Zm-.553.894L18,15.146h0Zm-4.553,2.277.447.895h0Zm-1.788,0-.447.895h0ZM7.894,16.212l.447-.894h0Zm-1.788,0-.447-.894h0Zm-3.659,1.83.447.895h0ZM1,17.145l1,0v0ZM1,4.382H1Zm.553-.894L2,4.382H2ZM6.106,1.211,5.659.316h0ZM7,1V1Zm.894.211L8.341.317h0ZM12,18.528a1,1,0,0,0,2,0ZM6,16a1,1,0,0,0,2,0ZM11.659,4.211A3,3,0,0,0,13,4.528v-2a1,1,0,0,1-.447-.105ZM13,4.528a3,3,0,0,0,1.341-.316l-.894-1.789A1,1,0,0,1,13,2.528Zm1.341-.317L18,2.381,17.106.593l-3.659,1.83ZM18,2.381h0l.091-2a2,2,0,0,0-.985.209Zm0,0h0l1.053-1.7a2,2,0,0,0-.962-.3Zm0,0h0l1.748-.972a2,2,0,0,0-.7-.729Zm0,0h0l2,0a2,2,0,0,0-.252-.975Zm0,0V15.147h2V2.383Zm0,12.763h0L19.7,16.2a2,2,0,0,0,.3-1.051Zm0,0h0l.894,1.789A2,2,0,0,0,19.7,16.2Zm0,0-4.553,2.277.895,1.789,4.553-2.277Zm-4.553,2.277a1,1,0,0,1-.447.105v2a3,3,0,0,0,1.341-.316ZM13,17.529a1,1,0,0,1-.447-.105l-.894,1.789A3,3,0,0,0,13,19.529Zm-.447-.105L8.341,15.318l-.894,1.789,4.212,2.106ZM8.341,15.317A3,3,0,0,0,7,15v2a1,1,0,0,1,.447.105ZM7,15a3,3,0,0,0-1.341.316l.894,1.789A1,1,0,0,1,7,17Zm-1.341.317L2,17.148l.895,1.789,3.659-1.83ZM2,17.147H2l-.091,2a2,2,0,0,0,.985-.209Zm0,0H2l-1.054,1.7a2,2,0,0,0,.962.3Zm0,0H2l-1.749.971a2,2,0,0,0,.695.729Zm0,0H2l-2,0a2,2,0,0,0,.251.976Zm0,0V4.382H0V17.145ZM2,4.382H2L.3,3.33A2,2,0,0,0,0,4.381Zm0,0H2L1.106,2.593A2,2,0,0,0,.3,3.33Zm0,0L6.553,2.105,5.659.317,1.106,2.594ZM6.553,2.105A1,1,0,0,1,7,2V0A3,3,0,0,0,5.659.316ZM7,2a1,1,0,0,1,.447.105L8.341.316A3,3,0,0,0,7,0Zm.447.105,4.212,2.106.894-1.789L8.341.317ZM12,3.528v15h2v-15ZM6,1V16H8V1Z" transform="translate(0 0)" fill="#09090b"/>
</svg>
