<svg id="maximize" xmlns="http://www.w3.org/2000/svg" width="20" height="20" viewBox="0 0 20 20">
  <path id="Vector" d="M6,2A1,1,0,0,0,6,0ZM3,1V1ZM1,3H1ZM0,6A1,1,0,0,0,2,6ZM18,6a1,1,0,0,0,2,0ZM17,1V1ZM14,0a1,1,0,0,0,0,2ZM2,14a1,1,0,0,0-2,0ZM1,17H1Zm5,3a1,1,0,0,0,0-2Zm8-2a1,1,0,0,0,0,2Zm6-4a1,1,0,0,0-2,0ZM6,0H3V2H6ZM3,0A3,3,0,0,0,.879.879L2.293,2.293A1,1,0,0,1,3,2ZM.879.879A3,3,0,0,0,0,3H2a1,1,0,0,1,.293-.707ZM0,3V6H2V3ZM20,6V3H18V6Zm0-3A3,3,0,0,0,19.121.879L17.707,2.293A1,1,0,0,1,18,3ZM19.121.879A3,3,0,0,0,17,0V2a1,1,0,0,1,.707.293ZM17,0H14V2h3ZM0,14v3H2V14Zm0,3a3,3,0,0,0,.879,2.121l1.414-1.414A1,1,0,0,1,2,17Zm.879,2.121A3,3,0,0,0,3,20V18a1,1,0,0,1-.707-.293ZM3,20H6V18H3Zm11,0h3V18H14Zm3,0a3,3,0,0,0,2.121-.879l-1.414-1.414A1,1,0,0,1,17,18Zm2.121-.879A3,3,0,0,0,20,17H18a1,1,0,0,1-.293.707ZM20,17V14H18v3Z" fill="#09090b"/>
</svg>
