<svg id="medal" xmlns="http://www.w3.org/2000/svg" width="21.213" height="22" viewBox="0 0 21.213 22">
  <path id="Vector" d="M4.953,14.5a1,1,0,1,0,1.731-1ZM1.269,6.14l-.866.5h0Zm.13-2.2-.8-.6v0ZM3.009,1.8l.8.6h0Zm1.6-.8V1Zm12,0V1Zm1.6.8.8-.6h0Zm1.6,2.14-.8.6,0,0Zm.14,2.2.865.5,0,0ZM14.533,13.5a1,1,0,1,0,1.731,1ZM8.752,11.514a1,1,0,0,0,1.715-1.029ZM4.587.685A1,1,0,1,0,2.872,1.714Zm6.165,9.8a1,1,0,0,0,1.715,1.029Zm7.6-8.771A1,1,0,0,0,16.631.685ZM6.609,5a1,1,0,0,0,0,2Zm8,2a1,1,0,0,0,0-2Zm-5,10a1,1,0,0,0,2,0Zm1-2h1a1,1,0,0,0-1-1Zm-.5-1a1,1,0,0,0,0,2Zm-3.425-.5-4.55-7.86L.4,6.641l4.55,7.86Zm-4.55-7.86A1,1,0,0,1,2,5.079l-2-.118A3,3,0,0,0,.4,6.641ZM2,5.079a1,1,0,0,1,.2-.54L.6,3.341A3,3,0,0,0,.005,4.961Zm.2-.538L3.808,2.4,2.21,1.2.6,3.339ZM3.809,2.4a1,1,0,0,1,.353-.294L3.267.317A3,3,0,0,0,2.209,1.2Zm.353-.294A1,1,0,0,1,4.609,2V0A3,3,0,0,0,3.267.317ZM4.609,2h12V0h-12Zm12,0a1,1,0,0,1,.447.106L17.951.317A3,3,0,0,0,16.609,0Zm.447.106a1,1,0,0,1,.353.294l1.6-1.2A3,3,0,0,0,17.951.317Zm.352.293,1.6,2.14,1.6-1.2L19.01,1.2Zm1.6,2.144a1,1,0,0,1,.2.539l2-.127a3,3,0,0,0-.6-1.618Zm.2.539a1,1,0,0,1-.13.561l1.736.994a3,3,0,0,0,.391-1.682Zm-.128.557-4.55,7.86,1.731,1,4.55-7.86Zm-8.617,4.846L4.587.685,2.872,1.714l5.88,9.8Zm2,1.029,5.88-9.8L16.631.685l-5.88,9.8ZM6.609,7h8V5h-8Zm8,9a4,4,0,0,1-4,4v2a6,6,0,0,0,6-6Zm-4,4a4,4,0,0,1-4-4h-2a6,6,0,0,0,6,6Zm-4-4a4,4,0,0,1,4-4V10a6,6,0,0,0-6,6Zm4-4a4,4,0,0,1,4,4h2a6,6,0,0,0-6-6Zm1,5V15h-2v2Zm-1-3h-.5v2h.5Z" transform="translate(0)" fill="#09090b"/>
</svg>
