<svg id="merge" xmlns="http://www.w3.org/2000/svg" width="18" height="22" viewBox="0 0 18 22">
  <path id="Vector" d="M4.293,4.293A1,1,0,0,0,5.707,5.707ZM9,1,9.707.293a1,1,0,0,0-1.414,0Zm3.293,4.707a1,1,0,0,0,1.414-1.414ZM9,11.3H8v.011ZM7.828,14.172l-.707-.707h0ZM.293,20.293a1,1,0,0,0,1.414,1.414Zm16,1.414a1,1,0,0,0,1.414-1.414Zm-3.586-6.414a1,1,0,1,0-1.414,1.414Zm-7-9.586,4-4L8.293.293l-4,4Zm2.586-4,4,4,1.414-1.414-4-4ZM8,1V11.3h2V1ZM8,11.311a3,3,0,0,1-.222,1.166l1.852.756A5,5,0,0,0,10,11.289Zm-.222,1.166a3,3,0,0,1-.657.988l1.414,1.415A5,5,0,0,0,9.63,13.232Zm-.657.988L.293,20.293l1.414,1.414,6.828-6.828Zm10.586,6.828-5-5-1.414,1.414,5,5Z" fill="#09090b"/>
</svg>
