<svg id="messages-square" xmlns="http://www.w3.org/2000/svg" width="22" height="22" viewBox="0 0 22 22">
  <path id="Vector" d="M5,10V9a1,1,0,0,0-.707.293ZM1,14H0a1,1,0,0,0,1.707.707ZM11,1V1Zm6,6a1,1,0,0,0,0,2Zm4,14-.707.707A1,1,0,0,0,22,21Zm-4-4,.707-.707A1,1,0,0,0,17,16Zm-7-3a1,1,0,0,0-2,0Zm2-6a1,1,0,0,1-.293.707l1.414,1.414A3,3,0,0,0,14,8Zm-.293.707A1,1,0,0,1,11,9v2a3,3,0,0,0,2.121-.879ZM11,9H5v2h6Zm-6.707.293-4,4,1.414,1.414,4-4ZM2,14V3H0V14ZM2,3A1.006,1.006,0,0,1,3,2V0A3.006,3.006,0,0,0,0,3ZM3,2h8V0H3Zm8,0a1,1,0,0,1,.707.293L13.121.879A3,3,0,0,0,11,0Zm.707.293A1,1,0,0,1,12,3h2A3,3,0,0,0,13.121.879ZM12,3V8h2V3Zm5,6h2V7H17Zm2,0a1,1,0,0,1,.707.293l1.414-1.414A3,3,0,0,0,19,7Zm.707.293A1,1,0,0,1,20,10h2a3,3,0,0,0-.879-2.121ZM20,10V21h2V10Zm1.707,10.293-4-4-1.414,1.414,4,4ZM17,16H11v2h6Zm-6,0a1,1,0,0,1-.707-.293L8.879,17.121A3,3,0,0,0,11,18Zm-.707-.293A1,1,0,0,1,10,15H8a3,3,0,0,0,.879,2.121ZM10,15V14H8v1Z" fill="#09090b"/>
</svg>
