<svg id="message-square-off" xmlns="http://www.w3.org/2000/svg" width="22" height="22" viewBox="0 0 22 22">
  <path id="Vector" d="M19,14a1,1,0,0,0,2,0ZM18,2V2ZM8,1A1,1,0,0,0,8,3ZM1.707.293A1,1,0,0,0,.293,1.707ZM20.293,21.707a1,1,0,0,0,1.414-1.414ZM3.2,3.4A1,1,0,1,0,2,1.8ZM2,20H1a1,1,0,0,0,1.707.707Zm4-4V15a1,1,0,0,0-.707.293Zm10,1a1,1,0,0,0,0-2Zm5-3V4H19V14ZM21,4a3,3,0,0,0-.879-2.121L18.707,3.293A1,1,0,0,1,19,4Zm-.879-2.121A3,3,0,0,0,18,1V3a1,1,0,0,1,.707.293ZM18,1H8V3H18ZM.293,1.707l20,20,1.414-1.414-20-20ZM2,1.8A2.671,2.671,0,0,0,1,4H3c0-.389.124-.543.2-.6ZM1,4V20H3V4ZM2.707,20.707l4-4L5.293,15.293l-4,4ZM6,17H16V15H6Z" transform="translate(0)" fill="#09090b"/>
</svg>
