<svg id="message-circle-off" xmlns="http://www.w3.org/2000/svg" width="22" height="22" viewBox="0 0 22 22">
  <path id="Vector" d="M18.552,13.581a1,1,0,1,0,1.9.638ZM7.781,1.552a1,1,0,0,0,.638,1.9ZM1.707.293A1,1,0,0,0,.293,1.707ZM20.293,21.707a1,1,0,1,0,1.414-1.414ZM5.32,5.294A1,1,0,0,0,3.88,3.906ZM3,15l.949.316a1,1,0,0,0-.059-.774ZM1,21l-.949-.316a1,1,0,0,0,1.265,1.265Zm6-2,.468-.884a1,1,0,0,0-.784-.065Zm11.02-1.006a1,1,0,1,0-1.44-1.388Zm2.428-3.775a10,10,0,0,0,.258-5.473L18.758,9.2a8,8,0,0,1-.206,4.378Zm.258-5.473a10,10,0,0,0-2.665-4.787L16.627,5.373A8,8,0,0,1,18.758,9.2ZM18.041,3.959a10,10,0,0,0-4.787-2.665L12.8,3.242a8,8,0,0,1,3.83,2.132ZM13.254,1.295a10,10,0,0,0-5.473.258l.638,1.9A8,8,0,0,1,12.8,3.242ZM.293,1.707l20,20,1.414-1.414-20-20Zm3.587,2.2A10.093,10.093,0,0,0,2.111,15.457l1.779-.915A8.093,8.093,0,0,1,5.32,5.294ZM2.051,14.684l-2,6,1.9.632,2-6Zm-.735,7.265,6-2-.632-1.9-6,2Zm5.216-2.065a9.68,9.68,0,0,0,11.488-1.89l-1.44-1.388a7.68,7.68,0,0,1-9.112,1.51Z" transform="translate(0)" fill="#09090b"/>
</svg>
