<svg id="message-square-dot" xmlns="http://www.w3.org/2000/svg" width="20" height="20" viewBox="0 0 20 20">
  <path id="Vector" d="M9.7,2a1,1,0,1,0,0-2ZM3,1V1ZM1,3H1ZM1,19H0a1,1,0,0,0,1.707.707Zm4-4V14a1,1,0,0,0-.707.293Zm15-4.7a1,1,0,0,0-2,0ZM9.7,0H3V2H9.7ZM3,0A3,3,0,0,0,.879.879L2.293,2.293A1,1,0,0,1,3,2ZM.879.879A3,3,0,0,0,0,3H2a1,1,0,0,1,.293-.707ZM0,3V19H2V3ZM1.707,19.707l4-4L4.293,14.293l-4,4ZM5,16H17V14H5Zm12,0a3,3,0,0,0,2.121-.879l-1.414-1.414A1,1,0,0,1,17,14Zm2.121-.879A3,3,0,0,0,20,13H18a1,1,0,0,1-.293.707ZM20,13V10.3H18V13ZM18,4a2,2,0,0,1-2,2V8a4,4,0,0,0,4-4ZM16,6a2,2,0,0,1-2-2H12a4,4,0,0,0,4,4ZM14,4a2,2,0,0,1,2-2V0a4,4,0,0,0-4,4Zm2-2a2,2,0,0,1,2,2h2a4,4,0,0,0-4-4Z" fill="#09090b"/>
</svg>
