<svg id="message-circle-heart" xmlns="http://www.w3.org/2000/svg" width="21.008" height="21.008" viewBox="0 0 21.008 21.008">
  <path id="Vector" d="M6.9,18.008l.456-.89a1,1,0,0,0-.777-.057ZM3,14.108l.947.321a1,1,0,0,0-.057-.778Zm-2,5.9-.947-.321a1,1,0,0,0,1.268,1.268ZM14.1,7.922a1,1,0,1,0,1.4-1.428ZM13.05,6.493v0Zm-1.75.715-.7-.714a1,1,0,0,0-.1.114Zm-.3.4-.651.759A1,1,0,0,0,11.8,8.208Zm-.35-.3-.735.679A1,1,0,0,0,10,8.067Zm-3.2,3.6.7-.717a1,1,0,0,0-.109-.092Zm3.6,3.5-.7.717a1,1,0,0,0,1.394,0Zm3.6-3.5.7.717.01-.01Zm.943-4.369a1,1,0,0,0-1.487,1.338ZM6.444,18.9a10,10,0,0,0,6.879.831l-.463-1.946a8,8,0,0,1-5.5-.665Zm6.879.831a10,10,0,0,0,5.768-3.84l-1.617-1.178a8,8,0,0,1-4.614,3.072Zm5.768-3.84a10,10,0,0,0,1.888-6.667l-1.994.156a8,8,0,0,1-1.51,5.333Zm1.888-6.667a10,10,0,0,0-2.9-6.293L16.665,4.343a8,8,0,0,1,2.319,5.035Zm-2.9-6.293A10,10,0,0,0,11.786.03L11.63,2.024a8,8,0,0,1,5.035,2.319ZM11.786.03A10,10,0,0,0,5.119,1.918L6.3,3.534a8,8,0,0,1,5.333-1.51ZM5.119,1.918a10,10,0,0,0-3.84,5.768l1.946.463A8,8,0,0,1,6.3,3.534ZM1.279,7.686a10,10,0,0,0,.831,6.879l1.78-.913a8,8,0,0,1-.665-5.5Zm.774,6.1-2,5.9,1.894.642,2-5.9Zm-.732,7.168,5.9-2-.642-1.894-5.9,2ZM15.5,6.494a3.5,3.5,0,0,0-2.45-1v2a1.5,1.5,0,0,1,1.05.429Zm-2.45-1a3.5,3.5,0,0,0-2.45,1L12,7.922a1.5,1.5,0,0,1,1.05-.429ZM10.5,6.608l-.3.4,1.6,1.2.3-.4Zm1.151.241-.35-.3L10,8.067l.35.3Zm-.266-.219a3.419,3.419,0,0,0-1.156-.819L9.436,7.646a1.42,1.42,0,0,1,.48.34ZM10.229,5.81A3.42,3.42,0,0,0,8.84,5.53l.019,2a1.42,1.42,0,0,1,.577.116ZM8.84,5.53a3.42,3.42,0,0,0-1.383.307l.828,1.821a1.42,1.42,0,0,1,.574-.127Zm-1.383.307a3.42,3.42,0,0,0-1.14.841L7.811,8.007a1.42,1.42,0,0,1,.473-.349Zm-1.14.841a3.42,3.42,0,0,0-.7,1.231l1.905.609a1.42,1.42,0,0,1,.291-.511Zm-.7,1.231a3.42,3.42,0,0,0-.142,1.41L7.461,9.1a1.42,1.42,0,0,1,.059-.585Zm-.142,1.41a3.42,3.42,0,0,0,.441,1.346l1.73-1A1.42,1.42,0,0,1,7.461,9.1Zm.441,1.346a3.419,3.419,0,0,0,.949,1.052L8.038,10.1a1.42,1.42,0,0,1-.394-.437Zm.84.96,3.6,3.5,1.394-1.434-3.6-3.5Zm4.994,3.5,3.6-3.5-1.394-1.434-3.6,3.5Zm3.61-3.51A3.789,3.789,0,0,0,16.538,9a3.578,3.578,0,0,0-.944-2.463L14.107,7.877a1.58,1.58,0,0,1,.431,1.087,1.8,1.8,0,0,1-.595,1.237Z" transform="translate(0 0)" fill="#09090b"/>
</svg>
