<svg id="message-circle-question" xmlns="http://www.w3.org/2000/svg" width="21.008" height="21.008" viewBox="0 0 21.008 21.008">
  <path id="Vector" d="M6.9,18.008l.456-.89a1,1,0,0,0-.777-.057ZM3,14.108l.947.321a1,1,0,0,0-.057-.778Zm-2,5.9-.947-.321a1,1,0,0,0,1.268,1.268ZM7.147,6.676a1,1,0,0,0,1.887.664ZM13.92,8.008h0ZM10.6,10.059a1,1,0,0,0,.632,1.9Zm.4,3.949a1,1,0,0,0,0,2Zm.01,2a1,1,0,0,0,0-2ZM6.444,18.9a10,10,0,0,0,6.879.831l-.463-1.946a8,8,0,0,1-5.5-.665Zm6.879.831a10,10,0,0,0,5.768-3.84l-1.617-1.178a8,8,0,0,1-4.614,3.072Zm5.768-3.84a10,10,0,0,0,1.888-6.667l-1.994.156a8,8,0,0,1-1.51,5.333Zm1.888-6.667a10,10,0,0,0-2.9-6.293L16.665,4.343a8,8,0,0,1,2.319,5.035Zm-2.9-6.293A10,10,0,0,0,11.786.03L11.63,2.024a8,8,0,0,1,5.035,2.319ZM11.786.03A10,10,0,0,0,5.119,1.918L6.3,3.534a8,8,0,0,1,5.333-1.51ZM5.119,1.918a10,10,0,0,0-3.84,5.768l1.946.463A8,8,0,0,1,6.3,3.534ZM1.279,7.686a10,10,0,0,0,.831,6.879l1.78-.913a8,8,0,0,1-.665-5.5Zm.774,6.1-2,5.9,1.894.642,2-5.9Zm-.732,7.168,5.9-2-.642-1.894-5.9,2ZM9.033,7.34a2,2,0,0,1,.873-1.061L8.893,4.555A4,4,0,0,0,7.147,6.676Zm.873-1.061a2,2,0,0,1,1.351-.247L11.6,4.061a4,4,0,0,0-2.7.494Zm1.351-.247a2,2,0,0,1,1.192.683l1.53-1.288A4,4,0,0,0,11.6,4.061Zm1.192.683a2,2,0,0,1,.47,1.291l2,0a4,4,0,0,0-.94-2.582Zm.47,1.292c0,.469-.365.958-1.055,1.418a6.052,6.052,0,0,1-.883.481c-.122.054-.222.094-.29.12l-.074.027-.015.005h0s0,0,.317.949.317.949.317.948h.006l.011,0,.035-.012.116-.043c.1-.037.231-.09.39-.161a8.041,8.041,0,0,0,1.18-.644A3.852,3.852,0,0,0,14.92,8.008Zm-1.92,8h.01v-2H11Z" transform="translate(0 0)" fill="#09090b"/>
</svg>
