<svg id="message-square-share" xmlns="http://www.w3.org/2000/svg" width="20" height="20" viewBox="0 0 20 20">
  <path id="Vector" d="M20,10a1,1,0,0,0-2,0ZM5,15V14a1,1,0,0,0-.707.293ZM1,19H0a1,1,0,0,0,1.707.707ZM3,1V1Zm7,1a1,1,0,0,0,0-2Zm4-2a1,1,0,0,0,0,2Zm5,1h1a1,1,0,0,0-1-1ZM18,6a1,1,0,0,0,2,0Zm-4.707-.707a1,1,0,0,0,1.414,1.414ZM18,10v3h2V10Zm0,3a1,1,0,0,1-.293.707l1.414,1.414A3,3,0,0,0,20,13Zm-.293.707A1,1,0,0,1,17,14v2a3,3,0,0,0,2.121-.879ZM17,14H5v2H17Zm-12.707.293-4,4,1.414,1.414,4-4ZM2,19V3H0V19ZM2,3a1,1,0,0,1,.293-.707L.879.879A3,3,0,0,0,0,3Zm.293-.707A1,1,0,0,1,3,2V0A3,3,0,0,0,.879.879ZM3,2h7V0H3ZM14,2h5V0H14Zm4-1V6h2V1ZM14.707,6.707l5-5L18.293.293l-5,5Z" fill="#09090b"/>
</svg>
