<svg id="message-circle-dashed" xmlns="http://www.w3.org/2000/svg" width="21" height="21" viewBox="0 0 21 21">
  <path id="Vector" d="M12.5,2.1a1,1,0,1,0,0-2Zm-3-2a1,1,0,1,0,0,2Zm8,5.3a1,1,0,0,0,1.6-1.2Zm-.7-3.5a1,1,0,0,0-1.2,1.6Zm2.12,9.4a1,1,0,0,0,1.961.392ZM20.9,8.5a1,1,0,0,0-2,0Zm-5.3,8a1,1,0,0,0,1.2,1.6Zm3.5-.7a1,1,0,1,0-1.6-1.2Zm-9.4,2.12A1,1,0,0,0,9.3,19.881ZM12.5,19.9a1,1,0,1,0,0-2ZM3.449,15.816a1,1,0,1,0-1.9-.632ZM1,20l-.949-.316a1,1,0,0,0,1.265,1.265Zm4.816-.551a1,1,0,0,0-.632-1.9ZM3.1,8.5a1,1,0,0,0-2,0Zm-2,3a1,1,0,0,0,2,0Zm5.3-8A1,1,0,1,0,5.2,1.9Zm-3.5.7A1,1,0,1,0,4.5,5.4ZM12.5.1c-.192,0-.392-.019-.651-.045A8.479,8.479,0,0,0,11,0V2c.192,0,.392.019.651.045A8.479,8.479,0,0,0,12.5,2.1ZM11,0a8.48,8.48,0,0,0-.849.055C9.892.081,9.692.1,9.5.1v2a8.48,8.48,0,0,0,.849-.055C10.608,2.019,10.808,2,11,2Zm8.1,4.2a11.447,11.447,0,0,0-2.3-2.3L15.6,3.5a9.451,9.451,0,0,1,1.9,1.9Zm1.78,7.5A8.5,8.5,0,0,0,21,10H19a6.654,6.654,0,0,1-.081,1.3ZM21,10a8.464,8.464,0,0,0-.055-.849c-.026-.259-.045-.459-.045-.651h-2a8.464,8.464,0,0,0,.055.849c.026.259.045.459.045.651Zm-4.2,8.1a11.45,11.45,0,0,0,2.3-2.3l-1.6-1.2a9.448,9.448,0,0,1-1.9,1.9Zm-7.5,1.78A8.5,8.5,0,0,0,11,20V18a6.654,6.654,0,0,1-1.3-.081ZM11,20a8.463,8.463,0,0,0,.849-.055c.259-.026.459-.045.651-.045v-2a8.463,8.463,0,0,0-.849.055c-.259.026-.459.045-.651.045ZM1.551,15.184l-1.5,4.5,1.9.632,1.5-4.5Zm-.235,5.765,4.5-1.5-.632-1.9-4.5,1.5ZM1.1,8.5c0,.192-.019.392-.045.651A8.48,8.48,0,0,0,1,10H3c0-.192.019-.392.045-.651A8.48,8.48,0,0,0,3.1,8.5ZM1,10a8.48,8.48,0,0,0,.055.849c.026.259.045.459.045.651h2a8.479,8.479,0,0,0-.055-.849C3.019,10.392,3,10.192,3,10ZM5.2,1.9A11.45,11.45,0,0,0,2.9,4.2L4.5,5.4A9.45,9.45,0,0,1,6.4,3.5Z" transform="translate(0)" fill="#09090b"/>
</svg>
