<svg id="mic-vocal" xmlns="http://www.w3.org/2000/svg" width="18.187" height="22.036" viewBox="0 0 18.187 22.036">
  <path id="Vector" d="M7.994,7.192A1,1,0,0,0,6.38,6.01Zm-6.8,7.6L2,15.382H2Zm.1,1.3L2,15.382H2Zm.817.818-.708.707h0Zm1.314.087L2.817,16.2h0Zm8.46-5.2a1,1,0,1,0-1.213-1.59ZM12.128,21a1,1,0,1,0,1.118-1.658ZM2.35,17.248a1,1,0,0,0-1.327-1.5ZM6.38,6.01.386,14.2,2,15.382l5.994-8.19ZM.386,14.2a2,2,0,0,0-.38,1.335L2,15.382H2Zm-.38,1.335A2,2,0,0,0,.586,16.8L2,15.382H2Zm.58,1.26.817.818L2.818,16.2,2,15.382Zm.818.819a2,2,0,0,0,1.281.581l.132-2h0Zm1.281.581a2,2,0,0,0,1.347-.407L2.817,16.2h0Zm1.346-.406L11.884,11.8l-1.213-1.59L2.817,16.2Zm9.215,1.556A7.13,7.13,0,0,0,9.187,18v2a5.144,5.144,0,0,1,2.941,1ZM9.187,18a4.813,4.813,0,0,0-1.912.445c-.554.24-1.1.555-1.567.814a3.838,3.838,0,0,1-2.352.756l-.339,1.971a5.661,5.661,0,0,0,3.659-.977c.517-.286.953-.537,1.394-.728A2.848,2.848,0,0,1,9.187,20ZM3.356,20.014a1.644,1.644,0,0,1-1.215-1.255,1.524,1.524,0,0,1,.209-1.511l-1.327-1.5a3.473,3.473,0,0,0-.8,3.57,3.633,3.633,0,0,0,2.8,2.664ZM16.187,6a4,4,0,0,1-4,4v2a6,6,0,0,0,6-6Zm-4,4a4,4,0,0,1-4-4h-2a6,6,0,0,0,6,6Zm-4-4a4,4,0,0,1,4-4V0a6,6,0,0,0-6,6Zm4-4a4,4,0,0,1,4,4h2a6,6,0,0,0-6-6Z" transform="translate(0)" fill="#09090b"/>
</svg>
