<svg id="mic" xmlns="http://www.w3.org/2000/svg" width="16" height="22" viewBox="0 0 16 22">
  <path id="Vector" d="M8,1V1Zm8,8a1,1,0,0,0-2,0Zm-1,2h0ZM8,18v0ZM1,11H1ZM2,9A1,1,0,0,0,0,9ZM7,21a1,1,0,0,0,2,0ZM8,0A4,4,0,0,0,5.172,1.172L6.586,2.586A2,2,0,0,1,8,2ZM5.172,1.172A4,4,0,0,0,4,4H6a2,2,0,0,1,.586-1.414ZM4,4v7H6V4Zm0,7a4,4,0,0,0,1.172,2.828l1.414-1.414A2,2,0,0,1,6,11Zm1.172,2.828A4,4,0,0,0,8,15V13a2,2,0,0,1-1.414-.586ZM8,15a4,4,0,0,0,2.828-1.172L9.414,12.414A2,2,0,0,1,8,13Zm2.828-1.172A4,4,0,0,0,12,11H10a2,2,0,0,1-.586,1.414ZM12,11V4H10v7Zm0-7a4,4,0,0,0-1.172-2.828L9.414,2.586A2,2,0,0,1,10,4ZM10.828,1.172A4,4,0,0,0,8,0V2a2,2,0,0,1,1.414.586ZM14,9v2h2V9Zm0,2a6,6,0,0,1-1.757,4.243l1.414,1.414A8,8,0,0,0,16,11Zm-1.757,4.243A6,6,0,0,1,8,17v2a8,8,0,0,0,5.657-2.343ZM8,17a6,6,0,0,1-4.243-1.757L2.343,16.657A8,8,0,0,0,8,19ZM3.757,15.243A6,6,0,0,1,2,11H0a8,8,0,0,0,2.343,5.657ZM2,11V9H0v2Zm5,7v3H9V18Z" fill="#09090b"/>
</svg>
