<svg id="microscope" xmlns="http://www.w3.org/2000/svg" width="20" height="22" viewBox="0 0 20 22">
  <path id="Vector" d="M4,16a1,1,0,0,0,0,2Zm8,2a1,1,0,0,0,0-2ZM1,20a1,1,0,0,0,0,2Zm18,2a1,1,0,0,0,0-2Zm-7-2a1,1,0,0,0,0,2ZM12,7V7ZM11,6a1,1,0,0,0,0,2ZM7,12a1,1,0,0,0,0,2Zm2,2a1,1,0,0,0,0-2ZM5,9H5ZM5,5V4A1,1,0,0,0,4,5Zm6,0h1a1,1,0,0,0-1-1ZM9,5a1,1,0,0,0,2,0ZM9,1V1ZM7,1V1ZM6,2H6ZM5,5A1,1,0,0,0,7,5ZM4,18h8V16H4ZM1,22H19V20H1Zm11,0a8,8,0,0,0,5.657-2.343l-1.414-1.414A6,6,0,0,1,12,20Zm5.657-2.343A8,8,0,0,0,20,14H18a6,6,0,0,1-1.757,4.243ZM20,14a8,8,0,0,0-2.343-5.657L16.243,9.757A6,6,0,0,1,18,14ZM17.657,8.343A8,8,0,0,0,12,6V8a6,6,0,0,1,4.243,1.757ZM12,6H11V8h1ZM7,14H9V12H7Zm0-4a1,1,0,0,1-.707-.293L4.879,11.121A3,3,0,0,0,7,12Zm-.707-.293A1,1,0,0,1,6,9H4a3,3,0,0,0,.879,2.121ZM6,9V5H4V9ZM5,6h6V4H5Zm5-1V9h2V5Zm0,4a1,1,0,0,1-.293.707l1.414,1.414A3,3,0,0,0,12,9Zm-.293.707A1,1,0,0,1,9,10v2a3,3,0,0,0,2.121-.879ZM9,10H7v2H9Zm2-5V2H9V5Zm0-3A2,2,0,0,0,10.414.586L9,2h2ZM10.414.586A2,2,0,0,0,9,0V2H9ZM9,0H7V2H9ZM7,0A2,2,0,0,0,5.586.586L7,2H7ZM5.586.586A2,2,0,0,0,5,2H7ZM5,2V5H7V2Z" fill="#09090b"/>
</svg>
