<svg id="monitor-play" xmlns="http://www.w3.org/2000/svg" width="22" height="20" viewBox="0 0 22 20">
  <path id="Vector" d="M9,5.75l-1,0v0Zm1.142-.638.523-.852h0Zm3.664,2.249.524-.852h0ZM14.163,8h0Zm-.357.639.523.852h0Zm-3.664,2.25.523.853h0ZM9,10.249H9ZM12,15a1,1,0,0,0-2,0Zm-2,4a1,1,0,0,0,2,0ZM7,18a1,1,0,0,0,0,2Zm8,2a1,1,0,0,0,0-2ZM10,5.752a.25.25,0,0,1-.035.126L8.241,4.864A1.75,1.75,0,0,0,8,5.748Zm-.035.126a.25.25,0,0,1-.094.092L8.9,4.224a1.75,1.75,0,0,0-.655.641Zm-.094.092A.25.25,0,0,1,9.745,6l.04-2a1.75,1.75,0,0,0-.889.222ZM9.745,6a.25.25,0,0,1-.126-.037L10.665,4.26A1.75,1.75,0,0,0,9.785,4Zm-.126-.037,3.664,2.249,1.046-1.7L10.665,4.26Zm3.664,2.249a.251.251,0,0,1-.087-.091l1.746-.976a1.749,1.749,0,0,0-.611-.637ZM13.2,8.122A.251.251,0,0,1,13.163,8h2a1.75,1.75,0,0,0-.223-.854ZM13.163,8a.251.251,0,0,1,.032-.122l1.746.976A1.75,1.75,0,0,0,15.163,8Zm.032-.122a.251.251,0,0,1,.087-.091l1.047,1.7a1.75,1.75,0,0,0,.611-.637Zm.088-.091-3.664,2.25,1.047,1.7,3.664-2.25Zm-3.663,2.25A.25.25,0,0,1,9.745,10l.039,2a1.75,1.75,0,0,0,.88-.258ZM9.745,10a.25.25,0,0,1,.127.032l-.978,1.745a1.75,1.75,0,0,0,.89.223Zm.127.032a.25.25,0,0,1,.094.092L8.24,11.134a1.75,1.75,0,0,0,.655.643Zm.094.092A.25.25,0,0,1,10,10.25l-2,0a1.75,1.75,0,0,0,.24.885Zm.034.126V5.75H8v4.5ZM10,15v4h2V15ZM7,20h8V18H7ZM3,2H19V0H3ZM19,2a1,1,0,0,1,1,1h2a3,3,0,0,0-3-3Zm1,1V13h2V3Zm0,10a1,1,0,0,1-1,1v2a3,3,0,0,0,3-3Zm-1,1H3v2H19ZM3,14a1,1,0,0,1-1-1H0a3,3,0,0,0,3,3ZM2,13V3H0V13ZM2,3A1,1,0,0,1,3,2V0A3,3,0,0,0,0,3Z" fill="#09090b"/>
</svg>
