<svg id="monitor-smartphone" xmlns="http://www.w3.org/2000/svg" width="22" height="20" viewBox="0 0 22 20">
  <path id="Vector" d="M16,5a1,1,0,0,0,2,0ZM15,1V1ZM3,1V1ZM1,3H1Zm0,7H1Zm10,3a1,1,0,0,0,0-2ZM8,16a1,1,0,0,0,2,0Zm2-3.96a1,1,0,1,0-2,0ZM8,15.19a1,1,0,0,0,2,0ZM6,15a1,1,0,0,0,0,2Zm5,2a1,1,0,0,0,0-2ZM18,5V3H16V5Zm0-2A3,3,0,0,0,17.121.879L15.707,2.293A1,1,0,0,1,16,3ZM17.121.879A3,3,0,0,0,15,0V2a1,1,0,0,1,.707.293ZM15,0H3V2H15ZM3,0A3,3,0,0,0,.879.879L2.293,2.293A1,1,0,0,1,3,2ZM.879.879A3,3,0,0,0,0,3H2a1,1,0,0,1,.293-.707ZM0,3v7H2V3Zm0,7a3,3,0,0,0,.879,2.121l1.414-1.414A1,1,0,0,1,2,10Zm.879,2.121A3,3,0,0,0,3,13V11a1,1,0,0,1-.707-.293ZM3,13h8V11H3Zm7,3V12.04H8V16ZM8,12.04v3.15h2V12.04ZM6,17h5V15H6Zm11-7h2V8H17Zm2,0a1,1,0,0,1,1,1h2a3,3,0,0,0-3-3Zm1,1v6h2V11Zm0,6a1,1,0,0,1-1,1v2a3,3,0,0,0,3-3Zm-1,1H17v2h2Zm-2,0a1,1,0,0,1-1-1H14a3,3,0,0,0,3,3Zm-1-1V11H14v6Zm0-6a1,1,0,0,1,1-1V8a3,3,0,0,0-3,3Z" fill="#09090b"/>
</svg>
