<svg id="mountain-snow" xmlns="http://www.w3.org/2000/svg" width="22" height="20" viewBox="0 0 22 20">
  <path id="Vector" d="M7,1,7.894.553A1,1,0,0,0,6.051.684Zm4,8-.894.447a1,1,0,0,0,1.6.26Zm5-5,.949-.316a1,1,0,0,0-1.656-.391Zm5,15v1a1,1,0,0,0,.949-1.316ZM1,19l-.949-.316A1,1,0,0,0,1,20Zm1.626-6.778a1,1,0,0,0,1.028,1.716ZM11,13.5l.578-.816h0Zm8.781,1.024a1,1,0,0,0-1.1-1.669ZM6.106,1.447l4,8,1.789-.894-4-8Zm5.6,8.26,5-5L15.293,3.293l-5,5Zm3.344-5.391,5,15,1.9-.632-5-15ZM21,18H1v2H21ZM1.949,19.316l6-18L6.051.684l-6,18Zm1.705-5.378a5.856,5.856,0,0,1,3.363-.932,6.508,6.508,0,0,1,3.407,1.311l1.154-1.634a8.492,8.492,0,0,0-4.453-1.674,7.847,7.847,0,0,0-4.5,1.213Zm6.768.378A8.383,8.383,0,0,0,15.092,16a8.11,8.11,0,0,0,4.689-1.477l-1.1-1.669A6.122,6.122,0,0,1,15.138,14a6.4,6.4,0,0,1-3.56-1.318Z" transform="translate(0 0)" fill="#09090b"/>
</svg>
