<svg id="mouse-pointer" xmlns="http://www.w3.org/2000/svg" width="18.97" height="18.97" viewBox="0 0 18.97 18.97">
  <path id="Vector" d="M1,1,1.385.077A1,1,0,0,0,.077,1.385ZM8.07,17.97l-.923.385a1,1,0,0,0,1.87-.063Zm2.51-7.39-.322-.947a1,1,0,0,0-.625.625Zm7.39-2.51.322.947a1,1,0,0,0,.063-1.87Zm-6.263,2.223a1,1,0,0,0-1.414,1.414Zm4.586,7.414a1,1,0,0,0,1.414-1.414ZM.077,1.385l7.07,16.97,1.846-.769L1.923.615Zm8.94,16.907,2.51-7.39-1.894-.643-2.51,7.39ZM10.9,11.527l7.39-2.51-.643-1.894-7.39,2.51Zm7.453-4.38L1.385.077.615,1.923l16.97,7.07Zm-8.062,4.56,6,6,1.414-1.414-6-6Z" transform="translate(0 0)" fill="#09090b"/>
</svg>
