<svg id="mouse-pointer-2" xmlns="http://www.w3.org/2000/svg" width="19" height="19" viewBox="0 0 19 19">
  <path id="Vector" d="M1,1,1.384.077A1,1,0,0,0,.077,1.384ZM8.07,18l-.923.384a1,1,0,0,0,1.87-.062Zm2.51-7.39-.324-.946a1,1,0,0,0-.623.625ZM18,8.07l.324.946a1,1,0,0,0,.06-1.869ZM.077,1.384l7.07,17,1.847-.768-7.07-17Zm8.94,16.938,2.51-7.39-1.894-.643-2.51,7.39ZM10.9,11.556l7.42-2.54-.648-1.892-7.42,2.54Zm7.48-4.409-17-7.07L.616,1.923l17,7.07Z" transform="translate(0 0)" fill="#09090b"/>
</svg>
