<svg id="mouse-pointer-click" xmlns="http://www.w3.org/2000/svg" width="20.8" height="20.8" viewBox="0 0 20.8 20.8">
  <path id="Vector" d="M7.8,7.8l.385-.923A1,1,0,0,0,6.877,8.185Zm5,12-.923.385a1,1,0,0,0,1.868-.057Zm1.8-5.2-.327-.945a1,1,0,0,0-.618.618Zm5.2-1.8.327.945a1,1,0,0,0,.057-1.868ZM6.964.734a1,1,0,1,0-1.928.532ZM5.836,4.166a1,1,0,0,0,1.928-.532Zm-2.2,3.6a1,1,0,1,0,.532-1.928ZM1.266,5.036A1,1,0,1,0,.734,6.964ZM13.489,3.625a1,1,0,0,0-1.378-1.45Zm-3.377.45a1,1,0,0,0,1.377,1.45ZM5.525,11.489a1,1,0,0,0-1.45-1.377Zm-3.35.623a1,1,0,0,0,1.45,1.378Zm4.7-3.927,5,12,1.846-.769-5-12Zm6.868,11.943,1.8-5.2-1.89-.654-1.8,5.2Zm1.182-4.582,5.2-1.8-.654-1.89-5.2,1.8Zm5.257-3.668-12-5L7.416,8.723l12,5ZM5.036,1.266l.8,2.9,1.928-.532-.8-2.9Zm-.87,4.57-2.9-.8L.734,6.964l2.9.8Zm7.945-3.661-2,1.9,1.377,1.45,2-1.9ZM4.075,10.112l-1.9,2,1.45,1.377,1.9-2Z" transform="translate(0 0)" fill="#09090b"/>
</svg>
