<svg id="navigation-2-off" xmlns="http://www.w3.org/2000/svg" width="22" height="22" viewBox="0 0 22 22">
  <path id="Vector" d="M9.248,8.656a1,1,0,0,0-1.877-.692ZM4,20l-.938-.346A1,1,0,0,0,4.5,20.868Zm7-4,.5-.868a1,1,0,0,0-.992,0Zm7,4-.5.868a1,1,0,0,0,1.434-1.215Zm-.232-3.516a1,1,0,1,0-1.876.692ZM12.592,8.225a1,1,0,1,0,1.877-.69ZM11,1l.939-.345a1,1,0,0,0-1.877,0ZM8.892,3.824a1,1,0,1,0,1.876.693ZM1.707.293A1,1,0,0,0,.293,1.707ZM20.293,21.707a1,1,0,0,0,1.414-1.414ZM7.372,7.964l-4.31,11.69,1.877.692,4.31-11.69ZM4.5,20.868l7-4L10.5,15.132l-7,4Zm6.008-4,7,4,.992-1.736-7-4Zm8.434,2.785-1.17-3.17-1.876.692,1.17,3.17ZM14.469,7.535,11.939.655l-1.877.69,2.53,6.88ZM10.062.654l-1.17,3.17,1.876.693,1.17-3.17ZM.293,1.707l20,20,1.414-1.414-20-20Z" transform="translate(0 0)" fill="#09090b"/>
</svg>
