<svg id="newspaper" xmlns="http://www.w3.org/2000/svg" width="22" height="22" viewBox="0 0 22 22">
  <path id="Vector" d="M19,1V1ZM7,1V1ZM5,3H5ZM5,19H5ZM1,19H1ZM5,9A1,1,0,0,0,5,7Zm12,5a1,1,0,0,0,0-2ZM9,12a1,1,0,0,0,0,2Zm5,6a1,1,0,0,0,0-2ZM9,16a1,1,0,0,0,0,2ZM9,5V4A1,1,0,0,0,8,5Zm8,0h1a1,1,0,0,0-1-1Zm0,4v1a1,1,0,0,0,1-1ZM9,9H8a1,1,0,0,0,1,1ZM3,22H19V20H3Zm16,0a3,3,0,0,0,2.121-.879l-1.414-1.414A1,1,0,0,1,19,20Zm2.121-.879A3,3,0,0,0,22,19H20a1,1,0,0,1-.293.707ZM22,19V3H20V19ZM22,3A3,3,0,0,0,21.121.879L19.707,2.293A1,1,0,0,1,20,3ZM21.121.879A3,3,0,0,0,19,0V2a1,1,0,0,1,.707.293ZM19,0H7V2H19ZM7,0A3,3,0,0,0,4.879.879L6.293,2.293A1,1,0,0,1,7,2ZM4.879.879A3,3,0,0,0,4,3H6a1,1,0,0,1,.293-.707ZM4,3V19H6V3ZM4,19a1,1,0,0,1-.293.707l1.414,1.414A3,3,0,0,0,6,19Zm-.293.707A1,1,0,0,1,3,20v2a3,3,0,0,0,2.121-.879ZM3,20a1,1,0,0,1-.707-.293L.879,21.121A3,3,0,0,0,3,22Zm-.707-.293A1,1,0,0,1,2,19H0a3,3,0,0,0,.879,2.121ZM2,19V10H0v9Zm0-9A1.006,1.006,0,0,1,3,9V7a3.006,3.006,0,0,0-3,3ZM3,9H5V7H3Zm14,3H9v2h8Zm-3,4H9v2h5ZM9,6h8V4H9Zm7-1V9h2V5Zm1,3H9v2h8ZM10,9V5H8V9Z" fill="#09090b"/>
</svg>
