<svg id="notepad-text" xmlns="http://www.w3.org/2000/svg" width="18" height="22" viewBox="0 0 18 22">
  <path id="Vector" d="M6,1A1,1,0,0,0,4,1ZM4,5A1,1,0,0,0,6,5Zm6-4A1,1,0,0,0,8,1ZM8,5a1,1,0,0,0,2,0Zm6-4a1,1,0,0,0-2,0ZM12,5a1,1,0,0,0,2,0ZM5,8a1,1,0,0,0,0,2Zm6,2a1,1,0,0,0,0-2ZM5,12a1,1,0,0,0,0,2Zm8,2a1,1,0,0,0,0-2ZM5,16a1,1,0,0,0,0,2Zm5,2a1,1,0,0,0,0-2ZM4,1V5H6V1ZM8,1V5h2V1Zm4,0V5h2V1ZM3,4H15V2H3ZM15,4a1,1,0,0,1,1,1h2a3,3,0,0,0-3-3Zm1,1V19h2V5Zm0,14a1,1,0,0,1-1,1v2a3,3,0,0,0,3-3Zm-1,1H3v2H15ZM3,20a1,1,0,0,1-1-1H0a3,3,0,0,0,3,3ZM2,19V5H0V19ZM2,5A1,1,0,0,1,3,4V2A3,3,0,0,0,0,5Zm3,5h6V8H5Zm0,4h8V12H5Zm0,4h5V16H5Z" fill="#09090b"/>
</svg>
