<svg id="notebook-pen" xmlns="http://www.w3.org/2000/svg" width="22" height="22" viewBox="0 0 22 22">
  <path id="Vector" d="M12.4,2a1,1,0,1,0,0-2ZM5,1V1ZM3,3H3ZM3,19H3Zm17-7.4a1,1,0,0,0-2,0ZM1,4A1,1,0,0,0,1,6ZM5,6A1,1,0,0,0,5,4ZM1,8a1,1,0,1,0,0,2Zm4,2A1,1,0,1,0,5,8ZM1,12a1,1,0,0,0,0,2Zm4,2a1,1,0,1,0,0-2ZM1,16a1,1,0,0,0,0,2Zm4,2a1,1,0,0,0,0-2ZM20.378,4.626l.707.707h0ZM21,3.124h0ZM18.876,1V1Zm-1.5.622L16.667.915h0Zm-5.01,5.012.707.707h0Zm-.506.854-.96-.28h0Zm-.837,2.87.96.28h0Zm.62.62-.28-.96h0Zm2.87-.837.28.96h0Zm.854-.506-.707-.707h0ZM12.4,0H5V2h7.4ZM5,0A3,3,0,0,0,2.879.879L4.293,2.293A1,1,0,0,1,5,2ZM2.879.879A3,3,0,0,0,2,3H4a1,1,0,0,1,.293-.707ZM2,3V19H4V3ZM2,19a3,3,0,0,0,.879,2.121l1.414-1.414A1,1,0,0,1,4,19Zm.879,2.121A3,3,0,0,0,5,22V20a1,1,0,0,1-.707-.293ZM5,22H17V20H5Zm12,0a3,3,0,0,0,2.121-.879l-1.414-1.414A1,1,0,0,1,17,20Zm2.121-.879A3,3,0,0,0,20,19H18a1,1,0,0,1-.293.707ZM20,19V11.6H18V19ZM1,6H5V4H1Zm0,4H5V8H1Zm0,4H5V12H1Zm0,4H5V16H1ZM21.085,5.333A3.124,3.124,0,0,0,22,3.124H20a1.124,1.124,0,0,1-.329.795ZM22,3.124A3.124,3.124,0,0,0,21.085.915L19.671,2.329A1.124,1.124,0,0,1,20,3.124ZM21.085.915A3.124,3.124,0,0,0,18.876,0V2a1.124,1.124,0,0,1,.795.329ZM18.876,0a3.124,3.124,0,0,0-2.209.915l1.414,1.414A1.124,1.124,0,0,1,18.876,2ZM16.667.915l-5.01,5.012,1.415,1.414,5.01-5.012Zm-5.01,5.012A3,3,0,0,0,10.9,7.208l1.92.561a1,1,0,0,1,.253-.427ZM10.9,7.208l-.837,2.87,1.92.56.837-2.87Zm-.837,2.87a1.5,1.5,0,0,0-.013.792l1.937-.5a.5.5,0,0,1,0,.264Zm-.013.792a1.5,1.5,0,0,0,.392.688l1.414-1.414a.5.5,0,0,1,.131.229Zm.392.688a1.5,1.5,0,0,0,.688.392l.5-1.937a.5.5,0,0,1,.229.131Zm.688.392a1.5,1.5,0,0,0,.792-.013l-.56-1.92a.5.5,0,0,1,.264,0Zm.792-.013,2.87-.837-.56-1.92-2.87.837Zm2.87-.837a3,3,0,0,0,1.281-.759L14.658,8.928a1,1,0,0,1-.427.253Zm1.281-.759,5.013-5.009L19.671,3.919,14.658,8.928Z" fill="#09090b"/>
</svg>
