<svg id="notepad-text-dashed" xmlns="http://www.w3.org/2000/svg" width="18" height="22" viewBox="0 0 18 22">
  <path id="Vector" d="M6,1A1,1,0,0,0,4,1ZM4,5A1,1,0,0,0,6,5Zm6-4A1,1,0,0,0,8,1ZM8,5a1,1,0,0,0,2,0Zm6-4a1,1,0,0,0-2,0ZM12,5a1,1,0,0,0,2,0Zm1-3a1,1,0,0,0,0,2Zm2,1V3Zm1,4a1,1,0,0,0,2,0Zm2,4a1,1,0,0,0-2,0Zm-2,2a1,1,0,0,0,2,0Zm2,4a1,1,0,0,0-2,0Zm-4,3a1,1,0,0,0,0,2Zm-4,2a1,1,0,0,0,0-2ZM8,20a1,1,0,0,0,0,2ZM4,22a1,1,0,0,0,0-2ZM1,19H1Zm1-2a1,1,0,0,0-2,0ZM0,13a1,1,0,0,0,2,0Zm2-2a1,1,0,0,0-2,0ZM0,7A1,1,0,0,0,2,7ZM3,3V3ZM5,4A1,1,0,0,0,5,2ZM5,8a1,1,0,0,0,0,2Zm6,2a1,1,0,0,0,0-2ZM5,12a1,1,0,0,0,0,2Zm8,2a1,1,0,0,0,0-2ZM5,16a1,1,0,0,0,0,2Zm5,2a1,1,0,0,0,0-2ZM4,1V5H6V1ZM8,1V5h2V1Zm4,0V5h2V1Zm1,3h2V2H13Zm2,0a1,1,0,0,1,.707.293l1.414-1.414A3,3,0,0,0,15,2Zm.707.293A1,1,0,0,1,16,5h2a3,3,0,0,0-.879-2.121ZM16,5V7h2V5Zm0,6v2h2V11Zm0,6v2h2V17Zm0,2a1,1,0,0,1-.293.707l1.414,1.414A3,3,0,0,0,18,19Zm-.293.707A1,1,0,0,1,15,20v2a3,3,0,0,0,2.121-.879ZM15,20H14v2h1Zm-5,0H8v2h2ZM4,20H3v2H4ZM3,20a1,1,0,0,1-.707-.293L.879,21.121A3,3,0,0,0,3,22Zm-.707-.293A1,1,0,0,1,2,19H0a3,3,0,0,0,.879,2.121ZM2,19V17H0v2Zm0-6V11H0v2ZM2,7V5H0V7ZM2,5a1,1,0,0,1,.293-.707L.879,2.879A3,3,0,0,0,0,5Zm.293-.707A1,1,0,0,1,3,4V2a3,3,0,0,0-2.121.879ZM3,4H5V2H3Zm2,6h6V8H5Zm0,4h8V12H5Zm0,4h5V16H5Z" fill="#09090b"/>
</svg>
