<svg id="orbit" xmlns="http://www.w3.org/2000/svg" width="22.031" height="22.047" viewBox="0 0 22.031 22.047">
  <path id="Vector" d="M9.572,19.928A1,1,0,1,0,9.248,21.9ZM20.183,4.944a1,1,0,1,0-1.664,1.11ZM12.359,2.1a1,1,0,1,0,.3-1.977ZM1.835,17.084A1,1,0,0,0,3.5,15.978ZM13.01,11.015a2,2,0,0,1-2,2v2a4,4,0,0,0,4-4Zm-2,2a2,2,0,0,1-2-2h-2a4,4,0,0,0,4,4Zm-2-2a2,2,0,0,1,2-2v-2a4,4,0,0,0-4,4Zm2-2a2,2,0,0,1,2,2h2a4,4,0,0,0-4-4Zm8-5a1,1,0,0,1-1,1v2a3,3,0,0,0,3-3Zm-1,1a1,1,0,0,1-1-1h-2a3,3,0,0,0,3,3Zm-1-1a1,1,0,0,1,1-1v-2a3,3,0,0,0-3,3Zm1-1a1,1,0,0,1,1,1h2a3,3,0,0,0-3-3Zm-13,15a1,1,0,0,1-1,1v2a3,3,0,0,0,3-3Zm-1,1a1,1,0,0,1-1-1h-2a3,3,0,0,0,3,3Zm-1-1a1,1,0,0,1,1-1v-2a3,3,0,0,0-3,3Zm1-1a1,1,0,0,1,1,1h2a3,3,0,0,0-3-3ZM9.248,21.9a11,11,0,0,0,6.245-.8l-.811-1.828a9,9,0,0,1-5.109.654Zm6.245-.8a11,11,0,0,0,4.783-4.093l-1.681-1.084a9,9,0,0,1-3.914,3.349Zm4.783-4.093a11,11,0,0,0,1.755-6.046l-2,.015a9,9,0,0,1-1.436,4.947Zm1.755-6.046a11,11,0,0,0-1.848-6.018l-1.664,1.11a9,9,0,0,1,1.512,4.924ZM12.66.126a11,11,0,0,0-6.2.855L7.285,2.8a9,9,0,0,1,5.074-.7Zm-6.2.855a11,11,0,0,0-4.731,4.1L3.414,6.157A9,9,0,0,1,7.285,2.8Zm-4.731,4.1A11,11,0,0,0,0,11.1l2-.018A9,9,0,0,1,3.414,6.157ZM0,11.1a11,11,0,0,0,1.835,5.985L3.5,15.977A9,9,0,0,1,2,11.08Z" transform="translate(0 0)" fill="#09090b"/>
</svg>
