<svg id="package-open" xmlns="http://www.w3.org/2000/svg" width="21.96" height="22.017" viewBox="0 0 21.96 22.017">
  <path id="Vector" d="M9.98,21.017a1,1,0,0,0,2,0Zm2-9a1,1,0,0,0-2,0Zm2.17-10.79L13.662.354l0,0Zm.815-.212v0Zm.815.212.49-.872h0Zm4.2,2.36.492-.87h0Zm0,3.36.491.871h0ZM7.8,13.807l-.491-.871,0,0Zm-.82.217v0Zm-.82-.217.5-.869,0,0Zm-4.18-2.36-.492.87h0Zm0-3.36-.491-.871h0Zm18,3.93a1,1,0,1,0-2,0Zm-1,3.87h0Zm-1.11,1.83.457.89,0,0Zm-6,3.08-.457-.89,0,0Zm-1.78,0,.461-.887,0,0Zm-6-3.08-.461.887,0,0Zm-1.11-1.83h0Zm1-3.87a1,1,0,0,0-2,0Zm16-.57.491.871h0Zm0-3.36.492-.87h0ZM7.81,1.217l-.5.868.005,0ZM6.995,1V1Zm-.815.217.491.871.005,0Zm-4.2,2.37-.491-.871h0Zm0,3.36-.492.87h0Zm12.18,6.86.5-.867-.007,0Zm1.63,0-.491-.871-.007,0Zm-3.81,7.21v-9h-2v9ZM14.638,2.1a.67.67,0,0,1,.327-.085v-2a2.67,2.67,0,0,0-1.3.34Zm.327-.085a.67.67,0,0,1,.327.085L16.268.354a2.67,2.67,0,0,0-1.3-.34Zm.325.084,4.2,2.36.98-1.744L16.27.355Zm4.2,2.359a.93.93,0,0,1,.346.341L21.561,3.79a2.93,2.93,0,0,0-1.089-1.074Zm.345.341a.93.93,0,0,1,.127.469h2a2.93,2.93,0,0,0-.4-1.476Zm.127.469a.93.93,0,0,1-.127.469l1.728,1.008a2.93,2.93,0,0,0,.4-1.476Zm-.127.469a.93.93,0,0,1-.345.341l.984,1.741a2.93,2.93,0,0,0,1.089-1.074Zm-.344.34-12.18,6.86.981,1.743,12.18-6.86ZM7.3,12.938a.656.656,0,0,1-.325.086v2A2.655,2.655,0,0,0,8.3,14.675Zm-.325.086a.656.656,0,0,1-.325-.086l-.991,1.737a2.655,2.655,0,0,0,1.315.349Zm-.328-.088-4.18-2.36-.983,1.742,4.18,2.36Zm-4.179-2.36a.93.93,0,0,1-.346-.341L.4,11.243a2.93,2.93,0,0,0,1.089,1.074Zm-.346-.341A.93.93,0,0,1,2,9.767H0a2.93,2.93,0,0,0,.4,1.476ZM2,9.767A.93.93,0,0,1,2.127,9.3L.4,8.29A2.93,2.93,0,0,0,0,9.767ZM2.127,9.3a.93.93,0,0,1,.346-.341L1.488,7.216A2.93,2.93,0,0,0,.4,8.29Zm.344-.34L14.641,2.1,13.659.356,1.489,7.216ZM17.98,12.017v3.87h2v-3.87Zm0,3.871a1.06,1.06,0,0,1-.154.551l1.71,1.037a3.059,3.059,0,0,0,.444-1.59Zm-.154.551a1.059,1.059,0,0,1-.417.391l.922,1.775a3.061,3.061,0,0,0,1.205-1.128Zm-.413.389-6,3.08.913,1.779,6-3.08Zm-6,3.082a.929.929,0,0,1-.429.1v2a2.93,2.93,0,0,0,1.351-.33Zm-.429.1a.929.929,0,0,1-.429-.1l-.922,1.775a2.93,2.93,0,0,0,1.351.33Zm-.433-.107-6-3.08-.913,1.779,6,3.08Zm-6-3.078a1.059,1.059,0,0,1-.417-.391l-1.71,1.037A3.06,3.06,0,0,0,3.629,18.6Zm-.417-.391a1.06,1.06,0,0,1-.154-.551l-2,0a3.06,3.06,0,0,0,.444,1.59Zm-.154-.552v-3.87h-2v3.87Zm16.492-3.569a2.93,2.93,0,0,0,1.089-1.074l-1.728-1.008a.93.93,0,0,1-.345.341Zm1.089-1.074a2.93,2.93,0,0,0,.4-1.476h-2a.93.93,0,0,1-.127.469Zm.4-1.476a2.93,2.93,0,0,0-.4-1.476L19.833,9.3a.93.93,0,0,1,.127.469Zm-.4-1.476a2.93,2.93,0,0,0-1.089-1.074l-.984,1.741a.93.93,0,0,1,.346.341ZM20.472,7.216,8.3.346,7.318,2.088l12.17,6.87ZM8.307.349A2.64,2.64,0,0,0,6.995,0V2a.64.64,0,0,1,.318.085ZM6.995,0A2.64,2.64,0,0,0,5.683.349l.994,1.736A.64.64,0,0,1,6.995,2ZM5.689.346l-4.2,2.37.983,1.742,4.2-2.37Zm-4.2,2.37A2.93,2.93,0,0,0,.4,3.79L2.127,4.8a.93.93,0,0,1,.346-.341ZM.4,3.79A2.93,2.93,0,0,0,0,5.267H2A.93.93,0,0,1,2.127,4.8ZM0,5.267A2.93,2.93,0,0,0,.4,6.743L2.127,5.735A.93.93,0,0,1,2,5.267ZM.4,6.743A2.93,2.93,0,0,0,1.488,7.817l.984-1.741a.93.93,0,0,1-.346-.341Zm1.09,1.075,12.18,6.86.981-1.743L2.471,6.076Zm12.173,6.856a2.636,2.636,0,0,0,1.313.35v-2a.637.637,0,0,1-.317-.085Zm1.313.35a2.636,2.636,0,0,0,1.313-.35l-1-1.734a.636.636,0,0,1-.317.085Zm1.306-.346,4.19-2.36-.982-1.743-4.19,2.36Z" transform="translate(0)" fill="#09090b"/>
</svg>
