<svg id="package-2" xmlns="http://www.w3.org/2000/svg" width="20" height="20" viewBox="0 0 20 20">
  <path id="Vector" d="M1,7,.106,6.553A1,1,0,0,0,0,7ZM19,7h1a1,1,0,0,0-.1-.446ZM1,17H1ZM3.45,2.1l-.893-.45v0ZM5.24,1l0,1h0Zm9.52,0V2h.007Zm1.8,1.1.9-.446,0,0ZM11,1A1,1,0,0,0,9,1ZM9,7a1,1,0,0,0,2,0ZM1,8H19V6H1ZM18,7V17h2V7Zm0,10a1,1,0,0,1-.293.707l1.414,1.414A3,3,0,0,0,20,17Zm-.293.707A1,1,0,0,1,17,18v2a3,3,0,0,0,2.121-.879ZM17,18H3v2H17ZM3,18a1,1,0,0,1-.707-.293L.879,19.121A3,3,0,0,0,3,20Zm-.707-.293A1,1,0,0,1,2,17H0a3,3,0,0,0,.879,2.121ZM2,17V7H0V17ZM1.894,7.447l2.45-4.9L2.556,1.653l-2.45,4.9Zm2.449-4.9a1,1,0,0,1,.369-.4L3.665.444A3,3,0,0,0,2.557,1.65Zm.369-.4A1,1,0,0,1,5.238,2l0-2A3,3,0,0,0,3.665.444ZM5.24,2h9.52V0H5.24Zm9.527,0a1,1,0,0,1,.528.147L16.338.44A3,3,0,0,0,14.753,0Zm.528.147a1,1,0,0,1,.372.4l1.786-.9A3,3,0,0,0,16.338.44Zm.369.4,2.44,4.9,1.79-.892-2.44-4.9ZM9,1V7h2V1Z" transform="translate(0 0)" fill="#09090b"/>
</svg>
