<svg id="package-plus" xmlns="http://www.w3.org/2000/svg" width="21" height="21.998" viewBox="0 0 21 21.998">
  <path id="Vector" d="M14,14a1,1,0,0,0,0,2Zm6,2a1,1,0,0,0,0-2Zm-2-4a1,1,0,0,0-2,0Zm-2,6a1,1,0,0,0,2,0Zm2-9a1,1,0,0,0,2,0Zm1-2h0Zm-1-1.73.5-.866,0,0Zm-7-4-.5.866,0,0Zm-2,0,.5.868,0,0Zm-7,4L1.5,4.4l0,0ZM1,7H1Zm0,8H1Zm1,1.73-.5.866,0,0Zm7,4,.5-.866,0,0Zm2,0-.5-.869,0,0Zm2.5-.271a1,1,0,1,0-.99-1.738ZM6,2.4A1,1,0,1,0,5,4.136ZM14,9.286A1,1,0,0,0,15,7.55ZM1.788,5.131a1,1,0,1,0-1,1.735Zm17.42,1.735a1,1,0,0,0-1-1.735ZM9,21a1,1,0,0,0,2,0Zm5-5h6V14H14Zm2-4v6h2V12Zm4-3V7H18V9Zm0-2a3,3,0,0,0-.4-1.5l-1.732,1A1,1,0,0,1,18,7Zm-.4-1.5a3,3,0,0,0-1.1-1.1l-1,1.732a1,1,0,0,1,.366.366ZM18.5,4.4l-7-4L10.5,2.136l7,4Zm-7-4A3,3,0,0,0,10,0V2a1,1,0,0,1,.5.134ZM10,0A3,3,0,0,0,8.5.4l1,1.732A1,1,0,0,1,10,2ZM8.5.4l-7,4L2.5,6.136l7-4Zm-7,4A3,3,0,0,0,.4,5.5l1.732,1A1,1,0,0,1,2.5,6.134ZM.4,5.5A3,3,0,0,0,0,7L2,7a1,1,0,0,1,.134-.5ZM0,7v8H2V7Zm0,8a3,3,0,0,0,.4,1.5l1.732-1A1,1,0,0,1,2,15Zm.4,1.5a3,3,0,0,0,1.1,1.1l1-1.732a1,1,0,0,1-.366-.366Zm1.1,1.1,7,4L9.5,19.86l-7-4Zm7,4A3,3,0,0,0,10,22V20a1,1,0,0,1-.5-.134ZM10,22a3,3,0,0,0,1.5-.4l-1-1.732A1,1,0,0,1,10,20Zm1.5-.4,2-1.14-.99-1.737-2,1.14ZM5,4.136l9,5.15L15,7.55,6,2.4ZM.792,6.865l8.71,5,1-1.735-8.71-5Zm9.706,5,8.71-5-1-1.735-8.71,5ZM11,21V11H9V21Z" fill="#09090b"/>
</svg>
