<svg id="paint-roller" xmlns="http://www.w3.org/2000/svg" width="22" height="22" viewBox="0 0 22 22">
  <path id="Vector" d="M8,15a1,1,0,0,0,2,0Zm3-4v0Zm8-7V4ZM17,3a1,1,0,0,0,0,2ZM3,2H15V0H3ZM15,2a1,1,0,0,1,1,1h2a3,3,0,0,0-3-3Zm1,1V5h2V3Zm0,2a1,1,0,0,1-1,1V8a3,3,0,0,0,3-3ZM15,6H3V8H15ZM3,6A1,1,0,0,1,2,5H0A3,3,0,0,0,3,8ZM2,5V3H0V5ZM2,3A1,1,0,0,1,3,2V0A3,3,0,0,0,0,3Zm8,12V13H8v2Zm0-2a1,1,0,0,1,.293-.707L8.879,10.879A3,3,0,0,0,8,13Zm.293-.707A1,1,0,0,1,11,12V10a3,3,0,0,0-2.121.879ZM11,12h8V10H11Zm8,0a3,3,0,0,0,2.121-.879L19.707,9.707A1,1,0,0,1,19,10Zm2.121-.879A3,3,0,0,0,22,9H20a1,1,0,0,1-.293.707ZM22,9V6H20V9Zm0-3a3,3,0,0,0-.879-2.121L19.707,5.293A1,1,0,0,1,20,6Zm-.879-2.121A3,3,0,0,0,19,3V5a1,1,0,0,1,.707.293ZM19,3H17V5h2ZM8,16h2V14H8Zm2,0h2a2,2,0,0,0-2-2Zm0,0v4h2V16Zm0,4v2a2,2,0,0,0,2-2Zm0,0H8v2h2ZM8,20H6a2,2,0,0,0,2,2Zm0,0V16H6v4Zm0-4V14a2,2,0,0,0-2,2Z" fill="#09090b"/>
</svg>
