<svg id="paintbrush-vertical" xmlns="http://www.w3.org/2000/svg" width="16" height="21.9" viewBox="0 0 16 21.9">
  <path id="Vector" d="M7,1A1,1,0,0,0,5,1ZM5,3A1,1,0,0,0,7,3Zm6-2A1,1,0,0,0,9,1ZM9,5a1,1,0,0,0,2,0Zm4-4V1ZM3,1V1ZM1,13H1ZM5,1V3H7V1ZM9,1V5h2V1Zm4,1h0L14.414.586A2,2,0,0,0,13,0Zm0,0h2A2,2,0,0,0,14.414.586Zm0,0v9h2V2Zm1,8H2v2H14ZM3,11V2H1v9ZM3,2H3L1.586.586A2,2,0,0,0,1,2ZM3,2H3V0A2,2,0,0,0,1.586.586ZM3,2H13V0H3ZM2,10a2,2,0,0,0-1.414.586L2,12H2Zm-1.414.586A2,2,0,0,0,0,12H2ZM0,12v1H2V12Zm0,1a3,3,0,0,0,.879,2.121l1.414-1.414A1,1,0,0,1,2,13Zm.879,2.121A3,3,0,0,0,3,16V14a1,1,0,0,1-.707-.293ZM3,16H5V14H3Zm2,0H5l1.414-1.414A2,2,0,0,0,5,14Zm0,0H7a2,2,0,0,0-.586-1.414Zm0,0v2.9H7V16Zm0,2.9a3,3,0,0,0,.879,2.121l1.414-1.414A1,1,0,0,1,7,18.9Zm.879,2.121A3,3,0,0,0,8,21.9v-2a1,1,0,0,1-.707-.293ZM8,21.9a3,3,0,0,0,2.121-.879L8.707,19.607A1,1,0,0,1,8,19.9Zm2.121-.879A3,3,0,0,0,11,18.9H9a1,1,0,0,1-.293.707ZM11,18.9V16H9v2.9ZM11,16h0L9.586,14.586A2,2,0,0,0,9,16Zm0,0h0V14a2,2,0,0,0-1.414.586Zm0,0h2V14H11Zm2,0a3,3,0,0,0,2.121-.879l-1.414-1.414A1,1,0,0,1,13,14Zm2.121-.879A3,3,0,0,0,16,13H14a1,1,0,0,1-.293.707ZM16,13V12H14v1Zm0-1a2,2,0,0,0-.586-1.414L14,12h2Zm-.586-1.414A2,2,0,0,0,14,10v2h0Z" fill="#09090b"/>
</svg>
