<svg id="paint-bucket" xmlns="http://www.w3.org/2000/svg" width="22.172" height="22" viewBox="0 0 22.172 22">
  <path id="Vector" d="M18.172,10l.707.707a1,1,0,0,0,0-1.414Zm-8-8,.707-.707a1,1,0,0,0-1.414,0Zm-8.6,8.6L.865,9.893.858,9.9ZM1,12H1Zm.572,1.4-.714.7.007.007Zm5.2,5.2-.707.707h0ZM4.879.293A1,1,0,0,0,3.465,1.707ZM8.465,6.707A1,1,0,1,0,9.879,5.293ZM1.172,11a1,1,0,0,0,0,2Zm15,2a1,1,0,0,0,0-2Zm3,2,.983-.184a1,1,0,0,0-1.966,0Zm-.293-5.707-8-8L9.465,2.707l8,8Zm-9.414-8-8.6,8.6,1.414,1.414,8.6-8.6ZM.858,9.9A3,3,0,0,0,0,12H2a1,1,0,0,1,.286-.7ZM0,12a3,3,0,0,0,.858,2.1l1.428-1.4A1,1,0,0,1,2,12Zm.865,2.107,5.2,5.2,1.414-1.414-5.2-5.2Zm5.2,5.2a2.933,2.933,0,0,0,4.214,0L8.865,17.893a.935.935,0,0,1-1.386,0Zm4.214,0,8.6-8.6L17.465,9.293l-8.6,8.6ZM3.465,1.707l5,5L9.879,5.293l-5-5ZM1.172,13h15V11h-15Zm19,6a1,1,0,0,1-.293.707l1.414,1.414A3,3,0,0,0,22.172,19Zm-.293.707a1,1,0,0,1-.707.293v2a3,3,0,0,0,2.121-.879ZM19.172,20a1,1,0,0,1-.707-.293L17.05,21.121A3,3,0,0,0,19.172,22Zm-.707-.293A1,1,0,0,1,18.172,19h-2a3,3,0,0,0,.879,2.121ZM18.172,19a2.33,2.33,0,0,1,.68-1.389,5.7,5.7,0,0,0,1.3-2.426l-1.966-.369a3.9,3.9,0,0,1-.922,1.574A4.221,4.221,0,0,0,16.172,19Zm.017-3.816a5.7,5.7,0,0,0,1.3,2.426A2.33,2.33,0,0,1,20.172,19h2a4.221,4.221,0,0,0-1.1-2.611,3.905,3.905,0,0,1-.922-1.574Z" fill="#09090b"/>
</svg>
