<svg id="panel-top-dashed" xmlns="http://www.w3.org/2000/svg" width="20" height="20" viewBox="0 0 20 20">
  <path id="Vector" d="M12,6a1,1,0,0,0,0,2Zm1,2a1,1,0,0,0,0-2Zm4-2a1,1,0,0,0,0,2Zm2,2a1,1,0,0,0,0-2ZM1,6A1,1,0,0,0,1,8ZM3,8A1,1,0,0,0,3,6ZM7,6A1,1,0,0,0,7,8ZM8,8A1,1,0,0,0,8,6ZM3,2H17V0H3ZM17,2a1,1,0,0,1,1,1h2a3,3,0,0,0-3-3Zm1,1V17h2V3Zm0,14a1,1,0,0,1-1,1v2a3,3,0,0,0,3-3Zm-1,1H3v2H17ZM3,18a1,1,0,0,1-1-1H0a3,3,0,0,0,3,3ZM2,17V3H0V17ZM2,3A1,1,0,0,1,3,2V0A3,3,0,0,0,0,3ZM12,8h1V6H12Zm5,0h2V6H17ZM1,8H3V6H1ZM7,8H8V6H7Z" fill="#09090b"/>
</svg>
