<svg id="panel-top-open" xmlns="http://www.w3.org/2000/svg" width="20" height="20" viewBox="0 0 20 20">
  <path id="Vector" d="M1,6A1,1,0,0,0,1,8ZM19,8a1,1,0,0,0,0-2Zm-5.293,4.707a1,1,0,0,0-1.414-1.414ZM10,15l-.707.707a1,1,0,0,0,1.414,0ZM7.707,11.293a1,1,0,0,0-1.414,1.414ZM3,2H17V0H3ZM17,2a1,1,0,0,1,1,1h2a3,3,0,0,0-3-3Zm1,1V17h2V3Zm0,14a1,1,0,0,1-1,1v2a3,3,0,0,0,3-3Zm-1,1H3v2H17ZM3,18a1,1,0,0,1-1-1H0a3,3,0,0,0,3,3ZM2,17V3H0V17ZM2,3A1,1,0,0,1,3,2V0A3,3,0,0,0,0,3ZM1,8H19V6H1Zm11.293,3.293-3,3,1.414,1.414,3-3Zm-1.586,3-3-3L6.293,12.707l3,3Z" fill="#09090b"/>
</svg>
