<svg id="panel-left-dashed" xmlns="http://www.w3.org/2000/svg" width="20" height="20" viewBox="0 0 20 20">
  <path id="Vector" d="M8,12a1,1,0,0,0-2,0ZM6,13a1,1,0,0,0,2,0Zm2,4a1,1,0,0,0-2,0ZM6,19a1,1,0,0,0,2,0ZM8,1A1,1,0,0,0,6,1ZM6,3A1,1,0,0,0,8,3ZM8,7A1,1,0,0,0,6,7ZM6,8A1,1,0,0,0,8,8ZM3,2H17V0H3ZM17,2a1,1,0,0,1,1,1h2a3,3,0,0,0-3-3Zm1,1V17h2V3Zm0,14a1,1,0,0,1-1,1v2a3,3,0,0,0,3-3Zm-1,1H3v2H17ZM3,18a1,1,0,0,1-1-1H0a3,3,0,0,0,3,3ZM2,17V3H0V17ZM2,3A1,1,0,0,1,3,2V0A3,3,0,0,0,0,3Zm4,9v1H8V12Zm0,5v2H8V17ZM6,1V3H8V1ZM6,7V8H8V7Z" fill="#09090b"/>
</svg>
