<svg id="paperclip" xmlns="http://www.w3.org/2000/svg" width="21.438" height="21.994" viewBox="0 0 21.438 21.994">
  <path id="Vector" d="M21.145,10.753a1,1,0,0,0-1.414-1.414Zm-9.9,8.483-.707-.707h0ZM7,20.994v0Zm-6-6H1Zm1.758-4.245.707.707Zm8.57-8.57.707.707h0ZM17,7.836l.706.708h0Zm-8.59,8.57L7.7,15.7h0Zm-2.83-2.83-.707-.708h0Zm9.2-7.773a1,1,0,1,0-1.413-1.415Zm4.956,3.535-9.19,9.19,1.414,1.414,9.19-9.19Zm-9.19,9.19A5,5,0,0,1,7,19.994v2a7,7,0,0,0,4.952-2.051ZM7,19.994a5,5,0,0,1-3.538-1.465L2.051,19.943A7,7,0,0,0,7,21.994ZM3.465,18.529A5,5,0,0,1,2,14.991H0a7,7,0,0,0,2.051,4.952ZM2,14.991a5,5,0,0,1,1.465-3.538L2.051,10.039A7,7,0,0,0,0,14.991Zm1.465-3.538,8.57-8.57L10.621,1.469l-8.57,8.57Zm8.571-8.571A3.006,3.006,0,0,1,14.161,2l0-2a5.006,5.006,0,0,0-3.538,1.469ZM14.161,2a3.006,3.006,0,0,1,2.126.878L17.7,1.463A5.006,5.006,0,0,0,14.159,0Zm2.126.878A3.006,3.006,0,0,1,17.169,5l2,0A5.006,5.006,0,0,0,17.7,1.463ZM17.169,5a3.006,3.006,0,0,1-.878,2.126l1.416,1.413A5.006,5.006,0,0,0,19.169,5Zm-.877,2.125L7.7,15.7l1.413,1.416,8.59-8.57ZM7.7,15.7a1,1,0,0,1-.708.293v2a3,3,0,0,0,2.122-.879Zm-.708.293a1,1,0,0,1-.708-.293L4.871,17.113a3,3,0,0,0,2.122.879ZM6.285,15.7a1,1,0,0,1-.293-.708h-2a3,3,0,0,0,.879,2.122Zm-.293-.708a1,1,0,0,1,.293-.708L4.871,12.869a3,3,0,0,0-.879,2.122Zm.293-.707,8.49-8.48L13.362,4.388l-8.49,8.48Z" transform="translate(0 0)" fill="#09090b"/>
</svg>
