<svg id="paw-print" xmlns="http://www.w3.org/2000/svg" width="21.994" height="21.999" viewBox="0 0 21.994 21.999">
  <path id="Vector" d="M12.994,14h0Zm0,3.5h0Zm-6.84,1.045-.955.3v0Zm-2.7-2.7-.3.954h0ZM4.494,9V8h0Zm6.5-6a1,1,0,0,1-1,1V6a3,3,0,0,0,3-3Zm-1,1a1,1,0,0,1-1-1h-2a3,3,0,0,0,3,3Zm-1-1a1,1,0,0,1,1-1V0a3,3,0,0,0-3,3Zm1-1a1,1,0,0,1,1,1h2a3,3,0,0,0-3-3Zm8,5a1,1,0,0,1-1,1v2a3,3,0,0,0,3-3Zm-1,1a1,1,0,0,1-1-1h-2a3,3,0,0,0,3,3Zm-1-1a1,1,0,0,1,1-1V4a3,3,0,0,0-3,3Zm1-1a1,1,0,0,1,1,1h2a3,3,0,0,0-3-3Zm3,9a1,1,0,0,1-1,1v2a3,3,0,0,0,3-3Zm-1,1a1,1,0,0,1-1-1h-2a3,3,0,0,0,3,3Zm-1-1a1,1,0,0,1,1-1V12a3,3,0,0,0-3,3Zm1-1a1,1,0,0,1,1,1h2a3,3,0,0,0-3-3Zm-11-4a4,4,0,0,1,1.531.3l.765-1.848A6,6,0,0,0,7.994,8Zm1.531.3a4,4,0,0,1,1.3.867l1.414-1.414a6,6,0,0,0-1.947-1.3Zm1.3.867a4,4,0,0,1,.867,1.3l1.848-.765a6,6,0,0,0-1.3-1.947Zm.867,1.3a4,4,0,0,1,.3,1.531h2a6,6,0,0,0-.457-2.3Zm.3,1.531v3.5h2V14Zm0,3.5a2.5,2.5,0,0,1-.6,1.628l1.517,1.3A4.5,4.5,0,0,0,13.994,17.5Zm-.6,1.628a2.5,2.5,0,0,1-1.519.842l.3,1.977a4.5,4.5,0,0,0,2.734-1.516Zm-1.519.842a2.5,2.5,0,0,1-1.7-.35l-1.059,1.7a4.5,4.5,0,0,0,3.062.631Zm-1.7-.35a2.5,2.5,0,0,1-1.062-1.374l-1.909.6a4.5,4.5,0,0,0,1.912,2.473ZM7.109,18.249a4.879,4.879,0,0,0-3.358-3.364L3.157,16.8A2.886,2.886,0,0,1,5.2,18.841ZM3.753,14.886a2.5,2.5,0,0,1-1.373-1.062l-1.7,1.059a4.5,4.5,0,0,0,2.472,1.911ZM2.379,13.824a2.5,2.5,0,0,1-.351-1.7l-1.977-.3a4.5,4.5,0,0,0,.632,3.06Zm-.351-1.7a2.5,2.5,0,0,1,.84-1.519L1.564,9.09A4.5,4.5,0,0,0,.051,11.824Zm.84-1.519A2.5,2.5,0,0,1,4.5,10l0-2A4.5,4.5,0,0,0,1.564,9.09ZM4.494,10h3.5V8h-3.5Z" transform="translate(0)" fill="#09090b"/>
</svg>
