<svg id="pen" xmlns="http://www.w3.org/2000/svg" width="22" height="22" viewBox="0 0 22 22">
  <path id="Vector" d="M20.174,5.812l-.707-.707h0ZM16.188,1.825l-.707-.707h0ZM2.842,15.174l.706.708h0Zm-.5.83-.956-.293v0ZM1.021,20.356l-.957-.291v0Zm.623.622.288.958h0ZM6,19.658l.29.957h0Zm.83-.5.706.708h0ZM20.881,6.52A3.819,3.819,0,0,0,22,3.819H20a1.818,1.818,0,0,1-.533,1.286ZM22,3.819a3.819,3.819,0,0,0-1.118-2.7L19.467,2.533A1.819,1.819,0,0,1,20,3.819Zm-1.118-2.7A3.819,3.819,0,0,0,18.181,0V2a1.819,1.819,0,0,1,1.286.533ZM18.181,0a3.819,3.819,0,0,0-2.7,1.118L16.9,2.533A1.819,1.819,0,0,1,18.181,2Zm-2.7,1.118L2.135,14.467l1.414,1.414L16.9,2.532ZM2.136,14.466a3,3,0,0,0-.75,1.245L3.3,16.3a1,1,0,0,1,.25-.415Zm-.751,1.248L.064,20.066l1.914.581L3.3,16.295ZM.063,20.07a1.5,1.5,0,0,0-.017.8l1.939-.491a.5.5,0,0,1-.006.266Zm-.017.8a1.5,1.5,0,0,0,.394.694l1.413-1.415a.5.5,0,0,1,.131.231Zm.394.694a1.5,1.5,0,0,0,.694.393l.488-1.94a.5.5,0,0,1,.231.131Zm.694.393a1.5,1.5,0,0,0,.8-.018l-.576-1.915a.5.5,0,0,1,.266-.006Zm.8-.019,4.353-1.32L5.707,18.7l-4.353,1.32Zm4.354-1.32a3,3,0,0,0,1.245-.746L6.121,18.453a1,1,0,0,1-.415.249Zm1.246-.747L20.881,6.519,19.467,5.105,6.12,18.454Z" transform="translate(0 0)" fill="#09090b"/>
</svg>
