<svg id="percent" xmlns="http://www.w3.org/2000/svg" width="18" height="18" viewBox="0 0 18 18">
  <path id="Vector" d="M16.707,2.707a1,1,0,0,0-1.414-1.414ZM1.293,15.293a1,1,0,0,0,1.414,1.414Zm14-14-14,14,1.414,1.414,14-14ZM5,3.5A1.5,1.5,0,0,1,3.5,5V7A3.5,3.5,0,0,0,7,3.5ZM3.5,5A1.5,1.5,0,0,1,2,3.5H0A3.5,3.5,0,0,0,3.5,7ZM2,3.5A1.5,1.5,0,0,1,3.5,2V0A3.5,3.5,0,0,0,0,3.5ZM3.5,2A1.5,1.5,0,0,1,5,3.5H7A3.5,3.5,0,0,0,3.5,0ZM16,14.5A1.5,1.5,0,0,1,14.5,16v2A3.5,3.5,0,0,0,18,14.5ZM14.5,16A1.5,1.5,0,0,1,13,14.5H11A3.5,3.5,0,0,0,14.5,18ZM13,14.5A1.5,1.5,0,0,1,14.5,13V11A3.5,3.5,0,0,0,11,14.5ZM14.5,13A1.5,1.5,0,0,1,16,14.5h2A3.5,3.5,0,0,0,14.5,11Z" fill="#09090b"/>
</svg>
