<svg id="phone-off" xmlns="http://www.w3.org/2000/svg" width="22" height="22" viewBox="0 0 22 22">
  <path id="Vector" d="M10.387,11.6a1,1,0,0,0-1.415,1.414Zm2.7,3.307-.494.869a1,1,0,0,0,1.2-.162Zm1.27-1.27-.7-.711,0,0Zm2.11-.45-.352.936h0Zm2.81.7.14-.99h-.009Zm1.72,2-1-.01v.01Zm0,3H20v0Zm-2.18,2-.108.994.018,0Zm-8.63-3.07.544-.839-.008-.005ZM7.567,14.443a1,1,0,1,0-1.415,1.413ZM3.351,12.354a1,1,0,0,0,1.678-1.088ZM1.12,3.18l-1,.09,0,.018ZM3.11,1V0h0Zm3,0V2h.01Zm2,1.72L9.1,2.589V2.58Zm.7,2.81-.937.35v0ZM8.36,7.64l.707.707,0,0ZM6.383,8.2A1,1,0,1,0,7.8,9.617Zm15.324-6.5A1,1,0,0,0,20.293.293ZM.293,20.293a1,1,0,0,0,1.414,1.414Zm8.68-7.276A17,17,0,0,0,12.6,15.779l.989-1.739a15,15,0,0,1-3.2-2.437Zm4.824,2.6,1.27-1.27-1.414-1.414-1.27,1.27Zm1.266-1.266a1,1,0,0,1,.495-.267l-.417-1.956a3,3,0,0,0-1.484.8Zm.495-.267a1,1,0,0,1,.56.042l.7-1.872a3,3,0,0,0-1.681-.126Zm.563.043a13.842,13.842,0,0,0,3.029.755l.261-1.983a11.843,11.843,0,0,1-2.591-.646Zm3.02.753a1,1,0,0,1,.618.338l1.516-1.3A3,3,0,0,0,19.42,12.9Zm.618.338A1,1,0,0,1,20,15.88l2,.02a3,3,0,0,0-.725-1.986ZM20,15.89v3h2v-3Zm0,3a1,1,0,0,1-.084.4l1.833.8A3,3,0,0,0,22,18.886Zm-.084.4a1,1,0,0,1-.24.336l1.352,1.474a3,3,0,0,0,.721-1.009Zm-.24.336a1,1,0,0,1-.356.21l.641,1.895a3,3,0,0,0,1.067-.631Zm-.356.21a1,1,0,0,1-.41.049l-.18,1.992a3,3,0,0,0,1.231-.146Zm-.392.05a18.79,18.79,0,0,1-8.194-2.915L9.646,18.659a20.789,20.789,0,0,0,9.066,3.225Zm-8.2-2.92a18.425,18.425,0,0,1-3.159-2.533L6.152,15.857a20.42,20.42,0,0,0,3.5,2.807Zm-5.7-5.71A18.79,18.79,0,0,1,2.114,3.072L.126,3.288a20.79,20.79,0,0,0,3.225,9.066ZM2.116,3.09a1,1,0,0,1,.048-.409l-1.9-.638A3,3,0,0,0,.124,3.27Zm.048-.409a1,1,0,0,1,.209-.355L.9.978A3,3,0,0,0,.269,2.043Zm.209-.355a1,1,0,0,1,.335-.241L1.9.256A3,3,0,0,0,.9.978Zm.335-.241A1,1,0,0,1,3.111,2l0-2A3,3,0,0,0,1.9.256ZM3.11,2h3V0h-3ZM6.12,2a1,1,0,0,1,.662.242L8.086.725A3,3,0,0,0,6.1,0Zm.662.242a1,1,0,0,1,.338.618L9.1,2.58A3,3,0,0,0,8.086.725Zm.337.609A13.84,13.84,0,0,0,7.873,5.88l1.874-.7A11.84,11.84,0,0,1,9.1,2.589Zm.755,3.031a1,1,0,0,1,.042.56l1.956.417a3,3,0,0,0-.126-1.681Zm.042.56a1,1,0,0,1-.267.495L9.071,8.343a3,3,0,0,0,.8-1.484Zm-.263.491L6.383,8.2,7.8,9.617l1.27-1.27ZM20.293.293l-20,20,1.414,1.414,20-20Z" transform="translate(0 0)" fill="#09090b"/>
</svg>
