<svg id="picture-in-picture" xmlns="http://www.w3.org/2000/svg" width="22" height="19" viewBox="0 0 22 19">
  <path id="Vector" d="M8,2A1,1,0,0,0,6,2ZM7,7V8A1,1,0,0,0,8,7ZM2,6A1,1,0,0,0,2,8ZM1.707.293A1,1,0,0,0,.293,1.707ZM19,7a1,1,0,0,0,2,0ZM11,1a1,1,0,0,0,0,2ZM3,11a1,1,0,0,0-2,0Zm4,5a1,1,0,0,0,0-2ZM6,2V7H8V2ZM7,6H2V8H7ZM.293,1.707l6,6L7.707,6.293l-6-6ZM21,7V4H19V7Zm0-3a2.932,2.932,0,0,0-3-3V3a.937.937,0,0,1,1,1ZM18,1H11V3h7ZM1,11v2H3V11Zm0,2a3.073,3.073,0,0,0,3,3V14a1.079,1.079,0,0,1-1-1Zm3,3H7V14H4Zm9-4h6V10H13Zm6,0a1,1,0,0,1,1,1h2a3,3,0,0,0-3-3Zm1,1v3h2V13Zm0,3a1,1,0,0,1-1,1v2a3,3,0,0,0,3-3Zm-1,1H13v2h6Zm-6,0a1,1,0,0,1-1-1H10a3,3,0,0,0,3,3Zm-1-1V13H10v3Zm0-3a1,1,0,0,1,1-1V10a3,3,0,0,0-3,3Z" transform="translate(0)" fill="#09090b"/>
</svg>
