<svg id="picture-in-picture-2" xmlns="http://www.w3.org/2000/svg" width="22" height="18" viewBox="0 0 22 18">
  <path id="Vector" d="M19,6a1,1,0,0,0,2,0ZM18,1V1ZM3,1V1ZM1,3H1ZM7,16a1,1,0,0,0,0-2ZM21,6V3H19V6Zm0-3A3,3,0,0,0,20.121.879L18.707,2.293A1,1,0,0,1,19,3ZM20.121.879A3,3,0,0,0,18,0V2a1,1,0,0,1,.707.293ZM18,0H3V2H18ZM3,0A3,3,0,0,0,.879.879L2.293,2.293A1,1,0,0,1,3,2ZM.879.879A3,3,0,0,0,0,3H2a1,1,0,0,1,.293-.707ZM0,3V13H2V3ZM0,13a3.006,3.006,0,0,0,3,3V14a1.006,1.006,0,0,1-1-1Zm3,3H7V14H3Zm10-5h6V9H13Zm6,0a1,1,0,0,1,1,1h2a3,3,0,0,0-3-3Zm1,1v3h2V12Zm0,3a1,1,0,0,1-1,1v2a3,3,0,0,0,3-3Zm-1,1H13v2h6Zm-6,0a1,1,0,0,1-1-1H10a3,3,0,0,0,3,3Zm-1-1V12H10v3Zm0-3a1,1,0,0,1,1-1V9a3,3,0,0,0-3,3Z" fill="#09090b"/>
</svg>
