<svg id="pill-bottle" xmlns="http://www.w3.org/2000/svg" width="18" height="22" viewBox="0 0 18 22">
  <path id="Vector" d="M15,11a1,1,0,0,0,0-2Zm0,7a1,1,0,0,0,0-2ZM4,6A1,1,0,0,0,2,6ZM3,19H3ZM16,6a1,1,0,0,0-2,0ZM15,9H11v2h4ZM11,9a2,2,0,0,0-1.414.586L11,11h0Zm-1.414.586A2,2,0,0,0,9,11h2ZM9,11v5h2V11Zm0,5a2,2,0,0,0,.586,1.414L11,16H9Zm.586,1.414A2,2,0,0,0,11,18V16h0ZM11,18h4V16H11ZM2,6V19H4V6ZM2,19a3,3,0,0,0,.879,2.121l1.414-1.414A1,1,0,0,1,4,19Zm.879,2.121A3,3,0,0,0,5,22V20a1,1,0,0,1-.707-.293ZM5,22h8V20H5Zm8,0a3,3,0,0,0,2.121-.879l-1.414-1.414A1,1,0,0,1,13,20Zm2.121-.879A3,3,0,0,0,16,19H14a1,1,0,0,1-.293.707ZM16,19V6H14V19ZM2,2H16V0H2ZM16,2h2a2,2,0,0,0-2-2Zm0,0V5h2V2Zm0,3V7a2,2,0,0,0,2-2Zm0,0H2V7H16ZM2,5H0A2,2,0,0,0,2,7ZM2,5V2H0V5ZM2,2V0A2,2,0,0,0,0,2Z" fill="#09090b"/>
</svg>
