<svg id="pin" xmlns="http://www.w3.org/2000/svg" width="16" height="22" viewBox="0 0 16 22">
  <path id="Vector" d="M9,16a1,1,0,0,0-2,0ZM7,21a1,1,0,0,0,2,0ZM5,9.76H5ZM3.89,11.55l-.445-.9-.006,0Zm-1.78.9.445.9.006,0ZM1,14.24H1Zm14,0h0Zm-1.11-1.79-.451.892.006,0Zm-1.78-.9.451-.892-.006,0ZM11,9.76h0ZM12,5V5Zm0-4V1ZM4,1V1ZM2,3H2ZM4,5V5ZM7,16v5H9V16ZM4,9.759a1,1,0,0,1-.15.526l1.7,1.054A3,3,0,0,0,6,9.761Zm-.15.526a1,1,0,0,1-.4.369l.89,1.791A3,3,0,0,0,5.55,11.34Zm-.411.372-1.78.9.9,1.785,1.78-.9Zm-1.774.9A3,3,0,0,0,.45,12.66l1.7,1.054a1,1,0,0,1,.4-.369ZM.45,12.66A3,3,0,0,0,0,14.24H2a1,1,0,0,1,.15-.526ZM0,14.24V15H2v-.76ZM0,15a2,2,0,0,0,.586,1.414L2,15H0Zm.586,1.414A2,2,0,0,0,2,17V15H2ZM2,17H14V15H2Zm12,0a2,2,0,0,0,1.414-.586L14,15h0Zm1.414-.586A2,2,0,0,0,16,15H14ZM16,15v-.76H14V15Zm0-.76a3,3,0,0,0-.45-1.58l-1.7,1.054a1,1,0,0,1,.15.526Zm-.45-1.58a3,3,0,0,0-1.215-1.106l-.89,1.791a1,1,0,0,1,.4.369Zm-1.208-1.1-1.78-.9-.9,1.785,1.78.9Zm-1.786-.9a1,1,0,0,1-.4-.369l-1.7,1.054a3,3,0,0,0,1.215,1.106Zm-.4-.369A1,1,0,0,1,12,9.759H10a3,3,0,0,0,.45,1.579ZM12,9.76V6H10V9.76ZM12,6h0L10.586,4.586A2,2,0,0,0,10,6Zm0,0h0V4a2,2,0,0,0-1.414.586Zm0,0a3,3,0,0,0,2.121-.879L12.707,3.707A1,1,0,0,1,12,4Zm2.121-.879A3,3,0,0,0,15,3H13a1,1,0,0,1-.293.707ZM15,3A3,3,0,0,0,14.121.879L12.707,2.293A1,1,0,0,1,13,3ZM14.121.879A3,3,0,0,0,12,0V2a1,1,0,0,1,.707.293ZM12,0H4V2h8ZM4,0A3,3,0,0,0,1.879.879L3.293,2.293A1,1,0,0,1,4,2ZM1.879.879A3,3,0,0,0,1,3H3a1,1,0,0,1,.293-.707ZM1,3a3,3,0,0,0,.879,2.121L3.293,3.707A1,1,0,0,1,3,3Zm.879,2.121A3,3,0,0,0,4,6V4a1,1,0,0,1-.707-.293ZM4,6H4L5.414,4.586A2,2,0,0,0,4,4ZM4,6H6a2,2,0,0,0-.586-1.414ZM4,6V9.76H6V6Z" fill="#09090b"/>
</svg>
