<svg id="plane-landing" xmlns="http://www.w3.org/2000/svg" width="22" height="21.5" viewBox="0 0 22 21.5">
  <path id="Vector" d="M1,19.5a1,1,0,0,0,0,2Zm20,2a1,1,0,1,0,0-2ZM2.77,9.27l.712-.7-.005-.005ZM1,7.5.086,7.094A1,1,0,0,0,.293,8.207ZM3,3l.447-.894a1,1,0,0,0-1.361.488Zm1.1.55.454-.891-.006,0Zm1.8,2.9-.454.891.006,0ZM7,7l-.447.894a1,1,0,0,0,1.342-.447Zm3-6,.451-.893A1,1,0,0,0,9.106.553Zm1.05.53-.451.893,0,0Zm1.09,1.52.991-.132v0Zm.72,5.4-.991.132v0Zm1.09,1.52.447-.894h0Zm4.4,2.2.464-.886-.017-.009Zm1.01.96-.872.489.008.014Zm.6,1.03.874-.486-.01-.017Zm-1.06,2.1-.119-.993h-.007Zm-1.18.15-.126-.992h0Zm-1.37-.24.464-.886-.017-.009ZM3.29,9.65l-.452.892.006,0ZM1,21.5H21v-2H1ZM3.477,8.563l-1.77-1.77L.293,8.207l1.77,1.77ZM1.914,7.906l2-4.5L2.086,2.594l-2,4.5Zm.639-4.012,1.1.55.894-1.789-1.1-.55Zm1.094.547A.634.634,0,0,1,4,5H6A2.634,2.634,0,0,0,4.554,2.659ZM4,5A2.634,2.634,0,0,0,5.446,7.341l.907-1.782A.634.634,0,0,1,6,5ZM5.453,7.344l1.1.55.894-1.789-1.1-.55Zm2.442.1,3-6L9.106.553l-3,6ZM9.549,1.893l1.05.53L11.5.637l-1.05-.53Zm1.055.532a1,1,0,0,1,.367.312L12.6,1.572A3,3,0,0,0,11.5.635Zm.367.312a1,1,0,0,1,.178.448l1.982-.27A3,3,0,0,0,12.6,1.572Zm.178.445.72,5.4,1.982-.264-.72-5.4Zm.72,5.4A3,3,0,0,0,12.4,9.928l1.625-1.166a1,1,0,0,1-.178-.448ZM12.4,9.928a3,3,0,0,0,1.1.937l.892-1.79a1,1,0,0,1-.367-.312Zm1.1.936,4.4,2.2.894-1.789-4.4-2.2Zm4.383,2.191a1.462,1.462,0,0,1,.6.564l1.744-.979a3.459,3.459,0,0,0-1.418-1.356Zm.61.577.6,1.03,1.728-1.007-.6-1.03Zm.59,1.013a.416.416,0,0,1-.305.621l.238,1.986a2.416,2.416,0,0,0,1.815-3.579Zm-.312.622-1.18.15.252,1.984,1.18-.15Zm-1.181.15a1.321,1.321,0,0,1-.779-.134l-.928,1.772a3.32,3.32,0,0,0,1.961.346Zm-.8-.143L3.737,8.755l-.893,1.789,13.06,6.52ZM3.742,8.758a1,1,0,0,1-.26-.19l-1.425,1.4a3,3,0,0,0,.78.57Z" transform="translate(0 0)" fill="#09090b"/>
</svg>
