<svg id="plug-zap" xmlns="http://www.w3.org/2000/svg" width="20" height="21" viewBox="0 0 20 21">
  <path id="Vector" d="M5.3,18.3l.708-.706h0Zm3.4,0-.707-.707h0ZM11,16l.707.707a1,1,0,0,0,0-1.414ZM5,10l.707-.707a1,1,0,0,0-1.414,0ZM2.7,12.3l.706.708h0ZM1.994,14h0ZM2.7,15.7l.707-.707h0ZM.293,19.293a1,1,0,0,0,1.414,1.414Zm4.414-1.586a1,1,0,0,0-1.414-1.414Zm1.086-6.914a1,1,0,0,0,1.414,1.414ZM9.707,9.707A1,1,0,0,0,8.293,8.293Zm-.914,4.086a1,1,0,0,0,1.414,1.414Zm3.914-1.086a1,1,0,0,0-1.414-1.414Zm5-11A1,1,0,0,0,16.293.293ZM13,5l-.707-.707A1,1,0,0,0,13,6Zm6,0,.707.707A1,1,0,0,0,19,4ZM14.293,8.293a1,1,0,0,0,1.414,1.414Zm-9.7,10.713a3.4,3.4,0,0,0,1.1.74L6.463,17.9a1.4,1.4,0,0,1-.455-.3Zm1.1.74a3.4,3.4,0,0,0,1.3.26v-2a1.4,1.4,0,0,1-.537-.107Zm1.3.26a3.4,3.4,0,0,0,1.3-.26L7.537,17.9A1.4,1.4,0,0,1,7,18.006Zm1.3-.26a3.4,3.4,0,0,0,1.1-.74L7.992,17.594a1.4,1.4,0,0,1-.455.3Zm1.1-.739,2.3-2.3-1.414-1.414-2.3,2.3Zm2.3-3.714-6-6L4.293,10.707l6,6Zm-7.414-6-2.3,2.3,1.414,1.414,2.3-2.3Zm-2.3,2.3a3.4,3.4,0,0,0-.74,1.1l1.847.767a1.4,1.4,0,0,1,.3-.455Zm-.74,1.1A3.4,3.4,0,0,0,.994,14h2a1.4,1.4,0,0,1,.107-.537ZM.994,14a3.4,3.4,0,0,0,.26,1.3L3.1,14.537A1.4,1.4,0,0,1,2.994,14Zm.26,1.3a3.4,3.4,0,0,0,.74,1.1l1.412-1.417a1.4,1.4,0,0,1-.3-.455Zm.739,1.1,2.6,2.6,1.414-1.414-2.6-2.6Zm-.286,4.3,3-3L3.293,16.293l-3,3Zm5.5-8.5,2.5-2.5L8.293,8.293l-2.5,2.5Zm3,3,2.5-2.5-1.414-1.414-2.5,2.5ZM16.293.293l-4,4,1.414,1.414,4-4ZM13,6h6V4H13Zm5.293-1.707-4,4,1.414,1.414,4-4Z" transform="translate(0 0)" fill="#09090b"/>
</svg>
