<svg id="pocket-knife" xmlns="http://www.w3.org/2000/svg" width="22.004" height="22.004" viewBox="0 0 22.004 22.004">
  <path id="Vector" d="M3,1A1,1,0,1,0,1,1ZM3,12a1,1,0,0,0,2,0ZM17,4a1,1,0,0,0,0,2Zm.01,2a1,1,0,0,0,0-2ZM5,16a1,1,0,0,0,0,2Zm.01,2a1,1,0,0,0,0-2ZM17,1V1ZM1,17H1Zm4,4v0ZM18,10.662a1,1,0,1,0-2,0ZM17,21H16a1,1,0,0,0,1,1ZM22,5a1,1,0,0,0-2,0ZM1,1V2H3V1ZM1,2a1.751,1.751,0,0,0,.672,1.362,4.529,4.529,0,0,0,.88.532,2.871,2.871,0,0,1,.495.28C3.1,4.216,3,4.147,3,4H5A1.751,1.751,0,0,0,4.33,2.64a4.53,4.53,0,0,0-.88-.532,2.87,2.87,0,0,1-.495-.28C2.907,1.788,3,1.857,3,2ZM3,4c0-.145.1-.214.047-.174a2.871,2.871,0,0,1-.495.28,4.53,4.53,0,0,0-.88.532A1.751,1.751,0,0,0,1,6H3c0,.145-.1.214-.047.174A2.87,2.87,0,0,1,3.45,5.9a4.53,4.53,0,0,0,.88-.532A1.751,1.751,0,0,0,5,4ZM1,6a1.751,1.751,0,0,0,.672,1.362,4.529,4.529,0,0,0,.88.532,2.871,2.871,0,0,1,.495.28C3.1,8.216,3,8.147,3,8H5A1.751,1.751,0,0,0,4.33,6.64a4.53,4.53,0,0,0-.88-.532,2.87,2.87,0,0,1-.495-.28C2.907,5.788,3,5.857,3,6ZM3,8c0-.145.1-.214.047-.174a2.871,2.871,0,0,1-.495.28,4.53,4.53,0,0,0-.88.532A1.751,1.751,0,0,0,1,10H3c0,.145-.1.214-.047.174A2.87,2.87,0,0,1,3.45,9.9a4.53,4.53,0,0,0,.88-.532A1.751,1.751,0,0,0,5,8ZM1,10a1.751,1.751,0,0,0,.672,1.362,4.526,4.526,0,0,0,.88.532,2.873,2.873,0,0,1,.495.28C3.1,12.216,3,12.147,3,12H5A1.751,1.751,0,0,0,4.33,10.64a4.53,4.53,0,0,0-.88-.532,2.87,2.87,0,0,1-.495-.28C2.907,9.788,3,9.857,3,10ZM17,6h.01V4H17ZM5,18h.01V16H5ZM20.539,8.539a5,5,0,0,0,1.084-1.623l-1.848-.765a3,3,0,0,1-.651.974Zm1.084-1.623A5,5,0,0,0,22,5H20a3,3,0,0,1-.229,1.149ZM22,5a5,5,0,0,0-.381-1.914l-1.848.765A3,3,0,0,1,20,5Zm-.381-1.914a5,5,0,0,0-1.084-1.623L19.125,2.879a3,3,0,0,1,.651.974ZM20.539,1.465A5,5,0,0,0,18.917.381l-.765,1.848a3,3,0,0,1,.974.651ZM18.917.381A5,5,0,0,0,17,0V2a3,3,0,0,1,1.149.229ZM17,0a5,5,0,0,0-1.914.381l.765,1.848A3,3,0,0,1,17,2ZM15.088.381a5,5,0,0,0-1.623,1.084l1.414,1.414a3,3,0,0,1,.974-.651ZM13.465,1.465l-12,12,1.414,1.414,12-12Zm-12,12A5,5,0,0,0,0,17H2a3,3,0,0,1,.879-2.123ZM0,17a5,5,0,0,0,.381,1.914l1.848-.765A3,3,0,0,1,2,17Zm.381,1.914a5,5,0,0,0,1.084,1.623l1.414-1.414a3,3,0,0,1-.651-.974Zm1.084,1.623a5,5,0,0,0,1.623,1.084l.765-1.848a3,3,0,0,1-.974-.651Zm1.623,1.084A5,5,0,0,0,5,22V20a3,3,0,0,1-1.149-.229ZM5,22a5,5,0,0,0,3.537-1.465L7.125,19.125A3,3,0,0,1,5,20Zm3.537-1.465,12-12L19.125,7.125l-12,12ZM16,10.662V21h2V10.662ZM17,22a5,5,0,0,0,3.536-1.465l-1.414-1.414A3,3,0,0,1,17,20Zm3.536-1.464A5,5,0,0,0,22,17H20a3,3,0,0,1-.879,2.121ZM22,17V5H20V17Z" fill="#09090b"/>
</svg>
