<svg id="pointer" xmlns="http://www.w3.org/2000/svg" width="22.106" height="22" viewBox="0 0 22.106 22">
  <path id="Vector" d="M21.105,13h0Zm-8,8v0Zm3-11a1,1,0,0,0,2,0Zm-1-3V7Zm-3,2a1,1,0,0,0,2,0Zm-1-3V6Zm-3,3a1,1,0,0,0,2,0Zm0-.5a1,1,0,0,0,2,0Zm-1-7.5V1Zm-2,2h0Zm-1,10a1,1,0,0,0,2,0Zm15-5V8Zm2,2h0ZM5.116,18.66l-.707.707,0,0Zm-3.6-3.6-.742.67.035.037Zm2.83-2.82.707-.707L5.018,11.5ZM5.4,14.707a1,1,0,0,0,1.414-1.414ZM20.105,13a7,7,0,0,1-2.05,4.95l1.414,1.414A9,9,0,0,0,22.105,13Zm-2.05,4.95A7,7,0,0,1,13.106,20v2a9,9,0,0,0,6.364-2.636Zm.05-7.95V9h-2v1Zm0-1a3,3,0,0,0-.879-2.121L15.813,8.293A1,1,0,0,1,16.105,9Zm-.879-2.121A3,3,0,0,0,15.106,6V8a1,1,0,0,1,.707.293ZM15.106,6a3,3,0,0,0-2.121.879L14.4,8.293A1,1,0,0,1,15.106,8Zm-2.121.879A3,3,0,0,0,12.106,9h2a1,1,0,0,1,.293-.707ZM14.106,9V8h-2V9Zm0-1a3,3,0,0,0-.879-2.121L11.813,7.293A1,1,0,0,1,12.106,8Zm-.879-2.121A3,3,0,0,0,11.106,5V7a1,1,0,0,1,.707.293ZM11.106,5a3,3,0,0,0-2.121.879L10.4,7.293A1,1,0,0,1,11.106,7Zm-2.121.879A3,3,0,0,0,8.105,8h2a1,1,0,0,1,.293-.707ZM8.105,8V9h2V8Zm2,.5V3h-2V8.5Zm0-5.5A3,3,0,0,0,9.227.879L7.813,2.293A1,1,0,0,1,8.105,3ZM9.227.879A3,3,0,0,0,7.105,0V2a1,1,0,0,1,.707.293ZM7.105,0A3,3,0,0,0,4.984.879L6.4,2.293A1,1,0,0,1,7.105,2ZM4.984.879A3,3,0,0,0,4.105,3h2A1,1,0,0,1,6.4,2.293ZM4.105,3V13h2V3Zm14,7a1,1,0,0,1,.293-.707L16.984,7.879A3,3,0,0,0,16.105,10Zm.293-.707A1,1,0,0,1,19.106,9V7a3,3,0,0,0-2.121.879ZM19.106,9a1,1,0,0,1,.707.293l1.414-1.414A3,3,0,0,0,19.106,7Zm.707.293a1,1,0,0,1,.293.707h2a3,3,0,0,0-.879-2.121Zm.293.707v3h2V10Zm-7,10h-2v2h2Zm-2,0A6.745,6.745,0,0,1,5.82,17.951L4.411,19.37A8.728,8.728,0,0,0,11.106,22ZM5.823,17.953l-3.6-3.6L.808,15.767l3.6,3.6ZM2.258,14.39a1,1,0,0,1-.257-.7l-2-.053a3,3,0,0,0,.772,2.09ZM2,13.693a1,1,0,0,1,.294-.682L.882,11.595A3,3,0,0,0,0,13.641Zm.294-.682a1,1,0,0,1,.683-.291l-.046-2a3,3,0,0,0-2.049.874Zm.683-.291a1,1,0,0,1,.7.26L5.018,11.5a3,3,0,0,0-2.087-.78Zm.661.227,1.76,1.76,1.414-1.414-1.76-1.76Z" transform="translate(0)" fill="#09090b"/>
</svg>
