<svg id="popcorn" xmlns="http://www.w3.org/2000/svg" width="19.63" height="22" viewBox="0 0 19.63 22">
  <path id="Vector" d="M15.815,6a1,1,0,0,0,0,2Zm0-3h-1a1,1,0,0,0,1,1Zm-2-2V1Zm-3,2a1,1,0,1,0,2,0Zm-1-2V1Zm-3,2a1,1,0,1,0,2,0Zm-1-2V1Zm-2,2V4a1,1,0,0,0,1-1Zm-2,2h0Zm2,3a1,1,0,0,0,0-2Zm3,13.071a1,1,0,1,0,1.995-.142ZM7.813,6.929a1,1,0,0,0-1.995.142Zm3.005,14a1,1,0,1,0,1.995.142ZM13.813,7.071a1,1,0,1,0-1.995-.142Zm4.8.929.977.212c0-.016.007-.031.009-.047Zm-2.6,12-.977-.212,0,.016Zm-12.4,0,.986-.164c0-.016-.006-.032-.009-.047ZM1.015,8l-.986.164q0,.024.009.047Zm14.8,0a3,3,0,0,0,2.121-.879L16.522,5.707A1,1,0,0,1,15.815,6Zm2.121-.879A3,3,0,0,0,18.815,5h-2a1,1,0,0,1-.293.707ZM18.815,5a3,3,0,0,0-.879-2.121L16.522,4.293A1,1,0,0,1,16.815,5Zm-.879-2.121A3,3,0,0,0,15.815,2V4a1,1,0,0,1,.707.293ZM16.815,3A3,3,0,0,0,15.937.879L14.522,2.293A1,1,0,0,1,14.815,3ZM15.937.879A3,3,0,0,0,13.815,0V2a1,1,0,0,1,.707.293ZM13.815,0a3,3,0,0,0-2.121.879l1.414,1.414A1,1,0,0,1,13.815,2ZM11.694.879A3,3,0,0,0,10.815,3h2a1,1,0,0,1,.293-.707ZM12.815,3A3,3,0,0,0,11.937.879L10.522,2.293A1,1,0,0,1,10.815,3ZM11.937.879A3,3,0,0,0,9.815,0V2a1,1,0,0,1,.707.293ZM9.815,0A3,3,0,0,0,7.694.879L9.108,2.293A1,1,0,0,1,9.815,2ZM7.694.879A3,3,0,0,0,6.815,3h2a1,1,0,0,1,.293-.707ZM8.815,3A3,3,0,0,0,7.937.879L6.522,2.293A1,1,0,0,1,6.815,3ZM7.937.879A3,3,0,0,0,5.815,0V2a1,1,0,0,1,.707.293ZM5.815,0A3,3,0,0,0,3.694.879L5.108,2.293A1,1,0,0,1,5.815,2ZM3.694.879A3,3,0,0,0,2.815,3h2a1,1,0,0,1,.293-.707ZM3.815,2a3,3,0,0,0-2.121.879L3.108,4.293A1,1,0,0,1,3.815,4Zm-2.121.879A3,3,0,0,0,.815,5h2a1,1,0,0,1,.293-.707ZM.815,5a3,3,0,0,0,.879,2.121L3.108,5.707A1,1,0,0,1,2.815,5Zm.879,2.121A3,3,0,0,0,3.815,8V6a1,1,0,0,1-.707-.293ZM8.813,20.929l-1-14-1.995.142,1,14Zm4,.142,1-14-1.995-.142-1,14ZM17.815,8a.194.194,0,0,1-.134-.074.222.222,0,0,1-.047-.087c-.006-.024,0-.028-.005,0l1.973.329a1.864,1.864,0,0,0-.4-1.54A1.812,1.812,0,0,0,17.815,6Zm-.177-.212-2.6,12,1.955.424,2.6-12ZM15.035,19.8c.006-.029.011-.024-.011.009a.522.522,0,0,1-.1.107.5.5,0,0,1-.118.075c-.033.014-.03.006.008.006v2a2.227,2.227,0,0,0,1.39-.544A2.27,2.27,0,0,0,17,20.2Zm-.219.2h-10v2h10Zm-10,0a.234.234,0,0,1-.152-.047.181.181,0,0,1-.062-.118l-1.973.329A2.188,2.188,0,0,0,4.815,22Zm-.223-.212-2.6-12L.038,8.212l2.6,12ZM2,7.836c0-.025,0-.021-.005,0a.222.222,0,0,1-.047.087A.194.194,0,0,1,1.815,8V6a1.812,1.812,0,0,0-1.384.624,1.864,1.864,0,0,0-.4,1.54ZM1.815,8h16V6h-16Z" transform="translate(0)" fill="#09090b"/>
</svg>
