<svg id="presentation" xmlns="http://www.w3.org/2000/svg" width="22" height="20" viewBox="0 0 22 20">
  <path id="Vector" d="M1,0A1,1,0,0,0,1,2ZM21,2a1,1,0,0,0,0-2Zm0-1a1,1,0,0,0-2,0ZM2,12H2ZM3,1A1,1,0,0,0,1,1ZM5.293,18.293a1,1,0,0,0,1.414,1.414ZM11,14l.707-.707a1,1,0,0,0-1.414,0Zm4.293,5.707a1,1,0,0,0,1.414-1.414ZM1,2H21V0H1ZM19,1V12h2V1Zm0,11a1,1,0,0,1-.293.707l1.414,1.414A3,3,0,0,0,21,12Zm-.293.707A1,1,0,0,1,18,13v2a3,3,0,0,0,2.121-.879ZM18,13H4v2H18ZM4,13a1,1,0,0,1-.707-.293L1.879,14.121A3,3,0,0,0,4,15Zm-.707-.293A1,1,0,0,1,3,12H1a3,3,0,0,0,.879,2.121ZM3,12V1H1V12Zm3.707,7.707,5-5-1.414-1.414-5,5Zm3.586-5,5,5,1.414-1.414-5-5Z" fill="#09090b"/>
</svg>
