<svg id="printer" xmlns="http://www.w3.org/2000/svg" width="22" height="22" viewBox="0 0 22 22">
  <path id="Vector" d="M5,18a1,1,0,0,0,0-2ZM1,15H1ZM3,8V8Zm14,8a1,1,0,0,0,0,2ZM4,8A1,1,0,0,0,6,8ZM6,1V1ZM16,1V1Zm0,7a1,1,0,0,0,2,0ZM5,16H3v2H5ZM3,16a1,1,0,0,1-.707-.293L.879,17.121A3,3,0,0,0,3,18Zm-.707-.293A1,1,0,0,1,2,15H0a3,3,0,0,0,.879,2.121ZM2,15V10H0v5Zm0-5a1,1,0,0,1,.293-.707L.879,7.879A3,3,0,0,0,0,10Zm.293-.707A1,1,0,0,1,3,9V7a3,3,0,0,0-2.121.879ZM3,9H19V7H3ZM19,9a1,1,0,0,1,.707.293l1.414-1.414A3,3,0,0,0,19,7Zm.707.293A1,1,0,0,1,20,10h2a3,3,0,0,0-.879-2.121ZM20,10v5h2V10Zm0,5a1,1,0,0,1-.293.707l1.414,1.414A3,3,0,0,0,22,15Zm-.293.707A1,1,0,0,1,19,16v2a3,3,0,0,0,2.121-.879ZM19,16H17v2h2ZM6,8V2H4V8ZM6,2H6L4.586.586A2,2,0,0,0,4,2ZM6,2H6V0A2,2,0,0,0,4.586.586ZM6,2H16V0H6ZM16,2h0L17.414.586A2,2,0,0,0,16,0Zm0,0h2A2,2,0,0,0,17.414.586Zm0,0V8h2V2ZM6,14H16V12H6Zm10,0h2a2,2,0,0,0-2-2Zm0,0v6h2V14Zm0,6v2a2,2,0,0,0,2-2Zm0,0H6v2H16ZM6,20H4a2,2,0,0,0,2,2Zm0,0V14H4v6Zm0-6V12a2,2,0,0,0-2,2Z" fill="#09090b"/>
</svg>
