<svg id="proportions" xmlns="http://www.w3.org/2000/svg" width="22" height="18" viewBox="0 0 22 18">
  <path id="Vector" d="M12,6a1,1,0,0,0-2,0ZM10,17a1,1,0,0,0,2,0ZM1,5A1,1,0,0,0,1,7ZM15,17a1,1,0,0,0,2,0ZM3,2H19V0H3ZM19,2a1,1,0,0,1,1,1h2a3,3,0,0,0-3-3Zm1,1V15h2V3Zm0,12a1,1,0,0,1-1,1v2a3,3,0,0,0,3-3Zm-1,1H3v2H19ZM3,16a1,1,0,0,1-1-1H0a3,3,0,0,0,3,3ZM2,15V3H0V15ZM2,3A1,1,0,0,1,3,2V0A3,3,0,0,0,0,3Zm8,3V17h2V6ZM1,7H14V5H1ZM14,7a1,1,0,0,1,.707.293l1.414-1.414A3,3,0,0,0,14,5Zm.707.293A1,1,0,0,1,15,8h2a3,3,0,0,0-.879-2.121ZM15,8v9h2V8Z" fill="#09090b"/>
</svg>
