<svg id="quote" xmlns="http://www.w3.org/2000/svg" width="20" height="20" viewBox="0 0 20 20">
  <path id="Vector" d="M14,1V1Zm3,0V1ZM3,1V1ZM1,3H1ZM1,9H1Zm3,4H4ZM1,16H1Zm0,2H1Zm7-5H8ZM6,1V1Zm8-1a3,3,0,0,0-2.121.879l1.414,1.414A1,1,0,0,1,14,2ZM11.879.879A3,3,0,0,0,11,3h2a1,1,0,0,1,.293-.707ZM11,3V9h2V3Zm0,6a3,3,0,0,0,.879,2.121l1.414-1.414A1,1,0,0,1,13,9Zm.879,2.121A3,3,0,0,0,14,12V10a1,1,0,0,1-.707-.293ZM14,12h0l1.414-1.414A2,2,0,0,0,14,10Zm0,0h2a2,2,0,0,0-.586-1.414Zm0,0v1h2V12Zm0,1a1,1,0,0,1-.293.707l1.414,1.414A3,3,0,0,0,16,13Zm-.293.707A1,1,0,0,1,13,14v2a3,3,0,0,0,2.121-.879ZM13,14a2,2,0,0,0-1.414.586L13,16h0Zm-1.414.586A2,2,0,0,0,11,16h2ZM11,16v2h2V16Zm0,2a2,2,0,0,0,.586,1.414L13,18H11Zm.586,1.414A2,2,0,0,0,13,20V18h0ZM13,20a7,7,0,0,0,4.95-2.05l-1.414-1.414A5,5,0,0,1,13,18Zm4.95-2.05A7,7,0,0,0,20,13H18a5,5,0,0,1-1.465,3.535ZM20,13V3H18V13ZM20,3A3,3,0,0,0,19.121.879L17.707,2.293A1,1,0,0,1,18,3ZM19.121.879A3,3,0,0,0,17,0V2a1,1,0,0,1,.707.293ZM17,0H14V2h3ZM3,0A3,3,0,0,0,.879.879L2.293,2.293A1,1,0,0,1,3,2ZM.879.879A3,3,0,0,0,0,3H2a1,1,0,0,1,.293-.707ZM0,3V9H2V3ZM0,9a3,3,0,0,0,.879,2.121L2.293,9.707A1,1,0,0,1,2,9Zm.879,2.121A3,3,0,0,0,3,12V10a1,1,0,0,1-.707-.293ZM3,12H3l1.414-1.414A2,2,0,0,0,3,10Zm0,0H5a2,2,0,0,0-.586-1.414Zm0,0v1H5V12Zm0,1a1,1,0,0,1-.293.707l1.414,1.414A3,3,0,0,0,5,13Zm-.293.707A1,1,0,0,1,2,14v2a3,3,0,0,0,2.121-.879ZM2,14a2,2,0,0,0-1.414.586L2,16H2Zm-1.414.586A2,2,0,0,0,0,16H2ZM0,16v2H2V16Zm0,2a2,2,0,0,0,.586,1.414L2,18H0Zm.586,1.414A2,2,0,0,0,2,20V18H2ZM2,20a7,7,0,0,0,4.95-2.05L5.536,16.535A5,5,0,0,1,2,18Zm4.95-2.05A7,7,0,0,0,9,13H7a5,5,0,0,1-1.464,3.535ZM9,13V3H7V13ZM9,3A3,3,0,0,0,8.121.879L6.707,2.293A1,1,0,0,1,7,3ZM8.121.879A3,3,0,0,0,6,0V2a1,1,0,0,1,.707.293ZM6,0H3V2H6Z" fill="#09090b"/>
</svg>
