<svg id="radar" xmlns="http://www.w3.org/2000/svg" width="22" height="22.007" viewBox="0 0 22 22.007">
  <path id="Vector" d="M18.069,3.933l.707.707a1,1,0,0,0,0-1.414ZM5.488,1.477a1,1,0,1,0,1,1.731ZM3,4A1,1,0,1,0,3,6Zm.01,2a1,1,0,1,0,0-2ZM2.26,8.861A1,1,0,1,0,.317,8.384Zm18.98-1.874a1,1,0,1,0-1.862.731Zm-6.71.48a1,1,0,1,0,1.418-1.41ZM6.6,16.453a1,1,0,1,0,1.252-1.56ZM11,16a1,1,0,1,0,0,2Zm.01,2a1,1,0,1,0,0-2Zm6.978-7.4a1,1,0,1,0-2,.114ZM14.14,14.895A1,1,0,1,0,15.4,16.451ZM11.7,8.885A1,1,0,0,0,13.116,10.3Zm7.075-5.659A11,11,0,0,0,12.429.094l-.261,1.983a9,9,0,0,1,5.193,2.562ZM12.429.094A11,11,0,0,0,5.488,1.477l1,1.731a9,9,0,0,1,5.679-1.131ZM3,6h.01V4H3ZM.317,8.384A11,11,0,0,0,.287,13.5l1.948-.454A9,9,0,0,1,2.26,8.861ZM.287,13.5A11,11,0,0,0,2.575,18.08l1.532-1.286a9,9,0,0,1-1.872-3.745ZM2.575,18.08a11,11,0,0,0,4.112,3.047l.784-1.84a9,9,0,0,1-3.364-2.493Zm4.112,3.047a11,11,0,0,0,5.046.856l-.133-2a9,9,0,0,1-4.128-.7Zm5.046.856a11,11,0,0,0,4.887-1.52L15.6,18.744a9,9,0,0,1-4,1.243Zm4.887-1.519A11,11,0,0,0,20.29,16.9L18.6,15.826a9,9,0,0,1-3,2.918ZM20.29,16.9a11,11,0,0,0,1.66-4.841l-1.991-.191A9,9,0,0,1,18.6,15.826Zm1.66-4.841a11,11,0,0,0-.711-5.068l-1.862.731a9,9,0,0,1,.581,4.147Zm-6-6A7,7,0,0,0,13.59,4.5l-.745,1.856a5,5,0,0,1,1.684,1.115ZM13.59,4.5A7,7,0,0,0,10.808,4l.05,2a5,5,0,0,1,1.988.358ZM10.808,4a7,7,0,0,0-2.754.64l.837,1.816a5,5,0,0,1,1.967-.457Zm-2.754.64A7,7,0,0,0,5.778,6.313L7.265,7.65a5,5,0,0,1,1.626-1.2ZM5.778,6.313A7,7,0,0,0,4.351,8.754l1.895.64A5,5,0,0,1,7.265,7.65ZM4.351,8.754a7,7,0,0,0-.345,2.806L6,11.4a5,5,0,0,1,.246-2ZM4.006,11.56A7,7,0,0,0,4.8,14.274l1.767-.937A5,5,0,0,1,6,11.4ZM4.8,14.274a7,7,0,0,0,1.8,2.178l1.252-1.56a5,5,0,0,1-1.287-1.556ZM11,18h.01V16H11ZM15.99,10.72a5,5,0,0,1-.42,2.311l1.829.81a7,7,0,0,0,.589-3.235Zm-.42,2.311a5,5,0,0,1-1.429,1.864L15.4,16.451a7,7,0,0,0,2-2.609ZM12,11a1,1,0,0,1-1,1v2a3,3,0,0,0,3-3Zm-1,1a1,1,0,0,1-1-1H8a3,3,0,0,0,3,3Zm-1-1a1,1,0,0,1,1-1V8a3,3,0,0,0-3,3Zm1-1a1,1,0,0,1,1,1h2a3,3,0,0,0-3-3Zm2.117.3,5.66-5.66L17.362,3.226,11.7,8.885Z" transform="translate(0 0)" fill="#09090b"/>
</svg>
