<svg id="radio" xmlns="http://www.w3.org/2000/svg" width="22.05" height="16.2" viewBox="0 0 22.05 16.2">
  <path id="Vector" d="M3.218,15.907a1,1,0,0,0,1.414-1.414Zm1.414-14.2A1,1,0,0,0,3.218.293Zm1.486,11.3a1,1,0,0,0,1.414-1.414ZM7.547,4.492A1,1,0,1,0,6.1,3.108Zm8.385-1.3a1,1,0,0,0-1.414,1.414ZM14.5,11.708a1,1,0,1,0,1.444,1.384ZM18.832.293a1,1,0,0,0-1.414,1.414Zm-1.414,14.1a1,1,0,0,0,1.414,1.414Zm-12.786.1a9.08,9.08,0,0,1,0-12.786L3.218.293a11.08,11.08,0,0,0,0,15.614Zm2.9-2.9a5.1,5.1,0,0,1,.015-7.1L6.1,3.108a7.1,7.1,0,0,0,.015,9.9ZM12.025,8.1a1,1,0,0,1-1,1v2a3,3,0,0,0,3-3Zm-1,1a1,1,0,0,1-1-1h-2a3,3,0,0,0,3,3Zm-1-1a1,1,0,0,1,1-1v-2a3,3,0,0,0-3,3Zm1-1a1,1,0,0,1,1,1h2a3,3,0,0,0-3-3Zm3.493-2.493a5.1,5.1,0,0,1-.015,7.1l1.444,1.384a7.1,7.1,0,0,0-.015-9.9Zm2.9-2.9a8.959,8.959,0,0,1,0,12.686l1.414,1.414a10.959,10.959,0,0,0,0-15.514Z" fill="#09090b"/>
</svg>
