<svg id="radio-tower" xmlns="http://www.w3.org/2000/svg" width="22.049" height="22.1" viewBox="0 0 22.049 22.1">
  <path id="Vector" d="M3.218,15.907a1,1,0,0,0,1.414-1.414Zm1.414-14.2A1,1,0,0,0,3.218.293ZM7.544,4.495A1,1,0,0,0,6.105,3.106ZM5.175,11.827a1,1,0,1,0,1.7-1.054ZM15.932,3.193a1,1,0,0,0-1.414,1.414Zm-.758,7.651a1,1,0,0,0,1.7,1.052ZM18.831.292a1,1,0,0,0-1.413,1.416Zm-1.413,14.1a1,1,0,0,0,1.413,1.416ZM8.525,16.1a1,1,0,0,0,0,2Zm5,2a1,1,0,0,0,0-2Zm-7.44,2.658a1,1,0,1,0,1.88.683Zm8,.683a1,1,0,1,0,1.88-.683ZM4.632,14.493a9.08,9.08,0,0,1,0-12.786L3.218.293a11.08,11.08,0,0,0,0,15.614ZM6.105,3.106a7.14,7.14,0,0,0-1.962,4.2l1.989.212A5.14,5.14,0,0,1,7.544,4.494Zm-1.962,4.2a7.14,7.14,0,0,0,1.032,4.52l1.7-1.054a5.14,5.14,0,0,1-.743-3.254Zm7.882.793a1,1,0,0,1-1,1v2a3,3,0,0,0,3-3Zm-1,1a1,1,0,0,1-1-1h-2a3,3,0,0,0,3,3Zm-1-1a1,1,0,0,1,1-1v-2a3,3,0,0,0-3,3Zm1-1a1,1,0,0,1,1,1h2a3,3,0,0,0-3-3Zm3.493-2.493a5.061,5.061,0,0,1,.657,6.237l1.7,1.052a7.061,7.061,0,0,0-.943-8.7Zm2.9-2.9a8.959,8.959,0,0,1,1.947,2.909l1.847-.766A10.96,10.96,0,0,0,18.831.292Zm1.947,2.909a8.959,8.959,0,0,1,.684,3.433h2a10.96,10.96,0,0,0-.836-4.2Zm.684,3.433a8.959,8.959,0,0,1-.684,3.433l1.847.766a10.96,10.96,0,0,0,.836-4.2Zm-.684,3.433a8.959,8.959,0,0,1-1.947,2.909l1.413,1.416a10.96,10.96,0,0,0,2.382-3.558ZM8.525,18.1h5v-2h-5Zm-.56,3.342,4-11-1.88-.683-4,11Zm2.12-11,4,11,1.88-.683-4-11Z" transform="translate(0 0)" fill="#09090b"/>
</svg>
