<svg id="radical" xmlns="http://www.w3.org/2000/svg" width="20" height="18.958" viewBox="0 0 20 18.958">
  <path id="Vector" d="M1,8a1,1,0,0,0,0,2ZM4.28,9V8h0Zm.948.684.961-.278-.012-.038Zm2.3,7.934-.961.278q.006.021.013.042Zm.96-.044.973.232.006-.026Zm3.334-15.8-.973-.229-.005.023ZM12.792,1V0h0ZM19,2a1,1,0,0,0,0-2ZM1,10H4.28V8H1Zm3.279,0h0l1.17-1.622A2,2,0,0,0,4.281,8Zm0,0h0l1.9-.632a2,2,0,0,0-.727-.99Zm-.012-.038,2.3,7.934,1.921-.556-2.3-7.934Zm2.311,7.976a1.5,1.5,0,0,0,.575.758l1.128-1.651a.5.5,0,0,1,.192.253Zm.575.758a1.5,1.5,0,0,0,.915.26l-.092-2a.5.5,0,0,1,.305.087Zm.915.26a1.5,1.5,0,0,0,.887-.343L7.681,17.073a.5.5,0,0,1,.3-.114Zm.887-.343a1.5,1.5,0,0,0,.5-.808l-1.945-.464a.5.5,0,0,1,.168-.269Zm.509-.833L12.8,1.977l-1.957-.413-3.334,15.8ZM12.793,2h0L11.55.433a2,2,0,0,0-.7,1.109Zm0,0h0l0-2a2,2,0,0,0-1.24.433Zm0,0H19V0H12.792Z" fill="#09090b"/>
</svg>
