<svg id="ratio" xmlns="http://www.w3.org/2000/svg" width="22" height="22" viewBox="0 0 22 22">
  <path id="Vector" d="M7,2h8V0H7Zm8,0a1,1,0,0,1,1,1h2a3,3,0,0,0-3-3Zm1,1V19h2V3Zm0,16a1,1,0,0,1-1,1v2a3,3,0,0,0,3-3Zm-1,1H7v2h8ZM7,20a1,1,0,0,1-1-1H4a3,3,0,0,0,3,3ZM6,19V3H4V19ZM6,3A1,1,0,0,1,7,2V0A3,3,0,0,0,4,3ZM3,6H19V4H3ZM19,6a1,1,0,0,1,1,1h2a3,3,0,0,0-3-3Zm1,1v8h2V7Zm0,8a1,1,0,0,1-1,1v2a3,3,0,0,0,3-3Zm-1,1H3v2H19ZM3,16a1,1,0,0,1-1-1H0a3,3,0,0,0,3,3ZM2,15V7H0v8ZM2,7A1,1,0,0,1,3,6V4A3,3,0,0,0,0,7Z" fill="#09090b"/>
</svg>
