<svg id="receipt-euro" xmlns="http://www.w3.org/2000/svg" width="18" height="22" viewBox="0 0 18 22">
  <path id="Vector" d="M1,1,1.447.106A1,1,0,0,0,0,1ZM1,21H0a1,1,0,0,0,1.447.894Zm2-1,.447-.894a1,1,0,0,0-.894,0Zm2,1-.447.894a1,1,0,0,0,.894,0Zm2-1,.447-.894a1,1,0,0,0-.894,0Zm2,1-.447.894a1,1,0,0,0,.894,0Zm2-1,.447-.894a1,1,0,0,0-.894,0Zm2,1-.447.894a1,1,0,0,0,.894,0Zm2-1,.447-.894a1,1,0,0,0-.894,0Zm2,1-.447.894A1,1,0,0,0,18,21ZM17,1h1A1,1,0,0,0,16.553.106ZM15,2l-.447.894a1,1,0,0,0,.894,0ZM13,1l.447-.894a1,1,0,0,0-.894,0ZM11,2l-.447.894a1,1,0,0,0,.894,0ZM9,1,9.447.106a1,1,0,0,0-.894,0ZM7,2l-.447.894a1,1,0,0,0,.894,0ZM5,1,5.447.106a1,1,0,0,0-.894,0ZM3,2l-.447.894a1,1,0,0,0,.894,0Zm2,8a1,1,0,0,0,0,2Zm5,2a1,1,0,0,0,0-2Zm2.24-2.85a1,1,0,0,0,1.52-1.3ZM5.96,11.1h0Zm7.8,3.25a1,1,0,0,0-1.52-1.3ZM0,1V21H2V1ZM1.447,21.894l2-1-.894-1.789-2,1Zm1.106-1,2,1,.894-1.789-2-1Zm2.894,1,2-1-.894-1.789-2,1Zm1.106-1,2,1,.894-1.789-2-1Zm2.894,1,2-1-.894-1.789-2,1Zm1.106-1,2,1,.894-1.789-2-1Zm2.894,1,2-1-.894-1.789-2,1Zm1.106-1,2,1,.894-1.789-2-1ZM18,21V1H16V21ZM16.553.106l-2,1,.894,1.789,2-1Zm-1.106,1-2-1-.894,1.789,2,1Zm-2.894-1-2,1,.894,1.789,2-1Zm-1.106,1-2-1L8.553,1.894l2,1Zm-2.894-1-2,1,.894,1.789,2-1Zm-1.106,1-2-1L4.553,1.894l2,1Zm-2.894-1-2,1,.894,1.789,2-1Zm-1.106,1-2-1L.553,1.894l2,1ZM5,12h5V10H5Zm8.76-4.15a5,5,0,0,0-2.54-1.589l-.5,1.935a3,3,0,0,1,1.524.953ZM11.22,6.261a5,5,0,0,0-2.992.148l.693,1.876a3,3,0,0,1,1.8-.089ZM8.228,6.41a5,5,0,0,0-2.37,1.832L7.5,9.385a3,3,0,0,1,1.422-1.1ZM5.858,8.242a5,5,0,0,0-.9,2.858h2A3,3,0,0,1,7.5,9.385ZM4.96,11.1a5,5,0,0,0,.9,2.858L7.5,12.815A3,3,0,0,1,6.96,11.1Zm.9,2.858a5,5,0,0,0,2.37,1.832l.693-1.876a3,3,0,0,1-1.422-1.1Zm2.37,1.832a5,5,0,0,0,2.992.148L10.716,14a3,3,0,0,1-1.8-.089Zm2.992.148a5,5,0,0,0,2.54-1.589l-1.52-1.3A3,3,0,0,1,10.716,14Z" transform="translate(0 0)" fill="#09090b"/>
</svg>
