<svg id="receipt-cent" xmlns="http://www.w3.org/2000/svg" width="18" height="22" viewBox="0 0 18 22">
  <path id="Vector" d="M1,1,1.447.106A1,1,0,0,0,0,1ZM1,21H0a1,1,0,0,0,1.447.894Zm2-1,.447-.894a1,1,0,0,0-.894,0Zm2,1-.447.894a1,1,0,0,0,.894,0Zm2-1,.447-.894a1,1,0,0,0-.894,0Zm2,1-.447.894a1,1,0,0,0,.894,0Zm2-1,.447-.894a1,1,0,0,0-.894,0Zm2,1-.447.894a1,1,0,0,0,.894,0Zm2-1,.447-.894a1,1,0,0,0-.894,0Zm2,1-.447.894A1,1,0,0,0,18,21ZM17,1h1A1,1,0,0,0,16.553.106ZM15,2l-.447.894a1,1,0,0,0,.894,0ZM13,1l.447-.894a1,1,0,0,0-.894,0ZM11,2l-.447.894a1,1,0,0,0,.894,0ZM9,1,9.447.106a1,1,0,0,0-.894,0ZM7,2l-.447.894a1,1,0,0,0,.894,0ZM5,1,5.447.106a1,1,0,0,0-.894,0ZM3,2l-.447.894a1,1,0,0,0,.894,0Zm7,3.5a1,1,0,0,0-2,0Zm-2,11a1,1,0,0,0,2,0Zm3.24-7.45a1,1,0,0,0,1.52-1.3Zm1.52,5.2a1,1,0,0,0-1.52-1.3ZM0,1V21H2V1ZM1.447,21.894l2-1-.894-1.789-2,1Zm1.106-1,2,1,.894-1.789-2-1Zm2.894,1,2-1-.894-1.789-2,1Zm1.106-1,2,1,.894-1.789-2-1Zm2.894,1,2-1-.894-1.789-2,1Zm1.106-1,2,1,.894-1.789-2-1Zm2.894,1,2-1-.894-1.789-2,1Zm1.106-1,2,1,.894-1.789-2-1ZM18,21V1H16V21ZM16.553.106l-2,1,.894,1.789,2-1Zm-1.106,1-2-1-.894,1.789,2,1Zm-2.894-1-2,1,.894,1.789,2-1Zm-1.106,1-2-1L8.553,1.894l2,1Zm-2.894-1-2,1,.894,1.789,2-1Zm-1.106,1-2-1L4.553,1.894l2,1Zm-2.894-1-2,1,.894,1.789,2-1Zm-1.106,1-2-1L.553,1.894l2,1ZM8,5.5v11h2V5.5Zm4.76,2.25a5,5,0,0,0-2.54-1.589L9.716,8.1a3,3,0,0,1,1.524.953ZM10.22,6.161a5,5,0,0,0-2.992.148l.693,1.876a3,3,0,0,1,1.8-.089ZM7.228,6.31a5,5,0,0,0-2.37,1.832L6.5,9.285a3,3,0,0,1,1.422-1.1ZM4.858,8.142A5,5,0,0,0,3.96,11h2A3,3,0,0,1,6.5,9.285ZM3.96,11a5,5,0,0,0,.9,2.858L6.5,12.715A3,3,0,0,1,5.96,11Zm.9,2.858a5,5,0,0,0,2.37,1.832l.693-1.876a3,3,0,0,1-1.422-1.1Zm2.37,1.832a5,5,0,0,0,2.992.148l-.5-1.936a3,3,0,0,1-1.8-.089Zm2.992.148a5,5,0,0,0,2.54-1.589l-1.52-1.3a3,3,0,0,1-1.524.953Z" transform="translate(0 0)" fill="#09090b"/>
</svg>
