<svg id="receipt-russian-ruble" xmlns="http://www.w3.org/2000/svg" width="18" height="22" viewBox="0 0 18 22">
  <path id="Vector" d="M1,1,1.447.106A1,1,0,0,0,0,1ZM1,21H0a1,1,0,0,0,1.447.894Zm2-1,.447-.894a1,1,0,0,0-.894,0Zm2,1-.447.894a1,1,0,0,0,.894,0Zm2-1,.447-.894a1,1,0,0,0-.894,0Zm2,1-.447.894a1,1,0,0,0,.894,0Zm2-1,.447-.894a1,1,0,0,0-.894,0Zm2,1-.447.894a1,1,0,0,0,.894,0Zm2-1,.447-.894a1,1,0,0,0-.894,0Zm2,1-.447.894A1,1,0,0,0,18,21ZM17,1h1A1,1,0,0,0,16.553.106ZM15,2l-.447.894a1,1,0,0,0,.894,0ZM13,1l.447-.894a1,1,0,0,0-.894,0ZM11,2l-.447.894a1,1,0,0,0,.894,0ZM9,1,9.447.106a1,1,0,0,0-.894,0ZM7,2l-.447.894a1,1,0,0,0,.894,0ZM5,1,5.447.106a1,1,0,0,0-.894,0ZM3,2l-.447.894a1,1,0,0,0,.894,0ZM5,13a1,1,0,0,0,0,2Zm5,2a1,1,0,0,0,0-2ZM5,9a1,1,0,0,0,0,2Zm5-3V6ZM7,6V5A1,1,0,0,0,6,6ZM6,16a1,1,0,0,0,2,0ZM0,1V21H2V1ZM1.447,21.894l2-1-.894-1.789-2,1Zm1.106-1,2,1,.894-1.789-2-1Zm2.894,1,2-1-.894-1.789-2,1Zm1.106-1,2,1,.894-1.789-2-1Zm2.894,1,2-1-.894-1.789-2,1Zm1.106-1,2,1,.894-1.789-2-1Zm2.894,1,2-1-.894-1.789-2,1Zm1.106-1,2,1,.894-1.789-2-1ZM18,21V1H16V21ZM16.553.106l-2,1,.894,1.789,2-1Zm-1.106,1-2-1-.894,1.789,2,1Zm-2.894-1-2,1,.894,1.789,2-1Zm-1.106,1-2-1L8.553,1.894l2,1Zm-2.894-1-2,1,.894,1.789,2-1Zm-1.106,1-2-1L4.553,1.894l2,1Zm-2.894-1-2,1,.894,1.789,2-1Zm-1.106,1-2-1L.553,1.894l2,1ZM5,15h5V13H5Zm0-4h5V9H5Zm5,0a3,3,0,0,0,2.121-.879L10.707,8.707A1,1,0,0,1,10,9Zm2.121-.879A3,3,0,0,0,13,8H11a1,1,0,0,1-.293.707ZM13,8a3,3,0,0,0-.879-2.121L10.707,7.293A1,1,0,0,1,11,8Zm-.879-2.121A3,3,0,0,0,10,5V7a1,1,0,0,1,.707.293ZM10,5H7V7h3ZM6,6V16H8V6Z" transform="translate(0 0)" fill="#09090b"/>
</svg>
