<svg id="recycle" xmlns="http://www.w3.org/2000/svg" width="19.991" height="21" viewBox="0 0 19.991 21">
  <path id="Vector" d="M5,18a1,1,0,1,0,0-2ZM2.811,17V16h0Zm-1.57-.881-.865.5.01.017Zm0-1.784-.866-.5,0,0ZM5.192,7.5l.966-.259a1,1,0,0,0-1.225-.707ZM9,17l-.707-.707a1,1,0,0,0,0,1.414Zm8.2,0v1h.008Zm1.556-.89.858.514.01-.016Zm.236-.887h0Zm-.236-.887.868-.5,0,0Zm-.36-2.621a1,1,0,0,0-1.731,1ZM12.7,14.707a1,1,0,0,0-1.414-1.414Zm-1.414,6A1,1,0,0,0,12.7,19.293ZM5.323,11.855a1,1,0,0,0,1.932-.518ZM.837,7.632a1,1,0,1,0,.518,1.932ZM6.474,3.311a1,1,0,0,0,1.732,1ZM8.433,1.919l.866.5,0,0ZM9.981,1l0-1H9.96Zm1.546.888.866-.5,0,0ZM15.47,8.731l-.259.966a1,1,0,0,0,1.225-.707ZM11.633,6.667A1,1,0,0,0,11.115,8.6Zm5.9-1.773A1,1,0,0,0,15.6,4.376ZM5,16H2.811v2H5ZM2.808,16a.83.83,0,0,1-.409-.106l-.979,1.744A2.83,2.83,0,0,0,2.814,18ZM2.4,15.894a.829.829,0,0,1-.3-.293L.386,16.638a2.83,2.83,0,0,0,1.035,1Zm-.293-.276A.785.785,0,0,1,2,15.225l-2,0a2.785,2.785,0,0,0,.376,1.391ZM2,15.225a.785.785,0,0,1,.1-.392l-1.735-1A2.785,2.785,0,0,0,0,15.23Zm.1-.389L6.057,8,4.326,7,.371,13.834ZM9,18h8.2V16H9Zm8.211,0a2.831,2.831,0,0,0,1.383-.373L17.6,15.891a.83.83,0,0,1-.406.109Zm1.383-.373a2.829,2.829,0,0,0,1.023-1L17.9,15.6a.83.83,0,0,1-.3.294Zm1.033-1.019a2.785,2.785,0,0,0,.369-1.385h-2a.784.784,0,0,1-.1.39Zm.369-1.385a2.785,2.785,0,0,0-.369-1.385l-1.735.995a.784.784,0,0,1,.1.39Zm-.371-1.388-1.226-2.12-1.731,1,1.226,2.12Zm-8.332-.542-3,3L9.7,17.707l3-3Zm-3,4.414,3,3L12.7,19.293l-3-3Zm-1.034-6.37-1.1-4.1-1.932.518,1.1,4.1Zm-2.322-4.8-4.1,1.1.518,1.932,4.1-1.1ZM8.206,4.311,9.3,2.419l-1.732-1L6.474,3.311ZM9.3,2.417a.83.83,0,0,1,.3-.3L8.576.4a2.83,2.83,0,0,0-1.01,1.025Zm.3-.3A.83.83,0,0,1,10,2L9.96,0A2.83,2.83,0,0,0,8.576.4ZM9.983,2a.784.784,0,0,1,.392.1l1-1.734A2.784,2.784,0,0,0,9.979,0Zm.392.1a.784.784,0,0,1,.287.286l1.729-1A2.784,2.784,0,0,0,11.371.37Zm.286.283L14.6,9.23l1.733-1L12.394,1.389ZM11.115,8.6l4.1,1.1.518-1.932-4.1-1.1Zm5.321.391,1.1-4.1L15.6,4.376l-1.1,4.1Z" transform="translate(0 0)" fill="#09090b"/>
</svg>
