<svg id="refrigerator" xmlns="http://www.w3.org/2000/svg" width="16" height="22" viewBox="0 0 16 22">
  <path id="Vector" d="M5,1V1ZM1,19H1ZM1,8a1,1,0,0,0,0,2Zm14,2a1,1,0,0,0,0-2ZM12,6a1,1,0,0,0-2,0Zm-2,6a1,1,0,0,0,2,0ZM2,5a3,3,0,0,1,.879-2.121L1.464,1.464A5,5,0,0,0,0,5Zm.879-2.121A3,3,0,0,1,5,2V0A5,5,0,0,0,1.464,1.464ZM5,2h6V0H5Zm6,0a3,3,0,0,1,2.121.879l1.414-1.414A5,5,0,0,0,11,0Zm2.121.879A3,3,0,0,1,14,5h2a5,5,0,0,0-1.465-3.536ZM14,5V19h2V5Zm0,14a1,1,0,0,1-.293.707l1.414,1.414A3,3,0,0,0,16,19Zm-.293.707A1,1,0,0,1,13,20v2a3,3,0,0,0,2.121-.879ZM13,20H3v2H13ZM3,20a1,1,0,0,1-.707-.293L.879,21.121A3,3,0,0,0,3,22Zm-.707-.293A1,1,0,0,1,2,19H0a3,3,0,0,0,.879,2.121ZM2,19V5H0V19ZM1,10H15V8H1Zm9-4v6h2V6Z" fill="#09090b"/>
</svg>
