<svg id="refresh-cw-off" xmlns="http://www.w3.org/2000/svg" width="22" height="22" viewBox="0 0 22 22">
  <path id="Vector" d="M20,7V8a1,1,0,0,0,1-1ZM17.74,4.74l.707-.707-.012-.012ZM11,2l0-1h0ZM7.8,1.525a1,1,0,1,0,.651,1.891ZM7,16a1,1,0,0,0,0-2ZM2,15V14a1,1,0,0,0-1,1ZM1,20a1,1,0,0,0,2,0Zm0-9a1,1,0,1,0,2,0ZM5.343,5.351A1,1,0,0,0,3.937,3.928ZM4.26,17.26l-.707.707.012.012ZM11,20l0,1h0Zm7.071-1.937a1,1,0,1,0-1.423-1.406ZM21,11a1,1,0,0,0-2,0Zm-2.416,2.544a1,1,0,0,0,1.891.651ZM21,2a1,1,0,0,0-2,0ZM15,6a1,1,0,0,0,0,2Zm5.293,15.707a1,1,0,0,0,1.414-1.414ZM1.707.293A1,1,0,0,0,.293,1.707Zm19,6-2.26-2.26L17.033,5.447l2.26,2.26ZM18.435,4.021A10.75,10.75,0,0,0,11,1L11,3a8.75,8.75,0,0,1,6.049,2.459ZM11,1a9.812,9.812,0,0,0-3.2.525l.651,1.891A7.813,7.813,0,0,1,11,3ZM7,14H2v2H7ZM1,15v5H3V15Zm2-4A7.9,7.9,0,0,1,5.343,5.351L3.937,3.928A9.9,9.9,0,0,0,1,11ZM1.293,15.707l2.26,2.26,1.414-1.414-2.26-2.26Zm2.272,2.272A10.75,10.75,0,0,0,11,21L11,19a8.75,8.75,0,0,1-6.049-2.459ZM11,21a9.9,9.9,0,0,0,7.071-2.937l-1.423-1.406A7.9,7.9,0,0,1,11,19Zm8-10a7.812,7.812,0,0,1-.416,2.544l1.891.651A9.812,9.812,0,0,0,21,11Zm0-9V7h2V2Zm1,4H15V8h5Zm1.707,14.293-20-20L.293,1.707l20,20Z" transform="translate(0)" fill="#09090b"/>
</svg>
