<svg id="refresh-cw" xmlns="http://www.w3.org/2000/svg" width="20" height="20" viewBox="0 0 20 20">
  <path id="Vector" d="M0,10a1,1,0,0,0,2,0ZM10,1l0-1h0Zm6.74,2.74.707-.707-.012-.012ZM19,6V7a1,1,0,0,0,1-1Zm1-5a1,1,0,0,0-2,0ZM14,5a1,1,0,0,0,0,2Zm6,5a1,1,0,0,0-2,0ZM10,19l0,1h0ZM3.26,16.26l-.707.707.012.012ZM1,14V13a1,1,0,0,0-1,1Zm5,1a1,1,0,0,0,0-2ZM0,19a1,1,0,0,0,2,0Zm2-9A8,8,0,0,1,4.343,4.343L2.929,2.929A10,10,0,0,0,0,10ZM4.343,4.343A8,8,0,0,1,10,2V0A10,10,0,0,0,2.929,2.929ZM10,2a8.75,8.75,0,0,1,6.049,2.459l1.39-1.438A10.75,10.75,0,0,0,10,0Zm6.037,2.447,2.26,2.26,1.414-1.414-2.26-2.26ZM18,1V6h2V1Zm1,4H14V7h5Zm-1,5a8,8,0,0,1-2.343,5.657l1.414,1.414A10,10,0,0,0,20,10Zm-2.343,5.657A8,8,0,0,1,10,18v2a10,10,0,0,0,7.071-2.929ZM10,18a8.75,8.75,0,0,1-6.049-2.459l-1.39,1.438A10.75,10.75,0,0,0,10,20ZM3.967,15.553l-2.26-2.26L.293,14.707l2.26,2.26ZM6,13H1v2H6ZM0,14v5H2V14Z" fill="#09090b"/>
</svg>
