<svg id="repeat-1" xmlns="http://www.w3.org/2000/svg" width="20" height="22" viewBox="0 0 20 22">
  <path id="Vector" d="M15.707.293a1,1,0,0,0-1.414,1.414ZM19,5l.707.707a1,1,0,0,0,0-1.414ZM14.293,8.293a1,1,0,0,0,1.414,1.414ZM0,10a1,1,0,0,0,2,0ZM5,5V5ZM4.293,21.707a1,1,0,0,0,1.414-1.414ZM1,17l-.707-.707a1,1,0,0,0,0,1.414Zm4.707-3.293a1,1,0,1,0-1.414-1.414ZM20,12a1,1,0,0,0-2,0ZM9,8a1,1,0,0,0,0,2Zm1,1h1a1,1,0,0,0-1-1ZM9,13a1,1,0,0,0,2,0ZM14.293,1.707l4,4,1.414-1.414-4-4Zm4,2.586-4,4,1.414,1.414,4-4ZM2,10V9H0v1ZM2,9a3,3,0,0,1,.879-2.121L1.464,5.464A5,5,0,0,0,0,9Zm.879-2.121A3,3,0,0,1,5,6V4A5,5,0,0,0,1.464,5.464ZM5,6H19V4H5Zm.707,14.293-4-4L.293,17.707l4,4Zm-4-2.586,4-4L4.293,12.293l-4,4ZM18,12v1h2V12Zm0,1a3,3,0,0,1-.879,2.121l1.414,1.414A5,5,0,0,0,20,13Zm-.879,2.121A3,3,0,0,1,15,16v2a5,5,0,0,0,3.535-1.465ZM15,16H1v2H15ZM9,10h1V8H9ZM9,9v4h2V9Z" fill="#09090b"/>
</svg>
