<svg id="reply" xmlns="http://www.w3.org/2000/svg" width="18" height="13" viewBox="0 0 18 13">
  <path id="Vector" d="M5.293,11.707a1,1,0,1,0,1.414-1.414ZM1,6,.293,5.293a1,1,0,0,0,0,1.414ZM6.707,1.707A1,1,0,0,0,5.293.293ZM16,12a1,1,0,0,0,2,0ZM13,6V6ZM6.707,10.293l-5-5L.293,6.707l5,5Zm-5-3.586,5-5L5.293.293l-5,5ZM18,12V10H16v2Zm0-2a5,5,0,0,0-1.465-3.536L15.121,7.879A3,3,0,0,1,16,10ZM16.535,6.464A5,5,0,0,0,13,5V7a3,3,0,0,1,2.121.879ZM13,5H1V7H13Z" transform="translate(0 0)" fill="#09090b"/>
</svg>
