<svg id="replace" xmlns="http://www.w3.org/2000/svg" width="22" height="22" viewBox="0 0 22 22">
  <path id="Vector" d="M12,3a1,1,0,0,0,2,0Zm3-1a1,1,0,0,0,0-2Zm4-2a1,1,0,0,0,0,2Zm1,3a1,1,0,0,0,2,0Zm2,4a1,1,0,0,0-2,0ZM19,8a1,1,0,0,0,0,2Zm-4,2a1,1,0,0,0,0-2ZM14,7a1,1,0,0,0-2,0ZM2.707,5.293A1,1,0,0,0,1.293,6.707ZM5,9l-.707.707a1,1,0,0,0,1.414,0ZM8.707,6.707A1,1,0,0,0,7.293,5.293ZM9,2A1,1,0,0,0,9,0Zm5,1a1.006,1.006,0,0,1,1-1V0a3.006,3.006,0,0,0-3,3Zm5-1a1.006,1.006,0,0,1,1,1h2a3.006,3.006,0,0,0-3-3Zm1,5a1.006,1.006,0,0,1-1,1v2a3.006,3.006,0,0,0,3-3ZM15,8a1.006,1.006,0,0,1-1-1H12a3.006,3.006,0,0,0,3,3ZM1.293,6.707l3,3L5.707,8.293l-3-3Zm4.414,3,3-3L7.293,5.293l-3,3ZM6,9V4H4V9ZM6,4A1.947,1.947,0,0,1,8,2V0A3.946,3.946,0,0,0,4,4ZM8,2H9V0H8ZM3,14H7V12H3Zm4,0a1,1,0,0,1,1,1h2a3,3,0,0,0-3-3Zm1,1v4h2V15Zm0,4a1,1,0,0,1-1,1v2a3,3,0,0,0,3-3ZM7,20H3v2H7ZM3,20a1,1,0,0,1-1-1H0a3,3,0,0,0,3,3ZM2,19V15H0v4Zm0-4a1,1,0,0,1,1-1V12a3,3,0,0,0-3,3Z" fill="#09090b"/>
</svg>
