<svg id="ribbon" xmlns="http://www.w3.org/2000/svg" width="15" height="22.04" viewBox="0 0 15 22.04">
  <path id="Vector" d="M4.5,21.04l-.587.809a1,1,0,0,0,1.39-.213ZM1,18.5l-.791-.612a1,1,0,0,0,.2,1.422ZM2.668,7.879A1,1,0,1,0,.712,8.3ZM1.7,8.1l-.974.227a1,1,0,0,0,1.8.331Zm8.76,12.94-.8.6a1,1,0,0,0,1.384.214ZM14,18.5l.583.813a1,1,0,0,0,.2-1.431ZM9.5,7h0Zm-2-2V5Zm4.78,2.767c-.46,1.841-1.606,3.209-3.018,5.143l1.616,1.179c1.288-1.766,2.763-3.518,3.342-5.837ZM9.264,12.908l-2.6,3.54,1.612,1.184,2.6-3.54Zm-2.6,3.536-2.97,4L5.3,21.636l2.97-4Zm-1.58,3.787-3.5-2.54L.413,19.309l3.5,2.54Zm-3.3-1.118,3.85-4.97L4.059,12.918l-3.85,4.97ZM5.664,12.95c-1.929-2.707-2.692-3.656-3-5.07L.712,8.3c.415,1.926,1.532,3.3,3.323,5.81Zm8.406-5.511A8,8,0,0,0,11.181,4.9l-.919,1.776a6,6,0,0,1,2.167,1.9ZM11.181,4.9a8,8,0,0,0-3.738-.894l.016,2a6,6,0,0,1,2.8.67ZM7.443,4.011a8,8,0,0,0-3.723.952l.946,1.762a6,6,0,0,1,2.792-.714ZM3.72,4.963A8,8,0,0,0,.871,7.541L2.529,8.659A6,6,0,0,1,4.667,6.725ZM2.674,7.873A8.263,8.263,0,0,1,2.5,6H.5A10.219,10.219,0,0,0,.726,8.327ZM2.5,6A3.5,3.5,0,0,1,3.9,2.992,6.057,6.057,0,0,1,7.48,2V0A8.03,8.03,0,0,0,2.715,1.383,5.492,5.492,0,0,0,.5,6ZM7.48,2a6.131,6.131,0,0,1,3.638.991A3.5,3.5,0,0,1,12.5,6h2a5.487,5.487,0,0,0-2.193-4.616A8.1,8.1,0,0,0,7.48,0ZM12.5,6a6.9,6.9,0,0,1-.217,1.756l1.935.507A8.9,8.9,0,0,0,14.5,6ZM5.632,14.154l2.64-3.31L6.708,9.6l-2.64,3.31Zm1.037,3.485,2.99,4,1.6-1.2-2.99-4Zm4.374,4.214,3.54-2.54-1.166-1.625-3.54,2.54Zm3.743-3.971-3.93-5L9.284,14.118l3.93,5ZM8.5,7a1.833,1.833,0,0,1-.44.947c-.349.489-.792.974-1.34,1.635L8.26,10.858c.462-.559,1.024-1.184,1.428-1.75A3.7,3.7,0,0,0,10.5,7ZM8.267,9.59C7.725,8.922,7.29,8.443,6.94,7.949A1.848,1.848,0,0,1,6.5,7h-2a3.715,3.715,0,0,0,.808,2.106c.4.561.957,1.192,1.406,1.744ZM6.5,7a1,1,0,0,1,.293-.707L5.379,4.879A3,3,0,0,0,4.5,7Zm.293-.707A1,1,0,0,1,7.5,6V4a3,3,0,0,0-2.121.879ZM7.5,6a1,1,0,0,1,.707.293L9.621,4.879A3,3,0,0,0,7.5,4Zm.707.293A1,1,0,0,1,8.5,7h2a3,3,0,0,0-.879-2.121Z" transform="translate(0 0)" fill="#09090b"/>
</svg>
