<svg id="rocking-chair" xmlns="http://www.w3.org/2000/svg" width="20.5" height="21.866" viewBox="0 0 20.5 21.866">
  <path id="Vector" d="M2.712.726a1,1,0,1,0-1.923.549ZM4.75,11.5l-.962.275a1,1,0,0,0,.962.725Zm11.5,1a1,1,0,0,0,0-2Zm-7.618-.529a1,1,0,0,0-1.765-.941ZM2.868,18.53a1,1,0,1,0,1.765.941Zm11.289-7.452a1,1,0,0,0-1.812.846Zm1.688,8.346a1,1,0,0,0,1.812-.846ZM1.712,16.3A1,1,0,1,0,.288,17.7Zm18.5,1.405A1,1,0,0,0,18.788,16.3ZM.788,1.275l3,10.5,1.923-.549-3-10.5ZM4.75,12.5h11.5v-2H4.75ZM6.868,11.03l-4,7.5,1.765.941,4-7.5Zm5.476.893,3.5,7.5,1.812-.846-3.5-7.5ZM.288,17.7a14,14,0,0,0,4.563,3.08l.771-1.845A12,12,0,0,1,1.712,16.3Zm4.563,3.08a14,14,0,0,0,5.4,1.083v-2a12,12,0,0,1-4.627-.928Zm5.4,1.083a14,14,0,0,0,5.4-1.083l-.771-1.845a12,12,0,0,1-4.627.928Zm5.4-1.083a14,14,0,0,0,4.563-3.08L18.788,16.3a12,12,0,0,1-3.911,2.64Z" transform="translate(0 0)" fill="#09090b"/>
</svg>
