<svg id="rotate-cw" xmlns="http://www.w3.org/2000/svg" width="20" height="20" viewBox="0 0 20 20">
  <path id="Vector" d="M20,10a1,1,0,0,0-2,0ZM10,1V1Zm6.74,2.74.707-.707-.014-.014ZM19,6V7a1,1,0,0,0,1-1Zm1-5a1,1,0,0,0-2,0ZM14,5a1,1,0,0,0,0,2Zm4,5a8,8,0,0,1-1.348,4.445l1.663,1.111A10,10,0,0,0,20,10Zm-1.348,4.445a8,8,0,0,1-3.59,2.946l.765,1.848a10,10,0,0,0,4.488-3.683Zm-3.59,2.946a8,8,0,0,1-4.622.455l-.39,1.962a10,10,0,0,0,5.778-.569Zm-4.622.455a8,8,0,0,1-4.1-2.189L2.929,17.071a10,10,0,0,0,5.12,2.737Zm-4.1-2.189a8,8,0,0,1-2.189-4.1l-1.962.39a10,10,0,0,0,2.737,5.12Zm-2.189-4.1a8,8,0,0,1,.455-4.622L.761,6.173a10,10,0,0,0-.569,5.778Zm.455-4.622a8,8,0,0,1,2.946-3.59L4.444,1.685A10,10,0,0,0,.761,6.173Zm2.946-3.59A8,8,0,0,1,10,2V0A10,10,0,0,0,4.444,1.685ZM10,2a8.742,8.742,0,0,1,6.047,2.461l1.386-1.442A10.741,10.741,0,0,0,10,0Zm6.033,2.447,2.26,2.26,1.414-1.414-2.26-2.26ZM18,1V6h2V1Zm1,4H14V7h5Z" transform="translate(0 0)" fill="#09090b"/>
</svg>
