<svg id="rotate-ccw-square" xmlns="http://www.w3.org/2000/svg" width="18" height="20" viewBox="0 0 18 20">
  <path id="Vector" d="M16,8a1,1,0,0,0,2,0ZM15,4V4ZM9,4l-.707-.707a1,1,0,0,0,0,1.414Zm3.707-2.293A1,1,0,0,0,11.293.293Zm-1.414,6a1,1,0,0,0,1.414-1.414ZM18,12a1,1,0,0,0-2,0ZM1,17H1ZM3,4V4ZM5,5A1,1,0,0,0,5,3ZM18,8V6H16V8Zm0-2a3,3,0,0,0-.879-2.121L15.707,5.293A1,1,0,0,1,16,6Zm-.879-2.121A3,3,0,0,0,15,3V5a1,1,0,0,1,.707.293ZM15,3H9V5h6ZM11.293.293l-3,3L9.707,4.707l3-3Zm-3,4.414,3,3,1.414-1.414-3-3ZM16,12v5h2V12Zm0,5a1,1,0,0,1-.293.707l1.414,1.414A3,3,0,0,0,18,17Zm-.293.707A1,1,0,0,1,15,18v2a3,3,0,0,0,2.121-.879ZM15,18H3v2H15ZM3,18a1,1,0,0,1-.707-.293L.879,19.121A3,3,0,0,0,3,20Zm-.707-.293A1,1,0,0,1,2,17H0a3,3,0,0,0,.879,2.121ZM2,17V6H0V17ZM2,6a1,1,0,0,1,.293-.707L.879,3.879A3,3,0,0,0,0,6Zm.293-.707A1,1,0,0,1,3,5V3a3,3,0,0,0-2.121.879ZM3,5H5V3H3Z" transform="translate(0 0)" fill="#09090b"/>
</svg>
