<svg id="router" xmlns="http://www.w3.org/2000/svg" width="22" height="22.001" viewBox="0 0 22 22.001">
  <path id="Vector" d="M5.01,18a1,1,0,0,0,0-2ZM5,16a1,1,0,0,0,0,2Zm4.01,2a1,1,0,1,0,0-2ZM9,16a1,1,0,0,0,0,2Zm6-7a1,1,0,0,0-2,0Zm-2,4a1,1,0,0,0,2,0Zm3.132-6.123a1,1,0,0,0,1.415-1.413Zm-5.66-1.413a1,1,0,0,0,1.415,1.413Zm8.481-1.416a1,1,0,0,0,1.414-1.415ZM14.005,1V1ZM7.643,2.634A1,1,0,0,0,9.057,4.049ZM3,14H19V12H3Zm16,0a1,1,0,0,1,1,1h2a3,3,0,0,0-3-3Zm1,1v4h2V15Zm0,4a1,1,0,0,1-1,1v2a3,3,0,0,0,3-3Zm-1,1H3v2H19ZM3,20a1,1,0,0,1-1-1H0a3,3,0,0,0,3,3ZM2,19V15H0v4Zm0-4a1,1,0,0,1,1-1V12a3,3,0,0,0-3,3Zm3.01,1H5v2h.01Zm4,0H9v2h.01ZM13,9v4h2V9Zm4.547-3.537a5,5,0,0,0-1.623-1.085l-.766,1.848a3,3,0,0,1,.974.651ZM15.925,4.379A5,5,0,0,0,14.01,4V6a3,3,0,0,1,1.149.229ZM14.01,4a5,5,0,0,0-1.915.381l.766,1.848A3,3,0,0,1,14.01,6ZM12.1,4.379a5,5,0,0,0-1.623,1.085l1.415,1.413a3,3,0,0,1,.974-.651Zm8.272-1.745A9,9,0,0,0,14.005,0V2a7,7,0,0,1,4.948,2.049ZM14.005,0A9,9,0,0,0,7.643,2.634L9.057,4.049A7,7,0,0,1,14.005,2Z" fill="#09090b"/>
</svg>
