<svg id="rss" xmlns="http://www.w3.org/2000/svg" width="18" height="18" viewBox="0 0 18 18">
  <path id="Vector" d="M1,7A1,1,0,0,0,1,9ZM9,17a1,1,0,0,0,2,0ZM1,0A1,1,0,0,0,1,2ZM16,17a1,1,0,0,0,2,0ZM1,9a8,8,0,0,1,5.657,2.343L8.071,9.929A10,10,0,0,0,1,7Zm5.657,2.343A8,8,0,0,1,9,17h2A10,10,0,0,0,8.071,9.929ZM1,2A15,15,0,0,1,11.607,6.393l1.414-1.414A17,17,0,0,0,1,0ZM11.607,6.393A15,15,0,0,1,16,17h2A17,17,0,0,0,13.021,4.979ZM2,16v2a2,2,0,0,0,2-2Zm0,0H0a2,2,0,0,0,2,2Zm0,0V14a2,2,0,0,0-2,2Zm0,0H4a2,2,0,0,0-2-2Z" fill="#09090b"/>
</svg>
