<svg id="ruler" xmlns="http://www.w3.org/2000/svg" width="22.008" height="22.008" viewBox="0 0 22.008 22.008">
  <path id="Vector" d="M20.3,14.3l-.707.707h0Zm.706,1.7h0ZM20.3,17.7l-.706-.708h0Zm-2.6,2.6-.707-.707h0Zm-1.7.706v0ZM14.3,20.3l.708-.706h0ZM1.7,7.7l-.709.705,0,0ZM1,6H1Zm.7-1.7L.995,3.595l0,0ZM4.3,1.7,3.6.993l0,0ZM6,1V1Zm1.7.7L8.409.995l0,0Zm5.093,9.093a1,1,0,0,0,1.414,1.414Zm3.414-.586a1,1,0,1,0-1.414-1.414ZM9.795,7.795a1,1,0,0,0,1.414,1.414Zm3.414-.586a1,1,0,0,0-1.414-1.414ZM6.795,4.795A1,1,0,0,0,8.209,6.209Zm3.414-.586A1,1,0,0,0,8.795,2.795Zm5.586,9.586a1,1,0,0,0,1.414,1.414Zm3.414-.586a1,1,0,1,0-1.414-1.414Zm.387,1.8a1.4,1.4,0,0,1,.3.455l1.847-.767a3.4,3.4,0,0,0-.74-1.1Zm.3.455a1.4,1.4,0,0,1,.107.537h2a3.4,3.4,0,0,0-.26-1.3Zm.107.537a1.4,1.4,0,0,1-.107.537l1.847.767a3.4,3.4,0,0,0,.26-1.3Zm-.107.537a1.4,1.4,0,0,1-.3.455l1.412,1.417a3.4,3.4,0,0,0,.74-1.1Zm-.306.456-2.6,2.6,1.414,1.414,2.6-2.6Zm-2.6,2.6a1.4,1.4,0,0,1-.455.3l.767,1.847a3.4,3.4,0,0,0,1.1-.74Zm-.455.3a1.4,1.4,0,0,1-.537.107v2a3.4,3.4,0,0,0,1.3-.26ZM16,20.008a1.4,1.4,0,0,1-.537-.107L14.7,21.748a3.4,3.4,0,0,0,1.3.26Zm-.537-.107a1.4,1.4,0,0,1-.455-.3l-1.417,1.412a3.4,3.4,0,0,0,1.1.74Zm-.456-.306-12.6-12.6L.995,8.409l12.6,12.6ZM2.411,7A1.41,1.41,0,0,1,2,6H0A3.41,3.41,0,0,0,.993,8.407ZM2,6a1.41,1.41,0,0,1,.411-.995L.993,3.6A3.41,3.41,0,0,0,0,6Zm.409-.993,2.6-2.6L3.595.995l-2.6,2.6Zm2.6-2.6A1.41,1.41,0,0,1,6,2V0A3.41,3.41,0,0,0,3.6.993ZM6,2A1.41,1.41,0,0,1,7,2.411L8.407.993A3.41,3.41,0,0,0,6,0Zm.993.409,12.6,12.6,1.414-1.414L8.409.995Zm7.214,9.8,2-2L14.795,8.795l-2,2Zm-3-3,2-2L11.795,5.795l-2,2Zm-3-3,2-2L8.795,2.795l-2,2Zm9,9,2-2-1.414-1.414-2,2Z" transform="translate(0 0)" fill="#09090b"/>
</svg>
