<svg id="russian-ruble" xmlns="http://www.w3.org/2000/svg" width="14" height="20" viewBox="0 0 14 20">
  <path id="Vector" d="M1,8a1,1,0,0,0,0,2ZM9,9V9ZM4,1V0A1,1,0,0,0,3,1ZM3,19a1,1,0,0,0,2,0ZM1,12a1,1,0,0,0,0,2Zm8,2a1,1,0,0,0,0-2ZM1,10H9V8H1Zm8,0a5,5,0,0,0,3.535-1.464L11.121,7.121A3,3,0,0,1,9,8Zm3.535-1.464A5,5,0,0,0,14,5H12a3,3,0,0,1-.879,2.121ZM14,5a5,5,0,0,0-1.465-3.536L11.121,2.879A3,3,0,0,1,12,5ZM12.535,1.464A5,5,0,0,0,9,0V2a3,3,0,0,1,2.121.879ZM9,0H4V2H9ZM3,1V19H5V1ZM1,14H9V12H1Z" fill="#09090b"/>
</svg>
