<svg id="sandwich" xmlns="http://www.w3.org/2000/svg" width="20" height="17.673" viewBox="0 0 20 17.673">
  <path id="Vector" d="M1,7.463l-.614-.79A1,1,0,0,0,0,7.463Zm0,3H1Zm18-3h1a1,1,0,0,0-.386-.79Zm-9,9a1,1,0,0,0,0-2Zm-9-2H1Zm13.17,0a1,1,0,1,0,0,2ZM8.77,1.423l.614.79h0Zm2.46,0-.615.789h0Zm-.26,14.81.626-.78h0ZM5,11.463v-1a1,1,0,0,0-.624,1.781Zm12.5,0,.768.64a1,1,0,0,0-.768-1.64Zm-3.75,4.5.764.645,0,0ZM0,7.463v3H2v-3Zm0,3a2,2,0,0,0,.586,1.414L2,10.463H0Zm.586,1.414A2,2,0,0,0,2,12.463v-2H2ZM2,12.463H18v-2H2Zm16,0a2,2,0,0,0,1.414-.586L18,10.463h0Zm1.414-.586A2,2,0,0,0,20,10.463H18ZM20,10.463v-3H18v3Zm-10,4H2v2h8Zm-8,0H2L.586,15.877A2,2,0,0,0,2,16.463Zm0,0H0a2,2,0,0,0,.586,1.414Zm0,0v-2H0v2Zm0-2H2L.586,11.049A2,2,0,0,0,0,12.463Zm0,0H2v-2a2,2,0,0,0-1.414.586Zm16,0h0l1.414-1.414A2,2,0,0,0,18,10.463Zm0,0h2a2,2,0,0,0-.586-1.414Zm0,0v2h2v-2Zm0,2h0l1.414,1.414A2,2,0,0,0,20,14.463Zm0,0h0v2a2,2,0,0,0,1.414-.586Zm0,0H14.17v2H18ZM1.614,8.252l7.77-6.04L8.156.633.386,6.673ZM9.385,2.211A1,1,0,0,1,10,2V0A3,3,0,0,0,8.155.634ZM10,2a1,1,0,0,1,.615.211L11.845.634A3,3,0,0,0,10,0Zm.616.212,7.77,6.04,1.227-1.579L11.844.633ZM19,6.463H1v2H19Zm-7.406,8.989-5.97-4.77L4.376,12.244l5.97,4.77ZM5,12.463H17.5v-2H5Zm11.732-1.64-3.75,4.5,1.536,1.28,3.75-4.5Zm-3.746,4.5a1,1,0,0,1-.667.35l.193,1.991a3,3,0,0,0,2-1.051Zm-.667.35a1,1,0,0,1-.722-.215l-1.252,1.56a3,3,0,0,0,2.167.646Z" transform="translate(0 0)" fill="#09090b"/>
</svg>
