<svg id="save" xmlns="http://www.w3.org/2000/svg" width="20" height="20" viewBox="0 0 20 20">
  <path id="Vector" d="M13.2,1l.014-1H13.2Zm1.4.6-.714.7.007.007Zm3.8,3.8-.707.707.007.007ZM19,6.8h1s0-.01,0-.014ZM1,17H1ZM3,1V1ZM14,19a1,1,0,0,0,2,0ZM4,19a1,1,0,0,0,2,0ZM6,1A1,1,0,0,0,4,1Zm7,6a1,1,0,0,0,0-2Zm.186-5a1,1,0,0,1,.7.3L15.314.9a3,3,0,0,0-2.1-.9Zm.707.307,3.8,3.8,1.414-1.414-3.8-3.8ZM17.7,6.114a1,1,0,0,1,.3.7l2-.028a3,3,0,0,0-.9-2.1ZM18,6.8V17h2V6.8ZM18,17a1,1,0,0,1-.293.707l1.414,1.414A3,3,0,0,0,20,17Zm-.293.707A1,1,0,0,1,17,18v2a3,3,0,0,0,2.121-.879ZM17,18H3v2H17ZM3,18a1,1,0,0,1-.707-.293L.879,19.121A3,3,0,0,0,3,20Zm-.707-.293A1,1,0,0,1,2,17H0a3,3,0,0,0,.879,2.121ZM2,17V3H0V17ZM2,3a1,1,0,0,1,.293-.707L.879.879A3,3,0,0,0,0,3Zm.293-.707A1,1,0,0,1,3,2V0A3,3,0,0,0,.879.879ZM3,2H13.2V0H3ZM16,19V12H14v7Zm0-7a2,2,0,0,0-.586-1.414L14,12h2Zm-.586-1.414A2,2,0,0,0,14,10v2h0ZM14,10H6v2h8ZM6,10a2,2,0,0,0-1.414.586L6,12H6Zm-1.414.586A2,2,0,0,0,4,12H6ZM4,12v7H6V12ZM4,1V5H6V1ZM4,5a2,2,0,0,0,.586,1.414L6,5H4Zm.586,1.414A2,2,0,0,0,6,7V5H6ZM6,7h7V5H6Z" fill="#09090b"/>
</svg>
