<svg id="scale-3d" xmlns="http://www.w3.org/2000/svg" width="20" height="20" viewBox="0 0 20 20">
  <path id="Vector" d="M3,17H2a1,1,0,0,0,1,1Zm6.707-5.293a1,1,0,0,0-1.414-1.414ZM18,17a1,1,0,0,1-1,1v2a3,3,0,0,0,3-3Zm-1,1a1,1,0,0,1-1-1H14a3,3,0,0,0,3,3Zm-1-1a1,1,0,0,1,1-1V14a3,3,0,0,0-3,3Zm1-1a1,1,0,0,1,1,1h2a3,3,0,0,0-3-3ZM4,3A1,1,0,0,1,3,4V6A3,3,0,0,0,6,3ZM3,4A1,1,0,0,1,2,3H0A3,3,0,0,0,3,6ZM2,3A1,1,0,0,1,3,2V0A3,3,0,0,0,0,3ZM3,2A1,1,0,0,1,4,3H6A3,3,0,0,0,3,0ZM2,5V17H4V5ZM3,18H15V16H3Zm.707-.293,6-6L8.293,10.293l-6,6Z" fill="#09090b"/>
</svg>
