<svg id="scale" xmlns="http://www.w3.org/2000/svg" width="22" height="20" viewBox="0 0 22 20">
  <path id="Vector" d="M15,14l-.936-.351A1,1,0,0,0,14.4,14.8Zm3-8,.936-.351a1,1,0,0,0-1.873,0Zm3,8,.6.8a1,1,0,0,0,.338-1.152ZM1,14l-.936-.351A1,1,0,0,0,.4,14.8ZM4,6l.936-.351a1,1,0,0,0-1.873,0Zm3,8,.6.8a1,1,0,0,0,.338-1.152ZM6,18a1,1,0,0,0,0,2Zm10,2a1,1,0,1,0,0-2ZM12,1a1,1,0,0,0-2,0ZM10,19a1,1,0,0,0,2,0ZM2,4A1,1,0,0,0,2,6Zm9-1,.447-.894a1,1,0,0,0-.894,0Zm9,3a1,1,0,0,0,0-2Zm-4.064,8.351,3-8-1.873-.7-3,8Zm1.127-8,3,8,1.873-.7-3-8ZM20.4,13.2A4.008,4.008,0,0,1,18,14v2a6.008,6.008,0,0,0,3.6-1.2ZM18,14a4.008,4.008,0,0,1-2.4-.8l-1.2,1.6A6.008,6.008,0,0,0,18,16Zm-16.064.351,3-8-1.873-.7-3,8Zm1.127-8,3,8,1.873-.7-3-8ZM6.4,13.2A4.008,4.008,0,0,1,4,14v2a6.008,6.008,0,0,0,3.6-1.2ZM4,14a4.008,4.008,0,0,1-2.4-.8L.4,14.8A6.008,6.008,0,0,0,4,16Zm2,6H16V18H6ZM10,1V19h2V1ZM2,6H4V4H2ZM4,6a19.467,19.467,0,0,0,7.447-2.106l-.894-1.789A17.627,17.627,0,0,1,4,4Zm6.553-2.106A19.467,19.467,0,0,0,18,6V4a17.627,17.627,0,0,1-6.553-1.894ZM18,6h2V4H18Z" transform="translate(0)" fill="#09090b"/>
</svg>
