<svg id="scan-line" xmlns="http://www.w3.org/2000/svg" width="20" height="20" viewBox="0 0 20 20">
  <path id="Vector" d="M0,5A1,1,0,0,0,2,5ZM3,1V1ZM5,2A1,1,0,0,0,5,0ZM15,0a1,1,0,0,0,0,2Zm2,1V1Zm1,4a1,1,0,0,0,2,0Zm2,10a1,1,0,0,0-2,0Zm-5,3a1,1,0,0,0,0,2ZM5,20a1,1,0,0,0,0-2ZM1,17H1Zm1-2a1,1,0,0,0-2,0ZM5,9a1,1,0,0,0,0,2Zm10,2a1,1,0,0,0,0-2ZM2,5V3H0V5ZM2,3a1,1,0,0,1,.293-.707L.879.879A3,3,0,0,0,0,3Zm.293-.707A1,1,0,0,1,3,2V0A3,3,0,0,0,.879.879ZM3,2H5V0H3ZM15,2h2V0H15Zm2,0a1,1,0,0,1,.707.293L19.121.879A3,3,0,0,0,17,0Zm.707.293A1,1,0,0,1,18,3h2A3,3,0,0,0,19.121.879ZM18,3V5h2V3Zm0,12v2h2V15Zm0,2a1,1,0,0,1-.293.707l1.414,1.414A3,3,0,0,0,20,17Zm-.293.707A1,1,0,0,1,17,18v2a3,3,0,0,0,2.121-.879ZM17,18H15v2h2ZM5,18H3v2H5ZM3,18a1,1,0,0,1-.707-.293L.879,19.121A3,3,0,0,0,3,20Zm-.707-.293A1,1,0,0,1,2,17H0a3,3,0,0,0,.879,2.121ZM2,17V15H0v2Zm3-6H15V9H5Z" fill="#09090b"/>
</svg>
