<svg id="school" xmlns="http://www.w3.org/2000/svg" width="22" height="22" viewBox="0 0 22 22">
  <path id="Vector" d="M12,21a1,1,0,0,0,2,0Zm-1-6v0ZM8,21a1,1,0,0,0,2,0ZM17.447,8.106a1,1,0,0,0-.894,1.789ZM21,11h1a1,1,0,0,0-.553-.894ZM1,19H1Zm0-8-.447-.894A1,1,0,0,0,0,11ZM5.447,9.894a1,1,0,0,0-.894-1.789ZM18,4a1,1,0,0,0-2,0ZM16,21a1,1,0,0,0,2,0ZM2.553,4.106a1,1,0,1,0,.894,1.789ZM11,1l.447-.894a1,1,0,0,0-.894,0Zm7.553,4.894a1,1,0,0,0,.894-1.789ZM6,4A1,1,0,0,0,4,4ZM4,21a1,1,0,0,0,2,0Zm10,0V17H12v4Zm0-4a3,3,0,0,0-.879-2.121l-1.414,1.414A1,1,0,0,1,12,17Zm-.879-2.121A3,3,0,0,0,11,14v2a1,1,0,0,1,.707.293ZM11,14a3,3,0,0,0-2.121.879l1.414,1.414A1,1,0,0,1,11,16Zm-2.121.879A3,3,0,0,0,8,17h2a1,1,0,0,1,.293-.707ZM8,17v4h2V17Zm8.553-7.106,4,2,.894-1.789-4-2ZM20,11v8h2V11Zm0,8a1,1,0,0,1-.293.707l1.414,1.414A3,3,0,0,0,22,19Zm-.293.707A1,1,0,0,1,19,20v2a3,3,0,0,0,2.121-.879ZM19,20H3v2H19ZM3,20a1,1,0,0,1-.707-.293L.879,21.121A3,3,0,0,0,3,22Zm-.707-.293A1,1,0,0,1,2,19H0a3,3,0,0,0,.879,2.121ZM2,19V11H0v8Zm-.553-7.106,4-2L4.553,8.106l-4,2ZM16,4V21h2V4ZM3.447,5.894l8-4L10.553.106l-8,4Zm7.106-4,8,4,.894-1.789-8-4ZM4,4V21H6V4Zm8,4a1,1,0,0,1-1,1v2a3,3,0,0,0,3-3ZM11,9a1,1,0,0,1-1-1H8a3,3,0,0,0,3,3ZM10,8a1,1,0,0,1,1-1V5A3,3,0,0,0,8,8Zm1-1a1,1,0,0,1,1,1h2a3,3,0,0,0-3-3Z" transform="translate(0 0)" fill="#09090b"/>
</svg>
