<svg id="scissors-line-dashed" xmlns="http://www.w3.org/2000/svg" width="22" height="14" viewBox="0 0 22 14">
  <path id="Vector" d="M5.127,3.713A1,1,0,0,0,3.713,5.127ZM6.293,7.707A1,1,0,0,0,7.707,6.293Zm7.414-6A1,1,0,1,0,12.293.293ZM3.713,8.873a1,1,0,1,0,1.414,1.414Zm6.794.22a1,1,0,1,0-1.414,1.414Zm1.786,4.614a1,1,0,1,0,1.414-1.414ZM15,8a1,1,0,0,0,0-2ZM13,6a1,1,0,0,0,0,2Zm8,2a1,1,0,0,0,0-2ZM19,6a1,1,0,0,0,0,2ZM3.713,5.127l2.58,2.58L7.707,6.293l-2.58-2.58ZM4,3A1,1,0,0,1,3,4V6A3,3,0,0,0,6,3ZM3,4A1,1,0,0,1,2,3H0A3,3,0,0,0,3,6ZM2,3A1,1,0,0,1,3,2V0A3,3,0,0,0,0,3ZM3,2A1,1,0,0,1,4,3H6A3,3,0,0,0,3,0ZM12.293.293l-8.58,8.58,1.414,1.414,8.58-8.58ZM4,11a1,1,0,0,1-1,1v2a3,3,0,0,0,3-3ZM3,12a1,1,0,0,1-1-1H0a3,3,0,0,0,3,3ZM2,11a1,1,0,0,1,1-1V8a3,3,0,0,0-3,3Zm1-1a1,1,0,0,1,1,1H6A3,3,0,0,0,3,8Zm6.093.507,3.2,3.2,1.414-1.414-3.2-3.2ZM15,6H13V8h2Zm6,0H19V8h2Z" fill="#09090b"/>
</svg>
