<svg id="screen-share-off" xmlns="http://www.w3.org/2000/svg" width="22" height="20" viewBox="0 0 22 20">
  <path id="Vector" d="M12,2a1,1,0,0,0,0-2ZM3,1V1ZM1,3H1ZM1,13H1Zm21-3a1,1,0,0,0-2,0ZM7,18a1,1,0,0,0,0,2Zm8,2a1,1,0,0,0,0-2Zm-3-5a1,1,0,0,0-2,0Zm-2,4a1,1,0,0,0,2,0ZM21.707,1.707A1,1,0,0,0,20.293.293ZM15.293,5.293a1,1,0,1,0,1.414,1.414Zm1.414-5a1,1,0,1,0-1.414,1.414Zm3.586,6.414a1,1,0,0,0,1.414-1.414ZM12,0H3V2h9ZM3,0A3,3,0,0,0,.879.879L2.293,2.293A1,1,0,0,1,3,2ZM.879.879A3,3,0,0,0,0,3H2a1,1,0,0,1,.293-.707ZM0,3V13H2V3ZM0,13a3,3,0,0,0,.879,2.121l1.414-1.414A1,1,0,0,1,2,13Zm.879,2.121A3,3,0,0,0,3,16V14a1,1,0,0,1-.707-.293ZM3,16H19V14H3Zm16,0a3,3,0,0,0,2.121-.879l-1.414-1.414A1,1,0,0,1,19,14Zm2.121-.879A3,3,0,0,0,22,13H20a1,1,0,0,1-.293.707ZM22,13V10H20v3ZM7,20h8V18H7Zm3-5v4h2V15ZM20.293.293l-5,5,1.414,1.414,5-5Zm-5,1.414,5,5,1.414-1.414-5-5Z" fill="#09090b"/>
</svg>
