<svg id="scroll" xmlns="http://www.w3.org/2000/svg" width="22" height="20" viewBox="0 0 22 20">
  <path id="Vector" d="M17,15a1,1,0,0,0,2,0ZM16,1V1ZM3,1V1ZM5,17H5ZM5,3H5ZM1,3H1ZM1,5H1ZM5,7A1,1,0,0,0,5,5Zm14,8V3H17V15ZM19,3A3,3,0,0,0,18.121.879L16.707,2.293A1,1,0,0,1,17,3ZM18.121.879A3,3,0,0,0,16,0V2a1,1,0,0,1,.707.293ZM16,0H3V2H16ZM7,20H19V18H7Zm12,0a3,3,0,0,0,2.121-.879l-1.414-1.414A1,1,0,0,1,19,18Zm2.121-.879A3,3,0,0,0,22,17H20a1,1,0,0,1-.293.707ZM22,17V16H20v1Zm0-1a2,2,0,0,0-.586-1.414L20,16h2Zm-.586-1.414A2,2,0,0,0,20,14v2h0ZM20,14H10v2H20ZM10,14a2,2,0,0,0-1.414.586L10,16h0Zm-1.414.586A2,2,0,0,0,8,16h2ZM8,16v1h2V16Zm0,1a1,1,0,0,1-.293.707l1.414,1.414A3,3,0,0,0,10,17Zm-.293.707A1,1,0,0,1,7,18v2a3,3,0,0,0,2.121-.879ZM7,18a1,1,0,0,1-.707-.293L4.879,19.121A3,3,0,0,0,7,20Zm-.707-.293A1,1,0,0,1,6,17H4a3,3,0,0,0,.879,2.121ZM6,17V3H4V17ZM6,3A3,3,0,0,0,5.121.879L3.707,2.293A1,1,0,0,1,4,3ZM5.121.879A3,3,0,0,0,3,0V2a1,1,0,0,1,.707.293ZM3,0A3,3,0,0,0,.879.879L2.293,2.293A1,1,0,0,1,3,2ZM.879.879A3,3,0,0,0,0,3H2a1,1,0,0,1,.293-.707ZM0,3V5H2V3ZM0,5A2,2,0,0,0,.586,6.414L2,5H0ZM.586,6.414A2,2,0,0,0,2,7V5H2ZM2,7H5V5H2Z" fill="#09090b"/>
</svg>
