<svg id="search-check" xmlns="http://www.w3.org/2000/svg" width="20" height="20" viewBox="0 0 20 20">
  <path id="Vector" d="M6.707,8.293A1,1,0,0,0,5.293,9.707ZM8,11l-.707.707a1,1,0,0,0,1.414,0Zm4.707-3.293a1,1,0,0,0-1.414-1.414Zm5.586,12a1,1,0,1,0,1.414-1.414Zm-2.886-5.714a1,1,0,0,0-1.414,1.414ZM5.293,9.707l2,2,1.414-1.414-2-2Zm3.414,2,4-4L11.293,6.293l-4,4ZM16,9a7,7,0,0,1-7,7v2a9,9,0,0,0,9-9ZM9,16A7,7,0,0,1,2,9H0a9,9,0,0,0,9,9ZM2,9A7,7,0,0,1,9,2V0A9,9,0,0,0,0,9ZM9,2a7,7,0,0,1,7,7h2A9,9,0,0,0,9,0ZM19.707,18.293l-4.3-4.3-1.414,1.414,4.3,4.3Z" fill="#09090b"/>
</svg>
