<svg id="search-code" xmlns="http://www.w3.org/2000/svg" width="20" height="20" viewBox="0 0 20 20">
  <path id="Vector" d="M10.219,10.875a1,1,0,1,0,1.562,1.249ZM13,9l.781.625a1,1,0,0,0,0-1.249ZM11.781,5.875a1,1,0,0,0-1.562,1.249Zm6.512,13.832a1,1,0,1,0,1.414-1.414Zm-2.886-5.714a1,1,0,0,0-1.414,1.414ZM7.781,7.125A1,1,0,1,0,6.219,5.875ZM5,9l-.781-.625a1,1,0,0,0,0,1.249Zm1.219,3.125a1,1,0,1,0,1.562-1.249Zm5.562,0,2-2.5L12.219,8.375l-2,2.5Zm2-3.749-2-2.5L10.219,7.125l2,2.5Zm5.926,9.917-4.3-4.3-1.414,1.414,4.3,4.3ZM6.219,5.875l-2,2.5L5.781,9.625l2-2.5Zm-2,3.749,2,2.5,1.562-1.249-2-2.5ZM16,9a7,7,0,0,1-7,7v2a9,9,0,0,0,9-9ZM9,16A7,7,0,0,1,2,9H0a9,9,0,0,0,9,9ZM2,9A7,7,0,0,1,9,2V0A9,9,0,0,0,0,9ZM9,2a7,7,0,0,1,7,7h2A9,9,0,0,0,9,0Z" fill="#09090b"/>
</svg>
