<svg id="section" xmlns="http://www.w3.org/2000/svg" width="10" height="22" viewBox="0 0 10 22">
  <path id="Vector" d="M8,4a1,1,0,0,0,2,0ZM5,1V1ZM1,4H1Zm8,7H9ZM1,11H1Zm1,7a1,1,0,0,0-2,0Zm3,3v0Zm4-3H9ZM5,8V8Zm5-4A3.679,3.679,0,0,0,8.428,1.079l-1.2,1.6A1.692,1.692,0,0,1,8,4ZM8.428,1.079A5.756,5.756,0,0,0,5,0V2a3.763,3.763,0,0,1,2.228.679ZM5,0A5.756,5.756,0,0,0,1.572,1.079l1.2,1.6A3.763,3.763,0,0,1,5,2ZM1.572,1.079A3.679,3.679,0,0,0,0,4H2a1.692,1.692,0,0,1,.772-1.321ZM0,4A3.606,3.606,0,0,0,1.672,7.035a13.311,13.311,0,0,0,2.977,1.4A11.6,11.6,0,0,1,7.172,9.6,1.622,1.622,0,0,1,8,11h2A3.606,3.606,0,0,0,8.328,7.965a13.311,13.311,0,0,0-2.977-1.4A11.6,11.6,0,0,1,2.828,5.4,1.622,1.622,0,0,1,2,4Zm8,7a1.692,1.692,0,0,1-.772,1.321l1.2,1.6A3.679,3.679,0,0,0,10,11Zm-.772,1.321A3.763,3.763,0,0,1,5,13v2a5.756,5.756,0,0,0,3.428-1.079ZM5,13a3.763,3.763,0,0,1-2.228-.679l-1.2,1.6A5.756,5.756,0,0,0,5,15Zm-2.228-.679A1.692,1.692,0,0,1,2,11H0a3.679,3.679,0,0,0,1.572,2.921ZM0,18a3.679,3.679,0,0,0,1.572,2.921l1.2-1.6A1.692,1.692,0,0,1,2,18Zm1.572,2.921A5.756,5.756,0,0,0,5,22V20a3.763,3.763,0,0,1-2.228-.679ZM5,22a5.756,5.756,0,0,0,3.428-1.079l-1.2-1.6A3.763,3.763,0,0,1,5,20Zm3.428-1.079A3.679,3.679,0,0,0,10,18H8a1.692,1.692,0,0,1-.772,1.321ZM10,18a3.607,3.607,0,0,0-1.672-3.035,13.312,13.312,0,0,0-2.977-1.4A11.6,11.6,0,0,1,2.828,12.4,1.622,1.622,0,0,1,2,11H0a3.607,3.607,0,0,0,1.672,3.035,13.312,13.312,0,0,0,2.977,1.4A11.6,11.6,0,0,1,7.172,16.6,1.622,1.622,0,0,1,8,18ZM2,11a1.692,1.692,0,0,1,.772-1.321l-1.2-1.6A3.679,3.679,0,0,0,0,11Zm.772-1.321A3.763,3.763,0,0,1,5,9V7A5.756,5.756,0,0,0,1.572,8.079ZM5,9a3.763,3.763,0,0,1,2.228.679l1.2-1.6A5.756,5.756,0,0,0,5,7Zm2.228.679A1.692,1.692,0,0,1,8,11h2A3.679,3.679,0,0,0,8.428,8.079Z" transform="translate(0)" fill="#09090b"/>
</svg>
