<svg id="server-off" xmlns="http://www.w3.org/2000/svg" width="22" height="22" viewBox="0 0 22 22">
  <path id="Vector" d="M6,0A1,1,0,0,0,6,2ZM19,1V1ZM14,8a1,1,0,1,0,0,2ZM9,9v1a1,1,0,0,0,.707-1.707ZM1.5,1.5l-.707.707ZM1,7H1Zm19,9a1,1,0,0,0,2,0Zm-2-4a1,1,0,0,0,0,2ZM1,15H1Zm0,4H1Zm18.5,2v1a1,1,0,0,0,.447-.106Zm1-.5.707-.707a1,1,0,0,0-1.154-.187Zm-.207,1.207a1,1,0,1,0,1.414-1.414ZM13,13l.707-.707A1,1,0,0,0,13,12ZM5,16a1,1,0,0,0,0,2Zm.01,2a1,1,0,0,0,0-2ZM1.707.293A1,1,0,0,0,.293,1.707ZM6,2H19V0H6ZM19,2a1,1,0,0,1,.707.293L21.121.879A3,3,0,0,0,19,0Zm.707.293A1,1,0,0,1,20,3h2A3,3,0,0,0,21.121.879ZM20,3V7h2V3Zm0,4a1,1,0,0,1-.293.707l1.414,1.414A3,3,0,0,0,22,7Zm-.293.707A1,1,0,0,1,19,8v2a3,3,0,0,0,2.121-.879ZM19,8H14v2h5Zm-9.293.293-7.5-7.5L.793,2.207l7.5,7.5Zm-7.5-7.5a1.931,1.931,0,0,0-.35-.284A1.165,1.165,0,0,0,.994.352,1.135,1.135,0,0,0,.228.965a1.754,1.754,0,0,0-.152.5A20.332,20.332,0,0,0,0,4H2a21.035,21.035,0,0,1,.049-2.211c.01-.059.01-.014-.032.07a.867.867,0,0,1-.589.445.838.838,0,0,1-.615-.09C.76,2.182.749,2.163.793,2.207ZM0,4V7H2V4ZM0,7A3,3,0,0,0,.879,9.121L2.293,7.707A1,1,0,0,1,2,7ZM.879,9.121A3,3,0,0,0,3,10V8a1,1,0,0,1-.707-.293ZM3,10H9V8H3Zm19,6V15H20v1Zm0-1a3,3,0,0,0-.879-2.121l-1.414,1.414A1,1,0,0,1,20,15Zm-.879-2.121A3,3,0,0,0,19,12v2a1,1,0,0,1,.707.293ZM19,12H18v2h1ZM3,12a3,3,0,0,0-2.121.879l1.414,1.414A1,1,0,0,1,3,14Zm-2.121.879A3,3,0,0,0,0,15H2a1,1,0,0,1,.293-.707ZM0,15v4H2V15Zm0,4a3,3,0,0,0,.879,2.121l1.414-1.414A1,1,0,0,1,2,19Zm.879,2.121A3,3,0,0,0,3,22V20a1,1,0,0,1-.707-.293ZM3,22H19.5V20H3Zm16.947-.106,1-.5-.894-1.789-1,.5Zm-.154-.687.5.5,1.414-1.414-.5-.5Zm1.914-.914-8-8-1.414,1.414,8,8ZM13,12H3v2H13ZM5,18h.01V16H5ZM.293,1.707l20,20,1.414-1.414-20-20Z" transform="translate(0)" fill="#09090b"/>
</svg>
