<svg id="server-cog" xmlns="http://www.w3.org/2000/svg" width="22" height="22" viewBox="0 0 22 22">
  <path id="Vector" d="M3.5,10a1,1,0,0,0,0-2ZM1,7H1ZM3,1V1ZM19,1V1Zm-.5,7a1,1,0,0,0,0,2Zm-15,6a1,1,0,0,0,0-2ZM1,15H1Zm0,4H1Zm17.5-7a1,1,0,0,0,0,2ZM5,4A1,1,0,0,0,5,6Zm.01,2a1,1,0,0,0,0-2ZM5,16a1,1,0,0,0,0,2Zm.01,2a1,1,0,0,0,0-2Zm9.374-4.651a1,1,0,1,0,.632-1.9Zm-.268-2.2a1,1,0,1,0-.632,1.9Zm-6.232-.3a1,1,0,0,0,.632-1.9Zm-.268-2.2a1,1,0,1,0-.632,1.9Zm1.035,5.732a1,1,0,0,0,1.9.633Zm2.2-.267a1,1,0,0,0-1.9-.633Zm.823.955a1,1,0,0,0,1.857-.743Zm1.457-1.743a1,1,0,0,0-1.857.743ZM8.871,8.671a1,1,0,1,0,1.857-.743Zm1.457-1.743a1,1,0,1,0-1.857.743Zm-3.4,4.743a1,1,0,1,0,.743,1.857Zm1.743,1.457a1,1,0,1,0-.743-1.857Zm4.658-4.257a1,1,0,1,0,.743,1.857Zm1.743,1.457a1,1,0,1,0-.743-1.857ZM13.349,7.616a1,1,0,0,0-1.9-.632Zm-2.2.268a1,1,0,0,0,1.9.632ZM13,11a2,2,0,0,1-2,2v2a4,4,0,0,0,4-4Zm-2,2a2,2,0,0,1-2-2H7a4,4,0,0,0,4,4ZM9,11a2,2,0,0,1,2-2V7a4,4,0,0,0-4,4Zm2-2a2,2,0,0,1,2,2h2a4,4,0,0,0-4-4ZM3.5,8H3v2h.5ZM3,8a1,1,0,0,1-.707-.293L.879,9.121A3,3,0,0,0,3,10Zm-.707-.293A1,1,0,0,1,2,7H0A3,3,0,0,0,.879,9.121ZM2,7V3H0V7ZM2,3a1,1,0,0,1,.293-.707L.879.879A3,3,0,0,0,0,3Zm.293-.707A1,1,0,0,1,3,2V0A3,3,0,0,0,.879.879ZM3,2H19V0H3ZM19,2a1,1,0,0,1,.707.293L21.121.879A3,3,0,0,0,19,0Zm.707.293A1,1,0,0,1,20,3h2A3,3,0,0,0,21.121.879ZM20,3V7h2V3Zm0,4a1,1,0,0,1-.293.707l1.414,1.414A3,3,0,0,0,22,7Zm-.293.707A1,1,0,0,1,19,8v2a3,3,0,0,0,2.121-.879ZM19,8h-.5v2H19ZM3.5,12H3v2h.5ZM3,12a3,3,0,0,0-2.121.879l1.414,1.414A1,1,0,0,1,3,14Zm-2.121.879A3,3,0,0,0,0,15H2a1,1,0,0,1,.293-.707ZM0,15v4H2V15Zm0,4a3,3,0,0,0,.879,2.121l1.414-1.414A1,1,0,0,1,2,19Zm.879,2.121A3,3,0,0,0,3,22V20a1,1,0,0,1-.707-.293ZM3,22H19V20H3Zm16,0a3,3,0,0,0,2.121-.879l-1.414-1.414A1,1,0,0,1,19,20Zm2.121-.879A3,3,0,0,0,22,19H20a1,1,0,0,1-.293.707ZM22,19V15H20v4Zm0-4a3,3,0,0,0-.879-2.121l-1.414,1.414A1,1,0,0,1,20,15Zm-.879-2.121A3,3,0,0,0,19,12v2a1,1,0,0,1,.707.293ZM19,12h-.5v2H19ZM5,6h.01V4H5ZM5,18h.01V16H5Zm10.016-6.549-.9-.3-.632,1.9.9.3Zm-6.5-2.5-.9-.3-.632,1.9.9.3Zm2.033,6.065.3-.9-1.9-.632-.3.9Zm2.98-.688-.4-1-1.857.743.4,1Zm-2.8-6.4-.4-1-1.857.743.4,1Zm-3.057,5.6,1-.4-.743-1.857-1,.4Zm6.4-2.8,1-.4-.743-1.857-1,.4Zm-2.62-3.745-.3.9,1.9.632.3-.9Z" fill="#09090b"/>
</svg>
