<svg id="settings" xmlns="http://www.w3.org/2000/svg" width="20.035" height="22" viewBox="0 0 20.035 22">
  <path id="Vector" d="M10.238,1V1ZM9.8,1V1Zm-2,2.18h0Zm-1,1.73-.5-.866,0,0Zm-.43.25.5.866,0,0Zm-2,0,.5-.866-.029-.016Zm-.15-.08-.5.866.029.016Zm-2.73.73-.865-.5h0Zm-.22.38L.4,5.689h0ZM2,8.92l.555-.832L2.5,8.055Zm.15.1-.555.832.055.034Zm1,1.72h1v-.006Zm0,.51h-1v0Zm-1,1.74-.5-.866-.015.009ZM2,13.08l.5.865.013-.008Zm-.73,2.73-.866.5h0Zm.22.38-.865.5h0Zm2.73.73-.471-.882-.029.016Zm.15-.08.471.882.029-.016Zm2,0,.5-.865,0,0Zm.43.25-.5.865h0Zm1,1.73h0Zm4.44,0h0Zm1-1.73.5.866h0Zm.43-.25-.5-.866,0,0Zm2,0-.5.866.029.016Zm.15.08.5-.866-.029-.016Zm2.73-.73.865.5.006-.01Zm.22-.39-.866-.5,0,.008Zm-.73-2.73.5-.865-.031-.017Zm-.15-.08-.5.866.029.016Zm-1-1.74,1,0v0Zm0-.5h1v0Zm1-1.74.5.866.014-.009Zm.15-.09-.5-.865-.013.008Zm.73-2.73.866-.5h0Zm-.22-.38.865-.5h0Zm-2.73-.73.471.882.029-.016Zm-.15.08L15.2,4.278l-.029.016Zm-2,0-.5.865,0,0Zm-.43-.25.5-.865,0,0Zm-1-1.73h0Zm-2-3.18H9.8V2h.44ZM9.8,0A3,3,0,0,0,7.676.879L9.09,2.293A1,1,0,0,1,9.8,2ZM7.676.879A3,3,0,0,0,6.8,3h2a1,1,0,0,1,.293-.707ZM6.8,3v.18h2V3Zm0,.179a1,1,0,0,1-.134.5l1.732,1a3,3,0,0,0,.4-1.5Zm-.134.5a1,1,0,0,1-.366.366l1,1.732a3,3,0,0,0,1.1-1.1Zm-.368.367-.43.25L6.87,6.025l.43-.25Zm-.427.248a1,1,0,0,1-.5.134v2a3,3,0,0,0,1.5-.4Zm-.5.134a1,1,0,0,1-.5-.134l-1,1.732a3,3,0,0,0,1.5.4Zm-.529-.15-.15-.08L3.747,5.962l.15.08Zm-.121-.064a3,3,0,0,0-2.274-.3L2.96,5.846a1,1,0,0,1,.758.1Zm-2.274-.3A3,3,0,0,0,.622,5.309l1.731,1a1,1,0,0,1,.607-.465ZM.622,5.309l-.22.38,1.731,1,.22-.38ZM.4,5.69A3,3,0,0,0,.1,7.964l1.932-.517a1,1,0,0,1,.1-.758ZM.1,7.964A3,3,0,0,0,1.5,9.785l1-1.731a1,1,0,0,1-.465-.607ZM1.443,9.752l.15.1L2.7,8.188l-.15-.1Zm.2.134a1,1,0,0,1,.365.363L3.741,9.244a3,3,0,0,0-1.094-1.09Zm.365.363a1,1,0,0,1,.135.5l2-.012a3,3,0,0,0-.406-1.49Zm.135.491v.51h2v-.51Zm0,.514a1,1,0,0,1-.133.5l1.734,1a3,3,0,0,0,.4-1.507Zm-.133.5a1,1,0,0,1-.367.368l1,1.732a3,3,0,0,0,1.1-1.1Zm-.382.376-.15.09,1.029,1.715.15-.09Zm-.137.082A3,3,0,0,0,.1,14.036l1.932.517a1,1,0,0,1,.465-.607ZM.1,14.036A3,3,0,0,0,.4,16.31l1.732-1a1,1,0,0,1-.1-.758Zm.3,2.275.22.38,1.731-1-.22-.38Zm.22.38a3,3,0,0,0,1.821,1.395l.517-1.932a1,1,0,0,1-.607-.465Zm1.821,1.395a3,3,0,0,0,2.274-.3l-1-1.732a1,1,0,0,1-.758.1ZM4.688,17.8l.15-.08L3.9,15.958l-.15.08Zm.179-.1a1,1,0,0,1,.5-.134v-2a3,3,0,0,0-1.5.4Zm.5-.134a1,1,0,0,1,.5.134l1-1.732a3,3,0,0,0-1.5-.4Zm.5.132.43.25L7.3,16.226l-.43-.25Zm.433.251a1,1,0,0,1,.366.366l1.732-1a3,3,0,0,0-1.1-1.1Zm.366.366a1,1,0,0,1,.134.5l2,0a3,3,0,0,0-.4-1.5Zm.134.5V19h2v-.18Zm0,.18a3,3,0,0,0,.879,2.121L9.09,19.707A1,1,0,0,1,8.8,19Zm.879,2.121A3,3,0,0,0,9.8,22V20a1,1,0,0,1-.707-.293ZM9.8,22h.44V20H9.8Zm.44,0a3,3,0,0,0,2.121-.879l-1.414-1.414a1,1,0,0,1-.707.293Zm2.121-.879A3,3,0,0,0,13.238,19h-2a1,1,0,0,1-.293.707ZM13.238,19v-.18h-2V19Zm0-.179a1,1,0,0,1,.134-.5l-1.731-1a3,3,0,0,0-.4,1.5Zm.134-.5a1,1,0,0,1,.366-.366l-1-1.732a3,3,0,0,0-1.1,1.1Zm.368-.367.43-.25-1.005-1.729-.43.25Zm.427-.249a1,1,0,0,1,.5-.134v-2a3,3,0,0,0-1.5.4Zm.5-.134a1,1,0,0,1,.5.134l1-1.732a3,3,0,0,0-1.5-.4Zm.529.15.15.08.941-1.765-.15-.08Zm.121.064a3,3,0,0,0,2.274.3l-.517-1.932a1,1,0,0,1-.758-.1Zm2.274.3a3,3,0,0,0,1.821-1.395l-1.731-1a1,1,0,0,1-.607.465Zm1.827-1.4.22-.39L17.9,15.309l-.22.39Zm.215-.382a3,3,0,0,0,.3-2.274L18,14.542a1,1,0,0,1-.1.758Zm.3-2.274A3,3,0,0,0,18.539,12.2l-1,1.731a1,1,0,0,1,.465.607Zm-1.425-1.838-.15-.08-.941,1.765.15.08Zm-.121-.064a1,1,0,0,1-.367-.368l-1.734,1a3,3,0,0,0,1.1,1.1Zm-.367-.368a1,1,0,0,1-.133-.5l-2-.008a3,3,0,0,0,.4,1.507Zm-.133-.506v-.5h-2v.5Zm0-.5a1,1,0,0,1,.133-.5l-1.734-1a3,3,0,0,0-.4,1.507Zm.133-.5a1,1,0,0,1,.367-.368l-1-1.732a3,3,0,0,0-1.1,1.1Zm.382-.376.15-.09L17.523,8.063l-.15.09Zm.137-.082a3,3,0,0,0,1.395-1.821L18,7.448a1,1,0,0,1-.465.607Zm1.395-1.821a3,3,0,0,0-.3-2.274l-1.732,1a1,1,0,0,1,.1.758Zm-.3-2.275-.22-.38-1.731,1,.22.38Zm-.22-.38a3,3,0,0,0-1.821-1.395l-.517,1.932a1,1,0,0,1,.607.465ZM17.592,3.914a3,3,0,0,0-2.274.3l1,1.732a1,1,0,0,1,.758-.1ZM15.347,4.2l-.15.08.941,1.765.15-.08Zm-.179.1a1,1,0,0,1-.5.134v2a3,3,0,0,0,1.5-.4Zm-.5.134a1,1,0,0,1-.5-.134l-1,1.732a3,3,0,0,0,1.5.4Zm-.5-.132-.43-.25L12.735,5.775l.43.25Zm-.433-.252a1,1,0,0,1-.366-.366l-1.731,1a3,3,0,0,0,1.1,1.1Zm-.366-.366a1,1,0,0,1-.134-.5l-2,0a3,3,0,0,0,.4,1.5Zm-.134-.5V3h-2v.18Zm0-.18A3,3,0,0,0,12.359.879L10.945,2.293A1,1,0,0,1,11.238,3ZM12.359.879A3,3,0,0,0,10.238,0V2a1,1,0,0,1,.707.293ZM12.018,11a2,2,0,0,1-2,2v2a4,4,0,0,0,4-4Zm-2,2a2,2,0,0,1-2-2h-2a4,4,0,0,0,4,4Zm-2-2a2,2,0,0,1,2-2V7a4,4,0,0,0-4,4Zm2-2a2,2,0,0,1,2,2h2a4,4,0,0,0-4-4Z" transform="translate(0)" fill="#09090b"/>
</svg>
