<svg id="settings-2" xmlns="http://www.w3.org/2000/svg" width="18" height="18" viewBox="0 0 18 18">
  <path id="Vector" d="M17,5a1,1,0,0,0,0-2ZM8,3A1,1,0,0,0,8,5ZM2,13a1,1,0,0,0,0,2ZM17,3H8V5h9ZM11,13H2v2h9Zm5,1a2,2,0,0,1-2,2v2a4,4,0,0,0,4-4Zm-2,2a2,2,0,0,1-2-2H10a4,4,0,0,0,4,4Zm-2-2a2,2,0,0,1,2-2V10a4,4,0,0,0-4,4Zm2-2a2,2,0,0,1,2,2h2a4,4,0,0,0-4-4ZM6,4A2,2,0,0,1,4,6V8A4,4,0,0,0,8,4ZM4,6A2,2,0,0,1,2,4H0A4,4,0,0,0,4,8ZM2,4A2,2,0,0,1,4,2V0A4,4,0,0,0,0,4ZM4,2A2,2,0,0,1,6,4H8A4,4,0,0,0,4,0Z" fill="#09090b"/>
</svg>
