<svg id="shapes" xmlns="http://www.w3.org/2000/svg" width="20" height="20.36" viewBox="0 0 20 20.36">
  <path id="Vector" d="M6.3,8.36v-1H6.246ZM5.674,7.281l.84.543.007-.01ZM9.4,1.36l.846.533.028-.047Zm1.2-.043.849-.529L11.435.77ZM14.3,7.26l-.849.529.028.043Zm-.572,1.1v1h0Zm-7.483-1A.3.3,0,0,1,6.4,7.4l-.951,1.76a1.7,1.7,0,0,0,.9.2ZM6.4,7.4a.3.3,0,0,1,.117.113l-1.73,1a1.7,1.7,0,0,0,.662.643Zm.117.113a.3.3,0,0,1,.04.158l-2-.048a1.7,1.7,0,0,0,.229.894Zm.04.158a.3.3,0,0,1-.048.156L4.834,6.738a1.7,1.7,0,0,0-.272.882Zm-.041.145,3.726-5.921L8.554.828,4.828,6.749Zm3.754-5.968a.3.3,0,0,1-.106.11L9.124.251a1.7,1.7,0,0,0-.6.624Zm-.106.11A.3.3,0,0,1,10.023,2L9.951,0a1.7,1.7,0,0,0-.827.25ZM10.023,2a.3.3,0,0,1-.149-.033l.92-1.776A1.7,1.7,0,0,0,9.951,0Zm-.149-.033a.3.3,0,0,1-.113-.1L11.435.77a1.7,1.7,0,0,0-.641-.58Zm-.125-.12,3.7,5.943,1.7-1.057L11.447.788Zm3.73,5.986a.3.3,0,0,1-.053-.152l2-.129a1.7,1.7,0,0,0-.3-.862Zm-.053-.152a.3.3,0,0,1,.033-.158l1.774.923a1.7,1.7,0,0,0,.188-.894Zm.033-.158a.3.3,0,0,1,.11-.118l1.041,1.708a1.7,1.7,0,0,0,.623-.667Zm.11-.118a.3.3,0,0,1,.155-.044l.007,2a1.7,1.7,0,0,0,.879-.248Zm.159-.044H6.3v2h7.428ZM2,13.36H7v-2H2Zm5,0H9a2,2,0,0,0-2-2Zm0,0v5H9v-5Zm0,5v2a2,2,0,0,0,2-2Zm0,0H2v2H7Zm-5,0H0a2,2,0,0,0,2,2Zm0,0v-5H0v5Zm0-5v-2a2,2,0,0,0-2,2Zm16,2.5a2.5,2.5,0,0,1-2.5,2.5v2a4.5,4.5,0,0,0,4.5-4.5Zm-2.5,2.5a2.5,2.5,0,0,1-2.5-2.5H11a4.5,4.5,0,0,0,4.5,4.5ZM13,15.86a2.5,2.5,0,0,1,2.5-2.5v-2a4.5,4.5,0,0,0-4.5,4.5Zm2.5-2.5a2.5,2.5,0,0,1,2.5,2.5h2a4.5,4.5,0,0,0-4.5-4.5Z" transform="translate(0 0)" fill="#09090b"/>
</svg>
