<svg id="shield-question" xmlns="http://www.w3.org/2000/svg" width="18" height="22.003" viewBox="0 0 18 22.003">
  <path id="Vector" d="M9.34,20.951l.321.947.008,0Zm-.67-.01L9.019,20,9,20ZM2,4V4ZM8.24,1.28,7.59.52,7.582.527Zm1.52,0,.658-.753L10.41.52ZM5.16,7.659a1,1,0,1,0,1.88.682ZM11.92,9h1V8.993ZM8.6,11.052a1,1,0,0,0,.632,1.9ZM9,15a1,1,0,0,0,0,2Zm.01,2a1,1,0,1,0,0-2ZM16,12a6.968,6.968,0,0,1-1.986,5.108,12.78,12.78,0,0,1-5,2.9l.658,1.889a14.735,14.735,0,0,0,5.777-3.39A8.963,8.963,0,0,0,18,12ZM9.019,20h0l-.7,1.874a2,2,0,0,0,1.34.02ZM9,20a12.727,12.727,0,0,1-5.01-2.888A6.958,6.958,0,0,1,2,12H0a8.954,8.954,0,0,0,2.556,6.5,14.685,14.685,0,0,0,5.788,3.382ZM2,12V5H0v7ZM2,5H2L.586,3.586A2,2,0,0,0,0,5ZM2,5H2V3a2,2,0,0,0-1.414.586ZM2,5A11.553,11.553,0,0,0,8.9,2.034L7.582.527A9.616,9.616,0,0,1,2,3Zm6.89-2.96A.17.17,0,0,1,9,2V0A2.17,2.17,0,0,0,7.59.52ZM9,2a.17.17,0,0,1,.11.041L10.41.52A2.17,2.17,0,0,0,9,0Zm.1.033A11.518,11.518,0,0,0,16,5V3A9.58,9.58,0,0,1,10.418.528ZM16,5h0l1.414-1.414A2,2,0,0,0,16,3Zm0,0h2a2,2,0,0,0-.586-1.414Zm0,0v7h2V5ZM7.04,8.342a2,2,0,0,1,.875-1.047l-1-1.729A4,4,0,0,0,5.16,7.659Zm.875-1.047a2,2,0,0,1,1.343-.242L9.6,5.081a4,4,0,0,0-2.687.484Zm1.343-.242a2,2,0,0,1,1.186.676l1.524-1.295A4,4,0,0,0,9.6,5.081Zm1.186.676a2,2,0,0,1,.476,1.279l2-.016a4,4,0,0,0-.951-2.559ZM10.92,9c0,.469-.365.958-1.055,1.418a6.049,6.049,0,0,1-.883.481c-.122.054-.222.094-.29.12l-.074.027-.015.005h0s0,0,.317.948.317.949.317.948h.006l.011,0,.035-.012.116-.043c.1-.037.231-.09.39-.161a8.047,8.047,0,0,0,1.18-.644A3.853,3.853,0,0,0,12.92,9ZM9,17h.01V15H9Z" fill="#09090b"/>
</svg>
