<svg id="ship" xmlns="http://www.w3.org/2000/svg" width="22" height="22" viewBox="0 0 22 22">
  <path id="Vector" d="M1.64,19.232A1,1,0,1,0,.36,20.768Zm18.72,1.536a1,1,0,1,0,1.28-1.536ZM17.52,18.49a1,1,0,1,0,1.721,1.02ZM20,13l1-.007a1,1,0,0,0-.594-.906ZM11,9l.406-.914a1,1,0,0,0-.812,0ZM2,13l-.406-.914A1,1,0,0,0,1,13Zm2.019,8.371A1,1,0,1,0,5.6,20.149ZM17,12a1,1,0,0,0,2,0ZM16,4V4ZM6,4V4ZM4,6H4ZM3,12a1,1,0,0,0,2,0Zm7,1a1,1,0,0,0,2,0ZM12,1a1,1,0,0,0-2,0ZM10,4a1,1,0,0,0,2,0ZM.36,20.768a5.731,5.731,0,0,0,1.192.819A4.362,4.362,0,0,0,3.5,22V20a2.374,2.374,0,0,1-1.077-.213,3.854,3.854,0,0,1-.783-.556ZM3.5,22a4.321,4.321,0,0,0,1.917-.411,6.208,6.208,0,0,0,1.208-.808,4.342,4.342,0,0,1,.824-.567A2.33,2.33,0,0,1,8.5,20V18a4.321,4.321,0,0,0-1.917.411,6.208,6.208,0,0,0-1.208.808,4.342,4.342,0,0,1-.824.567A2.33,2.33,0,0,1,3.5,20Zm5-2a2.374,2.374,0,0,1,1.077.213,3.854,3.854,0,0,1,.783.556l1.28-1.536a5.731,5.731,0,0,0-1.192-.819A4.362,4.362,0,0,0,8.5,18Zm1.86.768a5.73,5.73,0,0,0,1.192.819A4.362,4.362,0,0,0,13.5,22V20a2.374,2.374,0,0,1-1.077-.213,3.854,3.854,0,0,1-.783-.556ZM13.5,22a4.321,4.321,0,0,0,1.917-.411,6.21,6.21,0,0,0,1.208-.808,4.339,4.339,0,0,1,.824-.567A2.329,2.329,0,0,1,18.5,20V18a4.321,4.321,0,0,0-1.917.411,6.21,6.21,0,0,0-1.208.808,4.339,4.339,0,0,1-.824.567A2.329,2.329,0,0,1,13.5,20Zm5-2a2.374,2.374,0,0,1,1.077.213,3.854,3.854,0,0,1,.783.556l1.28-1.536a5.73,5.73,0,0,0-1.192-.819A4.362,4.362,0,0,0,18.5,18Zm.74-.49A12.6,12.6,0,0,0,21,12.993l-2,.015a10.6,10.6,0,0,1-1.48,5.483Zm1.166-7.424-9-4-.812,1.828,9,4Zm-9.812-4-9,4,.812,1.828,9-4ZM1,13a13.168,13.168,0,0,0,3.019,8.371L5.6,20.149A11.177,11.177,0,0,1,3,13Zm18-1V6H17v6Zm0-6a3,3,0,0,0-.879-2.121L16.707,5.293A1,1,0,0,1,17,6Zm-.879-2.121A3,3,0,0,0,16,3V5a1,1,0,0,1,.707.293ZM16,3H6V5H16ZM6,3a3,3,0,0,0-2.121.879L5.293,5.293A1,1,0,0,1,6,5Zm-2.121.879A3,3,0,0,0,3,6H5a1,1,0,0,1,.293-.707ZM3,6v6H5V6Zm7,3v4h2V9Zm0-8V4h2V1Z" transform="translate(0)" fill="#09090b"/>
</svg>
