<svg id="shirt" xmlns="http://www.w3.org/2000/svg" width="21.496" height="22" viewBox="0 0 21.496 22">
  <path id="Vector" d="M19.128,2.46l-.316.949h0ZM14.748,1l.316-.949A1,1,0,0,0,13.748,1Zm-4,4V5Zm-4-4h1A1,1,0,0,0,6.432.051ZM2.368,2.46l.316.949h0ZM1.028,4.69l.986-.165h0Zm.58,3.47L2.595,8V8ZM2.6,9V8h0Zm2.15,0h1a1,1,0,0,0-1-1Zm12,0V8a1,1,0,0,0-1,1ZM18.9,9l0-1h0Zm.99-.84L18.9,8V8Zm.58-3.47-.986-.166h0ZM19.444,1.511,15.064.051l-.632,1.9,4.38,1.46ZM13.748,1a3,3,0,0,1-.879,2.121l1.414,1.414A5,5,0,0,0,15.748,1Zm-.879,2.121A3,3,0,0,1,10.748,4V6a5,5,0,0,0,3.536-1.464ZM10.748,4a3,3,0,0,1-2.121-.879L7.212,4.536A5,5,0,0,0,10.748,6ZM8.627,3.121A3,3,0,0,1,7.748,1h-2A5,5,0,0,0,7.212,4.536ZM6.432.051l-4.38,1.46.632,1.9,4.38-1.46Zm-4.38,1.46a3,3,0,0,0-1.623,1.3l1.714,1.03a1,1,0,0,1,.541-.434ZM.429,2.812A3,3,0,0,0,.042,4.856l1.972-.333a1,1,0,0,1,.129-.681ZM.042,4.855l.58,3.47L2.594,8l-.58-3.47ZM.621,8.32A2,2,0,0,0,1.3,9.525L2.595,8h0ZM1.3,9.525A2,2,0,0,0,2.6,10L2.595,8h0ZM2.6,10h2.15V8H2.6Zm1.15-1V19h2V9Zm0,10a3.006,3.006,0,0,0,3,3V20a1.006,1.006,0,0,1-1-1Zm3,3h8V20h-8Zm8,0a3,3,0,0,0,2.121-.879l-1.414-1.414a1,1,0,0,1-.707.293Zm2.121-.879A3,3,0,0,0,17.748,19h-2a1,1,0,0,1-.293.707ZM17.748,19V9h-2V19Zm-1-9H18.9V8h-2.15ZM18.9,10a2,2,0,0,0,1.3-.475L18.9,8h0Zm1.3-.475a2,2,0,0,0,.68-1.205L18.9,8h0Zm.68-1.2.58-3.47-1.973-.33L18.9,8Zm.58-3.469a3,3,0,0,0-.387-2.044l-1.714,1.03a1,1,0,0,1,.129.681Zm-.387-2.044a3,3,0,0,0-1.623-1.3l-.632,1.9a1,1,0,0,1,.541.434Z" transform="translate(0 0)" fill="#09090b"/>
</svg>
