<svg id="shovel" xmlns="http://www.w3.org/2000/svg" width="22" height="22" viewBox="0 0 22 22">
  <path id="Vector" d="M1,21H0a1,1,0,0,0,1,1Zm0-5-.707-.707A1,1,0,0,0,0,16Zm5-5,.707-.707a1,1,0,0,0-1.414,0Zm5,5,.707.707a1,1,0,0,0,0-1.414ZM6,21v1a1,1,0,0,0,.707-.293Zm1.793-8.207a1,1,0,0,0,1.414,1.414Zm7.914-5.086a1,1,0,0,0-1.414-1.414ZM16,1l.707-.707a1,1,0,0,0-1.414,0Zm5,5,.707.707a1,1,0,0,0,0-1.414Zm-.5.5-.707-.707h0Zm-5,0,.708-.706,0,0Zm0-5,.706.708h0ZM2,21V16H0v5Zm-.293-4.293,5-5L5.293,10.293l-5,5Zm3.586-5,5,5,1.414-1.414-5-5Zm5,3.586-5,5,1.414,1.414,5-5ZM6,20H1v2H6Zm3.207-5.793,6.5-6.5L14.293,6.293l-6.5,6.5Zm6.086-12.5,5,5,1.414-1.414-5-5Zm5,3.586-.5.5,1.414,1.414.5-.5Zm-.5.5a2.53,2.53,0,0,1-.822.55l.767,1.847a4.531,4.531,0,0,0,1.471-.986Zm-.822.55a2.531,2.531,0,0,1-.97.193v2a4.531,4.531,0,0,0,1.737-.346ZM18,6.538a2.53,2.53,0,0,1-.97-.193l-.767,1.847A4.53,4.53,0,0,0,18,8.538Zm-.97-.193a2.529,2.529,0,0,1-.822-.55L14.792,7.206a4.531,4.531,0,0,0,1.471.986Zm-.824-.553a2.532,2.532,0,0,1-.55-.822l-1.847.767a4.53,4.53,0,0,0,.986,1.471Zm-.55-.822A2.531,2.531,0,0,1,15.462,4h-2a4.529,4.529,0,0,0,.346,1.737ZM15.462,4a2.531,2.531,0,0,1,.193-.97l-1.847-.767A4.529,4.529,0,0,0,13.462,4Zm.193-.97a2.532,2.532,0,0,1,.55-.822L14.794.792a4.53,4.53,0,0,0-.986,1.471Zm.552-.823.5-.5L15.293.293l-.5.5Z" fill="#09090b"/>
</svg>
