<svg id="shower-head" xmlns="http://www.w3.org/2000/svg" width="18" height="18.01" viewBox="0 0 18 18.01">
  <path id="Vector" d="M1.707.293A1,1,0,0,0,.293,1.707ZM2.793,4.207A1,1,0,0,0,4.207,2.793ZM9.8,4.214a1,1,0,1,0,1.4-1.428ZM2.786,11.2A1,1,0,1,0,4.214,9.8Zm9.921-8.493a1,1,0,0,0-1.414-1.414ZM1.293,11.293a1,1,0,0,0,1.414,1.414ZM12,14a1,1,0,0,0-2,0Zm-2,.01a1,1,0,0,0,2,0ZM8,13a1,1,0,0,0-2,0Zm-2,.01a1,1,0,0,0,2,0ZM11,10a1,1,0,0,0-2,0Zm-2,.01a1,1,0,0,0,2,0ZM14,7a1,1,0,0,0-2,0Zm-2,.01a1,1,0,0,0,2,0ZM9,17a1,1,0,0,0-2,0Zm-2,.01a1,1,0,0,0,2,0ZM15,11a1,1,0,0,0-2,0Zm-2,.01a1,1,0,0,0,2,0ZM18,8a1,1,0,0,0-2,0Zm-2,.01a1,1,0,0,0,2,0ZM.293,1.707l2.5,2.5L4.207,2.793l-2.5-2.5ZM11.2,2.786a5.95,5.95,0,0,0-4.195-1.7l.01,2A3.95,3.95,0,0,1,9.8,4.214Zm-4.195-1.7A5.95,5.95,0,0,0,2.828,2.828L4.242,4.242A3.95,3.95,0,0,1,7.016,3.085ZM2.828,2.828A5.95,5.95,0,0,0,1.086,7.005l2,.01A3.95,3.95,0,0,1,4.242,4.242ZM1.086,7.005a5.95,5.95,0,0,0,1.7,4.195L4.214,9.8A3.95,3.95,0,0,1,3.085,7.016ZM11.293,1.293l-10,10,1.414,1.414,10-10ZM10,14v.01h2V14ZM6,13v.01H8V13Zm3-3v.01h2V10Zm3-3v.01h2V7ZM7,17v.01H9V17Zm6-6v.01h2V11Zm3-3v.01h2V8Z" transform="translate(0)" fill="#09090b"/>
</svg>
