<svg id="shrink" xmlns="http://www.w3.org/2000/svg" width="20" height="20" viewBox="0 0 20 20">
  <path id="Vector" d="M13,13V12a1,1,0,0,0-1,1Zm5.293,6.707a1,1,0,0,0,1.414-1.414ZM12,17.8a1,1,0,0,0,2,0ZM17.8,14a1,1,0,0,0,0-2ZM6,17.8a1,1,0,0,0,2,0ZM7,13H8a1,1,0,0,0-1-1ZM2.2,12a1,1,0,0,0,0,2ZM.293,18.293a1,1,0,0,0,1.414,1.414ZM14,2.2a1,1,0,0,0-2,0ZM13,7H12a1,1,0,0,0,1,1Zm4.8,1a1,1,0,0,0,0-2Zm1.907-6.293A1,1,0,0,0,18.293.293ZM8,2.2a1,1,0,0,0-2,0ZM7,7V8A1,1,0,0,0,8,7ZM2.2,6a1,1,0,0,0,0,2ZM1.707.293A1,1,0,0,0,.293,1.707ZM12.293,13.707l6,6,1.414-1.414-6-6ZM12,13v4.8h2V13Zm1,1h4.8V12H13ZM8,17.8V13H6v4.8ZM7,12H2.2v2H7Zm-.707.293-6,6,1.414,1.414,6-6ZM12,2.2V7h2V2.2ZM13,8h4.8V6H13Zm.707-.293,6-6L18.293.293l-6,6ZM6,2.2V7H8V2.2ZM7,6H2.2V8H7Zm.707.293-6-6L.293,1.707l6,6Z" fill="#09090b"/>
</svg>
