<svg id="sigma" xmlns="http://www.w3.org/2000/svg" width="14" height="18" viewBox="0 0 14 18">
  <path id="Vector" d="M12,4a1,1,0,0,0,2,0Zm0-3V1ZM1.5,1V1Zm-.4.8-.8.6h0Zm4.5,6-.8.6ZM6,9H6Zm-.4,1.2-.8-.6h0Zm-4.5,6,.8.6h0ZM14,14a1,1,0,0,0-2,0ZM14,4V2H12V4Zm0-2A2,2,0,0,0,13.414.586L12,2h2ZM13.414.586A2,2,0,0,0,12,0V2h0ZM12,0H1.5V2H12ZM1.5,0A1.5,1.5,0,0,0,.711.224l1.051,1.7A.5.5,0,0,1,1.5,2ZM.711.224A1.5,1.5,0,0,0,.158.829l1.789.894a.5.5,0,0,1-.184.2ZM.158.829a1.5,1.5,0,0,0-.152.806L2,1.455a.5.5,0,0,1-.051.269Zm-.152.806A1.5,1.5,0,0,0,.3,2.4L1.9,1.2a.5.5,0,0,1,.1.255ZM.3,2.4l4.5,6L6.4,7.2l-4.5-6Zm4.5,6A1,1,0,0,1,5,9H7a3,3,0,0,0-.6-1.8ZM5,9a1,1,0,0,1-.2.6l1.6,1.2A3,3,0,0,0,7,9Zm-.2.6-4.5,6,1.6,1.2,4.5-6Zm-4.5,6a1.5,1.5,0,0,0-.294.765L2,16.545a.5.5,0,0,1-.1.255Zm-.294.765a1.5,1.5,0,0,0,.152.806l1.789-.894A.5.5,0,0,1,2,16.545Zm.152.806a1.5,1.5,0,0,0,.553.605l1.051-1.7a.5.5,0,0,1,.184.2Zm.553.605A1.5,1.5,0,0,0,1.5,18V16a.5.5,0,0,1,.263.075ZM1.5,18H12V16H1.5ZM12,18a2,2,0,0,0,1.414-.586L12,16h0Zm1.414-.586A2,2,0,0,0,14,16H12ZM14,16V14H12v2Z" transform="translate(0)" fill="#09090b"/>
</svg>
