<svg id="signpost" xmlns="http://www.w3.org/2000/svg" width="22" height="20" viewBox="0 0 22 20">
  <path id="Vector" d="M12,11a1,1,0,0,0-2,0Zm-2,8a1,1,0,0,0,2,0ZM12,1a1,1,0,0,0-2,0ZM10,4a1,1,0,0,0,2,0Zm7,0V3h0Zm1.414.586-.707.707.014.013Zm2.293,2.207.707-.707L21.4,6.073Zm0,1.414.693.721.014-.014Zm-2.27,2.184-.693-.721-.025.025Zm-1.742.586.152-.988a1,1,0,0,0-.154-.012ZM5,11v1H5Zm-1.414-.586.707-.707-.014-.013ZM1.293,8.207l-.707.707L.6,8.927Zm0-1.414L.6,6.073l-.014.013ZM3.586,4.586l.693.72.014-.013ZM5,4V3H5Zm5,7v8h2V11ZM10,1V4h2V1Zm7,4a1,1,0,0,1,.707.293l1.414-1.414A3,3,0,0,0,17,3Zm.721.306,2.293,2.207L21.4,6.073,19.107,3.866ZM20,7.5h2a2,2,0,0,0-.586-1.414Zm0,0h0l1.414,1.414A2,2,0,0,0,22,7.5Zm.014-.014L17.743,9.67l1.387,1.441L21.4,8.928ZM17.718,9.7a1,1,0,0,1-.4.252l.638,1.9a3,3,0,0,0,1.2-.757Zm-.4.252a1,1,0,0,1-.471.041l-.3,1.977a3,3,0,0,0,1.413-.122Zm-.625.029L5,10l0,2,11.7-.023ZM5,10a1,1,0,0,1-.707-.293L2.879,11.121A3,3,0,0,0,5,12Zm-.721-.306L1.986,7.487.6,8.927l2.293,2.207ZM2,7.5H0A2,2,0,0,0,.586,8.914Zm0,0H2L.586,6.086A2,2,0,0,0,0,7.5Zm-.014.013L4.279,5.306,2.892,3.866.6,6.073Zm2.307-2.22A1,1,0,0,1,5,5V3a3,3,0,0,0-2.121.879ZM5,5H17V3H5Z" fill="#09090b"/>
</svg>
