<svg id="signpost-big" xmlns="http://www.w3.org/2000/svg" width="22" height="22" viewBox="0 0 22 22">
  <path id="Vector" d="M9,9A1,1,0,0,0,9,7ZM3,8l-.707.707A1,1,0,0,0,3,9ZM1,6,.293,5.293a1,1,0,0,0,0,1.414ZM3,4V3a1,1,0,0,0-.707.293ZM9,5A1,1,0,0,0,9,3Zm4-2a1,1,0,0,0,0,2Zm6,1,.707-.707A1,1,0,0,0,19,3Zm2,2,.707.707a1,1,0,0,0,0-1.414ZM19,8V9a1,1,0,0,0,.707-.293ZM13,7a1,1,0,0,0,0,2ZM8,21a1,1,0,0,0,2,0ZM11,1V1Zm2,2h0ZM12,21a1,1,0,0,0,2,0ZM7,20a1,1,0,0,0,0,2Zm8,2a1,1,0,0,0,0-2ZM9,7H3V9H9Zm-5.293.293-2-2L.293,6.707l2,2Zm-2-.586,2-2L2.293,3.293l-2,2ZM3,5H9V3H3ZM13,5h6V3H13Zm5.293-.293,2,2,1.414-1.414-2-2Zm2,.586-2,2,1.414,1.414,2-2ZM19,7H13V9h6ZM10,21V3H8V21ZM10,3a1,1,0,0,1,.293-.707L8.879.879A3,3,0,0,0,8,3Zm.293-.707A1,1,0,0,1,11,2V0A3,3,0,0,0,8.879.879ZM11,2a1,1,0,0,1,.707.293L13.121.879A3,3,0,0,0,11,0Zm.707.293A1,1,0,0,1,12,3h2A3,3,0,0,0,13.121.879ZM12,3V21h2V3ZM7,22h8V20H7Z" fill="#09090b"/>
</svg>
