<svg id="slack" xmlns="http://www.w3.org/2000/svg" width="22" height="22" viewBox="0 0 22 22">
  <path id="Vector" d="M18,9H17a1,1,0,0,0,1,1ZM4,14.5H4ZM4,13H5a1,1,0,0,0-1-1ZM2.5,13v0ZM13,18V17a1,1,0,0,0-1,1Zm0,1.5h0ZM7.5,4V4ZM9,4V5a1,1,0,0,0,1-1Zm4.5-2a.5.5,0,0,1,.5.5h2A2.5,2.5,0,0,0,13.5,0Zm.5.5v5h2v-5Zm0,5a.5.5,0,0,1-.5.5v2A2.5,2.5,0,0,0,16,7.5Zm-.5.5a.5.5,0,0,1-.5-.5H11A2.5,2.5,0,0,0,13.5,10ZM13,7.5v-5H11v5Zm0-5a.5.5,0,0,1,.5-.5V0A2.5,2.5,0,0,0,11,2.5Zm4,5V9h2V7.5ZM18,10h1.5V8H18Zm1.5,0a2.5,2.5,0,0,0,1.389-.421L19.778,7.916A.5.5,0,0,1,19.5,8Zm1.389-.421a2.5,2.5,0,0,0,.921-1.122l-1.848-.765a.5.5,0,0,1-.184.224Zm.921-1.122a2.5,2.5,0,0,0,.142-1.444L19.99,7.4a.5.5,0,0,1-.028.289Zm.142-1.444a2.5,2.5,0,0,0-.684-1.28L19.854,7.146a.5.5,0,0,1,.137.256Zm-.684-1.28a2.5,2.5,0,0,0-1.28-.684L19.6,7.01a.5.5,0,0,1,.256.137Zm-1.28-.684a2.5,2.5,0,0,0-1.444.142l.765,1.848A.5.5,0,0,1,19.6,7.01Zm-1.444.142a2.5,2.5,0,0,0-1.122.921l1.663,1.111a.5.5,0,0,1,.224-.184Zm-1.122.921A2.5,2.5,0,0,0,17,7.5h2a.5.5,0,0,1,.084-.278ZM8.5,14a.5.5,0,0,1,.5.5h2A2.5,2.5,0,0,0,8.5,12Zm.5.5v5h2v-5Zm0,5a.5.5,0,0,1-.5.5v2A2.5,2.5,0,0,0,11,19.5Zm-.5.5a.5.5,0,0,1-.5-.5H6A2.5,2.5,0,0,0,8.5,22ZM8,19.5v-5H6v5Zm0-5a.5.5,0,0,1,.5-.5V12A2.5,2.5,0,0,0,6,14.5Zm-3,0V13H3v1.5ZM4,12H2.5v2H4ZM2.5,12a2.5,2.5,0,0,0-1.389.421l1.111,1.663A.5.5,0,0,1,2.5,14Zm-1.389.421A2.5,2.5,0,0,0,.19,13.543l1.848.765a.5.5,0,0,1,.184-.224ZM.19,13.543a2.5,2.5,0,0,0-.142,1.444L2.01,14.6a.5.5,0,0,1,.028-.289ZM.048,14.988a2.5,2.5,0,0,0,.684,1.28l1.414-1.414A.5.5,0,0,1,2.01,14.6Zm.684,1.28a2.5,2.5,0,0,0,1.28.684L2.4,14.99a.5.5,0,0,1-.256-.137Zm1.28.684a2.5,2.5,0,0,0,1.444-.142l-.765-1.848a.5.5,0,0,1-.289.028Zm1.444-.142a2.5,2.5,0,0,0,1.122-.921L2.916,14.778a.5.5,0,0,1-.224.184Zm1.122-.921A2.5,2.5,0,0,0,5,14.5H3a.5.5,0,0,1-.084.278ZM14.5,13h5V11h-5Zm5,0a.5.5,0,0,1,.5.5h2A2.5,2.5,0,0,0,19.5,11Zm.5.5a.5.5,0,0,1-.5.5v2A2.5,2.5,0,0,0,22,13.5Zm-.5.5h-5v2h5Zm-5,0a.5.5,0,0,1-.5-.5H12A2.5,2.5,0,0,0,14.5,16Zm-.5-.5a.5.5,0,0,1,.5-.5V11A2.5,2.5,0,0,0,12,13.5Zm.5,3.5H13v2h1.5ZM12,18v1.5h2V18Zm0,1.5a2.5,2.5,0,0,0,.421,1.389l1.663-1.111A.5.5,0,0,1,14,19.5Zm.421,1.389a2.5,2.5,0,0,0,1.122.921l.765-1.848a.5.5,0,0,1-.224-.184Zm1.122.921a2.5,2.5,0,0,0,1.444.142L14.6,19.99a.5.5,0,0,1-.289-.028Zm1.444.142a2.5,2.5,0,0,0,1.28-.684l-1.414-1.414a.5.5,0,0,1-.256.137Zm1.28-.684a2.5,2.5,0,0,0,.684-1.28L14.99,19.6a.5.5,0,0,1-.137.256Zm.684-1.28a2.5,2.5,0,0,0-.142-1.444l-1.848.765a.5.5,0,0,1,.028.289Zm-.142-1.444a2.5,2.5,0,0,0-.921-1.122l-1.111,1.663a.5.5,0,0,1,.184.224Zm-.921-1.122A2.5,2.5,0,0,0,14.5,17v2a.5.5,0,0,1,.278.084ZM2.5,8h5V6h-5Zm5,0a.5.5,0,0,1,.5.5h2A2.5,2.5,0,0,0,7.5,6Zm.5.5a.5.5,0,0,1-.5.5v2A2.5,2.5,0,0,0,10,8.5ZM7.5,9h-5v2h5Zm-5,0A.5.5,0,0,1,2,8.5H0A2.5,2.5,0,0,0,2.5,11ZM2,8.5A.5.5,0,0,1,2.5,8V6A2.5,2.5,0,0,0,0,8.5ZM7.5,5H9V3H7.5ZM10,4V2.5H8V4Zm0-1.5a2.5,2.5,0,0,0-.421-1.389L7.916,2.222A.5.5,0,0,1,8,2.5ZM9.579,1.111A2.5,2.5,0,0,0,8.457.19L7.691,2.038a.5.5,0,0,1,.224.184ZM8.457.19A2.5,2.5,0,0,0,7.012.048L7.4,2.01a.5.5,0,0,1,.289.028ZM7.012.048a2.5,2.5,0,0,0-1.28.684L7.146,2.146A.5.5,0,0,1,7.4,2.01ZM5.732.732a2.5,2.5,0,0,0-.684,1.28L7.01,2.4a.5.5,0,0,1,.137-.256Zm-.684,1.28A2.5,2.5,0,0,0,5.19,3.457l1.848-.765A.5.5,0,0,1,7.01,2.4ZM5.19,3.457a2.5,2.5,0,0,0,.921,1.122L7.222,2.916a.5.5,0,0,1-.184-.224Zm.921,1.122A2.5,2.5,0,0,0,7.5,5V3a.5.5,0,0,1-.278-.084Z" transform="translate(0 0)" fill="#09090b"/>
</svg>
