<svg id="sliders-vertical" xmlns="http://www.w3.org/2000/svg" width="22" height="20" viewBox="0 0 22 20">
  <path id="Vector" d="M2,19a1,1,0,0,0,2,0Zm2-7a1,1,0,0,0-2,0ZM2,8A1,1,0,0,0,4,8ZM4,1A1,1,0,0,0,2,1Zm6,18a1,1,0,0,0,2,0Zm2-9a1,1,0,0,0-2,0ZM10,6a1,1,0,0,0,2,0Zm2-5a1,1,0,0,0-2,0Zm6,18a1,1,0,0,0,2,0Zm2-5a1,1,0,0,0-2,0Zm-2-4a1,1,0,0,0,2,0Zm2-9a1,1,0,0,0-2,0ZM1,11a1,1,0,0,0,0,2Zm4,2a1,1,0,0,0,0-2ZM9,5A1,1,0,0,0,9,7Zm4,2a1,1,0,0,0,0-2Zm4,6a1,1,0,0,0,0,2Zm4,2a1,1,0,0,0,0-2ZM4,19V12H2v7ZM4,8V1H2V8Zm8,11V10H10v9ZM12,6V1H10V6Zm8,13V14H18v5Zm0-9V1H18v9ZM1,13H5V11H1ZM9,7h4V5H9Zm8,8h4V13H17Z" fill="#09090b"/>
</svg>
