<svg id="smartphone-nfc" xmlns="http://www.w3.org/2000/svg" width="22.015" height="17.8" viewBox="0 0 22.015 17.8">
  <path id="Vector" d="M12.869,4.725a1,1,0,1,0-1.737.991ZM12.975,8.9h0Zm-1.844,3.185a1,1,0,0,0,1.737.991Zm5.2-9.467A1,1,0,1,0,14.59,3.6ZM16.984,8.9h0ZM14.59,14.2a1,1,0,1,0,1.741.985ZM19.778.5a1,1,0,1,0-1.735.994ZM18.052,16.3a1,1,0,0,0,1.737.992ZM2,3.9H7v-2H2Zm5,0H9a2,2,0,0,0-2-2Zm0,0v10H9V3.9Zm0,10v2a2,2,0,0,0,2-2Zm0,0H2v2H7Zm-5,0H0a2,2,0,0,0,2,2Zm0,0V3.9H0v10Zm0-10v-2a2,2,0,0,0-2,2Zm9.131,1.815A6.431,6.431,0,0,1,11.975,8.9h2a8.429,8.429,0,0,0-1.107-4.175ZM11.975,8.9a6.431,6.431,0,0,1-.844,3.185l1.737.991A8.43,8.43,0,0,0,13.975,8.9ZM14.59,3.6a10.76,10.76,0,0,1,1.394,5.3h2A12.76,12.76,0,0,0,16.33,2.618Zm1.395,5.3a10.76,10.76,0,0,1-1.394,5.3l1.741.985A12.76,12.76,0,0,0,17.984,8.9Zm2.058-7.4a14.911,14.911,0,0,1,1.973,7.4h2A16.911,16.911,0,0,0,19.778.5Zm1.973,7.4a14.91,14.91,0,0,1-1.963,7.4l1.737.992a16.911,16.911,0,0,0,2.227-8.4Z" transform="translate(0 0)" fill="#09090b"/>
</svg>
