<svg id="smartphone-charging" xmlns="http://www.w3.org/2000/svg" width="16" height="22" viewBox="0 0 16 22">
  <path id="Vector" d="M9.5,7.555A1,1,0,0,0,7.835,6.445ZM6,11l-.832-.555A1,1,0,0,0,6,12Zm4,0,.832.555A1,1,0,0,0,10,10ZM6.5,14.445a1,1,0,1,0,1.664,1.109ZM3,2H13V0H3ZM13,2a1,1,0,0,1,1,1h2a3,3,0,0,0-3-3Zm1,1V19h2V3Zm0,16a1,1,0,0,1-1,1v2a3,3,0,0,0,3-3Zm-1,1H3v2H13ZM3,20a1,1,0,0,1-1-1H0a3,3,0,0,0,3,3ZM2,19V3H0V19ZM2,3A1,1,0,0,1,3,2V0A3,3,0,0,0,0,3ZM7.835,6.445l-2.667,4,1.664,1.109,2.667-4ZM6,12h4V10H6Zm3.168-1.555-2.667,4,1.664,1.109,2.667-4Z" fill="#09090b"/>
</svg>
