<svg id="smile" xmlns="http://www.w3.org/2000/svg" width="22" height="22" viewBox="0 0 22 22">
  <path id="Vector" d="M7.8,12.4a1,1,0,0,0-1.6,1.2Zm8,1.2a1,1,0,1,0-1.6-1.2ZM8,7A1,1,0,0,0,8,9Zm.01,2a1,1,0,0,0,0-2ZM14,7a1,1,0,0,0,0,2Zm.01,2a1,1,0,0,0,0-2ZM20,11a9,9,0,0,1-9,9v2A11,11,0,0,0,22,11Zm-9,9a9,9,0,0,1-9-9H0A11,11,0,0,0,11,22ZM2,11a9,9,0,0,1,9-9V0A11,11,0,0,0,0,11Zm9-9a9,9,0,0,1,9,9h2A11,11,0,0,0,11,0ZM7,13l-.8.6h0v0l0,0,.007.009.021.027.07.086c.059.07.142.165.248.276a6.942,6.942,0,0,0,.923.8A5.987,5.987,0,0,0,11,16V14a3.991,3.991,0,0,1-2.349-.809A4.952,4.952,0,0,1,8,12.621c-.073-.076-.127-.138-.16-.177L7.8,12.4l0-.006h0v0h0L7,13Zm4,3a5.987,5.987,0,0,0,3.526-1.191,6.944,6.944,0,0,0,.923-.8c.106-.111.189-.206.248-.276l.07-.086.021-.027.007-.009,0,0v0h0L15,13l-.8-.6h0v0h0l0,.006-.034.041c-.033.04-.087.1-.16.177a4.953,4.953,0,0,1-.655.571A3.99,3.99,0,0,1,11,14ZM8,9h.01V7H8Zm6,0h.01V7H14Z" fill="#09090b"/>
</svg>
