<svg id="space" xmlns="http://www.w3.org/2000/svg" width="22" height="4" viewBox="0 0 22 4">
  <path id="Vector" d="M22,1a1,1,0,0,0-2,0ZM2,1A1,1,0,0,0,0,1ZM20,1V2h2V1Zm0,1a.2.2,0,0,1,0-.045.064.064,0,0,1,0-.011A.1.1,0,0,1,20,1.958a.179.179,0,0,1-.019.023A.176.176,0,0,1,19.958,2l-.013.008.011,0A.2.2,0,0,1,20,2V4a2,2,0,0,0,1.395-.605A2,2,0,0,0,22,2Zm0,0H2V4H20ZM2,2a.2.2,0,0,1,.045,0l.011,0L2.042,2A.185.185,0,0,1,2,1.958a.094.094,0,0,1-.008-.013.079.079,0,0,1,0,.011A.2.2,0,0,1,2,2H0A2,2,0,0,0,.605,3.395,2,2,0,0,0,2,4ZM2,2V1H0V2Z" transform="translate(0)" fill="#09090b"/>
</svg>
