<svg id="speaker" xmlns="http://www.w3.org/2000/svg" width="18" height="22" viewBox="0 0 18 22">
  <path id="Vector" d="M9,4A1,1,0,0,0,9,6Zm.01,2a1,1,0,1,0,0-2ZM9,12a1,1,0,0,0,0,2Zm.01,2a1,1,0,1,0,0-2ZM3,2H15V0H3ZM15,2a1,1,0,0,1,1,1h2a3,3,0,0,0-3-3Zm1,1V19h2V3Zm0,16a1,1,0,0,1-1,1v2a3,3,0,0,0,3-3Zm-1,1H3v2H15ZM3,20a1,1,0,0,1-1-1H0a3,3,0,0,0,3,3ZM2,19V3H0V19ZM2,3A1,1,0,0,1,3,2V0A3,3,0,0,0,0,3ZM9,6h.01V4H9Zm3,7a3,3,0,0,1-3,3v2a5,5,0,0,0,5-5ZM9,16a3,3,0,0,1-3-3H4a5,5,0,0,0,5,5ZM6,13a3,3,0,0,1,3-3V8a5,5,0,0,0-5,5Zm3-3a3,3,0,0,1,3,3h2A5,5,0,0,0,9,8Zm0,4h.01V12H9Z" fill="#09090b"/>
</svg>
