<svg id="spell-check" xmlns="http://www.w3.org/2000/svg" width="18" height="20" viewBox="0 0 18 20">
  <path id="Vector" d="M.106,12.553a1,1,0,0,0,1.789.894ZM7,1,7.895.553a1,1,0,0,0-1.789,0Zm5.106,12.447a1,1,0,0,0,1.789-.894ZM3,8a1,1,0,1,0,0,2Zm8,2a1,1,0,0,0,0-2Zm.707,6.293a1,1,0,0,0-1.414,1.414ZM13,19l-.707.707a1,1,0,0,0,1.414,0Zm4.707-3.293a1,1,0,0,0-1.414-1.414ZM1.895,13.447l6-12L6.106.553l-6,12Zm4.211-12,6,12,1.789-.894-6-12ZM3,10h8V8H3Zm7.293,7.707,2,2,1.414-1.414-2-2Zm3.414,2,4-4-1.414-1.414-4,4Z" transform="translate(0)" fill="#09090b"/>
</svg>
