<svg id="sprout" xmlns="http://www.w3.org/2000/svg" width="17" height="18" viewBox="0 0 17 18">
  <path id="Vector" d="M4,16a1,1,0,0,0,0,2Zm10,2a1,1,0,0,0,0-2ZM6.586,16.09a1,1,0,0,0,.828,1.821ZM8.8,10.1l.2.981a1,1,0,0,0,.753-1.3ZM4,9.8l.474-.88-.027-.014ZM1,5.6.824,4.616A1,1,0,0,0,.043,5.891ZM11.1,3l-.743-.669a1,1,0,0,0-.1.13Zm3.2,2.6.625.781a1,1,0,0,0,.082-.074ZM16,1l1,.043A1,1,0,0,0,15.963,0ZM4,18H14V16H4Zm3.414-.09a5.629,5.629,0,0,0,2.969-2.592,5.364,5.364,0,0,0,.347-3.027c-.056-.458-.141-.938-.208-1.361a11.71,11.71,0,0,1-.146-1.25,3.6,3.6,0,0,1,.478-2.159L9.147,6.479a5.584,5.584,0,0,0-.769,3.3,13.639,13.639,0,0,0,.169,1.465c.075.473.148.879.2,1.29a3.425,3.425,0,0,1-.169,1.926,3.691,3.691,0,0,1-1.99,1.629Zm-1.5-10.7a6.406,6.406,0,0,1,1.939,3.207l1.9-.632A8.3,8.3,0,0,0,7.088,5.591ZM8.6,9.12c-1.931.386-3.143.332-4.13-.2l-.948,1.761a7.871,7.871,0,0,0,5.47.4ZM4.447,8.906c-.881-.441-1.843-1.469-2.491-3.6L.043,5.891c.752,2.472,1.991,4.044,3.509,4.8ZM1.176,6.585c2.6-.464,3.906.021,4.736.624L7.088,5.591c-1.37-1-3.263-1.511-6.264-.976Zm9.082-4.123A8,8,0,0,0,9,7.032l2-.065a6,6,0,0,1,.943-3.429ZM10.053,8a8.3,8.3,0,0,0,4.872-1.618L13.675,4.819A6.34,6.34,0,0,1,9.947,6Zm4.955-1.692A7.308,7.308,0,0,0,17,1.043L15,.957a5.344,5.344,0,0,1-1.408,3.936ZM15.963,0a8.964,8.964,0,0,0-3.512.756,6.428,6.428,0,0,0-2.095,1.574l1.487,1.338a4.433,4.433,0,0,1,1.455-1.1A6.994,6.994,0,0,1,16.037,2Z" transform="translate(0 0)" fill="#09090b"/>
</svg>
