<svg id="square-bottom-dashed-scissors" xmlns="http://www.w3.org/2000/svg" width="22" height="22" viewBox="0 0 22 22">
  <path id="Vector" d="M3,22a1,1,0,0,0,0-2ZM1,19H1ZM3,1V1ZM19,1V1Zm0,19a1,1,0,0,0,0,2ZM9,22a1,1,0,0,0,0-2ZM7,20a1,1,0,0,0,0,2Zm8,2a1,1,0,0,0,0-2Zm-2-2a1,1,0,0,0,0,2ZM9.121,7.707A1,1,0,0,0,7.707,9.121Zm1.172,4a1,1,0,0,0,1.414-1.414Zm4.214,1.386a1,1,0,1,0-1.414,1.414Zm1.786,4.614a1,1,0,0,0,1.414-1.414Zm1.414-12a1,1,0,1,0-1.414-1.414Zm-10,7.172a1,1,0,0,0,1.414,1.414ZM3,20a1,1,0,0,1-.707-.293L.879,21.121A3,3,0,0,0,3,22Zm-.707-.293A1,1,0,0,1,2,19H0a3,3,0,0,0,.879,2.121ZM2,19V3H0V19ZM2,3a1,1,0,0,1,.293-.707L.879.879A3,3,0,0,0,0,3Zm.293-.707A1,1,0,0,1,3,2V0A3,3,0,0,0,.879.879ZM3,2H19V0H3ZM19,2a1,1,0,0,1,.707.293L21.121.879A3,3,0,0,0,19,0Zm.707.293A1,1,0,0,1,20,3h2A3,3,0,0,0,21.121.879ZM20,3V19h2V3Zm0,16a1,1,0,0,1-.293.707l1.414,1.414A3,3,0,0,0,22,19Zm-.293.707A1,1,0,0,1,19,20v2a3,3,0,0,0,2.121-.879ZM9,20H7v2H9Zm6,0H13v2h2ZM8,7A1,1,0,0,1,7,8v2a3,3,0,0,0,3-3ZM7,8A1,1,0,0,1,6,7H4a3,3,0,0,0,3,3ZM6,7A1,1,0,0,1,7,6V4A3,3,0,0,0,4,7ZM7,6A1,1,0,0,1,8,7h2A3,3,0,0,0,7,4Zm.707,3.121,2.586,2.586,1.414-1.414L9.121,7.707Zm5.386,5.386,3.2,3.2,1.414-1.414-3.2-3.2ZM8,15a1,1,0,0,1-1,1v2a3,3,0,0,0,3-3ZM7,16a1,1,0,0,1-1-1H4a3,3,0,0,0,3,3ZM6,15a1,1,0,0,1,1-1V12a3,3,0,0,0-3,3Zm1-1a1,1,0,0,1,1,1h2a3,3,0,0,0-3-3Zm9.293-9.707L7.707,12.879l1.414,1.414,8.586-8.586Z" fill="#09090b"/>
</svg>
