<svg id="square-split-horizontal" xmlns="http://www.w3.org/2000/svg" width="20" height="18" viewBox="0 0 20 18">
  <path id="Vector" d="M6,17a1,1,0,0,0,0-2ZM6,3A1,1,0,0,0,6,1Zm8-2a1,1,0,0,0,0,2Zm0,14a1,1,0,0,0,0,2ZM11,1A1,1,0,0,0,9,1ZM9,17a1,1,0,0,0,2,0ZM6,15H3v2H6ZM3,15a1.022,1.022,0,0,1-.668-.332A1.022,1.022,0,0,1,2,14H0a3,3,0,0,0,.918,2.082A3,3,0,0,0,3,17ZM2,14V4H0V14ZM2,4a1.021,1.021,0,0,1,.332-.668A1.021,1.021,0,0,1,3,3V1a3,3,0,0,0-2.082.918A3,3,0,0,0,0,4ZM3,3H6V1H3ZM14,3h3V1H14Zm3,0a1.022,1.022,0,0,1,.668.332A1.022,1.022,0,0,1,18,4h2a3,3,0,0,0-.918-2.082A3,3,0,0,0,17,1Zm1,1V14h2V4Zm0,10a1.172,1.172,0,0,1-1,1v2a3.145,3.145,0,0,0,3-3Zm-1,1H14v2h3ZM9,1V17h2V1Z" fill="#09090b"/>
</svg>
