<svg id="square-arrow-down-left" xmlns="http://www.w3.org/2000/svg" width="20" height="20" viewBox="0 0 20 20">
  <path id="Vector" d="M14.707,6.707a1,1,0,0,0-1.414-1.414ZM6,14H5a1,1,0,0,0,1,1Zm8,1a1,1,0,0,0,0-2ZM7,6A1,1,0,0,0,5,6ZM3,2H17V0H3ZM17,2a1,1,0,0,1,1,1h2a3,3,0,0,0-3-3Zm1,1V17h2V3Zm0,14a1,1,0,0,1-1,1v2a3,3,0,0,0,3-3Zm-1,1H3v2H17ZM3,18a1,1,0,0,1-1-1H0a3,3,0,0,0,3,3ZM2,17V3H0V17ZM2,3A1,1,0,0,1,3,2V0A3,3,0,0,0,0,3ZM13.293,5.293l-8,8,1.414,1.414,8-8ZM14,13H6v2h8ZM7,14V6H5v8Z" fill="#09090b"/>
</svg>
