<svg id="square-arrow-down-right" xmlns="http://www.w3.org/2000/svg" width="20" height="20" viewBox="0 0 20 20">
  <path id="Vector" d="M6.707,5.293A1,1,0,0,0,5.293,6.707ZM14,14v1a1,1,0,0,0,1-1Zm1-8a1,1,0,0,0-2,0ZM6,13a1,1,0,0,0,0,2ZM3,2H17V0H3ZM17,2a1,1,0,0,1,1,1h2a3,3,0,0,0-3-3Zm1,1V17h2V3Zm0,14a1,1,0,0,1-1,1v2a3,3,0,0,0,3-3Zm-1,1H3v2H17ZM3,18a1,1,0,0,1-1-1H0a3,3,0,0,0,3,3ZM2,17V3H0V17ZM2,3A1,1,0,0,1,3,2V0A3,3,0,0,0,0,3ZM5.293,6.707l8,8,1.414-1.414-8-8ZM13,6v8h2V6Zm1,7H6v2h8Z" fill="#09090b"/>
</svg>
