<svg id="square-check-big" xmlns="http://www.w3.org/2000/svg" width="21" height="20" viewBox="0 0 21 20">
  <path id="Vector" d="M7.707,8.293A1,1,0,0,0,6.293,9.707ZM10,12l-.707.707a1,1,0,0,0,1.414,0ZM20.707,2.707a1,1,0,0,0-1.414-1.414ZM20,10a1,1,0,0,0-2,0ZM1,17H1ZM3,1V1ZM14,2a1,1,0,0,0,0-2ZM6.293,9.707l3,3,1.414-1.414-3-3Zm4.414,3,10-10L19.293,1.293l-10,10ZM18,10v7h2V10Zm0,7a1,1,0,0,1-.293.707l1.414,1.414A3,3,0,0,0,20,17Zm-.293.707A1,1,0,0,1,17,18v2a3,3,0,0,0,2.121-.879ZM17,18H3v2H17ZM3,18a1,1,0,0,1-.707-.293L.879,19.121A3,3,0,0,0,3,20Zm-.707-.293A1,1,0,0,1,2,17H0a3,3,0,0,0,.879,2.121ZM2,17V3H0V17ZM2,3a1,1,0,0,1,.293-.707L.879.879A3,3,0,0,0,0,3Zm.293-.707A1,1,0,0,1,3,2V0A3,3,0,0,0,.879.879ZM3,2H14V0H3Z" fill="#09090b"/>
</svg>
