<svg id="square-arrow-right" xmlns="http://www.w3.org/2000/svg" width="20" height="20" viewBox="0 0 20 20">
  <path id="Vector" d="M6,9a1,1,0,0,0,0,2Zm8,1,.707.707a1,1,0,0,0,0-1.414ZM9.293,13.293a1,1,0,0,0,1.414,1.414Zm1.414-8A1,1,0,0,0,9.293,6.707ZM3,2H17V0H3ZM17,2a1,1,0,0,1,1,1h2a3,3,0,0,0-3-3Zm1,1V17h2V3Zm0,14a1,1,0,0,1-1,1v2a3,3,0,0,0,3-3Zm-1,1H3v2H17ZM3,18a1,1,0,0,1-1-1H0a3,3,0,0,0,3,3ZM2,17V3H0V17ZM2,3A1,1,0,0,1,3,2V0A3,3,0,0,0,0,3Zm4,8h8V9H6Zm4.707,3.707,4-4L13.293,9.293l-4,4Zm4-5.414-4-4L9.293,6.707l4,4Z" fill="#09090b"/>
</svg>
