<svg id="square-arrow-down" xmlns="http://www.w3.org/2000/svg" width="20" height="20" viewBox="0 0 20 20">
  <path id="Vector" d="M11,6A1,1,0,0,0,9,6Zm-1,8-.707.707a1,1,0,0,0,1.414,0ZM6.707,9.293a1,1,0,0,0-1.414,1.414Zm8,1.414a1,1,0,0,0-1.414-1.414ZM3,2H17V0H3ZM17,2a1,1,0,0,1,1,1h2a3,3,0,0,0-3-3Zm1,1V17h2V3Zm0,14a1,1,0,0,1-1,1v2a3,3,0,0,0,3-3Zm-1,1H3v2H17ZM3,18a1,1,0,0,1-1-1H0a3,3,0,0,0,3,3ZM2,17V3H0V17ZM2,3A1,1,0,0,1,3,2V0A3,3,0,0,0,0,3ZM9,6v8h2V6ZM5.293,10.707l4,4,1.414-1.414-4-4Zm5.414,4,4-4L13.293,9.293l-4,4Z" fill="#09090b"/>
</svg>
