<svg id="square-pilcrow" xmlns="http://www.w3.org/2000/svg" width="20" height="20" viewBox="0 0 20 20">
  <path id="Vector" d="M10,11a1,1,0,0,0,0-2ZM7.5,10v0ZM5,7.5H5ZM15,6a1,1,0,0,0,0-2ZM11,5A1,1,0,0,0,9,5ZM9,15a1,1,0,0,0,2,0ZM15,5a1,1,0,0,0-2,0ZM13,15a1,1,0,0,0,2,0ZM3,2H17V0H3ZM17,2a1,1,0,0,1,1,1h2a3,3,0,0,0-3-3Zm1,1V17h2V3Zm0,14a1,1,0,0,1-1,1v2a3,3,0,0,0,3-3Zm-1,1H3v2H17ZM3,18a1,1,0,0,1-1-1H0a3,3,0,0,0,3,3ZM2,17V3H0V17ZM2,3A1,1,0,0,1,3,2V0A3,3,0,0,0,0,3Zm8,6H7.5v2H10ZM7.5,9a1.5,1.5,0,0,1-1.061-.439L5.025,9.975A3.5,3.5,0,0,0,7.5,11ZM6.439,8.561A1.5,1.5,0,0,1,6,7.5H4A3.5,3.5,0,0,0,5.025,9.975ZM6,7.5a1.5,1.5,0,0,1,.439-1.061L5.025,5.025A3.5,3.5,0,0,0,4,7.5Zm.439-1.061A1.5,1.5,0,0,1,7.5,6V4A3.5,3.5,0,0,0,5.025,5.025ZM7.5,6H15V4H7.5ZM9,5V15h2V5Zm4,0V15h2V5Z" fill="#09090b"/>
</svg>
