<svg id="square-dashed-kanban" xmlns="http://www.w3.org/2000/svg" width="20" height="20" viewBox="0 0 20 20">
  <path id="Vector" d="M7,5A1,1,0,0,0,5,5ZM5,12a1,1,0,0,0,2,0Zm6-7A1,1,0,0,0,9,5ZM9,9a1,1,0,0,0,2,0Zm6-4a1,1,0,0,0-2,0Zm-2,9a1,1,0,0,0,2,0ZM3,2A1,1,0,0,0,3,0ZM0,3A1,1,0,0,0,2,3ZM7,0A1,1,0,0,0,7,2ZM8,2A1,1,0,0,0,8,0Zm4-2a1,1,0,0,0,0,2Zm1,2a1,1,0,0,0,0-2Zm4-2a1,1,0,0,0,0,2Zm1,3a1,1,0,0,0,2,0Zm2,4a1,1,0,0,0-2,0ZM18,8a1,1,0,0,0,2,0Zm2,4a1,1,0,0,0-2,0Zm-2,1a1,1,0,0,0,2,0Zm2,4a1,1,0,0,0-2,0Zm-3,1a1,1,0,0,0,0,2Zm-5,0a1,1,0,0,0,0,2Zm1,2a1,1,0,0,0,0-2ZM7,18a1,1,0,0,0,0,2Zm1,2a1,1,0,0,0,0-2ZM3,20a1,1,0,0,0,0-2ZM2,17a1,1,0,0,0-2,0Zm0-5a1,1,0,0,0-2,0ZM0,13a1,1,0,0,0,2,0ZM2,7A1,1,0,0,0,0,7ZM0,8A1,1,0,0,0,2,8ZM5,5v7H7V5ZM9,5V9h2V5Zm4,0v9h2V5ZM3,0A3,3,0,0,0,.879.879L2.293,2.293A1,1,0,0,1,3,2ZM.879.879A3,3,0,0,0,0,3H2a1,1,0,0,1,.293-.707ZM7,2H8V0H7Zm5,0h1V0H12Zm5,0a1,1,0,0,1,.707.293L19.121.879A3,3,0,0,0,17,0Zm.707.293A1,1,0,0,1,18,3h2A3,3,0,0,0,19.121.879ZM18,7V8h2V7Zm0,5v1h2V12Zm0,5a1,1,0,0,1-.293.707l1.414,1.414A3,3,0,0,0,20,17Zm-.293.707A1,1,0,0,1,17,18v2a3,3,0,0,0,2.121-.879ZM12,20h1V18H12ZM7,20H8V18H7ZM3,18a1,1,0,0,1-.707-.293L.879,19.121A3,3,0,0,0,3,20Zm-.707-.293A1,1,0,0,1,2,17H0a3,3,0,0,0,.879,2.121ZM0,12v1H2V12ZM0,7V8H2V7Z" fill="#09090b"/>
</svg>
