<svg id="square-scissors" xmlns="http://www.w3.org/2000/svg" width="22" height="22" viewBox="0 0 22 22">
  <path id="Vector" d="M9.121,7.707A1,1,0,0,0,7.707,9.121Zm1.172,4a1,1,0,0,0,1.414-1.414Zm4.214,1.386a1,1,0,1,0-1.414,1.414Zm1.786,4.614a1,1,0,0,0,1.414-1.414Zm1.414-12a1,1,0,1,0-1.414-1.414Zm-10,7.172a1,1,0,0,0,1.414,1.414ZM3,2H19V0H3ZM19,2a1,1,0,0,1,1,1h2a3,3,0,0,0-3-3Zm1,1V19h2V3Zm0,16a1,1,0,0,1-1,1v2a3,3,0,0,0,3-3Zm-1,1H3v2H19ZM3,20a1,1,0,0,1-1-1H0a3,3,0,0,0,3,3ZM2,19V3H0V19ZM2,3A1,1,0,0,1,3,2V0A3,3,0,0,0,0,3ZM8,7A1,1,0,0,1,7,8v2a3,3,0,0,0,3-3ZM7,8A1,1,0,0,1,6,7H4a3,3,0,0,0,3,3ZM6,7A1,1,0,0,1,7,6V4A3,3,0,0,0,4,7ZM7,6A1,1,0,0,1,8,7h2A3,3,0,0,0,7,4Zm.707,3.121,2.586,2.586,1.414-1.414L9.121,7.707Zm5.386,5.386,3.2,3.2,1.414-1.414-3.2-3.2ZM8,15a1,1,0,0,1-1,1v2a3,3,0,0,0,3-3ZM7,16a1,1,0,0,1-1-1H4a3,3,0,0,0,3,3ZM6,15a1,1,0,0,1,1-1V12a3,3,0,0,0-3,3Zm1-1a1,1,0,0,1,1,1h2a3,3,0,0,0-3-3Zm9.293-9.707L7.707,12.879l1.414,1.414,8.586-8.586Z" fill="#09090b"/>
</svg>
