<svg id="square-divide" xmlns="http://www.w3.org/2000/svg" width="18" height="18" viewBox="0 0 18 18">
  <g id="Vector">
    <path id="Vector_path_1_" data-name="Vector (path 1)" d="M16,0H2A2,2,0,0,0,0,2V16a2,2,0,0,0,2,2H16a2,2,0,0,0,2-2V2A2,2,0,0,0,16,0Z" fill="rgba(0,0,0,0)"/>
    <path id="Vector_path_2_" data-name="Vector (path 2)" d="M2,1A1,1,0,1,1,1,0,1,1,0,0,1,2,1Z" transform="translate(8 12)" fill="#09090b"/>
    <path id="Vector_path_3_" data-name="Vector (path 3)" d="M2,1A1,1,0,1,1,1,0,1,1,0,0,1,2,1Z" transform="translate(8 4)" fill="#09090b"/>
  </g>
</svg>
