<svg id="square-sigma" xmlns="http://www.w3.org/2000/svg" width="20" height="20" viewBox="0 0 20 20">
  <path id="Vector" d="M13,6.9a1,1,0,0,0,2,0ZM14,5h1a1,1,0,0,0-1-1ZM6,5V4a1,1,0,0,0-.781,1.625Zm4,5,.781.625a1,1,0,0,0,0-1.249ZM6,15l-.781-.625A1,1,0,0,0,6,16Zm8,0v1a1,1,0,0,0,1-1Zm1-1.9a1,1,0,0,0-2,0ZM3,2H17V0H3ZM17,2a1,1,0,0,1,1,1h2a3,3,0,0,0-3-3Zm1,1V17h2V3Zm0,14a1,1,0,0,1-1,1v2a3,3,0,0,0,3-3Zm-1,1H3v2H17ZM3,18a1,1,0,0,1-1-1H0a3,3,0,0,0,3,3ZM2,17V3H0V17ZM2,3A1,1,0,0,1,3,2V0A3,3,0,0,0,0,3ZM15,6.9V5H13V6.9ZM14,4H6V6h8ZM5.219,5.625l4,5,1.562-1.249-4-5Zm4,3.751-4,5,1.562,1.249,4-5ZM6,16h8V14H6Zm9-1V13.1H13V15Z" fill="#09090b"/>
</svg>
