<svg id="square-power" xmlns="http://www.w3.org/2000/svg" width="20" height="20" viewBox="0 0 20 20">
  <path id="Vector" d="M11,5A1,1,0,0,0,9,5ZM9,10a1,1,0,0,0,2,0ZM6.83,7.558A1,1,0,1,0,5.17,6.442ZM10,15l-.052,1h.031Zm4.787-8.616a1,1,0,1,0-1.575,1.233ZM3,2H17V0H3ZM17,2a1,1,0,0,1,1,1h2a3,3,0,0,0-3-3Zm1,1V17h2V3Zm0,14a1,1,0,0,1-1,1v2a3,3,0,0,0,3-3Zm-1,1H3v2H17ZM3,18a1,1,0,0,1-1-1H0a3,3,0,0,0,3,3ZM2,17V3H0V17ZM2,3A1,1,0,0,1,3,2V0A3,3,0,0,0,0,3ZM9,5v5h2V5ZM5.17,6.442A6.14,6.14,0,0,0,4.139,9.474l2,.128a4.14,4.14,0,0,1,.7-2.044ZM4.139,9.474a6.14,6.14,0,0,0,.636,3.139l1.789-.894A4.14,4.14,0,0,1,6.135,9.6Zm.636,3.139A6.14,6.14,0,0,0,6.9,15L8,13.331a4.139,4.139,0,0,1-1.436-1.613ZM6.9,15A6.14,6.14,0,0,0,9.948,16l.1-2A4.139,4.139,0,0,1,8,13.331Zm3.075,1a5.95,5.95,0,0,0,3.2-.855l-1.034-1.712A3.951,3.951,0,0,1,10.021,14Zm3.2-.855a5.95,5.95,0,0,0,2.246-2.432l-1.789-.894a3.95,3.95,0,0,1-1.491,1.615Zm2.246-2.432a5.951,5.951,0,0,0,.6-3.256l-1.99.2a3.949,3.949,0,0,1-.4,2.162Zm.6-3.256a5.951,5.951,0,0,0-1.235-3.072L13.213,7.616a3.95,3.95,0,0,1,.82,2.039Z" fill="#09090b"/>
</svg>
