<svg id="square-function" xmlns="http://www.w3.org/2000/svg" width="20" height="20" viewBox="0 0 20 20">
  <path id="Vector" d="M7,14a1,1,0,0,0,0,2Zm5.865-8.009a1,1,0,0,0,.27-1.982ZM7,8.2a1,1,0,1,0,0,2Zm5.7,2a1,1,0,1,0,0-2ZM3,2H17V0H3ZM17,2a1,1,0,0,1,1,1h2a3,3,0,0,0-3-3Zm1,1V17h2V3Zm0,14a1,1,0,0,1-1,1v2a3,3,0,0,0,3-3Zm-1,1H3v2H17ZM3,18a1,1,0,0,1-1-1H0a3,3,0,0,0,3,3ZM2,17V3H0V17ZM2,3A1,1,0,0,1,3,2V0A3,3,0,0,0,0,3ZM7,16a3.8,3.8,0,0,0,2.876-1.037A3.892,3.892,0,0,0,10.8,12.2h-2a1.959,1.959,0,0,1-.376,1.387A1.866,1.866,0,0,1,7,14Zm3.8-3.8V8h-2v4.2Zm0-4.2a2.342,2.342,0,0,1,.49-1.664,1.732,1.732,0,0,1,1.575-.345l.27-1.982a3.693,3.693,0,0,0-3.275.93A4.286,4.286,0,0,0,8.8,8ZM7,10.2h5.7v-2H7Z" fill="#09090b"/>
</svg>
