<svg id="square-radical" xmlns="http://www.w3.org/2000/svg" width="20" height="20" viewBox="0 0 20 20">
  <path id="Vector" d="M5,9a1,1,0,0,0,0,2Zm2,1,.928-.371A1,1,0,0,0,7,9Zm2,5-.928.371A1,1,0,0,0,9.981,15.2ZM11,5V4a1,1,0,0,0-.981.8Zm4,1a1,1,0,0,0,0-2ZM5,11H7V9H5Zm1.072-.629,2,5,1.857-.743-2-5ZM9.981,15.2l2-10L10.019,4.8l-2,10ZM11,6h4V4H11ZM3,2H17V0H3ZM17,2a1,1,0,0,1,1,1h2a3,3,0,0,0-3-3Zm1,1V17h2V3Zm0,14a1,1,0,0,1-1,1v2a3,3,0,0,0,3-3Zm-1,1H3v2H17ZM3,18a1,1,0,0,1-1-1H0a3,3,0,0,0,3,3ZM2,17V3H0V17ZM2,3A1,1,0,0,1,3,2V0A3,3,0,0,0,0,3Z" fill="#09090b"/>
</svg>
