<svg id="square-arrow-out-down-left" xmlns="http://www.w3.org/2000/svg" width="20" height="20" viewBox="0 0 20 20">
  <path id="Vector" d="M11,18a1,1,0,0,0,0,2ZM17,1V1ZM3,1V1ZM1,3H1ZM0,9A1,1,0,0,0,2,9ZM1,19H0a1,1,0,0,0,1,1Zm9.707-8.293A1,1,0,0,0,9.293,9.293ZM7,20a1,1,0,0,0,0-2ZM2,13a1,1,0,0,0-2,0Zm9,7h6V18H11Zm6,0a3,3,0,0,0,2.121-.879l-1.414-1.414A1,1,0,0,1,17,18Zm2.121-.879A3,3,0,0,0,20,17H18a1,1,0,0,1-.293.707ZM20,17V3H18V17ZM20,3A3,3,0,0,0,19.121.879L17.707,2.293A1,1,0,0,1,18,3ZM19.121.879A3,3,0,0,0,17,0V2a1,1,0,0,1,.707.293ZM17,0H3V2H17ZM3,0A3,3,0,0,0,.879.879L2.293,2.293A1,1,0,0,1,3,2ZM.879.879A3,3,0,0,0,0,3H2a1,1,0,0,1,.293-.707ZM0,3V9H2V3ZM1.707,19.707l9-9L9.293,9.293l-9,9ZM7,18H1v2H7ZM2,19V13H0v6Z" fill="#09090b"/>
</svg>
