<svg id="square-pen" xmlns="http://www.w3.org/2000/svg" width="20.996" height="20.996" viewBox="0 0 20.996 20.996">
  <path id="Vector" d="M10,3a1,1,0,0,0,0-2ZM3,2V2ZM1,4H1ZM1,18H1Zm19-7a1,1,0,0,0-2,0ZM16.375,1.621,15.668.914h0ZM17.875,1V1ZM20,3.121h0Zm-.621,1.5-.707-.707h0Zm-9.013,9.014.707.707h0Zm-.853.505-.28-.96h0Zm-2.873.84.28.96h0Zm-.62-.62-.96-.281h0Zm.84-2.873L5.9,11.206h0Zm.506-.852.707.708h0ZM10,1H3V3h7ZM3,1a3,3,0,0,0-2.121.879L2.293,3.289A1,1,0,0,1,3,3ZM.879,1.875A3,3,0,0,0,0,4H2a1,1,0,0,1,.293-.707ZM0,4V18H2V4ZM0,18a3,3,0,0,0,.879,2.121L2.293,18.7A1,1,0,0,1,2,18Zm.879,2.121A3,3,0,0,0,3,21V19a1,1,0,0,1-.707-.293ZM3,21H17V19H3Zm14,0a3,3,0,0,0,2.121-.879L17.707,18.7A1,1,0,0,1,17,19Zm2.121-.879A3,3,0,0,0,20,18H18a1,1,0,0,1-.293.707ZM20,18V11H18v7ZM17.082,2.328A1.121,1.121,0,0,1,17.875,2V0a3.121,3.121,0,0,0-2.207.914ZM17.875,2a1.121,1.121,0,0,1,.793.328L20.082.914A3.121,3.121,0,0,0,17.875,0Zm.793.328A1.121,1.121,0,0,1,19,3.121h2A3.121,3.121,0,0,0,20.082.914ZM19,3.121a1.121,1.121,0,0,1-.328.793l1.414,1.414A3.121,3.121,0,0,0,21,3.121Zm-.329.793L9.655,12.928l1.414,1.414,9.013-9.014ZM9.655,12.928a1,1,0,0,1-.427.252l.561,1.92a3,3,0,0,0,1.28-.757Zm-.427.253-2.873.84.561,1.92L9.79,15.1Zm-2.872.84a.5.5,0,0,1,.264,0l-.5,1.937a1.5,1.5,0,0,0,.792-.013Zm.264,0a.5.5,0,0,1,.229.131L5.435,15.561a1.5,1.5,0,0,0,.688.392Zm.229.131a.5.5,0,0,1,.131.229l-1.937.5a1.5,1.5,0,0,0,.392.688Zm.131.229a.5.5,0,0,1,0,.264l-1.92-.56a1.5,1.5,0,0,0-.013.792Zm0,.265.84-2.873L5.9,11.207l-.84,2.873Zm.84-2.872a1,1,0,0,1,.253-.426L6.656,9.928A3,3,0,0,0,5.9,11.206Zm.254-.427,9.013-9.014L15.668.914,6.655,9.928Z" transform="translate(0 0)" fill="#09090b"/>
</svg>
