<svg id="square-check" xmlns="http://www.w3.org/2000/svg" width="20" height="20" viewBox="0 0 20 20">
  <path id="Vector" d="M7.707,9.293a1,1,0,0,0-1.414,1.414ZM9,12l-.707.707a1,1,0,0,0,1.414,0Zm4.707-3.293a1,1,0,1,0-1.414-1.414ZM3,2H17V0H3ZM17,2a1,1,0,0,1,1,1h2a3,3,0,0,0-3-3Zm1,1V17h2V3Zm0,14a1,1,0,0,1-1,1v2a3,3,0,0,0,3-3Zm-1,1H3v2H17ZM3,18a1,1,0,0,1-1-1H0a3,3,0,0,0,3,3ZM2,17V3H0V17ZM2,3A1,1,0,0,1,3,2V0A3,3,0,0,0,0,3Zm4.293,7.707,2,2,1.414-1.414-2-2Zm3.414,2,4-4L12.293,7.293l-4,4Z" fill="#09090b"/>
</svg>
