<svg id="squircle" xmlns="http://www.w3.org/2000/svg" width="20" height="20" viewBox="0 0 20 20">
  <path id="Vector" d="M10,2c3.607,0,5.461.475,6.493,1.507S18,6.393,18,10h2c0-3.593-.425-6.239-2.093-7.907S13.593,0,10,0Zm8,8c0,3.607-.475,5.461-1.507,6.493S13.607,18,10,18v2c3.593,0,6.239-.425,7.907-2.093S20,13.593,20,10Zm-8,8c-3.607,0-5.461-.475-6.493-1.507S2,13.607,2,10H0c0,3.593.425,6.239,2.093,7.907S6.407,20,10,20ZM2,10c0-3.607.475-5.461,1.507-6.493S6.393,2,10,2V0C6.407,0,3.761.425,2.093,2.093S0,6.407,0,10Z" transform="translate(0 0)" fill="#09090b"/>
</svg>
