<svg id="squirrel" xmlns="http://www.w3.org/2000/svg" width="22" height="22" viewBox="0 0 22 22">
  <path id="Vector" d="M13.491,20.333a1,1,0,1,0,1.491,1.333ZM12.048,15a1,1,0,1,0-.024,2ZM14,19a1,1,0,0,0,2,0Zm4-3v0ZM17,8H16a1,1,0,0,0,1,1Zm1-5a1,1,0,0,0-2,0Zm-1,8a1,1,0,0,0,0,2Zm.01,2a1,1,0,0,0,0-2ZM17,6a1,1,0,0,0,0-2ZM13,9v1a1,1,0,0,0,1-1ZM5,16a1,1,0,0,0,2,0ZM10,5.5h0ZM5.5,1V1ZM1,5.5H1Zm6,0a1,1,0,0,0-2,0ZM17,22a1,1,0,0,0,0-2Zm-2.019-.333a4,4,0,0,0,.969-2.039l-1.975-.314a2,2,0,0,1-.485,1.02Zm.969-2.039a4,4,0,0,0-.289-2.239l-1.831.806a2,2,0,0,1,.145,1.119Zm-.289-2.239a4,4,0,0,0-1.455-1.726l-1.1,1.668a2,2,0,0,1,.728.863Zm-1.455-1.726A4,4,0,0,0,12.048,15l-.024,2a2,2,0,0,1,1.079.331ZM16,19a2,2,0,0,1,.586-1.414l-1.414-1.414A4,4,0,0,0,14,19Zm.586-1.414A2,2,0,0,1,18,17V15a4,4,0,0,0-2.828,1.172ZM18,17h1V15H18Zm1,0a3,3,0,0,0,2.121-.879l-1.414-1.414A1,1,0,0,1,19,15Zm2.121-.879A3,3,0,0,0,22,14H20a1,1,0,0,1-.293.707ZM22,14V12H20v2Zm0-2a5,5,0,0,0-1.465-3.536L19.121,9.879A3,3,0,0,1,20,12ZM20.535,8.464A5,5,0,0,0,17,7V9a3,3,0,0,1,2.121.879ZM18,8V3H16V8Zm-1,5h.01V11H17Zm0-9a5,5,0,0,0-3.535,1.464l1.414,1.414A3,3,0,0,1,17,6ZM13.465,5.464A5,5,0,0,0,12,9h2a3,3,0,0,1,.879-2.121ZM13,8a8,8,0,0,0-5.657,2.343l1.414,1.414A6,6,0,0,1,13,10ZM7.343,10.343A8,8,0,0,0,5,16H7a6,6,0,0,1,1.757-4.243ZM7,16a6.452,6.452,0,0,1,1.8-4.457A11.533,11.533,0,0,0,10.29,9.161,8.861,8.861,0,0,0,11,5.5H9a6.872,6.872,0,0,1-.54,2.855A9.626,9.626,0,0,1,7.2,10.331,8.383,8.383,0,0,0,5,16ZM11,5.5a5.5,5.5,0,0,0-.419-2.1l-1.848.765A3.5,3.5,0,0,1,9,5.5Zm-.419-2.1A5.5,5.5,0,0,0,9.389,1.611L7.975,3.025a3.5,3.5,0,0,1,.759,1.135ZM9.389,1.611A5.5,5.5,0,0,0,7.6.419L6.839,2.266a3.5,3.5,0,0,1,1.135.759ZM7.6.419A5.5,5.5,0,0,0,5.5,0V2a3.5,3.5,0,0,1,1.339.266ZM5.5,0A5.5,5.5,0,0,0,3.4.419l.765,1.848A3.5,3.5,0,0,1,5.5,2ZM3.4.419A5.5,5.5,0,0,0,1.611,1.611L3.025,3.025a3.5,3.5,0,0,1,1.135-.759ZM1.611,1.611A5.5,5.5,0,0,0,.419,3.4l1.848.765a3.5,3.5,0,0,1,.759-1.135ZM.419,3.4A5.5,5.5,0,0,0,0,5.5H2a3.5,3.5,0,0,1,.266-1.339ZM0,5.5A3.5,3.5,0,0,0,1.025,7.975L2.439,6.561A1.5,1.5,0,0,1,2,5.5ZM1.025,7.975A3.5,3.5,0,0,0,3.5,9V7a1.5,1.5,0,0,1-1.061-.439ZM3.5,9A3.5,3.5,0,0,0,5.975,7.975L4.561,6.561A1.5,1.5,0,0,1,3.5,7ZM5.975,7.975A3.5,3.5,0,0,0,7,5.5H5a1.5,1.5,0,0,1-.439,1.061ZM5,5.5c0,1.357-.728,2.17-1.821,3.741A10.93,10.93,0,0,0,1,16H3a8.949,8.949,0,0,1,1.821-5.616C5.728,9.08,7,7.643,7,5.5ZM1,16a5.951,5.951,0,0,0,6,6V20a3.952,3.952,0,0,1-4-4Zm6,6H17V20H7Z" fill="#09090b"/>
</svg>
