<svg id="stamp" xmlns="http://www.w3.org/2000/svg" width="18" height="22" viewBox="0 0 18 22">
  <path id="Vector" d="M2,20a1,1,0,0,0,0,2Zm14,2a1,1,0,0,0,0-2Zm.27-9.27.707-.707h0ZM14.5,12v1h0ZM1,14.5H1ZM10,12a1,1,0,0,0,2,0ZM6,12a1,1,0,0,0,2,0ZM2,22H16V20H2Zm14.976-9.978a3.5,3.5,0,0,0-1.137-.758l-.762,1.849a1.5,1.5,0,0,1,.487.325Zm-1.137-.758A3.5,3.5,0,0,0,14.5,11l0,2a1.5,1.5,0,0,1,.575.113ZM14.5,11H3.5v2h11Zm-11,0a3.5,3.5,0,0,0-2.475,1.025l1.414,1.414A1.5,1.5,0,0,1,3.5,13ZM1.025,12.025A3.5,3.5,0,0,0,0,14.5H2a1.5,1.5,0,0,1,.439-1.061ZM0,14.5V16H2V14.5ZM0,16a2,2,0,0,0,.586,1.414L2,16H0Zm.586,1.414A2,2,0,0,0,2,18V16H2ZM2,18H16V16H2Zm14,0a2,2,0,0,0,1.414-.586L16,16h0Zm1.414-.586A2,2,0,0,0,18,16H16ZM18,16V14.5H16V16Zm0-1.5a3.505,3.505,0,0,0-1.023-2.477l-1.414,1.414A1.506,1.506,0,0,1,16,14.5ZM12,12V7.5H10V12Zm0-4.5a1.781,1.781,0,0,1,.368-1.066A4.439,4.439,0,0,0,13,4H11a2.468,2.468,0,0,1-.368,1.441A3.687,3.687,0,0,0,10,7.5ZM13,4a4,4,0,0,0-1.172-2.828L10.414,2.586A2,2,0,0,1,11,4ZM11.828,1.172A4,4,0,0,0,9,0V2a2,2,0,0,1,1.414.586ZM9,0A4.077,4.077,0,0,0,6.2,1.015,3.935,3.935,0,0,0,5,4H7a1.951,1.951,0,0,1,.555-1.515A2.089,2.089,0,0,1,9,2ZM5,4a4.44,4.44,0,0,0,.632,2.434A1.781,1.781,0,0,1,6,7.5H8a3.687,3.687,0,0,0-.632-2.059A2.468,2.468,0,0,1,7,4ZM6,7.5V12H8V7.5Z" fill="#09090b"/>
</svg>
