<svg id="stethoscope" xmlns="http://www.w3.org/2000/svg" width="22" height="22.017" viewBox="0 0 22 22.017">
  <path id="Vector" d="M4.8,1.26a1,1,0,0,0-2,.113ZM4,1.017v1a1,1,0,0,0,.332-.057Zm-1,0v0Zm-2,2H1Zm0,5H1Zm12,0h0Zm-2-7v0Zm-1,0v-1A1,1,0,0,0,9.293.31Zm-.062.15h0Zm.212.212v0Zm.857.645A1,1,0,0,0,9.593.61ZM2.8,1.374a1.3,1.3,0,0,0,.288.745L4.643.859a.7.7,0,0,1,.155.4Zm.288.745a1.3,1.3,0,0,0,.669.436L4.283.625a.7.7,0,0,1,.36.235Zm.669.436a1.3,1.3,0,0,0,.8-.037L3.854.645a.7.7,0,0,1,.429-.02Zm.8-.037a1.3,1.3,0,0,0,.625-.5L3.517.912A.7.7,0,0,1,3.854.645Zm.625-.5A1.3,1.3,0,0,0,5.4,1.253l-2,.072A.7.7,0,0,1,3.517.912ZM5.4,1.253A1.3,1.3,0,0,0,5.126.5L3.547,1.729a.7.7,0,0,1-.147-.4ZM5.126.5a1.3,1.3,0,0,0-.66-.45L3.9,1.972a.7.7,0,0,1-.355-.242Zm-.66-.45a1.3,1.3,0,0,0-.8.021L4.332,1.96a.7.7,0,0,1-.43.011ZM4,.017H3v2H4Zm-1,0A3,3,0,0,0,.879.9L2.293,2.31A1,1,0,0,1,3,2.017ZM.879.9A3,3,0,0,0,0,3.017H2a1,1,0,0,1,.293-.707ZM0,3.017v5H2v-5Zm0,5a7,7,0,0,0,2.05,4.95l1.414-1.414A5,5,0,0,1,2,8.017Zm2.05,4.95A7,7,0,0,0,7,15.017v-2a5,5,0,0,1-3.536-1.464ZM7,15.017a7,7,0,0,0,4.95-2.05l-1.414-1.414A5,5,0,0,1,7,13.017Zm4.95-2.05A7,7,0,0,0,14,8.017H12a5,5,0,0,1-1.464,3.536ZM14,8.017v-5H12v5Zm0-5A3,3,0,0,0,13.121.9L11.707,2.31A1,1,0,0,1,12,3.017ZM13.121.9A3,3,0,0,0,11,.017v2a1,1,0,0,1,.707.293ZM11,.017H10v2h1ZM9.293.31A1.212,1.212,0,0,0,9.03.7l1.848.765a.788.788,0,0,1-.171.256ZM9.03.7a1.212,1.212,0,0,0-.092.464h2a.788.788,0,0,1-.06.3Zm-.092.464a1.212,1.212,0,0,0,.092.464L10.878.865a.788.788,0,0,1,.06.3Zm.092.464a1.212,1.212,0,0,0,.263.393L10.707.61a.788.788,0,0,1,.171.256Zm.263.393a1.212,1.212,0,0,0,.393.263L10.451.439a.788.788,0,0,1,.256.171Zm.393.263a1.212,1.212,0,0,0,.464.092v-2a.788.788,0,0,1,.3.06Zm.464.092a1.212,1.212,0,0,0,.464-.092L9.848.439a.788.788,0,0,1,.3-.06Zm.464-.092a1.212,1.212,0,0,0,.393-.263L9.593.61A.788.788,0,0,1,9.848.439ZM6,14.017v1H8v-1Zm0,1a7,7,0,0,0,2.05,4.95l1.414-1.414A5,5,0,0,1,8,15.017Zm2.05,4.95A7,7,0,0,0,13,22.017v-2a5,5,0,0,1-3.536-1.465ZM13,22.017a7,7,0,0,0,4.95-2.05l-1.414-1.414A5,5,0,0,1,13,20.017Zm4.95-2.05A7,7,0,0,0,20,15.017H18a5,5,0,0,1-1.465,3.535ZM20,15.017v-4H18v4Zm0-6a1,1,0,0,1-1,1v2a3,3,0,0,0,3-3Zm-1,1a1,1,0,0,1-1-1H16a3,3,0,0,0,3,3Zm-1-1a1,1,0,0,1,1-1v-2a3,3,0,0,0-3,3Zm1-1a1,1,0,0,1,1,1h2a3,3,0,0,0-3-3Z" transform="translate(0 0)" fill="#09090b"/>
</svg>
