<svg id="sticker" xmlns="http://www.w3.org/2000/svg" width="20" height="20" viewBox="0 0 20 20">
  <path id="Vector" d="M13.5,1l.707-.707A1,1,0,0,0,13.5,0ZM3,1V1ZM1,3H1ZM19,6.5h1a1,1,0,0,0-.293-.707ZM13,1a1,1,0,0,0-2,0Zm5,7a1,1,0,0,0,0-2ZM6,10a1,1,0,0,0,0,2Zm.01,2a1,1,0,0,0,0-2ZM14,10a1,1,0,0,0,0,2Zm.01,2a1,1,0,0,0,0-2ZM8.781,13.375a1,1,0,1,0-1.562,1.249Zm4.038,1.2a1,1,0,1,0-1.638-1.147ZM13.5,0H3V2H13.5ZM3,0A3,3,0,0,0,.879.879L2.293,2.293A1,1,0,0,1,3,2ZM.879.879A3,3,0,0,0,0,3H2a1,1,0,0,1,.293-.707ZM0,3V17H2V3ZM0,17a3.006,3.006,0,0,0,3,3V18a1.006,1.006,0,0,1-1-1Zm3,3H17V18H3Zm14,0a3,3,0,0,0,2.121-.879l-1.414-1.414A1,1,0,0,1,17,18Zm2.121-.879A3,3,0,0,0,20,17H18a1,1,0,0,1-.293.707ZM20,17V6.5H18V17ZM19.707,5.793l-5.5-5.5L12.793,1.707l5.5,5.5ZM11,1V5h2V1Zm0,4a3,3,0,0,0,.879,2.121l1.414-1.414A1,1,0,0,1,13,5Zm.879,2.121A3,3,0,0,0,14,8V6a1,1,0,0,1-.707-.293ZM14,8h4V6H14ZM6,12h.01V10H6Zm8,0h.01V10H14ZM8,14l-.78.625h0l0,0,.005.007.015.018.045.052c.036.041.086.095.149.157a4.253,4.253,0,0,0,.532.45A3.511,3.511,0,0,0,10,16V14a1.519,1.519,0,0,1-.869-.314,2.265,2.265,0,0,1-.28-.237c-.031-.031-.053-.055-.066-.069l-.01-.012h0l0,0v0h0L8,14Zm2,2a3.477,3.477,0,0,0,2.083-.7,3.725,3.725,0,0,0,.525-.472c.061-.066.108-.123.144-.168l.043-.056.015-.02.006-.008,0,0v0h0s0,0-.819-.574l-.819-.574h0l0,0,0,0,0,0-.005.007c-.008.01-.025.031-.051.059a1.711,1.711,0,0,1-.241.216A1.478,1.478,0,0,1,10,14Z" fill="#09090b"/>
</svg>
