<svg id="sticky-note" xmlns="http://www.w3.org/2000/svg" width="20" height="20" viewBox="0 0 20 20">
  <path id="Vector" d="M14,1l.707-.707A1,1,0,0,0,14,0ZM3,1V1ZM1,3H1ZM1,17H1ZM19,6h1a1,1,0,0,0-.293-.707ZM14,1a1,1,0,0,0-2,0Zm5,7a1,1,0,0,0,0-2ZM14,0H3V2H14ZM3,0A3,3,0,0,0,.879.879L2.293,2.293A1,1,0,0,1,3,2ZM.879.879A3,3,0,0,0,0,3H2a1,1,0,0,1,.293-.707ZM0,3V17H2V3ZM0,17a3,3,0,0,0,.879,2.121l1.414-1.414A1,1,0,0,1,2,17Zm.879,2.121A3,3,0,0,0,3,20V18a1,1,0,0,1-.707-.293ZM3,20H17V18H3Zm14,0a3,3,0,0,0,2.121-.879l-1.414-1.414A1,1,0,0,1,17,18Zm2.121-.879A3,3,0,0,0,20,17H18a1,1,0,0,1-.293.707ZM20,17V6H18V17ZM19.707,5.293l-5-5L13.293,1.707l5,5ZM12,1V5h2V1Zm0,4a3,3,0,0,0,.879,2.121l1.414-1.414A1,1,0,0,1,14,5Zm.879,2.121A3,3,0,0,0,15,8V6a1,1,0,0,1-.707-.293ZM15,8h4V6H15Z" fill="#09090b"/>
</svg>
