<svg id="stretch-horizontal" xmlns="http://www.w3.org/2000/svg" width="22" height="18" viewBox="0 0 22 18">
  <path id="Vector" d="M3,2H19V0H3ZM19,2a1,1,0,0,1,1,1h2a3,3,0,0,0-3-3Zm1,1V5h2V3Zm0,2a1,1,0,0,1-1,1V8a3,3,0,0,0,3-3ZM19,6H3V8H19ZM3,6A1,1,0,0,1,2,5H0A3,3,0,0,0,3,8ZM2,5V3H0V5ZM2,3A1,1,0,0,1,3,2V0A3,3,0,0,0,0,3Zm1,9H19V10H3Zm16,0a1,1,0,0,1,1,1h2a3,3,0,0,0-3-3Zm1,1v2h2V13Zm0,2a1,1,0,0,1-1,1v2a3,3,0,0,0,3-3Zm-1,1H3v2H19ZM3,16a1,1,0,0,1-1-1H0a3,3,0,0,0,3,3ZM2,15V13H0v2Zm0-2a1,1,0,0,1,1-1V10a3,3,0,0,0-3,3Z" fill="#09090b"/>
</svg>
