<svg id="sun-dim" xmlns="http://www.w3.org/2000/svg" width="18.01" height="18" viewBox="0 0 18.01 18">
  <path id="Vector" d="M9,0A1,1,0,0,0,9,2Zm.01,2a1,1,0,1,0,0-2ZM17,8a1,1,0,0,0,0,2Zm.01,2a1,1,0,0,0,0-2ZM9,16a1,1,0,0,0,0,2Zm.01,2a1,1,0,1,0,0-2ZM1,8a1,1,0,0,0,0,2Zm.01,2a1,1,0,0,0,0-2ZM14.657,2.343a1,1,0,0,0,0,2Zm.01,2a1,1,0,0,0,0-2Zm-.01,9.314a1,1,0,0,0,0,2Zm.01,2a1,1,0,0,0,0-2Zm-11.324-2a1,1,0,0,0,0,2Zm.01,2a1,1,0,0,0,0-2ZM3.343,2.343a1,1,0,1,0,0,2Zm.01,2a1,1,0,0,0,0-2ZM12,9a3,3,0,0,1-3,3v2a5,5,0,0,0,5-5ZM9,12A3,3,0,0,1,6,9H4a5,5,0,0,0,5,5ZM6,9A3,3,0,0,1,9,6V4A5,5,0,0,0,4,9ZM9,6a3,3,0,0,1,3,3h2A5,5,0,0,0,9,4ZM9,2h.01V0H9Zm8,8h.01V8H17ZM9,18h.01V16H9ZM1,10h.01V8H1ZM14.657,4.343h.01v-2h-.01Zm0,11.314h.01v-2h-.01Zm-11.314,0h.01v-2h-.01Zm0-11.314h.01v-2h-.01Z" fill="#09090b"/>
</svg>
