<svg id="superscript" xmlns="http://www.w3.org/2000/svg" width="18" height="15.999" viewBox="0 0 18 15.999">
  <path id="Vector" d="M.293,14.292a1,1,0,1,0,1.414,1.414ZM9.707,7.706A1,1,0,0,0,8.293,6.292Zm-1.414,8a1,1,0,1,0,1.414-1.414ZM1.707,6.292A1,1,0,0,0,.293,7.706ZM17,9a1,1,0,0,0,0-2ZM13,8H12a1,1,0,0,0,1,1Zm3.516-6.288.754-.657,0,0ZM13.9,1.275,13.4.405h0ZM12.059,2a1,1,0,0,0,1.881.679ZM1.707,15.706l8-8L8.293,6.292l-8,8Zm8-1.414-8-8L.293,7.706l8,8ZM17,7H13V9h4ZM14,8a1.992,1.992,0,0,1,.193-1.082,1.644,1.644,0,0,1,.735-.514l-.855-1.808A3.547,3.547,0,0,0,12.514,5.83,3.878,3.878,0,0,0,12,8Zm.927-1.6a9.222,9.222,0,0,0,1.845-1.061A2.975,2.975,0,0,0,18,3H16a1,1,0,0,1-.479.781,7.434,7.434,0,0,1-1.448.813ZM18,3a2.961,2.961,0,0,0-.73-1.947L15.762,2.368A.961.961,0,0,1,16,3Zm-.735-1.952A3.1,3.1,0,0,0,15.449.042L15.12,2.015a1.105,1.105,0,0,1,.646.358ZM15.449.042A3.1,3.1,0,0,0,13.4.405l.988,1.739a1.105,1.105,0,0,1,.727-.129ZM13.4.406A3.005,3.005,0,0,0,12.059,2l1.881.679a1,1,0,0,1,.453-.53Z" transform="translate(0 0)" fill="#09090b"/>
</svg>
