<svg id="switch-camera" xmlns="http://www.w3.org/2000/svg" width="22" height="22" viewBox="0 0 22 22">
  <path id="Vector" d="M10,19a1,1,0,0,0,0-2ZM1,16H1ZM3,4V4ZM8,4l.707.707a1,1,0,0,0,0-1.414Zm4-1a1,1,0,0,0,0,2Zm7,1V4ZM14,18l-.707-.707a1,1,0,0,0,0,1.414Zm2.293,3.707a1,1,0,0,0,1.414-1.414Zm1.414-6a1,1,0,0,0-1.414-1.414ZM5.707.293A1,1,0,0,0,4.293,1.707Zm-1.414,6A1,1,0,0,0,5.707,7.707ZM10,17H3v2h7ZM3,17a1,1,0,0,1-.707-.293L.879,18.121A3,3,0,0,0,3,19Zm-.707-.293A1,1,0,0,1,2,16H0a3,3,0,0,0,.879,2.121ZM2,16V6H0V16ZM2,6a1,1,0,0,1,.293-.707L.879,3.879A3,3,0,0,0,0,6Zm.293-.707A1,1,0,0,1,3,5V3a3,3,0,0,0-2.121.879ZM3,5H8V3H3Zm9,0h7V3H12Zm7,0a1,1,0,0,1,.707.293l1.414-1.414A3,3,0,0,0,19,3Zm.707.293A1,1,0,0,1,20,6h2a3,3,0,0,0-.879-2.121ZM20,6V16h2V6Zm0,10a1,1,0,0,1-.293.707l1.414,1.414A3,3,0,0,0,22,16Zm-.293.707A1,1,0,0,1,19,17v2a3,3,0,0,0,2.121-.879ZM19,17H14v2h5Zm-6-6a2,2,0,0,1-2,2v2a4,4,0,0,0,4-4Zm-2,2a2,2,0,0,1-2-2H7a4,4,0,0,0,4,4ZM9,11a2,2,0,0,1,2-2V7a4,4,0,0,0-4,4Zm2-2a2,2,0,0,1,2,2h2a4,4,0,0,0-4-4Zm6.707,11.293-3-3-1.414,1.414,3,3Zm-3-1.586,3-3-1.414-1.414-3,3Zm-10.414-17,3,3L8.707,3.293l-3-3Zm3,1.586-3,3L5.707,7.707l3-3Z" fill="#09090b"/>
</svg>
