<svg id="syringe" xmlns="http://www.w3.org/2000/svg" width="22" height="22" viewBox="0 0 22 22">
  <path id="Vector" d="M17.707.293a1,1,0,0,0-1.414,1.414Zm2.586,5.414a1,1,0,0,0,1.414-1.414Zm-5-.414a1,1,0,1,0,1.414,1.414Zm4.414-1.586a1,1,0,1,0-1.414-1.414Zm-1,5a1,1,0,1,0-1.414-1.414ZM4.3,18.3l.743-.669-.036-.038Zm-.6-.6-.707.707h0Zm0-3.4.669.743.038-.036ZM14.707,4.707a1,1,0,0,0-1.414-1.414Zm-6,4.586a1,1,0,0,0-1.414,1.414Zm2.586,5.414a1,1,0,0,0,1.414-1.414Zm-6.586,4a1,1,0,0,0-1.414-1.414ZM.293,20.293a1,1,0,0,0,1.414,1.414Zm13.414-18a1,1,0,0,0-1.414,1.414Zm4.586,7.414a1,1,0,0,0,1.414-1.414Zm-2-8,4,4,1.414-1.414-4-4Zm.414,5,3-3L18.293,2.293l-3,3Zm.586.586-10.3,10.3,1.414,1.414,10.3-10.3Zm-10.3,10.3a1.3,1.3,0,0,1-1.95.038L3.557,18.969a3.3,3.3,0,0,0,4.85.038Zm-1.986,0-.6-.6L2.993,18.407l.6.6Zm-.6-.6a1.3,1.3,0,0,1-.038-1.95L3.031,13.557a3.3,3.3,0,0,0-.038,4.85Zm0-1.986,10.3-10.3L13.293,3.293l-10.3,10.3Zm2.886-4.3,4,4,1.414-1.414-4-4Zm-4,6.586-3,3,1.414,1.414,3-3Zm9-13.586,6,6,1.414-1.414-6-6Z" fill="#09090b"/>
</svg>
