<svg id="table-cells-split" xmlns="http://www.w3.org/2000/svg" width="20" height="20" viewBox="0 0 20 20">
  <path id="Vector" d="M9,13a1,1,0,0,0,2,0Zm2-6A1,1,0,0,0,9,7ZM1,12a1,1,0,0,0,0,2Zm18,2a1,1,0,0,0,0-2ZM1,6A1,1,0,0,0,1,8ZM19,8a1,1,0,0,0,0-2Zm-8,5V7H9v6ZM1,14H19V12H1ZM1,8H19V6H1ZM3,2H17V0H3ZM17,2a1,1,0,0,1,1,1h2a3,3,0,0,0-3-3Zm1,1V17h2V3Zm0,14a1,1,0,0,1-1,1v2a3,3,0,0,0,3-3Zm-1,1H3v2H17ZM3,18a1,1,0,0,1-1-1H0a3,3,0,0,0,3,3ZM2,17V3H0V17ZM2,3A1,1,0,0,1,3,2V0A3,3,0,0,0,0,3Z" fill="#09090b"/>
</svg>
