<svg xmlns="http://www.w3.org/2000/svg" width="22.006" height="16.828" viewBox="0 0 22.006 16.828">
  <g id="tags" transform="translate(1 1.414)">
    <g id="Vector" transform="translate(0)">
      <path id="Vector_path_1_" data-name="Vector (path 1)" d="M0,0,6.3,6.3a2.4,2.4,0,0,1,0,3.4L2,14" transform="translate(13)" fill="rgba(0,0,0,0)"/>
      <path id="Vector_path_2_" data-name="Vector (path 2)" d="M7.586.586A2,2,0,0,0,6.172,0H1A1,1,0,0,0,0,1V6.172A2,2,0,0,0,.586,7.586l5.7,5.7a2.426,2.426,0,0,0,3.42,0l3.58-3.58a2.426,2.426,0,0,0,0-3.42Z" fill="rgba(0,0,0,0)"/>
      <path id="Vector_path_3_" data-name="Vector (path 3)" d="M.5,1A.5.5,0,1,0,0,.5.5.5,0,0,0,.5,1Z" transform="translate(4 4)" fill="#09090b"/>
      <g id="Vector_stroke_" data-name="Vector (stroke)">
        <path id="_27A1C701-9A70-4C65-A213-E9D76D4BC3C0" data-name="27A1C701-9A70-4C65-A213-E9D76D4BC3C0" d="M0,0,6.3,6.3a2.4,2.4,0,0,1,0,3.4L2,14" transform="translate(13)" fill="rgba(0,0,0,0)" stroke="#09090b" stroke-linecap="round" stroke-linejoin="round" stroke-miterlimit="10" stroke-width="2"/>
        <path id="B63EC598-320C-4B52-A39F-84106FF9D0BF" d="M7.586.586A2,2,0,0,0,6.172,0H1A1,1,0,0,0,0,1V6.172A2,2,0,0,0,.586,7.586l5.7,5.7a2.426,2.426,0,0,0,3.42,0l3.58-3.58a2.426,2.426,0,0,0,0-3.42Z" fill="rgba(0,0,0,0)" stroke="#09090b" stroke-linecap="round" stroke-linejoin="round" stroke-miterlimit="10" stroke-width="2"/>
        <path id="D531952B-26DD-4DFF-AE17-A3DC55EC2F82" d="M.5,1A.5.5,0,1,0,0,.5.5.5,0,0,0,.5,1Z" transform="translate(4 4)" fill="rgba(0,0,0,0)" stroke="#09090b" stroke-linecap="round" stroke-linejoin="round" stroke-miterlimit="10" stroke-width="2"/>
      </g>
    </g>
  </g>
</svg>
