<svg id="telescope" xmlns="http://www.w3.org/2000/svg" width="21.578" height="19.787" viewBox="0 0 21.578 19.787">
  <path id="Vector" d="M9.064,11.257A1,1,0,1,0,8.647,9.3Zm-6.389.34-.209-.978h0Zm-1.108-.7.974-.226,0-.017ZM1.03,8.746l-.972.237v.006Zm.691-1.265-.312-.95-.013,0ZM15.538,3.99a1,1,0,0,0-.625-1.9Zm-3.4,4.565a1,1,0,1,0,.417,1.956Zm4.749,1.032a1,1,0,0,0-.417-1.956Zm-3,9.646a1,1,0,1,0,1.789-.894Zm-1.316-7.1a1,1,0,1,0-1.789.894Zm2.7-8.4-.97.242h0ZM16.73,1.3l-.242-.97h0Zm1.09-.272-.242-.97h0Zm1.212.727L20,1.514h0Zm1.515,6.06-.97.243h0ZM19.82,9.03l.242.97h0ZM18.73,9.3l-.242-.97h0ZM16.306,7.847l-.97.243h0ZM5.919,6.177a1,1,0,0,0-1.94.485Zm-.826,4.941a1,1,0,0,0,1.94-.485Zm.8,7.221a1,1,0,1,0,1.789.894Zm4.894-5.315A1,1,0,1,0,9,12.129ZM8.647,9.3,2.467,10.62l.417,1.956,6.18-1.318ZM2.463,10.62a.066.066,0,0,1,.049.009l-1.07,1.689a1.934,1.934,0,0,0,1.445.256Zm.049.009a.066.066,0,0,1,.029.041l-1.948.451a1.934,1.934,0,0,0,.849,1.2Zm.025.024L2,8.5.06,8.988.6,11.138ZM2,8.509a.07.07,0,0,1,.007-.05L.253,7.5A2.07,2.07,0,0,0,.059,8.982Zm.007-.05a.07.07,0,0,1,.039-.033L1.4,6.535A2.07,2.07,0,0,0,.253,7.5Zm.025-.028,13.5-4.44-.625-1.9-13.5,4.44Zm10.525,2.081,4.332-.924-.417-1.956-4.332.924Zm3.126,7.828-3.105-6.21-1.789.894,3.1,6.21Zm.561-14.855a1,1,0,0,1,.113-.757L14.643,1.7a3,3,0,0,0-.338,2.271Zm.113-.757a1,1,0,0,1,.615-.456L16.488.332A3,3,0,0,0,14.643,1.7Zm.614-.455L18.063,2,17.578.059l-1.09.272ZM18.063,2h0L19.091.285A2,2,0,0,0,17.578.059Zm0,0h0L20,1.513A2,2,0,0,0,19.091.285Zm0,0,1.515,6.06,1.94-.485L20,1.514Zm1.515,6.06h0l1.715,1.028a2,2,0,0,0,.225-1.514Zm0,0h0L20.063,10a2,2,0,0,0,1.229-.912Zm0,0-1.09.272.484,1.94L20.063,10Zm-1.09.272a1,1,0,0,1-.757-.113L16.7,9.934a3,3,0,0,0,2.271.338Zm-.757-.113a1,1,0,0,1-.456-.615l-1.94.485A3,3,0,0,0,16.7,9.934ZM17.276,7.6l-1.03-4.12-1.94.485,1.03,4.12Zm-13.3-.942,1.114,4.456,1.94-.485L5.919,6.177ZM7.685,19.234l3.1-6.21L9,12.129,5.9,18.339Zm4.106-8.447a1,1,0,0,1-1,1v2a3,3,0,0,0,3-3Zm-1,1a1,1,0,0,1-1-1h-2a3,3,0,0,0,3,3Zm-1-1a1,1,0,0,1,1-1v-2a3,3,0,0,0-3,3Zm1-1a1,1,0,0,1,1,1h2a3,3,0,0,0-3-3Z" transform="translate(0 0)" fill="#09090b"/>
</svg>
