<svg id="tent" xmlns="http://www.w3.org/2000/svg" width="22" height="20" viewBox="0 0 22 20">
  <path id="Vector" d="M1.636,18.5A1,1,0,1,0,3.364,19.5ZM13.864,1.5A1,1,0,0,0,12.136.5Zm4.772,18A1,1,0,1,0,20.364,18.5ZM9.864.5A1,1,0,0,0,8.136,1.5ZM13.636,19.5A1,1,0,0,0,15.364,18.5ZM11,13l.864-.5a1,1,0,0,0-1.728,0ZM6.636,18.5A1,1,0,1,0,8.364,19.5ZM1,18a1,1,0,0,0,0,2Zm20,2a1,1,0,0,0,0-2ZM3.364,19.5l10.5-18L12.136.5l-10.5,18Zm17-1.008L9.864.5,8.136,1.5l10.5,18Zm-5,0-3.5-6L10.136,13.5l3.5,6Zm-5.228-6-3.5,6L8.364,19.5l3.5-6ZM1,20H21V18H1Z" transform="translate(0 0)" fill="#09090b"/>
</svg>
