<svg id="thermometer" xmlns="http://www.w3.org/2000/svg" width="10" height="22.004" viewBox="0 0 10 22.004">
  <path id="Vector" d="M7,3H7ZM7,13.54H6a1,1,0,0,0,.5.866Zm-4,0,.5.866A1,1,0,0,0,4,13.54ZM5,1V1ZM6,3V13.54H8V3Zm.5,11.406a3,3,0,0,1,1.272,1.45l1.848-.765A5,5,0,0,0,7.5,12.674Zm1.272,1.45A3,3,0,0,1,7.9,17.781L9.83,18.3a5,5,0,0,0-.21-3.208ZM7.9,17.781a3,3,0,0,1-1.071,1.6l1.218,1.587A5,5,0,0,0,9.83,18.3Zm-1.071,1.6A3,3,0,0,1,5,20v2a5,5,0,0,0,3.044-1.033ZM5,20a3,3,0,0,1-1.826-.62L1.956,20.971A5,5,0,0,0,5,22Zm-1.826-.62a3,3,0,0,1-1.071-1.6L.17,18.3a5,5,0,0,0,1.786,2.673ZM2.1,17.781a3,3,0,0,1,.126-1.924L.381,15.091A5,5,0,0,0,.17,18.3Zm.126-1.924A3,3,0,0,1,3.5,14.406l-1-1.732A5,5,0,0,0,.381,15.091ZM4,13.54V3H2V13.54ZM4,3a1,1,0,0,1,.293-.707L2.879.879A3,3,0,0,0,2,3Zm.293-.707A1,1,0,0,1,5,2V0A3,3,0,0,0,2.879.879ZM5,2a1,1,0,0,1,.707.293L7.121.879A3,3,0,0,0,5,0Zm.707.293A1,1,0,0,1,6,3H8A3,3,0,0,0,7.121.879Z" transform="translate(0)" fill="#09090b"/>
</svg>
