<svg id="timer-off" xmlns="http://www.w3.org/2000/svg" width="22" height="22.014" viewBox="0 0 22 22.014">
  <path id="Vector" d="M9,0A1,1,0,0,0,9,2Zm4,2a1,1,0,0,0,0-2ZM4.523,10.384a1,1,0,0,0-1.847-.768ZM5.3,18.7l-.711.7.007.007Zm9.084,2.623a1,1,0,1,0-.768-1.847ZM5.83,5.578A1,1,0,0,0,6.97,7.222ZM16.7,7.4l-.717.7.008.008Zm.078,9.63a1,1,0,0,0,1.643,1.14ZM1.707.293A1,1,0,0,0,.293,1.707ZM20.293,21.707a1,1,0,0,0,1.414-1.414ZM10,11a1,1,0,0,0,2,0Zm2-2a1,1,0,0,0-2,0ZM9,2h4V0H9ZM2.677,9.616A9,9,0,0,0,2.153,14.8l1.963-.384a7,7,0,0,1,.407-4.031ZM2.153,14.8a9,9,0,0,0,2.436,4.6L6.011,18a7,7,0,0,1-1.895-3.581ZM4.6,19.411a9,9,0,0,0,4.6,2.436l.384-1.963A7,7,0,0,1,6,17.989Zm4.6,2.436a9,9,0,0,0,5.183-.523l-.768-1.847a7,7,0,0,1-4.031.407ZM6.97,7.222a7,7,0,0,1,4.667-1.216l.193-1.991a9,9,0,0,0-6,1.563Zm4.667-1.216A7,7,0,0,1,15.983,8.1L17.417,6.7A9,9,0,0,0,11.83,4.015Zm4.354,2.1A7,7,0,0,1,18,12.425l1.992-.176A9,9,0,0,0,17.409,6.7ZM18,12.425a7,7,0,0,1-1.221,4.6l1.643,1.14a9,9,0,0,0,1.57-5.921ZM.293,1.707l20,20,1.414-1.414-20-20ZM12,11V9H10v2Z" transform="translate(0)" fill="#09090b"/>
</svg>
