<svg id="torus" xmlns="http://www.w3.org/2000/svg" width="22" height="19" viewBox="0 0 22 19">
  <path id="Vector" d="M13,8c0,.114-.069.339-.433.582A2.875,2.875,0,0,1,11,9v2a4.861,4.861,0,0,0,2.676-.754A2.738,2.738,0,0,0,15,8ZM11,9a2.875,2.875,0,0,1-1.567-.418C9.069,8.339,9,8.114,9,8H7a2.738,2.738,0,0,0,1.324,2.246A4.861,4.861,0,0,0,11,11ZM9,8c0-.114.069-.339.433-.582A2.875,2.875,0,0,1,11,7V5a4.861,4.861,0,0,0-2.676.754A2.738,2.738,0,0,0,7,8Zm2-1a2.875,2.875,0,0,1,1.567.418c.364.243.433.468.433.582h2a2.738,2.738,0,0,0-1.324-2.246A4.861,4.861,0,0,0,11,5Zm9,2.5c0,4-3.871,7.5-9,7.5v2c5.917,0,11-4.107,11-9.5ZM11,17c-5.129,0-9-3.5-9-7.5H0C0,14.893,5.083,19,11,19ZM2,9.5C2,5.5,5.871,2,11,2V0C5.083,0,0,4.107,0,9.5ZM11,2c5.129,0,9,3.5,9,7.5h2C22,4.107,16.917,0,11,0Z" fill="#09090b"/>
</svg>
