<svg id="toy-brick" xmlns="http://www.w3.org/2000/svg" width="20" height="18" viewBox="0 0 20 18">
  <path id="Vector" d="M7,5A1,1,0,0,0,9,5ZM2,5A1,1,0,0,0,4,5ZM16,5a1,1,0,0,0,2,0ZM11,5a1,1,0,0,0,2,0ZM2,6H18V4H2ZM18,6h2a2,2,0,0,0-2-2Zm0,0V16h2V6Zm0,10v2a2,2,0,0,0,2-2Zm0,0H2v2H18ZM2,16H0a2,2,0,0,0,2,2Zm0,0V6H0V16ZM2,6V4A2,2,0,0,0,0,6ZM9,5V2H7V5ZM9,2A2,2,0,0,0,8.432.568,2,2,0,0,0,7,0V2a.169.169,0,0,1,.05.005L7.038,2A.129.129,0,0,1,7,1.962a.071.071,0,0,1-.006-.012A.169.169,0,0,1,7,2ZM7,0H4V2H7ZM4,0A2,2,0,0,0,2.586.586L4,2H4ZM2.586.586A2,2,0,0,0,2,2H4ZM2,2V5H4V2ZM18,5V2H16V5Zm0-3A2,2,0,0,0,17.432.568,2,2,0,0,0,16,0V2a.169.169,0,0,1,.05.005L16.038,2A.13.13,0,0,1,16,1.962a.071.071,0,0,1-.006-.012A.169.169,0,0,1,16,2ZM16,0H13V2h3ZM13,0a2,2,0,0,0-1.414.586L13,2h0ZM11.586.586A2,2,0,0,0,11,2h2ZM11,2V5h2V2Z" fill="#09090b"/>
</svg>
