<svg id="traffic-cone" xmlns="http://www.w3.org/2000/svg" width="22" height="22.12" viewBox="0 0 22 22.12">
  <path id="Vector" d="M8.893,4.54A1,1,0,0,0,7.707,6.15ZM11,6.232v0Zm3.293-.083a1,1,0,1,0-1.187-1.61ZM7.564,9.1a1,1,0,1,0-1.329,1.495Zm8.2,1.495A1,1,0,0,0,14.436,9.1ZM12.9,2.645l-.989.148a1,1,0,0,0,.031.14Zm-3.8-.1.958.287q.013-.043.022-.088Zm-3,10,.894.447a1,1,0,0,0,.063-.16Zm9.8.1-.958.287a1,1,0,0,0,.251.42ZM7,12.212a1,1,0,1,0-1-1.734ZM1.8,14.045l-.5-.867-.016.01Zm0,2.2-.515.858.005,0Zm7.6,4.5-.509.86.024.014Zm3,0,.486.874.024-.014Zm7.6-4.5-.394-.919a1.011,1.011,0,0,0-.116.059Zm.2-2.2.514-.858,0,0Zm-4.188-3.659A1,1,0,0,0,14.988,12.1ZM7.707,6.15A5.55,5.55,0,0,0,11,7.232v-2A3.55,3.55,0,0,1,8.893,4.54ZM11,7.232A5.55,5.55,0,0,0,14.293,6.15L13.107,4.54A3.55,3.55,0,0,1,11,5.232Zm-4.764,3.36A7.261,7.261,0,0,0,11,12.145v-2A5.31,5.31,0,0,1,7.564,9.1ZM11,12.145a7.261,7.261,0,0,0,4.764-1.553L14.435,9.1A5.31,5.31,0,0,1,11,10.145ZM13.889,2.5A2.93,2.93,0,0,0,12.933.736l-1.325,1.5a.93.93,0,0,1,.3.559ZM12.933.736A2.93,2.93,0,0,0,11.068,0l-.053,2a.93.93,0,0,1,.592.233ZM11.068,0a2.93,2.93,0,0,0-1.9.636L10.412,2.2a.93.93,0,0,1,.6-.2Zm-1.9.636A2.93,2.93,0,0,0,8.12,2.345l1.96.4a.93.93,0,0,1,.332-.542ZM8.142,2.258l-3,10,1.916.575,3-10ZM5.206,12.1A2.232,2.232,0,0,0,5,13.145H7c0-.053,0-.087,0-.119s0-.047,0-.057,0,0-.01.023ZM5,13.145a3.566,3.566,0,0,0,1.937,3,8.021,8.021,0,0,0,4.063,1v-2a6.046,6.046,0,0,1-3.037-.721C7.238,13.991,7,13.517,7,13.145Zm6,4a8.02,8.02,0,0,0,4.063-1,3.566,3.566,0,0,0,1.937-3H15c0,.372-.238.846-.963,1.279A6.046,6.046,0,0,1,11,15.145Zm6-4a3.027,3.027,0,0,0-.023-.429,1.357,1.357,0,0,0-.37-.778l-1.414,1.414a.737.737,0,0,1-.166-.251A.471.471,0,0,1,15,13a.261.261,0,0,0,0,.03c0,.03,0,.063,0,.116Zm-.142-.787-3-10-1.916.575,3,10ZM6,10.478l-4.7,2.7,1,1.734,4.7-2.7Zm-4.716,2.71A2.38,2.38,0,0,0,0,15.145H2c0,.057-.022.06.019,0a1.017,1.017,0,0,1,.3-.246ZM0,15.145A2.38,2.38,0,0,0,1.286,17.1l1.029-1.715a1.018,1.018,0,0,1-.3-.246c-.041-.056-.019-.054-.019,0Zm1.291,1.96,7.6,4.5,1.019-1.721-7.6-4.5Zm7.624,4.514a4.186,4.186,0,0,0,3.971,0l-.971-1.748a2.19,2.19,0,0,1-2.029,0Zm4-.014,7.6-4.5-1.019-1.721-7.6,4.5Zm7.484-4.441A2.3,2.3,0,0,0,22,15.145H20c0-.069.032-.1.007-.068a1.133,1.133,0,0,1-.4.248ZM22,15.145a2.38,2.38,0,0,0-1.285-1.957L19.686,14.9a1.017,1.017,0,0,1,.3.246c.041.056.019.054.019,0Zm-1.288-1.959-4.7-2.8L14.988,12.1l4.7,2.8Z" transform="translate(0 0)" fill="#09090b"/>
</svg>
