<svg id="tram-front" xmlns="http://www.w3.org/2000/svg" width="18" height="21" viewBox="0 0 18 21">
  <path id="Vector" d="M1,8a1,1,0,0,0,0,2Zm16,2a1,1,0,0,0,0-2ZM10,1A1,1,0,0,0,8,1ZM8,9a1,1,0,0,0,2,0ZM5.832,17.555a1,1,0,1,0-1.664-1.109ZM2.168,19.445a1,1,0,1,0,1.664,1.109Zm12,1.109a1,1,0,0,0,1.664-1.109Zm-.336-4.109a1,1,0,0,0-1.664,1.109ZM5,12a1,1,0,0,0,0,2Zm.01,2a1,1,0,0,0,0-2ZM13,12a1,1,0,0,0,0,2Zm.01,2a1,1,0,0,0,0-2ZM3,2H15V0H3ZM15,2a1,1,0,0,1,1,1h2a3,3,0,0,0-3-3Zm1,1V15h2V3Zm0,12a1,1,0,0,1-1,1v2a3,3,0,0,0,3-3Zm-1,1H3v2H15ZM3,16a1,1,0,0,1-1-1H0a3,3,0,0,0,3,3ZM2,15V3H0V15ZM2,3A1,1,0,0,1,3,2V0A3,3,0,0,0,0,3ZM1,10H17V8H1ZM8,1V9h2V1ZM4.168,16.445l-2,3,1.664,1.109,2-3Zm11.664,3-2-3-1.664,1.109,2,3ZM5,14h.01V12H5Zm8,0h.01V12H13Z" fill="#09090b"/>
</svg>
