<svg id="trees" xmlns="http://www.w3.org/2000/svg" width="21.211" height="21" viewBox="0 0 21.211 21">
  <path id="Vector" d="M8.925,8h0Zm0,.2h-1a1,1,0,0,0,.641.933ZM7.825,14l.008-1H7.825Zm-3.9,0L3.9,15h.025Zm-1-5.8.358.934A1,1,0,0,0,3.925,8.2Zm0-.2h0Zm4,6a1,1,0,0,0-2,0Zm-2,6a1,1,0,0,0,2,0Zm8-3a1,1,0,0,0-2,0Zm-2,3a1,1,0,0,0,2,0Zm0-4a1,1,0,0,0,0,2Zm8.3,1v1h.014Zm.7-1.7-.74.673.026.027Zm-3-3.3V11a1,1,0,0,0-.74,1.673Zm.3,0v1h.014Zm.7-1.7-.74.673.026.027Zm-3-3.3V6a1,1,0,0,0-.74,1.673Zm.2,0,.09-1c-.03,0-.06,0-.09,0Zm.8-1.7-.732.681L15.215,6Zm-4-4.3.732-.681a1,1,0,0,0-1.463,0Zm-2.131.818a1,1,0,1,0,1.462,1.365ZM7.925,8v.2h2V8Zm.641,1.133a2,2,0,0,1,1.029.894l1.747-.973A4,4,0,0,0,9.284,7.267Zm1.029.894a2,2,0,0,1,.218,1.346l1.965.373a4,4,0,0,0-.435-2.691Zm.218,1.346a2,2,0,0,1-.7,1.173l1.27,1.545a4,4,0,0,0,1.391-2.345Zm-.7,1.173A2,2,0,0,1,7.833,13l-.015,2a4,4,0,0,0,2.57-.909ZM7.825,13h-3.9v2h3.9ZM3.95,13a2,2,0,0,1-1.258-.486L1.385,14.028A4,4,0,0,0,3.9,15Zm-1.258-.486a2,2,0,0,1-.664-1.174l-1.971.34a4,4,0,0,0,1.327,2.347Zm-.664-1.174a2,2,0,0,1,.232-1.328L.523,9.024a4,4,0,0,0-.464,2.656Zm.232-1.328a2,2,0,0,1,1.022-.879L2.567,7.266A4,4,0,0,0,.523,9.024ZM3.925,8.2V8h-2v.2Zm0-.2a2,2,0,0,1,.586-1.414L3.1,5.172A4,4,0,0,0,1.925,8Zm.586-1.414A2,2,0,0,1,5.925,6V4A4,4,0,0,0,3.1,5.172ZM5.925,6a2,2,0,0,1,1.414.586L8.754,5.172A4,4,0,0,0,5.925,4Zm1.414.586A2,2,0,0,1,7.925,8h2A4,4,0,0,0,8.754,5.172ZM4.925,14v6h2V14Zm6,3v3h2V17Zm0,1h8.3V16h-8.3Zm8.314,0a2,2,0,0,0,1.1-.346L19.211,16h0Zm1.1-.346a2,2,0,0,0,.725-.892L19.211,16h0Zm.725-.892a2,2,0,0,0,.114-1.144L19.211,16h0Zm.114-1.144a2,2,0,0,0-.535-1.018L19.211,16h0Zm-.509-.99-3-3.3-1.48,1.345,3,3.3ZM16.925,13h.3V11h-.3Zm.314,0a2,2,0,0,0,1.1-.346L17.211,11h0Zm1.1-.346a2,2,0,0,0,.725-.892L17.211,11h0Zm.725-.892a2,2,0,0,0,.114-1.144L17.211,11h0Zm.114-1.144A2,2,0,0,0,18.639,9.6L17.211,11h0Zm-.509-.99-3-3.3-1.48,1.345,3,3.3ZM14.925,8h.2V6h-.2Zm.11,0a2,2,0,0,0,1.174-.257L15.215,6h0Zm1.174-.257a2,2,0,0,0,.815-.884L15.215,6h0Zm.815-.884a2,2,0,0,0,.161-1.191L15.215,6h0Zm.161-1.191A2,2,0,0,0,16.635,4.6L15.215,6h0Zm-.529-1.046-4-4.3L11.193,1.681l4,4.3ZM11.194.318l-1.4,1.5,1.462,1.365,1.4-1.5Z" transform="translate(0 0)" fill="#09090b"/>
</svg>
