<svg id="tree-pine" xmlns="http://www.w3.org/2000/svg" width="18.572" height="21" viewBox="0 0 18.572 21">
  <path id="Vector" d="M14.286,12V11a1,1,0,0,0-.74,1.673Zm3,3.3-.74.673.026.027Zm-.7,1.7v1H16.6Zm-14.6,0-.014,1h.014Zm-.7-1.7L2,16l.026-.027Zm3-3.3.74.673A1,1,0,0,0,4.286,11Zm-.3,0-.014,1h.014Zm-.7-1.7L4,11l.026-.027Zm3-3.3.74.673A1,1,0,0,0,6.286,6Zm-.2,0V6Q6.041,6,6,6Zm-.8-1.7L6,6l.022-.023Zm4-4.3.732-.681a1,1,0,0,0-1.464,0Zm4,4.3-.732.681L12.576,6Zm-.8,1.7.09-1c-.03,0-.06,0-.09,0Zm-.2,0V6a1,1,0,0,0-.74,1.673Zm3,3.3-.74.673.026.027Zm-.7,1.7v1H14.6Zm-6.3,8a1,1,0,0,0,2,0Zm2-3a1,1,0,0,0-2,0Zm3.26-4.327,3,3.3,1.48-1.345-3-3.3ZM16.572,16h0l1.963-.383A2,2,0,0,0,18,14.6Zm0,0h0l1.849.761a2,2,0,0,0,.114-1.144Zm0,0h0L17.7,17.654a2,2,0,0,0,.725-.892Zm0,0h0l.028,2a2,2,0,0,0,1.1-.346Zm.014,0H1.986v2h14.6ZM2,16H2L.875,17.654a2,2,0,0,0,1.1.346Zm0,0H2l-1.849.761a2,2,0,0,0,.725.892Zm0,0H2L.037,15.617a2,2,0,0,0,.114,1.144Zm0,0H2L.572,14.6a2,2,0,0,0-.535,1.018Zm.026-.027,3-3.3-1.48-1.345-3,3.3ZM4.286,11h-.3v2h.3ZM4,11H4L2.875,12.654a2,2,0,0,0,1.1.346Zm0,0H4l-1.849.762a2,2,0,0,0,.725.892Zm0,0H4l-1.963-.383a2,2,0,0,0,.114,1.144Zm0,0H4L2.572,9.6a2,2,0,0,0-.535,1.018Zm.026-.027,3-3.3L5.546,6.327l-3,3.3ZM6.286,6h-.2V8h.2ZM6,6H6L5,7.739A2,2,0,0,0,6.176,8ZM6,6H6l-1.81.852A2,2,0,0,0,5,7.739ZM6,6H6l-1.971-.34a2,2,0,0,0,.161,1.191ZM6,6H6L4.576,4.6a2,2,0,0,0-.551,1.069Zm.022-.023,4-4.3L8.554.319l-4,4.3Zm2.536-4.3,4,4.3,1.464-1.362-4-4.3ZM12.576,6h0l1.971-.34A2,2,0,0,0,14,4.6Zm0,0h0l1.81.852a2,2,0,0,0,.161-1.191Zm0,0h0l.995,1.735a2,2,0,0,0,.815-.884Zm0,0h0L12.4,8a2,2,0,0,0,1.174-.257Zm-.09,0h-.2V8h.2Zm-.94,1.673,3,3.3,1.48-1.345-3-3.3ZM14.572,11h0l1.963-.383A2,2,0,0,0,16,9.6Zm0,0h0l1.849.762a2,2,0,0,0,.114-1.144Zm0,0h0L15.7,12.654a2,2,0,0,0,.725-.892Zm0,0h0l.028,2a2,2,0,0,0,1.1-.346Zm.014,0h-.3v2h.3Zm-4.3,9V17h-2v3Z" transform="translate(0)" fill="#09090b"/>
</svg>
