<svg id="tree-palm" xmlns="http://www.w3.org/2000/svg" width="22" height="21" viewBox="0 0 22 21">
  <path id="Vector" d="M12,6H11a1,1,0,0,0,.03.243ZM1,6H0A1,1,0,0,0,1,7ZM3,6V7a1,1,0,0,0,.707-.293ZM4,5l.707-.707a1,1,0,0,0-1.414,0ZM5,6l-.707.707A1,1,0,0,0,5,7ZM9,7A1,1,0,0,0,9,5Zm2.406-2.664a1,1,0,1,0,1.189,1.608ZM15.5,4l-.007,1H15.5ZM21,9v1a1,1,0,0,0,1-1ZM18,9l-.707.707A1,1,0,0,0,18,10ZM17,8l.707-.707a1,1,0,0,0-1.414,0ZM16,9v1a1,1,0,0,0,.707-.293ZM13,8a1,1,0,1,0,0,2ZM4.54,15.14l-.709.705a1,1,0,0,0,1.417,0Zm4.24-4.25-.707-.707h0Zm3.53-3.53.707.707a1,1,0,0,0,0-1.412ZM10.981,13.3a1,1,0,1,0-1.961.392ZM9,20l-.924-.383A1,1,0,0,0,9,21Zm4,0v1a1,1,0,0,0,.94-.658ZM13,6A6.265,6.265,0,0,0,6.5,0V2A4.271,4.271,0,0,1,11,6ZM6.5,0A6.265,6.265,0,0,0,0,6H2A4.271,4.271,0,0,1,6.5,2ZM1,7H3V5H1Zm2.707-.293,1-1L3.293,4.293l-1,1Zm-.414-1,1,1L5.707,5.293l-1-1ZM5,7H9V5H5Zm7.594-1.056A4.82,4.82,0,0,1,15.493,5l.014-2a6.82,6.82,0,0,0-4.1,1.336ZM15.5,5A4.271,4.271,0,0,1,20,9h2a6.265,6.265,0,0,0-6.5-6ZM21,8H18v2h3Zm-2.293.293-1-1L16.293,8.707l1,1Zm-2.414-1-1,1,1.414,1.414,1-1ZM16,8H13v2h3ZM4.183,7a6.272,6.272,0,0,0-.352,8.842l1.418-1.411A4.278,4.278,0,0,1,5.6,8.417Zm1.065,8.843,4.24-4.25L8.072,10.184l-4.24,4.25Zm7.771-9.192A6.251,6.251,0,0,0,4.183,7L5.6,8.417a4.257,4.257,0,0,1,6-.352Zm-4,7.041a9.645,9.645,0,0,1-.943,5.921l1.847.767A11.593,11.593,0,0,0,10.981,13.3ZM9,21h4V19H9Zm4.94-.658a17.443,17.443,0,0,0,.483-8.823A55.107,55.107,0,0,0,12.97,5.757l-1.94.485a54.52,54.52,0,0,1,1.422,5.613,15.477,15.477,0,0,1-.392,7.8ZM9.487,11.6l3.53-3.53L11.6,6.653l-3.53,3.53Z" fill="#09090b"/>
</svg>
