<svg id="triangle-right" xmlns="http://www.w3.org/2000/svg" width="21.967" height="18.079" viewBox="0 0 21.967 18.079">
  <path id="Vector" d="M1.567,15.779l.614.789.015-.012Zm17.8-14.4L18.753.589,18.738.6Zm.6,13.7a1,1,0,0,1-.293.707L21.089,17.2a3,3,0,0,0,.879-2.121Zm-.293.707a1,1,0,0,1-.707.293v2a3,3,0,0,0,2.121-.879Zm-.707.293h-17v2h17Zm-17,0a.912.912,0,0,1-.265-.026.546.546,0,0,1,.268.337.606.606,0,0,1,.021.29.422.422,0,0,1-.021.077.2.2,0,0,1-.012.025.424.424,0,0,1,.051-.062,1.509,1.509,0,0,1,.172-.153L.953,14.989a2.848,2.848,0,0,0-.721.782,1.506,1.506,0,0,0-.169,1.221,1.474,1.474,0,0,0,.862.9,2.693,2.693,0,0,0,1.042.183Zm.229.477L20,2.156,18.738.6.938,15ZM19.981,2.168a1.364,1.364,0,0,1,.187-.125.488.488,0,0,1,.1-.041c.013,0,0,0-.027,0a.363.363,0,0,1-.131-.031.4.4,0,0,1-.128-.088.229.229,0,0,1-.042-.056.3.3,0,0,1,.016.06,1.064,1.064,0,0,1,.015.191h2A1.994,1.994,0,0,0,20.9.137a2.143,2.143,0,0,0-2.15.453Zm-.014-.089v13h2v-13Z" transform="translate(0 0)" fill="#09090b"/>
</svg>
