<svg id="triangle" xmlns="http://www.w3.org/2000/svg" width="21.996" height="19.996" viewBox="0 0 21.996 19.996">
  <path id="Vector" d="M12.728,2l.868-.5,0-.006ZM11,1V1ZM9.268,2l-.865-.5,0,.006Zm-8,14,.866.5,0,0ZM3,19v1H3Zm16,0v1h0Zm1.73-3-.868.5,0,0Zm-7.135-14.5A3,3,0,0,0,12.5.4l-1,1.733a1,1,0,0,1,.366.365ZM12.5.4A3,3,0,0,0,11,0V2a1,1,0,0,1,.5.133ZM11,0A3,3,0,0,0,9.5.4l1,1.733A1,1,0,0,1,11,2ZM9.5.4A3,3,0,0,0,8.4,1.495l1.73,1a1,1,0,0,1,.366-.365ZM8.4,1.5l-8,14,1.736.992,8-14Zm-8,14A3,3,0,0,0,0,17H2a1,1,0,0,1,.134-.5ZM0,17a3,3,0,0,0,.4,1.5l1.733-1A1,1,0,0,1,2,17Zm.4,1.5a3,3,0,0,0,1.1,1.1l1-1.731a1,1,0,0,1-.366-.366Zm1.1,1.1A3,3,0,0,0,3,20l0-2a1,1,0,0,1-.5-.134ZM3,20H19V18H3Zm16,0a3,3,0,0,0,1.5-.4l-1-1.731A1,1,0,0,1,19,18Zm1.5-.4a3,3,0,0,0,1.1-1.1l-1.733-1a1,1,0,0,1-.366.366Zm1.1-1.1A3,3,0,0,0,22,17H20a1,1,0,0,1-.134.5ZM22,17a3,3,0,0,0-.4-1.5l-1.732,1A1,1,0,0,1,20,17Zm-.4-1.5-8-14-1.736.992,8,14Z" transform="translate(0)" fill="#09090b"/>
</svg>
