<svg id="triangle-alert" xmlns="http://www.w3.org/2000/svg" width="22.016" height="20.014" viewBox="0 0 22.016 20.014">
  <path id="Vector" d="M20.748,16.014l-.868.5,0,0Zm-8-14-.87.493,0,0ZM11.008,1V1ZM9.268,2.014l.868.5,0,0Zm-8,14,.866.5,0,0Zm1.75,3v-1H3.009Zm16,0v1h0Zm-7-12a1,1,0,0,0-2,0Zm-2,4a1,1,0,0,0,2,0Zm1,3a1,1,0,1,0,0,2Zm.01,2a1,1,0,0,0,0-2Zm10.588-.5-8-14L11.88,2.51l8,14Zm-8-14a3,3,0,0,0-1.1-1.113L11.512,2.136a1,1,0,0,1,.366.371ZM12.518.408A3,3,0,0,0,11.008,0V2a1,1,0,0,1,.5.136ZM11.008,0A3,3,0,0,0,9.5.408L10.5,2.136a1,1,0,0,1,.5-.136ZM9.5.408A3,3,0,0,0,8.4,1.521l1.74.986a1,1,0,0,1,.367-.371ZM8.4,1.518l-8,14,1.736.992,8-14Zm-8,14A3,3,0,0,0,0,17.021l2,0a1,1,0,0,1,.134-.5ZM0,17.021a3,3,0,0,0,.409,1.5l1.728-1.008a1,1,0,0,1-.136-.5Zm.409,1.505a3,3,0,0,0,1.109,1.1l.988-1.739a1,1,0,0,1-.37-.366Zm1.109,1.1a3,3,0,0,0,1.509.392l-.018-2a1,1,0,0,1-.5-.131Zm1.5.392h16v-2h-16Zm16,0a3,3,0,0,0,1.5-.4l-1-1.731a1,1,0,0,1-.5.134Zm1.5-.4a3,3,0,0,0,1.1-1.1l-1.733-1a1,1,0,0,1-.366.366Zm1.1-1.1a3,3,0,0,0,.4-1.5h-2a1,1,0,0,1-.134.5Zm.4-1.5a3,3,0,0,0-.4-1.5l-1.732,1a1,1,0,0,1,.134.5Zm-12-10v4h2v-4Zm1,9h.01v-2h-.01Z" transform="translate(0)" fill="#09090b"/>
</svg>
