<svg id="twitter" xmlns="http://www.w3.org/2000/svg" width="22" height="19.012" viewBox="0 0 22 19.012">
  <path id="Vector" d="M21,1.008l.949.316A1,1,0,0,0,20.466.162Zm-2,3.4L18.293,3.7a1,1,0,0,0-.28.865ZM1,16.008l.045-1a1,1,0,0,0-.6,1.832Zm6-2,.659.753a1,1,0,0,0-.371-1.71Zm-5-12,.763-.646a1,1,0,0,0-1.642.168Zm9,4,.029,1A1,1,0,0,0,11.978,5.8Zm7-3.8-.682.731A1,1,0,0,0,18,3.208Zm3-1.2L20.051.691h0v0l0,.012-.02.057c-.019.051-.048.129-.087.228-.078.2-.2.476-.351.791a7.4,7.4,0,0,1-1.3,1.921l1.414,1.414a9.369,9.369,0,0,0,1.678-2.454c.183-.372.321-.7.415-.937.047-.119.083-.215.108-.284l.029-.081.008-.024,0-.007v0h0L21,1.008ZM18.013,4.566A10.675,10.675,0,0,1,1.553,15.174l-1.1,1.667A12.675,12.675,0,0,0,19.987,4.25ZM.955,17.007a9.568,9.568,0,0,0,6.7-2.246L6.342,13.255a7.571,7.571,0,0,1-5.3,1.754ZM7.287,13.05A7.463,7.463,0,0,1,2.879,2.485L1.121,1.53A9.463,9.463,0,0,0,6.713,14.965ZM1.237,2.653a12.5,12.5,0,0,0,9.793,4.354l-.059-2A10.5,10.5,0,0,1,2.763,1.362ZM11.978,5.8A2.977,2.977,0,0,1,13.5,2.369a3.3,3.3,0,0,1,3.818.569l1.365-1.462A5.294,5.294,0,0,0,12.575.6a4.974,4.974,0,0,0-2.553,5.621ZM18,3.208a4.028,4.028,0,0,0,1.253-.24,9.393,9.393,0,0,0,1.1-.462c.331-.162.624-.324.833-.444.1-.06.19-.111.25-.147l.07-.043.02-.012.006,0h0L21,1.008,20.466.162h0l-.012.008L20.4.2c-.048.029-.12.072-.211.124-.182.1-.433.243-.714.381a7.41,7.41,0,0,1-.86.363A2.136,2.136,0,0,1,18,1.208Z" transform="translate(0 0)" fill="#09090b"/>
</svg>
