<svg id="university" xmlns="http://www.w3.org/2000/svg" width="22" height="20" viewBox="0 0 22 20">
  <path id="Vector" d="M21,5h1a1,1,0,0,0-1-1ZM17,5l-.555.832A1,1,0,0,0,17,6ZM11,1l.555-.832a1,1,0,0,0-1.109,0ZM5,5V6a1,1,0,0,0,.555-.168ZM1,5V4A1,1,0,0,0,0,5ZM1,17H1Zm5-3a1,1,0,0,0-2,0Zm-2,.01a1,1,0,0,0,2,0ZM6,10a1,1,0,0,0-2,0Zm-2,.01a1,1,0,0,0,2,0ZM18,14a1,1,0,0,0-2,0Zm-2,.01a1,1,0,0,0,2,0ZM18,10a1,1,0,0,0-2,0Zm-2,.01a1,1,0,0,0,2,0ZM12,19a1,1,0,0,0,2,0ZM8,19a1,1,0,0,0,2,0ZM11,7V9a2,2,0,0,0,2-2Zm0,0H9a2,2,0,0,0,2,2Zm0,0V5A2,2,0,0,0,9,7Zm0,0h2a2,2,0,0,0-2-2ZM22,17V5H20V17ZM21,4H17V6h4Zm-3.445.168-6-4L10.445,1.832l6,4Zm-7.109-4-6,4L5.555,5.832l6-4ZM5,4H1V6H5ZM0,5V17H2V5ZM0,17a3,3,0,0,0,.879,2.121l1.414-1.414A1,1,0,0,1,2,17Zm.879,2.121A3,3,0,0,0,3,20V18a1,1,0,0,1-.707-.293ZM3,20H19V18H3Zm16,0a3,3,0,0,0,2.121-.879l-1.414-1.414A1,1,0,0,1,19,18Zm2.121-.879A3,3,0,0,0,22,17H20a1,1,0,0,1-.293.707ZM4,14v.01H6V14Zm0-4v.01H6V10Zm12,4v.01h2V14Zm0-4v.01h2V10Zm-2,9V14H12v5Zm0-5a3,3,0,0,0-.879-2.121l-1.414,1.414A1,1,0,0,1,12,14Zm-.879-2.121A3,3,0,0,0,11,11v2a1,1,0,0,1,.707.293ZM11,11a3,3,0,0,0-2.121.879l1.414,1.414A1,1,0,0,1,11,13Zm-2.121.879A3,3,0,0,0,8,14h2a1,1,0,0,1,.293-.707ZM8,14v5h2V14Z" transform="translate(0 0)" fill="#09090b"/>
</svg>
