<svg id="users" xmlns="http://www.w3.org/2000/svg" width="22" height="20" viewBox="0 0 22 20">
  <path id="Vector" d="M14,19a1,1,0,0,0,2,0Zm1-2h0Zm-4-4v0ZM5,13v0ZM1,17H1ZM0,19a1,1,0,0,0,2,0Zm20,0a1,1,0,1,0,2,0Zm1-2h0Zm-2.75-4.838a1,1,0,0,0-.5,1.936Zm-3-12a1,1,0,1,0-.5,1.937ZM18.008,5h0ZM14.752,7.911a1,1,0,1,0,.5,1.938ZM16,19V17H14v2Zm0-2a5,5,0,0,0-1.465-3.535l-1.414,1.414A3,3,0,0,1,14,17Zm-1.465-3.535A5,5,0,0,0,11,12v2a3,3,0,0,1,2.121.879ZM11,12H5v2h6ZM5,12a5,5,0,0,0-3.536,1.465l1.414,1.414A3,3,0,0,1,5,14ZM1.464,13.465A5,5,0,0,0,0,17H2a3,3,0,0,1,.879-2.121ZM0,17v2H2V17ZM11,5A3,3,0,0,1,8,8v2a5,5,0,0,0,5-5ZM8,8A3,3,0,0,1,5,5H3a5,5,0,0,0,5,5ZM5,5A3,3,0,0,1,8,2V0A5,5,0,0,0,3,5ZM8,2a3,3,0,0,1,3,3h2A5,5,0,0,0,8,0ZM22,19V17H20v2Zm0-2a5,5,0,0,0-1.048-3.06l-1.581,1.225A3,3,0,0,1,20,17Zm-1.048-3.06a5,5,0,0,0-2.7-1.778l-.5,1.936a3,3,0,0,1,1.621,1.067ZM14.752,2.1a3,3,0,0,1,1.626,1.067l1.58-1.226A5,5,0,0,0,15.248.161Zm1.626,1.067A3,3,0,0,1,17.008,5h2a5,5,0,0,0-1.05-3.066ZM17.008,5a3,3,0,0,1-.63,1.84l1.58,1.226A5,5,0,0,0,19.008,5Zm-.63,1.84a3,3,0,0,1-1.626,1.067l.5,1.938a5,5,0,0,0,2.71-1.778Z" fill="#09090b"/>
</svg>
