<svg id="user-round-minus" xmlns="http://www.w3.org/2000/svg" width="22" height="20" viewBox="0 0 22 20">
  <path id="Vector" d="M0,19a1,1,0,1,0,2,0Zm13.63-5.25a1,1,0,0,0,1.323-1.5ZM21,18a1,1,0,0,0,0-2Zm-6-2a1,1,0,0,0,0,2ZM2,19a7,7,0,0,1,1.119-3.8l-1.68-1.085A9,9,0,0,0,0,19Zm1.119-3.8a7,7,0,0,1,3-2.583L5.3,10.8a9,9,0,0,0-3.858,3.321Zm3-2.583a7,7,0,0,1,3.922-.542l.3-1.978a9,9,0,0,0-5.042.7Zm3.922-.542A7,7,0,0,1,13.63,13.75l1.323-1.5A9,9,0,0,0,10.34,10.1ZM13,6a4,4,0,0,1-4,4v2a6,6,0,0,0,6-6ZM9,10A4,4,0,0,1,5,6H3a6,6,0,0,0,6,6ZM5,6A4,4,0,0,1,9,2V0A6,6,0,0,0,3,6ZM9,2a4,4,0,0,1,4,4h2A6,6,0,0,0,9,0ZM21,16H15v2h6Z" fill="#09090b"/>
</svg>
