<svg id="user-round" xmlns="http://www.w3.org/2000/svg" width="18" height="20" viewBox="0 0 18 20">
  <path id="Vector" d="M9,11v0Zm7,8a1,1,0,0,0,2,0ZM0,19a1,1,0,0,0,2,0ZM13,6a4,4,0,0,1-4,4v2a6,6,0,0,0,6-6ZM9,10A4,4,0,0,1,5,6H3a6,6,0,0,0,6,6ZM5,6A4,4,0,0,1,9,2V0A6,6,0,0,0,3,6ZM9,2a4,4,0,0,1,4,4h2A6,6,0,0,0,9,0Zm9,17a9,9,0,0,0-2.636-6.364L13.95,14.05A7,7,0,0,1,16,19Zm-2.636-6.364A9,9,0,0,0,9,10v2a7,7,0,0,1,4.95,2.05ZM9,10a9,9,0,0,0-6.364,2.636L4.05,14.05A7,7,0,0,1,9,12ZM2.636,12.636A9,9,0,0,0,0,19H2a7,7,0,0,1,2.05-4.95Z" fill="#09090b"/>
</svg>
