<svg id="user-plus" xmlns="http://www.w3.org/2000/svg" width="22" height="20" viewBox="0 0 22 20">
  <path id="Vector" d="M14,19a1,1,0,0,0,2,0Zm1-2h0Zm-4-4v0ZM5,13v0ZM1,17H1ZM0,19a1,1,0,0,0,2,0ZM19,6a1,1,0,0,0-2,0Zm-2,6a1,1,0,0,0,2,0Zm4-2a1,1,0,0,0,0-2ZM15,8a1,1,0,0,0,0,2Zm1,11V17H14v2Zm0-2a5,5,0,0,0-1.465-3.535l-1.414,1.414A3,3,0,0,1,14,17Zm-1.465-3.535A5,5,0,0,0,11,12v2a3,3,0,0,1,2.121.879ZM11,12H5v2h6ZM5,12a5,5,0,0,0-3.536,1.465l1.414,1.414A3,3,0,0,1,5,14ZM1.464,13.465A5,5,0,0,0,0,17H2a3,3,0,0,1,.879-2.121ZM0,17v2H2V17ZM11,5A3,3,0,0,1,8,8v2a5,5,0,0,0,5-5ZM8,8A3,3,0,0,1,5,5H3a5,5,0,0,0,5,5ZM5,5A3,3,0,0,1,8,2V0A5,5,0,0,0,3,5ZM8,2a3,3,0,0,1,3,3h2A5,5,0,0,0,8,0Zm9,4v6h2V6Zm4,2H15v2h6Z" fill="#09090b"/>
</svg>
