<svg id="utensils" xmlns="http://www.w3.org/2000/svg" width="20" height="22" viewBox="0 0 20 22">
  <path id="Vector" d="M2,1A1,1,0,0,0,0,1Zm8,0A1,1,0,0,0,8,1ZM6,1A1,1,0,0,0,4,1ZM4,21a1,1,0,0,0,2,0ZM19,1h1a1,1,0,0,0-1-1ZM14,6h0Zm4,15a1,1,0,0,0,2,0ZM0,1V8H2V1ZM0,8a3.006,3.006,0,0,0,3,3V9A1.006,1.006,0,0,1,2,8Zm3,3H7V9H3Zm4,0a3,3,0,0,0,2.121-.879L7.707,8.707A1,1,0,0,1,7,9Zm2.121-.879A3,3,0,0,0,10,8H8a1,1,0,0,1-.293.707ZM10,8V1H8V8ZM4,1V21H6V1ZM20,14V1H18V14ZM19,0a6,6,0,0,0-4.243,1.757l1.414,1.414A4,4,0,0,1,19,2ZM14.757,1.757A6,6,0,0,0,13,6h2a4,4,0,0,1,1.172-2.828ZM13,6v6h2V6Zm0,6a3.006,3.006,0,0,0,3,3V13a1.006,1.006,0,0,1-1-1Zm3,3h3V13H16Zm2-1v7h2V14Z" fill="#09090b"/>
</svg>
