<svg id="variable" xmlns="http://www.w3.org/2000/svg" width="18" height="20" viewBox="0 0 18 20">
  <path id="Vector" d="M4.4,19.8a1,1,0,0,0,1.2-1.6Zm1.2-18A1,1,0,0,0,4.4.2Zm8-1.6a1,1,0,0,0-1.2,1.6Zm-1.2,18a1,1,0,0,0,1.2,1.6Zm.307-10.493a1,1,0,1,0-1.414-1.414ZM5.293,12.293a1,1,0,0,0,1.414,1.414Zm1.414-6A1,1,0,0,0,5.293,7.707Zm4.586,7.414a1,1,0,0,0,1.414-1.414ZM5,19c.6-.8.6-.8.6-.8h0l0,0-.021-.017c-.021-.017-.055-.045-.1-.084-.092-.079-.229-.2-.4-.37A10.131,10.131,0,0,1,3.832,16.2,11.017,11.017,0,0,1,2,10H0a13.016,13.016,0,0,0,2.168,7.3,12.124,12.124,0,0,0,1.5,1.84c.207.207.382.365.509.474.064.055.115.1.153.127l.046.036.015.011.005,0h0s0,0,.6-.8ZM2,10A11.017,11.017,0,0,1,3.832,3.8,10.129,10.129,0,0,1,5.082,2.27c.168-.168.305-.291.4-.37.046-.039.08-.067.1-.084L5.6,1.8l0,0h0s0,0-.6-.8S4.4.2,4.4.2h0l0,0-.005,0L4.376.218,4.33.254c-.038.03-.089.073-.153.127-.127.109-.3.267-.509.474a12.127,12.127,0,0,0-1.5,1.84A13.016,13.016,0,0,0,0,10ZM13,1c-.6.8-.6.8-.6.8h0l0,0,.021.017c.021.017.055.045.1.084.092.079.229.2.4.37A10.124,10.124,0,0,1,14.168,3.8,11.016,11.016,0,0,1,16,10h2a13.016,13.016,0,0,0-2.168-7.3,12.132,12.132,0,0,0-1.5-1.84C14.125.648,13.95.49,13.823.381c-.064-.055-.115-.1-.153-.127L13.624.218,13.609.207,13.6.2l0,0h0s0,0-.6.8Zm3,9a11.016,11.016,0,0,1-1.832,6.2,10.127,10.127,0,0,1-1.25,1.535c-.168.168-.305.291-.4.37-.046.039-.08.067-.1.084L12.4,18.2l0,0h0s0,0,.6.8.6.8.6.8h0l.005,0,.015-.011.046-.036c.038-.03.09-.073.153-.127.127-.109.3-.267.509-.474a12.129,12.129,0,0,0,1.5-1.84A13.016,13.016,0,0,0,18,10ZM11.293,6.293l-6,6,1.414,1.414,6-6Zm-6,1.414,6,6,1.414-1.414-6-6Z" transform="translate(0 0)" fill="#09090b"/>
</svg>
