<svg id="videotape" xmlns="http://www.w3.org/2000/svg" width="22" height="18" viewBox="0 0 22 18">
  <path id="Vector" d="M1,4A1,1,0,0,0,1,6ZM21,6a1,1,0,0,0,0-2ZM3,2H19V0H3ZM19,2a1,1,0,0,1,1,1h2a3,3,0,0,0-3-3Zm1,1V15h2V3Zm0,12a1,1,0,0,1-1,1v2a3,3,0,0,0,3-3Zm-1,1H3v2H19ZM3,16a1,1,0,0,1-1-1H0a3,3,0,0,0,3,3ZM2,15V3H0V15ZM2,3A1,1,0,0,1,3,2V0A3,3,0,0,0,0,3ZM1,6H21V4H1Zm7,5a1,1,0,0,1-1,1v2a3,3,0,0,0,3-3ZM7,12a1,1,0,0,1-1-1H4a3,3,0,0,0,3,3ZM6,11a1,1,0,0,1,1-1V8a3,3,0,0,0-3,3Zm1-1a1,1,0,0,1,1,1h2A3,3,0,0,0,7,8Zm0,0h8V8H7Zm9,1a1,1,0,0,1-1,1v2a3,3,0,0,0,3-3Zm-1,1a1,1,0,0,1-1-1H12a3,3,0,0,0,3,3Zm-1-1a1,1,0,0,1,1-1V8a3,3,0,0,0-3,3Zm1-1a1,1,0,0,1,1,1h2a3,3,0,0,0-3-3Z" fill="#09090b"/>
</svg>
