<svg id="volume-2" xmlns="http://www.w3.org/2000/svg" width="21.998" height="16.14" viewBox="0 0 21.998 16.14">
  <path id="Vector" d="M10,1.07h1A1,1,0,0,0,9.375.289Zm-5,4v1a1,1,0,0,0,.625-.219Zm-4,0v-1a1,1,0,0,0-1,1Zm0,6H0a1,1,0,0,0,1,1Zm4,0,.625-.781A1,1,0,0,0,5,10.07Zm5,4-.625.781A1,1,0,0,0,11,15.07ZM15.247,3.823a1,1,0,1,0-1.415,1.414Zm-1.415,7.07a1,1,0,0,0,1.415,1.414ZM18.777.293a1,1,0,1,0-1.414,1.414Zm-1.414,14.14a1,1,0,1,0,1.414,1.414ZM9.375.289l-5,4L5.625,5.851l5-4ZM5,4.07H1v2H5Zm-5,1v6H2v-6Zm1,7H5v-2H1Zm3.375-.219,5,4,1.249-1.562-5-4ZM11,15.07v-14H9v14Zm2.833-9.833A4,4,0,0,1,15,8.065h2a6,6,0,0,0-1.757-4.242ZM15,8.065a4,4,0,0,1-1.171,2.828l1.415,1.414A6,6,0,0,0,17,8.065Zm2.359-6.358A9,9,0,0,1,20,8.07h2A11,11,0,0,0,18.777.293ZM20,8.07a9,9,0,0,1-2.635,6.363l1.414,1.414A11,11,0,0,0,22,8.07Z" transform="translate(0 0)" fill="#09090b"/>
</svg>
