<svg id="wallpaper" xmlns="http://www.w3.org/2000/svg" width="22" height="20" viewBox="0 0 22 20">
  <path id="Vector" d="M7.293,14.293a1,1,0,0,0,1.414,1.414ZM14.1,8.9l-.7-.714-.007.007Zm2.81.01.707-.707,0,0ZM19,1V1ZM3,1V1ZM1,3H1ZM1,13H1Zm6,5a1,1,0,0,0,0,2Zm8,2a1,1,0,0,0,0-2Zm-3-5a1,1,0,0,0-2,0Zm-2,4a1,1,0,0,0,2,0ZM8,7A1,1,0,0,1,7,8v2a3,3,0,0,0,3-3ZM7,8A1,1,0,0,1,6,7H4a3,3,0,0,0,3,3ZM6,7A1,1,0,0,1,7,6V4A3,3,0,0,0,4,7ZM7,6A1,1,0,0,1,8,7h2A3,3,0,0,0,7,4Zm1.707,9.707,6.1-6.1L13.393,8.193l-6.1,6.1ZM14.8,9.614a1,1,0,0,1,.7-.286l.007-2a3,3,0,0,0-2.111.857Zm.7-.286a1,1,0,0,1,.7.291L17.615,8.2a3,3,0,0,0-2.1-.872Zm.7.289,4.09,4.09,1.414-1.414L17.617,8.2ZM22,13V3H20V13ZM22,3A3,3,0,0,0,21.121.879L19.707,2.293A1,1,0,0,1,20,3ZM21.121.879A3,3,0,0,0,19,0V2a1,1,0,0,1,.707.293ZM19,0H3V2H19ZM3,0A3,3,0,0,0,.879.879L2.293,2.293A1,1,0,0,1,3,2ZM.879.879A3,3,0,0,0,0,3H2a1,1,0,0,1,.293-.707ZM0,3V13H2V3ZM0,13a3,3,0,0,0,.879,2.121l1.414-1.414A1,1,0,0,1,2,13Zm.879,2.121A3,3,0,0,0,3,16V14a1,1,0,0,1-.707-.293ZM3,16H19V14H3Zm16,0a3,3,0,0,0,2.121-.879l-1.414-1.414A1,1,0,0,1,19,14Zm2.121-.879A3,3,0,0,0,22,13H20a1,1,0,0,1-.293.707ZM7,20h8V18H7Zm3-5v4h2V15Z" fill="#09090b"/>
</svg>
