<svg id="wallet" xmlns="http://www.w3.org/2000/svg" width="21" height="20" viewBox="0 0 21 20">
  <path id="Vector" d="M16,5a1,1,0,0,0,2,0Zm0-4V1ZM3,1V1ZM1,3H1ZM3,5V5Zm11,7h0ZM1,17H1ZM18,5V2H16V5Zm0-3A2,2,0,0,0,17.414.586L16,2h2ZM17.414.586A2,2,0,0,0,16,0V2h0ZM16,0H3V2H16ZM3,0A3,3,0,0,0,.879.879L2.293,2.293A1,1,0,0,1,3,2ZM.879.879A3,3,0,0,0,0,3H2a1,1,0,0,1,.293-.707ZM0,3A3,3,0,0,0,.879,5.121L2.293,3.707A1,1,0,0,1,2,3ZM.879,5.121A3,3,0,0,0,3,6V4a1,1,0,0,1-.707-.293ZM3,6H18V4H3ZM18,6h0l1.414-1.414A2,2,0,0,0,18,4Zm0,0h2a2,2,0,0,0-.586-1.414Zm0,0v4h2V6Zm1,3H16v2h3ZM16,9a3,3,0,0,0-2.121.879l1.414,1.414A1,1,0,0,1,16,11Zm-2.121.879A3,3,0,0,0,13,12h2a1,1,0,0,1,.293-.707ZM13,12a3,3,0,0,0,.879,2.121l1.414-1.414A1,1,0,0,1,15,12Zm.879,2.121A3,3,0,0,0,16,15V13a1,1,0,0,1-.707-.293ZM16,15h3V13H16Zm3,0a2,2,0,0,0,1.414-.586L19,13h0Zm1.414-.586A2,2,0,0,0,21,13H19ZM21,13V11H19v2Zm0-2a2,2,0,0,0-.586-1.414L19,11h2Zm-.586-1.414A2,2,0,0,0,19,9v2h0ZM0,3V17H2V3ZM0,17a3,3,0,0,0,.879,2.121l1.414-1.414A1,1,0,0,1,2,17Zm.879,2.121A3,3,0,0,0,3,20V18a1,1,0,0,1-.707-.293ZM3,20H18V18H3Zm15,0a2,2,0,0,0,1.414-.586L18,18h0Zm1.414-.586A2,2,0,0,0,20,18H18ZM20,18V14H18v4Z" fill="#09090b"/>
</svg>
