<svg id="washing-machine" xmlns="http://www.w3.org/2000/svg" width="20" height="22" viewBox="0 0 20 22">
  <path id="Vector" d="M1,4A1,1,0,0,0,1,6ZM4,6A1,1,0,0,0,4,4ZM15,4a1,1,0,0,0,0,2Zm.01,2a1,1,0,0,0,0-2ZM10,7V7ZM1,6H4V4H1ZM15,6h.01V4H15ZM3,2H17V0H3ZM17,2a1,1,0,0,1,1,1h2a3,3,0,0,0-3-3Zm1,1V19h2V3Zm0,16a1,1,0,0,1-1,1v2a3,3,0,0,0,3-3Zm-1,1H3v2H17ZM3,20a1,1,0,0,1-1-1H0a3,3,0,0,0,3,3ZM2,19V3H0V19ZM2,3A1,1,0,0,1,3,2V0A3,3,0,0,0,0,3Zm12,9a4,4,0,0,1-4,4v2a6,6,0,0,0,6-6Zm-4,4a4,4,0,0,1-4-4H4a6,6,0,0,0,6,6ZM6,12a4,4,0,0,1,4-4V6a6,6,0,0,0-6,6Zm4-4a4,4,0,0,1,4,4h2a6,6,0,0,0-6-6Zm0,10a3.5,3.5,0,0,0,2.475-1.025l-1.414-1.414A1.5,1.5,0,0,1,10,16Zm2.475-1.025A3.5,3.5,0,0,0,13.5,14.5h-2a1.5,1.5,0,0,1-.439,1.061ZM13.5,14.5a3.5,3.5,0,0,0-1.025-2.475l-1.414,1.414A1.5,1.5,0,0,1,11.5,14.5Zm-1.025-2.475A3.5,3.5,0,0,0,10,11v2a1.5,1.5,0,0,1,1.061.439ZM10,11a1.5,1.5,0,0,1-1.061-.439L7.525,11.975A3.5,3.5,0,0,0,10,13Zm-1.061-.439A1.5,1.5,0,0,1,8.5,9.5h-2a3.5,3.5,0,0,0,1.025,2.475ZM8.5,9.5a1.5,1.5,0,0,1,.439-1.061L7.525,7.025A3.5,3.5,0,0,0,6.5,9.5Zm.439-1.061A1.5,1.5,0,0,1,10,8V6A3.5,3.5,0,0,0,7.525,7.025Z" fill="#09090b"/>
</svg>
