<svg id="watch" xmlns="http://www.w3.org/2000/svg" width="14" height="21.971" viewBox="0 0 14 21.971">
  <path id="Vector" d="M8,9A1,1,0,0,0,6,9ZM7,11H6a1,1,0,0,0,.293.707Zm.293,1.707a1,1,0,1,0,1.414-1.414Zm2.856-5.851a1,1,0,1,0,1.961-.392ZM10.32,2.61l-.981.195h0ZM8.32,1V2h.019ZM5.64,1,5.621,2H5.64Zm-2,1.61-.981-.195v.006ZM1.878,6.471a1,1,0,0,0,1.964.378ZM3.86,15.164a1,1,0,0,0-1.961.392Zm-.181,4.2.981-.195h0Zm2,1.61v-1H5.661Zm2.72,0,.019-1H8.4Zm2-1.61-.981-.2h0Zm1.791-3.854a1,1,0,0,0-1.961-.392ZM12,11a5,5,0,0,1-5,5v2a7,7,0,0,0,7-7ZM7,16a5,5,0,0,1-5-5H0a7,7,0,0,0,7,7ZM2,11A5,5,0,0,1,7,6V4a7,7,0,0,0-7,7ZM7,6a5,5,0,0,1,5,5h2A7,7,0,0,0,7,4ZM6,9v2H8V9Zm.293,2.707,1,1,1.414-1.414-1-1ZM12.11,6.464l-.81-4.05-1.961.392.81,4.05ZM11.3,2.416A3,3,0,0,0,10.239.663L8.985,2.221a1,1,0,0,1,.354.584ZM10.239.663A3,3,0,0,0,8.3,0l.038,2a1,1,0,0,1,.646.221ZM8.32,0H5.64V2H8.32ZM5.659,0A3,3,0,0,0,3.72.663L4.974,2.221A1,1,0,0,1,5.621,2ZM3.72.663A3,3,0,0,0,2.659,2.416l1.962.39a1,1,0,0,1,.354-.584ZM2.658,2.421l-.78,4.05,1.964.378.78-4.05ZM1.9,15.557l.8,4,1.961-.392-.8-4Zm.8,4A3,3,0,0,0,3.76,21.308L5.014,19.75a1,1,0,0,1-.354-.584ZM3.76,21.308A3,3,0,0,0,5.7,21.97l-.038-2a1,1,0,0,1-.646-.221Zm1.92.663H8.4v-2H5.68Zm2.7,0a3,3,0,0,0,1.939-.663L9.065,19.75a1,1,0,0,1-.646.221Zm1.939-.663a3,3,0,0,0,1.061-1.752l-1.962-.39a1,1,0,0,1-.354.584Zm1.061-1.751.81-4.05-1.961-.392-.81,4.05Z" transform="translate(0 0)" fill="#09090b"/>
</svg>
