<svg id="waves" xmlns="http://www.w3.org/2000/svg" width="22" height="16" viewBox="0 0 22 16">
  <path id="Vector" d="M1.64,1.232A1,1,0,1,0,.36,2.768ZM20.36,2.768a1,1,0,0,0,1.28-1.536ZM1.64,7.232A1,1,0,1,0,.36,8.768ZM20.36,8.768a1,1,0,0,0,1.28-1.536ZM1.64,13.232A1,1,0,1,0,.36,14.768Zm18.72,1.536a1,1,0,0,0,1.28-1.536Zm-20-12a5.73,5.73,0,0,0,1.192.819A4.361,4.361,0,0,0,3.5,4V2a2.375,2.375,0,0,1-1.077-.213,3.855,3.855,0,0,1-.783-.556ZM3.5,4a4.321,4.321,0,0,0,1.917-.411,6.209,6.209,0,0,0,1.208-.808,4.341,4.341,0,0,1,.824-.567A2.33,2.33,0,0,1,8.5,2V0A4.321,4.321,0,0,0,6.583.411a6.209,6.209,0,0,0-1.208.808,4.341,4.341,0,0,1-.824.567A2.33,2.33,0,0,1,3.5,2Zm5-2a2.375,2.375,0,0,1,1.077.213,3.855,3.855,0,0,1,.783.556,5.729,5.729,0,0,0,1.192.819A4.361,4.361,0,0,0,13.5,4V2a2.375,2.375,0,0,1-1.077-.213,3.856,3.856,0,0,1-.783-.556A5.73,5.73,0,0,0,10.448.412,4.361,4.361,0,0,0,8.5,0Zm5,2a4.321,4.321,0,0,0,1.917-.411,6.211,6.211,0,0,0,1.208-.808,4.338,4.338,0,0,1,.824-.567A2.329,2.329,0,0,1,18.5,2V0a4.321,4.321,0,0,0-1.917.411,6.211,6.211,0,0,0-1.208.808,4.338,4.338,0,0,1-.824.567A2.329,2.329,0,0,1,13.5,2Zm5-2a2.375,2.375,0,0,1,1.077.213,3.856,3.856,0,0,1,.783.556l1.28-1.536A5.729,5.729,0,0,0,20.448.412,4.361,4.361,0,0,0,18.5,0ZM.36,8.768a5.73,5.73,0,0,0,1.192.819A4.361,4.361,0,0,0,3.5,10V8a2.375,2.375,0,0,1-1.077-.213,3.855,3.855,0,0,1-.783-.556ZM3.5,10a4.321,4.321,0,0,0,1.917-.411,6.209,6.209,0,0,0,1.208-.808,4.341,4.341,0,0,1,.824-.567A2.33,2.33,0,0,1,8.5,8V6a4.321,4.321,0,0,0-1.917.411,6.209,6.209,0,0,0-1.208.808,4.341,4.341,0,0,1-.824.567A2.33,2.33,0,0,1,3.5,8Zm5-2a2.375,2.375,0,0,1,1.077.213,3.855,3.855,0,0,1,.783.556,5.729,5.729,0,0,0,1.192.819A4.361,4.361,0,0,0,13.5,10V8a2.375,2.375,0,0,1-1.077-.213,3.856,3.856,0,0,1-.783-.556,5.73,5.73,0,0,0-1.192-.819A4.361,4.361,0,0,0,8.5,6Zm5,2a4.321,4.321,0,0,0,1.917-.411,6.21,6.21,0,0,0,1.208-.808,4.338,4.338,0,0,1,.824-.567A2.329,2.329,0,0,1,18.5,8V6a4.321,4.321,0,0,0-1.917.411,6.211,6.211,0,0,0-1.208.808,4.338,4.338,0,0,1-.824.567A2.329,2.329,0,0,1,13.5,8Zm5-2a2.375,2.375,0,0,1,1.077.213,3.856,3.856,0,0,1,.783.556l1.28-1.536a5.729,5.729,0,0,0-1.192-.819A4.361,4.361,0,0,0,18.5,6ZM.36,14.768a5.731,5.731,0,0,0,1.192.819A4.362,4.362,0,0,0,3.5,16V14a2.374,2.374,0,0,1-1.077-.213,3.854,3.854,0,0,1-.783-.556ZM3.5,16a4.321,4.321,0,0,0,1.917-.411,6.208,6.208,0,0,0,1.208-.808,4.342,4.342,0,0,1,.824-.567A2.33,2.33,0,0,1,8.5,14V12a4.321,4.321,0,0,0-1.917.411,6.208,6.208,0,0,0-1.208.808,4.342,4.342,0,0,1-.824.567A2.33,2.33,0,0,1,3.5,14Zm5-2a2.374,2.374,0,0,1,1.077.213,3.854,3.854,0,0,1,.783.556,5.73,5.73,0,0,0,1.192.819A4.362,4.362,0,0,0,13.5,16V14a2.374,2.374,0,0,1-1.077-.213,3.854,3.854,0,0,1-.783-.556,5.731,5.731,0,0,0-1.192-.819A4.362,4.362,0,0,0,8.5,12Zm5,2a4.321,4.321,0,0,0,1.917-.411,6.21,6.21,0,0,0,1.208-.808,4.339,4.339,0,0,1,.824-.567A2.329,2.329,0,0,1,18.5,14V12a4.321,4.321,0,0,0-1.917.411,6.21,6.21,0,0,0-1.208.808,4.339,4.339,0,0,1-.824.567A2.329,2.329,0,0,1,13.5,14Zm5-2a2.374,2.374,0,0,1,1.077.213,3.854,3.854,0,0,1,.783.556l1.28-1.536a5.73,5.73,0,0,0-1.192-.819A4.362,4.362,0,0,0,18.5,12Z" transform="translate(0 0)" fill="#09090b"/>
</svg>
