<svg id="waypoints" xmlns="http://www.w3.org/2000/svg" width="22" height="22" viewBox="0 0 22 22">
  <path id="Vector" d="M9.907,6.007A1,1,0,0,0,8.493,4.593ZM4.593,8.493A1,1,0,0,0,6.007,9.907Zm7.5,7.5a1,1,0,1,0,1.414,1.414Zm5.314-2.486a1,1,0,0,0-1.414-1.414ZM12.5,3.5A1.5,1.5,0,0,1,11,5V7a3.5,3.5,0,0,0,3.5-3.5ZM11,5A1.5,1.5,0,0,1,9.5,3.5h-2A3.5,3.5,0,0,0,11,7ZM9.5,3.5A1.5,1.5,0,0,1,11,2V0A3.5,3.5,0,0,0,7.5,3.5ZM11,2a1.5,1.5,0,0,1,1.5,1.5h2A3.5,3.5,0,0,0,11,0ZM8.493,4.593l-3.9,3.9L6.007,9.907l3.9-3.9ZM5,11a1.5,1.5,0,0,1-1.5,1.5v2A3.5,3.5,0,0,0,7,11ZM3.5,12.5A1.5,1.5,0,0,1,2,11H0a3.5,3.5,0,0,0,3.5,3.5ZM2,11A1.5,1.5,0,0,1,3.5,9.5v-2A3.5,3.5,0,0,0,0,11ZM3.5,9.5A1.5,1.5,0,0,1,5,11H7A3.5,3.5,0,0,0,3.5,7.5ZM6,12H16V10H6Zm14-1a1.5,1.5,0,0,1-1.5,1.5v2A3.5,3.5,0,0,0,22,11Zm-1.5,1.5A1.5,1.5,0,0,1,17,11H15a3.5,3.5,0,0,0,3.5,3.5ZM17,11a1.5,1.5,0,0,1,1.5-1.5v-2A3.5,3.5,0,0,0,15,11Zm1.5-1.5A1.5,1.5,0,0,1,20,11h2a3.5,3.5,0,0,0-3.5-3.5Zm-4.993,7.907,3.9-3.9-1.414-1.414-3.9,3.9ZM12.5,18.5A1.5,1.5,0,0,1,11,20v2a3.5,3.5,0,0,0,3.5-3.5ZM11,20a1.5,1.5,0,0,1-1.5-1.5h-2A3.5,3.5,0,0,0,11,22ZM9.5,18.5A1.5,1.5,0,0,1,11,17V15a3.5,3.5,0,0,0-3.5,3.5ZM11,17a1.5,1.5,0,0,1,1.5,1.5h2A3.5,3.5,0,0,0,11,15Z" fill="#09090b"/>
</svg>
