<svg id="webhook-off" xmlns="http://www.w3.org/2000/svg" width="22" height="22" viewBox="0 0 22 22">
  <path id="Vector" d="M16,17a1,1,0,0,0,0-2Zm-5-1-.018,1H11ZM8.5,17.9l-.868-.5,0,.006ZM2.442,14.49A1,1,0,1,0,.7,13.51Zm4.8-12.744A1,1,0,0,0,8.757,3.053Zm6.4,1.8a1,1,0,0,0,1.746-.976ZM4.118,15.528a1,1,0,0,0,1.764.943ZM8.1,10.2l.882.471L9,10.635Zm.98-2.435a1,1,0,0,0-1.846.769Zm10.785,12.36a1,1,0,1,0-1.13-1.65ZM17.01,19a1,1,0,1,0-.02,2Zm.742-7.988a1,1,0,0,0-.3,1.977Zm2.215,4.537a1,1,0,0,0,1.982-.27ZM11.858,4.485a1,1,0,0,0-1.715,1.029ZM10.743,6.515a1,1,0,0,0,1.715-1.029ZM1.707.293A1,1,0,0,0,.293,1.707ZM20.293,21.707a1,1,0,0,0,1.414-1.414ZM16,15H11v2h5Zm-4.982,0a3.166,3.166,0,0,0-2.114.812A5.976,5.976,0,0,0,7.632,17.4l1.736.992a4,4,0,0,1,.83-1.058A1.184,1.184,0,0,1,10.982,17ZM7.629,17.41a2.978,2.978,0,0,1-.756.881l1.235,1.573A4.976,4.976,0,0,0,9.372,18.39Zm-.756.881a2.976,2.976,0,0,1-1.036.525l.539,1.926a4.976,4.976,0,0,0,1.732-.878Zm-1.036.525a2.977,2.977,0,0,1-1.158.089L4.44,20.89a4.975,4.975,0,0,0,1.936-.148ZM4.679,18.9a2.977,2.977,0,0,1-1.1-.361l-.981,1.743a4.976,4.976,0,0,0,1.845.6Zm-1.1-.361a2.975,2.975,0,0,1-.881-.756L1.121,19.023a4.976,4.976,0,0,0,1.474,1.264Zm-.881-.756a2.977,2.977,0,0,1-.525-1.036l-1.926.539a4.977,4.977,0,0,0,.878,1.732Zm-.525-1.036a2.976,2.976,0,0,1-.089-1.158L.095,15.355a4.976,4.976,0,0,0,.148,1.936ZM2.08,15.594a2.976,2.976,0,0,1,.361-1.1L.7,13.51a4.976,4.976,0,0,0-.6,1.845ZM8.757,3.053a3,3,0,0,1,1.161-.828L9.179.367A5,5,0,0,0,7.243,1.747Zm1.161-.828a3,3,0,0,1,1.412-.2l.2-1.99a5,5,0,0,0-2.354.33Zm1.412-.2a3,3,0,0,1,1.344.477l1.1-1.672a5,5,0,0,0-2.24-.795Zm1.344.477a3,3,0,0,1,.972,1.044l1.746-.976A5,5,0,0,0,13.773.832ZM5.882,16.471l3.1-5.8L7.218,9.729l-3.1,5.8ZM9,10.635a3.5,3.5,0,0,0,.348-1.426l-2-.056a1.5,1.5,0,0,1-.149.611Zm.348-1.426A3.5,3.5,0,0,0,9.08,7.765l-1.846.769a1.5,1.5,0,0,1,.115.619Zm9.387,9.266A3,3,0,0,1,17.01,19l-.02,2a5,5,0,0,0,2.875-.875Zm-1.286-5.487a3,3,0,0,1,1.684.862l1.426-1.4a5,5,0,0,0-2.807-1.436Zm1.684.862a3,3,0,0,1,.833,1.7l1.982-.27a5,5,0,0,0-1.389-2.831Zm-8.99-8.336.6,1,1.715-1.029-.6-1ZM.293,1.707l20,20,1.414-1.414-20-20Z" transform="translate(0)" fill="#09090b"/>
</svg>
