<svg id="wheat-off" xmlns="http://www.w3.org/2000/svg" width="22" height="22" viewBox="0 0 22 22">
  <path id="Vector" d="M.293,20.293a1,1,0,0,0,1.414,1.414Zm11.414-8.586a1,1,0,0,0-1.414-1.414Zm1.416-4.244a1,1,0,0,0,1.414,1.414ZM2.47,11.53l-.707-.707h0ZM4,10l.707-.707a1,1,0,0,0-1.414,0Zm1.53,1.53.708-.706h0ZM6.55,14h0ZM4,18l-.707.707h0ZM2.47,16.47l-.709.706h0ZM1.45,14h0ZM7.707,7.707A1,1,0,0,0,6.293,6.293ZM6.47,7.53l-.707-.707h0ZM5.45,10h0Zm1.02,2.47-.708.706h0ZM8,14l-.707.707h0Zm1.53-1.53-.707-.707h0ZM11.5,10.638a1,1,0,0,0-1.981-.275ZM9.044,3.76a1,1,0,1,0,1.732,1Zm1.426-.23.707.707h0ZM12,2l.707-.707a1,1,0,0,0-1.414,0Zm1.53,1.53.709-.705,0,0Zm-.509,4.005A1,1,0,1,0,14.6,8.765ZM19,1V1Zm2,0h1a1,1,0,0,0-1-1ZM17,7V7ZM15,5h0ZM10.47,16.47l.707-.707h0ZM12,18l.707.707a1,1,0,0,0,0-1.414Zm-1.53,1.53.706.708h0ZM8,20.55v0ZM5.53,19.53l-.707.707h0Zm10.177-3.823a1,1,0,0,0-1.414-1.414ZM14.47,15.53l.706.709h0Zm-4.94,0-.707.707h0Zm2.111-3.05a1,1,0,0,0-.281-1.98Zm5.6-1.256a1,1,0,1,0,1,1.732Zm1.23.306-.707-.707h0ZM20,10l.707.707a1,1,0,0,0,0-1.414ZM18.47,8.47l.707-.707,0,0ZM13.236,7.4a1,1,0,0,0,1.229,1.578ZM1.707.293A1,1,0,0,0,.293,1.707ZM20.293,21.707a1,1,0,0,0,1.414-1.414Zm-18.586,0,10-10-1.414-1.414-10,10ZM14.293,6.293l-1.17,1.17,1.414,1.414,1.17-1.17ZM3.177,12.237l1.53-1.53L3.293,9.293l-1.53,1.53Zm.116-1.53,1.53,1.53,1.414-1.414-1.53-1.53Zm1.529,1.529A2.5,2.5,0,0,1,5.55,14h2a4.5,4.5,0,0,0-1.312-3.176ZM5.55,14a2.5,2.5,0,0,1-.729,1.764l1.417,1.411A4.5,4.5,0,0,0,7.55,14Zm-.727,1.763-1.53,1.53,1.414,1.414,1.53-1.53Zm-.116,1.53-1.53-1.53L1.763,17.177l1.53,1.53ZM3.178,15.764A2.5,2.5,0,0,1,2.45,14h-2a4.5,4.5,0,0,0,1.312,3.176ZM2.45,14a2.5,2.5,0,0,1,.729-1.764L1.761,10.824A4.5,4.5,0,0,0,.45,14ZM6.293,6.293l-.53.53L7.177,8.237l.53-.53Zm-.531.531A4.5,4.5,0,0,0,4.45,10h2a2.5,2.5,0,0,1,.729-1.764ZM4.45,10a4.5,4.5,0,0,0,1.312,3.176l1.417-1.411A2.5,2.5,0,0,1,6.45,10Zm1.313,3.177,1.53,1.53,1.414-1.414-1.53-1.53Zm2.944,1.53,1.53-1.53L8.823,11.763l-1.53,1.53Zm1.53-1.53a4.461,4.461,0,0,0,1.263-2.54l-1.981-.275a2.461,2.461,0,0,1-.7,1.4Zm.539-8.417a2.546,2.546,0,0,1,.4-.523L9.763,2.823a4.547,4.547,0,0,0-.719.937Zm.4-.523,1.53-1.53L11.293,1.293l-1.53,1.53Zm.116-1.53,1.53,1.53,1.414-1.414-1.53-1.53Zm1.528,1.528a2.5,2.5,0,0,1,.723,1.612l2-.121a4.5,4.5,0,0,0-1.3-2.9Zm.723,1.612a2.5,2.5,0,0,1-.523,1.688L14.6,8.765a4.5,4.5,0,0,0,.942-3.038ZM19,2h2V0H19Zm1-1V3h2V1Zm0,2a3,3,0,0,1-.879,2.121l1.414,1.414A5,5,0,0,0,22,3Zm-.879,2.121A3,3,0,0,1,17,6V8a5,5,0,0,0,3.535-1.464ZM17,6H15V8h2ZM16,7V5H14V7Zm0-2a3,3,0,0,1,.879-2.121L15.465,1.464A5,5,0,0,0,14,5Zm.879-2.121A3,3,0,0,1,19,2V0a5,5,0,0,0-3.535,1.464Zm-7.116,14.3,1.53,1.53,1.414-1.414-1.53-1.53Zm1.53.116-1.53,1.53,1.414,1.414,1.53-1.53ZM9.764,18.822A2.5,2.5,0,0,1,8,19.55v2a4.5,4.5,0,0,0,3.176-1.312ZM8,19.55a2.5,2.5,0,0,1-1.764-.729L4.824,20.238A4.5,4.5,0,0,0,8,21.55Zm-1.763-.727-1.53-1.53L3.293,18.707l1.53,1.53Zm0-1.644A2.5,2.5,0,0,1,8,16.45v-2a4.5,4.5,0,0,0-3.176,1.312ZM8,16.45a2.5,2.5,0,0,1,1.764.729l1.411-1.417A4.5,4.5,0,0,0,8,14.45Zm6.293-2.157-.53.53,1.414,1.414.53-.53Zm-.529.529A2.5,2.5,0,0,1,12,15.55v2a4.5,4.5,0,0,0,3.176-1.312ZM12,15.55a2.5,2.5,0,0,1-1.764-.729L8.824,16.239A4.5,4.5,0,0,0,12,17.55Zm-1.763-.727-1.53-1.53L7.293,14.707l1.53,1.53Zm0-1.644a2.49,2.49,0,0,1,1.406-.7l-.281-1.98a4.49,4.49,0,0,0-2.534,1.261Zm8-.223a4.541,4.541,0,0,0,.937-.719l-1.414-1.414a2.55,2.55,0,0,1-.523.4Zm.937-.719,1.53-1.53L19.293,9.293l-1.53,1.53Zm1.53-2.944-1.53-1.53L17.763,9.177l1.53,1.53ZM19.176,7.761a4.5,4.5,0,0,0-2.9-1.3l-.121,2a2.5,2.5,0,0,1,1.612.723Zm-2.9-1.3a4.5,4.5,0,0,0-3.038.942l1.229,1.578a2.5,2.5,0,0,1,1.688-.523ZM.293,1.707l20,20,1.414-1.414-20-20Z" fill="#09090b"/>
</svg>
