<svg id="wifi" xmlns="http://www.w3.org/2000/svg" width="22" height="17" viewBox="0 0 22 17">
  <path id="Vector" d="M11,15a1,1,0,1,0,0,2Zm.01,2a1,1,0,0,0,0-2ZM.333,4.074A1,1,0,0,0,1.667,5.565ZM11,1V1Zm9.333,4.565a1,1,0,1,0,1.333-1.491ZM3.3,8.145A1,1,0,0,0,4.7,9.573ZM11,6V6Zm6.3,3.573a1,1,0,0,0,1.4-1.428ZM6.8,11.715a1,1,0,1,0,1.4,1.428Zm7,1.428a1,1,0,0,0,1.4-1.428ZM11,17h.01V15H11ZM1.667,5.565A14,14,0,0,1,11,2V0A16,16,0,0,0,.333,4.074ZM11,2a14,14,0,0,1,9.333,3.565l1.333-1.491A16,16,0,0,0,11,0ZM4.7,9.573A9,9,0,0,1,11,7V5A11,11,0,0,0,3.3,8.145ZM11,7a9,9,0,0,1,6.3,2.573l1.4-1.428A11,11,0,0,0,11,5ZM8.2,13.143A4,4,0,0,1,11,12V10a6,6,0,0,0-4.2,1.715ZM11,12a4,4,0,0,1,2.8,1.143l1.4-1.428A6,6,0,0,0,11,10Z" transform="translate(0)" fill="#09090b"/>
</svg>
