<svg id="worm" xmlns="http://www.w3.org/2000/svg" width="22.002" height="20.065" viewBox="0 0 22.002 20.065">
  <path id="Vector" d="M18.9,10.494A1,1,0,0,0,17.108,9.6ZM15.608,12.6a1,1,0,0,0,1.789.894Zm3.473,3.364a1,1,0,1,0-.9,1.787Zm1.472,2.977a1,1,0,0,0,.9-1.787ZM5.472,6.277,4.98,5.406l-.025.014Zm2.44,1.93.956.294,0-.016Zm-.64,2.08.954.3v0Zm10.16,7.67-.541-.841-.008.005Zm.42-.27.541.841,0,0Zm-2.73-4.21.541.841,0,0Zm-.42.27.536.844,0,0Zm-2.63-1.99-.956-.294,0,.007Zm.64-2.08-.953-.3,0,.009Zm-9.77-7.73.5.868.018-.01Zm-.7.4-.5-.868-.01.006ZM1.081,3.884.113,3.632Zm3.711,2.8.507.862.01-.006ZM17.108,9.6l-1.5,3,1.789.894,1.5-3Zm1.076,8.151,2.37,1.19.9-1.787-2.37-1.19ZM5.964,7.147a.68.68,0,0,1,.387-.086l.155-1.994a2.68,2.68,0,0,0-1.526.339Zm.387-.086a.68.68,0,0,1,.369.145L7.961,5.638a2.68,2.68,0,0,0-1.455-.57Zm.369.145a.68.68,0,0,1,.226.326l1.9-.61a2.68,2.68,0,0,0-.89-1.285Zm.226.326a.68.68,0,0,1,.006.4l1.921.556a2.68,2.68,0,0,0-.022-1.563Zm.01.381-.64,2.08,1.912.588.64-2.08ZM6.317,9.988a7.76,7.76,0,0,0,.017,4.687l1.9-.611a5.76,5.76,0,0,1-.013-3.479Zm.017,4.687A7.76,7.76,0,0,0,9.048,18.5l1.205-1.6a5.76,5.76,0,0,1-2.014-2.837ZM9.048,18.5a7.76,7.76,0,0,0,4.419,1.562l.066-2a5.761,5.761,0,0,1-3.28-1.16Zm4.419,1.562a7.76,7.76,0,0,0,4.513-1.267l-1.1-1.672a5.76,5.76,0,0,1-3.35.941ZM17.973,18.8l.42-.27-1.082-1.682-.42.27Zm.423-.272a3.508,3.508,0,0,0,.981-.955L17.73,16.437a1.51,1.51,0,0,1-.422.411Zm.981-.955a3.508,3.508,0,0,0,.541-1.258L17.962,15.9a1.508,1.508,0,0,1-.233.541Zm.541-1.258a3.51,3.51,0,0,0,.019-1.369l-1.967.363a1.509,1.509,0,0,1-.008.589Zm.019-1.369a3.509,3.509,0,0,0-.507-1.272l-1.678,1.088a1.509,1.509,0,0,1,.218.547Zm-.507-1.272a3.509,3.509,0,0,0-.955-.981l-1.134,1.648a1.508,1.508,0,0,1,.41.422Zm-.955-.981a3.51,3.51,0,0,0-1.257-.541L16.8,14.106a1.511,1.511,0,0,1,.541.233Zm-1.257-.541a3.509,3.509,0,0,0-1.369-.019l.363,1.967a1.511,1.511,0,0,1,.589.008Zm-1.369-.019a3.509,3.509,0,0,0-1.272.507l1.088,1.678a1.51,1.51,0,0,1,.547-.218Zm-1.269.5-.42.27,1.082,1.682.42-.27Zm-.416.267a.76.76,0,0,1-.439.118l-.082,2a2.759,2.759,0,0,0,1.593-.428Zm-.439.118a.761.761,0,0,1-.428-.153l-1.207,1.595a2.76,2.76,0,0,0,1.553.557Zm-.428-.153a.759.759,0,0,1-.264-.37l-1.9.622a2.76,2.76,0,0,0,.958,1.343Zm-.264-.37a.76.76,0,0,1-.006-.454l-1.916-.573a2.76,2.76,0,0,0,.021,1.649Zm-.008-.447.64-2.08-1.911-.588-.64,2.08Zm.637-2.071a7.66,7.66,0,0,0,.024-4.561L11.777,6a5.659,5.659,0,0,1-.018,3.37Zm.024-4.561a7.659,7.659,0,0,0-2.572-3.766L9.876,3.221A5.66,5.66,0,0,1,11.777,6ZM11.117,1.653A7.66,7.66,0,0,0,6.861.016l-.13,2A5.66,5.66,0,0,1,9.876,3.221ZM6.861.016A7.66,7.66,0,0,0,2.428,1.089L3.456,2.8a5.66,5.66,0,0,1,3.275-.793ZM2.446,1.079l-.7.4.992,1.736.7-.4Zm-.71.406A3.517,3.517,0,0,0,.711,2.4L2.306,3.6a1.517,1.517,0,0,1,.442-.394ZM.711,2.4a3.517,3.517,0,0,0-.6,1.235l1.936.5A1.517,1.517,0,0,1,2.306,3.6Zm-.6,1.235A3.517,3.517,0,0,0,.485,6.3L2.209,5.285a1.517,1.517,0,0,1-.16-1.15ZM.485,6.3A3.517,3.517,0,0,0,2.633,7.921l.5-1.936a1.517,1.517,0,0,1-.926-.7ZM2.633,7.921A3.517,3.517,0,0,0,5.3,7.549L4.285,5.825a1.517,1.517,0,0,1-1.15.16Zm2.676-.377.68-.41L4.956,5.42l-.68.41Z" transform="translate(0 0)" fill="#09090b"/>
</svg>
