<svg id="wrap-text" xmlns="http://www.w3.org/2000/svg" width="20" height="16" viewBox="0 0 20 16">
  <path id="Vector" d="M1,0A1,1,0,0,0,1,2ZM19,2a1,1,0,0,0,0-2ZM1,6A1,1,0,0,0,1,8Zm18,4h0Zm-3,3v0Zm-4,0-.707-.707a1,1,0,0,0,0,1.414Zm2.707-1.293a1,1,0,0,0-1.414-1.414Zm-1.414,4a1,1,0,0,0,1.414-1.414ZM1,12a1,1,0,0,0,0,2Zm7,2a1,1,0,0,0,0-2ZM1,2H19V0H1ZM1,8H16V6H1ZM16,8a2,2,0,0,1,1.414.586l1.414-1.414A4,4,0,0,0,16,6Zm1.414.586A2,2,0,0,1,18,10h2a4,4,0,0,0-1.172-2.828ZM18,10a2,2,0,0,1-.586,1.414l1.414,1.414A4,4,0,0,0,20,10Zm-.586,1.414A2,2,0,0,1,16,12v2a4,4,0,0,0,2.828-1.172ZM16,12H12v2h4Zm-2.707-1.707-2,2,1.414,1.414,2-2Zm-2,3.414,2,2,1.414-1.414-2-2ZM1,14H8V12H1Z" fill="#09090b"/>
</svg>
