<svg id="youtube" xmlns="http://www.w3.org/2000/svg" width="22.048" height="16.133" viewBox="0 0 22.048 16.133">
  <path id="Vector" d="M1.524,13.066l-.978.207q.006.029.014.057Zm0-10L.56,2.8q-.008.028-.014.057Zm1.4-1.4L2.76.68A1,1,0,0,0,2.66.7Zm16.2,0L19.388.7a.994.994,0,0,0-.1-.022Zm1.4,1.4.978-.207Q21.5,2.83,21.488,2.8Zm0,10,.964.264q.008-.028.014-.057Zm-1.4,1.4.163.987a1.019,1.019,0,0,0,.1-.022Zm-16.2,0-.264.964a1.022,1.022,0,0,0,.1.022Zm6.1-3.4h-1a1,1,0,0,0,1.514.858Zm5-3,.514.857a1,1,0,0,0,0-1.715Zm-5-3,.514-.858a1,1,0,0,0-1.514.858ZM2.5,12.859a23.12,23.12,0,0,1,0-9.585L.546,2.859a25.12,25.12,0,0,0,0,10.415ZM2.488,3.331a1,1,0,0,1,.257-.443L1.331,1.474A3,3,0,0,0,.56,2.8Zm.257-.443a1,1,0,0,1,.443-.257L2.66.7a3,3,0,0,0-1.328.772Zm.342-.235a48.56,48.56,0,0,1,15.873,0L19.287.68A50.56,50.56,0,0,0,2.76.68ZM18.86,2.631a1,1,0,0,1,.443.257l1.414-1.414A3,3,0,0,0,19.388.7Zm.443.257a1,1,0,0,1,.257.443L21.488,2.8a3,3,0,0,0-.772-1.328Zm.243.386a23.12,23.12,0,0,1,0,9.585l1.957.415a25.118,25.118,0,0,0,0-10.415Zm.014,9.528a1,1,0,0,1-.257.443l1.414,1.414a3,3,0,0,0,.772-1.328Zm-.257.443a1,1,0,0,1-.443.257l.529,1.929a3,3,0,0,0,1.328-.772Zm-.342.235a48.555,48.555,0,0,1-15.873,0L2.76,15.453a50.553,50.553,0,0,0,16.527,0ZM3.188,13.5a1,1,0,0,1-.443-.257L1.331,14.659a3,3,0,0,0,1.328.772Zm-.443-.257a1,1,0,0,1-.257-.443L.56,13.331a3,3,0,0,0,.772,1.328Zm6.793-1.321,5-3L13.509,7.209l-5,3Zm5-4.715-5-3L8.509,5.924l5,3ZM8.024,5.066v6h2v-6Z" transform="translate(0 0)" fill="#09090b"/>
</svg>
