<svg id="zap-off" xmlns="http://www.w3.org/2000/svg" width="22" height="22.005" viewBox="0 0 22 22.005">
  <path id="Vector" d="M8.8,3.162a1,1,0,0,0,1.435,1.393Zm3.325-1.99.718.7.038-.042Zm.86.46.953.3c0-.013.008-.026.012-.039ZM10.65,5.646a1,1,0,0,0,1.905.608ZM14.656,8a1,1,0,0,0,0,2ZM19,9v1h0Zm.78,1.63.718.7c.021-.021.04-.043.059-.066Zm-2.438,1.077A1,1,0,0,0,18.778,13.1Zm-1.352,4.263a1,1,0,1,0-1.435-1.393ZM9.88,20.833l-.718-.7-.038.042Zm-.86-.46-.953-.3-.011.039Zm1.92-6.02L10,14q-.009.023-.016.046ZM10,13v1h0ZM3,13V12H3Zm-.78-1.63-.718-.7q-.031.032-.059.067ZM7.445,7.426A1,1,0,1,0,6.009,6.033ZM1.707.3A1,1,0,0,0,.293,1.71ZM20.293,21.71A1,1,0,1,0,21.707,20.3ZM10.231,4.555l2.607-2.686L11.4.476,8.8,3.162Zm2.645-2.728a.5.5,0,0,1-.287.164L12.225.025a1.5,1.5,0,0,0-.861.493Zm-.287.164a.5.5,0,0,1-.327-.051L13.205.177a1.5,1.5,0,0,0-.98-.152Zm-.327-.051a.5.5,0,0,1-.224-.244L13.876.908a1.5,1.5,0,0,0-.671-.731ZM12.038,1.7a.5.5,0,0,1-.023-.33l1.928.53a1.5,1.5,0,0,0-.068-.99Zm-.011-.369L10.65,5.646l1.905.608,1.377-4.317ZM14.656,10H19V8H14.656ZM19,10h0l1.063-1.694A2,2,0,0,0,19,8Zm0,0h0l1.8-.863a2,2,0,0,0-.741-.831Zm0,0h0l1.986.235a2,2,0,0,0-.182-1.1Zm0,0h0l1.553,1.26a2,2,0,0,0,.433-1.025Zm.059-.066-1.72,1.773L18.778,13.1l1.72-1.773Zm-4.507,4.643L9.162,20.136,10.6,21.529l5.393-5.557Zm-5.431,5.6a.5.5,0,0,1,.287-.164l.364,1.967a1.5,1.5,0,0,0,.861-.493Zm.287-.164a.5.5,0,0,1,.327.051l-.943,1.764a1.5,1.5,0,0,0,.98.152Zm.327.051a.5.5,0,0,1,.224.244L8.124,21.1a1.5,1.5,0,0,0,.671.731Zm.224.244a.5.5,0,0,1,.023.33l-1.928-.53a1.5,1.5,0,0,0,.068.99Zm.011.368,1.92-6.02-1.905-.608-1.92,6.02Zm1.9-5.974a2,2,0,0,0,.111-.95L10,14h0Zm.111-.95a2,2,0,0,0-.343-.893L10,14h0Zm-.343-.893a2,2,0,0,0-.718-.632L10,14h0Zm-.718-.632A2,2,0,0,0,10,12L10,14h0ZM10,12H3v2h7ZM3,12H3L1.933,13.7A2,2,0,0,0,3,14Zm0,0H3l-1.8.863a2,2,0,0,0,.741.831Zm0,0H3L1.01,11.768a2,2,0,0,0,.182,1.1Zm0,0H3l-1.553-1.26a2,2,0,0,0-.433,1.025Zm-.059.067L7.445,7.426,6.009,6.033,1.5,10.676ZM.293,1.71l20,20L21.707,20.3l-20-20Z" transform="translate(0 0)" fill="#09090b"/>
</svg>
