<svg id="a-arrow-up" xmlns="http://www.w3.org/2000/svg" width="22" height="11" viewBox="0 0 22 11">
  <path id="Vector" d="M2.5,6a1,1,0,0,0,0,2Zm6,2a1,1,0,0,0,0-2ZM.106,9.553a1,1,0,1,0,1.789.894ZM5.5,1,6.395.553a1,1,0,0,0-1.789,0Zm3.606,9.447a1,1,0,1,0,1.789-.894ZM16,10a1,1,0,0,0,2,0Zm1-9,.707-.707a1,1,0,0,0-1.414,0ZM12.293,4.293a1,1,0,0,0,1.414,1.414Zm8,1.414a1,1,0,0,0,1.414-1.414ZM2.5,8h6V6h-6Zm-.606,2.447,4.5-9L4.606.553l-4.5,9Zm2.711-9,4.5,9,1.789-.894-4.5-9ZM18,10V1H16v9ZM13.707,5.707l4-4L16.293.293l-4,4Zm2.586-4,4,4,1.414-1.414-4-4Z" transform="translate(0)" fill="#09090b"/>
</svg>
