<svg id="accessibility" xmlns="http://www.w3.org/2000/svg" width="16.979" height="19.962" viewBox="0 0 16.979 19.962">
  <path id="Vector" d="M13.989,16.859a1,1,0,1,0,1.98.283ZM15.979,10l.99.141a1,1,0,0,0-1.154-1.128Zm-6.164.014a1,1,0,0,0,.329,1.973ZM1.271,5.293A1,1,0,0,0,2.686,6.707ZM4.979,3l.479-.878a1,1,0,0,0-1.186.171Zm5.5,3,.829.559a1,1,0,0,0-.35-1.437ZM7.289,8.941a1,1,0,0,0,1.658,1.118ZM2.175,12.792a1,1,0,0,0-1.913-.585Zm6.343,6.615a1,1,0,0,0-.839-1.815Zm1.264-4.2a1,1,0,1,0,1.913.585ZM3.439,8.592a1,1,0,0,0,.839,1.815ZM12.979,2V4a2,2,0,0,0,2-2Zm0,0h-2a2,2,0,0,0,2,2Zm0,0V0a2,2,0,0,0-2,2Zm0,0h2a2,2,0,0,0-2-2Zm2.99,15.141,1-7-1.98-.283-1,7Zm-.154-8.128-6,1,.329,1.973,6-1ZM2.686,6.707l3-3L4.271,2.293l-3,3ZM4.5,3.878l5.5,3,.958-1.756-5.5-3Zm5.15,1.563-2.36,3.5,1.658,1.118,2.36-3.5ZM.262,12.208a6,6,0,0,0-.031,3.4l1.923-.55a4,4,0,0,1,.021-2.269Zm-.031,3.4a6,6,0,0,0,1.825,2.873l1.315-1.507a4,4,0,0,1-1.217-1.915Zm1.825,2.873A6,6,0,0,0,5.151,19.9l.283-1.98a4,4,0,0,1-2.063-.945ZM5.151,19.9a6,6,0,0,0,3.367-.493l-.839-1.815a4,4,0,0,1-2.245.329Zm6.544-4.109a6,6,0,0,0,.031-3.4l-1.923.55a4,4,0,0,1-.021,2.269Zm.031-3.4A6,6,0,0,0,9.9,9.516L8.586,11.024A4,4,0,0,1,9.8,12.939ZM9.9,9.516A6,6,0,0,0,6.806,8.1l-.283,1.98a4,4,0,0,1,2.063.945ZM6.806,8.1a6,6,0,0,0-3.367.494l.839,1.815a4,4,0,0,1,2.245-.329Z" transform="translate(0)" fill="#09090b"/>
</svg>
