<svg id="activity" xmlns="http://www.w3.org/2000/svg" width="22" height="22" viewBox="0 0 22 22">
  <path id="Vector" d="M21,12a1,1,0,0,0,0-2Zm-2.48-1,0,1h0Zm-1.93,1.46.963.271h0Zm-2.35,8.36.96.28,0-.009Zm-.48,0-.963.271,0,.009ZM8.24,1.18,9.2.909,9.2.9ZM8,1V1Zm-.24.18L6.8.9l0,.009ZM5.41,9.54l-.963-.271h0ZM3.49,11v1h0ZM1,10a1,1,0,0,0,0,2Zm20,0H18.52v2H21Zm-2.478,0a3,3,0,0,0-1.816.607l1.207,1.6a1,1,0,0,1,.605-.2Zm-1.816.607a3,3,0,0,0-1.079,1.583l1.926.54a1,1,0,0,1,.36-.528Zm-1.078,1.582-2.35,8.36,1.925.541,2.35-8.36ZM13.28,20.54a.75.75,0,0,1,.27-.39l1.2,1.6a1.25,1.25,0,0,0,.45-.65Zm.27-.39A.75.75,0,0,1,14,20v2a1.25,1.25,0,0,0,.75-.25ZM14,20a.75.75,0,0,1,.45.15l-1.2,1.6A1.25,1.25,0,0,0,14,22Zm.45.15a.75.75,0,0,1,.27.39l-1.92.56a1.25,1.25,0,0,0,.45.65Zm.273.4L9.2.909l-1.925.541,5.52,19.64ZM9.2.9A1.25,1.25,0,0,0,8.75.25l-1.2,1.6a.75.75,0,0,1-.27-.39ZM8.75.25A1.25,1.25,0,0,0,8,0V2a.75.75,0,0,1-.45-.15ZM8,0a1.25,1.25,0,0,0-.75.25l1.2,1.6A.75.75,0,0,1,8,2ZM7.25.25A1.25,1.25,0,0,0,6.8.9l1.92.56a.75.75,0,0,1-.27.39ZM6.8.909l-2.35,8.36,1.925.541,2.35-8.36ZM4.447,9.27A1,1,0,0,1,4.09,9.8L5.3,11.388A3,3,0,0,0,6.373,9.81ZM4.09,9.8a1,1,0,0,1-.6.2l.006,2A3,3,0,0,0,5.3,11.388Zm-.6.2H1v2H3.49Z" fill="#09090b"/>
</svg>
