<svg id="airplay" xmlns="http://www.w3.org/2000/svg" width="22" height="20" viewBox="0 0 22 20">
  <path id="Vector" d="M4,16a1,1,0,0,0,0-2ZM1,13H1ZM3,1V1ZM19,1V1ZM18,14a1,1,0,0,0,0,2Zm-7-1,.768-.64a1,1,0,0,0-1.536,0Zm5,6v1a1,1,0,0,0,.768-1.64ZM6,19l-.768-.64A1,1,0,0,0,6,20ZM4,14H3v2H4ZM3,14a1,1,0,0,1-.707-.293L.879,15.121A3,3,0,0,0,3,16Zm-.707-.293A1,1,0,0,1,2,13H0a3,3,0,0,0,.879,2.121ZM2,13V3H0V13ZM2,3a1,1,0,0,1,.293-.707L.879.879A3,3,0,0,0,0,3Zm.293-.707A1,1,0,0,1,3,2V0A3,3,0,0,0,.879.879ZM3,2H19V0H3ZM19,2a1,1,0,0,1,.707.293L21.121.879A3,3,0,0,0,19,0Zm.707.293A1,1,0,0,1,20,3h2A3,3,0,0,0,21.121.879ZM20,3V13h2V3Zm0,10a1,1,0,0,1-.293.707l1.414,1.414A3,3,0,0,0,22,13Zm-.293.707A1,1,0,0,1,19,14v2a3,3,0,0,0,2.121-.879ZM19,14H18v2h1Zm-8.768-.36,5,6,1.536-1.28-5-6ZM16,18H6v2H16ZM6.768,19.64l5-6-1.536-1.28-5,6Z" fill="#09090b"/>
</svg>
