<svg id="alarm-clock-minus" xmlns="http://www.w3.org/2000/svg" width="22" height="20" viewBox="0 0 22 20">
  <path id="Vector" d="M4.707,1.707A1,1,0,0,0,3.293.293ZM.293,3.293A1,1,0,0,0,1.707,4.707Zm20,1.414a1,1,0,0,0,1.414-1.414ZM18.707.293a1,1,0,0,0-1.414,1.414ZM6.075,17.419a1,1,0,1,0-1.39-1.438Zm-3.77.862a1,1,0,1,0,1.39,1.438Zm15.037-2.323a1,1,0,0,0-1.405,1.423Zm.955,3.753A1,1,0,0,0,19.7,18.288ZM8,10a1,1,0,0,0,0,2Zm6,2a1,1,0,0,0,0-2Zm4-1a7,7,0,0,1-7,7v2a9,9,0,0,0,9-9Zm-7,7a7,7,0,0,1-7-7H2a9,9,0,0,0,9,9ZM4,11a7,7,0,0,1,7-7V2a9,9,0,0,0-9,9Zm7-7a7,7,0,0,1,7,7h2a9,9,0,0,0-9-9ZM3.293.293l-3,3L1.707,4.707l3-3Zm18.414,3-3-3L17.293,1.707l3,3ZM4.685,15.981l-2.38,2.3,1.39,1.438,2.38-2.3Zm11.252,1.4,2.36,2.33L19.7,18.288l-2.36-2.33ZM8,12h6V10H8Z" fill="#09090b"/>
</svg>
