<svg id="album" xmlns="http://www.w3.org/2000/svg" width="20" height="20" viewBox="0 0 20 20">
  <path id="Vector" d="M10,1A1,1,0,0,0,8,1ZM9,9H8a1,1,0,0,0,1.707.707Zm3-3,.707-.707a1,1,0,0,0-1.414,0Zm3,3-.707.707A1,1,0,0,0,16,9Zm1-8a1,1,0,0,0-2,0ZM3,2H17V0H3ZM17,2a1,1,0,0,1,1,1h2a3,3,0,0,0-3-3Zm1,1V17h2V3Zm0,14a1,1,0,0,1-1,1v2a3,3,0,0,0,3-3Zm-1,1H3v2H17ZM3,18a1,1,0,0,1-1-1H0a3,3,0,0,0,3,3ZM2,17V3H0V17ZM2,3A1,1,0,0,1,3,2V0A3,3,0,0,0,0,3ZM8,1V9h2V1ZM9.707,9.707l3-3L11.293,5.293l-3,3Zm1.586-3,3,3,1.414-1.414-3-3ZM16,9V1H14V9Z" fill="#09090b"/>
</svg>
