<svg id="align-end-horizontal" xmlns="http://www.w3.org/2000/svg" width="22" height="22" viewBox="0 0 22 22">
  <path id="Vector" d="M21,22a1,1,0,0,0,0-2ZM1,20a1,1,0,0,0,0,2ZM5,2H7V0H5ZM7,2A1,1,0,0,1,8,3h2A3,3,0,0,0,7,0ZM8,3V15h2V3ZM8,15a1,1,0,0,1-1,1v2a3,3,0,0,0,3-3ZM7,16H5v2H7ZM5,16a1,1,0,0,1-1-1H2a3,3,0,0,0,3,3ZM4,15V3H2V15ZM4,3A1,1,0,0,1,5,2V0A3,3,0,0,0,2,3ZM15,9h2V7H15Zm2,0a1,1,0,0,1,1,1h2a3,3,0,0,0-3-3Zm1,1v5h2V10Zm0,5a1,1,0,0,1-1,1v2a3,3,0,0,0,3-3Zm-1,1H15v2h2Zm-2,0a1,1,0,0,1-1-1H12a3,3,0,0,0,3,3Zm-1-1V10H12v5Zm0-5a1,1,0,0,1,1-1V7a3,3,0,0,0-3,3Zm7,10H1v2H21Z" fill="#09090b"/>
</svg>
