<svg id="align-vertical-justify-start" xmlns="http://www.w3.org/2000/svg" width="22" height="22" viewBox="0 0 22 22">
  <path id="Vector" d="M1,0A1,1,0,0,0,1,2ZM21,2a1,1,0,0,0,0-2ZM6,16H16V14H6Zm10,0a1,1,0,0,1,1,1h2a3,3,0,0,0-3-3Zm1,1v2h2V17Zm0,2a1,1,0,0,1-1,1v2a3,3,0,0,0,3-3Zm-1,1H6v2H16ZM6,20a1,1,0,0,1-1-1H3a3,3,0,0,0,3,3ZM5,19V17H3v2Zm0-2a1,1,0,0,1,1-1V14a3,3,0,0,0-3,3ZM8,6h6V4H8Zm6,0a1,1,0,0,1,1,1h2a3,3,0,0,0-3-3Zm1,1V9h2V7Zm0,2a1,1,0,0,1-1,1v2a3,3,0,0,0,3-3Zm-1,1H8v2h6ZM8,10A1,1,0,0,1,7,9H5a3,3,0,0,0,3,3ZM7,9V7H5V9ZM7,7A1,1,0,0,1,8,6V4A3,3,0,0,0,5,7ZM1,2H21V0H1Z" fill="#09090b"/>
</svg>
