<svg id="align-start-vertical" xmlns="http://www.w3.org/2000/svg" width="22" height="22" viewBox="0 0 22 22">
  <path id="Vector" d="M2,1A1,1,0,0,0,0,1ZM0,21a1,1,0,0,0,2,0Zm7-7h5V12H7Zm5,0a1,1,0,0,1,1,1h2a3,3,0,0,0-3-3Zm1,1v2h2V15Zm0,2a1,1,0,0,1-1,1v2a3,3,0,0,0,3-3Zm-1,1H7v2h5ZM7,18a1,1,0,0,1-1-1H4a3,3,0,0,0,3,3ZM6,17V15H4v2Zm0-2a1,1,0,0,1,1-1V12a3,3,0,0,0-3,3ZM7,4H19V2H7ZM19,4a1,1,0,0,1,1,1h2a3,3,0,0,0-3-3Zm1,1V7h2V5Zm0,2a1,1,0,0,1-1,1v2a3,3,0,0,0,3-3ZM19,8H7v2H19ZM7,8A1,1,0,0,1,6,7H4a3,3,0,0,0,3,3ZM6,7V5H4V7ZM6,5A1,1,0,0,1,7,4V2A3,3,0,0,0,4,5ZM0,1V21H2V1Z" fill="#09090b"/>
</svg>
