<svg id="align-horizontal-distribute-center" xmlns="http://www.w3.org/2000/svg" width="18" height="22" viewBox="0 0 18 22">
  <path id="Vector" d="M13,21a1,1,0,0,0,2,0Zm2-5a1,1,0,0,0-2,0ZM13,6a1,1,0,0,0,2,0Zm2-5a1,1,0,0,0-2,0ZM3,21a1,1,0,0,0,2,0Zm2-3a1,1,0,0,0-2,0ZM3,4A1,1,0,0,0,5,4ZM5,1A1,1,0,0,0,3,1ZM3,5H5V3H3ZM5,5A1,1,0,0,1,6,6H8A3,3,0,0,0,5,3ZM6,6V16H8V6ZM6,16a1,1,0,0,1-1,1v2a3,3,0,0,0,3-3ZM5,17H3v2H5ZM3,17a1,1,0,0,1-1-1H0a3,3,0,0,0,3,3ZM2,16V6H0V16ZM2,6A1,1,0,0,1,3,5V3A3,3,0,0,0,0,6ZM13,7h2V5H13Zm2,0a1,1,0,0,1,1,1h2a3,3,0,0,0-3-3Zm1,1v6h2V8Zm0,6a1,1,0,0,1-1,1v2a3,3,0,0,0,3-3Zm-1,1H13v2h2Zm-2,0a1,1,0,0,1-1-1H10a3,3,0,0,0,3,3Zm-1-1V8H10v6Zm0-6a1,1,0,0,1,1-1V5a3,3,0,0,0-3,3Zm3,13V16H13v5ZM15,6V1H13V6ZM5,21V18H3v3ZM5,4V1H3V4Z" fill="#09090b"/>
</svg>
