<svg id="align-start-horizontal" xmlns="http://www.w3.org/2000/svg" width="22" height="22" viewBox="0 0 22 22">
  <path id="Vector" d="M21,2a1,1,0,0,0,0-2ZM1,0A1,1,0,0,0,1,2ZM5,6H7V4H5ZM7,6A1,1,0,0,1,8,7h2A3,3,0,0,0,7,4ZM8,7V19h2V7ZM8,19a1,1,0,0,1-1,1v2a3,3,0,0,0,3-3ZM7,20H5v2H7ZM5,20a1,1,0,0,1-1-1H2a3,3,0,0,0,3,3ZM4,19V7H2V19ZM4,7A1,1,0,0,1,5,6V4A3,3,0,0,0,2,7ZM15,6h2V4H15Zm2,0a1,1,0,0,1,1,1h2a3,3,0,0,0-3-3Zm1,1v5h2V7Zm0,5a1,1,0,0,1-1,1v2a3,3,0,0,0,3-3Zm-1,1H15v2h2Zm-2,0a1,1,0,0,1-1-1H12a3,3,0,0,0,3,3Zm-1-1V7H12v5Zm0-5a1,1,0,0,1,1-1V4a3,3,0,0,0-3,3Zm7-7H1V2H21Z" fill="#09090b"/>
</svg>
