<svg id="align-center-horizontal" xmlns="http://www.w3.org/2000/svg" width="22" height="22" viewBox="0 0 22 22">
  <path id="Vector" d="M1,10a1,1,0,0,0,0,2Zm20,2a1,1,0,0,0,0-2ZM10,15a1,1,0,0,0-2,0ZM3,19H3Zm1-4a1,1,0,0,0-2,0ZM8,7a1,1,0,0,0,2,0ZM7,1V1ZM5,1V1ZM3,3H3ZM2,7A1,1,0,0,0,4,7Zm18,8a1,1,0,0,0-2,0Zm-6,0a1,1,0,0,0-2,0ZM12,7a1,1,0,0,0,2,0Zm5-3V4Zm1,3a1,1,0,0,0,2,0ZM1,12H21V10H1Zm7,3v4h2V15Zm0,4a1,1,0,0,1-.293.707l1.414,1.414A3,3,0,0,0,10,19Zm-.293.707A1,1,0,0,1,7,20v2a3,3,0,0,0,2.121-.879ZM7,20H5v2H7ZM5,20a1,1,0,0,1-.707-.293L2.879,21.121A3,3,0,0,0,5,22Zm-.707-.293A1,1,0,0,1,4,19H2a3,3,0,0,0,.879,2.121ZM4,19V15H2v4ZM10,7V3H8V7Zm0-4A3,3,0,0,0,9.121.879L7.707,2.293A1,1,0,0,1,8,3ZM9.121.879A3,3,0,0,0,7,0V2a1,1,0,0,1,.707.293ZM7,0H5V2H7ZM5,0A3,3,0,0,0,2.879.879L4.293,2.293A1,1,0,0,1,5,2ZM2.879.879A3,3,0,0,0,2,3H4a1,1,0,0,1,.293-.707ZM2,3V7H4V3ZM18,15v1h2V15Zm0,1a1,1,0,0,1-.293.707l1.414,1.414A3,3,0,0,0,20,16Zm-.293.707A1,1,0,0,1,17,17v2a3,3,0,0,0,2.121-.879ZM17,17H15v2h2Zm-2,0a1,1,0,0,1-.707-.293l-1.414,1.414A3,3,0,0,0,15,19Zm-.707-.293A1,1,0,0,1,14,16H12a3,3,0,0,0,.879,2.121ZM14,16V15H12v1Zm0-9V6H12V7Zm0-1a1.006,1.006,0,0,1,1-1V3a3.006,3.006,0,0,0-3,3Zm1-1h2V3H15Zm2,0a1,1,0,0,1,.707.293l1.414-1.414A3,3,0,0,0,17,3Zm.707.293A1,1,0,0,1,18,6h2a3,3,0,0,0-.879-2.121ZM18,6V7h2V6Z" fill="#09090b"/>
</svg>
