<svg id="ambulance" xmlns="http://www.w3.org/2000/svg" width="22" height="18" viewBox="0 0 22 18">
  <path id="Vector" d="M9,8A1,1,0,0,0,9,6ZM5,6A1,1,0,0,0,5,8Zm7,9a1,1,0,0,0,2,0ZM11,1V1ZM3,1V1ZM1,3H1ZM1,14H1Zm20-3.28h0Zm-.684-.948L20,10.721h0Zm-1.923-.641-.317.948h0Zm-.578-.5.895-.446h0ZM16.276,5.553,15.381,6h0ZM15.382,5V4h0ZM13,4a1,1,0,0,0,0,2ZM8,5A1,1,0,0,0,6,5ZM6,9A1,1,0,0,0,8,9ZM9,6H5V8H9Zm5,9V3H12V15ZM14,3A3,3,0,0,0,13.121.879L11.707,2.293A1,1,0,0,1,12,3ZM13.121.879A3,3,0,0,0,11,0V2a1,1,0,0,1,.707.293ZM11,0H3V2h8ZM3,0A3,3,0,0,0,.879.879L2.293,2.293A1,1,0,0,1,3,2ZM.879.879A3,3,0,0,0,0,3H2a1,1,0,0,1,.293-.707ZM0,3V14H2V3ZM0,14a2,2,0,0,0,.586,1.414L2,14H0Zm.586,1.414A2,2,0,0,0,2,16V14H2ZM2,16H4V14H2Zm16,0h2V14H18Zm2,0a2,2,0,0,0,1.414-.586L20,14h0Zm1.414-.586A2,2,0,0,0,22,14H20ZM22,14V10.72H20V14Zm0-3.281a2,2,0,0,0-.378-1.169L20,10.721h0Zm-.378-1.169a2,2,0,0,0-.99-.727L20,10.721h0Zm-.99-.727-1.923-.641-.632,1.9L20,10.721ZM18.71,8.182h0L17.4,9.693a2,2,0,0,0,.678.387Zm0,0h0l-1.79.893a2,2,0,0,0,.478.617Zm0,0L17.17,5.106,15.382,6l1.539,3.076ZM17.17,5.106a2,2,0,0,0-.737-.807L15.381,6h0ZM16.434,4.3A2,2,0,0,0,15.382,4V6h0ZM15.382,4H13V6h2.382ZM6,5V9H8V5ZM8,16h6V14H8Zm9-1a1,1,0,0,1-1,1v2a3,3,0,0,0,3-3Zm-1,1a1,1,0,0,1-1-1H13a3,3,0,0,0,3,3Zm-1-1a1,1,0,0,1,1-1V12a3,3,0,0,0-3,3Zm1-1a1,1,0,0,1,1,1h2a3,3,0,0,0-3-3ZM7,15a1,1,0,0,1-1,1v2a3,3,0,0,0,3-3ZM6,16a1,1,0,0,1-1-1H3a3,3,0,0,0,3,3ZM5,15a1,1,0,0,1,1-1V12a3,3,0,0,0-3,3Zm1-1a1,1,0,0,1,1,1H9a3,3,0,0,0-3-3Z" fill="#09090b"/>
</svg>
