<svg id="ampersand" xmlns="http://www.w3.org/2000/svg" width="16" height="18" viewBox="0 0 16 18">
  <path id="Vector" d="M14.5,9a1,1,0,0,0-2,0ZM1,12.5H1ZM6,1V1Zm8.572,16.9a1,1,0,1,0,.856-1.807ZM12,8a1,1,0,0,0,0,2Zm3,2a1,1,0,0,0,0-2ZM12.5,9a7.024,7.024,0,0,1-7,7v2a9.023,9.023,0,0,0,9-9Zm-7,7a3.5,3.5,0,0,1-2.475-1.025L1.611,16.389A5.5,5.5,0,0,0,5.5,18ZM3.025,14.975A3.5,3.5,0,0,1,2,12.5H0a5.5,5.5,0,0,0,1.611,3.889ZM2,12.5a3.233,3.233,0,0,1,.946-2.508A7.5,7.5,0,0,1,5.376,8.614,14.4,14.4,0,0,0,8.334,7.195,3.743,3.743,0,0,0,10,4H8a1.756,1.756,0,0,1-.834,1.571,12.886,12.886,0,0,1-2.543,1.19A9.367,9.367,0,0,0,1.554,8.555,5.221,5.221,0,0,0,0,12.5ZM10,4A4,4,0,0,0,8.828,1.172L7.414,2.586A2,2,0,0,1,8,4ZM8.828,1.172A4,4,0,0,0,6,0V2a2,2,0,0,1,1.414.586ZM6,0A4,4,0,0,0,3.172,1.172L4.586,2.586A2,2,0,0,1,6,2ZM3.172,1.172A4,4,0,0,0,2,4H4a2,2,0,0,1,.586-1.414ZM2,4c0,3.532,2.877,9.311,12.572,13.9l.856-1.807C6.123,11.688,4,6.468,4,4Zm10,6h3V8H12Z" fill="#09090b"/>
</svg>
