<svg id="anchor" xmlns="http://www.w3.org/2000/svg" width="22" height="22" viewBox="0 0 22 22">
  <path id="Vector" d="M4,12a1,1,0,0,0,0-2ZM1,11V10a1,1,0,0,0-1,1Zm20,0h1a1,1,0,0,0-1-1Zm-3-1a1,1,0,0,0,0,2ZM12,21V7H10V21ZM4,10H1v2H4ZM0,11a11,11,0,0,0,3.222,7.778l1.414-1.414A9,9,0,0,1,2,11Zm3.222,7.778A11,11,0,0,0,11,22V20a9,9,0,0,1-6.364-2.636ZM11,22a11,11,0,0,0,7.778-3.222l-1.414-1.414A9,9,0,0,1,11,20Zm7.778-3.222A11,11,0,0,0,22,11H20a9,9,0,0,1-2.636,6.364ZM21,10H18v2h3ZM13,4a2,2,0,0,1-2,2V8a4,4,0,0,0,4-4ZM11,6A2,2,0,0,1,9,4H7a4,4,0,0,0,4,4ZM9,4a2,2,0,0,1,2-2V0A4,4,0,0,0,7,4Zm2-2a2,2,0,0,1,2,2h2a4,4,0,0,0-4-4Z" fill="#09090b"/>
</svg>
