<svg id="angry" xmlns="http://www.w3.org/2000/svg" width="22" height="22" viewBox="0 0 22 22">
  <path id="Vector" d="M14.2,15.6a1,1,0,1,0,1.6-1.2Zm-8-1.2a1,1,0,0,0,1.6,1.2Zm.671-8.328a1,1,0,0,0-.743,1.857ZM8.629,8.928a1,1,0,1,0,.743-1.857Zm4-1.857a1,1,0,1,0,.743,1.857Zm3.243.857a1,1,0,1,0-.743-1.857ZM8,8a1,1,0,0,0,0,2Zm.01,2a1,1,0,0,0,0-2ZM14,8a1,1,0,0,0,0,2Zm.01,2a1,1,0,0,0,0-2ZM20,11a9,9,0,0,1-9,9v2A11,11,0,0,0,22,11Zm-9,9a9,9,0,0,1-9-9H0A11,11,0,0,0,11,22ZM2,11a9,9,0,0,1,9-9V0A11,11,0,0,0,0,11Zm9-9a9,9,0,0,1,9,9h2A11,11,0,0,0,11,0Zm4,13,.8-.6h0v0l0,0-.007-.009-.021-.027-.07-.086c-.059-.07-.142-.165-.248-.276a6.944,6.944,0,0,0-.923-.8A5.987,5.987,0,0,0,11,12v2a3.99,3.99,0,0,1,2.349.809,4.953,4.953,0,0,1,.655.571c.073.076.127.138.16.177l.034.041,0,.006h0v0h0L15,15Zm-4-3a5.987,5.987,0,0,0-3.526,1.191,6.942,6.942,0,0,0-.923.8c-.106.111-.189.206-.248.276l-.07.086-.021.027-.007.009,0,0v0h0L7,15l.8.6h0v0h0l0-.006.034-.041c.033-.04.087-.1.16-.177a4.952,4.952,0,0,1,.655-.571A3.991,3.991,0,0,1,11,14ZM6.129,7.928l2.5,1,.743-1.857-2.5-1Zm7.243,1,2.5-1-.743-1.857-2.5,1ZM8,10h.01V8H8Zm6,0h.01V8H14Z" fill="#09090b"/>
</svg>
