<svg id="anvil" xmlns="http://www.w3.org/2000/svg" width="22" height="19" viewBox="0 0 22 19">
  <path id="Vector" d="M6,8A1,1,0,0,0,6,6ZM5,7V7ZM1,3H1ZM2,2V2ZM7,1V1ZM21,2h0ZM9,9A1,1,0,0,0,7,9ZM7,14a1,1,0,0,0,2,0Zm6,0a1,1,0,0,0,2,0ZM7,14v0Zm8,0v0Zm3,3h0ZM6,6H5V8H6ZM5,6a3,3,0,0,1-2.121-.879L1.464,6.536A5,5,0,0,0,5,8ZM2.879,5.121A3,3,0,0,1,2,3H0A5,5,0,0,0,1.464,6.536ZM2,3H2L.586,1.586A2,2,0,0,0,0,3ZM2,3H2V1a2,2,0,0,0-1.414.586ZM2,3H6V1H2ZM7,2H7L5.586.586A2,2,0,0,0,5,2ZM7,2H7V0A2,2,0,0,0,5.586.586ZM7,2H20V0H7ZM20,2h0L21.414.586A2,2,0,0,0,20,0Zm0,0h2A2,2,0,0,0,21.414.586Zm0,0a6,6,0,0,1-1.757,4.243l1.414,1.414A8,8,0,0,0,22,2ZM18.243,6.243A6,6,0,0,1,14,8v2a8,8,0,0,0,5.657-2.343ZM14,8H7v2h7ZM7,8H7L5.586,9.414A2,2,0,0,0,7,10ZM7,8H5a2,2,0,0,0,.586,1.414ZM7,8V2H5V8ZM7,9v5H9V9Zm6,0v5h2V9ZM5,17a2,2,0,0,1,.586-1.414L4.172,14.172A4,4,0,0,0,3,17Zm.586-1.414A2,2,0,0,1,7,15V13a4,4,0,0,0-2.828,1.172ZM7,15h8V13H7Zm8,0a2,2,0,0,1,1.414.586l1.414-1.414A4,4,0,0,0,15,13Zm1.414.586A2,2,0,0,1,17,17h2a4,4,0,0,0-1.172-2.828ZM17,17h0l1.414,1.414A2,2,0,0,0,19,17Zm0,0h0v2a2,2,0,0,0,1.414-.586Zm0,0H5v2H17ZM5,17H5L3.586,18.414A2,2,0,0,0,5,19Zm0,0H3a2,2,0,0,0,.586,1.414Z" fill="#09090b"/>
</svg>
