<svg id="aperture" xmlns="http://www.w3.org/2000/svg" width="22" height="22" viewBox="0 0 22 22">
  <path id="Vector" d="M14.176,6.5a1,1,0,1,0-1.732,1Zm4.008,10.94a1,1,0,1,0,1.732-1ZM8.69,6a1,1,0,0,0,0,2ZM20.17,8a1,1,0,0,0,0-2ZM5.514,10.5a1,1,0,0,0,1.732,1Zm7.472-8.94a1,1,0,0,0-1.732-1ZM7.824,15.5a1,1,0,0,0,1.732-1ZM3.816,4.56a1,1,0,0,0-1.732,1ZM13.31,16a1,1,0,1,0,0-2ZM1.83,14a1,1,0,0,0,0,2Zm14.656-2.5a1,1,0,1,0-1.732-1ZM9.014,20.44a1,1,0,1,0,1.732,1ZM20,11a9,9,0,0,1-9,9v2A11,11,0,0,0,22,11Zm-9,9a9,9,0,0,1-9-9H0A11,11,0,0,0,11,22ZM2,11a9,9,0,0,1,9-9V0A11,11,0,0,0,0,11Zm9-9a9,9,0,0,1,9,9h2A11,11,0,0,0,11,0Zm1.444,5.5,5.74,9.94,1.732-1L14.176,6.5ZM8.69,8H20.17V6H8.69ZM7.246,11.5l5.74-9.94-1.732-1L5.514,10.5Zm2.31,3L3.816,4.56l-1.732,1,5.74,9.94ZM13.31,14H1.83v2H13.31Zm1.444-3.5-5.74,9.94,1.732,1,5.74-9.94Z" fill="#09090b"/>
</svg>
