<svg id="apple" xmlns="http://www.w3.org/2000/svg" width="22" height="22" viewBox="0 0 22 22">
  <path id="Vector" d="M21,8.78h1q0-.013,0-.026ZM16,4V5h.019ZM11,6l-.489.873a1,1,0,0,0,.977,0ZM6,4,5.979,5H6ZM1,8.78,0,8.756q0,.012,0,.024ZM9.447.106a1,1,0,1,0-.894,1.789ZM11,20.94a4.683,4.683,0,0,1,1.719.457A6.212,6.212,0,0,0,15,22V20a4.509,4.509,0,0,1-1.532-.457A6.555,6.555,0,0,0,11,18.94ZM15,22a4.1,4.1,0,0,0,2.961-1.663,14.3,14.3,0,0,0,2.078-3.458A22.089,22.089,0,0,0,22,8.78H20a20.161,20.161,0,0,1-1.789,7.286,12.362,12.362,0,0,1-1.766,2.965C15.8,19.78,15.3,20,15,20ZM22,8.754a5.911,5.911,0,0,0-1.824-4.116L18.794,6.083A3.91,3.91,0,0,1,20,8.807ZM20.176,4.638A5.91,5.91,0,0,0,15.981,3l.037,2a3.91,3.91,0,0,1,2.775,1.083ZM16,3a7.54,7.54,0,0,0-3.41.9c-.463.235-.878.486-1.229.7-.37.231-.628.4-.85.524l.977,1.745c.278-.156.618-.377.932-.573.333-.208.69-.423,1.074-.618A5.558,5.558,0,0,1,16,5ZM11.489,5.128c-.222-.124-.48-.293-.85-.524-.351-.219-.766-.47-1.229-.7A7.54,7.54,0,0,0,6,3V5a5.558,5.558,0,0,1,2.505.682c.384.2.741.409,1.074.618.314.2.654.418.932.573ZM6.021,3a5.9,5.9,0,0,0-4.2,1.634L3.2,6.08A3.9,3.9,0,0,1,5.979,5Zm-4.2,1.634A5.9,5.9,0,0,0,0,8.756L2,8.8A3.9,3.9,0,0,1,3.2,6.08ZM0,8.78a22.09,22.09,0,0,0,1.961,8.1,14.3,14.3,0,0,0,2.078,3.458A4.094,4.094,0,0,0,7,22V20c-.3,0-.8-.221-1.446-.969a12.36,12.36,0,0,1-1.766-2.965A20.16,20.16,0,0,1,2,8.78ZM7,22a6.212,6.212,0,0,0,2.281-.6A4.684,4.684,0,0,1,11,20.94v-2a6.554,6.554,0,0,0-2.468.6A4.509,4.509,0,0,1,7,20ZM8.553,1.895C9.061,2.149,10,3.171,10,6h2C12,2.83,10.939.852,9.447.106Z" transform="translate(0 0)" fill="#09090b"/>
</svg>
