<svg id="arrow-up-z-a" xmlns="http://www.w3.org/2000/svg" width="19" height="18" viewBox="0 0 19 18">
  <path id="Vector" d="M.293,4.293A1,1,0,0,0,1.707,5.707ZM5,1,5.707.293a1,1,0,0,0-1.414,0ZM8.293,5.707A1,1,0,1,0,9.707,4.293ZM4,17a1,1,0,0,0,2,0ZM13,0a1,1,0,0,0,0,2Zm5,1,.768.64A1,1,0,0,0,18,0ZM13,7l-.768-.64A1,1,0,0,0,13,8Zm5,1a1,1,0,0,0,0-2Zm-6,9a1,1,0,0,0,2,0Zm6-3.5h0ZM17,17a1,1,0,0,0,2,0Zm1-1a1,1,0,0,0,0-2Zm-5-2a1,1,0,0,0,0,2ZM1.707,5.707l4-4L4.293.293l-4,4Zm2.586-4,4,4L9.707,4.293l-4-4ZM4,1V17H6V1Zm9,1h5V0H13ZM17.232.36l-5,6,1.536,1.28,5-6ZM13,8h5V6H13Zm1,9V13.5H12V17Zm0-3.5a1.5,1.5,0,0,1,.439-1.061l-1.414-1.414A3.5,3.5,0,0,0,12,13.5Zm.439-1.061A1.5,1.5,0,0,1,15.5,12V10a3.5,3.5,0,0,0-2.475,1.025ZM15.5,12a1.5,1.5,0,0,1,1.061.439l1.414-1.414A3.5,3.5,0,0,0,15.5,10Zm1.061.439A1.5,1.5,0,0,1,17,13.5h2a3.5,3.5,0,0,0-1.025-2.475ZM17,13.5V17h2V13.5Zm1,.5H13v2h5Z" transform="translate(0 0)" fill="#09090b"/>
</svg>
