<svg id="arrow-up-down" xmlns="http://www.w3.org/2000/svg" width="20" height="18" viewBox="0 0 20 18">
  <path id="Vector" d="M19.707,13.707a1,1,0,0,0-1.414-1.414ZM15,17l-.707.707a1,1,0,0,0,1.414,0Zm-3.293-4.707a1,1,0,0,0-1.414,1.414ZM16,1a1,1,0,0,0-2,0ZM.293,4.293A1,1,0,0,0,1.707,5.707ZM5,1,5.707.293a1,1,0,0,0-1.414,0ZM8.293,5.707A1,1,0,1,0,9.707,4.293ZM4,17a1,1,0,0,0,2,0Zm14.293-4.707-4,4,1.414,1.414,4-4Zm-2.586,4-4-4-1.414,1.414,4,4ZM16,17V1H14V17ZM1.707,5.707l4-4L4.293.293l-4,4Zm2.586-4,4,4L9.707,4.293l-4-4ZM4,1V17H6V1Z" fill="#09090b"/>
</svg>
