<svg id="arrows-up-from-line" xmlns="http://www.w3.org/2000/svg" width="18" height="20" viewBox="0 0 18 20">
  <path id="Vector" d="M.293,3.293A1,1,0,0,0,1.707,4.707ZM4,1,4.707.293a1,1,0,0,0-1.414,0ZM6.293,4.707A1,1,0,0,0,7.707,3.293ZM3,15a1,1,0,0,0,2,0ZM10.293,3.293a1,1,0,0,0,1.414,1.414ZM14,1l.707-.707a1,1,0,0,0-1.414,0Zm2.293,3.707a1,1,0,0,0,1.414-1.414ZM13,15a1,1,0,0,0,2,0ZM1,18a1,1,0,0,0,0,2Zm16,2a1,1,0,0,0,0-2ZM1.707,4.707l3-3L3.293.293l-3,3Zm1.586-3,3,3L7.707,3.293l-3-3ZM5,15V1H3V15ZM11.707,4.707l3-3L13.293.293l-3,3Zm1.586-3,3,3,1.414-1.414-3-3ZM15,15V1H13V15ZM1,20H17V18H1Z" fill="#09090b"/>
</svg>
