<svg id="arrow-right-left" xmlns="http://www.w3.org/2000/svg" width="18" height="20" viewBox="0 0 18 20">
  <path id="Vector" d="M13.707.293a1,1,0,0,0-1.414,1.414ZM17,5l.707.707a1,1,0,0,0,0-1.414ZM12.293,8.293a1,1,0,0,0,1.414,1.414ZM1,4A1,1,0,0,0,1,6ZM4.293,19.707a1,1,0,0,0,1.414-1.414ZM1,15l-.707-.707a1,1,0,0,0,0,1.414Zm4.707-3.293a1,1,0,0,0-1.414-1.414ZM17,16a1,1,0,0,0,0-2ZM12.293,1.707l4,4,1.414-1.414-4-4Zm4,2.586-4,4,1.414,1.414,4-4ZM17,4H1V6H17ZM5.707,18.293l-4-4L.293,15.707l4,4Zm-4-2.586,4-4L4.293,10.293l-4,4ZM1,16H17V14H1Z" fill="#09090b"/>
</svg>
