<svg id="arrow-down-z-a" xmlns="http://www.w3.org/2000/svg" width="19" height="18" viewBox="0 0 19 18">
  <path id="Vector" d="M1.707,12.293A1,1,0,0,0,.293,13.707ZM5,17l-.707.707a1,1,0,0,0,1.414,0Zm4.707-3.293a1,1,0,0,0-1.414-1.414ZM6,1A1,1,0,0,0,4,1Zm7-1a1,1,0,0,0,0,2Zm5,1,.768.64A1,1,0,0,0,18,0ZM13,7l-.768-.64A1,1,0,0,0,13,8Zm5,1a1,1,0,0,0,0-2Zm-6,9a1,1,0,0,0,2,0Zm6-3.5h0ZM17,17a1,1,0,0,0,2,0Zm1-1a1,1,0,0,0,0-2Zm-5-2a1,1,0,0,0,0,2ZM.293,13.707l4,4,1.414-1.414-4-4Zm5.414,4,4-4L8.293,12.293l-4,4ZM4,1V17H6V1Zm9,1h5V0H13ZM17.232.36l-5,6,1.536,1.28,5-6ZM13,8h5V6H13Zm1,9V13.5H12V17Zm0-3.5a1.5,1.5,0,0,1,.439-1.061l-1.414-1.414A3.5,3.5,0,0,0,12,13.5Zm.439-1.061A1.5,1.5,0,0,1,15.5,12V10a3.5,3.5,0,0,0-2.475,1.025ZM15.5,12a1.5,1.5,0,0,1,1.061.439l1.414-1.414A3.5,3.5,0,0,0,15.5,10Zm1.061.439A1.5,1.5,0,0,1,17,13.5h2a3.5,3.5,0,0,0-1.025-2.475ZM17,13.5V17h2V13.5Zm1,.5H13v2h5Z" transform="translate(0 0)" fill="#09090b"/>
</svg>
