<svg id="arrow-big-right-dash" xmlns="http://www.w3.org/2000/svg" width="16" height="16" viewBox="0 0 16 16">
  <path id="Vector" d="M2,5A1,1,0,0,0,0,5ZM0,11a1,1,0,0,0,2,0ZM5,5V4A1,1,0,0,0,4,5ZM8,5V6A1,1,0,0,0,9,5ZM8,1,8.707.293A1,1,0,0,0,7,1Zm7,7,.707.707a1,1,0,0,0,0-1.414ZM8,15H7a1,1,0,0,0,1.707.707Zm0-4H9a1,1,0,0,0-1-1ZM5,11H4a1,1,0,0,0,1,1ZM0,5v6H2V5ZM5,6H8V4H5ZM9,5V1H7V5ZM7.293,1.707l7,7,1.414-1.414-7-7Zm7,5.586-7,7,1.414,1.414,7-7ZM9,15V11H7v4ZM8,10H5v2H8ZM6,11V5H4v6Z" transform="translate(0 0)" fill="#09090b"/>
</svg>
