<svg id="arrow-up-wide-narrow" xmlns="http://www.w3.org/2000/svg" width="20" height="18" viewBox="0 0 20 18">
  <path id="Vector" d="M.293,4.293A1,1,0,0,0,1.707,5.707ZM5,1,5.707.293a1,1,0,0,0-1.414,0ZM8.293,5.707A1,1,0,1,0,9.707,4.293ZM4,17a1,1,0,0,0,2,0ZM9,8a1,1,0,0,0,0,2Zm10,2a1,1,0,0,0,0-2ZM9,12a1,1,0,0,0,0,2Zm7,2a1,1,0,0,0,0-2ZM9,16a1,1,0,0,0,0,2Zm4,2a1,1,0,0,0,0-2ZM1.707,5.707l4-4L4.293.293l-4,4Zm2.586-4,4,4L9.707,4.293l-4-4ZM4,1V17H6V1Zm5,9H19V8H9Zm0,4h7V12H9Zm0,4h4V16H9Z" fill="#09090b"/>
</svg>
