<svg id="arrow-down-0-1" xmlns="http://www.w3.org/2000/svg" width="18" height="18" viewBox="0 0 18 18">
  <path id="Vector" d="M1.707,12.293A1,1,0,0,0,.293,13.707ZM5,17l-.707.707a1,1,0,0,0,1.414,0Zm4.707-3.293a1,1,0,0,0-1.414-1.414ZM6,1A1,1,0,0,0,4,1Zm8,16a1,1,0,0,0,2,0Zm1-6h1a1,1,0,0,0-1-1Zm-2-1a1,1,0,0,0,0,2Zm0,6a1,1,0,0,0,0,2Zm4,2a1,1,0,0,0,0-2ZM.293,13.707l4,4,1.414-1.414-4-4Zm5.414,4,4-4L8.293,12.293l-4,4ZM6,17V1H4V17ZM15,2a1,1,0,0,1,1,1h2a3,3,0,0,0-3-3Zm1,1V5h2V3Zm0,2a1,1,0,0,1-1,1V8a3,3,0,0,0,3-3ZM15,6a1,1,0,0,1-1-1H12a3,3,0,0,0,3,3ZM14,5V3H12V5Zm0-2a1,1,0,0,1,1-1V0a3,3,0,0,0-3,3Zm2,14V11H14v6Zm-1-7H13v2h2Zm-2,8h4V16H13Z" transform="translate(0)" fill="#09090b"/>
</svg>
