<svg id="arrow-down-up" xmlns="http://www.w3.org/2000/svg" width="20" height="18" viewBox="0 0 20 18">
  <path id="Vector" d="M1.707,12.293A1,1,0,0,0,.293,13.707ZM5,17l-.707.707a1,1,0,0,0,1.414,0Zm4.707-3.293a1,1,0,0,0-1.414-1.414ZM6,1A1,1,0,0,0,4,1ZM18.293,5.707a1,1,0,0,0,1.414-1.414ZM15,1l.707-.707a1,1,0,0,0-1.414,0ZM10.293,4.293a1,1,0,0,0,1.414,1.414ZM14,17a1,1,0,0,0,2,0ZM.293,13.707l4,4,1.414-1.414-4-4Zm5.414,4,4-4L8.293,12.293l-4,4ZM6,17V1H4V17ZM19.707,4.293l-4-4L14.293,1.707l4,4Zm-5.414-4-4,4,1.414,1.414,4-4ZM14,1V17h2V1Z" transform="translate(0)" fill="#09090b"/>
</svg>
