<svg id="at-sign" xmlns="http://www.w3.org/2000/svg" width="22" height="22" viewBox="0 0 22 22">
  <path id="Vector" d="M16,7a1,1,0,0,0-2,0Zm-1,5h0Zm6,0h0Zm-3.4,7.8a1,1,0,1,0-1.2-1.6ZM14,11a3,3,0,0,1-3,3v2a5,5,0,0,0,5-5Zm-3,3a3,3,0,0,1-3-3H6a5,5,0,0,0,5,5ZM8,11a3,3,0,0,1,3-3V6a5,5,0,0,0-5,5Zm3-3a3,3,0,0,1,3,3h2a5,5,0,0,0-5-5Zm3-1v5h2V7Zm0,5a4,4,0,0,0,1.172,2.828l1.414-1.414A2,2,0,0,1,16,12Zm1.172,2.828A4,4,0,0,0,18,16V14a2,2,0,0,1-1.414-.586ZM18,16a4,4,0,0,0,2.828-1.172l-1.414-1.414A2,2,0,0,1,18,14Zm2.828-1.172A4,4,0,0,0,22,12H20a2,2,0,0,1-.586,1.414ZM22,12V11H20v1Zm0-1a11,11,0,0,0-2.374-6.826L18.057,5.415A9,9,0,0,1,20,11ZM19.626,4.174a11,11,0,0,0-6.1-3.879l-.46,1.947a9,9,0,0,1,4.99,3.174ZM13.527.294a11,11,0,0,0-7.189.743l.848,1.811a9,9,0,0,1,5.882-.608Zm-7.189.743A11,11,0,0,0,1.161,6.081l1.789.894A9,9,0,0,1,7.186,2.848ZM1.161,6.081a11,11,0,0,0-.929,7.168L2.19,12.84a9,9,0,0,1,.76-5.864ZM.232,13.248a11,11,0,0,0,3.72,6.2L5.233,17.91a9,9,0,0,1-3.043-5.07Zm3.72,6.2A11,11,0,0,0,10.714,22l.052-2A9,9,0,0,1,5.233,17.91ZM10.714,22A11,11,0,0,0,17.6,19.8l-1.2-1.6A9,9,0,0,1,10.766,20Z" transform="translate(0 0)" fill="#09090b"/>
</svg>
