<svg id="atom" xmlns="http://www.w3.org/2000/svg" width="19.991" height="19.991" viewBox="0 0 19.991 19.991">
  <path id="Vector" d="M18.2,18.2l-.705-.709,0,0ZM13.7,6.3,14.4,5.59l0,0ZM1.8,1.8,2.5,2.5l0,0ZM6.3,13.7l-.709.705,0,0Zm7.4,0,.705.709,0,0ZM18.2,1.8l-.709.705,0,0ZM6.3,6.3,5.59,5.587l0,0ZM1.8,18.2,2.5,17.49l0,0ZM10,10v2a2,2,0,0,0,2-2Zm0,0H8a2,2,0,0,0,2,2Zm0,0V8a2,2,0,0,0-2,2Zm0,0h2a2,2,0,0,0-2-2ZM18.9,18.9a3.956,3.956,0,0,0,1.087-2.755,8.785,8.785,0,0,0-.647-3.317A21.663,21.663,0,0,0,14.4,5.59L12.987,7a19.692,19.692,0,0,1,4.483,6.54,6.827,6.827,0,0,1,.519,2.546,1.979,1.979,0,0,1-.5,1.4ZM14.4,5.587A21.66,21.66,0,0,0,7.158.65,8.786,8.786,0,0,0,3.841,0,3.956,3.956,0,0,0,1.087,1.09L2.5,2.5A1.979,1.979,0,0,1,3.9,2a6.829,6.829,0,0,1,2.546.519A19.693,19.693,0,0,1,12.99,7ZM1.09,1.087A3.956,3.956,0,0,0,0,3.841,8.786,8.786,0,0,0,.65,7.158,21.66,21.66,0,0,0,5.587,14.4L7,12.99A19.693,19.693,0,0,1,2.521,6.45,6.829,6.829,0,0,1,2,3.9a1.979,1.979,0,0,1,.5-1.4ZM5.59,14.4a21.663,21.663,0,0,0,7.243,4.937,8.785,8.785,0,0,0,3.317.647A3.956,3.956,0,0,0,18.9,18.9L17.487,17.49a1.979,1.979,0,0,1-1.4.5,6.827,6.827,0,0,1-2.546-.519A19.692,19.692,0,0,1,7,12.987Zm8.814,0a21.662,21.662,0,0,0,4.937-7.243,8.785,8.785,0,0,0,.647-3.317A3.956,3.956,0,0,0,18.9,1.087L17.49,2.5a1.979,1.979,0,0,1,.5,1.4A6.828,6.828,0,0,1,17.47,6.45a19.692,19.692,0,0,1-4.483,6.54ZM18.9,1.09A3.956,3.956,0,0,0,16.149,0,8.786,8.786,0,0,0,12.833.65,21.661,21.661,0,0,0,5.59,5.587L7,7a19.693,19.693,0,0,1,6.54-4.483A6.828,6.828,0,0,1,16.087,2a1.979,1.979,0,0,1,1.4.5ZM5.587,5.59A21.661,21.661,0,0,0,.65,12.833,8.786,8.786,0,0,0,0,16.149,3.956,3.956,0,0,0,1.09,18.9L2.5,17.487a1.979,1.979,0,0,1-.5-1.4,6.828,6.828,0,0,1,.519-2.546A19.693,19.693,0,0,1,7,7ZM1.087,18.9a3.956,3.956,0,0,0,2.755,1.087,8.785,8.785,0,0,0,3.317-.647A21.662,21.662,0,0,0,14.4,14.4L12.99,12.987A19.692,19.692,0,0,1,6.45,17.47a6.828,6.828,0,0,1-2.546.519,1.979,1.979,0,0,1-1.4-.5Z" transform="translate(0 0)" fill="#09090b"/>
</svg>
