<svg id="award" xmlns="http://www.w3.org/2000/svg" width="14" height="21.999" viewBox="0 0 14 21.999">
  <path id="Vector" d="M11.462,11.715a1,1,0,0,0-1.969.35Zm.53,8.7.986-.167v-.008Zm-.81.47.634-.773-.034-.026ZM7.6,18.2l.6-.8h0Zm-1.2,0-.6-.8h0ZM2.819,20.885l-.6-.8-.034.027Zm-.81-.469-.985-.175,0,.011Zm2.5-8.351a1,1,0,1,0-1.969-.35Zm4.985,0,1.515,8.526,1.969-.35-1.515-8.526Zm1.514,8.518a.5.5,0,0,1,.04-.3l1.811.85a1.5,1.5,0,0,0,.121-.887Zm.04-.3a.5.5,0,0,1,.2-.22l1,1.73a1.5,1.5,0,0,0,.605-.66Zm.2-.22A.5.5,0,0,1,11.539,20l-.161,1.994a1.5,1.5,0,0,0,.873-.2ZM11.539,20a.5.5,0,0,1,.277.112l-1.268,1.547a1.5,1.5,0,0,0,.83.335Zm.243.085L8.2,17.4,7,19l3.58,2.687ZM8.2,17.4A2,2,0,0,0,7,17v2H7ZM7,17a2,2,0,0,0-1.2.4L7,19H7Zm-1.2.4L2.22,20.085l1.2,1.6L7,19Zm-3.62,2.713A.5.5,0,0,1,2.462,20l.161,1.993a1.5,1.5,0,0,0,.83-.335ZM2.462,20a.5.5,0,0,1,.291.066l-1,1.731a1.5,1.5,0,0,0,.873.2Zm.291.066a.5.5,0,0,1,.2.219l-1.809.853a1.5,1.5,0,0,0,.605.659Zm.2.22a.5.5,0,0,1,.041.3l-1.973-.329a1.5,1.5,0,0,0,.123.886Zm.039.306,1.514-8.526-1.969-.35L1.024,20.241ZM12,7a5,5,0,0,1-5,5v2a7,7,0,0,0,7-7ZM7,12A5,5,0,0,1,2,7H0a7,7,0,0,0,7,7ZM2,7A5,5,0,0,1,7,2V0A7,7,0,0,0,0,7ZM7,2a5,5,0,0,1,5,5h2A7,7,0,0,0,7,0Z" fill="#09090b"/>
</svg>
