<svg id="battery-warning" xmlns="http://www.w3.org/2000/svg" width="22" height="12.01" viewBox="0 0 22 12.01">
  <path id="Vector" d="M13,0a1,1,0,0,0,0,2Zm2,1V1Zm-2,9a1,1,0,0,0,0,2ZM5,2A1,1,0,0,0,5,0ZM3,1V1ZM1,3H1Zm4,9a1,1,0,0,0,0-2ZM22,5a1,1,0,0,0-2,0ZM20,7a1,1,0,0,0,2,0ZM10,1A1,1,0,0,0,8,1ZM8,7a1,1,0,0,0,2,0Zm2,4a1,1,0,0,0-2,0Zm-2,.01a1,1,0,0,0,2,0ZM13,2h2V0H13Zm2,0a1,1,0,0,1,.707.293L17.121.879A3,3,0,0,0,15,0Zm.707.293A1,1,0,0,1,16,3h2A3,3,0,0,0,17.121.879ZM16,3V9h2V3Zm0,6a1.172,1.172,0,0,1-1,1v2a3.145,3.145,0,0,0,3-3Zm-1,1H13v2h2ZM5,0H3V2H5ZM3,0A3,3,0,0,0,.879.879L2.293,2.293A1,1,0,0,1,3,2ZM.879.879A3,3,0,0,0,0,3H2a1,1,0,0,1,.293-.707ZM0,3V9H2V3ZM0,9a3,3,0,0,0,.918,2.082A3,3,0,0,0,3,12V10a1.021,1.021,0,0,1-.668-.332A1.021,1.021,0,0,1,2,9Zm3,3H5V10H3ZM20,5V7h2V5ZM8,1V7h2V1ZM8,11v.01h2V11Z" fill="#09090b"/>
</svg>
