<svg id="battery-full" xmlns="http://www.w3.org/2000/svg" width="22" height="12" viewBox="0 0 22 12">
  <path id="Vector" d="M22,5a1,1,0,0,0-2,0ZM20,7a1,1,0,0,0,2,0ZM6,5A1,1,0,0,0,4,5ZM4,7A1,1,0,0,0,6,7Zm6-2A1,1,0,0,0,8,5ZM8,7a1,1,0,0,0,2,0Zm6-2a1,1,0,0,0-2,0ZM12,7a1,1,0,0,0,2,0ZM3,2H15V0H3ZM15,2a1,1,0,0,1,1,1h2a3,3,0,0,0-3-3Zm1,1V9h2V3Zm0,6a1,1,0,0,1-1,1v2a3,3,0,0,0,3-3Zm-1,1H3v2H15ZM3,10A1,1,0,0,1,2,9H0a3,3,0,0,0,3,3ZM2,9V3H0V9ZM2,3A1,1,0,0,1,3,2V0A3,3,0,0,0,0,3ZM20,5V7h2V5ZM4,5V7H6V5ZM8,5V7h2V5Zm4,0V7h2V5Z" fill="#09090b"/>
</svg>
