<svg id="beaker" xmlns="http://www.w3.org/2000/svg" width="17" height="20" viewBox="0 0 17 20">
  <path id="Vector" d="M1,0A1,1,0,0,0,1,2ZM16,2a1,1,0,0,0,0-2ZM3.5,1a1,1,0,0,0-2,0Zm-1,16h0Zm13-16a1,1,0,0,0-2,0ZM2.5,11a1,1,0,0,0,0,2Zm12,2a1,1,0,0,0,0-2ZM1,2H16V0H1Zm.5-1V17h2V1Zm0,16a3,3,0,0,0,.879,2.121l1.414-1.414A1,1,0,0,1,3.5,17Zm.879,2.121A3,3,0,0,0,4.5,20V18a1,1,0,0,1-.707-.293ZM4.5,20h8V18h-8Zm8,0a3,3,0,0,0,2.121-.879l-1.414-1.414A1,1,0,0,1,12.5,18Zm2.121-.879A3,3,0,0,0,15.5,17h-2a1,1,0,0,1-.293.707ZM15.5,17V1h-2V17Zm-13-4h12V11H2.5Z" fill="#09090b"/>
</svg>
