<svg id="beer" xmlns="http://www.w3.org/2000/svg" width="20" height="22" viewBox="0 0 20 22">
  <path id="Vector" d="M15,9a1,1,0,0,0,0,2Zm1,1V9h0Zm3,3h0Zm-3,3v1h0Zm-1-1a1,1,0,0,0,0,2ZM8,11a1,1,0,0,0-2,0ZM6,17a1,1,0,0,0,2,0Zm6-6a1,1,0,0,0-2,0Zm-2,6a1,1,0,0,0,2,0ZM3.5,7V7Zm0-5V2Zm11,5V7ZM4,7A1,1,0,0,0,2,7ZM3,19H3ZM16,7a1,1,0,0,0-2,0Zm-1,4h1V9H15Zm1,0a2,2,0,0,1,1.414.586l1.414-1.414A4,4,0,0,0,16,9Zm1.414.586A2,2,0,0,1,18,13h2a4,4,0,0,0-1.172-2.828ZM18,13a2,2,0,0,1-.586,1.414l1.414,1.414A4,4,0,0,0,20,13Zm-.586,1.414A2,2,0,0,1,16,15v2a4,4,0,0,0,2.828-1.172ZM16,15H15v2h1ZM6,11v6H8V11Zm4,0v6h2V11Zm2-5.5a5.181,5.181,0,0,0-1.569.29A4.639,4.639,0,0,1,9,6V8a6.622,6.622,0,0,0,1.989-.29A3.347,3.347,0,0,1,12,7.5ZM9,6a4.639,4.639,0,0,1-1.431-.21A5.181,5.181,0,0,0,6,5.5v2a3.347,3.347,0,0,1,1.011.21A6.622,6.622,0,0,0,9,8ZM6,5.5a5.337,5.337,0,0,0-1.629.295A3.172,3.172,0,0,1,3.5,6V8a4.9,4.9,0,0,0,1.464-.295A3.418,3.418,0,0,1,6,7.5ZM3.5,6a1.5,1.5,0,0,1-1.061-.439L1.025,6.975A3.5,3.5,0,0,0,3.5,8ZM2.439,5.561A1.5,1.5,0,0,1,2,4.5H0A3.5,3.5,0,0,0,1.025,6.975ZM2,4.5a1.5,1.5,0,0,1,.439-1.061L1.025,2.025A3.5,3.5,0,0,0,0,4.5Zm.439-1.061A1.5,1.5,0,0,1,3.5,3V1A3.5,3.5,0,0,0,1.025,2.025ZM3.5,3a3.407,3.407,0,0,1,.9.207A5.413,5.413,0,0,0,6,3.5v-2a3.536,3.536,0,0,1-1.015-.207A5.124,5.124,0,0,0,3.5,1ZM6,3.5a2.11,2.11,0,0,0,1.211-.412c.259-.179.535-.435.7-.577A1.593,1.593,0,0,1,9,2V0A3.551,3.551,0,0,0,6.614.99c-.272.232-.394.352-.542.454-.12.083-.126.056-.072.056ZM9,2a1.509,1.509,0,0,1,1.053.5,7.84,7.84,0,0,0,.713.588A2.166,2.166,0,0,0,12,3.5v-2h0L12,1.5a.513.513,0,0,1-.1-.058A6.554,6.554,0,0,1,11.367,1,3.466,3.466,0,0,0,9,0Zm3,1.5a5.337,5.337,0,0,0,1.629-.295A3.171,3.171,0,0,1,14.5,3V1a4.9,4.9,0,0,0-1.464.295A3.418,3.418,0,0,1,12,1.5ZM14.5,3a1.5,1.5,0,0,1,1.061.439l1.414-1.414A3.5,3.5,0,0,0,14.5,1Zm1.061.439A1.5,1.5,0,0,1,16,4.5h2a3.5,3.5,0,0,0-1.025-2.475ZM16,4.5a1.5,1.5,0,0,1-.439,1.061l1.414,1.414A3.5,3.5,0,0,0,18,4.5Zm-.439,1.061A1.5,1.5,0,0,1,14.5,6V8a3.5,3.5,0,0,0,2.475-1.025ZM14.5,6a3.171,3.171,0,0,1-.871-.205A5.337,5.337,0,0,0,12,5.5v2a3.418,3.418,0,0,1,1.036.205A4.9,4.9,0,0,0,14.5,8ZM2,7V19H4V7ZM2,19a3,3,0,0,0,.879,2.121l1.414-1.414A1,1,0,0,1,4,19Zm.879,2.121A3,3,0,0,0,5,22V20a1,1,0,0,1-.707-.293ZM5,22h8V20H5Zm8,0a3,3,0,0,0,2.121-.879l-1.414-1.414A1,1,0,0,1,13,20Zm2.121-.879A3,3,0,0,0,16,19H14a1,1,0,0,1-.293.707ZM16,19V7H14V19Z" transform="translate(0 0)" fill="#09090b"/>
</svg>
