<svg id="beer-off" xmlns="http://www.w3.org/2000/svg" width="22" height="22" viewBox="0 0 22 22">
  <path id="Vector" d="M13,12a1,1,0,0,0-2,0Zm-2,5a1,1,0,0,0,2,0Zm4-6.53a1,1,0,0,0,2,0ZM17,7a1,1,0,0,0-2,0ZM16,9a1,1,0,0,0,0,2Zm1,1v1h0Zm1.83,3.807a1,1,0,0,0,1.83.807ZM1.707.293A1,1,0,0,0,.293,1.707ZM20.293,21.707a1,1,0,0,0,1.414-1.414ZM5,7A1,1,0,0,0,3,7ZM4,19H4Zm13-3a1,1,0,0,0-2,0ZM6.682,7.524A1,1,0,1,0,6.39,5.546ZM4.5,7V6h0ZM3.439,3.439A1,1,0,1,0,2.025,2.025ZM7.125,1.406A1,1,0,0,0,8.329,3ZM15.5,7V7ZM13,6.5v-1h-.006Zm-1.116-.842a1,1,0,0,0,.547,1.924ZM9,13.6a1,1,0,0,0-2,0ZM7,17a1,1,0,0,0,2,0Zm4-5v5h2V12Zm6-1.53V7H15v3.47ZM16,11h1V9H16Zm1,0a2,2,0,0,1,.953.241l.953-1.759A4,4,0,0,0,17,9Zm.953.241a2,2,0,0,1,.723.666l1.676-1.092a4,4,0,0,0-1.445-1.333Zm.723.666a2,2,0,0,1,.318.93l1.993-.162a4,4,0,0,0-.636-1.86Zm.318.93a2,2,0,0,1-.164.969l1.83.807a4,4,0,0,0,.327-1.939ZM.293,1.707l20,20,1.414-1.414-20-20ZM3,7V19H5V7ZM3,19a3,3,0,0,0,.879,2.121l1.414-1.414A1,1,0,0,1,5,19Zm.879,2.121A3,3,0,0,0,6,22V20a1,1,0,0,1-.707-.293ZM6,22h8V20H6Zm8,0a3,3,0,0,0,2.121-.879l-1.414-1.414A1,1,0,0,1,14,20Zm2.121-.879A3,3,0,0,0,17,19H15a1,1,0,0,1-.293.707ZM17,19V16H15v3ZM6.39,5.546a7.919,7.919,0,0,0-1.21.309A2.417,2.417,0,0,1,4.5,6V8a4.278,4.278,0,0,0,1.269-.234,6.161,6.161,0,0,1,.913-.242ZM4.5,6a1.5,1.5,0,0,1-.833-.253L2.555,7.41A3.5,3.5,0,0,0,4.5,8Zm-.834-.253a1.5,1.5,0,0,1-.553-.673l-1.848.765A3.5,3.5,0,0,0,2.555,7.41Zm-.553-.673a1.5,1.5,0,0,1-.085-.867l-1.962-.39a3.5,3.5,0,0,0,.2,2.022Zm-.085-.867a1.5,1.5,0,0,1,.411-.768L2.025,2.025a3.5,3.5,0,0,0-.958,1.792ZM8.329,3c.181-.136.362-.3.5-.417a4.661,4.661,0,0,1,.4-.325A1.278,1.278,0,0,1,10,2V0A3.271,3.271,0,0,0,8.094.615a6.579,6.579,0,0,0-.581.462c-.171.149-.28.246-.388.328ZM10,2a1.509,1.509,0,0,1,1.053.5,7.839,7.839,0,0,0,.713.588A2.166,2.166,0,0,0,13,3.5v-2h0L13,1.5a.516.516,0,0,1-.1-.058A6.554,6.554,0,0,1,12.367,1,3.465,3.465,0,0,0,10,0Zm3,1.5a5.336,5.336,0,0,0,1.629-.295A3.172,3.172,0,0,1,15.5,3V1a4.9,4.9,0,0,0-1.464.295A3.419,3.419,0,0,1,13,1.5ZM15.5,3a1.5,1.5,0,0,1,1.061.439l1.414-1.414A3.5,3.5,0,0,0,15.5,1Zm1.061.439A1.5,1.5,0,0,1,17,4.5h2a3.5,3.5,0,0,0-1.025-2.475ZM17,4.5a1.5,1.5,0,0,1-.439,1.061l1.414,1.414A3.5,3.5,0,0,0,19,4.5Zm-.439,1.061A1.5,1.5,0,0,1,15.5,6V8a3.5,3.5,0,0,0,2.475-1.025ZM15.5,6a3.172,3.172,0,0,1-.871-.205A5.336,5.336,0,0,0,13,5.5v2a3.418,3.418,0,0,1,1.036.205A4.9,4.9,0,0,0,15.5,8Zm-2.506-.5a4.148,4.148,0,0,0-1.109.158l.547,1.924a2.15,2.15,0,0,1,.575-.082ZM7,13.6V17H9V13.6Z" transform="translate(0 0)" fill="#09090b"/>
</svg>
