<svg id="bell-plus" xmlns="http://www.w3.org/2000/svg" width="20" height="22.005" viewBox="0 0 20 22.005">
  <path id="Vector" d="M18.194,13.353a1,1,0,0,0-1.789.894ZM19,16v1a1,1,0,0,0,.555-1.832ZM1,16l-.555-.832A1,1,0,0,0,1,17ZM12.314,2.574A1,1,0,1,0,13.286.826ZM9.176,19.518a1,1,0,1,0-1.753.964Zm3.4.964a1,1,0,1,0-1.753-.964ZM13,6a1,1,0,1,0,0,2Zm6,2a1,1,0,0,0,0-2ZM17,4a1,1,0,0,0-2,0Zm-2,6a1,1,0,0,0,2,0Zm1.406,4.247a8.255,8.255,0,0,0,1.312,1.933,5.441,5.441,0,0,0,.487.467c.063.053.117.095.157.125l.052.038.018.013.007,0,0,0h0s0,0,.555-.832.555-.832.555-.832h0l0,0,0,0,0,0-.008-.006c-.011-.009-.035-.027-.068-.055a3.468,3.468,0,0,1-.307-.3,6.261,6.261,0,0,1-.988-1.467ZM19,15H1v2H19ZM1,16c.555.832.555.832.556.831h0l0,0,.007,0,.017-.012.046-.034c.036-.027.083-.063.138-.109a5.018,5.018,0,0,0,.426-.4A7.925,7.925,0,0,0,3.378,14.6,15.706,15.706,0,0,0,5,7H3a13.751,13.751,0,0,1-1.378,6.646A5.938,5.938,0,0,1,.743,14.89a3.037,3.037,0,0,1-.254.242c-.027.022-.044.036-.052.042l0,0,0,0,0,0,0,0h0s0,0,.556.831ZM5,7a5.018,5.018,0,0,1,5-5V0A7.018,7.018,0,0,0,3,7Zm5-5a4.55,4.55,0,0,1,2.314.574L13.286.826A6.545,6.545,0,0,0,10,0ZM7.424,20.482A2.94,2.94,0,0,0,8.5,21.6l1.018-1.722a.939.939,0,0,1-.345-.356ZM8.5,21.6a2.94,2.94,0,0,0,1.5.409v-2a.94.94,0,0,1-.478-.131Zm1.5.409a2.94,2.94,0,0,0,1.5-.409l-1.018-1.722a.94.94,0,0,1-.478.131Zm1.5-.409a2.939,2.939,0,0,0,1.08-1.114l-1.753-.964a.939.939,0,0,1-.345.356ZM13,8h6V6H13Zm2-4v6h2V4Z" transform="translate(0)" fill="#09090b"/>
</svg>
