<svg id="bell-dot" xmlns="http://www.w3.org/2000/svg" width="20" height="22.005" viewBox="0 0 20 22.005">
  <path id="Vector" d="M18.282,13.429a1,1,0,0,0-1.765.941ZM19,16v1a1,1,0,0,0,.6-1.8ZM1,16l-.555-.832A1,1,0,0,0,1,17ZM11.584,2.249a1,1,0,1,0,.632-1.9ZM9.176,19.518a1,1,0,1,0-1.753.964Zm3.4.964a1,1,0,1,0-1.753-.964Zm3.941-6.111a9.308,9.308,0,0,0,1.235,1.806,5.956,5.956,0,0,0,.437.445c.056.051.1.091.139.121l.045.036.016.012.006,0,0,0h0s0,0,.6-.8.6-.8.6-.8h0l0,0,0,0L19.6,15.2c-.011-.009-.033-.028-.065-.056a3.989,3.989,0,0,1-.288-.3,7.308,7.308,0,0,1-.965-1.419ZM19,15H1v2H19ZM1,16c.555.832.555.832.556.831h0l0,0,.007,0,.017-.012.046-.034c.036-.027.083-.063.138-.109a5.018,5.018,0,0,0,.426-.4A7.925,7.925,0,0,0,3.378,14.6,15.706,15.706,0,0,0,5,7H3a13.751,13.751,0,0,1-1.378,6.646A5.938,5.938,0,0,1,.743,14.89a3.037,3.037,0,0,1-.254.242c-.027.022-.044.036-.052.042l0,0,0,0,0,0,0,0h0s0,0,.556.831ZM5,7a5.018,5.018,0,0,1,5-5V0A7.018,7.018,0,0,0,3,7Zm5-5a4.824,4.824,0,0,1,1.584.249l.632-1.9A6.821,6.821,0,0,0,10,0ZM7.424,20.482A2.94,2.94,0,0,0,8.5,21.6l1.018-1.722a.939.939,0,0,1-.345-.356ZM8.5,21.6a2.94,2.94,0,0,0,1.5.409v-2a.94.94,0,0,1-.478-.131Zm1.5.409a2.94,2.94,0,0,0,1.5-.409l-1.018-1.722a.94.94,0,0,1-.478.131Zm1.5-.409a2.939,2.939,0,0,0,1.08-1.114l-1.753-.964a.939.939,0,0,1-.345.356ZM18,7a2,2,0,0,1-2,2v2a4,4,0,0,0,4-4ZM16,9a2,2,0,0,1-2-2H12a4,4,0,0,0,4,4ZM14,7a2,2,0,0,1,2-2V3a4,4,0,0,0-4,4Zm2-2a2,2,0,0,1,2,2h2a4,4,0,0,0-4-4Z" transform="translate(0)" fill="#09090b"/>
</svg>
