<svg id="bell-minus" xmlns="http://www.w3.org/2000/svg" width="20" height="22.005" viewBox="0 0 20 22.005">
  <path id="Vector" d="M17.379,10.794a1,1,0,0,0-1.957.412ZM19,16v1a1,1,0,0,0,.555-1.832ZM1,16l-.555-.832A1,1,0,0,0,1,17ZM13.763,3.676a1,1,0,0,0,1.474-1.351ZM9.176,19.518a1,1,0,1,0-1.753.964Zm3.4.964a1,1,0,1,0-1.753-.964ZM13,6a1,1,0,1,0,0,2Zm6,2a1,1,0,0,0,0-2Zm-3.579,3.206a11.405,11.405,0,0,0,1.763,4.3,6.618,6.618,0,0,0,.834.975c.113.107.209.188.282.246.037.029.067.052.092.07l.032.023.012.008.005,0h0s0,0,.556-.831.555-.832.556-.831h0l0,0,0,0h0l-.025-.019c-.028-.023-.079-.065-.148-.13a4.645,4.645,0,0,1-.579-.681,9.43,9.43,0,0,1-1.437-3.552ZM19,15H1v2H19ZM1,16c.555.832.555.832.556.831h0l0,0,.007,0,.017-.012.046-.034c.036-.027.083-.063.138-.109a5.018,5.018,0,0,0,.426-.4A7.925,7.925,0,0,0,3.378,14.6,15.706,15.706,0,0,0,5,7H3a13.751,13.751,0,0,1-1.378,6.646A5.938,5.938,0,0,1,.743,14.89a3.037,3.037,0,0,1-.254.242c-.027.022-.044.036-.052.042l0,0,0,0,0,0,0,0h0s0,0,.556.831ZM5,7a5.018,5.018,0,0,1,5-5V0A7.018,7.018,0,0,0,3,7Zm5-5a5.11,5.11,0,0,1,3.763,1.676l1.474-1.351A7.11,7.11,0,0,0,10,0ZM7.424,20.482A2.94,2.94,0,0,0,8.5,21.6l1.018-1.722a.939.939,0,0,1-.345-.356ZM8.5,21.6a2.94,2.94,0,0,0,1.5.409v-2a.94.94,0,0,1-.478-.131Zm1.5.409a2.94,2.94,0,0,0,1.5-.409l-1.018-1.722a.94.94,0,0,1-.478.131Zm1.5-.409a2.939,2.939,0,0,0,1.08-1.114l-1.753-.964a.939.939,0,0,1-.345.356ZM13,8h6V6H13Z" transform="translate(0)" fill="#09090b"/>
</svg>
