<svg id="bell-off" xmlns="http://www.w3.org/2000/svg" width="22" height="22.005" viewBox="0 0 22 22.005">
  <path id="Vector" d="M7.15,1.165a1,1,0,0,0,1.1,1.67ZM17,7h1Zm-.372,5.236a1,1,0,0,0,1.944-.471ZM16,17a1,1,0,0,0,0-2ZM2,16l-.555-.832A1,1,0,0,0,2,17ZM5,7H6V6.989ZM6.236,5.653a1,1,0,0,0-1.871-.706Zm3.941,13.865a1,1,0,1,0-1.753.964Zm3.4.964a1,1,0,1,0-1.752-.964ZM1.707.293A1,1,0,0,0,.293,1.707ZM20.293,21.707a1,1,0,0,0,1.414-1.414ZM8.25,2.835a5,5,0,0,1,2.527-.819l-.089-2A7,7,0,0,0,7.15,1.165Zm2.527-.819a5,5,0,0,1,2.59.591L14.315.846A7,7,0,0,0,10.688.018Zm2.59.591a5,5,0,0,1,1.922,1.835l1.716-1.028A7,7,0,0,0,14.315.846Zm1.922,1.835A5,5,0,0,1,16,7l2,0a7,7,0,0,0-.995-3.584ZM16,7a22.3,22.3,0,0,0,.628,5.235l1.944-.471A20.3,20.3,0,0,1,18,7Zm0,8H2v2H16ZM2,16c.555.832.555.832.556.831h0l0,0,.007,0,.017-.012.046-.034c.036-.027.083-.063.138-.109a5.006,5.006,0,0,0,.426-.4A7.922,7.922,0,0,0,4.378,14.6,15.706,15.706,0,0,0,6,7H4a13.751,13.751,0,0,1-1.378,6.646,5.936,5.936,0,0,1-.879,1.244,3,3,0,0,1-.254.242c-.027.022-.044.036-.052.042l0,0,0,0,0,0,0,0h0s0,0,.556.831ZM6,6.989a3.67,3.67,0,0,1,.236-1.336L4.364,4.947A5.67,5.67,0,0,0,4,7.011ZM8.424,20.482A2.94,2.94,0,0,0,9.5,21.6l1.018-1.722a.939.939,0,0,1-.345-.356ZM9.5,21.6a2.94,2.94,0,0,0,1.5.409v-2a.94.94,0,0,1-.478-.131Zm1.5.409a2.94,2.94,0,0,0,1.5-.409l-1.018-1.722a.94.94,0,0,1-.479.131Zm1.5-.409a2.939,2.939,0,0,0,1.08-1.114l-1.753-.964a.94.94,0,0,1-.345.356ZM.293,1.707l20,20,1.414-1.414-20-20Z" transform="translate(0)" fill="#09090b"/>
</svg>
