<svg id="between-vertical-end" xmlns="http://www.w3.org/2000/svg" width="20" height="21" viewBox="0 0 20 21">
  <path id="Vector" d="M6.293,19.293a1,1,0,0,0,1.414,1.414ZM10,17l.707-.707a1,1,0,0,0-1.414,0Zm2.293,3.707a1,1,0,0,0,1.414-1.414ZM2,2H7V0H2ZM7,2H9A2,2,0,0,0,7,0ZM7,2V13H9V2ZM7,13v2a2,2,0,0,0,2-2Zm0,0H2v2H7ZM2,13H0a2,2,0,0,0,2,2Zm0,0V2H0V13ZM2,2V0A2,2,0,0,0,0,2ZM7.707,20.707l3-3L9.293,16.293l-3,3Zm1.586-3,3,3,1.414-1.414-3-3ZM13,2h5V0H13Zm5,0h2a2,2,0,0,0-2-2Zm0,0V13h2V2Zm0,11v2a2,2,0,0,0,2-2Zm0,0H13v2h5Zm-5,0H11a2,2,0,0,0,2,2Zm0,0V2H11V13ZM13,2V0a2,2,0,0,0-2,2Z" fill="#09090b"/>
</svg>
