<svg id="between-horizontal-end" xmlns="http://www.w3.org/2000/svg" width="21" height="20" viewBox="0 0 21 20">
  <path id="Vector" d="M19.293,13.707a1,1,0,1,0,1.414-1.414ZM17,10l-.707-.707a1,1,0,0,0,0,1.414Zm3.707-2.293a1,1,0,0,0-1.414-1.414ZM2,2H13V0H2ZM13,2h2a2,2,0,0,0-2-2Zm0,0V7h2V2Zm0,5V9a2,2,0,0,0,2-2Zm0,0H2V9H13ZM2,7H0A2,2,0,0,0,2,9ZM2,7V2H0V7ZM2,2V0A2,2,0,0,0,0,2ZM20.707,12.293l-3-3-1.414,1.414,3,3Zm-3-1.586,3-3L19.293,6.293l-3,3ZM2,13H13V11H2Zm11,0h2a2,2,0,0,0-2-2Zm0,0v5h2V13Zm0,5v2a2,2,0,0,0,2-2Zm0,0H2v2H13ZM2,18H0a2,2,0,0,0,2,2Zm0,0V13H0v5Zm0-5V11a2,2,0,0,0-2,2Z" fill="#09090b"/>
</svg>
