<svg id="bird" xmlns="http://www.w3.org/2000/svg" width="22" height="20.01" viewBox="0 0 22 20.01">
  <path id="Vector" d="M15,4.01a1,1,0,1,0,0,2Zm.01,2a1,1,0,0,0,0-2Zm-12.61,9a1,1,0,0,0,0,2Zm8.6,1v0Zm8-8h0Zm0-3-1,0v0Zm-7.28-2.3.819.574h0ZM.181,17.437a1,1,0,0,0,1.638,1.148ZM21,5.51l.243.97a1,1,0,0,0,0-1.94Zm-2.243-.47a1,1,0,0,0,.485,1.94ZM10,16.01a1,1,0,0,0-2,0Zm-2,3a1,1,0,0,0,2,0Zm6-3.25a1,1,0,0,0-2,0Zm-2,3.25a1,1,0,0,0,2,0Zm-6-4a1,1,0,1,0,0,2ZM10.48,4.632A1,1,0,0,0,9.2,6.169ZM15,6.01h.01v-2H15Zm-12.6,11H11v-2H2.4Zm8.6,0a9,9,0,0,0,6.364-2.636L15.95,12.96A7,7,0,0,1,11,15.011Zm6.364-2.636A9,9,0,0,0,20,8.011H18a7,7,0,0,1-2.05,4.95ZM20,8.011v-3H18v3Zm0-3a5,5,0,0,0-.963-2.963L17.422,3.23A3,3,0,0,1,18,5.008ZM19.037,2.05A5,5,0,0,0,16.506.232l-.6,1.907A3,3,0,0,1,17.422,3.23ZM16.506.232a5,5,0,0,0-3.116.034l.644,1.894a3,3,0,0,1,1.869-.02ZM13.391.266A5,5,0,0,0,10.9,2.138l1.64,1.145A3,3,0,0,1,14.034,2.16ZM10.9,2.137.181,17.437l1.638,1.148,10.72-15.3Zm7.856,3.844,2,.5.485-1.94-2-.5Zm2-1.44-2,.5.485,1.94,2-.5ZM8,16.01v3h2v-3Zm4-.25v3.25h2V15.76ZM6,17.01a7,7,0,0,0,4.02-1.27L8.871,14.1A5,5,0,0,1,6,15.01Zm4.02-1.27a7,7,0,0,0,2.562-3.348L10.7,11.712A5,5,0,0,1,8.871,14.1Zm2.562-3.348a7,7,0,0,0,.174-4.212l-1.93.523a5,5,0,0,1-.125,3.009Zm.174-4.212A7,7,0,0,0,10.48,4.632L9.2,6.169A5,5,0,0,1,10.826,8.7Z" transform="translate(0 0)" fill="#09090b"/>
</svg>
