<svg id="blocks" xmlns="http://www.w3.org/2000/svg" width="20" height="20" viewBox="0 0 20 20">
  <path id="Vector" d="M7,19a1,1,0,0,0,2,0ZM1,6H1ZM1,18H1Zm0-7a1,1,0,0,0,0,2ZM13,2h5V0H13Zm5,0h2a2,2,0,0,0-2-2Zm0,0V7h2V2Zm0,5V9a2,2,0,0,0,2-2Zm0,0H13V9h5ZM13,7H11a2,2,0,0,0,2,2Zm0,0V2H11V7Zm0-5V0a2,2,0,0,0-2,2ZM9,19V6H7V19ZM9,6a2,2,0,0,0-.586-1.414L7,6H9ZM8.414,4.586A2,2,0,0,0,7,4V6H7ZM7,4H2V6H7ZM2,4a2,2,0,0,0-1.414.586L2,6H2ZM.586,4.586A2,2,0,0,0,0,6H2ZM0,6V18H2V6ZM0,18a2,2,0,0,0,.586,1.414L2,18H0Zm.586,1.414A2,2,0,0,0,2,20V18H2ZM2,20H14V18H2Zm12,0a2,2,0,0,0,1.414-.586L14,18h0Zm1.414-.586A2,2,0,0,0,16,18H14ZM16,18V13H14v5Zm0-5a2,2,0,0,0-.586-1.414L14,13h2Zm-.586-1.414A2,2,0,0,0,14,11v2h0ZM14,11H1v2H14Z" fill="#09090b"/>
</svg>
