<svg id="bluetooth-searching" xmlns="http://www.w3.org/2000/svg" width="17.003" height="22" viewBox="0 0 17.003 22">
  <path id="Vector" d="M1.707,5.293A1,1,0,0,0,.293,6.707ZM11,16l.707.707a1,1,0,0,0,0-1.414ZM6,21H5a1,1,0,0,0,1.707.707ZM6,1,6.707.293A1,1,0,0,0,5,1Zm5,5,.707.707a1,1,0,0,0,0-1.414ZM.293,15.293a1,1,0,1,0,1.414,1.414Zm13.831-2.17a1,1,0,0,0,1.413,1.415Zm1.413-5.66a1,1,0,1,0-1.413,1.415ZM12,10a1,1,0,0,0,0,2Zm.01,2a1,1,0,0,0,0-2ZM.293,6.707l10,10,1.414-1.414-10-10Zm10,8.586-5,5,1.414,1.414,5-5ZM7,21V1H5V21ZM5.293,1.707l5,5,1.414-1.414-5-5Zm5,3.586-10,10,1.414,1.414,10-10Zm5.244,9.245a5,5,0,0,0,1.085-1.623l-1.848-.766a3,3,0,0,1-.651.974Zm1.085-1.623A5,5,0,0,0,17,11H15a3,3,0,0,1-.229,1.149ZM17,11a5,5,0,0,0-.381-1.915l-1.848.766A3,3,0,0,1,15,11Zm-.381-1.915a5,5,0,0,0-1.085-1.623L14.123,8.877a3,3,0,0,1,.651.974ZM12,12h.01V10H12Z" transform="translate(0 0)" fill="#09090b"/>
</svg>
