<svg id="bluetooth-off" xmlns="http://www.w3.org/2000/svg" width="22" height="22" viewBox="0 0 22 22">
  <path id="Vector" d="M16.707,16.707a1,1,0,0,0-1.414-1.414ZM11,21H10a1,1,0,0,0,1.707.707Zm0-10h1a1,1,0,0,0-1.707-.707ZM5.293,15.293a1,1,0,1,0,1.414,1.414ZM1.707.293A1,1,0,0,0,.293,1.707ZM20.293,21.707a1,1,0,1,0,1.414-1.414Zm-7.5-13.914a1,1,0,0,0,1.414,1.414ZM16,6l.707.707a1,1,0,0,0,0-1.414ZM11,1l.707-.707A1,1,0,0,0,10,1ZM10,5.5a1,1,0,0,0,2,0Zm5.293,9.793-5,5,1.414,1.414,5-5ZM12,21V11H10V21ZM10.293,10.293l-5,5,1.414,1.414,5-5Zm-10-8.586,20,20,1.414-1.414-20-20Zm13.914,7.5,2.5-2.5L15.293,5.293l-2.5,2.5Zm2.5-3.914-5-5L10.293,1.707l5,5ZM10,1V5.5h2V1Z" transform="translate(0 0)" fill="#09090b"/>
</svg>
