<svg id="bold" xmlns="http://www.w3.org/2000/svg" width="15" height="18" viewBox="0 0 15 18">
  <path id="Vector" d="M1,8a1,1,0,0,0,0,2Zm9,1V9ZM2,1V1ZM9,1V1ZM9,8a1,1,0,0,0,0,2ZM1,10h9V8H1Zm9,0a3,3,0,0,1,2.121.879l1.414-1.414A5,5,0,0,0,10,8Zm2.121.879A3,3,0,0,1,13,13h2a5,5,0,0,0-1.465-3.536ZM13,13a3,3,0,0,1-.879,2.121l1.414,1.414A5,5,0,0,0,15,13Zm-.879,2.121A3,3,0,0,1,10,16v2a5,5,0,0,0,3.535-1.465ZM10,16H2v2h8ZM2,16H2L.586,17.414A2,2,0,0,0,2,18Zm0,0H0a2,2,0,0,0,.586,1.414Zm0,0V2H0V16ZM2,2H2L.586.586A2,2,0,0,0,0,2ZM2,2H2V0A2,2,0,0,0,.586.586ZM2,2H9V0H2ZM9,2a3,3,0,0,1,2.121.879l1.414-1.414A5,5,0,0,0,9,0Zm2.121.879A3,3,0,0,1,12,5h2a5,5,0,0,0-1.465-3.536ZM12,5a3,3,0,0,1-.879,2.121l1.414,1.414A5,5,0,0,0,14,5Zm-.879,2.121A3,3,0,0,1,9,8v2a5,5,0,0,0,3.535-1.464Z" fill="#09090b"/>
</svg>
