<svg id="bomb" xmlns="http://www.w3.org/2000/svg" width="22.006" height="22.002" viewBox="0 0 22.006 22.002">
  <path id="Vector" d="M12.643,2.945a1,1,0,1,0,1.414,1.414ZM15.3,1.7,14.595.993l0,0ZM17,1V1Zm1.7.7.707-.707,0,0Zm1.6,1.6-.707.707h0ZM21.006,5h0ZM20.3,6.7l-.706-.708h0ZM17.643,7.945a1,1,0,0,0,1.414,1.414Zm4.064-6.236A1,1,0,0,0,20.293.295Zm-2.914.086a1,1,0,0,0,1.414,1.414ZM18,12a8,8,0,0,1-8,8v2A10,10,0,0,0,20,12Zm-8,8a8,8,0,0,1-8-8H0A10,10,0,0,0,10,22ZM2,12a8,8,0,0,1,8-8V2A10,10,0,0,0,0,12Zm8-8a8,8,0,0,1,8,8h2A10,10,0,0,0,10,2Zm4.057.357,1.95-1.95L14.593.995l-1.95,1.95Zm1.948-1.948A1.41,1.41,0,0,1,17,2V0a3.41,3.41,0,0,0-2.405.993ZM17,2a1.41,1.41,0,0,1,.995.411L19.405.993A3.41,3.41,0,0,0,17,0Zm.993.409,1.6,1.6,1.414-1.414-1.6-1.6Zm1.6,1.6a1.4,1.4,0,0,1,.3.455L21.746,3.7a3.4,3.4,0,0,0-.74-1.1Zm.3.455A1.4,1.4,0,0,1,20.006,5h2a3.4,3.4,0,0,0-.26-1.3ZM20.006,5a1.4,1.4,0,0,1-.107.537l1.847.767a3.4,3.4,0,0,0,.26-1.3Zm-.107.537a1.4,1.4,0,0,1-.3.455L21.006,7.41a3.4,3.4,0,0,0,.74-1.1Zm-.306.456-1.95,1.95,1.414,1.414,1.95-1.95Zm.7-5.7-1.5,1.5,1.414,1.414,1.5-1.5Z" transform="translate(0 0)" fill="#09090b"/>
</svg>
