<svg id="book-heart" xmlns="http://www.w3.org/2000/svg" width="18" height="22" viewBox="0 0 18 22">
  <path id="Vector" d="M1,18.5H1Zm0-15H1ZM3.5,1V1ZM17,1h1a1,1,0,0,0-1-1Zm0,20v1a1,1,0,0,0,1-1ZM3.5,16v0ZM17,17a1,1,0,0,0,0-2ZM9,5.9l-.832.555a1,1,0,0,0,1.664,0ZM9,12l-.689.725a1,1,0,0,0,1.377,0Zm3.3-3.1.678.735.029-.028ZM2,18.5V3.5H0v15Zm0-15a1.5,1.5,0,0,1,.439-1.061L1.025,1.025A3.5,3.5,0,0,0,0,3.5Zm.439-1.061A1.5,1.5,0,0,1,3.5,2V0A3.5,3.5,0,0,0,1.025,1.025ZM3.5,2H17V0H3.5ZM16,1V21h2V1Zm1,19H3.5v2H17ZM3.5,20a1.5,1.5,0,0,1-1.061-.439L1.025,20.975A3.5,3.5,0,0,0,3.5,22Zm-1.061-.439A1.5,1.5,0,0,1,2,18.5H0a3.5,3.5,0,0,0,1.025,2.475ZM2,18.5a1.5,1.5,0,0,1,.439-1.061L1.025,16.025A3.5,3.5,0,0,0,0,18.5Zm.439-1.061A1.5,1.5,0,0,1,3.5,17V15a3.5,3.5,0,0,0-2.475,1.025ZM3.5,17H17V15H3.5ZM14,7.2A3.219,3.219,0,0,0,10.8,4V6A1.22,1.22,0,0,1,12,7.2ZM10.8,4A3.015,3.015,0,0,0,8.168,5.345L9.832,6.455A1.028,1.028,0,0,1,10.8,6ZM9.832,5.345A3.015,3.015,0,0,0,7.2,4V6a1.028,1.028,0,0,1,.968.455ZM7.2,4A3.219,3.219,0,0,0,4,7.2H6A1.22,1.22,0,0,1,7.2,6ZM4,7.2a3.358,3.358,0,0,0,.993,2.307L6.407,8.093A1.366,1.366,0,0,1,6,7.2Zm.993,2.307c.657.657,1.488,1.462,2.151,2.1.332.32.624.6.832.8l.245.234.066.063.017.016,0,0h0L9,12l.689-.725h0l0,0-.017-.016L9.6,11.192l-.243-.232c-.207-.2-.5-.475-.827-.793C7.869,9.53,7.05,8.736,6.407,8.093ZM9,12l.689.725h0l0,0,.017-.016.065-.062.244-.231.828-.783c.662-.625,1.484-1.4,2.13-1.993l-1.357-1.47c-.654.6-1.482,1.382-2.145,2.007l-.831.786-.245.232-.066.063-.017.016,0,0h0L9,12Zm4.007-2.393A3.412,3.412,0,0,0,14,7.2H12a1.413,1.413,0,0,1-.407.993Z" fill="#09090b"/>
</svg>
