<svg id="book-lock" xmlns="http://www.w3.org/2000/svg" width="18" height="22" viewBox="0 0 18 22">
  <path id="Vector" d="M1,18.5H1Zm0-15H1ZM3.5,1V1ZM7,2A1,1,0,0,0,7,0ZM18,14a1,1,0,0,0-2,0Zm-1,7v1a1,1,0,0,0,1-1ZM3.5,16v0ZM17,17a1,1,0,0,0,0-2ZM14,5a1,1,0,0,0,2,0ZM13,1V1ZM10,5a1,1,0,0,0,2,0ZM2,18.5V3.5H0v15Zm0-15a1.5,1.5,0,0,1,.439-1.061L1.025,1.025A3.5,3.5,0,0,0,0,3.5Zm.439-1.061A1.5,1.5,0,0,1,3.5,2V0A3.5,3.5,0,0,0,1.025,1.025ZM3.5,2H7V0H3.5ZM16,14v7h2V14Zm1,6H3.5v2H17ZM3.5,20a1.5,1.5,0,0,1-1.061-.439L1.025,20.975A3.5,3.5,0,0,0,3.5,22Zm-1.061-.439A1.5,1.5,0,0,1,2,18.5H0a3.5,3.5,0,0,0,1.025,2.475ZM2,18.5a1.5,1.5,0,0,1,.439-1.061L1.025,16.025A3.5,3.5,0,0,0,0,18.5Zm.439-1.061A1.5,1.5,0,0,1,3.5,17V15a3.5,3.5,0,0,0-2.475,1.025ZM3.5,17H17V15H3.5ZM10,6h6V4H10Zm6,0h2a2,2,0,0,0-2-2Zm0,0V9h2V6Zm0,3v2a2,2,0,0,0,2-2Zm0,0H10v2h6ZM10,9H8a2,2,0,0,0,2,2Zm0,0V6H8V9Zm0-3V4A2,2,0,0,0,8,6Zm6-1V3H14V5Zm0-2A3,3,0,0,0,15.121.879L13.707,2.293A1,1,0,0,1,14,3ZM15.121.879A3,3,0,0,0,13,0V2a1,1,0,0,1,.707.293ZM13,0a3,3,0,0,0-2.121.879l1.414,1.414A1,1,0,0,1,13,2ZM10.879.879A3,3,0,0,0,10,3h2a1,1,0,0,1,.293-.707ZM10,3V5h2V3Z" fill="#09090b"/>
</svg>
