<svg id="book-open-text" xmlns="http://www.w3.org/2000/svg" width="22" height="20" viewBox="0 0 22 20">
  <path id="Vector" d="M1,1V0A1,1,0,0,0,0,1ZM11,5h0ZM10,19a1,1,0,0,0,2,0ZM8,16v0ZM1,16H0a1,1,0,0,0,1,1ZM21,1h1a1,1,0,0,0-1-1ZM15,1V1ZM14,16v0Zm7,0v1a1,1,0,0,0,1-1ZM5,5A1,1,0,0,0,5,7ZM7,7A1,1,0,0,0,7,5ZM5,9a1,1,0,0,0,0,2Zm2,2A1,1,0,0,0,7,9Zm8-6a1,1,0,0,0,0,2Zm2,2a1,1,0,0,0,0-2ZM15,9a1,1,0,0,0,0,2Zm2,2a1,1,0,0,0,0-2ZM1,2H7V0H1ZM7,2a3,3,0,0,1,2.121.879l1.414-1.414A5,5,0,0,0,7,0Zm2.121.879A3,3,0,0,1,10,5h2a5,5,0,0,0-1.464-3.536ZM10,5V19h2V5Zm2,14a4,4,0,0,0-1.172-2.828L9.414,17.586A2,2,0,0,1,10,19Zm-1.172-2.828A4,4,0,0,0,8,15v2a2,2,0,0,1,1.414.586ZM8,15H1v2H8ZM2,16V1H0V16ZM21,0H15V2h6ZM15,0a5,5,0,0,0-3.535,1.464l1.414,1.414A3,3,0,0,1,15,2ZM11.465,1.464A5,5,0,0,0,10,5h2a3,3,0,0,1,.879-2.121ZM12,19a2,2,0,0,1,.586-1.414l-1.414-1.414A4,4,0,0,0,10,19Zm.586-1.414A2,2,0,0,1,14,17V15a4,4,0,0,0-2.828,1.172ZM14,17h7V15H14Zm8-1V1H20V16ZM5,7H7V5H5Zm0,4H7V9H5ZM15,7h2V5H15Zm0,4h2V9H15Z" fill="#09090b"/>
</svg>
