<svg id="book-open-check" xmlns="http://www.w3.org/2000/svg" width="22" height="20" viewBox="0 0 22 20">
  <path id="Vector" d="M1,1V0A1,1,0,0,0,0,1ZM1,16H0a1,1,0,0,0,1,1Zm9,3a1,1,0,0,0,2,0Zm5.707-9.707a1,1,0,0,0-1.414,1.414ZM17,12l-.707.707a1,1,0,0,0,1.414,0Zm4.707-3.293a1,1,0,1,0-1.414-1.414ZM20,4a1,1,0,0,0,2,0Zm1-3h1a1,1,0,0,0-1-1Zm0,15v1a1,1,0,0,0,1-1Zm1-2.3a1,1,0,1,0-2,0ZM7,0H1V2H7ZM0,1V16H2V1ZM1,17H8V15H1Zm7,0a1.947,1.947,0,0,1,2,2h2a3.946,3.946,0,0,0-4-4Zm4,2V5H10V19ZM12,5A5.012,5.012,0,0,0,7,0V2a3.012,3.012,0,0,1,3,3Zm2.293,5.707,2,2,1.414-1.414-2-2Zm3.414,2,4-4L20.293,7.293l-4,4ZM22,4V1H20V4ZM21,0H15V2h6ZM15,0a5.012,5.012,0,0,0-5,5h2a3.012,3.012,0,0,1,3-3ZM12,19a1.947,1.947,0,0,1,2-2V15a3.946,3.946,0,0,0-4,4Zm2-2h7V15H14Zm8-1V13.7H20V16Z" fill="#09090b"/>
</svg>
