<svg id="book-copy" xmlns="http://www.w3.org/2000/svg" width="22" height="22" viewBox="0 0 22 22">
  <path id="Vector" d="M1,15H1ZM3,1V1ZM14,2a1,1,0,0,0,0-2ZM4,14a1,1,0,0,0,0-2Zm0,4a1,1,0,0,0,0-2Zm17,0a1,1,0,0,0,0-2Zm0,3v1a1,1,0,0,0,1-1ZM21,5h1a1,1,0,0,0-1-1ZM10,5V5ZM2,15V3H0V15ZM2,3a1,1,0,0,1,.293-.707L.879.879A3,3,0,0,0,0,3Zm.293-.707A1,1,0,0,1,3,2V0A3,3,0,0,0,.879.879ZM3,2H14V0H3ZM4,12H3v2H4ZM3,12a3,3,0,0,0-2.121.879l1.414,1.414A1,1,0,0,1,3,14Zm-2.121.879A3,3,0,0,0,0,15H2a1,1,0,0,1,.293-.707ZM0,15a3,3,0,0,0,.879,2.121l1.414-1.414A1,1,0,0,1,2,15Zm.879,2.121A3,3,0,0,0,3,18V16a1,1,0,0,1-.707-.293ZM3,18H4V16H3Zm18-2H10v2H21ZM10,16a3,3,0,0,0-2.121.879l1.414,1.414A1,1,0,0,1,10,18Zm-2.121.879A3,3,0,0,0,7,19H9a1,1,0,0,1,.293-.707ZM7,19a3,3,0,0,0,.879,2.121l1.414-1.414A1,1,0,0,1,9,19Zm.879,2.121A3,3,0,0,0,10,22V20a1,1,0,0,1-.707-.293ZM10,22H21V20H10Zm12-1V5H20V21ZM21,4H10V6H21ZM10,4a3,3,0,0,0-2.121.879L9.293,6.293A1,1,0,0,1,10,6Zm-2.121.879A3,3,0,0,0,7,7H9a1,1,0,0,1,.293-.707ZM7,7V19H9V7Z" fill="#09090b"/>
</svg>
