<svg id="book-user" xmlns="http://www.w3.org/2000/svg" width="18" height="22" viewBox="0 0 18 22">
  <path id="Vector" d="M1,18.5H1Zm0-15H1ZM3.5,1V1ZM17,1h1a1,1,0,0,0-1-1Zm0,20v1a1,1,0,0,0,1-1ZM3.5,16v0ZM17,17a1,1,0,0,0,0-2Zm-6-5a1,1,0,0,0,2,0ZM5,12a1,1,0,0,0,2,0ZM2,18.5V3.5H0v15Zm0-15a1.5,1.5,0,0,1,.439-1.061L1.025,1.025A3.5,3.5,0,0,0,0,3.5Zm.439-1.061A1.5,1.5,0,0,1,3.5,2V0A3.5,3.5,0,0,0,1.025,1.025ZM3.5,2H17V0H3.5ZM16,1V21h2V1Zm1,19H3.5v2H17ZM3.5,20a1.5,1.5,0,0,1-1.061-.439L1.025,20.975A3.5,3.5,0,0,0,3.5,22Zm-1.061-.439A1.5,1.5,0,0,1,2,18.5H0a3.5,3.5,0,0,0,1.025,2.475ZM2,18.5a1.5,1.5,0,0,1,.439-1.061L1.025,16.025A3.5,3.5,0,0,0,0,18.5Zm.439-1.061A1.5,1.5,0,0,1,3.5,17V15a3.5,3.5,0,0,0-2.475,1.025ZM3.5,17H17V15H3.5ZM10,7A1,1,0,0,1,9,8v2a3,3,0,0,0,3-3ZM9,8A1,1,0,0,1,8,7H6a3,3,0,0,0,3,3ZM8,7A1,1,0,0,1,9,6V4A3,3,0,0,0,6,7ZM9,6a1,1,0,0,1,1,1h2A3,3,0,0,0,9,4Zm4,6a4,4,0,0,0-1.172-2.828l-1.414,1.414A2,2,0,0,1,11,12ZM11.828,9.172A4,4,0,0,0,9,8v2a2,2,0,0,1,1.414.586ZM9,8A4,4,0,0,0,6.172,9.172l1.414,1.414A2,2,0,0,1,9,10ZM6.172,9.172A4,4,0,0,0,5,12H7a2,2,0,0,1,.586-1.414Z" fill="#09090b"/>
</svg>
