<svg id="book-audio" xmlns="http://www.w3.org/2000/svg" width="18" height="22" viewBox="0 0 18 22">
  <path id="Vector" d="M1,18.5H1Zm0-15H1ZM3.5,1V1ZM17,1h1a1,1,0,0,0-1-1Zm0,20v1a1,1,0,0,0,1-1ZM3.5,16v0ZM17,17a1,1,0,0,0,0-2ZM6,7A1,1,0,0,0,4,7ZM4,10a1,1,0,0,0,2,0Zm6-5A1,1,0,0,0,8,5ZM8,12a1,1,0,0,0,2,0Zm6-5a1,1,0,0,0-2,0Zm-2,3a1,1,0,0,0,2,0ZM2,18.5V3.5H0v15Zm0-15a1.5,1.5,0,0,1,.439-1.061L1.025,1.025A3.5,3.5,0,0,0,0,3.5Zm.439-1.061A1.5,1.5,0,0,1,3.5,2V0A3.5,3.5,0,0,0,1.025,1.025ZM3.5,2H17V0H3.5ZM16,1V21h2V1Zm1,19H3.5v2H17ZM3.5,20a1.5,1.5,0,0,1-1.061-.439L1.025,20.975A3.5,3.5,0,0,0,3.5,22Zm-1.061-.439A1.5,1.5,0,0,1,2,18.5H0a3.5,3.5,0,0,0,1.025,2.475ZM2,18.5a1.5,1.5,0,0,1,.439-1.061L1.025,16.025A3.5,3.5,0,0,0,0,18.5Zm.439-1.061A1.5,1.5,0,0,1,3.5,17V15a3.5,3.5,0,0,0-2.475,1.025ZM3.5,17H17V15H3.5ZM4,7v3H6V7ZM8,5v7h2V5Zm4,2v3h2V7Z" fill="#09090b"/>
</svg>
