<svg id="boom-box" xmlns="http://www.w3.org/2000/svg" width="22" height="20" viewBox="0 0 22 20">
  <path id="Vector" d="M5,1V1ZM17,1V1ZM8,6A1,1,0,0,0,6,6ZM6,7A1,1,0,0,0,8,7Zm6-1a1,1,0,0,0-2,0ZM10,7a1,1,0,0,0,2,0Zm6-1a1,1,0,0,0-2,0ZM14,7a1,1,0,0,0,2,0ZM4,7V3H2V7ZM4,3a1,1,0,0,1,.293-.707L2.879.879A3,3,0,0,0,2,3Zm.293-.707A1,1,0,0,1,5,2V0A3,3,0,0,0,2.879.879ZM5,2H17V0H5ZM17,2a1,1,0,0,1,.707.293L19.121.879A3,3,0,0,0,17,0Zm.707.293A1,1,0,0,1,18,3h2A3,3,0,0,0,19.121.879ZM18,3V7h2V3ZM6,6V7H8V6Zm4,0V7h2V6Zm4,0V7h2V6ZM3,8H19V6H3ZM19,8a1,1,0,0,1,1,1h2a3,3,0,0,0-3-3Zm1,1v8h2V9Zm0,8a1,1,0,0,1-1,1v2a3,3,0,0,0,3-3Zm-1,1H3v2H19ZM3,18a1,1,0,0,1-1-1H0a3,3,0,0,0,3,3ZM2,17V9H0v8ZM2,9A1,1,0,0,1,3,8V6A3,3,0,0,0,0,9Zm6,4a1,1,0,0,1-1,1v2a3,3,0,0,0,3-3ZM7,14a1,1,0,0,1-1-1H4a3,3,0,0,0,3,3ZM6,13a1,1,0,0,1,1-1V10a3,3,0,0,0-3,3Zm1-1a1,1,0,0,1,1,1h2a3,3,0,0,0-3-3Zm9,1a1,1,0,0,1-1,1v2a3,3,0,0,0,3-3Zm-1,1a1,1,0,0,1-1-1H12a3,3,0,0,0,3,3Zm-1-1a1,1,0,0,1,1-1V10a3,3,0,0,0-3,3Zm1-1a1,1,0,0,1,1,1h2a3,3,0,0,0-3-3Z" fill="#09090b"/>
</svg>
