<svg id="bot-message-square" xmlns="http://www.w3.org/2000/svg" width="22" height="22" viewBox="0 0 22 22">
  <path id="Vector" d="M10,5a1,1,0,0,0,2,0Zm1-4h1a1,1,0,0,0-1-1ZM7,0A1,1,0,0,0,7,2ZM7,17V16a1,1,0,0,0-.707.293ZM3,21H2a1,1,0,0,0,1.707.707ZM5,5V5ZM17,5V5ZM1,10a1,1,0,0,0,0,2Zm2,2a1,1,0,0,0,0-2Zm6-2a1,1,0,0,0-2,0ZM7,12a1,1,0,0,0,2,0Zm8-2a1,1,0,0,0-2,0Zm-2,2a1,1,0,0,0,2,0Zm6-2a1,1,0,0,0,0,2Zm2,2a1,1,0,0,0,0-2ZM12,5V1H10V5ZM11,0H7V2h4ZM6.293,16.293l-4,4,1.414,1.414,4-4ZM4,21V7H2V21ZM4,7a1,1,0,0,1,.293-.707L2.879,4.879A3,3,0,0,0,2,7Zm.293-.707A1,1,0,0,1,5,6V4a3,3,0,0,0-2.121.879ZM5,6H17V4H5ZM17,6a1,1,0,0,1,.707.293l1.414-1.414A3,3,0,0,0,17,4Zm.707.293A1,1,0,0,1,18,7h2a3,3,0,0,0-.879-2.121ZM18,7v8h2V7Zm0,8a1,1,0,0,1-.293.707l1.414,1.414A3,3,0,0,0,20,15Zm-.293.707A1,1,0,0,1,17,16v2a3,3,0,0,0,2.121-.879ZM17,16H7v2H17ZM1,12H3V10H1Zm6-2v2H9V10Zm6,0v2h2V10Zm6,2h2V10H19Z" fill="#09090b"/>
</svg>
