<svg id="bot-off" xmlns="http://www.w3.org/2000/svg" width="22" height="22" viewBox="0 0 22 22">
  <path id="Vector" d="M12.67,6a1,1,0,0,0,0,2ZM18,13.33a1,1,0,1,0,2,0ZM1,12a1,1,0,0,0,0,2Zm2,2a1,1,0,0,0,0-2Zm16-2a1,1,0,0,0,0,2Zm2,2a1,1,0,0,0,0-2Zm-.707,7.707a1,1,0,0,0,1.414-1.414ZM1.707.293A1,1,0,0,0,.293,1.707ZM7,8A1,1,0,0,0,7,6ZM3,9H3Zm0,8H3Zm14,2v1h0Zm2.121.121a1,1,0,1,0-1.414-1.414ZM9,12a1,1,0,0,0-2,0ZM7,14a1,1,0,0,0,2,0ZM8.67,2a1,1,0,0,0,0,2ZM11,3h1a1,1,0,0,0-1-1ZM10,5.33a1,1,0,1,0,2,0ZM12.67,8H17V6H12.67ZM17,8a1,1,0,0,1,.707.293l1.414-1.414A3,3,0,0,0,17,6Zm.707.293A1,1,0,0,1,18,9h2a3,3,0,0,0-.879-2.121ZM18,9v4.33h2V9ZM1,14H3V12H1Zm18,0h2V12H19Zm2.707,6.293-20-20L.293,1.707l20,20ZM7,6H5V8H7ZM5,6a3,3,0,0,0-2.121.879L4.293,8.293A1,1,0,0,1,5,8Zm-2.121.879A3,3,0,0,0,2,9H4a1,1,0,0,1,.293-.707ZM2,9v8H4V9Zm0,8a3,3,0,0,0,.879,2.121l1.414-1.414A1,1,0,0,1,4,17Zm.879,2.121A3,3,0,0,0,5,20V18a1,1,0,0,1-.707-.293ZM5,20H17V18H5Zm12,0a3,3,0,0,0,2.121-.879l-1.414-1.414A1,1,0,0,1,17,18ZM7,12v2H9V12ZM8.67,4H11V2H8.67ZM10,3V5.33h2V3Z" fill="#09090b"/>
</svg>
