<svg id="braces" xmlns="http://www.w3.org/2000/svg" width="20" height="20" viewBox="0 0 20 20">
  <path id="Vector" d="M6,2A1,1,0,0,0,6,0ZM5,1V1ZM3,3H3ZM3,8H3ZM1,9a1,1,0,0,0,0,2Zm2,3H3Zm3,8a1,1,0,0,0,0-2Zm8-2a1,1,0,0,0,0,2Zm5-7a1,1,0,0,0,0-2ZM15,1V1ZM14,0a1,1,0,0,0,0,2ZM6,0H5V2H6ZM5,0A3,3,0,0,0,2.879.879L4.293,2.293A1,1,0,0,1,5,2ZM2.879.879A3,3,0,0,0,2,3H4a1,1,0,0,1,.293-.707ZM2,3V8H4V3ZM2,8a1,1,0,0,1-.293.707l1.414,1.414A3,3,0,0,0,4,8Zm-.293.707A1,1,0,0,1,1,9v2a3,3,0,0,0,2.121-.879ZM1,11a1,1,0,0,1,.707.293L3.121,9.879A3,3,0,0,0,1,9Zm.707.293A1,1,0,0,1,2,12H4a3,3,0,0,0-.879-2.121ZM2,12v5H4V12Zm0,5a3.006,3.006,0,0,0,3,3V18a1.006,1.006,0,0,1-1-1Zm3,3H6V18H5Zm9,0h1V18H14Zm1,0a3,3,0,0,0,2.121-.879l-1.414-1.414A1,1,0,0,1,15,18Zm2.121-.879A3,3,0,0,0,18,17H16a1,1,0,0,1-.293.707ZM18,17V12H16v5Zm0-5a1.006,1.006,0,0,1,1-1V9a3.006,3.006,0,0,0-3,3Zm1-3a1,1,0,0,1-.707-.293l-1.414,1.414A3,3,0,0,0,19,11Zm-.707-.293A1,1,0,0,1,18,8H16a3,3,0,0,0,.879,2.121ZM18,8V3H16V8Zm0-5A3,3,0,0,0,17.121.879L15.707,2.293A1,1,0,0,1,16,3ZM17.121.879A3,3,0,0,0,15,0V2a1,1,0,0,1,.707.293ZM15,0H14V2h1Z" fill="#09090b"/>
</svg>
