<svg id="brain-cog" xmlns="http://www.w3.org/2000/svg" width="22.002" height="22.005" viewBox="0 0 22.002 22.005">
  <path id="Vector" d="M11,3.992l-1,0a1,1,0,0,0,2,0ZM5,4.134l.249.968A1,1,0,0,0,6,4.089ZM2.478,9.9l.631.776a1,1,0,0,0,.25-1.25Zm.556,6.588.992.128a1,1,0,0,0-.5-1ZM10.67,18.6l.917.4.011-.027Zm.164-.546-.978-.211,0,.009Zm.335,0,.98-.2,0-.018Zm.163.546-.929.37.012.028Zm7.636-2.106-.492-.871a1,1,0,0,0-.5,1ZM19.524,9.9l-.881-.474a1,1,0,0,0,.25,1.25ZM17,4.134l-1-.045a1,1,0,0,0,.75,1.013Zm-1.264.858a1,1,0,1,0,1.732,1ZM18,4.158a1,1,0,1,0-2-.083ZM6,4.076a1,1,0,0,0-2,.082ZM4.535,5.991a1,1,0,1,0,1.733-1ZM1.847,9.113A1,1,0,0,0,3.11,10.663Zm1.7,1.254a1,1,0,0,0-.97-1.749ZM19.424,8.618a1,1,0,0,0-.971,1.749Zm-.532,2.046a1,1,0,0,0,1.263-1.551ZM5,17.992a1,1,0,0,0,0-2ZM3.525,15.6a1,1,0,1,0-.983,1.742Zm15.934,1.742a1,1,0,1,0-.983-1.742ZM17,15.992a1,1,0,0,0,0,2Zm-1.894-5.686a1,1,0,1,0-.812-1.828ZM13.395,8.878a1,1,0,0,0,.812,1.828ZM8.607,13.106a1,1,0,0,0-.812-1.828ZM6.895,11.678a1,1,0,0,0,.812,1.828Zm4.793,3.42a1,1,0,0,0,1.828-.812Zm1.428-1.712a1,1,0,1,0-1.828.812ZM8.887,8.6a1,1,0,0,0,1.828-.812Zm1.428-1.712A1,1,0,0,0,8.487,7.7Zm3.98,6.52a1,1,0,0,0,.812-1.828Zm-.088-2.228a1,1,0,0,0-.812,1.828Zm-6.412-.372a1,1,0,0,0,.812-1.828ZM7.707,8.578a1,1,0,0,0-.812,1.828Zm.88,5.708a1,1,0,1,0,1.828.812Zm2.228-.088a1,1,0,1,0-1.828-.812Zm.373-6.412a1,1,0,1,0,1.828.812ZM13.415,7.7a1,1,0,0,0-1.828-.812ZM12,3.989a4,4,0,0,0-.317-1.549l-1.842.78A2,2,0,0,1,10,3.995ZM11.684,2.44a4,4,0,0,0-.892-1.305L9.4,2.567a2,2,0,0,1,.446.653Zm-.892-1.305A4,4,0,0,0,9.463.277L8.732,2.138a2,2,0,0,1,.664.429ZM9.463.277A4,4,0,0,0,7.906,0l.047,2a2,2,0,0,1,.779.138ZM7.906,0A4,4,0,0,0,6.364.35l.818,1.825A2,2,0,0,1,7.953,2ZM6.364.35a4,4,0,0,0-1.286.92L6.539,2.635a2,2,0,0,1,.643-.46Zm-1.286.92a4,4,0,0,0-.83,1.346l1.876.692a2,2,0,0,1,.415-.673Zm-.83,1.346A4,4,0,0,0,4,4.179l2-.089a2,2,0,0,1,.122-.781Zm.507.549A5,5,0,0,0,2.76,4.2l1.3,1.523a3,3,0,0,1,1.2-.62ZM2.76,4.2A5,5,0,0,0,1.42,6l1.832.8a3,3,0,0,1,.8-1.082ZM1.42,6A5,5,0,0,0,1,8.211L3,8.13A3,3,0,0,1,3.252,6.8ZM1,8.211A5,5,0,0,0,1.6,10.378L3.358,9.43A3,3,0,0,1,3,8.13Zm.843.917A5,5,0,0,0,.4,11.051l1.84.783a3,3,0,0,1,.869-1.154ZM.4,11.051a5,5,0,0,0-.381,2.378l1.993-.168a3,3,0,0,1,.229-1.427ZM.018,13.429a5,5,0,0,0,.774,2.28l1.683-1.08a3,3,0,0,1-.465-1.368Zm.774,2.28a5,5,0,0,0,1.75,1.654l.983-1.742a3,3,0,0,1-1.05-.992Zm1.25.655a5,5,0,0,0,.795,3.409L4.5,18.665a3,3,0,0,1-.477-2.045Zm.795,3.408a5,5,0,0,0,2.835,2.052L6.2,19.9a3,3,0,0,1-1.7-1.232Zm2.835,2.052a5,5,0,0,0,3.486-.309l-.863-1.8A3,3,0,0,1,6.2,19.9Zm3.486-.309A5,5,0,0,0,11.587,19l-1.835-.8a3,3,0,0,1-1.458,1.512ZM11.6,18.97a4.2,4.2,0,0,0,.215-.717l-1.959-.4a2.2,2.2,0,0,1-.113.375Zm.213-.707a.891.891,0,0,1-.447.6.755.755,0,0,1-.726,0,.889.889,0,0,1-.446-.592l1.952-.435a1.11,1.11,0,0,0-.567-.739,1.246,1.246,0,0,0-1.154,0,1.11,1.11,0,0,0-.567.745Zm-1.622-.011a4.2,4.2,0,0,0,.214.717l1.858-.74a2.2,2.2,0,0,1-.112-.375Zm.226.745a5,5,0,0,0,2.429,2.519l.863-1.8A3,3,0,0,1,12.249,18.2Zm2.429,2.519a5,5,0,0,0,3.486.309L15.8,19.9a3,3,0,0,1-2.092-.185Zm3.486.309a5,5,0,0,0,2.835-2.052L17.5,18.665A3,3,0,0,1,15.8,19.9Zm2.835-2.052a5,5,0,0,0,.795-3.409l-1.983.256a3,3,0,0,1-.477,2.045Zm.294-2.41a5,5,0,0,0,1.75-1.654l-1.683-1.08a3,3,0,0,1-1.05.992Zm1.75-1.654a5,5,0,0,0,.774-2.28l-1.993-.168a3,3,0,0,1-.465,1.368Zm.774-2.28a5,5,0,0,0-.381-2.378l-1.84.783a3,3,0,0,1,.229,1.427ZM21.6,11.051a5,5,0,0,0-1.448-1.924L18.893,10.68a3,3,0,0,1,.869,1.154Zm-1.2-.674A5,5,0,0,0,21,8.211L19,8.13a3,3,0,0,1-.356,1.3ZM21,8.211A5,5,0,0,0,20.582,6l-1.832.8A3,3,0,0,1,19,8.13ZM20.582,6a5,5,0,0,0-1.34-1.8l-1.3,1.523a3,3,0,0,1,.8,1.082Zm-1.34-1.8a5,5,0,0,0-1.995-1.034l-.5,1.937a3,3,0,0,1,1.2.62ZM18,4.179a4,4,0,0,0-.243-1.562l-1.876.692A2,2,0,0,1,16,4.089Zm-.243-1.562a4,4,0,0,0-.83-1.346L15.462,2.635a2,2,0,0,1,.415.673Zm-.83-1.346A4,4,0,0,0,15.638.35l-.818,1.825a2,2,0,0,1,.643.46ZM15.638.35A4,4,0,0,0,14.1,0l-.047,2a2,2,0,0,1,.771.175ZM14.1,0a4,4,0,0,0-1.557.276l.731,1.862A2,2,0,0,1,14.048,2ZM12.538.277a4,4,0,0,0-1.328.858l1.4,1.433a2,2,0,0,1,.664-.429Zm-1.328.858a4,4,0,0,0-.892,1.305l1.842.78a2,2,0,0,1,.446-.653ZM10.318,2.44A4,4,0,0,0,10,3.989l2,.005a2,2,0,0,1,.158-.775Zm7.149,3.552A4,4,0,0,0,18,4.158l-2-.083a2,2,0,0,1-.266.917ZM4,4.158a4,4,0,0,0,.531,1.833l1.733-1A2,2,0,0,1,6,4.076Zm-.9,6.506a3,3,0,0,1,.439-.3l-.97-1.749a5,5,0,0,0-.731.495Zm15.344-.3a3,3,0,0,1,.439.3l1.263-1.551a5,5,0,0,0-.731-.495ZM5,15.992A3,3,0,0,1,3.525,15.6l-.983,1.742A5,5,0,0,0,5,17.992ZM18.477,15.6A3,3,0,0,1,17,15.992v2a5,5,0,0,0,2.459-.645ZM13,10.992a2,2,0,0,1-2,2v2a4,4,0,0,0,4-4Zm-2,2a2,2,0,0,1-2-2H7a4,4,0,0,0,4,4Zm-2-2a2,2,0,0,1,2-2v-2a4,4,0,0,0-4,4Zm2-2a2,2,0,0,1,2,2h2a4,4,0,0,0-4-4Zm3.294-.514-.9.4.812,1.828.9-.4Zm-6.5,2.8-.9.4.812,1.828.9-.4Zm5.72,3.008-.4-.9-1.828.812.4.9Zm-2.8-6.5-.4-.9L8.487,7.7l.4.9Zm4.392,3.792-.9-.4-.812,1.828.9.4Zm-6.5-2.6-.9-.4-.812,1.828.9.4Zm1.808,6.12.4-.9-1.828-.812-.4.9Zm2.6-6.5.4-.9-1.828-.812-.4.9Z" transform="translate(0 0)" fill="#09090b"/>
</svg>
