<svg id="brain" xmlns="http://www.w3.org/2000/svg" width="22.002" height="22.005" viewBox="0 0 22.002 22.005">
  <path id="Vector" d="M5,4.134l1-.041v0ZM2.478,9.9l.631.776h0ZM17,4.134l-1-.045a1,1,0,0,0,.75,1.013ZM19.524,9.9l-.632.775h0Zm-5.855,3.048a1,1,0,1,0,.664-1.887ZM11,8.009l1-.054a1,1,0,0,0-2,0ZM7.669,11.066a1,1,0,1,0,.664,1.887Zm8.065-6.057a1,1,0,1,0,1.732,1ZM18,4.175a1,1,0,1,0-2-.083ZM4.535,6.008a1,1,0,0,0,1.733-1Zm-.987,4.375a1,1,0,0,0-.97-1.749ZM19.424,8.634a1,1,0,0,0-.971,1.749ZM5,18.009a1,1,0,1,0,0-2Zm12-2a1,1,0,0,0,0,2Zm-5-12a4,4,0,0,0-.309-1.554l-1.845.771A2,2,0,0,1,10,4.006Zm-.309-1.554A4,4,0,0,0,10.8,1.146L9.4,2.573a2,2,0,0,1,.444.656ZM10.8,1.146A4,4,0,0,0,9.476.282L8.739,2.141a2,2,0,0,1,.664.432ZM9.476.282A4,4,0,0,0,7.917,0l.042,2a2,2,0,0,1,.779.141ZM7.917,0A4,4,0,0,0,6.372.347l.815,1.827A2,2,0,0,1,7.959,2ZM6.372.347a4,4,0,0,0-1.29.919l1.46,1.367a2,2,0,0,1,.645-.459Zm-1.29.919a4,4,0,0,0-.832,1.348l1.876.693a2,2,0,0,1,.416-.674ZM4.249,2.613A4,4,0,0,0,4,4.178l2-.089a2,2,0,0,1,.122-.783Zm.506.552A5,5,0,0,0,2.76,4.2l1.3,1.523a3,3,0,0,1,1.2-.62ZM2.76,4.2A5,5,0,0,0,1.42,6l1.832.8a3,3,0,0,1,.8-1.082ZM1.42,6A5,5,0,0,0,1,8.211L3,8.13A3,3,0,0,1,3.252,6.8ZM1,8.211A5,5,0,0,0,1.6,10.378L3.358,9.43A3,3,0,0,1,3,8.13Zm.843.917A5,5,0,0,0,.4,11.051l1.84.783a3,3,0,0,1,.869-1.154ZM.4,11.051a5,5,0,0,0-.381,2.377l1.993-.168a3,3,0,0,1,.229-1.427ZM.018,13.429a5,5,0,0,0,.774,2.28l1.683-1.08a3,3,0,0,1-.465-1.368Zm.774,2.28a5,5,0,0,0,1.75,1.654l.983-1.742a3,3,0,0,1-1.05-.992Zm1.25.655A5,5,0,0,0,2.2,18.387l1.922-.553a3,3,0,0,1-.092-1.214ZM2.2,18.387a5,5,0,0,0,.945,1.8l1.544-1.271a3,3,0,0,1-.567-1.077Zm.945,1.8a5,5,0,0,0,1.581,1.272l.912-1.78a3,3,0,0,1-.948-.763Zm1.581,1.272a5,5,0,0,0,1.956.539l.13-2a3,3,0,0,1-1.174-.324Zm1.956.54a5,5,0,0,0,2.009-.282l-.674-1.883A3,3,0,0,1,6.807,20Zm2.009-.282a5,5,0,0,0,1.732-1.057l-1.367-1.46a3,3,0,0,1-1.039.634Zm1.732-1.057A5,5,0,0,0,11.587,19l-1.834-.8a3,3,0,0,1-.7,1ZM11.587,19A5,5,0,0,0,12,17.01l-2,0A3,3,0,0,1,9.753,18.2ZM12,17.009v-13H10v13Zm0-13a2,2,0,0,1,.155-.777L10.31,2.458A4,4,0,0,0,10,4.012Zm.155-.777a2,2,0,0,1,.444-.656L11.2,1.146a4,4,0,0,0-.888,1.312Zm.444-.656a2,2,0,0,1,.664-.432L12.525.282a4,4,0,0,0-1.328.864Zm.664-.432A2,2,0,0,1,14.043,2l.042-2a4,4,0,0,0-1.559.281ZM14.043,2a2,2,0,0,1,.773.173L15.63.347A4,4,0,0,0,14.084,0Zm.773.173a2,2,0,0,1,.645.459l1.46-1.367A4,4,0,0,0,15.63.347Zm.645.459a2,2,0,0,1,.416.674l1.876-.693a4,4,0,0,0-.832-1.348Zm.416.674A2,2,0,0,1,16,4.089l2,.089a4,4,0,0,0-.244-1.565Zm.872,1.8a3,3,0,0,1,1.2.62l1.3-1.523a5,5,0,0,0-1.995-1.034Zm1.2.62a3,3,0,0,1,.8,1.082L20.582,6a5,5,0,0,0-1.34-1.8Zm.8,1.082A3,3,0,0,1,19,8.13l2,.081A5,5,0,0,0,20.582,6ZM19,8.13a3,3,0,0,1-.356,1.3l1.761.948A5,5,0,0,0,21,8.211Zm-.106,2.55a3,3,0,0,1,.869,1.154l1.84-.783a5,5,0,0,0-1.448-1.924Zm.869,1.154a3,3,0,0,1,.229,1.427l1.993.168a5,5,0,0,0-.381-2.378Zm.229,1.427a3,3,0,0,1-.465,1.368l1.683,1.08a5,5,0,0,0,.774-2.28Zm-.465,1.368a3,3,0,0,1-1.05.992l.983,1.742a5,5,0,0,0,1.75-1.654Zm-1.55,1.991a3,3,0,0,1-.092,1.214l1.922.553a5,5,0,0,0,.154-2.023Zm-.092,1.214a3,3,0,0,1-.567,1.077l1.544,1.271a5,5,0,0,0,.945-1.8Zm-.567,1.077a3,3,0,0,1-.948.763l.912,1.78a5,5,0,0,0,1.581-1.272Zm-.948.763A3,3,0,0,1,15.2,20l.13,2a5,5,0,0,0,1.956-.539ZM15.2,20a3,3,0,0,1-1.206-.169l-.674,1.883a5,5,0,0,0,2.009.282Zm-1.206-.169a3,3,0,0,1-1.039-.634l-1.367,1.46a5,5,0,0,0,1.732,1.057Zm-1.039-.634a3,3,0,0,1-.7-1l-1.835.8a5,5,0,0,0,1.169,1.658Zm-.7-.995A3,3,0,0,1,12,17.008l-2,0A5,5,0,0,0,10.415,19Zm2.083-7.134a3.5,3.5,0,0,1-1.639-1.2l-1.6,1.2a5.5,5.5,0,0,0,2.575,1.888Zm-1.639-1.2A3.5,3.5,0,0,1,12,7.954l-2,.109a5.5,5.5,0,0,0,1.092,3ZM10,7.954a3.5,3.5,0,0,1-.695,1.909l1.6,1.2a5.5,5.5,0,0,0,1.092-3ZM9.308,9.864a3.5,3.5,0,0,1-1.639,1.2l.664,1.887a5.5,5.5,0,0,0,2.575-1.888Zm8.159-3.855A4,4,0,0,0,18,4.175l-2-.083a2,2,0,0,1-.266.917ZM4,4.175a4,4,0,0,0,.531,1.833l1.733-1A2,2,0,0,1,6,4.093Zm-.9,6.5a3,3,0,0,1,.439-.3l-.97-1.749a5,5,0,0,0-.731.494Zm15.344-.3a3,3,0,0,1,.439.3l1.263-1.551a4.991,4.991,0,0,0-.731-.494ZM5,16.009a3,3,0,0,1-1.476-.388l-.983,1.742A5,5,0,0,0,5,18.009Zm13.476-.388A3,3,0,0,1,17,16.009v2a5,5,0,0,0,2.459-.646Z" transform="translate(0 0)" fill="#09090b"/>
</svg>
