<svg id="brick-wall" xmlns="http://www.w3.org/2000/svg" width="20" height="20" viewBox="0 0 20 20">
  <path id="Vector" d="M11,7A1,1,0,0,0,9,7ZM9,13a1,1,0,0,0,2,0Zm6,0a1,1,0,0,0-2,0Zm-2,6a1,1,0,0,0,2,0ZM15,1a1,1,0,0,0-2,0ZM13,7a1,1,0,0,0,2,0ZM1,12a1,1,0,0,0,0,2Zm18,2a1,1,0,0,0,0-2ZM1,6A1,1,0,0,0,1,8ZM19,8a1,1,0,0,0,0-2ZM7,13a1,1,0,0,0-2,0ZM5,19a1,1,0,0,0,2,0ZM7,1A1,1,0,0,0,5,1ZM5,7A1,1,0,0,0,7,7ZM3,2H17V0H3ZM17,2a1,1,0,0,1,1,1h2a3,3,0,0,0-3-3Zm1,1V17h2V3Zm0,14a1,1,0,0,1-1,1v2a3,3,0,0,0,3-3Zm-1,1H3v2H17ZM3,18a1,1,0,0,1-1-1H0a3,3,0,0,0,3,3ZM2,17V3H0V17ZM2,3A1,1,0,0,1,3,2V0A3,3,0,0,0,0,3ZM9,7v6h2V7Zm4,6v6h2V13ZM13,1V7h2V1ZM1,14H19V12H1ZM1,8H19V6H1Zm4,5v6H7V13ZM5,1V7H7V1Z" fill="#09090b"/>
</svg>
