<svg id="bug-play" xmlns="http://www.w3.org/2000/svg" width="20.97" height="21.598" viewBox="0 0 20.97 21.598">
  <path id="Vector" d="M11.765,20.522l.53.848h0ZM11,20.1h0Zm0-8.2h0Zm.765-.424.53-.848h0Zm5.878,3.674-.53.848h0Zm0,1.7L17.113,16h0ZM12.413,2.173a1,1,0,0,0,1.414,1.414Zm3.294-.466A1,1,0,0,0,14.293.293ZM16,10a1,1,0,0,0,2,0ZM13,6V6ZM9,6V6ZM5,10H5Zm0,3H4v0Zm1.328,5.24A1,1,0,1,0,7.672,16.76ZM20.97,4a1,1,0,0,0-2,0Zm-4.6,3.005a1,1,0,0,0,.209,1.989ZM1,20a1,1,0,0,0,2,0Zm4.848-3a1,1,0,0,0-.1-2ZM5,13a1,1,0,0,0,0-2ZM1,11a1,1,0,0,0,0,2ZM5.427,8.995a1,1,0,0,0,.206-1.989ZM3,4A1,1,0,0,0,1,4ZM7.707.293A1,1,0,0,0,6.293,1.707Zm.466,3.294A1,1,0,0,0,9.587,2.173ZM7,6.13a1,1,0,0,0,2,0Zm1-1H9q0-.022,0-.045Zm3-3.137v0ZM14,5.13l-1-.045c0,.015,0,.03,0,.045Zm-1,1a1,1,0,1,0,2,0ZM11.235,19.674a.5.5,0,0,1,.252-.076l.052,2a1.5,1.5,0,0,0,.756-.228Zm.252-.076a.5.5,0,0,1,.255.063l-.97,1.749a1.5,1.5,0,0,0,.767.188Zm.255.063a.5.5,0,0,1,.188.184l-1.723,1.015a1.5,1.5,0,0,0,.565.551Zm.188.183A.5.5,0,0,1,12,20.1H10a1.5,1.5,0,0,0,.208.761ZM12,20.1V11.9H10v8.2Zm0-8.2a.5.5,0,0,1-.069.254l-1.723-1.015A1.5,1.5,0,0,0,10,11.9Zm-.069.254a.5.5,0,0,1-.188.184l-.97-1.749a1.5,1.5,0,0,0-.565.551Zm-.188.184a.5.5,0,0,1-.255.063l.052-2a1.5,1.5,0,0,0-.767.188Zm-.255.063a.5.5,0,0,1-.252-.076l1.06-1.7a1.5,1.5,0,0,0-.756-.227Zm-.252-.076L17.113,16l1.06-1.7L12.295,10.63ZM17.113,16h0l1.749-.969a2,2,0,0,0-.689-.726Zm0,0h2a2,2,0,0,0-.251-.969Zm0,0h0l1.749.969A2,2,0,0,0,19.113,16Zm0,0h0l1.06,1.7a2,2,0,0,0,.689-.726Zm0,0-5.878,3.674,1.06,1.7L18.173,17.7ZM13.827,3.587l1.88-1.88L14.293.293l-1.88,1.88ZM18,10a5,5,0,0,0-1.465-3.536L15.121,7.879A3,3,0,0,1,16,10ZM16.535,6.464A5,5,0,0,0,13,5V7a3,3,0,0,1,2.121.879ZM13,5H9V7h4ZM9,5A5,5,0,0,0,5.464,6.464L6.879,7.879A3,3,0,0,1,9,7ZM5.464,6.464A5,5,0,0,0,4,10H6a3,3,0,0,1,.879-2.121ZM4,10v3H6V10Zm0,3a7.1,7.1,0,0,0,.612,2.864l1.828-.812A5.1,5.1,0,0,1,6,13Zm.612,2.864A7.1,7.1,0,0,0,6.328,18.24L7.672,16.76a5.1,5.1,0,0,1-1.233-1.7ZM18.97,4a3.014,3.014,0,0,1-2.6,3.005l.209,1.989A5.013,5.013,0,0,0,20.97,4ZM3,20a3.043,3.043,0,0,1,2.848-3l-.1-2A5.043,5.043,0,0,0,1,20Zm2-9H1v2H5Zm.633-3.995A3.014,3.014,0,0,1,3,4H1A5.014,5.014,0,0,0,5.427,8.995Zm.66-5.3,1.88,1.88L9.587,2.173,7.707.293ZM9,6.13v-1H7v1ZM9,5.085a2,2,0,0,1,.126-.794l-1.872-.7A4,4,0,0,0,7,5.175Zm.126-.794a2,2,0,0,1,.428-.68L8.107,2.229a4,4,0,0,0-.854,1.36Zm.428-.68a2,2,0,0,1,.66-.458L9.427,1.315a4,4,0,0,0-1.32.914Zm.66-.458A2,2,0,0,1,11,2.993v-2a4,4,0,0,0-1.573.322ZM11,2.993a2,2,0,0,1,.787.161l.786-1.839A4,4,0,0,0,11,.993Zm.787.161a2,2,0,0,1,.66.458l1.446-1.382a4,4,0,0,0-1.32-.914Zm.66.458a2,2,0,0,1,.428.68l1.872-.7a4,4,0,0,0-.854-1.36Zm.428.68A2,2,0,0,1,13,5.085l2,.089a4,4,0,0,0-.252-1.586ZM13,5.13v1h2v-1Z" fill="#09090b"/>
</svg>
