<svg id="bug" xmlns="http://www.w3.org/2000/svg" width="22" height="21" viewBox="0 0 22 21">
  <path id="Vector" d="M7.707.293A1,1,0,0,0,6.293,1.707Zm.466,3.294A1,1,0,0,0,9.587,2.173Zm4.24-1.414a1,1,0,0,0,1.414,1.414Zm3.294-.466A1,1,0,0,0,14.293.293ZM7,6.13a1,1,0,0,0,2,0Zm1-1H9q0-.022,0-.045Zm3-3.137v0ZM14,5.13l-1-.045c0,.015,0,.03,0,.045Zm-1,1a1,1,0,1,0,2,0ZM9,6V6Zm4,0V6Zm-1,4a1,1,0,0,0-2,0ZM5.427,8.995a1,1,0,0,0,.206-1.989ZM3,4A1,1,0,0,0,1,4Zm2,9a1,1,0,0,0,0-2ZM1,11a1,1,0,0,0,0,2Zm0,9a1,1,0,0,0,2,0Zm4.848-3a1,1,0,0,0-.1-2ZM20.97,4a1,1,0,0,0-2,0Zm-4.6,3.005a1,1,0,0,0,.209,1.989ZM21,13a1,1,0,0,0,0-2Zm-4-2a1,1,0,0,0,0,2Zm-.752,4a1,1,0,1,0-.1,2ZM19,20a1,1,0,0,0,2,0ZM6.293,1.707l1.88,1.88L9.587,2.173,7.707.293Zm7.534,1.88,1.88-1.88L14.293.293l-1.88,1.88ZM9,6.13v-1H7v1ZM9,5.085a2,2,0,0,1,.126-.794l-1.872-.7A4,4,0,0,0,7,5.175Zm.126-.794a2,2,0,0,1,.428-.68L8.107,2.229a4,4,0,0,0-.854,1.36Zm.428-.68a2,2,0,0,1,.66-.458L9.427,1.315a4,4,0,0,0-1.32.914Zm.66-.458A2,2,0,0,1,11,2.993v-2a4,4,0,0,0-1.573.322ZM11,2.993a2,2,0,0,1,.787.161l.786-1.839A4,4,0,0,0,11,.993Zm.787.161a2,2,0,0,1,.66.458l1.446-1.382a4,4,0,0,0-1.32-.914Zm.66.458a2,2,0,0,1,.428.68l1.872-.7a4,4,0,0,0-.854-1.36Zm.428.68A2,2,0,0,1,13,5.085l2,.089a4,4,0,0,0-.252-1.586ZM13,5.13v1h2v-1ZM11,18a5.018,5.018,0,0,1-5-5H4a7.018,7.018,0,0,0,7,7ZM6,13V10H4v3Zm0-3a3,3,0,0,1,.879-2.121L5.464,6.464A5,5,0,0,0,4,10Zm.879-2.121A3,3,0,0,1,9,7V5A5,5,0,0,0,5.464,6.464ZM9,7h4V5H9Zm4,0a3,3,0,0,1,2.121.879l1.414-1.414A5,5,0,0,0,13,5Zm2.121.879A3,3,0,0,1,16,10h2a5,5,0,0,0-1.465-3.536ZM16,10v3h2V10Zm0,3a5.018,5.018,0,0,1-5,5v2a7.018,7.018,0,0,0,7-7Zm-4,6V10H10v9ZM5.633,7.005A3.014,3.014,0,0,1,3,4H1A5.014,5.014,0,0,0,5.427,8.995ZM5,11H1v2H5ZM3,20a3.043,3.043,0,0,1,2.848-3l-.1-2A5.043,5.043,0,0,0,1,20ZM18.97,4a3.014,3.014,0,0,1-2.6,3.005l.209,1.989A5.013,5.013,0,0,0,20.97,4ZM21,11H17v2h4Zm-4.847,6A3.043,3.043,0,0,1,19,20h2a5.043,5.043,0,0,0-4.752-5Z" fill="#09090b"/>
</svg>
