<svg id="building" xmlns="http://www.w3.org/2000/svg" width="18" height="22" viewBox="0 0 18 22">
  <path id="Vector" d="M5,21a1,1,0,0,0,2,0Zm1-4V16a1,1,0,0,0-1,1Zm6,0h1a1,1,0,0,0-1-1Zm-1,4a1,1,0,0,0,2,0ZM5,4A1,1,0,0,0,5,6Zm.01,2a1,1,0,0,0,0-2ZM13,4a1,1,0,0,0,0,2Zm.01,2a1,1,0,0,0,0-2ZM9,4A1,1,0,0,0,9,6Zm.01,2a1,1,0,1,0,0-2ZM9,8a1,1,0,0,0,0,2Zm.01,2a1,1,0,1,0,0-2ZM9,12a1,1,0,0,0,0,2Zm.01,2a1,1,0,1,0,0-2ZM13,8a1,1,0,0,0,0,2Zm.01,2a1,1,0,0,0,0-2ZM13,12a1,1,0,0,0,0,2Zm.01,2a1,1,0,0,0,0-2ZM5,8a1,1,0,0,0,0,2Zm.01,2a1,1,0,0,0,0-2ZM5,12a1,1,0,0,0,0,2Zm.01,2a1,1,0,0,0,0-2ZM3,2H15V0H3ZM15,2a1,1,0,0,1,1,1h2a3,3,0,0,0-3-3Zm1,1V19h2V3Zm0,16a1,1,0,0,1-1,1v2a3,3,0,0,0,3-3Zm-1,1H3v2H15ZM3,20a1,1,0,0,1-1-1H0a3,3,0,0,0,3,3ZM2,19V3H0V19ZM2,3A1,1,0,0,1,3,2V0A3,3,0,0,0,0,3ZM7,21V17H5v4ZM6,18h6V16H6Zm5-1v4h2V17ZM5,6h.01V4H5Zm8,0h.01V4H13ZM9,6h.01V4H9Zm0,4h.01V8H9Zm0,4h.01V12H9Zm4-4h.01V8H13Zm0,4h.01V12H13ZM5,10h.01V8H5Zm0,4h.01V12H5Z" fill="#09090b"/>
</svg>
