<svg id="cake" xmlns="http://www.w3.org/2000/svg" width="22" height="19" viewBox="0 0 22 19">
  <path id="Vector" d="M18,18a1,1,0,0,0,2,0ZM3,10H3ZM2,18a1,1,0,0,0,2,0Zm.106-5.447a1,1,0,0,0,1.789.894Zm17.789.894a1,1,0,0,0-1.789-.894ZM1,17a1,1,0,0,0,0,2Zm20,2a1,1,0,0,0,0-2ZM7,5A1,1,0,0,0,5,5ZM5,8A1,1,0,0,0,7,8Zm7-3a1,1,0,0,0-2,0ZM10,8a1,1,0,0,0,2,0Zm7-3a1,1,0,0,0-2,0ZM15,8a1,1,0,0,0,2,0ZM6,0A1,1,0,0,0,6,2Zm.01,2a1,1,0,0,0,0-2ZM11,0a1,1,0,0,0,0,2Zm.01,2a1,1,0,0,0,0-2ZM16,0a1,1,0,0,0,0,2Zm.01,2a1,1,0,0,0,0-2ZM20,18V10H18v8Zm0-8a3,3,0,0,0-.879-2.121L17.707,9.293A1,1,0,0,1,18,10Zm-.879-2.121A3,3,0,0,0,17,7V9a1,1,0,0,1,.707.293ZM17,7H5V9H17ZM5,7a3,3,0,0,0-2.121.879L4.293,9.293A1,1,0,0,1,5,9Zm-2.121.879A3,3,0,0,0,2,10H4a1,1,0,0,1,.293-.707ZM2,10v8H4V10Zm1,3c.894.447.894.448.894.448h0v0l0,0,0,.007,0,.009,0,.005s.008-.014.022-.032a.916.916,0,0,1,.161-.163A1.438,1.438,0,0,1,5,13V11a3.426,3.426,0,0,0-2.187.719,2.924,2.924,0,0,0-.511.525c-.056.075-.1.142-.132.194-.016.026-.029.05-.04.069l-.014.026-.006.011,0,0v0h0s0,0,.894.448Zm2,0c.334,0,.676.222,1.375.781A4.323,4.323,0,0,0,9,15V13c-.334,0-.676-.222-1.375-.781A4.323,4.323,0,0,0,5,11Zm4,2a4.323,4.323,0,0,0,2.625-1.219C12.324,13.222,12.666,13,13,13V11a4.323,4.323,0,0,0-2.625,1.219C9.676,12.778,9.334,13,9,13Zm4-2c.334,0,.676.222,1.375.781A4.323,4.323,0,0,0,17,15V13c-.334,0-.676-.222-1.375-.781A4.323,4.323,0,0,0,13,11Zm4,2a3.426,3.426,0,0,0,2.187-.719,2.922,2.922,0,0,0,.511-.525c.056-.075.1-.142.132-.194.016-.026.029-.05.04-.069l.014-.026.006-.011,0,0v0h0s0,0-.894-.448-.894-.448-.894-.448h0v0l0,0,0-.007,0-.009,0-.005s-.008.014-.022.032a.915.915,0,0,1-.161.163A1.438,1.438,0,0,1,17,13ZM1,19H21V17H1ZM5,5V8H7V5Zm5,0V8h2V5Zm5,0V8h2V5ZM6,2h.01V0H6Zm5,0h.01V0H11Zm5,0h.01V0H16Z" fill="#09090b"/>
</svg>
