<svg id="calendar-days" xmlns="http://www.w3.org/2000/svg" width="20" height="22" viewBox="0 0 20 22">
  <path id="Vector" d="M7,1A1,1,0,0,0,5,1ZM5,5A1,1,0,0,0,7,5ZM15,1a1,1,0,0,0-2,0ZM13,5a1,1,0,0,0,2,0ZM1,8a1,1,0,0,0,0,2Zm18,2a1,1,0,0,0,0-2ZM6,12a1,1,0,0,0,0,2Zm.01,2a1,1,0,0,0,0-2ZM10,12a1,1,0,0,0,0,2Zm.01,2a1,1,0,0,0,0-2ZM14,12a1,1,0,0,0,0,2Zm.01,2a1,1,0,0,0,0-2ZM6,16a1,1,0,0,0,0,2Zm.01,2a1,1,0,0,0,0-2ZM10,16a1,1,0,0,0,0,2Zm.01,2a1,1,0,0,0,0-2ZM14,16a1,1,0,0,0,0,2Zm.01,2a1,1,0,0,0,0-2ZM5,1V5H7V1Zm8,0V5h2V1ZM3,4H17V2H3ZM17,4a1,1,0,0,1,1,1h2a3,3,0,0,0-3-3Zm1,1V19h2V5Zm0,14a1,1,0,0,1-1,1v2a3,3,0,0,0,3-3Zm-1,1H3v2H17ZM3,20a1,1,0,0,1-1-1H0a3,3,0,0,0,3,3ZM2,19V5H0V19ZM2,5A1,1,0,0,1,3,4V2A3,3,0,0,0,0,5ZM1,10H19V8H1Zm5,4h.01V12H6Zm4,0h.01V12H10Zm4,0h.01V12H14ZM6,18h.01V16H6Zm4,0h.01V16H10Zm4,0h.01V16H14Z" fill="#09090b"/>
</svg>
