<svg id="calendar-cog" xmlns="http://www.w3.org/2000/svg" width="20.7" height="22" viewBox="0 0 20.7 22">
  <path id="Vector" d="M12.794,16.814a1,1,0,0,0,.812-1.828Zm-.088-2.228a1,1,0,1,0-.812,1.828Zm.9,4.428a1,1,0,1,0-.812-1.828Zm-1.712-1.428a1,1,0,0,0,.812,1.828ZM15,1a1,1,0,0,0-2,0ZM13,5a1,1,0,0,0,2,0Zm.986,9.606a1,1,0,1,0,1.828-.812Zm1.428-1.712a1,1,0,1,0-1.828.812Zm.4,7.312a1,1,0,1,0-1.828-.812Zm-2.228.088a1,1,0,1,0,1.828.812Zm4.828-6.588a1,1,0,1,0-1.828-.812Zm-2.228.088a1,1,0,1,0,1.828.812Zm.4,7.312a1,1,0,1,0,1.828-.812Zm1.428-1.712a1,1,0,1,0-1.828.812ZM18,9.5a1,1,0,0,0,2,0ZM17,3V3ZM3,3V3ZM1,5H1ZM1,19H1Zm8,3a1,1,0,0,0,0-2Zm11.106-5.586a1,1,0,1,0-.812-1.828Zm-1.712-1.428a1,1,0,1,0,.812,1.828Zm.9,4.428a1,1,0,0,0,.812-1.828Zm-.088-2.228a1,1,0,1,0-.812,1.828ZM1,8a1,1,0,0,0,0,2Zm18,2a1,1,0,0,0,0-2ZM7,1A1,1,0,0,0,5,1ZM5,5A1,1,0,0,0,7,5Zm8.606,9.986-.9-.4-.812,1.828.9.4Zm-.812,2.2-.9.4.812,1.828.9-.4ZM13,1V5h2V1Zm2.814,12.794-.4-.9-1.828.812.4.9Zm-1.828,5.6-.4.9,1.828.812.4-.9Zm2.6-6.5-.4.9,1.828.812.4-.9Zm1.828,7.4-.4-.9-1.828.812.4.9ZM20,9.5V5H18V9.5ZM20,5a3,3,0,0,0-.879-2.121L17.707,4.293A1,1,0,0,1,18,5Zm-.879-2.121A3,3,0,0,0,17,2V4a1,1,0,0,1,.707.293ZM17,2H3V4H17ZM3,2a3,3,0,0,0-2.121.879L2.293,4.293A1,1,0,0,1,3,4ZM.879,2.879A3,3,0,0,0,0,5H2a1,1,0,0,1,.293-.707ZM0,5V19H2V5ZM0,19a3,3,0,0,0,.879,2.121l1.414-1.414A1,1,0,0,1,2,19Zm.879,2.121A3,3,0,0,0,3,22V20a1,1,0,0,1-.707-.293ZM3,22H9V20H3Zm16.294-7.414-.9.4.812,1.828.9-.4Zm.812,3-.9-.4-.812,1.828.9.4ZM1,10H19V8H1ZM5,1V5H7V1ZM18,17a2,2,0,0,1-2,2v2a4,4,0,0,0,4-4Zm-2,2a2,2,0,0,1-2-2H12a4,4,0,0,0,4,4Zm-2-2a2,2,0,0,1,2-2V13a4,4,0,0,0-4,4Zm2-2a2,2,0,0,1,2,2h2a4,4,0,0,0-4-4Z" fill="#09090b"/>
</svg>
