<svg id="calendar-search" xmlns="http://www.w3.org/2000/svg" width="21" height="22" viewBox="0 0 21 22">
  <path id="Vector" d="M18,11a1,1,0,0,0,2,0ZM17,3V3ZM3,3V3ZM1,5H1ZM1,19H1Zm9.5,3a1,1,0,0,0,0-2ZM15,1a1,1,0,0,0-2,0ZM13,5a1,1,0,0,0,2,0ZM7,1A1,1,0,0,0,5,1ZM5,5A1,1,0,0,0,7,5ZM1,8a1,1,0,0,0,0,2Zm18,2a1,1,0,0,0,0-2Zm.293,11.707a1,1,0,0,0,1.414-1.414Zm-.086-2.914a1,1,0,0,0-1.414,1.414ZM20,11V5H18v6Zm0-6a3,3,0,0,0-.879-2.121L17.707,4.293A1,1,0,0,1,18,5Zm-.879-2.121A3,3,0,0,0,17,2V4a1,1,0,0,1,.707.293ZM17,2H3V4H17ZM3,2a3,3,0,0,0-2.121.879L2.293,4.293A1,1,0,0,1,3,4ZM.879,2.879A3,3,0,0,0,0,5H2a1,1,0,0,1,.293-.707ZM0,5V19H2V5ZM0,19a3,3,0,0,0,.879,2.121l1.414-1.414A1,1,0,0,1,2,19Zm.879,2.121A3,3,0,0,0,3,22V20a1,1,0,0,1-.707-.293ZM3,22h7.5V20H3ZM13,1V5h2V1ZM5,1V5H7V1ZM1,10H19V8H1Zm17,7a2,2,0,0,1-2,2v2a4,4,0,0,0,4-4Zm-2,2a2,2,0,0,1-2-2H12a4,4,0,0,0,4,4Zm-2-2a2,2,0,0,1,2-2V13a4,4,0,0,0-4,4Zm2-2a2,2,0,0,1,2,2h2a4,4,0,0,0-4-4Zm4.707,5.293-1.5-1.5-1.414,1.414,1.5,1.5Z" fill="#09090b"/>
</svg>
