<svg id="calendar-heart" xmlns="http://www.w3.org/2000/svg" width="21.002" height="22" viewBox="0 0 21.002 22">
  <path id="Vector" d="M1,8a1,1,0,0,0,0,2ZM19,9v1a1,1,0,0,0,1-1ZM17,3V3ZM3,3V3ZM1,5H1ZM1,19H1Zm9,3a1,1,0,0,0,0-2ZM7,1A1,1,0,0,0,5,1ZM5,5A1,1,0,0,0,7,5ZM15,1a1,1,0,0,0-2,0ZM13,5a1,1,0,0,0,2,0Zm6.29,8.7h1A1,1,0,0,0,20,12.991Zm-2.65-.52.371.929.014-.006Zm-1.14.87-.7.717a1,1,0,0,0,1.4-.01Zm-.35-.34-.708.706.012.011Zm-2.65-.53.371.929.011,0Zm-.79.53.7.711,0,0Zm.2,3.74-.71.7.007.007ZM15.5,21l-.7.711a1,1,0,0,0,1.405,0Zm3.6-3.55.7.712.008-.008Zm.19-3.74h-1a1,1,0,0,0,.3.711ZM1,10H19V8H1ZM20,9V5H18V9Zm0-4a3,3,0,0,0-.879-2.121L17.707,4.293A1,1,0,0,1,18,5Zm-.879-2.121A3,3,0,0,0,17,2V4a1,1,0,0,1,.707.293ZM17,2H3V4H17ZM3,2a3,3,0,0,0-2.121.879L2.293,4.293A1,1,0,0,1,3,4ZM.879,2.879A3,3,0,0,0,0,5H2a1,1,0,0,1,.293-.707ZM0,5V19H2V5ZM0,19a3,3,0,0,0,.879,2.121l1.414-1.414A1,1,0,0,1,2,19Zm.879,2.121A3,3,0,0,0,3,22V20a1,1,0,0,1-.707-.293ZM3,22h7V20H3ZM5,1V5H7V1Zm8,0V5h2V1Zm7,11.991a3.431,3.431,0,0,0-1.759-.934l-.385,1.963a1.43,1.43,0,0,1,.733.39Zm-1.759-.935a3.43,3.43,0,0,0-1.982.2l.77,1.846a1.43,1.43,0,0,1,.826-.084Zm-1.968.195A3.38,3.38,0,0,0,15.133,13l1.414,1.414a1.38,1.38,0,0,1,.464-.309ZM15.133,13l-.34.34,1.414,1.414.34-.34Zm1.064.33-.35-.34-1.394,1.435.35.34ZM15.858,13a3.43,3.43,0,0,0-1.757-.942l-.392,1.961a1.43,1.43,0,0,1,.732.393ZM14.1,12.062a3.43,3.43,0,0,0-1.984.194l.764,1.848a1.43,1.43,0,0,1,.827-.081Zm-1.973.189A3.338,3.338,0,0,0,11,13l1.414,1.414a1.341,1.341,0,0,1,.454-.309ZM11.007,13a3.58,3.58,0,0,0,.193,5.155l1.42-1.408a1.591,1.591,0,0,1-.207-2.325Zm.2,5.162,3.59,3.55L16.2,20.289l-3.59-3.55Zm5,3.551,3.6-3.55-1.4-1.424-3.6,3.55Zm3.608-3.558A3.579,3.579,0,0,0,19.993,13l-1.407,1.422a1.59,1.59,0,0,1-.2,2.325Zm.48-4.444V13.7h-2v.01Z" fill="#09090b"/>
</svg>
