<svg id="calendar-clock" xmlns="http://www.w3.org/2000/svg" width="21" height="22" viewBox="0 0 21 22">
  <path id="Vector" d="M18,6.5a1,1,0,0,0,2,0ZM17,3V3ZM3,3V3ZM1,5H1ZM1,19H1Zm5.5,3a1,1,0,0,0,0-2ZM15,1a1,1,0,0,0-2,0ZM13,5a1,1,0,0,0,2,0ZM7,1A1,1,0,0,0,5,1ZM5,5A1,1,0,0,0,7,5ZM1,8a1,1,0,0,0,0,2Zm5,2A1,1,0,0,0,6,8Zm8.875,7.281a1,1,0,1,0,1.249-1.562ZM14,15.3H13a1,1,0,0,0,.375.781ZM15,13a1,1,0,0,0-2,0Zm5-6.5V5H18V6.5ZM20,5a3,3,0,0,0-.879-2.121L17.707,4.293A1,1,0,0,1,18,5Zm-.879-2.121A3,3,0,0,0,17,2V4a1,1,0,0,1,.707.293ZM17,2H3V4H17ZM3,2a3,3,0,0,0-2.121.879L2.293,4.293A1,1,0,0,1,3,4ZM.879,2.879A3,3,0,0,0,0,5H2a1,1,0,0,1,.293-.707ZM0,5V19H2V5ZM0,19a3,3,0,0,0,.879,2.121l1.414-1.414A1,1,0,0,1,2,19Zm.879,2.121A3,3,0,0,0,3,22V20a1,1,0,0,1-.707-.293ZM3,22H6.5V20H3ZM13,1V5h2V1ZM5,1V5H7V1ZM1,10H6V8H1Zm15.125,5.719-1.5-1.2-1.249,1.562,1.5,1.2ZM15,15.3V13H13v2.3Zm4-.3a5,5,0,0,1-5,5v2a7,7,0,0,0,7-7Zm-5,5a5,5,0,0,1-5-5H7a7,7,0,0,0,7,7ZM9,15a5,5,0,0,1,5-5V8a7,7,0,0,0-7,7Zm5-5a5,5,0,0,1,5,5h2a7,7,0,0,0-7-7Z" fill="#09090b"/>
</svg>
