<svg id="calendar-off" xmlns="http://www.w3.org/2000/svg" width="22" height="22" viewBox="0 0 22 22">
  <path id="Vector" d="M3.6,4.117a1,1,0,1,0-.8-1.833ZM2,5,1,4.983Q1,4.992,1,5ZM2,19H2Zm16,2v1h0Zm2.732-.77a1,1,0,0,0-1.824-.82ZM19,14.5a1,1,0,0,0,2,0ZM18,3V3ZM8.5,2a1,1,0,0,0,0,2ZM16,1a1,1,0,0,0-2,0ZM14,5a1,1,0,0,0,2,0ZM2,8a1,1,0,0,0,0,2Zm7,2A1,1,0,0,0,9,8Zm11,0a1,1,0,0,0,0-2ZM14.5,8a1,1,0,0,0,0,2ZM1.707.293A1,1,0,0,0,.293,1.707ZM20.293,21.707a1,1,0,0,0,1.414-1.414ZM2.8,2.283A3,3,0,0,0,1.5,3.369L3.168,4.478A1,1,0,0,1,3.6,4.117ZM1.5,3.369A3,3,0,0,0,1,4.983l2,.033a1,1,0,0,1,.168-.538ZM1,5V19H3V5ZM1,19a3,3,0,0,0,.879,2.121l1.414-1.414A1,1,0,0,1,3,19Zm.879,2.121A3,3,0,0,0,4,22V20a1,1,0,0,1-.707-.293ZM4,22H18V20H4Zm14,0a3,3,0,0,0,1.626-.483L18.54,19.839A1,1,0,0,1,18,20Zm1.626-.483a3,3,0,0,0,1.1-1.287l-1.824-.82a1,1,0,0,1-.368.429ZM21,14.5V5H19v9.5ZM21,5a3,3,0,0,0-.879-2.121L18.707,4.293A1,1,0,0,1,19,5Zm-.879-2.121A3,3,0,0,0,18,2V4a1,1,0,0,1,.707.293ZM18,2H8.5V4H18ZM14,1V5h2V1ZM2,10H9V8H2ZM20,8H14.5v2H20ZM.293,1.707l20,20,1.414-1.414-20-20Z" transform="translate(0)" fill="#09090b"/>
</svg>
