<svg id="camera" xmlns="http://www.w3.org/2000/svg" width="22" height="18" viewBox="0 0 22 18">
  <path id="Vector" d="M13.5,1l.768-.64A1,1,0,0,0,13.5,0Zm-5,0V0a1,1,0,0,0-.768.36ZM6,4V5a1,1,0,0,0,.768-.36ZM3,4V4ZM1,6H1Zm0,9H1ZM19,4V4ZM16,4l-.768.64A1,1,0,0,0,16,5ZM13.5,0h-5V2h5ZM7.732.36l-2.5,3L6.768,4.64l2.5-3ZM6,3H3V5H6ZM3,3a3,3,0,0,0-2.121.879L2.293,5.293A1,1,0,0,1,3,5ZM.879,3.879A3,3,0,0,0,0,6H2a1,1,0,0,1,.293-.707ZM0,6v9H2V6Zm0,9a3,3,0,0,0,.879,2.121l1.414-1.414A1,1,0,0,1,2,15Zm.879,2.121A3,3,0,0,0,3,18V16a1,1,0,0,1-.707-.293ZM3,18H19V16H3Zm16,0a3,3,0,0,0,2.121-.879l-1.414-1.414A1,1,0,0,1,19,16Zm2.121-.879A3,3,0,0,0,22,15H20a1,1,0,0,1-.293.707ZM22,15V6H20v9Zm0-9a3,3,0,0,0-.879-2.121L19.707,5.293A1,1,0,0,1,20,6Zm-.879-2.121A3,3,0,0,0,19,3V5a1,1,0,0,1,.707.293ZM19,3H16V5h3Zm-2.232.36-2.5-3L12.732,1.64l2.5,3ZM13,10a2,2,0,0,1-2,2v2a4,4,0,0,0,4-4Zm-2,2a2,2,0,0,1-2-2H7a4,4,0,0,0,4,4ZM9,10a2,2,0,0,1,2-2V6a4,4,0,0,0-4,4Zm2-2a2,2,0,0,1,2,2h2a4,4,0,0,0-4-4Z" fill="#09090b"/>
</svg>
