<svg id="candy-off" xmlns="http://www.w3.org/2000/svg" width="22" height="22" viewBox="0 0 22 22">
  <path id="Vector" d="M8.207,8.207A1,1,0,0,0,6.793,6.793ZM6.5,8.5l-.707-.707L5.786,7.8Zm7,7,.7.714.007-.007Zm1.707-.293a1,1,0,0,0-1.414-1.414Zm-4.6-10.992a1,1,0,1,0,.468,1.944ZM15.5,6.5l-.707.707h0Zm.341,4.423a1,1,0,0,0,1.945.468ZM12,15.5a1,1,0,0,0,2,0ZM14,13a1,1,0,0,0-2,0Zm0-7.5a1,1,0,0,0-2,0ZM12,7.343a1,1,0,1,0,2,0ZM10,9A1,1,0,0,0,8,9ZM8,16.5a1,1,0,0,0,2,0ZM14.019,5.8a1,1,0,0,0,1.961.392ZM16,1l.447-.895a1,1,0,0,0-1.428.7Zm1.367.683.447-.894h0ZM18.708,2V3h0ZM20,2h1a1,1,0,0,0-1-1Zm0,1.292h0Zm.317,1.341.895-.447h0ZM21,6l.2.981a1,1,0,0,0,.7-1.428Zm-5.2.019A1,1,0,1,0,16.2,7.981ZM7.981,16.2A1,1,0,1,0,6.019,15.8ZM6,21l-.447.895a1,1,0,0,0,1.428-.7Zm-1.367-.683-.447.894h0ZM3.292,20V19h0ZM2,20H1a1,1,0,0,0,1,1Zm0-1.292H2Zm-.317-1.341-.895.447h0ZM1,16l-.2-.981a1,1,0,0,0-.7,1.428Zm5.2-.019A1,1,0,0,0,5.8,14.019ZM1.707.293A1,1,0,0,0,.293,1.707ZM20.293,21.707a1,1,0,0,0,1.414-1.414ZM6.793,6.793l-1,1L7.207,9.207l1-1ZM5.786,7.8a5.95,5.95,0,0,0-1.7,4.195l2-.01A3.95,3.95,0,0,1,7.214,9.2Zm-1.7,4.195a5.95,5.95,0,0,0,1.743,4.177l1.414-1.414a3.95,3.95,0,0,1-1.157-2.773Zm1.743,4.177a5.95,5.95,0,0,0,4.177,1.743l.01-2a3.95,3.95,0,0,1-2.773-1.157Zm4.177,1.743a5.95,5.95,0,0,0,4.195-1.7l-1.4-1.428a3.95,3.95,0,0,1-2.785,1.129Zm4.2-1.708,1-1-1.414-1.414-1,1ZM11.077,6.159a3.947,3.947,0,0,1,1.995.039l.543-1.925a5.947,5.947,0,0,0-3.005-.058Zm1.995.039a3.947,3.947,0,0,1,1.721,1.009l1.415-1.414a5.947,5.947,0,0,0-2.593-1.52Zm1.722,1.01A3.946,3.946,0,0,1,15.8,8.928l1.925-.543a5.947,5.947,0,0,0-1.52-2.593ZM15.8,8.928a3.947,3.947,0,0,1,.039,1.995l1.945.468a5.947,5.947,0,0,0-.058-3.005ZM14,15.5V13H12v2.5Zm-2-10V7.343h2V5.5ZM8,9v7.5h2V9Zm7.981-2.8,1-5L15.019.8l-1,5Zm-.428-4.3,1.367.683L17.814.788,16.447.105Zm1.367.683A4,4,0,0,0,18.708,3V1a2,2,0,0,1-.894-.211ZM18.708,3H20V1H18.708ZM19,2V3.292h2V2Zm0,1.292a4,4,0,0,0,.423,1.788l1.789-.895A2,2,0,0,1,21,3.292Zm.422,1.788.683,1.367,1.789-.894-.683-1.367ZM20.8,5.019l-5,1L16.2,7.981l5-1ZM6.019,15.8l-1,5,1.961.392,1-5Zm.428,4.3L5.08,19.422l-.894,1.789,1.367.683ZM5.08,19.423A4,4,0,0,0,3.292,19v2a2,2,0,0,1,.894.211ZM3.292,19H2v2H3.292ZM3,20V18.708H1V20Zm0-1.292a4,4,0,0,0-.423-1.788l-1.789.895A2,2,0,0,1,1,18.708ZM2.578,16.92l-.683-1.367-1.789.894.683,1.367ZM1.2,16.981l5-1L5.8,14.019l-5,1ZM.293,1.707l20,20,1.414-1.414-20-20Z" transform="translate(0)" fill="#09090b"/>
</svg>
