<svg id="candy" xmlns="http://www.w3.org/2000/svg" width="22" height="22" viewBox="0 0 22 22">
  <path id="Vector" d="M8.5,6.5l.707.707L9.214,7.2Zm-2,2,.7.714.007-.007Zm7,7-.707-.707-.007.007Zm2-2-.7-.714-.007.007ZM14,5.5a1,1,0,0,0-2,0Zm-2,10a1,1,0,0,0,2,0Zm-2-9a1,1,0,0,0-2,0Zm-2,10a1,1,0,0,0,2,0ZM14.019,5.8a1,1,0,0,0,1.961.392ZM16,1l.445-.9a1,1,0,0,0-1.425.7Zm1.37.68.449-.893,0,0ZM18.7,2l-.006,1H18.7ZM20,2h1a1,1,0,0,0-1-1Zm.32,2.63.9-.445L21.2,4.157ZM21,6l.2.981a1,1,0,0,0,.7-1.425Zm-5.2.019A1,1,0,1,0,16.2,7.981ZM7.981,16.2A1,1,0,1,0,6.019,15.8ZM6,21l-.445.9a1,1,0,0,0,1.425-.7Zm-1.37-.68-.449.893,0,0ZM3.3,20l.006-1H3.3ZM2,20H1a1,1,0,0,0,1,1Zm0-1.3H3v-.006Zm-.32-1.33-.9.445,0,0ZM1,16l-.2-.981a1,1,0,0,0-.7,1.425Zm5.2-.019A1,1,0,0,0,5.8,14.019Zm1.6-10.188-2,2L7.207,9.207l2-2ZM5.8,7.786A5.95,5.95,0,0,0,4.485,9.717l1.842.779A3.95,3.95,0,0,1,7.2,9.214ZM4.485,9.717a5.95,5.95,0,0,0-.47,2.288l2,.01A3.95,3.95,0,0,1,6.327,10.5Zm-.47,2.288A5.95,5.95,0,0,0,4.462,14.3l1.85-.761a3.95,3.95,0,0,1-.3-1.522ZM4.462,14.3a5.948,5.948,0,0,0,1.3,1.944l1.414-1.414a3.949,3.949,0,0,1-.86-1.291Zm1.3,1.944a5.95,5.95,0,0,0,1.944,1.3l.761-1.85a3.95,3.95,0,0,1-1.291-.86Zm1.944,1.3a5.95,5.95,0,0,0,2.293.447l-.01-2a3.95,3.95,0,0,1-1.522-.3Zm2.293.447a5.95,5.95,0,0,0,2.288-.47L11.5,15.673a3.949,3.949,0,0,1-1.519.312Zm2.288-.47A5.948,5.948,0,0,0,14.214,16.2l-1.428-1.4a3.949,3.949,0,0,1-1.282.873Zm1.924-1.308,2-2-1.414-1.414-2,2ZM16.2,14.214a5.948,5.948,0,0,0,1.315-1.931L15.673,11.5a3.949,3.949,0,0,1-.873,1.282Zm1.315-1.931a5.95,5.95,0,0,0,.47-2.288l-2-.01a3.949,3.949,0,0,1-.312,1.519Zm.47-2.288A5.95,5.95,0,0,0,17.538,7.7l-1.85.761a3.95,3.95,0,0,1,.3,1.522ZM17.538,7.7a5.95,5.95,0,0,0-1.3-1.944L14.828,7.172a3.95,3.95,0,0,1,.86,1.291Zm-1.3-1.944a5.948,5.948,0,0,0-1.944-1.3l-.761,1.85a3.949,3.949,0,0,1,1.291.86ZM14.3,4.462a5.95,5.95,0,0,0-2.293-.447l.01,2a3.95,3.95,0,0,1,1.522.3Zm-2.293-.447a5.95,5.95,0,0,0-2.288.47L10.5,6.327a3.95,3.95,0,0,1,1.519-.312Zm-2.288.47A5.95,5.95,0,0,0,7.786,5.8L9.214,7.2A3.95,3.95,0,0,1,10.5,6.327ZM12,5.5v10h2V5.5Zm-4,1v10h2V6.5Zm7.981-.3,1-5L15.019.8l-1,5Zm-.425-4.3,1.37.68L17.815.784,16.445.1Zm1.365.678A4,4,0,0,0,18.694,3l.012-2a2,2,0,0,1-.887-.213ZM18.7,3H20V1H18.7ZM19,2V3.3h2V2Zm0,1.3a3.807,3.807,0,0,0,.439,1.8L21.2,4.157A1.809,1.809,0,0,1,21,3.3Zm.424,1.775.68,1.37L21.9,5.555l-.68-1.37Zm1.38-.055-5,1L16.2,7.981l5-1ZM6.019,15.8l-1,5,1.961.392,1-5Zm.425,4.3-1.37-.68-.889,1.791,1.37.68Zm-1.365-.678A4,4,0,0,0,3.306,19l-.012,2a2,2,0,0,1,.887.213ZM3.3,19H2v2H3.3ZM3,20V18.7H1V20Zm0-1.306a4,4,0,0,0-.427-1.773l-1.787.9A2,2,0,0,1,1,18.706Zm-.424-1.768-.68-1.37L.1,16.445l.68,1.37Zm-1.38.055,5-1L5.8,14.019l-5,1Z" transform="translate(0 0)" fill="#09090b"/>
</svg>
