<svg id="candy-cane" xmlns="http://www.w3.org/2000/svg" width="22.069" height="22.019" viewBox="0 0 22.069 22.019">
  <path id="Vector" d="M4.766,20l-.853-.522-.015.026Zm-1.22.945-.263-.965ZM1.266,18,.413,17.48.4,17.507Zm8.6-14,.852.523.014-.024Zm10.4,6L19.4,9.5l0,.005ZM13.338,6l.853.522.017-.028Zm2.606.49a1,1,0,1,0,1.744-.979ZM14.938.614a1,1,0,0,0-1.744.979ZM10.86,3.356a1,1,0,0,0-1.789.894Zm.311,5.094a1,1,0,0,0,1.789-.894Zm-3.3-.161a1,1,0,1,0-1.821.828Zm.179,5.228a1,1,0,0,0,1.821-.828Zm-3.2-.261a1,1,0,1,0-1.789.894Zm.311,5.094a1,1,0,0,0,1.789-.894ZM3.9,19.507a1.016,1.016,0,0,1-.26.3l1.225,1.581a3.016,3.016,0,0,0,.772-.888Zm-.26.3a1.017,1.017,0,0,1-.355.177l.526,1.93a3.017,3.017,0,0,0,1.053-.525Zm-.355.177a1.016,1.016,0,0,1-.771-.1l-.992,1.736a3.016,3.016,0,0,0,2.29.291Zm-.771-.1a1.016,1.016,0,0,1-.476-.615L.106,19.8a3.016,3.016,0,0,0,1.413,1.825Zm-.476-.615a1.016,1.016,0,0,1,.1-.771L.4,17.507A3.016,3.016,0,0,0,.106,19.8Zm.082-.744,8.6-14L9.013,3.48l-8.6,14ZM10.732,4.5a5,5,0,0,1,3.037-2.332L13.251.239A7,7,0,0,0,9,3.5Zm3.037-2.332a5,5,0,0,1,3.8.5l1-1.732a7,7,0,0,0-5.314-.7Zm3.8.5A5,5,0,0,1,19.9,5.707l1.932-.518A7,7,0,0,0,18.565.937ZM19.9,5.707a5,5,0,0,1-.5,3.8l1.732,1a7,7,0,0,0,.7-5.314Zm-.5,3.8a1,1,0,0,1-.257.3l1.225,1.581a3,3,0,0,0,.77-.888Zm-.257.3a1,1,0,0,1-.351.175l.524,1.93a3,3,0,0,0,1.052-.524Zm-.351.175a1,1,0,0,1-.391.027L18.14,11.99a3,3,0,0,0,1.173-.08Zm-.391.027a1,1,0,0,1-.371-.126l-1,1.732a3,3,0,0,0,1.113.377Zm-.371-.126a1,1,0,0,1-.294-.259l-1.589,1.215a3,3,0,0,0,.883.776Zm-.294-.259a1,1,0,0,1-.172-.352l-1.934.511a3,3,0,0,0,.517,1.056ZM17.56,9.27a1,1,0,0,1-.024-.391l-1.982-.271a3,3,0,0,0,.072,1.173Zm-.024-.391a1,1,0,0,1,.128-.37L15.939,7.5a3,3,0,0,0-.384,1.111Zm.128-.37A3,3,0,0,0,18.049,7.4l-1.982-.271a1,1,0,0,1-.128.37ZM18.049,7.4a3,3,0,0,0-.072-1.173l-1.934.511a1,1,0,0,1,.024.391Zm-.072-1.173a3,3,0,0,0-.517-1.056L15.871,6.384a1,1,0,0,1,.172.352ZM17.459,5.17a3,3,0,0,0-.883-.776l-1,1.732a1,1,0,0,1,.294.259Zm-.883-.776a3,3,0,0,0-1.113-.377L15.205,6a1,1,0,0,1,.371.126Zm-1.113-.377a3,3,0,0,0-1.173.08l.524,1.93A1,1,0,0,1,15.205,6ZM14.29,4.1a3,3,0,0,0-1.052.524L14.464,6.2a1,1,0,0,1,.351-.175Zm-1.052.524a3,3,0,0,0-.77.888l1.739.989a1,1,0,0,1,.257-.3Zm-.753.86-8.572,14,1.706,1.044,8.572-14Zm5.2.033-2.75-4.9-1.744.979,2.75,4.9ZM9.071,4.251l2.1,4.2,1.789-.894-2.1-4.2ZM6.055,9.117l2,4.4,1.821-.828-2-4.4ZM3.071,14.151l2.1,4.2,1.789-.894-2.1-4.2Z" transform="translate(0 0)" fill="#09090b"/>
</svg>
