<svg id="cannabis" xmlns="http://www.w3.org/2000/svg" width="22" height="22" viewBox="0 0 22 22">
  <path id="Vector" d="M10,21a1,1,0,0,0,2,0Zm1-4,.707-.707a1,1,0,0,0-1.414,0ZM6,11v1a1,1,0,0,0,.555-1.832ZM1,14l-.949-.316a1,1,0,0,0,.555,1.235Zm6,1,.707.707a1,1,0,0,0-.9-1.688ZM5,20H4a1,1,0,0,0,1,1Zm12,0v1a1,1,0,0,0,1-1Zm-2-5,.2-.981a1,1,0,0,0-.9,1.688Zm6-1,.394.919a1,1,0,0,0,.555-1.235Zm-5-3-.555-.832A1,1,0,0,0,16,12Zm4-6h1a1,1,0,0,0-1-1ZM13,8H12a1,1,0,0,0,1.707.707ZM11,1l.8-.6a1,1,0,0,0-1.6,0ZM9,8l-.707.707A1,1,0,0,0,10,8ZM2,5V4A1,1,0,0,0,1,5ZM12,21V17H10v4ZM6,10a7.622,7.622,0,0,0-3.365,1.066,8.015,8.015,0,0,0-1.537,1.1A3.8,3.8,0,0,0,.052,13.684l1.9.632a1.878,1.878,0,0,1,.517-.688,6.028,6.028,0,0,1,1.15-.819A5.788,5.788,0,0,1,6,12ZM.606,14.919a13.907,13.907,0,0,0,4.648,1.142,9.96,9.96,0,0,0,1.382-.009c.166-.013.3-.029.392-.043l.113-.018.035-.006.012,0H7.2s0,0-.2-.981-.2-.981-.2-.981h0l-.057.009c-.056.008-.147.019-.27.029a7.972,7.972,0,0,1-1.1.006,11.915,11.915,0,0,1-3.977-.983Zm5.687-.626A8.162,8.162,0,0,0,4,20H6a6.164,6.164,0,0,1,1.707-4.293ZM5,21c2.913,0,5.159-1.745,6.707-3.293l-1.414-1.414C8.841,17.745,7.088,19,5,19Zm5.293-3.293C11.841,19.255,14.088,21,17,21V19c-2.087,0-3.841-1.255-5.293-2.707ZM18,20a8.162,8.162,0,0,0-2.293-5.707l-1.414,1.414A6.164,6.164,0,0,1,16,20Zm-3-5c-.2.981-.2.981-.2.981h.007l.012,0,.035.006.113.018c.094.014.226.029.392.043a9.96,9.96,0,0,0,1.382.009,13.907,13.907,0,0,0,4.648-1.142l-.788-1.838a11.916,11.916,0,0,1-3.977.983,7.973,7.973,0,0,1-1.1-.006c-.123-.01-.214-.021-.27-.029L15.2,14.02h0s0,0-.2.981Zm6.949-1.316A3.8,3.8,0,0,0,20.9,12.169a8.016,8.016,0,0,0-1.537-1.1A7.623,7.623,0,0,0,16,10v2a5.787,5.787,0,0,1,2.385.809,6.027,6.027,0,0,1,1.15.819,1.878,1.878,0,0,1,.517.688Zm-5.394-1.852A12.368,12.368,0,0,0,19.373,8.96,7.43,7.43,0,0,0,21,5H19a5.63,5.63,0,0,1-1.248,2.79,10.459,10.459,0,0,1-2.306,2.378ZM20,4a10.776,10.776,0,0,0-4.285,1.026,11.845,11.845,0,0,0-3.422,2.267l1.414,1.414a9.875,9.875,0,0,1,2.828-1.858A8.8,8.8,0,0,1,20,6ZM14,8A12.467,12.467,0,0,0,11.8.4L10.2,1.6A10.494,10.494,0,0,1,12,8ZM10.2.4A12.467,12.467,0,0,0,8,8h2a10.494,10.494,0,0,1,1.8-6.4ZM9.707,7.293A11.846,11.846,0,0,0,6.286,5.026,10.775,10.775,0,0,0,2,4V6a8.8,8.8,0,0,1,3.465.849A9.875,9.875,0,0,1,8.293,8.707ZM1,5A7.429,7.429,0,0,0,2.627,8.96a12.367,12.367,0,0,0,2.818,2.872l1.109-1.664A10.46,10.46,0,0,1,4.248,7.79,5.63,5.63,0,0,1,3,5Z" transform="translate(0 0)" fill="#09090b"/>
</svg>
