<svg id="captions-off" xmlns="http://www.w3.org/2000/svg" width="22" height="22" viewBox="0 0 22 22">
  <path id="Vector" d="M9.5,3a1,1,0,0,0,0,2ZM18,4V4Zm1,10.5a1,1,0,0,0,2,0ZM16,11a1,1,0,0,0,0-2Zm-.5-2a1,1,0,0,0,0,2ZM18,19a1,1,0,0,0,0-2ZM2,16H2ZM4,5A1,1,0,0,0,4,3ZM1.707.293A1,1,0,0,0,.293,1.707ZM20.293,21.707a1,1,0,0,0,1.414-1.414ZM6,9a1,1,0,0,0,0,2Zm4,2a1,1,0,0,0,0-2ZM6,13a1,1,0,0,0,0,2Zm2.5,2a1,1,0,0,0,0-2Zm1-10H18V3H9.5ZM18,5a1,1,0,0,1,.707.293l1.414-1.414A3,3,0,0,0,18,3Zm.707.293A1,1,0,0,1,19,6h2a3,3,0,0,0-.879-2.121ZM19,6v8.5h2V6ZM16,9h-.5v2H16Zm2,8H4v2H18ZM4,17a1,1,0,0,1-.707-.293L1.879,18.121A3,3,0,0,0,4,19Zm-.707-.293A1,1,0,0,1,3,16H1a3,3,0,0,0,.879,2.121ZM3,16V6H1V16ZM3,6a1,1,0,0,1,.293-.707L1.879,3.879A3,3,0,0,0,1,6Zm.293-.707A1,1,0,0,1,4,5V3a3,3,0,0,0-2.121.879Zm-3-3.586,20,20,1.414-1.414-20-20ZM6,11h4V9H6Zm0,4H8.5V13H6Z" transform="translate(0)" fill="#09090b"/>
</svg>
