<svg id="car-front" xmlns="http://www.w3.org/2000/svg" width="20" height="17" viewBox="0 0 20 17">
  <path id="Vector" d="M19.707,4.708a1,1,0,0,0-1.414-1.414ZM15.5,2.3l-.937.35.01.026ZM13.646,1l.01-1h-.01ZM6.4,1,6.377,2H6.4ZM4.5,2.258l.928.371h0ZM1.707,3.293A1,1,0,0,0,.293,4.708ZM5,9a1,1,0,0,0,0,2Zm.01,2a1,1,0,0,0,0-2ZM15,9a1,1,0,0,0,0,2Zm.01,2a1,1,0,0,0,0-2ZM2,16a1,1,0,0,0,2,0Zm14,0a1,1,0,0,0,2,0ZM18.293,3.293l-2,2,1.414,1.414,2-2Zm-.366,2.331-1.5-3.7-1.853.751,1.5,3.7Zm-1.49-3.674A3,3,0,0,0,15.349.544L14.2,2.182a1,1,0,0,1,.363.469ZM15.349.544A3,3,0,0,0,13.656,0l-.02,2a1,1,0,0,1,.564.181ZM13.646,0H6.4V2h7.246ZM6.423,0A3,3,0,0,0,4.7.5L5.8,2.166A1,1,0,0,1,6.377,2ZM4.7.5a3,3,0,0,0-1.132,1.39l1.857.742A1,1,0,0,1,5.8,2.166ZM3.569,1.886l-1.5,3.743,1.857.743,1.5-3.743Zm.139,3.407-2-2L.293,4.708l2,2ZM5,11h.01V9H5Zm10,0h.01V9H15ZM3,7H17V5H3ZM17,7a1,1,0,0,1,1,1h2a3,3,0,0,0-3-3Zm1,1v4h2V8Zm0,4a1,1,0,0,1-1,1v2a3,3,0,0,0,3-3Zm-1,1H3v2H17ZM3,13a1,1,0,0,1-1-1H0a3,3,0,0,0,3,3ZM2,12V8H0v4ZM2,8A1,1,0,0,1,3,7V5A3,3,0,0,0,0,8Zm0,6v2H4V14Zm14,0v2h2V14Z" transform="translate(0 0)" fill="#09090b"/>
</svg>
