<svg id="car-taxi-front" xmlns="http://www.w3.org/2000/svg" width="20" height="20" viewBox="0 0 20 20">
  <path id="Vector" d="M8,0A1,1,0,0,0,8,2Zm4,2a1,1,0,0,0,0-2Zm7.707,5.707a1,1,0,1,0-1.414-1.414ZM15.5,5.3l-.937.35.01.026ZM13.646,4l.01-1h-.01ZM6.4,4,6.377,5H6.4ZM4.5,5.257l.928.371h0ZM1.707,6.293A1,1,0,1,0,.293,7.707ZM5,12a1,1,0,0,0,0,2Zm.01,2a1,1,0,0,0,0-2ZM15,12a1,1,0,0,0,0,2Zm.01,2a1,1,0,0,0,0-2ZM2,19a1,1,0,0,0,2,0Zm14,0a1,1,0,0,0,2,0ZM8,2h4V0H8ZM18.293,6.293l-2,2,1.414,1.414,2-2Zm-.366,2.331-1.5-3.7-1.853.751,1.5,3.7ZM16.437,4.95a3,3,0,0,0-1.088-1.406L14.2,5.181a1,1,0,0,1,.363.469ZM15.349,3.544A3,3,0,0,0,13.656,3l-.02,2a1,1,0,0,1,.564.181ZM13.646,3H6.4V5h7.246ZM6.423,3A3,3,0,0,0,4.7,3.5L5.8,5.165A1,1,0,0,1,6.377,5ZM4.7,3.5A3,3,0,0,0,3.568,4.886l1.857.742A1,1,0,0,1,5.8,5.165ZM3.569,4.886l-1.5,3.743,1.857.743,1.5-3.743Zm.139,3.407-2-2L.293,7.707l2,2ZM5,14h.01V12H5Zm10,0h.01V12H15ZM3,10H17V8H3Zm14,0a1,1,0,0,1,1,1h2a3,3,0,0,0-3-3Zm1,1v4h2V11Zm0,4a1,1,0,0,1-1,1v2a3,3,0,0,0,3-3Zm-1,1H3v2H17ZM3,16a1,1,0,0,1-1-1H0a3,3,0,0,0,3,3ZM2,15V11H0v4Zm0-4a1,1,0,0,1,1-1V8a3,3,0,0,0-3,3Zm0,6v2H4V17Zm14,0v2h2V17Z" fill="#09090b"/>
</svg>
