<svg id="car" xmlns="http://www.w3.org/2000/svg" width="22" height="14" viewBox="0 0 22 14">
  <path id="Vector" d="M19.5,5.1l-.268.964.025.007ZM15,4l-.733.68a1,1,0,0,0,.516.3ZM12.8,1.7l.707-.707a1,1,0,0,0-.082-.074ZM2.6,1.9l-.857-.515q-.023.039-.043.08ZM1.2,4.8.3,4.365a1,1,0,0,0-.045.11ZM18,12h2V10H18Zm2,0a1.942,1.942,0,0,0,2-2H20a.169.169,0,0,1-.005.05A.071.071,0,0,1,20,10.038.129.129,0,0,1,20.038,10l.012-.006A.169.169,0,0,1,20,10Zm2-2V7H20v3Zm0-3a3.037,3.037,0,0,0-2.257-2.87l-.485,1.94A1.043,1.043,0,0,1,20,7ZM19.768,4.136c-.919-.255-2.06-.534-2.963-.747-.453-.107-.849-.2-1.133-.263l-.333-.075-.09-.02-.024-.005h-.008L15,4l-.217.976h.007l.022.005L14.9,5l.328.074c.279.064.67.154,1.117.259.9.212,2.007.483,2.887.728ZM15,4l.733-.68h0l0,0L15.717,3.3l-.043-.047-.161-.172c-.137-.146-.329-.351-.549-.584-.439-.464-1-1.047-1.457-1.507L12.093,2.407c.44.44.982,1.007,1.418,1.468.217.23.407.431.542.576l.158.169.042.045.011.012,0,0h0ZM13.425.919A3.87,3.87,0,0,0,11,0V2a1.886,1.886,0,0,1,1.175.481ZM11,0H4V2h7ZM4,0A2.688,2.688,0,0,0,1.743,1.385L3.457,2.414A.717.717,0,0,1,4,2ZM1.7,1.465.3,4.365l1.8.87,1.4-2.9ZM.254,4.476A4.7,4.7,0,0,0,0,6H2a2.7,2.7,0,0,1,.146-.876ZM0,6v4H2V6Zm0,4a2,2,0,0,0,.568,1.432A2,2,0,0,0,2,12V10a.169.169,0,0,1-.05-.005L1.962,10A.129.129,0,0,1,2,10.038a.07.07,0,0,1,.006.012A.169.169,0,0,1,2,10Zm2,2H4V10H2Zm5-1a1,1,0,0,1-1,1v2a3,3,0,0,0,3-3ZM6,12a1,1,0,0,1-1-1H3a3,3,0,0,0,3,3ZM5,11a1,1,0,0,1,1-1V8a3,3,0,0,0-3,3Zm1-1a1,1,0,0,1,1,1H9A3,3,0,0,0,6,8Zm2,2h6V10H8Zm9-1a1,1,0,0,1-1,1v2a3,3,0,0,0,3-3Zm-1,1a1,1,0,0,1-1-1H13a3,3,0,0,0,3,3Zm-1-1a1,1,0,0,1,1-1V8a3,3,0,0,0-3,3Zm1-1a1,1,0,0,1,1,1h2a3,3,0,0,0-3-3Z" fill="#09090b"/>
</svg>
