<svg id="case-sensitive" xmlns="http://www.w3.org/2000/svg" width="20" height="10" viewBox="0 0 20 10">
  <path id="Vector" d="M.106,8.553a1,1,0,1,0,1.789.894ZM5,1,5.895.553a1,1,0,0,0-1.789,0ZM8.106,9.447a1,1,0,1,0,1.789-.894ZM2,6A1,1,0,0,0,2,8ZM8,8A1,1,0,0,0,8,6ZM20,3a1,1,0,0,0-2,0ZM18,9a1,1,0,0,0,2,0ZM1.895,9.447l4-8L4.106.553l-4,8Zm2.211-8,4,8,1.789-.894-4-8ZM2,8H8V6H2ZM18,6a2,2,0,0,1-2,2v2a4,4,0,0,0,4-4ZM16,8a2,2,0,0,1-2-2H12a4,4,0,0,0,4,4ZM14,6a2,2,0,0,1,2-2V2a4,4,0,0,0-4,4Zm2-2a2,2,0,0,1,2,2h2a4,4,0,0,0-4-4Zm2-1V9h2V3Z" transform="translate(0)" fill="#09090b"/>
</svg>
