<svg id="case-lower" xmlns="http://www.w3.org/2000/svg" width="18" height="10" viewBox="0 0 18 10">
  <path id="Vector" d="M8,3A1,1,0,0,0,6,3ZM6,9A1,1,0,0,0,8,9Zm6-8a1,1,0,0,0-2,0ZM10,9a1,1,0,0,0,2,0ZM6,6A2,2,0,0,1,4,8v2A4,4,0,0,0,8,6ZM4,8A2,2,0,0,1,2,6H0a4,4,0,0,0,4,4ZM2,6A2,2,0,0,1,4,4V2A4,4,0,0,0,0,6ZM4,4A2,2,0,0,1,6,6H8A4,4,0,0,0,4,2ZM6,3V9H8V3ZM16,6a2,2,0,0,1-2,2v2a4,4,0,0,0,4-4ZM14,8a2,2,0,0,1-2-2H10a4,4,0,0,0,4,4ZM12,6a2,2,0,0,1,2-2V2a4,4,0,0,0-4,4Zm2-2a2,2,0,0,1,2,2h2a4,4,0,0,0-4-4ZM10,1V9h2V1Z" fill="#09090b"/>
</svg>
