<svg id="case-upper" xmlns="http://www.w3.org/2000/svg" width="20.5" height="10" viewBox="0 0 20.5 10">
  <path id="Vector" d="M.106,8.553a1,1,0,1,0,1.789.894ZM5,1,5.895.553a1,1,0,0,0-1.789,0ZM8.106,9.447a1,1,0,1,0,1.789-.894ZM2,6A1,1,0,0,0,2,8ZM8,8A1,1,0,0,0,8,6Zm5-4a1,1,0,0,0,0,2Zm0,5H12a1,1,0,0,0,1,1Zm0-8V0a1,1,0,0,0-1,1Zm4,0V1Zm0,3a1,1,0,0,0,0,2ZM1.895,9.447l4-8L4.106.553l-4,8Zm2.211-8,4,8,1.789-.894-4-8ZM2,8H8V6H2ZM13,6h4.5V4H13Zm4.5,0a1,1,0,0,1,.707.293l1.414-1.414A3,3,0,0,0,17.5,4Zm.707.293A1,1,0,0,1,18.5,7h2a3,3,0,0,0-.879-2.121ZM18.5,7a1,1,0,0,1-.293.707l1.414,1.414A3,3,0,0,0,20.5,7Zm-.293.707A1,1,0,0,1,17.5,8v2a3,3,0,0,0,2.121-.879ZM17.5,8H13v2h4.5ZM14,9V1H12V9ZM13,2h4V0H13Zm4,0a1,1,0,0,1,.707.293L19.122.879A3,3,0,0,0,17,0Zm.707.293A1,1,0,0,1,18,3h2A3,3,0,0,0,19.122.879ZM18,3a1,1,0,0,1-.293.707l1.414,1.414A3,3,0,0,0,20,3Zm-.293.707A1,1,0,0,1,17,4V6a3,3,0,0,0,2.121-.879Z" transform="translate(0)" fill="#09090b"/>
</svg>
