<svg id="cassette-tape" xmlns="http://www.w3.org/2000/svg" width="22" height="18" viewBox="0 0 22 18">
  <path id="Vector" d="M4.028,16.765a1,1,0,1,0,1.944.469ZM5.7,14.1l.972.235,0-.021ZM7.1,13l-.023,1H7.1Zm7.8,0v1h.041Zm1.4,1,.974-.227q-.007-.029-.015-.058Zm-.274,3.227a1,1,0,0,0,1.948-.454ZM3,2H19V0H3ZM19,2a1,1,0,0,1,1,1h2a3,3,0,0,0-3-3Zm1,1V15h2V3Zm0,12a1,1,0,0,1-1,1v2a3,3,0,0,0,3-3Zm-1,1H3v2H19ZM3,16a1,1,0,0,1-1-1H0a3,3,0,0,0,3,3ZM2,15V3H0V15ZM2,3A1,1,0,0,1,3,2V0A3,3,0,0,0,0,3ZM8,7A1,1,0,0,1,7,8v2a3,3,0,0,0,3-3ZM7,8A1,1,0,0,1,6,7H4a3,3,0,0,0,3,3ZM6,7A1,1,0,0,1,7,6V4A3,3,0,0,0,4,7ZM7,6A1,1,0,0,1,8,7h2A3,3,0,0,0,7,4Zm0,4h8V8H7Zm9-3a1,1,0,0,1-1,1v2a3,3,0,0,0,3-3ZM15,8a1,1,0,0,1-1-1H12a3,3,0,0,0,3,3ZM14,7a1,1,0,0,1,1-1V4a3,3,0,0,0-3,3Zm1-1a1,1,0,0,1,1,1h2a3,3,0,0,0-3-3ZM5.972,17.235l.7-2.9-1.944-.469-.7,2.9Zm.7-2.921a.4.4,0,0,1,.144-.229L5.585,12.512a2.4,2.4,0,0,0-.862,1.374Zm.144-.229A.4.4,0,0,1,7.077,14l.046-2a2.4,2.4,0,0,0-1.538.512ZM7.1,14h7.8V12H7.1Zm7.841,0a.4.4,0,0,1,.249.074l1.162-1.628A2.4,2.4,0,0,0,14.859,12Zm.249.074a.4.4,0,0,1,.151.212l1.917-.57a2.4,2.4,0,0,0-.906-1.269Zm.136.154.7,3,1.948-.454-.7-3Z" fill="#09090b"/>
</svg>
