<svg id="castle" xmlns="http://www.w3.org/2000/svg" width="22" height="22" viewBox="0 0 22 22">
  <path id="Vector" d="M1,19H1Zm15-9a1,1,0,0,0,2,0ZM4,10a1,1,0,0,0,2,0Zm9,11a1,1,0,0,0,2,0ZM7,21a1,1,0,0,0,2,0ZM22,8a1,1,0,0,0-2,0ZM2,8A1,1,0,0,0,0,8ZM6,1A1,1,0,0,0,4,1ZM18,1a1,1,0,0,0-2,0ZM8,3a1,1,0,0,0,2,0Zm2-2A1,1,0,0,0,8,1Zm2,2a1,1,0,0,0,2,0Zm2-2a1,1,0,0,0-2,0Zm8,18V10H20v9ZM21,9H1v2H21ZM0,10v9H2V10Zm0,9a3,3,0,0,0,.879,2.121l1.414-1.414A1,1,0,0,1,2,19Zm.879,2.121A3,3,0,0,0,3,22V20a1,1,0,0,1-.707-.293ZM3,22H19V20H3Zm16,0a3,3,0,0,0,2.121-.879l-1.414-1.414A1,1,0,0,1,19,20Zm2.121-.879A3,3,0,0,0,22,19H20a1,1,0,0,1-.293.707ZM18,10V3H16v7ZM17,2H5V4H17ZM4,3v7H6V3ZM15,21V17H13v4Zm0-4a4,4,0,0,0-1.172-2.828l-1.414,1.414A2,2,0,0,1,13,17Zm-1.172-2.828A4,4,0,0,0,11,13v2a2,2,0,0,1,1.414.586ZM11,13a4,4,0,0,0-2.828,1.172l1.414,1.414A2,2,0,0,1,11,15ZM8.172,14.172A4,4,0,0,0,7,17H9a2,2,0,0,1,.586-1.414ZM7,17v4H9V17Zm15-7V8H20v2ZM2,10V8H0v2ZM6,3V1H4V3ZM18,3V1H16V3ZM10,3V1H8V3Zm4,0V1H12V3Z" fill="#09090b"/>
</svg>
