<svg id="cctv" xmlns="http://www.w3.org/2000/svg" width="21.382" height="19.01" viewBox="0 0 21.382 19.01">
  <path id="Vector" d="M15.75,8.01a1,1,0,1,0,0,2Zm3.632,1v-1h0Zm.894,1.447.894.447h0Zm-2.034,4.069.894.447h0Zm-1.708.134.814-.581h0Zm-1.311-3.552A1,1,0,0,0,13.6,12.272Zm.882-5.045.448-.894h0ZM16.553,7.4l.894.447h0Zm-3.106,6.211-.894-.447h0Zm-1.342.447.448-.894h0ZM2.61,9.31l-.45.893h0ZM1.31,5.4l.9.446v0ZM2.69,2.61,1.8,2.162l0,.005Zm3.92-1.3L6.161,2.2h0ZM1,15.01a1,1,0,0,0,0,2Zm3.76,1,.007-1H4.76Zm1.8-1.1.893.45,0-.005ZM8.9,12.455A1,1,0,1,0,7.1,11.566ZM0,18.01a1,1,0,0,0,2,0Zm2-4a1,1,0,0,0-2,0Zm4-9a1,1,0,0,0,0,2Zm.01,2a1,1,0,0,0,0-2Zm9.74,3h3.632v-2H15.75Zm3.631,0h0l.975-1.747a2,2,0,0,0-.973-.253Zm0,0h0l1.7-1.051a2,2,0,0,0-.727-.7Zm0,0h0l2-.09a2,2,0,0,0-.3-.961Zm0,0h0l1.789.894a2,2,0,0,0,.209-.984Zm0,0-2.034,4.069,1.789.894L21.171,10.9Zm-2.034,4.069h0l1.117,1.659a2,2,0,0,0,.672-.764Zm0,0h0l.156,1.994a2,2,0,0,0,.961-.335Zm0,0h0L16.5,15.892a2,2,0,0,0,1,.181Zm0,0h0L15.72,15.242a2,2,0,0,0,.783.65Zm0,0-2.124-2.97L13.6,12.272l2.124,2.97ZM15.658,6.958h0l1.9-.632a2,2,0,0,0-1-1.156Zm0,0h0l1.789.894a2,2,0,0,0,.108-1.526Zm0,0-3.106,6.211,1.789.895,3.106-6.211Zm-3.106,6.211h0l1.31,1.511a2,2,0,0,0,.479-.616Zm0,0h0l.632,1.9a2,2,0,0,0,.678-.387Zm0,0h0l-.142,1.995a2,2,0,0,0,.774-.1Zm0,0h0l-.9,1.788a2,2,0,0,0,.753.206Zm0,0-9.5-4.752-.9,1.789,9.5,4.752ZM3.06,8.417A1.92,1.92,0,0,1,2.1,7.308L.2,7.939A3.92,3.92,0,0,0,2.16,10.2ZM2.1,7.308a1.92,1.92,0,0,1,.1-1.462L.415,4.954A3.92,3.92,0,0,0,.2,7.939Zm.1-1.465,1.38-2.79L1.793,2.167.413,4.957ZM3.584,3.059a1.92,1.92,0,0,1,.46-.591L2.736.955A3.92,3.92,0,0,0,1.8,2.162Zm.46-.591A1.92,1.92,0,0,1,4.7,2.1L4.066.2a3.92,3.92,0,0,0-1.33.756ZM4.7,2.1a1.92,1.92,0,0,1,.744-.093L5.584.01A3.92,3.92,0,0,0,4.066.2Zm.744-.093a1.92,1.92,0,0,1,.722.2l.9-1.787A3.92,3.92,0,0,0,5.584.01Zm.723.2,9.5,4.753.9-1.788L7.057.416ZM1,17.01H4.76v-2H1Zm3.753,0a3,3,0,0,0,1.585-.44L5.3,14.864a1,1,0,0,1-.528.147Zm1.585-.44a3,3,0,0,0,1.115-1.21l-1.786-.9a1,1,0,0,1-.372.4Zm1.117-1.215,1.44-2.9L7.1,11.566l-1.44,2.9ZM2,18.01v-4H0v4Zm4-11h.01v-2H6Z" transform="translate(0 0)" fill="#09090b"/>
</svg>
