<svg id="check-check" xmlns="http://www.w3.org/2000/svg" width="22" height="13.5" viewBox="0 0 22 13.5">
  <path id="Vector" d="M17.707,1.707A1,1,0,0,0,16.293.293ZM6,12l-.707.707a1,1,0,0,0,1.414,0ZM1.707,6.293A1,1,0,1,0,.293,7.707Zm20-.586a1,1,0,0,0-1.414-1.414ZM13.5,12.5l-.707.707a1,1,0,0,0,1.414,0Zm-.793-2.207a1,1,0,0,0-1.414,1.414Zm3.586-10-11,11,1.414,1.414,11-11Zm-9.586,11-5-5L.293,7.707l5,5Zm13.586-7-7.5,7.5,1.414,1.414,7.5-7.5Zm-6.086,7.5-1.5-1.5-1.414,1.414,1.5,1.5Z" transform="translate(0 0)" fill="#09090b"/>
</svg>
