<svg id="chef-hat" xmlns="http://www.w3.org/2000/svg" width="20.007" height="20.004" viewBox="0 0 20.007 20.004">
  <path id="Vector" d="M16.729,11.613l-.431-.9h0ZM14.6,4.024l-.919.4a1,1,0,0,0,1.021.6ZM10,1V1ZM5.409,4.024l-.1.995a1,1,0,0,0,1.021-.6ZM3.275,11.612l.434-.9h0ZM4,14a1,1,0,1,0,0,2Zm12,2a1,1,0,0,0,0-2Zm-1,4a2,2,0,0,0,1.414-.586L15,18h0Zm1.414-.586A2,2,0,0,0,17,18H15ZM17,18v-5.35H15V18Zm0-5.35c0,.01,0,0,.017-.028a.385.385,0,0,1,.142-.111l-.864-1.8A2.194,2.194,0,0,0,15,12.654Zm.158-.139a5,5,0,0,0,2.4-2.448l-1.821-.826A3,3,0,0,1,16.3,10.71Zm2.4-2.448a5,5,0,0,0,.26-3.419l-1.925.541a3,3,0,0,1-.156,2.051Zm.26-3.419a5,5,0,0,0-2-2.782L16.693,5.521a3,3,0,0,1,1.2,1.669Zm-2-2.782a5,5,0,0,0-3.325-.838L14.7,5.019a3,3,0,0,1,1.995.5Zm-2.3-.238A6,6,0,0,0,13.3.989l-1.1,1.67a4,4,0,0,1,1.475,1.76ZM13.3.989A6,6,0,0,0,10,0V2a4,4,0,0,1,2.2.659ZM10,0A6,6,0,0,0,6.7.989l1.1,1.67A4,4,0,0,1,10,2ZM6.7.989A6,6,0,0,0,4.49,3.629l1.837.79A4,4,0,0,1,7.8,2.659ZM5.511,3.029a5,5,0,0,0-3.323.839L3.313,5.522a3,3,0,0,1,1.994-.5Zm-3.323.839a5,5,0,0,0-2,2.781l1.925.541a3,3,0,0,1,1.2-1.669Zm-2,2.781a5,5,0,0,0,.259,3.417l1.822-.825a3,3,0,0,1-.155-2.05Zm.259,3.417a5,5,0,0,0,2.4,2.448l.862-1.8A3,3,0,0,1,2.267,9.241Zm2.4,2.447a.391.391,0,0,1,.144.113c.022.03.017.038.017.028H5a2.2,2.2,0,0,0-1.293-1.942Zm.161.14V18H5V12.653ZM3,18a2,2,0,0,0,.586,1.414L5,18H3Zm.586,1.414A2,2,0,0,0,5,20V18H5ZM5,20H15V18H5ZM4,16H16V14H4Z" transform="translate(0)" fill="#09090b"/>
</svg>
