<svg id="chevrons-left" xmlns="http://www.w3.org/2000/svg" width="14" height="12" viewBox="0 0 14 12">
  <path id="Vector" d="M5.293,11.707a1,1,0,1,0,1.414-1.414ZM1,6,.293,5.293a1,1,0,0,0,0,1.414ZM6.707,1.707A1,1,0,0,0,5.293.293Zm5.586,10a1,1,0,0,0,1.414-1.414ZM8,6l-.707-.707a1,1,0,0,0,0,1.414Zm5.707-4.293A1,1,0,0,0,12.293.293Zm-7,8.586-5-5L.293,6.707l5,5Zm-5-3.586,5-5L5.293.293l-5,5Zm12,3.586-5-5L7.293,6.707l5,5Zm-5-3.586,5-5L12.293.293l-5,5Z" transform="translate(0 0)" fill="#09090b"/>
</svg>
