<svg id="church" xmlns="http://www.w3.org/2000/svg" width="22" height="22" viewBox="0 0 22 22">
  <path id="Vector" d="M17.447,5.106a1,1,0,0,0-.894,1.789ZM21,8h1a1,1,0,0,0-.553-.894ZM1,19H1ZM1,8,.553,7.106A1,1,0,0,0,0,8ZM5.447,6.894a1,1,0,1,0-.894-1.789ZM12,21a1,1,0,0,0,2,0Zm-1-6v0ZM8,21a1,1,0,0,0,2,0Zm8,0a1,1,0,0,0,2,0ZM17,4h1a1,1,0,0,0-.553-.894ZM11,1l.447-.894a1,1,0,0,0-.894,0ZM5,4l-.447-.894A1,1,0,0,0,4,4ZM4,21a1,1,0,0,0,2,0ZM12,6a1,1,0,0,0-2,0Zm-2,5a1,1,0,0,0,2,0ZM9,7A1,1,0,0,0,9,9Zm4,2a1,1,0,0,0,0-2Zm3.553-2.106,4,2,.894-1.789-4-2ZM20,8V19h2V8Zm0,11a1,1,0,0,1-.293.707l1.414,1.414A3,3,0,0,0,22,19Zm-.293.707A1,1,0,0,1,19,20v2a3,3,0,0,0,2.121-.879ZM19,20H3v2H19ZM3,20a1,1,0,0,1-.707-.293L.879,21.121A3,3,0,0,0,3,22Zm-.707-.293A1,1,0,0,1,2,19H0a3,3,0,0,0,.879,2.121ZM2,19V8H0V19ZM1.447,8.894l4-2L4.553,5.106l-4,2ZM14,21V17H12v4Zm0-4a3,3,0,0,0-.879-2.121l-1.414,1.414A1,1,0,0,1,12,17Zm-.879-2.121A3,3,0,0,0,11,14v2a1,1,0,0,1,.707.293ZM11,14a3,3,0,0,0-2.121.879l1.414,1.414A1,1,0,0,1,11,16Zm-2.121.879A3,3,0,0,0,8,17h2a1,1,0,0,1,.293-.707ZM8,17v4h2V17Zm10,4V4H16V21ZM17.447,3.106l-6-3-.894,1.789,6,3Zm-6.894-3-6,3,.894,1.789,6-3ZM4,4V21H6V4Zm6,2v5h2V6ZM9,9h4V7H9Z" transform="translate(0 0)" fill="#09090b"/>
</svg>
