<svg id="cigarette-off" xmlns="http://www.w3.org/2000/svg" width="22" height="22" viewBox="0 0 22 22">
  <path id="Vector" d="M1.707.293A1,1,0,0,0,.293,1.707ZM20.293,21.707a1,1,0,0,0,1.414-1.414ZM11,12a1,1,0,0,0,0-2ZM1,11V10a1,1,0,0,0-1,1Zm0,4H0a1,1,0,0,0,1,1Zm14,1a1,1,0,0,0,0-2Zm7-5a1,1,0,0,0-2,0Zm-2,4a1,1,0,0,0,2,0Zm-3-3a1,1,0,0,0,0-2Zm-.5-2a1,1,0,0,0,0,2ZM7,11a1,1,0,0,0-2,0ZM5,15a1,1,0,0,0,2,0ZM16,7a1,1,0,0,0,2,0Zm0-5a1,1,0,0,0-2,0Zm4,5a1,1,0,0,0,2,0Zm0-5a1,1,0,0,0-2,0ZM.293,1.707l20,20,1.414-1.414-20-20ZM11,10H1v2H11ZM0,11v4H2V11Zm1,5H15V14H1Zm19-5v4h2V11Zm-3-1h-.5v2H17ZM5,11v4H7V11ZM18,7a4.321,4.321,0,0,0-.411-1.917,6.209,6.209,0,0,0-.808-1.208,4.341,4.341,0,0,1-.567-.824A2.33,2.33,0,0,1,16,2H14a4.321,4.321,0,0,0,.411,1.917,6.208,6.208,0,0,0,.808,1.208,4.342,4.342,0,0,1,.567.824A2.33,2.33,0,0,1,16,7Zm4,0a4.321,4.321,0,0,0-.411-1.917,6.209,6.209,0,0,0-.808-1.208,4.341,4.341,0,0,1-.567-.824A2.33,2.33,0,0,1,20,2H18a4.321,4.321,0,0,0,.411,1.917,6.208,6.208,0,0,0,.808,1.208,4.342,4.342,0,0,1,.567.824A2.33,2.33,0,0,1,20,7Z" fill="#09090b"/>
</svg>
