<svg id="circuit-board" xmlns="http://www.w3.org/2000/svg" width="20" height="20" viewBox="0 0 20 20">
  <path id="Vector" d="M16,1a1,1,0,0,0-2,0ZM4,19a1,1,0,0,0,2,0Zm3-6v0ZM3,2H17V0H3ZM17,2a1,1,0,0,1,1,1h2a3,3,0,0,0-3-3Zm1,1V17h2V3Zm0,14a1,1,0,0,1-1,1v2a3,3,0,0,0,3-3Zm-1,1H3v2H17ZM3,18a1,1,0,0,1-1-1H0a3,3,0,0,0,3,3ZM2,17V3H0V17ZM2,3A1,1,0,0,1,3,2V0A3,3,0,0,0,0,3ZM9,8h4V6H9Zm4,0a3,3,0,0,0,2.121-.879L13.707,5.707A1,1,0,0,1,13,6Zm2.121-.879A3,3,0,0,0,16,5H14a1,1,0,0,1-.293.707ZM16,5V1H14V5ZM8,7A1,1,0,0,1,7,8v2a3,3,0,0,0,3-3ZM7,8A1,1,0,0,1,6,7H4a3,3,0,0,0,3,3ZM6,7A1,1,0,0,1,7,6V4A3,3,0,0,0,4,7ZM7,6A1,1,0,0,1,8,7h2A3,3,0,0,0,7,4ZM6,19V15H4v4Zm0-4a1,1,0,0,1,.293-.707L4.879,12.879A3,3,0,0,0,4,15Zm.293-.707A1,1,0,0,1,7,14V12a3,3,0,0,0-2.121.879ZM7,14h4V12H7Zm7-1a1,1,0,0,1-1,1v2a3,3,0,0,0,3-3Zm-1,1a1,1,0,0,1-1-1H10a3,3,0,0,0,3,3Zm-1-1a1,1,0,0,1,1-1V10a3,3,0,0,0-3,3Zm1-1a1,1,0,0,1,1,1h2a3,3,0,0,0-3-3Z" fill="#09090b"/>
</svg>
