<svg id="circle-dot-dashed" xmlns="http://www.w3.org/2000/svg" width="22.007" height="22.007" viewBox="0 0 22.007 22.007">
  <path id="Vector" d="M8.912.2a1,1,0,1,0,.383,1.963Zm3.8,1.963A1,1,0,0,0,13.095.2Zm4.451-.28a1,1,0,1,0-1.12,1.657Zm1.3,4.085a1,1,0,1,0,1.661-1.114ZM21.8,8.912a1,1,0,0,0-1.963.383Zm-1.963,3.8a1,1,0,0,0,1.963.383Zm.28,4.451a1,1,0,1,0-1.657-1.12Zm-4.086,1.3a1,1,0,0,0,1.114,1.661Zm-2.941,3.342a1,1,0,0,0-.382-1.963Zm-3.8-1.963a1,1,0,1,0-.382,1.963Zm-4.451.28a1,1,0,0,0,1.12-1.657Zm-1.3-4.085a1,1,0,1,0-1.661,1.114ZM.2,13.095a1,1,0,0,0,1.963-.383Zm1.963-3.8A1,1,0,1,0,.2,8.912Zm-.28-4.452a1,1,0,0,0,1.657,1.12Zm4.085-1.3A1,1,0,0,0,4.856,1.883ZM9.295,2.165a8.93,8.93,0,0,1,3.417,0L13.095.2A10.931,10.931,0,0,0,8.912.2Zm6.749,1.377a8.95,8.95,0,0,1,2.42,2.429l1.661-1.114a10.949,10.949,0,0,0-2.96-2.971Zm3.8,5.753a8.93,8.93,0,0,1,0,3.417l1.963.383a10.933,10.933,0,0,0,0-4.183Zm-1.377,6.749a8.95,8.95,0,0,1-2.429,2.42l1.114,1.661a10.95,10.95,0,0,0,2.971-2.96Zm-5.752,3.8a8.94,8.94,0,0,1-3.418,0l-.382,1.963a10.939,10.939,0,0,0,4.182,0ZM5.964,18.465a8.95,8.95,0,0,1-2.42-2.429L1.883,17.151a10.95,10.95,0,0,0,2.96,2.971Zm-3.8-5.753a8.93,8.93,0,0,1,0-3.417L.2,8.912a10.931,10.931,0,0,0,0,4.183ZM3.542,5.964A8.95,8.95,0,0,1,5.97,3.544L4.856,1.883a10.95,10.95,0,0,0-2.971,2.96ZM11,11v2a2,2,0,0,0,2-2Zm0,0H9a2,2,0,0,0,2,2Zm0,0V9a2,2,0,0,0-2,2Zm0,0h2a2,2,0,0,0-2-2Z" transform="translate(0 0)" fill="#09090b"/>
</svg>
