<svg id="circle-user" xmlns="http://www.w3.org/2000/svg" width="22" height="22" viewBox="0 0 22 22">
  <path id="Vector" d="M5,19.662a1,1,0,0,0,2,0Zm10,0a1,1,0,0,0,2,0ZM20,11a9,9,0,0,1-9,9v2A11,11,0,0,0,22,11Zm-9,9a9,9,0,0,1-9-9H0A11,11,0,0,0,11,22ZM2,11a9,9,0,0,1,9-9V0A11,11,0,0,0,0,11Zm9-9a9,9,0,0,1,9,9h2A11,11,0,0,0,11,0Zm2,7a2,2,0,0,1-2,2v2a4,4,0,0,0,4-4Zm-2,2A2,2,0,0,1,9,9H7a4,4,0,0,0,4,4ZM9,9a2,2,0,0,1,2-2V5A4,4,0,0,0,7,9Zm2-2a2,2,0,0,1,2,2h2a4,4,0,0,0-4-4ZM7,19.662V18H5v1.662ZM7,18a1,1,0,0,1,.293-.707L5.879,15.879A3,3,0,0,0,5,18Zm.293-.707A1,1,0,0,1,8,17V15a3,3,0,0,0-2.121.879ZM8,17h6V15H8Zm6,0a1,1,0,0,1,.707.293l1.414-1.414A3,3,0,0,0,14,15Zm.707.293A1,1,0,0,1,15,18h2a3,3,0,0,0-.879-2.121ZM15,18v1.662h2V18Z" fill="#09090b"/>
</svg>
