<svg id="circle-gauge" xmlns="http://www.w3.org/2000/svg" width="22" height="22" viewBox="0 0 22 22">
  <path id="Vector" d="M14.259,2.611A1,1,0,0,0,14.983.747Zm6.994,4.406a1,1,0,1,0-1.864.724ZM11.714,8.872a1,1,0,1,0,1.414,1.414Zm7.014-4.186a1,1,0,1,0-1.414-1.414ZM14.983.747A11,11,0,0,0,7.632.528l.612,1.9a9,9,0,0,1,6.014.179ZM7.632.528A11,11,0,0,0,1.787,4.99L3.462,6.083A9,9,0,0,1,8.245,2.432ZM1.787,4.99A11,11,0,0,0,.059,12.139l1.989-.207A9,9,0,0,1,3.462,6.083ZM.059,12.139a11,11,0,0,0,3.163,6.639l1.414-1.414a9,9,0,0,1-2.588-5.432Zm3.163,6.639a11,11,0,0,0,6.639,3.163l.207-1.989a9,9,0,0,1-5.432-2.588Zm6.639,3.163a11,11,0,0,0,7.148-1.728l-1.093-1.675a9,9,0,0,1-5.849,1.413Zm7.148-1.728a11,11,0,0,0,4.462-5.846l-1.9-.612a9,9,0,0,1-3.651,4.783Zm4.462-5.846a11,11,0,0,0-.219-7.351l-1.864.724a9,9,0,0,1,.179,6.014Zm-9.45-3.389a1,1,0,0,1-1,1v2a3,3,0,0,0,3-3Zm-1,1a1,1,0,0,1-1-1h-2a3,3,0,0,0,3,3Zm-1-1a1,1,0,0,1,1-1v-2a3,3,0,0,0-3,3Zm1-1a1,1,0,0,1,1,1h2a3,3,0,0,0-3-3Zm2.107.307,5.6-5.6L17.314,3.272l-5.6,5.6Z" transform="translate(0 0)" fill="#09090b"/>
</svg>
