<svg id="circle-help" xmlns="http://www.w3.org/2000/svg" width="22" height="22" viewBox="0 0 22 22">
  <path id="Vector" d="M7.147,7.668a1,1,0,1,0,1.887.664ZM13.92,9h0ZM10.6,11.051a1,1,0,0,0,.632,1.9ZM11,15a1,1,0,0,0,0,2Zm.01,2a1,1,0,0,0,0-2ZM20,11a9,9,0,0,1-9,9v2A11,11,0,0,0,22,11Zm-9,9a9,9,0,0,1-9-9H0A11,11,0,0,0,11,22ZM2,11a9,9,0,0,1,9-9V0A11,11,0,0,0,0,11Zm9-9a9,9,0,0,1,9,9h2A11,11,0,0,0,11,0ZM9.033,8.332a2,2,0,0,1,.873-1.061L8.893,5.547A4,4,0,0,0,7.147,7.668Zm.873-1.061a2,2,0,0,1,1.352-.247L11.6,5.053a4,4,0,0,0-2.7.494Zm1.352-.247a2,2,0,0,1,1.192.683L13.98,6.42A4,4,0,0,0,11.6,5.053Zm1.192.683A2,2,0,0,1,12.92,9l2,0a4,4,0,0,0-.94-2.582ZM12.92,9c0,.469-.365.958-1.055,1.418a6.045,6.045,0,0,1-.883.481c-.122.054-.222.094-.29.12l-.074.027-.015.005h0s0,0,.317.948.317.949.317.948h.006l.011,0,.035-.012.116-.043c.1-.037.231-.09.39-.161a8.036,8.036,0,0,0,1.18-.644A3.852,3.852,0,0,0,14.92,9ZM11,17h.01V15H11Z" fill="#09090b"/>
</svg>
