<svg id="circle-arrow-out-down-left" xmlns="http://www.w3.org/2000/svg" width="22" height="22" viewBox="0 0 22 22">
  <path id="Vector" d="M0,11a1,1,0,0,0,2,0Zm11,9a1,1,0,0,0,0,2ZM1,21H0a1,1,0,0,0,1,1Zm10.707-9.293a1,1,0,0,0-1.414-1.414ZM7,22a1,1,0,0,0,0-2ZM2,15a1,1,0,0,0-2,0Zm0-4A9,9,0,0,1,3.517,6L1.854,4.889A11,11,0,0,0,0,11ZM3.517,6A9,9,0,0,1,7.556,2.685L6.79.837A11,11,0,0,0,1.854,4.889ZM7.556,2.685a9,9,0,0,1,5.2-.512l.39-1.962A11,11,0,0,0,6.79.837Zm5.2-.512a9,9,0,0,1,4.608,2.463l1.414-1.414A11,11,0,0,0,13.146.211Zm4.608,2.463a9,9,0,0,1,2.463,4.608l1.962-.39a11,11,0,0,0-3.01-5.632Zm2.463,4.608a9,9,0,0,1-.512,5.2l1.848.765a11,11,0,0,0,.626-6.355Zm-.512,5.2A9,9,0,0,1,16,18.483l1.111,1.663a11,11,0,0,0,4.051-4.937ZM16,18.483A9,9,0,0,1,11,20v2a11,11,0,0,0,6.111-1.854ZM1.707,21.707l10-10-1.414-1.414-10,10ZM7,20H1v2H7ZM2,21V15H0v6Z" transform="translate(0 0)" fill="#09090b"/>
</svg>
