<svg id="circle-arrow-out-up-left" xmlns="http://www.w3.org/2000/svg" width="22" height="22" viewBox="0 0 22 22">
  <path id="Vector" d="M0,7A1,1,0,0,0,2,7ZM1,1V0A1,1,0,0,0,0,1ZM7,2A1,1,0,0,0,7,0Zm3.293,9.707a1,1,0,0,0,1.414-1.414ZM11,0a1,1,0,0,0,0,2ZM2,11a1,1,0,0,0-2,0ZM2,7V1H0V7ZM1,2H7V0H1ZM.293,1.707l10,10,1.414-1.414-10-10ZM11,2a9,9,0,0,1,5,1.517l1.111-1.663A11,11,0,0,0,11,0Zm5,1.517a9,9,0,0,1,3.315,4.039l1.848-.765a11,11,0,0,0-4.051-4.937Zm3.315,4.039a9,9,0,0,1,.512,5.2l1.962.39a11,11,0,0,0-.626-6.356Zm.512,5.2a9,9,0,0,1-2.463,4.608l1.414,1.414a11,11,0,0,0,3.01-5.632Zm-2.463,4.608a9,9,0,0,1-4.608,2.463l.39,1.962a11,11,0,0,0,5.632-3.01Zm-4.608,2.463a9,9,0,0,1-5.2-.512L6.79,21.163a11,11,0,0,0,6.356.626Zm-5.2-.512A9,9,0,0,1,3.517,16L1.854,17.111A11,11,0,0,0,6.79,21.163ZM3.517,16A9,9,0,0,1,2,11H0a11,11,0,0,0,1.854,6.111Z" transform="translate(0 0)" fill="#09090b"/>
</svg>
