<svg id="circle-arrow-right" xmlns="http://www.w3.org/2000/svg" width="22" height="22" viewBox="0 0 22 22">
  <path id="Vector" d="M7,10a1,1,0,0,0,0,2Zm8,1,.707.707a1,1,0,0,0,0-1.414Zm-4.707,3.293a1,1,0,0,0,1.414,1.414Zm1.414-8a1,1,0,1,0-1.414,1.414ZM20,11a9,9,0,0,1-9,9v2A11,11,0,0,0,22,11Zm-9,9a9,9,0,0,1-9-9H0A11,11,0,0,0,11,22ZM2,11a9,9,0,0,1,9-9V0A11,11,0,0,0,0,11Zm9-9a9,9,0,0,1,9,9h2A11,11,0,0,0,11,0ZM7,12h8V10H7Zm4.707,3.707,4-4-1.414-1.414-4,4Zm4-5.414-4-4L10.293,7.707l4,4Z" fill="#09090b"/>
</svg>
