<svg id="circle-arrow-down" xmlns="http://www.w3.org/2000/svg" width="22" height="22" viewBox="0 0 22 22">
  <path id="Vector" d="M12,7a1,1,0,0,0-2,0Zm-1,8-.707.707a1,1,0,0,0,1.414,0ZM7.707,10.293a1,1,0,0,0-1.414,1.414Zm8,1.414a1,1,0,0,0-1.414-1.414ZM20,11a9,9,0,0,1-9,9v2A11,11,0,0,0,22,11Zm-9,9a9,9,0,0,1-9-9H0A11,11,0,0,0,11,22ZM2,11a9,9,0,0,1,9-9V0A11,11,0,0,0,0,11Zm9-9a9,9,0,0,1,9,9h2A11,11,0,0,0,11,0ZM10,7v8h2V7ZM6.293,11.707l4,4,1.414-1.414-4-4Zm5.414,4,4-4-1.414-1.414-4,4Z" fill="#09090b"/>
</svg>
