<svg id="citrus" xmlns="http://www.w3.org/2000/svg" width="21.994" height="21.99" viewBox="0 0 21.994 21.99">
  <path id="Vector" d="M20.659,16.661l-.707.707.017.017Zm-.04,1.6.635.773.018-.015ZM3.729,1.371,2.98.708,2.957.736Zm1.61-.04-.715.7.008.008Zm14,14.046a1,1,0,1,0-1.376-1.451ZM8.074,4.02A1,1,0,0,0,6.625,2.642ZM13,8.991h1a1,1,0,0,0-1-1ZM6.792,13.784A1,1,0,0,0,8.206,15.2ZM12,16.841a1,1,0,0,0,2,0Zm-6.85-8.85a1,1,0,0,0,0,2Zm14.82,9.394a.08.08,0,0,1,.019.027l1.848-.764a2.08,2.08,0,0,0-.487-.711Zm.019.027a.08.08,0,0,1,.006.033l2,.05a2.079,2.079,0,0,0-.157-.847Zm.006.033a.08.08,0,0,1-.008.032l1.808.856a2.078,2.078,0,0,0,.2-.838Zm-.008.032a.081.081,0,0,1-.02.026l1.306,1.515a2.079,2.079,0,0,0,.522-.685Zm0,.011a11,11,0,0,1-7.52,2.489l-.1,2a13,13,0,0,0,8.887-2.941Zm-7.52,2.489a11,11,0,0,1-7.242-3.209L3.808,18.182a13,13,0,0,0,8.559,3.792ZM5.222,16.768A11,11,0,0,1,2.013,9.526l-2,.1a13,13,0,0,0,3.792,8.559ZM2.013,9.526A11,11,0,0,1,4.5,2.006L2.957.736A13,13,0,0,0,.015,9.623ZM4.478,2.034a.1.1,0,0,1,.033-.024L3.667.2A2.1,2.1,0,0,0,2.98.708Zm.033-.024A.1.1,0,0,1,4.55,2L4.5,0a2.1,2.1,0,0,0-.834.2ZM4.55,2a.1.1,0,0,1,.04.007L5.343.154A2.1,2.1,0,0,0,4.5,0Zm.04.007a.1.1,0,0,1,.034.023l1.43-1.4A2.1,2.1,0,0,0,5.343.154Zm.041.03,15.32,15.33,1.415-1.414L6.047.624ZM17.961,13.925a7,7,0,0,1-4.913,1.92l-.027,2a9,9,0,0,0,6.316-2.469Zm-4.913,1.92A7,7,0,0,1,8.19,13.792L6.774,15.2a9,9,0,0,0,6.246,2.641ZM8.19,13.792A7,7,0,0,1,6.145,8.93l-2,.024A9,9,0,0,0,6.774,15.2ZM6.145,8.93A7,7,0,0,1,8.074,4.02L6.625,2.642a9,9,0,0,0-2.48,6.312Zm6.147-.646-5.5,5.5L8.206,15.2l5.5-5.5ZM14,16.841V8.991H12v7.85Zm-1-8.85H5.149v2H13Z" transform="translate(0 0)" fill="#09090b"/>
</svg>
