<svg id="clipboard-paste" xmlns="http://www.w3.org/2000/svg" width="19" height="22" viewBox="0 0 19 22">
  <path id="Vector" d="M6,1V1ZM5,2H5ZM5,4A1,1,0,0,0,5,2ZM3,3V3ZM1,5H1ZM1,19H1Zm17,0a1,1,0,0,0-2,0ZM13,2a1,1,0,0,0,0,2Zm2,1V3Zm1,4a1,1,0,0,0,2,0ZM8,12a1,1,0,0,0,0,2Zm10,1,.707.707a1,1,0,0,0,0-1.414ZM14.707,8.293a1,1,0,0,0-1.414,1.414Zm-1.414,8a1,1,0,0,0,1.414,1.414ZM12,0H6V2h6ZM6,0A2,2,0,0,0,4.586.586L6,2H6ZM4.586.586A2,2,0,0,0,4,2H6ZM4,2V4H6V2ZM4,4A1.942,1.942,0,0,0,6,6V4a.169.169,0,0,1-.05-.005L5.962,4A.129.129,0,0,1,6,4.038a.071.071,0,0,1,.006.012A.169.169,0,0,1,6,4ZM6,6h6V4H6Zm6,0a1.942,1.942,0,0,0,2-2H12a.169.169,0,0,1-.005.05A.071.071,0,0,1,12,4.038.129.129,0,0,1,12.038,4l.012-.006A.169.169,0,0,1,12,4Zm2-2V2H12V4Zm0-2A2,2,0,0,0,13.432.568,2,2,0,0,0,12,0V2a.169.169,0,0,1,.05.005L12.038,2A.13.13,0,0,1,12,1.962a.071.071,0,0,1-.006-.012A.169.169,0,0,1,12,2ZM5,2H3V4H5ZM3,2a3,3,0,0,0-2.121.879L2.293,4.293A1,1,0,0,1,3,4ZM.879,2.879A3,3,0,0,0,0,5H2a1,1,0,0,1,.293-.707ZM0,5V19H2V5ZM0,19a3,3,0,0,0,.879,2.121l1.414-1.414A1,1,0,0,1,2,19Zm.879,2.121A3,3,0,0,0,3,22V20a1,1,0,0,1-.707-.293ZM3,22H15V20H3Zm12,0a3,3,0,0,0,2.121-.879l-1.414-1.414A1,1,0,0,1,15,20Zm2.121-.879A3,3,0,0,0,18,19H16a1,1,0,0,1-.293.707ZM13,4h2V2H13Zm2,0a1,1,0,0,1,.707.293l1.414-1.414A3,3,0,0,0,15,2Zm.707.293A1,1,0,0,1,16,5h2a3,3,0,0,0-.879-2.121ZM16,5V7h2V5ZM8,14H18V12H8Zm5.293-4.293,4,4,1.414-1.414-4-4Zm4,2.586-4,4,1.414,1.414,4-4Z" fill="#09090b"/>
</svg>
