<svg id="clipboard-check" xmlns="http://www.w3.org/2000/svg" width="18" height="22" viewBox="0 0 18 22">
  <path id="Vector" d="M13,2a1,1,0,0,0,0,2Zm2,1V3ZM1,19H1ZM3,3V3ZM5,4A1,1,0,0,0,5,2Zm1.707,8.293a1,1,0,0,0-1.414,1.414ZM8,15l-.707.707a1,1,0,0,0,1.414,0Zm4.707-3.293a1,1,0,0,0-1.414-1.414ZM6,2h6V0H6Zm6,0h2a2,2,0,0,0-2-2Zm0,0V4h2V2Zm0,2V6a2,2,0,0,0,2-2Zm0,0H6V6h6ZM6,4H4A2,2,0,0,0,6,6ZM6,4V2H4V4ZM6,2V0A2,2,0,0,0,4,2Zm7,2h2V2H13Zm2,0a1,1,0,0,1,.707.293l1.414-1.414A3,3,0,0,0,15,2Zm.707.293A1,1,0,0,1,16,5h2a3,3,0,0,0-.879-2.121ZM16,5V19h2V5Zm0,14a1,1,0,0,1-.293.707l1.414,1.414A3,3,0,0,0,18,19Zm-.293.707A1,1,0,0,1,15,20v2a3,3,0,0,0,2.121-.879ZM15,20H3v2H15ZM3,20a1,1,0,0,1-.707-.293L.879,21.121A3,3,0,0,0,3,22Zm-.707-.293A1,1,0,0,1,2,19H0a3,3,0,0,0,.879,2.121ZM2,19V5H0V19ZM2,5a1,1,0,0,1,.293-.707L.879,2.879A3,3,0,0,0,0,5Zm.293-.707A1,1,0,0,1,3,4V2a3,3,0,0,0-2.121.879ZM3,4H5V2H3Zm2.293,9.707,2,2,1.414-1.414-2-2Zm3.414,2,4-4-1.414-1.414-4,4Z" fill="#09090b"/>
</svg>
