<svg id="cloud-cog" xmlns="http://www.w3.org/2000/svg" width="21.935" height="19.691" viewBox="0 0 21.935 19.691">
  <path id="Vector" d="M2.509,13.818a1,1,0,1,0,1.373-1.455Zm12.2-7.827-.958.287a1,1,0,0,0,.958.713Zm1.79,0,.013-1H16.5Zm1.931,7.378a1,1,0,1,0,1.138,1.645ZM14.379,17.34a1,1,0,0,0,.632-1.9Zm-.268-2.2a1,1,0,1,0-.632,1.9Zm-6.232-.3a1,1,0,0,0,.632-1.9Zm-.268-2.2a1,1,0,0,0-.632,1.9Zm1.035,5.732a1,1,0,1,0,1.9.632Zm2.2-.267a1,1,0,0,0-1.9-.632Zm.3-6.233a1,1,0,1,0,1.9.633Zm2.2-.267a1,1,0,0,0-1.9-.632Zm-1.677,7.455a1,1,0,1,0,1.857-.743Zm1.457-1.743a1,1,0,0,0-1.857.743ZM8.867,12.662a1,1,0,0,0,1.857-.743Zm1.457-1.743a1,1,0,1,0-1.857.743Zm-3.4,4.743a1,1,0,1,0,.743,1.857Zm1.743,1.457a1,1,0,0,0-.743-1.857Zm4.658-4.257a1,1,0,0,0,.743,1.857Zm1.743,1.457a1,1,0,0,0-.743-1.857ZM13,14.991a2,2,0,0,1-2,2v2a4,4,0,0,0,4-4Zm-2,2a2,2,0,0,1-2-2H7a4,4,0,0,0,4,4Zm-2-2a2,2,0,0,1,2-2v-2a4,4,0,0,0-4,4Zm2-2a2,2,0,0,1,2,2h2a4,4,0,0,0-4-4Zm-7.114-.627a6,6,0,0,1-1.505-2.271L.5,10.79a8,8,0,0,0,2.007,3.028ZM2.377,10.092a6,6,0,0,1-.346-2.7l-1.99-.2A8,8,0,0,0,.5,10.79Zm-.346-2.7a6,6,0,0,1,.885-2.577L1.222,3.751A8,8,0,0,0,.041,7.186Zm.885-2.577A6,6,0,0,1,4.85,2.893L3.8,1.191A8,8,0,0,0,1.222,3.751ZM4.85,2.893a6,6,0,0,1,2.583-.867L7.244.036A8,8,0,0,0,3.8,1.191Zm2.583-.867a6,6,0,0,1,2.7.365L10.844.523a8,8,0,0,0-3.6-.487Zm2.7.365a6,6,0,0,1,2.26,1.522l1.465-1.362A8,8,0,0,0,10.844.523Zm2.26,1.522a6,6,0,0,1,1.354,2.364L15.663,5.7a8,8,0,0,0-1.806-3.152Zm2.312,3.077H16.5v-2h-1.79Zm1.777,0a3.5,3.5,0,0,1,2.055.7l1.2-1.6a5.5,5.5,0,0,0-3.229-1.1Zm2.055.7A3.5,3.5,0,0,1,19.783,9.47L21.7,8.886a5.5,5.5,0,0,0-1.958-2.794ZM19.783,9.47a3.5,3.5,0,0,1-.042,2.171l1.889.657A5.5,5.5,0,0,0,21.7,8.886ZM19.74,11.64a3.5,3.5,0,0,1-1.314,1.728l1.138,1.645A5.5,5.5,0,0,0,21.629,12.3Zm-4.729,3.8-.9-.3-.632,1.9.9.3Zm-6.5-2.5-.9-.3-.632,1.9.9.3Zm2.033,6.065.3-.9-1.9-.632-.3.9Zm2.5-6.5.3-.9-1.9-.632-.3.9Zm.48,5.812-.4-1-1.857.743.4,1Zm-2.8-6.4-.4-1-1.857.743.4,1Zm-3.057,5.6,1-.4-.743-1.857-1,.4Zm6.4-2.8,1-.4-.743-1.857-1,.4Z" transform="translate(0 0)" fill="#09090b"/>
</svg>
