<svg id="cloud-moon" xmlns="http://www.w3.org/2000/svg" width="21.999" height="20" viewBox="0 0 21.999 20">
  <path id="Vector" d="M12,13v0Zm0,6v0ZM6,19v1H6Zm4.9-6-.98.2a1,1,0,0,0,.98.8ZM8.113,5.833a1,1,0,0,0,1.972.333ZM15,1l.707.707A1,1,0,0,0,15,0ZM13.757,4h0ZM18,8.243v0ZM21,7h1a1,1,0,0,0-1.707-.707Zm-3.5,4.331a1,1,0,0,0,1,1.732ZM12,14a2,2,0,0,1,1.414.586l1.414-1.414A4,4,0,0,0,12,12Zm1.414.586A2,2,0,0,1,14,16h2a4,4,0,0,0-1.172-2.828ZM14,16a2,2,0,0,1-.586,1.414l1.414,1.414A4,4,0,0,0,16,16Zm-.586,1.414A2,2,0,0,1,12,18v2a4,4,0,0,0,2.828-1.172ZM12,18H6v2h6ZM6,18a4,4,0,0,1-2.138-.62l-1.069,1.69A6,6,0,0,0,6,20Zm-2.138-.62a4,4,0,0,1-1.476-1.666l-1.807.857a6,6,0,0,0,2.213,2.5ZM2.386,15.714a4,4,0,0,1-.357-2.2L.044,13.276a6,6,0,0,0,.535,3.3Zm-.357-2.2A4,4,0,0,1,2.9,11.47L1.353,10.2A6,6,0,0,0,.044,13.276ZM2.9,11.47a4,4,0,0,1,1.832-1.264L4.1,8.309a6,6,0,0,0-2.748,1.9Zm1.832-1.264a4,4,0,0,1,2.224-.089l.479-1.942A6,6,0,0,0,4.1,8.309Zm2.224-.089a4,4,0,0,1,1.927,1.113l1.442-1.385A6,6,0,0,0,7.436,8.174Zm1.927,1.113A4,4,0,0,1,9.919,13.2l1.96-.4a6,6,0,0,0-1.551-2.956ZM10.9,14H12V12H10.9Zm-.814-7.833a5,5,0,0,1,1.7-2.981L10.49,1.66A7,7,0,0,0,8.113,5.833Zm1.7-2.981A5,5,0,0,1,15,2L15,0A7,7,0,0,0,10.49,1.66ZM14.292.293A5.243,5.243,0,0,0,12.757,4h2a3.243,3.243,0,0,1,.95-2.293ZM12.757,4a5.242,5.242,0,0,0,.4,2.006L15,5.241A3.244,3.244,0,0,1,14.757,4Zm.4,2.006a5.242,5.242,0,0,0,1.136,1.7l1.414-1.414A3.243,3.243,0,0,1,15,5.241Zm1.136,1.7a5.243,5.243,0,0,0,1.7,1.136L16.758,7a3.243,3.243,0,0,1-1.052-.7Zm1.7,1.136a5.243,5.243,0,0,0,2.006.4v-2A3.243,3.243,0,0,1,16.758,7Zm2.006.4a5.243,5.243,0,0,0,3.707-1.536L20.292,6.293A3.243,3.243,0,0,1,18,7.243ZM20,7a5,5,0,0,1-.67,2.5l1.732,1A7,7,0,0,0,22,7Zm-.67,2.5a5,5,0,0,1-1.83,1.83l1,1.732A7,7,0,0,0,21.062,10.5Z" transform="translate(0 0)" fill="#09090b"/>
</svg>
