<svg id="cloud-lightning" xmlns="http://www.w3.org/2000/svg" width="22.005" height="20.997" viewBox="0 0 22.005 20.997">
  <path id="Vector" d="M4.568,15.227a1,1,0,0,0,.858-1.807ZM14.707,6l-.958.286A1,1,0,0,0,14.707,7ZM16.5,6V7h0Zm.391,7.979a1,1,0,0,0,.219,1.988Zm-4.033-3.464A1,1,0,0,0,11.14,9.483ZM9,15l-.857-.514A1,1,0,0,0,9,16Zm4,0,.858.514A1,1,0,0,0,13,14ZM9.14,19.483a1,1,0,1,0,1.715,1.029ZM5.426,13.42a6,6,0,0,1-2.274-1.885L1.536,12.714a8,8,0,0,0,3.032,2.513ZM3.152,11.535a6,6,0,0,1-1.1-2.741L.07,9.059a8,8,0,0,0,1.466,3.655Zm-1.1-2.741A6,6,0,0,1,2.394,5.86L.526,5.147A8,8,0,0,0,.07,9.059ZM2.394,5.86a6,6,0,0,1,1.7-2.415l-1.3-1.518A8,8,0,0,0,.526,5.147Zm1.7-2.415A6,6,0,0,1,6.741,2.134L6.321.178A8,8,0,0,0,2.793,1.927ZM6.741,2.134a6,6,0,0,1,2.951.11L10.256.325A8,8,0,0,0,6.321.178Zm2.951.11a6,6,0,0,1,2.541,1.5l1.411-1.417A8,8,0,0,0,10.256.325Zm2.541,1.5a6,6,0,0,1,1.516,2.535l1.916-.572a8,8,0,0,0-2.021-3.38ZM14.707,7H16.5V5h-1.79ZM16.5,7a3.5,3.5,0,0,1,2.409.955L20.281,6.5A5.5,5.5,0,0,0,16.5,5Zm2.409.955A3.5,3.5,0,0,1,20,10.3l2-.111A5.5,5.5,0,0,0,20.281,6.5ZM20,10.3a3.5,3.5,0,0,1-.824,2.457L20.7,14.052A5.5,5.5,0,0,0,22,10.191Zm-.824,2.457a3.5,3.5,0,0,1-2.288,1.217l.219,1.988a5.5,5.5,0,0,0,3.6-1.912ZM11.14,9.483l-3,5,1.715,1.029,3-5ZM9,16h4V14H9Zm3.143-1.515-3,5,1.715,1.029,3-5Z" transform="translate(0 0)" fill="#09090b"/>
</svg>
