<svg id="cloud-moon-rain" xmlns="http://www.w3.org/2000/svg" width="21.999" height="20" viewBox="0 0 21.999 20">
  <path id="Vector" d="M8.1,5.833a1,1,0,1,0,1.972.334ZM15,1l.716.7A1,1,0,0,0,15,0Zm6,6h1a1,1,0,0,0-1.7-.716Zm-3.5,4.331a1,1,0,0,0,1,1.732ZM1.2,17.6a1,1,0,1,0,1.6-1.2ZM10.9,13l-.98.2a1,1,0,0,0,.98.8ZM12,13v1h0Zm1.335,4.493a1,1,0,1,0,1.33,1.493ZM11,17a1,1,0,0,0-2,0ZM9,19a1,1,0,1,0,2,0ZM7,16a1,1,0,0,0-2,0ZM5,18a1,1,0,0,0,2,0ZM10.068,6.167a5,5,0,0,1,1.7-2.986L10.48,1.654A7,7,0,0,0,8.1,5.833Zm1.7-2.986A5,5,0,0,1,15,2V0A7,7,0,0,0,10.48,1.654ZM14.282.3A5.243,5.243,0,0,0,12.795,4l2-.013a3.243,3.243,0,0,1,.92-2.284ZM12.795,4A5.243,5.243,0,0,0,14.33,7.668l1.414-1.414a3.243,3.243,0,0,1-.95-2.272ZM14.33,7.668A5.243,5.243,0,0,0,18,9.2l.013-2a3.243,3.243,0,0,1-2.272-.95ZM18,9.2A5.243,5.243,0,0,0,21.7,7.716L20.3,6.284a3.243,3.243,0,0,1-2.284.92ZM20,7a5,5,0,0,1-2.5,4.331l1,1.732A7,7,0,0,0,22,7ZM2.8,16.4a4,4,0,0,1-.723-1.623l-1.962.388A6,6,0,0,0,1.2,17.6Zm-.723-1.623A4,4,0,0,1,2.127,13L.191,12.5a6,6,0,0,0-.077,2.664ZM2.127,13a4,4,0,0,1,.815-1.578L1.413,10.134A6,6,0,0,0,.191,12.5Zm.815-1.578a4,4,0,0,1,1.418-1.07L3.54,8.529a6,6,0,0,0-2.127,1.6Zm1.418-1.07A4,4,0,0,1,6.1,10l.051-2a6,6,0,0,0-2.612.525ZM6.1,10a4,4,0,0,1,1.722.438l.912-1.78A6,6,0,0,0,6.153,8Zm1.722.438a4,4,0,0,1,1.362,1.141l1.593-1.21A6,6,0,0,0,8.735,8.662Zm1.362,1.141A4,4,0,0,1,9.919,13.2l1.959-.4a6,6,0,0,0-1.1-2.427ZM10.9,14H12V12H10.9ZM12,14a2,2,0,0,1,1.136.352L14.269,12.7A4,4,0,0,0,12,12Zm1.136.352a2,2,0,0,1,.735.935l1.869-.713a4,4,0,0,0-1.471-1.87Zm.735.935a2,2,0,0,1,.075,1.187l1.943.474a4,4,0,0,0-.149-2.374Zm.075,1.187a2,2,0,0,1-.613,1.019l1.33,1.493a4,4,0,0,0,1.225-2.039ZM9,17v2h2V17ZM5,16v2H7V16Z" transform="translate(0)" fill="#09090b"/>
</svg>
