<svg id="club" xmlns="http://www.w3.org/2000/svg" width="22.003" height="21.99" viewBox="0 0 22.003 21.99">
  <path id="Vector" d="M16.277,8.04l-.96-.28a1,1,0,0,0-.04.28Zm-10.56,0,.142.99a1,1,0,0,0,.818-1.27ZM11,16.65l.819-.574a1,1,0,0,0-1.637,0Zm5.28-8.6h-1a1,1,0,0,0,.859.99ZM10,20.99a1,1,0,0,0,2,0Zm7.24-12.67a6.5,6.5,0,0,0,.155-2.983L15.425,5.7a4.5,4.5,0,0,1-.107,2.065Zm.155-2.983A6.5,6.5,0,0,0,16.2,2.6L14.6,3.8a4.5,4.5,0,0,1,.827,1.9ZM16.2,2.6A6.5,6.5,0,0,0,13.9.686L13.01,2.475A4.5,4.5,0,0,1,14.6,3.8ZM13.9.686A6.5,6.5,0,0,0,11,0V2a4.5,4.5,0,0,1,2.012.475ZM11,0A6.5,6.5,0,0,0,8.091.686l.894,1.789A4.5,4.5,0,0,1,11,2ZM8.091.686A6.5,6.5,0,0,0,5.8,2.6L7.4,3.8A4.5,4.5,0,0,1,8.985,2.475ZM5.8,2.6A6.5,6.5,0,0,0,4.6,5.337L6.57,5.7A4.5,4.5,0,0,1,7.4,3.8ZM4.6,5.337A6.5,6.5,0,0,0,4.757,8.32l1.92-.56A4.5,4.5,0,0,1,6.57,5.7ZM5.575,7.05A6.5,6.5,0,0,0,2.632,8.26l1.19,1.607A4.5,4.5,0,0,1,5.86,9.03ZM2.632,8.26A6.5,6.5,0,0,0,.616,10.722l1.81.85a4.5,4.5,0,0,1,1.4-1.7ZM.616,10.722A6.5,6.5,0,0,0,.01,13.845l2-.111a4.5,4.5,0,0,1,.42-2.162ZM.01,13.845a6.5,6.5,0,0,0,.949,3.037l1.7-1.045a4.5,4.5,0,0,1-.657-2.1Zm.949,3.037A6.5,6.5,0,0,0,3.236,19.1l1-1.729a4.5,4.5,0,0,1-1.576-1.539ZM3.236,19.1a6.5,6.5,0,0,0,3.059.876l.063-2a4.5,4.5,0,0,1-2.118-.606Zm3.059.876A6.5,6.5,0,0,0,9.4,19.3l-.893-1.789a4.5,4.5,0,0,1-2.152.471ZM9.4,19.3a6.5,6.5,0,0,0,2.413-2.074L10.18,16.074a4.5,4.5,0,0,1-1.67,1.436Zm.776-2.076a6.5,6.5,0,0,0,2.41,2.082l.9-1.788a4.5,4.5,0,0,1-1.669-1.441Zm2.41,2.082a6.5,6.5,0,0,0,3.11.687l-.06-2a4.5,4.5,0,0,1-2.153-.476Zm3.11.687a6.5,6.5,0,0,0,3.063-.873l-1-1.73a4.5,4.5,0,0,1-2.12.6Zm3.063-.873A6.5,6.5,0,0,0,21.042,16.9l-1.7-1.046a4.5,4.5,0,0,1-1.579,1.539ZM21.042,16.9a6.5,6.5,0,0,0,.951-3.04l-2-.111a4.5,4.5,0,0,1-.658,2.1Zm.951-3.04a6.5,6.5,0,0,0-.608-3.126l-1.81.851A4.5,4.5,0,0,1,20,13.745Zm-.608-3.126a6.5,6.5,0,0,0-2.02-2.463L18.177,9.876a4.5,4.5,0,0,1,1.4,1.7Zm-2.02-2.463A6.5,6.5,0,0,0,16.418,7.06l-.282,1.98a4.5,4.5,0,0,1,2.04.836ZM17.277,8.05V8.04h-2v.01ZM10,16.65v4.34h2V16.65Z" transform="translate(0)" fill="#09090b"/>
</svg>
