<svg id="code-xml" xmlns="http://www.w3.org/2000/svg" width="22" height="18.001" viewBox="0 0 22 18.001">
  <path id="Vector" d="M16.293,12.293a1,1,0,0,0,1.414,1.414ZM21,9l.707.707a1,1,0,0,0,0-1.414ZM17.707,4.293a1,1,0,0,0-1.414,1.414Zm-12,1.414A1,1,0,1,0,4.293,4.293ZM1,9,.293,8.293a1,1,0,0,0,0,1.414Zm3.293,4.707a1,1,0,0,0,1.414-1.414ZM14.455,1.3A1,1,0,0,0,12.545.7ZM7.546,16.7a1,1,0,1,0,1.909.6Zm10.162-2.995,4-4L20.293,8.293l-4,4Zm4-5.414-4-4L16.293,5.707l4,4Zm-17.414-4-4,4L1.707,9.707l4-4Zm-4,5.414,4,4,1.414-1.414-4-4ZM12.545.7l-5,16,1.909.6,5-16Z" transform="translate(0 0)" fill="#09090b"/>
</svg>
