<svg id="coffee" xmlns="http://www.w3.org/2000/svg" width="21" height="21" viewBox="0 0 21 21">
  <path id="Vector" d="M9,1A1,1,0,0,0,7,1ZM7,3A1,1,0,0,0,9,3Zm6-2a1,1,0,0,0-2,0ZM11,3a1,1,0,0,0,2,0Zm3,3a1,1,0,0,0,0,2ZM1,16H1ZM2,7V7ZM16,7V7Zm0,8v0Zm-1-1a1,1,0,0,0,0,2ZM5,1A1,1,0,0,0,3,1ZM3,3A1,1,0,0,0,5,3ZM7,1V3H9V1Zm4,0V3h2V1Zm3,7h0l1.414-1.414A2,2,0,0,0,14,6Zm0,0h2a2,2,0,0,0-.586-1.414Zm0,0v8h2V8Zm0,8a3,3,0,0,1-.879,2.121l1.414,1.414A5,5,0,0,0,16,16Zm-.879,2.121A3,3,0,0,1,11,19v2a5,5,0,0,0,3.535-1.465ZM11,19H5v2h6ZM5,19a3,3,0,0,1-2.121-.879L1.464,19.535A5,5,0,0,0,5,21Zm-2.121-.879A3,3,0,0,1,2,16H0a5,5,0,0,0,1.464,3.535ZM2,16V8H0v8ZM2,8H2L.586,6.586A2,2,0,0,0,0,8ZM2,8H2V6a2,2,0,0,0-1.414.586ZM2,8H16V6H2ZM16,8a3,3,0,0,1,2.121.879l1.414-1.414A5,5,0,0,0,16,6Zm2.121.879A3,3,0,0,1,19,11h2a5,5,0,0,0-1.465-3.536ZM19,11a3,3,0,0,1-.879,2.121l1.414,1.414A5,5,0,0,0,21,11Zm-.879,2.121A3,3,0,0,1,16,14v2a5,5,0,0,0,3.535-1.465ZM16,14H15v2h1ZM3,1V3H5V1Z" fill="#09090b"/>
</svg>
