<svg id="command" xmlns="http://www.w3.org/2000/svg" width="20" height="20" viewBox="0 0 20 20">
  <path id="Vector" d="M13,4h0Zm3,9v0ZM7,16H7ZM7,4H7ZM4,7V7ZM16,7V7ZM12,4V16h2V4Zm0,12a4,4,0,0,0,.674,2.222l1.663-1.111A2,2,0,0,1,14,16Zm.674,2.222a4,4,0,0,0,1.8,1.473l.765-1.848a2,2,0,0,1-.9-.737Zm1.8,1.473a4,4,0,0,0,2.311.228l-.39-1.962a2,2,0,0,1-1.156-.114Zm2.311.228a4,4,0,0,0,2.048-1.095l-1.414-1.414a2,2,0,0,1-1.024.547Zm2.048-1.095a4,4,0,0,0,1.095-2.048l-1.962-.39a2,2,0,0,1-.547,1.024Zm1.095-2.048a4,4,0,0,0-.228-2.311l-1.848.765a2,2,0,0,1,.114,1.156ZM19.7,14.469a4,4,0,0,0-1.473-1.8l-1.111,1.663a2,2,0,0,1,.737.9Zm-1.473-1.8A4,4,0,0,0,16,12v2a2,2,0,0,1,1.111.337ZM16,12H4v2H16ZM4,12a4,4,0,0,0-2.222.674l1.111,1.663A2,2,0,0,1,4,14Zm-2.222.674A4,4,0,0,0,.3,14.469l1.848.765a2,2,0,0,1,.737-.9ZM.3,14.469A4,4,0,0,0,.077,16.78l1.962-.39a2,2,0,0,1,.114-1.156ZM.077,16.78a4,4,0,0,0,1.095,2.048l1.414-1.414a2,2,0,0,1-.547-1.024Zm1.095,2.048A4,4,0,0,0,3.22,19.923l.39-1.962a2,2,0,0,1-1.024-.547ZM3.22,19.923A4,4,0,0,0,5.531,19.7l-.765-1.848a2,2,0,0,1-1.156.114ZM5.531,19.7a4,4,0,0,0,1.8-1.473L5.663,17.111a2,2,0,0,1-.9.737Zm1.8-1.473A4,4,0,0,0,8,16H6a2,2,0,0,1-.337,1.111ZM8,16V4H6V16ZM8,4a4,4,0,0,0-.674-2.222L5.663,2.889A2,2,0,0,1,6,4ZM7.326,1.778A4,4,0,0,0,5.531.3L4.765,2.152a2,2,0,0,1,.9.737ZM5.531.3A4,4,0,0,0,3.22.077l.39,1.962a2,2,0,0,1,1.156.114ZM3.22.077A4,4,0,0,0,1.172,1.172L2.586,2.586A2,2,0,0,1,3.61,2.038ZM1.172,1.172A4,4,0,0,0,.077,3.22l1.962.39a2,2,0,0,1,.547-1.024ZM.077,3.22A4,4,0,0,0,.3,5.531l1.848-.765A2,2,0,0,1,2.038,3.61ZM.3,5.531a4,4,0,0,0,1.473,1.8L2.889,5.663a2,2,0,0,1-.737-.9Zm1.473,1.8A4,4,0,0,0,4,8V6a2,2,0,0,1-1.111-.337ZM4,8H16V6H4ZM16,8a4,4,0,0,0,2.222-.674L17.111,5.663A2,2,0,0,1,16,6Zm2.222-.674a4,4,0,0,0,1.473-1.8l-1.848-.765a2,2,0,0,1-.737.9Zm1.473-1.8a4,4,0,0,0,.228-2.311l-1.962.39a2,2,0,0,1-.114,1.156Zm.228-2.311a4,4,0,0,0-1.095-2.048L17.414,2.586a2,2,0,0,1,.547,1.024ZM18.828,1.172A4,4,0,0,0,16.78.077l-.39,1.962a2,2,0,0,1,1.024.547ZM16.78.077A4,4,0,0,0,14.469.3l.765,1.848a2,2,0,0,1,1.156-.114ZM14.469.3a4,4,0,0,0-1.8,1.473l1.663,1.111a2,2,0,0,1,.9-.737Zm-1.8,1.473A4,4,0,0,0,12,4h2a2,2,0,0,1,.337-1.111Z" transform="translate(0 0)" fill="#09090b"/>
</svg>
