<svg id="concierge-bell" xmlns="http://www.w3.org/2000/svg" width="22" height="18" viewBox="0 0 22 18">
  <path id="Vector" d="M1,16H1Zm2-3v0Zm16,0v0ZM12,1a1,1,0,0,0-2,0ZM9,0A1,1,0,0,0,9,2Zm4,2a1,1,0,0,0,0-2ZM2,16H2L.586,17.414A2,2,0,0,0,2,18Zm0,0H0a2,2,0,0,0,.586,1.414Zm0,0V15H0v1Zm0-1a1,1,0,0,1,.293-.707L.879,12.879A3,3,0,0,0,0,15Zm.293-.707A1,1,0,0,1,3,14V12a3,3,0,0,0-2.121.879ZM3,14H19V12H3Zm16,0a1,1,0,0,1,.707.293l1.414-1.414A3,3,0,0,0,19,12Zm.707.293A1,1,0,0,1,20,15h2a3,3,0,0,0-.879-2.121ZM20,15v1h2V15Zm0,1h0l1.414,1.414A2,2,0,0,0,22,16Zm0,0h0v2a2,2,0,0,0,1.414-.586Zm0,0H2v2H20Zm0-3a9,9,0,0,0-2.636-6.364L15.95,8.05A7,7,0,0,1,18,13ZM17.364,6.636A9,9,0,0,0,11,4V6a7,7,0,0,1,4.95,2.05ZM11,4A9,9,0,0,0,4.636,6.636L6.05,8.05A7,7,0,0,1,11,6ZM4.636,6.636A9,9,0,0,0,2,13H4A7,7,0,0,1,6.05,8.05ZM10,1V5h2V1ZM9,2h4V0H9Z" fill="#09090b"/>
</svg>
