<svg id="contrast" xmlns="http://www.w3.org/2000/svg" width="22" height="22" viewBox="0 0 22 22">
  <path id="Vector" d="M11,17H10a1,1,0,0,0,1,1ZM11,5V4a1,1,0,0,0-1,1Zm9,6a9,9,0,0,1-9,9v2A11,11,0,0,0,22,11Zm-9,9a9,9,0,0,1-9-9H0A11,11,0,0,0,11,22ZM2,11a9,9,0,0,1,9-9V0A11,11,0,0,0,0,11Zm9-9a9,9,0,0,1,9,9h2A11,11,0,0,0,11,0Zm0,16a7,7,0,0,0,4.95-2.05l-1.414-1.414A5,5,0,0,1,11,16Zm4.95-2.05A7,7,0,0,0,18,11H16a5,5,0,0,1-1.465,3.535ZM18,11a7,7,0,0,0-2.05-4.95L14.536,7.464A5,5,0,0,1,16,11ZM15.95,6.05A7,7,0,0,0,11,4V6a5,5,0,0,1,3.535,1.464ZM10,5V17h2V5Z" fill="#09090b"/>
</svg>
