<svg id="container" xmlns="http://www.w3.org/2000/svg" width="22" height="21.849" viewBox="0 0 22 21.849">
  <path id="Vector" d="M20.2,5.125l.6-.8q-.036-.027-.074-.05Zm-6.3-3.9.526-.85L14.394.355Zm-1.7,0L11.706.355,11.7.361Zm-10.3,6,.371.928A1,1,0,0,0,2.4,8.089Zm-.1,9.5-.6.8q.036.027.074.05Zm6.3,3.9-.526.85.032.019Zm1.7,0,.494.869.009-.005Zm10.3-6,.5.864.011-.007ZM8,20.825a1,1,0,0,0,2,0ZM1.627,7.175a1,1,0,0,0-1.054,1.7ZM21.4,6.89a1,1,0,1,0-1-1.73ZM12,18.725a1,1,0,0,0,2,0Zm2-8.1a1,1,0,1,0-2,0Zm2,5.8a1,1,0,0,0,2,0Zm2-8.1a1,1,0,0,0-2,0Zm4-1.7a3.035,3.035,0,0,0-1.2-2.3l-1.2,1.6a1.147,1.147,0,0,1,.282.334A.785.785,0,0,1,20,6.625Zm-1.274-2.35-6.3-3.9-1.053,1.7,6.3,3.9ZM14.394.355A2.72,2.72,0,0,0,13.05,0V2a.72.72,0,0,1,.356.094ZM13.05,0a2.72,2.72,0,0,0-1.344.355l.988,1.739A.72.72,0,0,1,13.05,2ZM11.7.361l-10.3,6L2.4,8.089l10.3-6ZM1.529,6.3A2.565,2.565,0,0,0,0,8.625H2a.588.588,0,0,1,.1-.305.442.442,0,0,1,.17-.167ZM0,8.625v6.6H2v-6.6Zm0,6.6a2.819,2.819,0,0,0,.372,1.3,3.149,3.149,0,0,0,.828,1l1.2-1.6a1.217,1.217,0,0,1-.272-.354,1.357,1.357,0,0,1-.1-.24A.475.475,0,0,1,2,15.225Zm1.274,2.35,6.3,3.9,1.053-1.7-6.3-3.9Zm6.332,3.919a2.72,2.72,0,0,0,1.344.355v-2a.72.72,0,0,1-.356-.094Zm1.344.355a2.72,2.72,0,0,0,1.344-.355l-.988-1.739a.72.72,0,0,1-.356.094Zm1.353-.361,10.3-6L19.6,13.761l-10.3,6Zm10.311-6.007a2.943,2.943,0,0,0,.984-1.024,2.7,2.7,0,0,0,.4-1.334H20a.423.423,0,0,1-.022.1,1.116,1.116,0,0,1-.1.22.976.976,0,0,1-.291.326ZM22,13.125v-6.5H20v6.5Zm-12,7.7v-7.9H8v7.9Zm-.473-8.75-7.9-4.9L.573,8.875l7.9,4.9ZM9.5,13.79l11.9-6.9-1-1.73L8.5,12.06ZM14,18.725v-8.1H12v8.1Zm4-2.3v-8.1H16v8.1Z" fill="#09090b"/>
</svg>
