<svg id="contact-round" xmlns="http://www.w3.org/2000/svg" width="20" height="22" viewBox="0 0 20 22">
  <path id="Vector" d="M13,17a1,1,0,0,0,2,0Zm-3-4v0ZM5,17a1,1,0,0,0,2,0ZM7,1A1,1,0,0,0,5,1ZM5,3A1,1,0,0,0,7,3ZM15,1a1,1,0,0,0-2,0ZM13,3a1,1,0,0,0,2,0Zm2,14a5,5,0,0,0-1.465-3.535l-1.414,1.414A3,3,0,0,1,13,17Zm-1.465-3.535A5,5,0,0,0,10,12v2a3,3,0,0,1,2.121.879ZM10,12a5,5,0,0,0-3.536,1.465l1.414,1.414A3,3,0,0,1,10,14ZM6.464,13.465A5,5,0,0,0,5,17H7a3,3,0,0,1,.879-2.121ZM12,10a2,2,0,0,1-2,2v2a4,4,0,0,0,4-4Zm-2,2a2,2,0,0,1-2-2H6a4,4,0,0,0,4,4ZM8,10a2,2,0,0,1,2-2V6a4,4,0,0,0-4,4Zm2-2a2,2,0,0,1,2,2h2a4,4,0,0,0-4-4ZM3,4H17V2H3ZM17,4a1,1,0,0,1,1,1h2a3,3,0,0,0-3-3Zm1,1V19h2V5Zm0,14a1,1,0,0,1-1,1v2a3,3,0,0,0,3-3Zm-1,1H3v2H17ZM3,20a1,1,0,0,1-1-1H0a3,3,0,0,0,3,3ZM2,19V5H0V19ZM2,5A1,1,0,0,1,3,4V2A3,3,0,0,0,0,5ZM5,1V3H7V1Zm8,0V3h2V1Z" fill="#09090b"/>
</svg>
