<svg id="cookie" xmlns="http://www.w3.org/2000/svg" width="22" height="22" viewBox="0 0 22 22">
  <path id="Vector" d="M11,1l.956.294A1,1,0,0,0,11,0ZM21,11h1a1,1,0,0,0-1.294-.956ZM16,6l.956.294a1,1,0,0,0-1.25-1.25ZM8.5,7.5a1,1,0,0,0-2,0Zm-2,.01a1,1,0,0,0,2,0ZM16,14.5a1,1,0,0,0-2,0Zm-2,.01a1,1,0,0,0,2,0ZM12,11a1,1,0,0,0-2,0Zm-2,.01a1,1,0,0,0,2,0ZM11,16a1,1,0,0,0-2,0Zm-2,.01a1,1,0,0,0,2,0ZM7,13a1,1,0,0,0-2,0Zm-2,.01a1,1,0,0,0,2,0ZM11,0A11,11,0,0,0,4.889,1.854L6,3.517A9,9,0,0,1,11,2ZM4.889,1.854A11,11,0,0,0,.837,6.79l1.848.765A9,9,0,0,1,6,3.517ZM.837,6.79a11,11,0,0,0-.626,6.356l1.962-.39a9,9,0,0,1,.512-5.2ZM.211,13.146a11,11,0,0,0,3.01,5.632l1.414-1.414a9,9,0,0,1-2.463-4.608Zm3.01,5.632a11,11,0,0,0,5.632,3.01l.39-1.962a9,9,0,0,1-4.608-2.463Zm5.632,3.01a11,11,0,0,0,6.355-.626l-.765-1.848a9,9,0,0,1-5.2.512Zm6.355-.626a11,11,0,0,0,4.937-4.051L18.483,16a9,9,0,0,1-4.039,3.315Zm4.937-4.051A11,11,0,0,0,22,11H20a9,9,0,0,1-1.517,5Zm.559-7.067a3,3,0,0,1-1.606.044l-.482,1.941a5,5,0,0,0,2.676-.074Zm-1.606.044a3,3,0,0,1-1.4-.79l-1.414,1.414a5,5,0,0,0,2.331,1.317ZM17.7,9.3a3,3,0,0,1-.79-1.4l-1.941.482a5,5,0,0,0,1.317,2.331Zm-.79-1.4a3,3,0,0,1,.044-1.606l-1.911-.589a5,5,0,0,0-.074,2.676ZM15.706,5.044a3,3,0,0,1-1.606.044L13.618,7.03a5,5,0,0,0,2.676-.074ZM14.1,5.089a3,3,0,0,1-1.4-.79L11.287,5.713A5,5,0,0,0,13.618,7.03ZM12.7,4.3a3,3,0,0,1-.79-1.4L9.97,3.382a5,5,0,0,0,1.317,2.331Zm-.79-1.4a3,3,0,0,1,.044-1.606L10.044.706A5,5,0,0,0,9.97,3.382ZM6.5,7.5v.01h2V7.5Zm7.5,7v.01h2V14.5ZM10,11v.01h2V11ZM9,16v.01h2V16ZM5,13v.01H7V13Z" transform="translate(0)" fill="#09090b"/>
</svg>
