<svg id="copyleft" xmlns="http://www.w3.org/2000/svg" width="22" height="22" viewBox="0 0 22 22">
  <path id="Vector" d="M8.877,13.123a1,1,0,0,0-1.413,1.415ZM15,11h0ZM7.463,7.463A1,1,0,1,0,8.877,8.878ZM20,11a9,9,0,0,1-9,9v2A11,11,0,0,0,22,11Zm-9,9a9,9,0,0,1-9-9H0A11,11,0,0,0,11,22ZM2,11a9,9,0,0,1,9-9V0A11,11,0,0,0,0,11Zm9-9a9,9,0,0,1,9,9h2A11,11,0,0,0,11,0ZM7.463,14.538a5,5,0,0,0,2.56,1.367l.389-1.962a3,3,0,0,1-1.536-.82Zm2.56,1.367a5,5,0,0,0,2.888-.285l-.766-1.848a3,3,0,0,1-1.733.171Zm2.888-.285a5,5,0,0,0,2.243-1.842l-1.663-1.111a3,3,0,0,1-1.346,1.1Zm2.243-1.842A5,5,0,0,0,16,11H14a3,3,0,0,1-.505,1.666ZM16,11a5,5,0,0,0-.842-2.777L13.491,9.334A3,3,0,0,1,14,11Zm-.842-2.777a5,5,0,0,0-2.243-1.842l-.766,1.848a3,3,0,0,1,1.346,1.1ZM12.911,6.381A5,5,0,0,0,10.023,6.1l.389,1.962a3,3,0,0,1,1.733.171ZM10.023,6.1a5,5,0,0,0-2.56,1.367L8.877,8.878a3,3,0,0,1,1.536-.82Z" fill="#09090b"/>
</svg>
