<svg id="cpu" xmlns="http://www.w3.org/2000/svg" width="22" height="22" viewBox="0 0 22 22">
  <path id="Vector" d="M15,1a1,1,0,0,0-2,0ZM13,3a1,1,0,0,0,2,0Zm2,16a1,1,0,0,0-2,0Zm-2,2a1,1,0,0,0,2,0ZM1,13a1,1,0,0,0,0,2Zm2,2a1,1,0,0,0,0-2ZM1,7A1,1,0,0,0,1,9ZM3,9A1,1,0,0,0,3,7Zm16,4a1,1,0,0,0,0,2Zm2,2a1,1,0,0,0,0-2ZM19,7a1,1,0,0,0,0,2Zm2,2a1,1,0,0,0,0-2ZM9,1A1,1,0,0,0,7,1ZM7,3A1,1,0,0,0,9,3ZM9,19a1,1,0,0,0-2,0ZM7,21a1,1,0,0,0,2,0ZM5,4H17V2H5ZM17,4a1,1,0,0,1,1,1h2a3,3,0,0,0-3-3Zm1,1V17h2V5Zm0,12a1,1,0,0,1-1,1v2a3,3,0,0,0,3-3Zm-1,1H5v2H17ZM5,18a1,1,0,0,1-1-1H2a3,3,0,0,0,3,3ZM4,17V5H2V17ZM4,5A1,1,0,0,1,5,4V2A3,3,0,0,0,2,5ZM9,9h4V7H9Zm4,0h2a2,2,0,0,0-2-2Zm0,0v4h2V9Zm0,4v2a2,2,0,0,0,2-2Zm0,0H9v2h4ZM9,13H7a2,2,0,0,0,2,2Zm0,0V9H7v4ZM9,9V7A2,2,0,0,0,7,9Zm4-8V3h2V1Zm0,18v2h2V19ZM1,15H3V13H1ZM1,9H3V7H1Zm18,6h2V13H19Zm0-6h2V7H19ZM7,1V3H9V1ZM7,19v2H9V19Z" fill="#09090b"/>
</svg>
