<svg id="creative-commons" xmlns="http://www.w3.org/2000/svg" width="22" height="22" viewBox="0 0 22 22">
  <path id="Vector" d="M8.584,9.209a1,1,0,0,0,.832-1.819ZM5.5,9.3l-.834-.552,0,0ZM4.992,11h0ZM5.5,12.7l.851-.525-.015-.023Zm3.945,1.9a1,1,0,1,0-.89-1.791Zm6.139-5.386a1,1,0,0,0,.832-1.819ZM12.5,9.3l-.834-.552,0,0ZM11.992,11h0Zm.508,1.7.851-.525-.015-.023Zm3.945,1.9a1,1,0,0,0-.89-1.791ZM20,11a9,9,0,0,1-9,9v2A11,11,0,0,0,22,11Zm-9,9a9,9,0,0,1-9-9H0A11,11,0,0,0,11,22ZM2,11a9,9,0,0,1,9-9V0A11,11,0,0,0,0,11Zm9-9a9,9,0,0,1,9,9h2A11,11,0,0,0,11,0ZM9.416,7.391a3.8,3.8,0,0,0-2.626-.2L7.34,9.115a1.8,1.8,0,0,1,1.244.094Zm-2.626-.2A3.8,3.8,0,0,0,4.666,8.748l1.668,1.1A1.8,1.8,0,0,1,7.34,9.115ZM4.664,8.752A4.1,4.1,0,0,0,3.992,11h2a2.1,2.1,0,0,1,.344-1.152ZM3.992,11a4.1,4.1,0,0,0,.671,2.248l1.672-1.1A2.1,2.1,0,0,1,5.992,11Zm.657,2.225A3.7,3.7,0,0,0,6.781,14.84l.549-1.923a1.7,1.7,0,0,1-.98-.742ZM6.781,14.84A3.7,3.7,0,0,0,9.445,14.6L8.555,12.8a1.7,1.7,0,0,1-1.224.112Zm9.635-7.449a3.8,3.8,0,0,0-2.626-.2l.549,1.923a1.8,1.8,0,0,1,1.244.094Zm-2.626-.2a3.8,3.8,0,0,0-2.124,1.556l1.668,1.1a1.8,1.8,0,0,1,1.006-.737ZM11.664,8.752A4.1,4.1,0,0,0,10.992,11h2a2.1,2.1,0,0,1,.344-1.152ZM10.992,11a4.1,4.1,0,0,0,.672,2.248l1.672-1.1A2.1,2.1,0,0,1,12.992,11Zm.657,2.225a3.7,3.7,0,0,0,2.132,1.615l.549-1.923a1.7,1.7,0,0,1-.98-.742Zm2.132,1.615a3.7,3.7,0,0,0,2.664-.245l-.89-1.791a1.7,1.7,0,0,1-1.224.112Z" fill="#09090b"/>
</svg>
