<svg id="croissant" xmlns="http://www.w3.org/2000/svg" width="22" height="22" viewBox="0 0 22 22">
  <path id="Vector" d="M3.6,12.11l-.485-.875h0ZM9.39,8.9l.485.875h0Zm3.71,3.71-.873-.488,0,0ZM9.88,18.42l.874.486h0ZM8.584,8.9a1,1,0,1,0,1.833-.8ZM8.5,6.21l-.925.38.009.02ZM1,7.5H0q0,.023,0,.047ZM2.26,13A1,1,0,1,0,3.74,11.657ZM1.5,5a1,1,0,0,0,2,0Zm12.4,6.584a1,1,0,0,0-.8,1.833ZM15.79,13.5l-.4.916.02.009ZM14.5,21l-.047,1H14.5Zm-4.157-2.74A1,1,0,0,0,9,19.74ZM17,18.5a1,1,0,0,0,0,2ZM4.085,12.985l5.79-3.21-.97-1.749-5.79,3.21Zm5.791-3.21c.372-.207,1.089-.11,1.78.574s.789,1.385.572,1.773l1.745.977a3.536,3.536,0,0,0-.911-4.172,3.572,3.572,0,0,0-4.158-.9Zm2.35,2.351-3.22,5.81,1.749.969,3.22-5.81ZM9.006,17.934a.826.826,0,0,1-.466.427,1.455,1.455,0,0,1-.808-.02,5.978,5.978,0,0,1-2.5-1.587,5.89,5.89,0,0,1-1.586-2.482,1.429,1.429,0,0,1-.015-.8.878.878,0,0,1,.45-.484l-.972-1.748a2.868,2.868,0,0,0-1.369,1.583,3.4,3.4,0,0,0-.033,1.942,7.834,7.834,0,0,0,2.114,3.41,7.923,7.923,0,0,0,3.413,2.108,3.426,3.426,0,0,0,1.934-.021,2.817,2.817,0,0,0,1.581-1.352ZM10.416,8.1l-1-2.29-1.833.8,1,2.29ZM9.425,5.83A3.316,3.316,0,0,0,8.6,4.584,2.341,2.341,0,0,0,7,4V6a.354.354,0,0,1,.273.078,1.409,1.409,0,0,1,.3.512ZM7,4H3.5V6H7ZM3.5,4a3.68,3.68,0,0,0-2.565.761A3.529,3.529,0,0,0,0,7.5H2c0-.913.189-1.176.283-1.261C2.4,6.133,2.685,6,3.5,6ZM0,7.547A8.71,8.71,0,0,0,2.26,13L3.74,11.657A6.71,6.71,0,0,1,2,7.453ZM8,5a11.058,11.058,0,0,0-.2-2.844,2.987,2.987,0,0,0-.892-1.5A2.834,2.834,0,0,0,5,0V2a.864.864,0,0,1,.6.162,1.021,1.021,0,0,1,.273.52A9.589,9.589,0,0,1,6,5ZM5,0A3.08,3.08,0,0,0,3.188.551,3.431,3.431,0,0,0,2.1,1.876,7.345,7.345,0,0,0,1.5,5h2a5.413,5.413,0,0,1,.4-2.249,1.446,1.446,0,0,1,.444-.567A1.087,1.087,0,0,1,5,2Zm8.1,13.416,2.29,1,.8-1.833-2.29-1Zm2.31,1.009a1.41,1.41,0,0,1,.512.3A.355.355,0,0,1,16,15h2a2.341,2.341,0,0,0-.584-1.6,3.316,3.316,0,0,0-1.246-.823ZM16,15v3.5h2V15Zm0,3.5c0,.815-.133,1.1-.239,1.218-.086.094-.348.282-1.261.282v2a3.528,3.528,0,0,0,2.739-.935A3.68,3.68,0,0,0,18,18.5ZM14.547,20a6.71,6.71,0,0,1-4.2-1.741L9,19.74A8.71,8.71,0,0,0,14.453,22ZM17,16a9.59,9.59,0,0,1,2.318.125,1.02,1.02,0,0,1,.52.273A.863.863,0,0,1,20,17h2a2.834,2.834,0,0,0-.652-1.913,2.986,2.986,0,0,0-1.5-.892A11.062,11.062,0,0,0,17,14Zm3,1a1.086,1.086,0,0,1-.184.657,1.448,1.448,0,0,1-.567.444A5.413,5.413,0,0,1,17,18.5v2a7.346,7.346,0,0,0,3.124-.6,3.43,3.43,0,0,0,1.325-1.087A3.08,3.08,0,0,0,22,17Z" transform="translate(0)" fill="#09090b"/>
</svg>
