<svg id="cross" xmlns="http://www.w3.org/2000/svg" width="22" height="22" viewBox="0 0 22 22">
  <path id="Vector" d="M10,1V1ZM8,8V9A1,1,0,0,0,9,8ZM1,10H1Zm7,4H9a1,1,0,0,0-1-1Zm6,0V13a1,1,0,0,0-1,1Zm0-6H13a1,1,0,0,0,1,1ZM12,1V1ZM10,0A3,3,0,0,0,7.879.879L9.293,2.293A1,1,0,0,1,10,2ZM7.879.879A3,3,0,0,0,7,3H9a1,1,0,0,1,.293-.707ZM7,3V8H9V3ZM8,7H3V9H8ZM3,7a3,3,0,0,0-2.121.879L2.293,9.293A1,1,0,0,1,3,9ZM.879,7.879A3,3,0,0,0,0,10H2a1,1,0,0,1,.293-.707ZM0,10v2H2V10Zm0,2a3.006,3.006,0,0,0,3,3V13a1.006,1.006,0,0,1-1-1Zm3,3H8V13H3Zm4-1v5H9V14Zm0,5a3.006,3.006,0,0,0,3,3V20a1.006,1.006,0,0,1-1-1Zm3,3h2V20H10Zm2,0a3,3,0,0,0,2.121-.879l-1.414-1.414A1,1,0,0,1,12,20Zm2.121-.879A3,3,0,0,0,15,19H13a1,1,0,0,1-.293.707ZM15,19V14H13v5Zm-1-4h5V13H14Zm5,0a3,3,0,0,0,2.121-.879l-1.414-1.414A1,1,0,0,1,19,13Zm2.121-.879A3,3,0,0,0,22,12H20a1,1,0,0,1-.293.707ZM22,12V10H20v2Zm0-2a3,3,0,0,0-.879-2.121L19.707,9.293A1,1,0,0,1,20,10Zm-.879-2.121A3,3,0,0,0,19,7V9a1,1,0,0,1,.707.293ZM19,7H14V9h5ZM15,8V3H13V8Zm0-5A3,3,0,0,0,14.121.879L12.707,2.293A1,1,0,0,1,13,3ZM14.121.879A3,3,0,0,0,12,0V2a1,1,0,0,1,.707.293ZM12,0H10V2h2Z" fill="#09090b"/>
</svg>
