<svg id="cuboid" xmlns="http://www.w3.org/2000/svg" width="22" height="22.011" viewBox="0 0 22 22.011">
  <path id="Vector" d="M20.12,5.406l.56-.828,0,0Zm-6.05-4.06-.562.827,0,0ZM11.9,1.3,11.377.443h0ZM1.95,7.416l-.524-.852h0ZM1,9.116H1Zm0,5.82,1,0v0Zm.88,1.66-.56.829h0Zm6.05,4.07.562-.827,0,0Zm2.17.05.523.852h0Zm9.95-6.12.524.852h0ZM21,12.9h0Zm0-5.83-1,0v0ZM8,21.006a1,1,0,0,0,2,0ZM1.78,7.308A1,1,0,0,0,.72,9ZM21.274,7a1,1,0,0,0-1.008-1.727Zm-.6-2.424L14.627.515,13.513,2.176l6.05,4.06ZM14.632.518A3,3,0,0,0,13.015,0l-.046,2a1,1,0,0,1,.539.172ZM13.015,0a3,3,0,0,0-1.639.442l1.046,1.7A1,1,0,0,1,12.969,2ZM11.376.444l-9.95,6.12,1.048,1.7,9.95-6.12ZM1.425,6.564A3,3,0,0,0,.381,7.654l1.746.976a1,1,0,0,1,.348-.363ZM.381,7.654A3,3,0,0,0,0,9.114l2,0a1,1,0,0,1,.127-.487ZM0,9.116v5.82H2V9.116Zm0,5.818a3,3,0,0,0,.349,1.41l1.767-.937A1,1,0,0,1,2,14.937Zm.349,1.41a3,3,0,0,0,.971,1.08l1.12-1.657a1,1,0,0,1-.324-.36Zm.972,1.081,6.05,4.07,1.116-1.659-6.05-4.07Zm6.046,4.068a3,3,0,0,0,1.616.517l.046-2a1,1,0,0,1-.539-.173Zm1.616.517a3,3,0,0,0,1.639-.442l-1.046-1.7a1,1,0,0,1-.546.147Zm1.639-.443,9.95-6.12-1.048-1.7-9.95,6.12Zm9.951-6.121a3,3,0,0,0,1.044-1.09l-1.746-.976a1,1,0,0,1-.348.363Zm1.044-1.09A3,3,0,0,0,22,12.9l-2,0a1,1,0,0,1-.127.487ZM22,12.9V7.066H20V12.9Zm0-5.828a3,3,0,0,0-.349-1.41l-1.767.937a1,1,0,0,1,.117.47Zm-.349-1.41a3,3,0,0,0-.971-1.08L19.56,6.234a1,1,0,0,1,.323.36ZM10,21.006v-8H8v8Zm-.47-8.848L1.78,7.308.72,9l7.75,4.85ZM9.5,13.869,21.274,7,20.266,5.272,8.5,12.142Z" transform="translate(0 0)" fill="#09090b"/>
</svg>
