<svg id="cup-soda" xmlns="http://www.w3.org/2000/svg" width="16" height="22" viewBox="0 0 16 22">
  <path id="Vector" d="M2.99,6.859a1,1,0,1,0-1.98.282ZM3.75,19.28l.99-.14h0Zm2,1.72V20H5.74Zm4.54,0,.01-1h-.01Zm2-1.72.99.14v0Zm2.7-12.142a1,1,0,1,0-1.981-.276ZM1,6A1,1,0,0,0,1,8ZM15,8a1,1,0,0,0,0-2ZM2.614,13.078a1,1,0,1,0,.773,1.845ZM5.5,13.5v0Zm5,1.005v0Zm2.886.42a1,1,0,0,0-.773-1.845ZM7.014,6.836a1,1,0,0,0,1.973.329ZM9,1V0a1,1,0,0,0-.986.836Zm2,1a1,1,0,0,0,0-2ZM1.01,7.141l1.75,12.28,1.98-.282L2.99,6.859ZM2.76,19.42a3,3,0,0,0,1.014,1.855l1.3-1.516a1,1,0,0,1-.338-.618Zm1.014,1.855A3,3,0,0,0,5.76,22l-.02-2a1,1,0,0,1-.662-.242ZM5.75,22h4.54V20H5.75Zm4.53,0a3,3,0,0,0,1.986-.725l-1.3-1.516A1,1,0,0,1,10.3,20Zm1.986-.725A3,3,0,0,0,13.28,19.42l-1.98-.28a1,1,0,0,1-.338.618Zm1.015-1.857,1.71-12.28L13.01,6.862,11.3,19.142ZM1,8H15V6H1Zm2.386,6.922A5.47,5.47,0,0,1,5.5,14.5v-2a7.471,7.471,0,0,0-2.886.58ZM5.5,14.5a5.47,5.47,0,0,1,2.114.425l.773-1.845A7.471,7.471,0,0,0,5.5,12.5Zm2.114.425a7.469,7.469,0,0,0,2.886.58v-2a5.469,5.469,0,0,1-2.114-.425Zm2.886.58a7.469,7.469,0,0,0,2.886-.58l-.773-1.845A5.469,5.469,0,0,1,10.5,13.5ZM8.986,7.164l1-6L8.014.836l-1,6ZM9,2h2V0H9Z" fill="#09090b"/>
</svg>
