<svg id="cylinder" xmlns="http://www.w3.org/2000/svg" width="20" height="22" viewBox="0 0 20 22">
  <path id="Vector" d="M1,18H1Zm18,0h0ZM18,4a.051.051,0,0,1,0,.015.293.293,0,0,1-.032.066,1.235,1.235,0,0,1-.291.3,5.529,5.529,0,0,1-1.626.79A19.982,19.982,0,0,1,10,6V8a21.937,21.937,0,0,0,6.68-.93,7.448,7.448,0,0,0,2.232-1.117A2.531,2.531,0,0,0,20,4ZM10,6a19.982,19.982,0,0,1-6.048-.827,5.528,5.528,0,0,1-1.626-.79,1.236,1.236,0,0,1-.291-.3A.3.3,0,0,1,2,4.015.052.052,0,0,1,2,4H0A2.531,2.531,0,0,0,1.088,5.953,7.449,7.449,0,0,0,3.32,7.07,21.937,21.937,0,0,0,10,8ZM2,4a.052.052,0,0,1,0-.015.3.3,0,0,1,.032-.066,1.236,1.236,0,0,1,.291-.3,5.528,5.528,0,0,1,1.626-.79A19.982,19.982,0,0,1,10,2V0A21.937,21.937,0,0,0,3.32.93,7.449,7.449,0,0,0,1.088,2.047,2.531,2.531,0,0,0,0,4Zm8-2a19.982,19.982,0,0,1,6.048.827,5.529,5.529,0,0,1,1.626.79,1.235,1.235,0,0,1,.291.3A.293.293,0,0,1,18,3.985.051.051,0,0,1,18,4h2a2.531,2.531,0,0,0-1.088-1.953A7.448,7.448,0,0,0,16.68.93,21.937,21.937,0,0,0,10,0ZM0,4V18H2V4ZM0,18a2.516,2.516,0,0,0,1.058,1.927A7.338,7.338,0,0,0,3.32,21.07l.632-1.9a5.417,5.417,0,0,1-1.64-.8,1.2,1.2,0,0,1-.28-.3A.282.282,0,0,1,2,18.011.07.07,0,0,1,2,18H0Zm3.32,3.07A22.062,22.062,0,0,0,10,22V20a20.107,20.107,0,0,1-6.048-.827ZM10,22a22.062,22.062,0,0,0,6.68-.93l-.632-1.9A20.107,20.107,0,0,1,10,20Zm6.68-.93a7.339,7.339,0,0,0,2.262-1.143A2.516,2.516,0,0,0,20,18H18a.07.07,0,0,1,0,.009.284.284,0,0,1-.03.063,1.2,1.2,0,0,1-.28.3,5.418,5.418,0,0,1-1.64.8ZM20,18V4H18V18Z" transform="translate(0 0)" fill="#09090b"/>
</svg>
