<svg id="database-backup" xmlns="http://www.w3.org/2000/svg" width="21" height="22" viewBox="0 0 21 22">
  <path id="Vector" d="M1,4H1Zm1,7A1,1,0,1,0,0,11Zm3.837,3.674A1,1,0,1,0,6.163,12.7ZM18,8.3a1,1,0,0,0,2,0ZM1,18H1Zm6.373,3.875a1,1,0,0,0,.194-1.991ZM11,11a1,1,0,0,0-2,0Zm-1,4H9a1,1,0,0,0,1,1Zm4,1a1,1,0,0,0,0-2Zm-2.2,2.4a1,1,0,1,0-1.6,1.2ZM20,16h0Zm-4.5-4.5v0ZM18,4a.051.051,0,0,1,0,.015.293.293,0,0,1-.032.066,1.235,1.235,0,0,1-.291.3,5.529,5.529,0,0,1-1.626.79A19.982,19.982,0,0,1,10,6V8a21.937,21.937,0,0,0,6.68-.93,7.448,7.448,0,0,0,2.232-1.117A2.531,2.531,0,0,0,20,4ZM10,6a19.982,19.982,0,0,1-6.048-.827,5.528,5.528,0,0,1-1.626-.79,1.236,1.236,0,0,1-.291-.3A.3.3,0,0,1,2,4.015.052.052,0,0,1,2,4H0A2.531,2.531,0,0,0,1.088,5.953,7.449,7.449,0,0,0,3.32,7.07,21.937,21.937,0,0,0,10,8ZM2,4a.052.052,0,0,1,0-.015.3.3,0,0,1,.032-.066,1.236,1.236,0,0,1,.291-.3,5.528,5.528,0,0,1,1.626-.79A19.982,19.982,0,0,1,10,2V0A21.937,21.937,0,0,0,3.32.93,7.449,7.449,0,0,0,1.088,2.047,2.531,2.531,0,0,0,0,4Zm8-2a19.982,19.982,0,0,1,6.048.827,5.529,5.529,0,0,1,1.626.79,1.235,1.235,0,0,1,.291.3A.293.293,0,0,1,18,3.985.051.051,0,0,1,18,4h2a2.531,2.531,0,0,0-1.088-1.953A7.448,7.448,0,0,0,16.68.93,21.937,21.937,0,0,0,10,0ZM0,11a3.009,3.009,0,0,0,1.876,2.466L2.823,11.7a2.522,2.522,0,0,1-.719-.528.572.572,0,0,1-.1-.143A.138.138,0,0,1,2,11.006v0H2Zm1.876,2.466a13.136,13.136,0,0,0,3.961,1.213L6.163,12.7a11.218,11.218,0,0,1-3.34-1ZM20,8.3V4H18V8.3ZM0,4V18H2V4ZM0,18a2.348,2.348,0,0,0,.753,1.656,5.421,5.421,0,0,0,1.637,1.058L3.2,18.886a3.488,3.488,0,0,1-1.035-.644.784.784,0,0,1-.153-.2A.187.187,0,0,1,2,18.007V18H2Zm2.389,2.714a16.7,16.7,0,0,0,4.983,1.163l.194-1.991a14.767,14.767,0,0,1-4.365-1ZM9,11v4h2V11Zm1,5h4V14H10Zm.2,3.6a6,6,0,0,0,3.011,2.127l.6-1.909A4,4,0,0,1,11.8,18.4Zm3.011,2.127a6,6,0,0,0,3.686-.035l-.632-1.9a4,4,0,0,1-2.458.023Zm3.686-.035a6,6,0,0,0,2.97-2.184l-1.622-1.17a4,4,0,0,1-1.98,1.456Zm2.97-2.184A6,6,0,0,0,21,16H19a4,4,0,0,1-.755,2.339ZM21,16a5.5,5.5,0,0,0-1.611-3.889l-1.414,1.414A3.5,3.5,0,0,1,19,16Zm-1.611-3.889A5.5,5.5,0,0,0,15.5,10.5v2a3.5,3.5,0,0,1,2.475,1.025ZM15.5,10.5a5.814,5.814,0,0,0-4.117,1.7L12.8,13.617A3.815,3.815,0,0,1,15.5,12.5Zm-4.117,1.7-2.09,2.09,1.414,1.414,2.09-2.09Z" transform="translate(0 0)" fill="#09090b"/>
</svg>
