<svg id="dessert" xmlns="http://www.w3.org/2000/svg" width="22" height="21.913" viewBox="0 0 22 21.913">
  <path id="Vector" d="M9.368,3.186a1,1,0,0,0-.336-1.972ZM1,12H1Zm4,0H5ZM7,9V9Zm2,2H9Zm6-2V9ZM12.968,1.214a1,1,0,0,0-.336,1.972ZM3.178,13.59a1,1,0,0,0-1.956.419ZM11,20.913v0Zm9.778-6.9a1,1,0,0,0-1.956-.419ZM12,3a1,1,0,0,1-1,1V6a3,3,0,0,0,3-3ZM11,4a1,1,0,0,1-1-1H8a3,3,0,0,0,3,3ZM10,3a1,1,0,0,1,1-1V0A3,3,0,0,0,8,3Zm1-1a1,1,0,0,1,1,1h2a3,3,0,0,0-3-3ZM9.032,1.214A10.9,10.9,0,0,0,0,12H2A8.9,8.9,0,0,1,9.368,3.186ZM0,12a3,3,0,0,0,.879,2.121l1.414-1.414A1,1,0,0,1,2,12Zm.879,2.121A3,3,0,0,0,3,15V13a1,1,0,0,1-.707-.293ZM3,15a3,3,0,0,0,2.121-.879L3.707,12.707A1,1,0,0,1,3,13Zm2.121-.879A3,3,0,0,0,6,12H4a1,1,0,0,1-.293.707ZM6,12V11H4v1Zm0-1a1,1,0,0,1,.293-.707L4.879,8.879A3,3,0,0,0,4,11Zm.293-.707A1,1,0,0,1,7,10V8a3,3,0,0,0-2.121.879ZM7,10a1,1,0,0,1,.707.293L9.121,8.879A3,3,0,0,0,7,8Zm.707.293A1,1,0,0,1,8,11h2a3,3,0,0,0-.879-2.121ZM8,11v4h2V11Zm0,4a3,3,0,0,0,.879,2.121l1.414-1.414A1,1,0,0,1,10,15Zm.879,2.121A3,3,0,0,0,11,18V16a1,1,0,0,1-.707-.293ZM11,18a3,3,0,0,0,2.121-.879l-1.414-1.414A1,1,0,0,1,11,16Zm2.121-.879A3,3,0,0,0,14,15H12a1,1,0,0,1-.293.707ZM14,15V11H12v4Zm0-4a1,1,0,0,1,.293-.707L12.879,8.879A3,3,0,0,0,12,11Zm.293-.707A1,1,0,0,1,15,10V8a3,3,0,0,0-2.121.879ZM15,10a1,1,0,0,1,.707.293l1.414-1.414A3,3,0,0,0,15,8Zm.707.293A1,1,0,0,1,16,11h2a3,3,0,0,0-.879-2.121ZM16,11v1h2V11Zm0,1a3,3,0,0,0,.879,2.121l1.414-1.414A1,1,0,0,1,18,12Zm.879,2.121A3,3,0,0,0,19,15V13a1,1,0,0,1-.707-.293ZM19,15a3,3,0,0,0,2.121-.879l-1.414-1.414A1,1,0,0,1,19,13Zm2.121-.879A3,3,0,0,0,22,12H20a1,1,0,0,1-.293.707ZM22,12A10.9,10.9,0,0,0,12.968,1.214l-.336,1.972A8.9,8.9,0,0,1,20,12ZM1.222,14.01A10,10,0,0,0,4.714,19.69l1.257-1.555A8,8,0,0,1,3.178,13.59ZM4.714,19.69A10,10,0,0,0,11,21.913v-2a8,8,0,0,1-5.029-1.778ZM11,21.913a10,10,0,0,0,6.286-2.223l-1.257-1.555A8,8,0,0,1,11,19.913Zm6.286-2.223a10,10,0,0,0,3.491-5.681l-1.956-.419a8,8,0,0,1-2.793,4.544Z" fill="#09090b"/>
</svg>
