<svg id="disc-2" xmlns="http://www.w3.org/2000/svg" width="22" height="22" viewBox="0 0 22 22">
  <path id="Vector" d="M11,10a1,1,0,0,0,0,2Zm.01,2a1,1,0,0,0,0-2ZM20,11a9,9,0,0,1-9,9v2A11,11,0,0,0,22,11Zm-9,9a9,9,0,0,1-9-9H0A11,11,0,0,0,11,22ZM2,11a9,9,0,0,1,9-9V0A11,11,0,0,0,0,11Zm9-9a9,9,0,0,1,9,9h2A11,11,0,0,0,11,0Zm3,9a3,3,0,0,1-3,3v2a5,5,0,0,0,5-5Zm-3,3a3,3,0,0,1-3-3H6a5,5,0,0,0,5,5ZM8,11a3,3,0,0,1,3-3V6a5,5,0,0,0-5,5Zm3-3a3,3,0,0,1,3,3h2a5,5,0,0,0-5-5Zm0,4h.01V10H11Z" fill="#09090b"/>
</svg>
