<svg id="dog" xmlns="http://www.w3.org/2000/svg" width="21.28" height="20.056" viewBox="0 0 21.28 20.056">
  <path id="Vector" d="M7.506,3.228a1,1,0,0,0,2,0Zm-2.5-2.172.164.986h0Zm-4,7-.994.113h0Zm3.656,1,.35.937h0ZM7.946,6.9a1,1,0,1,0-1.878-.687Zm3.828-3.671a1,1,0,0,0,2,0Zm4.5-2.172-.165.986h0Zm4,7,.994.113h0Zm-3.656,1-.351.937h0Zm-1.3-2.843a1,1,0,1,0-1.878.687ZM7.506,12.056a1,1,0,1,0-2,0Zm-2,.5a1,1,0,0,0,2,0Zm10-.5a1,1,0,0,0-2,0Zm-2,.5a1,1,0,0,0,2,0Zm-3.75,1.75v-1a1,1,0,0,0-.707,1.707Zm1.5,0,.707.707a1,1,0,0,0-.707-1.707Zm-.75.75-.707.707a1,1,0,0,0,1.414,0Zm-6.612-5.5a1,1,0,1,0-1.936-.5ZM2.506,12.612h0Zm16.465-3.6a1,1,0,0,0-1.917.572ZM8.578,2.24A1,1,0,0,0,8.963,4.2Zm1.929.816,0,1h0ZM12.38,4.32A1,1,0,1,0,12.954,2.4ZM9.506,3.228A3.074,3.074,0,0,0,8.02.66,4.5,4.5,0,0,0,4.842.07l.329,1.973a2.5,2.5,0,0,1,1.764.3,1.085,1.085,0,0,1,.571.887ZM4.842.07A4.143,4.143,0,0,0,2.416,1.556,9.259,9.259,0,0,0,.984,3.971,14.541,14.541,0,0,0,.211,6.39a6.192,6.192,0,0,0-.2,1.778L2,7.943c0,.008,0-.015,0-.083s.009-.146.022-.251c.025-.208.071-.475.14-.782a12.542,12.542,0,0,1,.664-2.079A7.292,7.292,0,0,1,3.933,2.86a2.175,2.175,0,0,1,1.238-.818ZM.013,8.169A1.949,1.949,0,0,0,.657,9.34a3.454,3.454,0,0,0,1.128.684,4.566,4.566,0,0,0,3.228-.032l-.7-1.873A2.57,2.57,0,0,1,2.5,8.156a1.472,1.472,0,0,1-.473-.276c-.109-.1-.041-.094-.023.063Zm5,1.823A4.968,4.968,0,0,0,7.946,6.9L6.067,6.212A2.976,2.976,0,0,1,4.312,8.119Zm8.761-6.765a1.085,1.085,0,0,1,.571-.887,2.5,2.5,0,0,1,1.764-.3L16.438.07A4.5,4.5,0,0,0,13.26.66a3.075,3.075,0,0,0-1.487,2.568Zm2.336-1.186a2.175,2.175,0,0,1,1.238.818,7.291,7.291,0,0,1,1.106,1.888,12.537,12.537,0,0,1,.664,2.079c.069.307.115.574.14.782.013.1.019.188.022.251s0,.091,0,.083l1.987.226a6.189,6.189,0,0,0-.2-1.778,14.541,14.541,0,0,0-.773-2.42,9.262,9.262,0,0,0-1.432-2.414A4.143,4.143,0,0,0,16.438.07Zm3.171,5.9c.018-.156.086-.165-.023-.063a1.471,1.471,0,0,1-.473.276,2.57,2.57,0,0,1-1.816-.037l-.7,1.873a4.566,4.566,0,0,0,3.228.032,3.453,3.453,0,0,0,1.128-.684,1.949,1.949,0,0,0,.644-1.171Zm-2.312.177a2.819,2.819,0,0,1-1.65-1.907L13.439,6.9a4.794,4.794,0,0,0,2.828,3.093ZM5.506,12.056v.5h2v-.5Zm8,0v.5h2v-.5Zm-3.75,3.25h1.5v-2h-1.5Zm.793-1.707-.75.75,1.414,1.414.75-.75Zm.664.75-.75-.75L9.049,15.013l.75.75Zm-9.255-5.3a14.152,14.152,0,0,0-.452,3.561l2,0a12.152,12.152,0,0,1,.388-3.057Zm-.452,3.56A6.764,6.764,0,0,0,4.248,18.2a10.4,10.4,0,0,0,6.258,1.858v-2A8.418,8.418,0,0,1,5.451,16.6a4.767,4.767,0,0,1-1.945-3.988Zm9,7.444A10.4,10.4,0,0,0,16.764,18.2a6.764,6.764,0,0,0,2.742-5.585h-2A4.767,4.767,0,0,1,15.562,16.6a8.418,8.418,0,0,1-5.055,1.457Zm9-7.444a12.7,12.7,0,0,0-.535-3.6l-1.917.572a10.7,10.7,0,0,1,.451,3.023ZM8.963,4.2A7.8,7.8,0,0,1,10.5,4.056l.009-2a9.8,9.8,0,0,0-1.933.184Zm1.543-.146a6.5,6.5,0,0,1,1.874.264L12.954,2.4a8.5,8.5,0,0,0-2.448-.348Z" transform="translate(0 0)" fill="#09090b"/>
</svg>
