<svg id="donut" xmlns="http://www.w3.org/2000/svg" width="22" height="22" viewBox="0 0 22 22">
  <path id="Vector" d="M19.534,9.008l-.02,1h.02Zm-2.4-3,.98.2a1,1,0,0,0-.98-1.2Zm-.1,0v-1h-.01Zm-2.6-4.4L15.3,2.1A1,1,0,0,0,14.777.669Zm6.3,7.1.973-.229a1,1,0,0,0-1.528-.6Zm-1.18-.7a1.5,1.5,0,0,1-.633-.154l-.884,1.794a3.5,3.5,0,0,0,1.478.36Zm-.634-.154a1.5,1.5,0,0,1-.508-.408L16.85,8.695a3.5,3.5,0,0,0,1.186.953Zm-.508-.408a1.5,1.5,0,0,1-.287-.585l-1.944.469a3.5,3.5,0,0,0,.67,1.366Zm-.287-.585a1.5,1.5,0,0,1-.011-.652l-1.959-.4a3.5,3.5,0,0,0,.027,1.521Zm-.991-1.852h-.1v2h.1Zm-.111,0a1.95,1.95,0,0,1-.978-.251L15.063,6.5a3.95,3.95,0,0,0,1.981.509Zm-.978-.251a1.95,1.95,0,0,1-.721-.707L13.6,5.068A3.95,3.95,0,0,0,15.063,6.5Zm-.721-.707a1.95,1.95,0,0,1-.271-.973l-2,.02a3.949,3.949,0,0,0,.549,1.97Zm-.271-.973A1.95,1.95,0,0,1,15.3,2.1l-1.742-.983a3.949,3.949,0,0,0-.51,1.981ZM14.777.669A11,11,0,0,0,7.631.529l.613,1.9a9,9,0,0,1,5.847.115ZM7.631.529A11,11,0,0,0,1.907,4.809L3.561,5.935a9,9,0,0,1,4.683-3.5ZM1.908,4.809A11,11,0,0,0,.023,11.7l2-.128A9,9,0,0,1,3.561,5.935ZM.023,11.7a11,11,0,0,0,2.75,6.6l1.5-1.327a9,9,0,0,1-2.25-5.4Zm2.75,6.6A11,11,0,0,0,9,21.816l.364-1.966a9,9,0,0,1-5.092-2.876ZM9,21.816a11,11,0,0,0,7.07-1.051l-.921-1.775a9,9,0,0,1-5.784.86Zm7.07-1.051A11,11,0,0,0,21,15.591l-1.817-.835a9,9,0,0,1-4.035,4.233ZM21,15.591a11,11,0,0,0,.711-7.112l-1.947.458a9,9,0,0,1-.582,5.819Zm-.817-7.715a1.5,1.5,0,0,1-.645.132v2a3.35,3.35,0,0,0,1.755-.468Zm-7.145,3.132a2,2,0,0,1-2,2v2a4,4,0,0,0,4-4Zm-2,2a2,2,0,0,1-2-2h-2a4,4,0,0,0,4,4Zm-2-2a2,2,0,0,1,2-2v-2a4,4,0,0,0-4,4Zm2-2a2,2,0,0,1,2,2h2a4,4,0,0,0-4-4Z" transform="translate(0 0)" fill="#09090b"/>
</svg>
