<svg id="door-open" xmlns="http://www.w3.org/2000/svg" width="22" height="21.156" viewBox="0 0 22 21.156">
  <path id="Vector" d="M12,1.438a1,1,0,1,0,0,2Zm3,1v0Zm1,16a1,1,0,0,0,2,0Zm-15-1a1,1,0,0,0,0,2Zm11,0a1,1,0,0,0,0,2Zm9,2a1,1,0,0,0,0-2Zm-11-9a1,1,0,0,0-2,0Zm-2,.01a1,1,0,0,0,2,0ZM12,3h0Zm0,16.157h0Zm-1.242.97-.242.97h0ZM4,4H4ZM5.515,2.06l.242.97h0Zm4-1L9.273.09h0ZM12,3.438h3v-2H12Zm3,0a1,1,0,0,1,.707.293l1.414-1.414A3,3,0,0,0,15,1.438Zm.707.293A1,1,0,0,1,16,4.438h2a3,3,0,0,0-.879-2.121ZM16,4.438v14h2v-14Zm-15,15H4v-2H1Zm11,0h9v-2H12Zm-4-9v.01h2v-.01ZM11,3V19.157h2V3Zm0,16.157h0l1.8.877a2,2,0,0,0,.2-.877Zm0,0h0l1.231,1.576a2,2,0,0,0,.566-.7Zm0,0h0l.416,1.956a2,2,0,0,0,.815-.38Zm0,0h0L10.516,21.1a2,2,0,0,0,.9.016Zm0,0L4.242,17.468l-.485,1.94L10.516,21.1Zm-6-.719V4H3V18.438ZM5,4a1,1,0,0,1,.212-.615L3.636,2.154A3,3,0,0,0,3,4Zm.212-.615a1,1,0,0,1,.546-.355L5.273,1.09A3,3,0,0,0,3.636,2.154Zm.546-.355,4-1L9.272.09l-4,1Zm4-1a1,1,0,0,1,.45-.008L10.622.065A3,3,0,0,0,9.272.09Zm.45-.008a1,1,0,0,1,.408.19L11.846.635a3,3,0,0,0-1.224-.57Zm.408.19a1,1,0,0,1,.283.349l1.8-.878a3,3,0,0,0-.85-1.048Zm.283.349A1,1,0,0,1,11,3h2a3,3,0,0,0-.3-1.316Z" transform="translate(0 0)" fill="#09090b"/>
</svg>
