<svg id="door-closed" xmlns="http://www.w3.org/2000/svg" width="22" height="18" viewBox="0 0 22 18">
  <path id="Vector" d="M16,17a1,1,0,0,0,2,0ZM15,1V1ZM7,1V1ZM5,3H5ZM4,17a1,1,0,0,0,2,0ZM1,16a1,1,0,0,0,0,2Zm20,2a1,1,0,0,0,0-2ZM14,9a1,1,0,0,0-2,0Zm-2,.01a1,1,0,1,0,2,0ZM18,17V3H16V17ZM18,3A3,3,0,0,0,17.121.879L15.707,2.293A1,1,0,0,1,16,3ZM17.121.879A3,3,0,0,0,15,0V2a1,1,0,0,1,.707.293ZM15,0H7V2h8ZM7,0A3,3,0,0,0,4.879.879L6.293,2.293A1,1,0,0,1,7,2ZM4.879.879A3,3,0,0,0,4,3H6a1,1,0,0,1,.293-.707ZM4,3V17H6V3ZM1,18H21V16H1ZM12,9v.01h2V9Z" fill="#09090b"/>
</svg>
