<svg id="drama" xmlns="http://www.w3.org/2000/svg" width="22.04" height="21.969" viewBox="0 0 22.04 21.969">
  <path id="Vector" d="M9.04,9a1,1,0,0,0,0,2Zm.01,2a1,1,0,0,0,0-2Zm3.99-7a1,1,0,0,0,0,2Zm.01,2a1,1,0,0,0,0-2Zm3.99-2a1,1,0,0,0,0,2Zm.01,2a1,1,0,0,0,0-2ZM5.54,11.1a1,1,0,0,0,0,2Zm.01,2a1,1,0,0,0,0-2Zm11.6-3.493a1,1,0,0,0-1.414-1.414Zm-2.8-1.414a1,1,0,0,0-1.414,1.414ZM9.23,7.1A1,1,0,1,0,9.049,5.1ZM5.04,7.6l-.468-.884-.028.016Zm-3.7,5.6.866-.5,0-.007Zm11.2,7.4-.486-.874-.021.012Zm2.9-4.7a1,1,0,0,0-2,0Zm-8.265-.663a1,1,0,1,0,1.93.526Zm3.077-.179a1,1,0,1,0,.575-1.916ZM9.04,11h.01V9H9.04Zm4-5h.01V4h-.01Zm4,0h.01V4h-.01ZM5.54,13.1h.01v-2H5.54ZM20.04,4c0,4.358-.969,7.15-2.082,8.82C16.821,14.525,15.594,15,15.04,15v2c1.446,0,3.219-1.025,4.582-3.07C21.008,11.85,22.04,8.642,22.04,4Zm-5,11c-.554,0-1.781-.475-2.918-2.18C11.008,11.15,10.04,8.358,10.04,4h-2c0,4.642,1.031,7.85,2.418,9.93C11.821,15.975,13.594,17,15.04,17Zm-5-11a1.314,1.314,0,0,1,.207-.758,1.844,1.844,0,0,1,.74-.6A9.539,9.539,0,0,1,15.04,2V0a11.376,11.376,0,0,0-4.947.856,3.824,3.824,0,0,0-1.51,1.277A3.309,3.309,0,0,0,8.04,4Zm5-2a9.539,9.539,0,0,1,4.053.644,1.844,1.844,0,0,1,.74.6A1.314,1.314,0,0,1,20.04,4h2A3.309,3.309,0,0,0,21.5,2.133,3.825,3.825,0,0,0,19.987.856,11.376,11.376,0,0,0,15.04,0Zm.693,6.193a.935.935,0,0,1-1.386,0L12.933,9.607a2.933,2.933,0,0,0,4.214,0ZM9.049,5.1A12.442,12.442,0,0,0,4.572,6.716l.936,1.768A10.618,10.618,0,0,1,9.23,7.1ZM4.544,6.732A11.2,11.2,0,0,0,.665,9.966a3.822,3.822,0,0,0-.66,1.864,3.279,3.279,0,0,0,.472,1.877L2.2,12.693a1.284,1.284,0,0,1-.2-.745,1.843,1.843,0,0,1,.337-.889,9.361,9.361,0,0,1,3.2-2.591ZM.474,13.7C2.8,17.724,5.3,19.988,7.547,21.1c2.2,1.088,4.257,1.1,5.5.365l-1.014-1.724c-.458.269-1.753.477-3.6-.435-1.8-.891-4.049-2.828-6.227-6.6Zm12.552,7.775c1.342-.745,2.414-2.779,2.414-5.574h-2c0,2.405-.927,3.571-1.386,3.826ZM9.1,15.763a.941.941,0,0,1,1.148-.705l.575-1.916a2.939,2.939,0,0,0-3.652,2.095Z" transform="translate(0)" fill="#09090b"/>
</svg>
