<svg id="drill" xmlns="http://www.w3.org/2000/svg" width="22" height="22" viewBox="0 0 22 22">
  <path id="Vector" d="M1,7H1ZM3,1V1ZM17,4a1,1,0,0,0,0,2Zm4,2a1,1,0,0,0,0-2ZM13,2a1,1,0,0,0,0,2Zm0,4a1,1,0,0,0,0,2ZM4.97,9.243a1,1,0,0,0-1.94-.485ZM12,9a1,1,0,0,0-2,0ZM7,12a1,1,0,0,0,0,2ZM5.03,16.757a1,1,0,0,0,1.94.485ZM8.97,9.243a1,1,0,0,0-1.94-.485ZM12,8a.169.169,0,0,1-.005.05A.071.071,0,0,1,12,8.038.129.129,0,0,1,12.038,8l.012-.006A.169.169,0,0,1,12,8v2a1.942,1.942,0,0,0,2-2Zm0,0H3v2h9ZM3,8a1,1,0,0,1-.707-.293L.879,9.121A3,3,0,0,0,3,10Zm-.707-.293A1,1,0,0,1,2,7H0A3,3,0,0,0,.879,9.121ZM2,7V3H0V7ZM2,3a1,1,0,0,1,.293-.707L.879.879A3,3,0,0,0,0,3Zm.293-.707A1,1,0,0,1,3,2V0A3,3,0,0,0,.879.879ZM3,2h9V0H3Zm9,0a.169.169,0,0,1,.05.005L12.038,2A.13.13,0,0,1,12,1.962a.071.071,0,0,1-.006-.012A.169.169,0,0,1,12,2h2A2,2,0,0,0,13.432.568,2,2,0,0,0,12,0Zm0,0V8h2V2Zm5,4h4V4H17ZM13,4h3V2H13Zm3,0h0l1.414-1.414A2,2,0,0,0,16,2Zm0,0h2a2,2,0,0,0-.586-1.414Zm0,0V6h2V4Zm0,2h0l1.414,1.414A2,2,0,0,0,18,6Zm0,0h0V8a2,2,0,0,0,1.414-.586Zm0,0H13V8h3ZM3.03,8.757l-2,8,1.94.485,2-8ZM10,9v3h2V9Zm0,3a.169.169,0,0,1-.005.05A.07.07,0,0,1,10,12.038.129.129,0,0,1,10.038,12l.012-.006A.169.169,0,0,1,10,12v2a1.942,1.942,0,0,0,2-2Zm0,0H7v2h3ZM6.97,17.243l2-8L7.03,8.757l-2,8ZM4,20a1.947,1.947,0,0,1-2-2H0a3.946,3.946,0,0,0,4,4ZM2,18a.169.169,0,0,1,.005-.05A.07.07,0,0,1,2,17.962.13.13,0,0,1,1.962,18l-.012.006A.169.169,0,0,1,2,18V16a2,2,0,0,0-1.432.568A2,2,0,0,0,0,18Zm0,0H9V16H2Zm7,0a.169.169,0,0,1,.05.005L9.038,18A.129.129,0,0,1,9,17.962a.07.07,0,0,1-.006-.012A.169.169,0,0,1,9,18h2a1.942,1.942,0,0,0-2-2Zm0,0v2h2V18Zm0,2a.169.169,0,0,1-.005.05A.07.07,0,0,1,9,20.038.129.129,0,0,1,9.038,20l.012-.006A.169.169,0,0,1,9,20v2a1.942,1.942,0,0,0,2-2Zm0,0H4v2H9Z" transform="translate(0 0)" fill="#09090b"/>
</svg>
