<svg id="dumbbell" xmlns="http://www.w3.org/2000/svg" width="22.142" height="22.142" viewBox="0 0 22.142 22.142">
  <path id="Vector" d="M12.764,14.178a1,1,0,0,0,1.414-1.414ZM9.378,7.964A1,1,0,1,0,7.964,9.378Zm8.35,12.592-.707-.707h0ZM14.9,17.728l.707.707a1,1,0,0,0-1.414-1.414ZM13.132,19.5l.707.707h0Zm-1.415.586v0ZM18.082,9.717v0Zm2,2h0ZM19.5,13.132l.707.707h0ZM17.728,14.9l-.707-.707a1,1,0,0,0,1.414,1.415Zm2.828,2.829-.707-.707h0Zm-.692,3.55a1,1,0,1,0,1.414-1.414Zm.014-2.814a1,1,0,0,0-1.414,1.414ZM2.264,3.678A1,1,0,1,0,3.678,2.264ZM2.278.864A1,1,0,1,0,.864,2.278ZM4.061,12.425v0Zm-2-2h0ZM2.646,9.01,1.939,8.3h0ZM4.414,7.243l.707.707A1,1,0,0,0,3.707,6.536ZM3,7.829v0ZM1.586,7.243.878,7.95h0ZM1,5.828H1Zm.586-1.414.707.707h0ZM4.414,1.586l.707.707h0ZM5.828,1V1ZM7.243,4.414l-.707-.707A1,1,0,0,0,7.95,5.121ZM9.01,2.646,8.3,1.939h0Zm3.415,1.415h0Zm1.753,8.7-4.8-4.8L7.964,9.378l4.8,4.8Zm2.842,7.085a1,1,0,0,1-.707.293v2a3,3,0,0,0,2.121-.879Zm-.707.293a1,1,0,0,1-.707-.293l-1.414,1.414a3,3,0,0,0,2.122.878Zm-.707-.293a1,1,0,0,1-.293-.707h-2a3,3,0,0,0,.879,2.121Zm-.293-.707a1,1,0,0,1,.293-.707l-1.414-1.414a3,3,0,0,0-.878,2.122Zm-1.122-2.121-1.767,1.768L13.84,20.2l1.767-1.768Zm-1.767,1.768a1,1,0,0,1-.707.293v2a3,3,0,0,0,2.122-.879Zm-.707.293a1,1,0,0,1-.707-.293L9.6,20.2a3,3,0,0,0,2.122.879Zm-.707-.293a1,1,0,0,1-.293-.707h-2A3,3,0,0,0,9.6,20.2Zm-.293-.707a1,1,0,0,1,.293-.707L9.6,15.96a3,3,0,0,0-.879,2.122Zm.293-.707,6.364-6.364L15.96,9.6,9.6,15.96Zm6.364-6.364a1,1,0,0,1,.707-.293v-2A3,3,0,0,0,15.96,9.6Zm.707-.293a1,1,0,0,1,.707.293L20.2,9.6a3,3,0,0,0-2.122-.879Zm.707.293a1,1,0,0,1,.293.707h2A3,3,0,0,0,20.2,9.6Zm.293.707a1,1,0,0,1-.293.707L20.2,13.839a3,3,0,0,0,.879-2.122Zm-.293.707-1.768,1.767,1.414,1.415L20.2,13.839Zm-.354,3.182a1,1,0,0,1,.707-.293v-2a3,3,0,0,0-2.122.878Zm.707-.293a1,1,0,0,1,.707.293l1.414-1.414a3,3,0,0,0-2.121-.879Zm.707.293a1,1,0,0,1,.293.707h2a3,3,0,0,0-.878-2.122Zm.293.707a1,1,0,0,1-.293.707l1.414,1.414a3,3,0,0,0,.879-2.121Zm-.293.707-2.828,2.828,1.414,1.414,2.828-2.828Zm1.429,2.843-1.4-1.4-1.414,1.414,1.4,1.4Zm-17.6-17.6-1.4-1.4L.864,2.278l1.4,1.4Zm1.09,8.868a1,1,0,0,1-.707.293v2a3,3,0,0,0,2.122-.879Zm-.707.293a1,1,0,0,1-.707-.293L1.939,12.546a3,3,0,0,0,2.122.879Zm-.707-.293a1,1,0,0,1-.293-.707h-2a3,3,0,0,0,.879,2.122Zm-.293-.707a1,1,0,0,1,.293-.707L1.939,8.3a3,3,0,0,0-.879,2.122Zm.293-.707L5.121,7.95,3.707,6.536,1.939,8.3Zm.354-3.182a1,1,0,0,1-.324.217L4.148,8.6a3,3,0,0,0,.973-.65Zm-.324.217A1,1,0,0,1,3,6.829v2A3,3,0,0,0,4.148,8.6ZM3,6.829a1,1,0,0,1-.707-.293L.878,7.95A3,3,0,0,0,3,8.829Zm-.707-.293a1,1,0,0,1-.217-.324L.228,6.976a3,3,0,0,0,.65.973Zm-.217-.324A1,1,0,0,1,2,5.828H0A3,3,0,0,0,.228,6.976ZM2,5.828a1,1,0,0,1,.293-.707L.879,3.707A3,3,0,0,0,0,5.828Zm.293-.707L5.121,2.293,3.707.879.879,3.707ZM5.121,2.293A1,1,0,0,1,5.828,2V0A3,3,0,0,0,3.707.879ZM5.828,2a1,1,0,0,1,.383.076L6.976.228A3,3,0,0,0,5.828,0Zm.383.076a1,1,0,0,1,.324.217L7.95.878a3,3,0,0,0-.973-.65Zm.324.217a1,1,0,0,1,.217.324L8.6,1.851A3,3,0,0,0,7.95.878Zm.217.324A1,1,0,0,1,6.829,3h2A3,3,0,0,0,8.6,1.851ZM6.829,3a1,1,0,0,1-.076.383L8.6,4.148A3,3,0,0,0,8.829,3Zm-.076.383a1,1,0,0,1-.217.324L7.95,5.121a3,3,0,0,0,.65-.973Zm1.2,1.738L9.717,3.353,8.3,1.939,6.536,3.707ZM9.717,3.353a1,1,0,0,1,.707-.293v-2A3,3,0,0,0,8.3,1.939Zm.707-.293a1,1,0,0,1,.707.293l1.414-1.414a3,3,0,0,0-2.122-.879Zm.707.293a1,1,0,0,1,.293.707h2a3,3,0,0,0-.879-2.122Zm.293.707a1,1,0,0,1-.293.707l1.414,1.414a3,3,0,0,0,.879-2.122Zm-.293.707L4.768,11.132l1.414,1.414,6.364-6.364Z" transform="translate(0 0)" fill="#09090b"/>
</svg>
