<svg id="ear-off" xmlns="http://www.w3.org/2000/svg" width="22" height="22.006" viewBox="0 0 22 22.006">
  <path id="Vector" d="M6,17.506a1,1,0,0,0-2,0Zm6,0h0Zm2.683-2.694A1,1,0,0,0,13.4,13.28ZM4,7.506a1,1,0,0,0,2,0ZM6.306,5.691a1,1,0,1,0-1.892-.649Zm.925-4.357A1,1,0,0,0,8.369,2.978ZM18,7.506h0Zm-1.915,3.2a1,1,0,1,0,1.651,1.129ZM11.5,4.006a1,1,0,0,0,0,2Zm1.5,3.5a1,1,0,0,0,2,0Zm-4,3.5a1,1,0,0,0,0,2Zm2.734.23a1,1,0,1,0-1.824-.82ZM1.707.3A1,1,0,1,0,.293,1.713ZM20.293,21.713A1,1,0,0,0,21.707,20.3ZM4,17.506a4.5,4.5,0,0,0,.343,1.722l1.848-.765A2.5,2.5,0,0,1,6,17.506Zm.343,1.722a4.5,4.5,0,0,0,.975,1.46l1.414-1.414a2.5,2.5,0,0,1-.542-.811Zm.975,1.46a4.5,4.5,0,0,0,1.46.976l.765-1.848a2.5,2.5,0,0,1-.811-.542Zm1.46.976a4.5,4.5,0,0,0,1.722.343v-2a2.5,2.5,0,0,1-.957-.19Zm1.722.342a4.5,4.5,0,0,0,1.722-.343l-.765-1.848a2.5,2.5,0,0,1-.957.19Zm1.722-.342a4.5,4.5,0,0,0,1.46-.976l-1.414-1.414a2.5,2.5,0,0,1-.811.542Zm1.46-.976a4.5,4.5,0,0,0,.976-1.46l-1.848-.765a2.5,2.5,0,0,1-.542.811Zm.976-1.46A4.5,4.5,0,0,0,13,17.506H11a2.5,2.5,0,0,1-.19.957ZM13,17.506c0-1.085.587-1.774,1.683-2.694L13.4,13.28A5.4,5.4,0,0,0,11,17.506Zm-7-10a5.582,5.582,0,0,1,.306-1.815L4.414,5.041A7.582,7.582,0,0,0,4,7.506ZM8.369,2.978a5.5,5.5,0,0,1,2.794-.968l-.122-2a7.5,7.5,0,0,0-3.81,1.32Zm2.794-.968a5.5,5.5,0,0,1,2.891.619L14.984.858A7.5,7.5,0,0,0,11.041.014Zm2.891.619a5.5,5.5,0,0,1,2.153,2.027l1.712-1.034A7.5,7.5,0,0,0,14.984.858Zm2.153,2.027A5.5,5.5,0,0,1,17,7.5l2,0a7.5,7.5,0,0,0-1.08-3.885ZM17,7.506a5.387,5.387,0,0,1-.915,3.2l1.651,1.129A7.379,7.379,0,0,0,19,7.506Zm-5.5-1.5a1.5,1.5,0,0,1,1.061.439l1.414-1.414A3.5,3.5,0,0,0,11.5,4.006Zm1.061.439A1.5,1.5,0,0,1,13,7.506h2a3.5,3.5,0,0,0-1.025-2.475ZM9,13.006a3,3,0,0,0,1.626-.483L9.54,10.845A1,1,0,0,1,9,11.006Zm1.626-.483a3,3,0,0,0,1.1-1.287l-1.824-.82a1,1,0,0,1-.368.429ZM.293,1.713l20,20L21.707,20.3l-20-20Z" transform="translate(0 0)" fill="#09090b"/>
</svg>
