<svg id="earth" xmlns="http://www.w3.org/2000/svg" width="22" height="22" viewBox="0 0 22 22">
  <path id="Vector" d="M20.54,15a1,1,0,1,0,0-2ZM13,20.54a1,1,0,1,0,2,0ZM7,2.34a1,1,0,0,0-2,0ZM20.17,8a1,1,0,0,0,0-2ZM9,20.95a1,1,0,1,0,2,0ZM8,15v0ZM6,13H6Zm0-1H6ZM1.05,9a1,1,0,1,0,0,2Zm19.49,4H16v2h4.54ZM16,13a3,3,0,0,0-2.121.879l1.414,1.414A1,1,0,0,1,16,15Zm-2.121.879A3,3,0,0,0,13,16h2a1,1,0,0,1,.293-.707ZM13,16v4.54h2V16ZM5,2.34V4H7V2.34ZM5,4A4,4,0,0,0,6.172,6.829L7.586,5.414A2,2,0,0,1,7,4ZM6.172,6.829A4,4,0,0,0,9,8V6a2,2,0,0,1-1.414-.586ZM9,8a1,1,0,0,1,.707.293l1.414-1.414A3,3,0,0,0,9,6Zm.707.293A1,1,0,0,1,10,9h2a3,3,0,0,0-.879-2.121ZM10,9a3.006,3.006,0,0,0,3,3V10a1.006,1.006,0,0,1-1-1Zm3,3a3,3,0,0,0,2.121-.879L13.707,9.707A1,1,0,0,1,13,10Zm2.121-.879A3,3,0,0,0,16,9H14a1,1,0,0,1-.293.707ZM16,9a1.006,1.006,0,0,1,1-1V6a3.006,3.006,0,0,0-3,3Zm1-1h3.17V6H17ZM11,20.95V17H9v3.95ZM11,17a3,3,0,0,0-.879-2.121L8.707,16.293A1,1,0,0,1,9,17Zm-.879-2.121A3,3,0,0,0,8,14v2a1,1,0,0,1,.707.293ZM8,14a1,1,0,0,1-.707-.293L5.878,15.121A3,3,0,0,0,8,16Zm-.707-.293A1,1,0,0,1,7,13H5a3,3,0,0,0,.879,2.121ZM7,13V12H5v1Zm0-1a3,3,0,0,0-.879-2.121L4.707,11.293A1,1,0,0,1,5,12ZM6.121,9.879A3,3,0,0,0,4,9v2a1,1,0,0,1,.707.293ZM4,9H1.05v2H4Zm16,2a9,9,0,0,1-9,9v2A11,11,0,0,0,22,11Zm-9,9a9,9,0,0,1-9-9H0A11,11,0,0,0,11,22ZM2,11a9,9,0,0,1,9-9V0A11,11,0,0,0,0,11Zm9-9a9,9,0,0,1,9,9h2A11,11,0,0,0,11,0Z" fill="#09090b"/>
</svg>
