<svg id="earth-lock" xmlns="http://www.w3.org/2000/svg" width="22" height="22" viewBox="0 0 22 22">
  <path id="Vector" d="M7,2.34a1,1,0,0,0-2,0ZM9,8A1,1,0,0,0,9,6ZM9,20.95a1,1,0,0,0,2,0ZM8,15v0ZM6,13H6Zm0-1H6ZM1.049,9a1,1,0,1,0,0,2Zm19.49,5,.954.3a1,1,0,0,0-.954-1.3ZM13,20.54a1,1,0,0,0,2,0ZM11,2a1,1,0,1,0,0-2Zm7,3a1,1,0,0,0,2,0ZM17,1V1ZM15,3h0ZM14,5a1,1,0,0,0,2,0ZM5,2.34V4H7V2.34ZM5,4A4,4,0,0,0,6.171,6.829L7.585,5.414A2,2,0,0,1,7,4ZM6.171,6.829A4,4,0,0,0,9,8V6a2,2,0,0,1-1.414-.586ZM11,20.95V17H9v3.95ZM11,17a3,3,0,0,0-.879-2.121L8.706,16.293A1,1,0,0,1,9,17Zm-.879-2.121A3,3,0,0,0,8,14v2a1,1,0,0,1,.707.293ZM8,14a1,1,0,0,1-.707-.293L5.878,15.121A3,3,0,0,0,8,16Zm-.707-.293A1,1,0,0,1,7,13H5a3,3,0,0,0,.879,2.121ZM7,13V12H5v1Zm0-1a3,3,0,0,0-.879-2.121L4.706,11.293A1,1,0,0,1,5,12ZM6.121,9.879A3,3,0,0,0,4,9v2a1,1,0,0,1,.707.293ZM4,9H1.049v2H4Zm16.54,4H16v2h4.54ZM16,13a3,3,0,0,0-2.121.879l1.414,1.414A1,1,0,0,1,16,15Zm-2.121.879A3,3,0,0,0,13,16h2a1,1,0,0,1,.293-.707ZM13,16v4.54h2V16ZM11,0A11,11,0,0,0,5.241,1.628l1.047,1.7A9,9,0,0,1,11,2ZM5.241,1.628a11,11,0,0,0-4.054,4.4l1.784.9a9,9,0,0,1,3.317-3.6ZM1.187,6.03A11,11,0,0,0,.037,11.9l1.993-.164a9,9,0,0,1,.941-4.8ZM.037,11.9a11,11,0,0,0,2.095,5.606l1.612-1.183A9,9,0,0,1,2.03,11.738Zm2.095,5.606a11,11,0,0,0,4.719,3.68l.754-1.852a9,9,0,0,1-3.861-3.01Zm4.719,3.68a11,11,0,0,0,5.947.665l-.327-1.973a9,9,0,0,1-4.866-.544Zm5.947.665A11,11,0,0,0,18.213,19.3L16.9,17.8a9,9,0,0,1-4.431,2.084ZM18.213,19.3a11,11,0,0,0,3.281-5l-1.908-.6A9,9,0,0,1,16.9,17.795ZM20,5V3H18V5Zm0-2A3,3,0,0,0,19.121.879L17.707,2.293A1,1,0,0,1,18,3ZM19.121.879A3,3,0,0,0,17,0V2a1,1,0,0,1,.707.293ZM17,0a3,3,0,0,0-2.121.879l1.414,1.414A1,1,0,0,1,17,2ZM14.878.879A3,3,0,0,0,14,3h2a1,1,0,0,1,.293-.707ZM14,3V5h2V3Zm0,3h6V4H14Zm6,0h2a2,2,0,0,0-2-2Zm0,0V9h2V6Zm0,3v2a2,2,0,0,0,2-2Zm0,0H14v2h6ZM14,9H12a2,2,0,0,0,2,2Zm0,0V6H12V9Zm0-3V4a2,2,0,0,0-2,2Z" transform="translate(0 0)" fill="#09090b"/>
</svg>
