<svg id="egg-off" xmlns="http://www.w3.org/2000/svg" width="22" height="22" viewBox="0 0 22 22">
  <path id="Vector" d="M6.26,5.907A1,1,0,1,0,4.538,4.891ZM3.5,11l1,.083h0ZM11,21l-.008,1h.016Zm7.256-3.152a1,1,0,1,0-1.762-.946Zm-.723-5.023a1,1,0,0,0,2,.1ZM18.5,11l-1,.083h0ZM11,1l.011-1h-.023Zm-3.682.526A1,1,0,0,0,8.59,3.068ZM1.707.293A1,1,0,0,0,.293,1.707ZM20.293,21.707a1,1,0,0,0,1.414-1.414ZM4.538,4.891A14.745,14.745,0,0,0,2.5,10.917l1.993.165A12.761,12.761,0,0,1,6.26,5.907ZM2.5,10.917a12.494,12.494,0,0,0,1.41,7.233A7.805,7.805,0,0,0,10.992,22l.016-2a5.815,5.815,0,0,1-5.371-2.865A10.517,10.517,0,0,1,4.5,11.083ZM11.008,22a7.8,7.8,0,0,0,7.248-4.152L16.494,16.9a5.808,5.808,0,0,1-5.5,3.1Zm8.523-9.075a15.074,15.074,0,0,0-.034-2.008l-1.993.167a13.064,13.064,0,0,1,.03,1.742ZM19.5,10.917a15.126,15.126,0,0,0-2.735-7.109C15.325,1.785,13.283.026,11.011,0l-.023,2c1.278.014,2.806,1.085,4.142,2.966A13.142,13.142,0,0,1,17.5,11.083ZM10.989,0A5.983,5.983,0,0,0,7.318,1.526L8.59,3.068A4.02,4.02,0,0,1,11.012,2ZM.293,1.707l20,20,1.414-1.414-20-20Z" transform="translate(0)" fill="#09090b"/>
</svg>
