<svg id="eraser" xmlns="http://www.w3.org/2000/svg" width="22.1" height="20.05" viewBox="0 0 22.1 20.05">
  <path id="Vector" d="M6.05,19.05l-.707.707a1,1,0,0,0,.707.293Zm-4.3-4.3-.707.707h0Zm0-3.4.669.743.038-.036Zm13-9.6-.743.669.036.038Zm5.6,5.6-.707.707h0Zm0,3.4-.669-.743-.038.036Zm-9.007,7.593a1,1,0,0,0,1.414,1.414ZM21.05,20.05a1,1,0,1,0,0-2ZM4.757,8.343A1,1,0,1,0,3.343,9.757Zm7.586,10.414a1,1,0,1,0,1.414-1.414Zm-5.586-.414-4.3-4.3L1.043,15.457l4.3,4.3Zm-4.3-4.3a1.3,1.3,0,0,1-.038-1.95L1.081,10.607a3.3,3.3,0,0,0-.038,4.85Zm0-1.986,9.6-9.6L10.643,1.043l-9.6,9.6Zm9.6-9.6a1.3,1.3,0,0,1,1.95-.038l1.487-1.338a3.3,3.3,0,0,0-4.85-.038Zm1.986,0,5.6,5.6,1.414-1.414-5.6-5.6Zm5.6,5.6a1.3,1.3,0,0,1,.038,1.95l1.338,1.487a3.3,3.3,0,0,0,.038-4.85Zm0,1.986-8.3,8.3,1.414,1.414,8.3-8.3ZM21.05,18.05h-15v2h15ZM3.343,9.757l9,9,1.414-1.414-9-9Z" transform="translate(0 0)" fill="#09090b"/>
</svg>
