<svg id="euro" xmlns="http://www.w3.org/2000/svg" width="17" height="18" viewBox="0 0 17 18">
  <path id="Vector" d="M1,6A1,1,0,1,0,1,8ZM13,8a1,1,0,0,0,0-2ZM1,10a1,1,0,0,0,0,2Zm9,2a1,1,0,0,0,0-2Zm5.328-8.26A1,1,0,0,0,16.673,2.26ZM10.8,1l0-1h-.01ZM3,9H4V8.987Zm13.651,6.759a1,1,0,1,0-1.3-1.519ZM1,8H13V6H1Zm0,4h9V10H1ZM16.673,2.26A8.7,8.7,0,0,0,10.8,0L10.8,2a6.7,6.7,0,0,1,4.525,1.74ZM10.788,0a8.9,8.9,0,0,0-3.4.72l.789,1.838A6.9,6.9,0,0,1,10.813,2Zm-3.4.72A8.9,8.9,0,0,0,4.527,2.686l1.432,1.4a6.9,6.9,0,0,1,2.22-1.524ZM4.527,2.686A8.9,8.9,0,0,0,2.634,5.6l1.857.742A6.9,6.9,0,0,1,5.959,4.083ZM2.634,5.6A8.9,8.9,0,0,0,2,9.013l2-.025A6.9,6.9,0,0,1,4.492,6.34ZM2,9a8.918,8.918,0,0,0,8.8,9V16A6.919,6.919,0,0,1,4,9Zm8.8,9a8.995,8.995,0,0,0,5.851-2.241l-1.3-1.519A7,7,0,0,1,10.8,16Z" fill="#09090b"/>
</svg>
