<svg id="expand" xmlns="http://www.w3.org/2000/svg" width="20" height="20" viewBox="0 0 20 20">
  <path id="Vector" d="M19,19v1a1,1,0,0,0,1-1Zm-5.293-6.707a1,1,0,0,0-1.414,1.414ZM20,14.2a1,1,0,1,0-2,0ZM14.2,18a1,1,0,1,0,0,2ZM2,14.2a1,1,0,0,0-2,0ZM1,19H0a1,1,0,0,0,1,1Zm4.8,1a1,1,0,0,0,0-2Zm1.907-6.293a1,1,0,1,0-1.414-1.414ZM18,5.8a1,1,0,0,0,2,0ZM19,1h1a1,1,0,0,0-1-1ZM14.2,0a1,1,0,0,0,0,2ZM12.293,6.293a1,1,0,0,0,1.414,1.414ZM0,5.8a1,1,0,0,0,2,0ZM1,1V0A1,1,0,0,0,0,1ZM5.8,2a1,1,0,0,0,0-2Zm.493,5.707A1,1,0,0,0,7.707,6.293ZM19.707,18.293l-6-6-1.414,1.414,6,6ZM20,19V14.2H18V19Zm-1-1H14.2v2H19ZM0,14.2V19H2V14.2ZM1,20H5.8V18H1Zm.707-.293,6-6L6.293,12.293l-6,6ZM20,5.8V1H18V5.8ZM19,0H14.2V2H19Zm-.707.293-6,6,1.414,1.414,6-6ZM2,5.8V1H0V5.8ZM1,2H5.8V0H1ZM.293,1.707l6,6L7.707,6.293l-6-6Z" fill="#09090b"/>
</svg>
