<svg id="facebook" xmlns="http://www.w3.org/2000/svg" width="13" height="22" viewBox="0 0 13 22">
  <path id="Vector" d="M12,1h1a1,1,0,0,0-1-1ZM9,1V1ZM4,6H4ZM4,9v1A1,1,0,0,0,5,9ZM1,9V8A1,1,0,0,0,0,9Zm0,4H0a1,1,0,0,0,1,1Zm3,0H5a1,1,0,0,0-1-1Zm0,8H3a1,1,0,0,0,1,1Zm4,0v1a1,1,0,0,0,1-1Zm0-8V12a1,1,0,0,0-1,1Zm3,0v1a1,1,0,0,0,.97-.757Zm1-4,.97.243A1,1,0,0,0,12,8ZM8,9H7a1,1,0,0,0,1,1ZM9,5V5Zm3,0V6a1,1,0,0,0,1-1Zm0-5H9V2h3ZM9,0A6,6,0,0,0,4.757,1.757L6.172,3.172A4,4,0,0,1,9,2ZM4.757,1.757A6,6,0,0,0,3,6H5A4,4,0,0,1,6.172,3.172ZM3,6V9H5V6ZM4,8H1v2H4ZM0,9v4H2V9Zm1,5H4V12H1Zm2-1v8H5V13Zm1,9H8V20H4Zm5-1V13H7v8ZM8,14h3V12H8Zm3.97-.757,1-4-1.94-.485-1,4ZM12,8H8v2h4ZM9,9V6H7V9ZM9,6H9L7.586,4.586A2,2,0,0,0,7,6ZM9,6H9V4a2,2,0,0,0-1.414.586ZM9,6h3V4H9Zm4-1V1H11V5Z" fill="#09090b"/>
</svg>
