<svg id="factory" xmlns="http://www.w3.org/2000/svg" width="22" height="22" viewBox="0 0 22 22">
  <path id="Vector" d="M1,19H1ZM21,7h1a1,1,0,0,0-1.581-.814Zm-7,5H13a1,1,0,0,0,1.581.814Zm0-5h1a1,1,0,0,0-1.581-.814ZM7,12H6a1,1,0,0,0,1.581.814ZM7,3H7ZM5,1V1ZM3,1V1ZM1,3H1ZM16,16a1,1,0,0,0,0,2Zm1,2a1,1,0,0,0,0-2Zm-6-2a1,1,0,0,0,0,2Zm1,2a1,1,0,0,0,0-2ZM6,16a1,1,0,0,0,0,2Zm1,2a1,1,0,0,0,0-2ZM0,19a3,3,0,0,0,.879,2.121l1.414-1.414A1,1,0,0,1,2,19Zm.879,2.121A3,3,0,0,0,3,22V20a1,1,0,0,1-.707-.293ZM3,22H19V20H3Zm16,0a3,3,0,0,0,2.121-.879l-1.414-1.414A1,1,0,0,1,19,20Zm2.121-.879A3,3,0,0,0,22,19H20a1,1,0,0,1-.293.707ZM22,19V7H20V19ZM20.419,6.186l-7,5,1.162,1.627,7-5ZM15,12V7H13v5ZM13.419,6.186l-7,5,1.162,1.627,7-5ZM8,12V3H6v9ZM8,3A3,3,0,0,0,7.121.879L5.707,2.293A1,1,0,0,1,6,3ZM7.121.879A3,3,0,0,0,5,0V2a1,1,0,0,1,.707.293ZM5,0H3V2H5ZM3,0A3,3,0,0,0,.879.879L2.293,2.293A1,1,0,0,1,3,2ZM.879.879A3,3,0,0,0,0,3H2a1,1,0,0,1,.293-.707ZM0,3V19H2V3ZM16,18h1V16H16Zm-5,0h1V16H11ZM6,18H7V16H6Z" fill="#09090b"/>
</svg>
