<svg id="fan" xmlns="http://www.w3.org/2000/svg" width="21.996" height="21.996" viewBox="0 0 21.996 21.996">
  <path id="Vector" d="M9.825,15.377l.966.259a1,1,0,0,0-1.417-1.151Zm-8.618-7,.259-.966a1,1,0,0,0-1.225.707Zm5.412,1.45-.259.966A1,1,0,0,0,7.512,9.374Zm7-8.618.966.259A1,1,0,0,0,13.88.241Zm-1.45,5.412-.966-.259a1,1,0,0,0,1.417,1.151Zm8.618,7-.259.966a1,1,0,0,0,1.225-.707Zm-5.412-1.45.259-.966a1,1,0,0,0-1.151,1.417Zm-7,8.618-.966-.259a1,1,0,0,0,.707,1.225ZM12,11a1,1,0,1,0-2,0Zm-2,.01a1,1,0,1,0,2,0Zm-.624,3.477A5.081,5.081,0,0,1,6.538,15L6.324,16.99a7.082,7.082,0,0,0,3.952-.721ZM6.538,15a5.082,5.082,0,0,1-2.661-1.109L2.616,15.445A7.082,7.082,0,0,0,6.324,16.99ZM3.877,13.893a5.082,5.082,0,0,1-1.63-2.378l-1.9.617a7.082,7.082,0,0,0,2.271,3.313Zm-1.63-2.378a5.082,5.082,0,0,1-.074-2.882L.241,8.116a7.082,7.082,0,0,0,.1,4.016ZM.948,9.341l5.412,1.45.518-1.932L1.466,7.409Zm6.563.033a5.082,5.082,0,0,1-.517-2.836L5.006,6.324a7.082,7.082,0,0,0,.721,3.952ZM6.995,6.538A5.082,5.082,0,0,1,8.1,3.877L6.551,2.616A7.082,7.082,0,0,0,5.006,6.324ZM8.1,3.877a5.082,5.082,0,0,1,2.378-1.63L9.864.345A7.082,7.082,0,0,0,6.551,2.616Zm2.378-1.63a5.082,5.082,0,0,1,2.882-.074L13.88.241a7.082,7.082,0,0,0-4.016.1Zm2.174-1.3L11.205,6.36l1.932.518,1.45-5.412Zm-.033,6.563a5.082,5.082,0,0,1,2.836-.517l.214-1.989a7.082,7.082,0,0,0-3.952.721Zm2.836-.517A5.082,5.082,0,0,1,18.119,8.1L19.38,6.551a7.082,7.082,0,0,0-3.708-1.545ZM18.119,8.1a5.083,5.083,0,0,1,1.63,2.378l1.9-.617A7.083,7.083,0,0,0,19.38,6.551Zm1.63,2.378a5.083,5.083,0,0,1,.074,2.882l1.932.517a7.083,7.083,0,0,0-.1-4.016Zm1.3,2.174-5.412-1.45-.518,1.932,5.412,1.45Zm-6.563-.033A5.081,5.081,0,0,1,15,15.458l1.988.214a7.082,7.082,0,0,0-.721-3.952ZM15,15.458a5.082,5.082,0,0,1-1.109,2.661l1.552,1.261a7.082,7.082,0,0,0,1.545-3.708Zm-1.109,2.661a5.082,5.082,0,0,1-2.378,1.63l.617,1.9a7.083,7.083,0,0,0,3.313-2.271Zm-2.378,1.63a5.082,5.082,0,0,1-2.882.074l-.518,1.932a7.083,7.083,0,0,0,4.016-.1Zm-2.174,1.3,1.45-5.412-1.932-.518L7.409,20.53ZM10,11v.01h2V11Z" transform="translate(0 0)" fill="#09090b"/>
</svg>
