<svg id="fast-forward" xmlns="http://www.w3.org/2000/svg" width="22" height="16" viewBox="0 0 22 16">
  <path id="Vector" d="M12,15H11a1,1,0,0,0,1.614.789Zm9-7,.614.789a1,1,0,0,0,0-1.579ZM12,1l.614-.789A1,1,0,0,0,11,1ZM1,15H0a1,1,0,0,0,1.614.789Zm9-7,.614.789a1,1,0,0,0,0-1.579ZM1,1,1.614.211A1,1,0,0,0,0,1ZM12.614,15.789l9-7L20.386,7.211l-9,7Zm9-8.579-9-7L11.386,1.789l9,7ZM11,1V15h2V1ZM1.614,15.789l9-7L9.386,7.211l-9,7Zm9-8.579-9-7L.386,1.789l9,7ZM0,1V15H2V1Z" transform="translate(0 0)" fill="#09090b"/>
</svg>
