<svg id="feather" xmlns="http://www.w3.org/2000/svg" width="21.998" height="22.008" viewBox="0 0 21.998 22.008">
  <path id="Vector" d="M11.67,18.008v1h0Zm1.416-.588-.708-.706h0Zm6.154-6.172-.707-.707h0ZM21,7h0ZM10.75,2.758l.707.707h0ZM4.586,8.922l.707.707h0ZM4,10.336H4ZM15.707,7.715A1,1,0,1,0,14.293,6.3ZM.293,20.3a1,1,0,0,0,1.414,1.414ZM16.5,15.008a1,1,0,0,0,0-2Zm-8.5-2a1,1,0,0,0,0,2Zm3.67,6a3,3,0,0,0,1.15-.229l-.767-1.847a1,1,0,0,1-.383.076Zm1.15-.229a3,3,0,0,0,.974-.653l-1.416-1.412a1,1,0,0,1-.325.218Zm.974-.653,6.154-6.172-1.416-1.412-6.154,6.172Zm6.153-6.171A7,7,0,0,0,22,7H20a5,5,0,0,1-1.465,3.538ZM22,7a7,7,0,0,0-2.051-4.952L18.533,3.465A5,5,0,0,1,20,7ZM19.947,2.051A7,7,0,0,0,14.995,0V2a5,5,0,0,1,3.538,1.465ZM14.995,0a7,7,0,0,0-4.952,2.051l1.414,1.414A5,5,0,0,1,15,2ZM10.043,2.051,3.879,8.215,5.293,9.629l6.164-6.164ZM3.879,8.215A3,3,0,0,0,3,10.336H5a1,1,0,0,1,.293-.707ZM3,10.336v6.672H5V10.336Zm0,6.672a2,2,0,0,0,.586,1.414L5,17.008H3Zm.586,1.414A2,2,0,0,0,5,19.008v-2H5ZM5,19.008h6.67v-2H5ZM14.293,6.3l-14,14,1.414,1.414,14-14ZM16.5,13.008H8v2h8.5Z" fill="#09090b"/>
</svg>
