<svg id="figma" xmlns="http://www.w3.org/2000/svg" width="16" height="23" viewBox="0 0 16 23">
  <path id="Vector" d="M4.5,8V8Zm7-7V2h0ZM8,11.5H8Zm7,0h0ZM2,4.5a2.5,2.5,0,0,1,.732-1.768L1.318,1.318A4.5,4.5,0,0,0,0,4.5Zm.732-1.768A2.5,2.5,0,0,1,4.5,2V0A4.5,4.5,0,0,0,1.318,1.318ZM4.5,2H8V0H4.5ZM7,1V8H9V1ZM8,7H4.5V9H8ZM4.5,7a2.5,2.5,0,0,1-1.768-.732L1.318,7.682A4.5,4.5,0,0,0,4.5,9ZM2.732,6.268A2.5,2.5,0,0,1,2,4.5H0A4.5,4.5,0,0,0,1.318,7.682ZM8,2h3.5V0H8Zm3.5,0a2.5,2.5,0,0,1,.957.19L13.222.343A4.5,4.5,0,0,0,11.5,0Zm.957.19a2.5,2.5,0,0,1,.811.542l1.414-1.414a4.5,4.5,0,0,0-1.46-.975Zm.811.542a2.5,2.5,0,0,1,.542.811l1.848-.765a4.5,4.5,0,0,0-.976-1.46Zm.542.811A2.5,2.5,0,0,1,14,4.5h2a4.5,4.5,0,0,0-.342-1.722ZM14,4.5a2.5,2.5,0,0,1-.19.957l1.848.765A4.5,4.5,0,0,0,16,4.5Zm-.19.957a2.5,2.5,0,0,1-.542.811l1.414,1.414a4.5,4.5,0,0,0,.976-1.46Zm-.542.811a2.5,2.5,0,0,1-.811.542l.765,1.848a4.5,4.5,0,0,0,1.46-.975Zm-.811.542A2.5,2.5,0,0,1,11.5,7V9a4.5,4.5,0,0,0,1.722-.343ZM11.5,7H8V9h3.5ZM9,11.5a2.5,2.5,0,0,1,.19-.957L7.343,9.778A4.5,4.5,0,0,0,7,11.5Zm.19-.957a2.5,2.5,0,0,1,.542-.811L8.318,8.318a4.5,4.5,0,0,0-.975,1.46Zm.542-.811a2.5,2.5,0,0,1,.811-.542L9.778,7.343a4.5,4.5,0,0,0-1.46.975Zm.811-.542A2.5,2.5,0,0,1,11.5,9V7a4.5,4.5,0,0,0-1.722.343ZM11.5,9a2.5,2.5,0,0,1,.957.19l.765-1.848A4.5,4.5,0,0,0,11.5,7Zm.957.19a2.5,2.5,0,0,1,.811.542l1.414-1.414a4.5,4.5,0,0,0-1.46-.975Zm.811.542a2.5,2.5,0,0,1,.542.811l1.848-.765a4.5,4.5,0,0,0-.976-1.46Zm.542.811A2.5,2.5,0,0,1,14,11.5h2a4.5,4.5,0,0,0-.342-1.722ZM14,11.5a2.5,2.5,0,0,1-.19.957l1.848.765A4.5,4.5,0,0,0,16,11.5Zm-.19.957a2.5,2.5,0,0,1-.542.811l1.414,1.414a4.5,4.5,0,0,0,.976-1.46Zm-.542.811a2.5,2.5,0,0,1-.811.542l.765,1.848a4.5,4.5,0,0,0,1.46-.976Zm-.811.542A2.5,2.5,0,0,1,11.5,14v2a4.5,4.5,0,0,0,1.722-.342ZM11.5,14a2.5,2.5,0,0,1-.957-.19l-.765,1.848A4.5,4.5,0,0,0,11.5,16Zm-.957-.19a2.5,2.5,0,0,1-.811-.542L8.318,14.682a4.5,4.5,0,0,0,1.46.976Zm-.811-.542a2.5,2.5,0,0,1-.542-.811l-1.848.765a4.5,4.5,0,0,0,.975,1.46Zm-.542-.811A2.5,2.5,0,0,1,9,11.5H7a4.5,4.5,0,0,0,.343,1.722ZM2,18.5a2.5,2.5,0,0,1,.732-1.768L1.318,15.318A4.5,4.5,0,0,0,0,18.5Zm.732-1.768A2.5,2.5,0,0,1,4.5,16V14a4.5,4.5,0,0,0-3.182,1.318ZM4.5,16H8V14H4.5ZM7,15v3.5H9V15Zm0,3.5a2.5,2.5,0,0,1-.732,1.768l1.414,1.414A4.5,4.5,0,0,0,9,18.5Zm-.732,1.768A2.5,2.5,0,0,1,4.5,21v2a4.5,4.5,0,0,0,3.182-1.318ZM4.5,21a2.5,2.5,0,0,1-1.768-.732L1.318,21.682A4.5,4.5,0,0,0,4.5,23Zm-1.768-.732A2.5,2.5,0,0,1,2,18.5H0a4.5,4.5,0,0,0,1.318,3.182ZM2,11.5a2.5,2.5,0,0,1,.732-1.768L1.318,8.318A4.5,4.5,0,0,0,0,11.5Zm.732-1.768A2.5,2.5,0,0,1,4.5,9V7A4.5,4.5,0,0,0,1.318,8.318ZM7,8v7H9V8ZM4.5,14a2.5,2.5,0,0,1-1.768-.732L1.318,14.682A4.5,4.5,0,0,0,4.5,16Zm-1.768-.732A2.5,2.5,0,0,1,2,11.5H0a4.5,4.5,0,0,0,1.318,3.182Z" fill="#09090b"/>
</svg>
