<svg id="file-symlink" xmlns="http://www.w3.org/2000/svg" width="18" height="22" viewBox="0 0 18 22">
  <path id="Vector" d="M6.293,16.293a1,1,0,0,0,1.414,1.414ZM10,14l.707.707a1,1,0,0,0,0-1.414ZM7.707,10.293a1,1,0,0,0-1.414,1.414ZM12,1a1,1,0,0,0-2,0Zm1,6V7Zm4,1a1,1,0,0,0,0-2ZM0,10a1,1,0,0,0,2,0ZM3,1V1Zm9,0,.707-.707A1,1,0,0,0,12,0Zm5,5h1a1,1,0,0,0-.293-.707ZM1,19H1Zm2-5v0Zm4.707,3.707,3-3L9.293,13.293l-3,3Zm3-4.414-3-3L6.293,11.707l3,3ZM10,1V5h2V1Zm0,4a3,3,0,0,0,.879,2.121l1.414-1.414A1,1,0,0,1,12,5Zm.879,2.121A3,3,0,0,0,13,8V6a1,1,0,0,1-.707-.293ZM13,8h4V6H13ZM2,10V3H0v7ZM2,3a1,1,0,0,1,.293-.707L.879.879A3,3,0,0,0,0,3Zm.293-.707A1,1,0,0,1,3,2V0A3,3,0,0,0,.879.879ZM3,2h9V0H3Zm8.293-.293,5,5,1.414-1.414-5-5ZM16,6V19h2V6Zm0,13a1,1,0,0,1-.293.707l1.414,1.414A3,3,0,0,0,18,19Zm-.293.707A1,1,0,0,1,15,20v2a3,3,0,0,0,2.121-.879ZM15,20H3v2H15ZM3,20a1,1,0,0,1-.707-.293L.879,21.121A3,3,0,0,0,3,22Zm-.707-.293A1,1,0,0,1,2,19H0a3,3,0,0,0,.879,2.121ZM2,19V16H0v3Zm0-3a1,1,0,0,1,.293-.707L.879,13.879A3,3,0,0,0,0,16Zm.293-.707A1,1,0,0,1,3,15V13a3,3,0,0,0-2.121.879ZM3,15h7V13H3Z" fill="#09090b"/>
</svg>
