<svg id="file-clock" xmlns="http://www.w3.org/2000/svg" width="20" height="22" viewBox="0 0 20 22">
  <path id="Vector" d="M15,20a1,1,0,0,0,0,2ZM19,6h1a1,1,0,0,0-.293-.707ZM14,1l.707-.707A1,1,0,0,0,14,0ZM5,1V1ZM3,3H3ZM2,6A1,1,0,0,0,4,6ZM14,1a1,1,0,0,0-2,0Zm1,6V7Zm4,1a1,1,0,0,0,0-2ZM7.86,17.268a1,1,0,1,0,1.28-1.536ZM7,15.25H6a1,1,0,0,0,.36.768ZM8,13a1,1,0,0,0-2,0Zm7,9h2V20H15Zm2,0a3,3,0,0,0,2.121-.879l-1.414-1.414A1,1,0,0,1,17,20Zm2.121-.879A3,3,0,0,0,20,19H18a1,1,0,0,1-.293.707ZM20,19V6H18V19ZM19.707,5.293l-5-5L13.293,1.707l5,5ZM14,0H5V2h9ZM5,0A3,3,0,0,0,2.879.879L4.293,2.293A1,1,0,0,1,5,2ZM2.879.879A3,3,0,0,0,2,3H4a1,1,0,0,1,.293-.707ZM2,3V6H4V3ZM12,1V5h2V1Zm0,4a3,3,0,0,0,.879,2.121l1.414-1.414A1,1,0,0,1,14,5Zm.879,2.121A3,3,0,0,0,15,8V6a1,1,0,0,1-.707-.293ZM15,8h4V6H15Zm-3,7a5,5,0,0,1-5,5v2a7,7,0,0,0,7-7ZM7,20a5,5,0,0,1-5-5H0a7,7,0,0,0,7,7ZM2,15a5,5,0,0,1,5-5V8a7,7,0,0,0-7,7Zm5-5a5,5,0,0,1,5,5h2A7,7,0,0,0,7,8Zm2.14,5.732-1.5-1.25L6.36,16.018l1.5,1.25ZM8,15.25V13H6v2.25Z" fill="#09090b"/>
</svg>
