<svg id="file-lock" xmlns="http://www.w3.org/2000/svg" width="18" height="22" viewBox="0 0 18 22">
  <path id="Vector" d="M12,1l.707-.707A1,1,0,0,0,12,0ZM3,1V1ZM1,3H1ZM1,19H1ZM17,6h1a1,1,0,0,0-.293-.707ZM6,11a1,1,0,0,0,2,0ZM9,7V7Zm2,2h0Zm-1,2a1,1,0,0,0,2,0ZM12,0H3V2h9ZM3,0A3,3,0,0,0,.879.879L2.293,2.293A1,1,0,0,1,3,2ZM.879.879A3,3,0,0,0,0,3H2a1,1,0,0,1,.293-.707ZM0,3V19H2V3ZM0,19a3,3,0,0,0,.879,2.121l1.414-1.414A1,1,0,0,1,2,19Zm.879,2.121A3,3,0,0,0,3,22V20a1,1,0,0,1-.707-.293ZM3,22H15V20H3Zm12,0a3,3,0,0,0,2.121-.879l-1.414-1.414A1,1,0,0,1,15,20Zm2.121-.879A3,3,0,0,0,18,19H16a1,1,0,0,1-.293.707ZM18,19V6H16V19ZM17.707,5.293l-5-5L11.293,1.707l5,5ZM6,12h6V10H6Zm6,0h2a2,2,0,0,0-2-2Zm0,0v4h2V12Zm0,4v2a2,2,0,0,0,2-2Zm0,0H6v2h6ZM6,16H4a2,2,0,0,0,2,2Zm0,0V12H4v4Zm0-4V10a2,2,0,0,0-2,2Zm2-1V9H6v2ZM8,9a1,1,0,0,1,.293-.707L6.879,6.879A3,3,0,0,0,6,9Zm.293-.707A1,1,0,0,1,9,8V6a3,3,0,0,0-2.121.879ZM9,8a1,1,0,0,1,.707.293l1.414-1.414A3,3,0,0,0,9,6Zm.707.293A1,1,0,0,1,10,9h2a3,3,0,0,0-.879-2.121ZM10,9v2h2V9Z" fill="#09090b"/>
</svg>
