<svg id="file-code" xmlns="http://www.w3.org/2000/svg" width="18" height="22" viewBox="0 0 18 22">
  <path id="Vector" d="M7.781,12.125a1,1,0,1,0-1.562-1.249ZM5,14l-.781-.625a1,1,0,0,0,0,1.249Zm1.219,3.125a1,1,0,1,0,1.562-1.249Zm5.562-6.249a1,1,0,0,0-1.562,1.249ZM13,14l.781.625a1,1,0,0,0,0-1.249Zm-2.781,1.875a1,1,0,1,0,1.562,1.249ZM12,1a1,1,0,0,0-2,0Zm1,6V7Zm4,1a1,1,0,0,0,0-2ZM12,1l.707-.707A1,1,0,0,0,12,0ZM3,1V1ZM1,3H1ZM1,19H1ZM17,6h1a1,1,0,0,0-.293-.707ZM6.219,10.875l-2,2.5,1.562,1.249,2-2.5Zm-2,3.749,2,2.5,1.562-1.249-2-2.5Zm6-2.5,2,2.5,1.562-1.249-2-2.5Zm2,1.251-2,2.5,1.562,1.249,2-2.5ZM10,1V5h2V1Zm0,4a3,3,0,0,0,.879,2.121l1.414-1.414A1,1,0,0,1,12,5Zm.879,2.121A3,3,0,0,0,13,8V6a1,1,0,0,1-.707-.293ZM13,8h4V6H13ZM12,0H3V2h9ZM3,0A3,3,0,0,0,.879.879L2.293,2.293A1,1,0,0,1,3,2ZM.879.879A3,3,0,0,0,0,3H2a1,1,0,0,1,.293-.707ZM0,3V19H2V3ZM0,19a3,3,0,0,0,.879,2.121l1.414-1.414A1,1,0,0,1,2,19Zm.879,2.121A3,3,0,0,0,3,22V20a1,1,0,0,1-.707-.293ZM3,22H15V20H3Zm12,0a3,3,0,0,0,2.121-.879l-1.414-1.414A1,1,0,0,1,15,20Zm2.121-.879A3,3,0,0,0,18,19H16a1,1,0,0,1-.293.707ZM18,19V6H16V19ZM17.707,5.293l-5-5L11.293,1.707l5,5Z" fill="#09090b"/>
</svg>
