<svg id="file-key-2" xmlns="http://www.w3.org/2000/svg" width="20" height="22" viewBox="0 0 20 22">
  <path id="Vector" d="M3,20a1,1,0,0,0,0,2ZM19,6h1a1,1,0,0,0-.293-.707ZM14,1l.707-.707A1,1,0,0,0,14,0ZM5,1V1ZM3,3H3ZM2,9A1,1,0,0,0,4,9ZM14,1a1,1,0,0,0-2,0Zm1,6V7Zm4,1a1,1,0,0,0,0-2ZM9.707,9.707A1,1,0,0,0,8.293,8.293ZM3.793,12.793a1,1,0,1,0,1.414,1.414Zm4.914-3.5a1,1,0,0,0-1.414,1.414Zm-.414,2.414a1,1,0,0,0,1.414-1.414ZM3,22H17V20H3Zm14,0a3,3,0,0,0,2.121-.879l-1.414-1.414A1,1,0,0,1,17,20Zm2.121-.879A3,3,0,0,0,20,19H18a1,1,0,0,1-.293.707ZM20,19V6H18V19ZM19.707,5.293l-5-5L13.293,1.707l5,5ZM14,0H5V2h9ZM5,0A3,3,0,0,0,2.879.879L4.293,2.293A1,1,0,0,1,5,2ZM2.879.879A3,3,0,0,0,2,3H4a1,1,0,0,1,.293-.707ZM2,3V9H4V3ZM12,1V5h2V1Zm0,4a3,3,0,0,0,.879,2.121l1.414-1.414A1,1,0,0,1,14,5Zm.879,2.121A3,3,0,0,0,15,8V6a1,1,0,0,1-.707-.293ZM15,8h4V6H15ZM4,15a1,1,0,0,1-1,1v2a3,3,0,0,0,3-3ZM3,16a1,1,0,0,1-1-1H0a3,3,0,0,0,3,3ZM2,15a1,1,0,0,1,1-1V12a3,3,0,0,0-3,3Zm1-1a1,1,0,0,1,1,1H6a3,3,0,0,0-3-3ZM8.293,8.293l-4.5,4.5,1.414,1.414,4.5-4.5Zm-1,2.414,1,1,1.414-1.414-1-1Z" fill="#09090b"/>
</svg>
