<svg id="file-json-2" xmlns="http://www.w3.org/2000/svg" width="20" height="22" viewBox="0 0 20 22">
  <path id="Vector" d="M3,20a1,1,0,0,0,0,2ZM19,6h1a1,1,0,0,0-.293-.707ZM14,1l.707-.707A1,1,0,0,0,14,0ZM5,1V1ZM3,3H3ZM2,7A1,1,0,0,0,4,7ZM14,1a1,1,0,0,0-2,0Zm1,6V7Zm4,1a1,1,0,0,0,0-2ZM3,12a1,1,0,0,0,0-2ZM2,12H2Zm0,1H2ZM1,13a1,1,0,0,0,0,2Zm1,2H2Zm0,1H2Zm1,2a1,1,0,0,0,0-2Zm4-2a1,1,0,0,0,0,2Zm2-1a1,1,0,0,0,0-2ZM7,10a1,1,0,0,0,0,2ZM3,22H17V20H3Zm14,0a3,3,0,0,0,2.121-.879l-1.414-1.414A1,1,0,0,1,17,20Zm2.121-.879A3,3,0,0,0,20,19H18a1,1,0,0,1-.293.707ZM20,19V6H18V19ZM19.707,5.293l-5-5L13.293,1.707l5,5ZM14,0H5V2h9ZM5,0A3,3,0,0,0,2.879.879L4.293,2.293A1,1,0,0,1,5,2ZM2.879.879A3,3,0,0,0,2,3H4a1,1,0,0,1,.293-.707ZM2,3V7H4V3ZM12,1V5h2V1Zm0,4a3,3,0,0,0,.879,2.121l1.414-1.414A1,1,0,0,1,14,5Zm.879,2.121A3,3,0,0,0,15,8V6a1,1,0,0,1-.707-.293ZM15,8h4V6H15ZM3,10a2,2,0,0,0-1.414.586L3,12H3Zm-1.414.586A2,2,0,0,0,1,12H3ZM1,12v1H3V12Zm0,1H1l1.414,1.414A2,2,0,0,0,3,13Zm0,0H1v2a2,2,0,0,0,1.414-.586Zm0,2H1l1.414-1.414A2,2,0,0,0,1,13Zm0,0H3a2,2,0,0,0-.586-1.414Zm0,0v1H3V15Zm0,1a2,2,0,0,0,.586,1.414L3,16H1Zm.586,1.414A2,2,0,0,0,3,18V16H3ZM7,18a2,2,0,0,0,1.414-.586L7,16H7Zm1.414-.586A2,2,0,0,0,9,16H7ZM9,16V15H7v1Zm0-1H9L7.586,13.586A2,2,0,0,0,7,15Zm0,0H9V13a2,2,0,0,0-1.414.586Zm0-2H9L7.586,14.414A2,2,0,0,0,9,15Zm0,0H7a2,2,0,0,0,.586,1.414Zm0,0V12H7v1Zm0-1a2,2,0,0,0-.586-1.414L7,12H9Zm-.586-1.414A2,2,0,0,0,7,10v2H7Z" fill="#09090b"/>
</svg>
