<svg id="file-check-2" xmlns="http://www.w3.org/2000/svg" width="19" height="22" viewBox="0 0 19 22">
  <path id="Vector" d="M2,20a1,1,0,0,0,0,2ZM18,6h1a1,1,0,0,0-.293-.707ZM13,1l.707-.707A1,1,0,0,0,13,0ZM4,1V1ZM2,3H2ZM1,7A1,1,0,0,0,3,7ZM13,1a1,1,0,0,0-2,0Zm1,6V7Zm4,1a1,1,0,0,0,0-2ZM1.707,13.293A1,1,0,0,0,.293,14.707ZM3,16l-.707.707a1,1,0,0,0,1.414,0Zm4.707-3.293a1,1,0,1,0-1.414-1.414ZM2,22H16V20H2Zm14,0a3,3,0,0,0,2.121-.879l-1.414-1.414A1,1,0,0,1,16,20Zm2.121-.879A3,3,0,0,0,19,19H17a1,1,0,0,1-.293.707ZM19,19V6H17V19ZM18.707,5.293l-5-5L12.293,1.707l5,5ZM13,0H4V2h9ZM4,0A3,3,0,0,0,1.879.879L3.293,2.293A1,1,0,0,1,4,2ZM1.879.879A3,3,0,0,0,1,3H3a1,1,0,0,1,.293-.707ZM1,3V7H3V3ZM11,1V5h2V1Zm0,4a3,3,0,0,0,.879,2.121l1.414-1.414A1,1,0,0,1,13,5Zm.879,2.121A3,3,0,0,0,14,8V6a1,1,0,0,1-.707-.293ZM14,8h4V6H14ZM.293,14.707l2,2,1.414-1.414-2-2Zm3.414,2,4-4L6.293,11.293l-4,4Z" transform="translate(0)" fill="#09090b"/>
</svg>
