<svg id="file-stack" xmlns="http://www.w3.org/2000/svg" width="20" height="22" viewBox="0 0 20 22">
  <path id="Vector" d="M19,7a1,1,0,0,0,0-2ZM16,6V6ZM14,4h0Zm1-3a1,1,0,0,0-2,0Zm4,4h1a1,1,0,0,0-.293-.707ZM15,1l.707-.707A1,1,0,0,0,15,0ZM6,7A1,1,0,0,0,4,7Zm7,11a1,1,0,0,0,0-2ZM2,11a1,1,0,0,0-2,0ZM9,22a1,1,0,0,0,0-2ZM19,5H16V7h3ZM16,5a1,1,0,0,1-.707-.293L13.879,6.121A3,3,0,0,0,16,7Zm-.707-.293A1,1,0,0,1,15,4H13a3,3,0,0,0,.879,2.121ZM15,4V1H13V4Zm3,1v6.5h2V5Zm0,6.5a.541.541,0,0,1-.5.5v2A2.537,2.537,0,0,0,20,11.5Zm-.5.5h-7v2h7Zm-7,0a.541.541,0,0,1-.5-.5H8A2.537,2.537,0,0,0,10.5,14Zm-.5-.5v-9H8v9Zm0-9a.541.541,0,0,1,.5-.5V0A2.537,2.537,0,0,0,8,2.5Zm.5-.5H15V0H10.5Zm3.793-.293,4,4,1.414-1.414-4-4ZM4,7v8.8H6V7Zm0,8.8a2.219,2.219,0,0,0,.693,1.507l1.414-1.414a.733.733,0,0,1-.061-.07A.5.5,0,0,1,6,15.759c-.01-.018-.011-.025-.01-.021A.226.226,0,0,1,6,15.8Zm.693,1.507A2.219,2.219,0,0,0,6.2,18V16a.228.228,0,0,1,.062.007L6.241,16a.512.512,0,0,1-.064-.043.737.737,0,0,1-.07-.061ZM6.2,18H13V16H6.2ZM0,11v8.8H2V11Zm0,8.8a2.219,2.219,0,0,0,.693,1.507l1.414-1.414a.733.733,0,0,1-.061-.07A.5.5,0,0,1,2,19.759c-.01-.018-.011-.025-.01-.021A.226.226,0,0,1,2,19.8Zm.693,1.507A2.219,2.219,0,0,0,2.2,22V20a.228.228,0,0,1,.062.007L2.241,20a.512.512,0,0,1-.064-.043.737.737,0,0,1-.07-.061ZM2.2,22H9V20H2.2Z" fill="#09090b"/>
</svg>
