<svg id="file-question" xmlns="http://www.w3.org/2000/svg" width="18" height="22" viewBox="0 0 18 22">
  <path id="Vector" d="M9,15a1,1,0,0,0,0,2Zm.01,2a1,1,0,1,0,0-2ZM12,1l.707-.707A1,1,0,0,0,12,0ZM3,1V1ZM1,3H1ZM1,19H1ZM17,6h1a1,1,0,0,0-.293-.707ZM5.16,7.659a1,1,0,0,0,1.88.682ZM11.92,9h1V8.992ZM8.6,11.051a1,1,0,1,0,.632,1.9ZM9,17h.01V15H9ZM12,0H3V2h9ZM3,0A3,3,0,0,0,.879.879L2.293,2.293A1,1,0,0,1,3,2ZM.879.879A3,3,0,0,0,0,3H2a1,1,0,0,1,.293-.707ZM0,3V19H2V3ZM0,19a3,3,0,0,0,.879,2.121l1.414-1.414A1,1,0,0,1,2,19Zm.879,2.121A3,3,0,0,0,3,22V20a1,1,0,0,1-.707-.293ZM3,22H15V20H3Zm12,0a3,3,0,0,0,2.121-.879l-1.414-1.414A1,1,0,0,1,15,20Zm2.121-.879A3,3,0,0,0,18,19H16a1,1,0,0,1-.293.707ZM18,19V6H16V19ZM17.707,5.293l-5-5L11.293,1.707l5,5ZM7.04,8.341a2,2,0,0,1,.875-1.047l-1-1.729A4,4,0,0,0,5.16,7.659Zm.875-1.047a2,2,0,0,1,1.343-.242L9.6,5.081a4,4,0,0,0-2.687.484Zm1.343-.242a2,2,0,0,1,1.186.676l1.524-1.295A4,4,0,0,0,9.6,5.081Zm1.186.676a2,2,0,0,1,.476,1.279l2-.016a4,4,0,0,0-.951-2.559ZM10.92,9c0,.469-.365.958-1.055,1.418a6.049,6.049,0,0,1-.883.481c-.122.054-.222.094-.29.12l-.074.027-.015.005h0s0,0,.317.948.317.949.317.948h.006l.011,0,.035-.012.116-.043c.1-.037.231-.09.39-.161a8.047,8.047,0,0,0,1.18-.644A3.852,3.852,0,0,0,12.92,9Z" fill="#09090b"/>
</svg>
