<svg id="file-archive" xmlns="http://www.w3.org/2000/svg" width="18" height="22" viewBox="0 0 18 22">
  <path id="Vector" d="M6,11a1,1,0,0,0,2,0Zm2-1a1,1,0,0,0-2,0Zm0,5a1,1,0,0,0-2,0ZM6,6A1,1,0,0,0,8,6ZM8,5A1,1,0,0,0,6,5Zm4-4a1,1,0,0,0-2,0Zm1,6V7Zm4,1a1,1,0,0,0,0-2ZM12.5,20a1,1,0,0,0,0,2ZM17,6h1a1,1,0,0,0-.293-.707ZM12,1l.707-.707A1,1,0,0,0,12,0ZM3,1V1ZM1,3H1ZM1,19H1ZM.411,20.515A1,1,0,0,0,2.137,19.5ZM8,11V10H6v1Zm0,6V15H6v2ZM8,6V5H6V6Zm2-5V5h2V1Zm0,4a3,3,0,0,0,.879,2.121l1.414-1.414A1,1,0,0,1,12,5Zm.879,2.121A3,3,0,0,0,13,8V6a1,1,0,0,1-.707-.293ZM13,8h4V6H13Zm-.5,14H15V20H12.5ZM15,22a3,3,0,0,0,2.121-.879l-1.414-1.414A1,1,0,0,1,15,20Zm2.121-.879A3,3,0,0,0,18,19H16a1,1,0,0,1-.293.707ZM18,19V6H16V19ZM17.707,5.293l-5-5L11.293,1.707l5,5ZM12,0H3V2h9ZM3,0A3,3,0,0,0,.879.879L2.293,2.293A1,1,0,0,1,3,2ZM.879.879A3,3,0,0,0,0,3H2a1,1,0,0,1,.293-.707ZM0,3V19H2V3ZM0,19a3,3,0,0,0,.411,1.515L2.137,19.5A1,1,0,0,1,2,19Zm8,0a1,1,0,0,1-1,1v2a3,3,0,0,0,3-3ZM7,20a1,1,0,0,1-1-1H4a3,3,0,0,0,3,3ZM6,19a1,1,0,0,1,1-1V16a3,3,0,0,0-3,3Zm1-1a1,1,0,0,1,1,1h2a3,3,0,0,0-3-3Z" fill="#09090b"/>
</svg>
