<svg id="file-scan" xmlns="http://www.w3.org/2000/svg" width="20" height="22" viewBox="0 0 20 22">
  <path id="Vector" d="M16,9a1,1,0,0,0,2,0Zm1-3h1a1,1,0,0,0-.293-.707ZM12,1l.707-.707A1,1,0,0,0,12,0ZM3,1V1ZM1,3H1ZM1,19H1Zm6,3a1,1,0,0,0,0-2ZM12,1a1,1,0,0,0-2,0Zm1,6V7Zm4,1a1,1,0,0,0,0-2Zm-4,6a1,1,0,0,0,0-2Zm-3,1a1,1,0,0,0,2,0Zm7-3a1,1,0,0,0,0,2Zm1,3a1,1,0,0,0,2,0Zm-1,5a1,1,0,0,0,0,2Zm3-1a1,1,0,0,0-2,0Zm-7,3a1,1,0,0,0,0-2Zm-1-3a1,1,0,0,0-2,0ZM18,9V6H16V9Zm-.293-3.707-5-5L11.293,1.707l5,5ZM12,0H3V2h9ZM3,0A3,3,0,0,0,.879.879L2.293,2.293A1,1,0,0,1,3,2ZM.879.879A3,3,0,0,0,0,3H2a1,1,0,0,1,.293-.707ZM0,3V19H2V3ZM0,19a3,3,0,0,0,.879,2.121l1.414-1.414A1,1,0,0,1,2,19Zm.879,2.121A3,3,0,0,0,3,22V20a1,1,0,0,1-.707-.293ZM3,22H7V20H3ZM10,1V5h2V1Zm0,4a3,3,0,0,0,.879,2.121l1.414-1.414A1,1,0,0,1,12,5Zm.879,2.121A3,3,0,0,0,13,8V6a1,1,0,0,1-.707-.293ZM13,8h4V6H13Zm0,4a3,3,0,0,0-2.121.879l1.414,1.414A1,1,0,0,1,13,14Zm-2.121.879A3,3,0,0,0,10,15h2a1,1,0,0,1,.293-.707ZM17,14a1,1,0,0,1,.707.293l1.414-1.414A3,3,0,0,0,17,12Zm.707.293A1,1,0,0,1,18,15h2a3,3,0,0,0-.879-2.121ZM17,22a3,3,0,0,0,2.121-.879l-1.414-1.414A1,1,0,0,1,17,20Zm2.121-.879A3,3,0,0,0,20,19H18a1,1,0,0,1-.293.707ZM13,20a1,1,0,0,1-.707-.293l-1.414,1.414A3,3,0,0,0,13,22Zm-.707-.293A1,1,0,0,1,12,19H10a3,3,0,0,0,.879,2.121Z" fill="#09090b"/>
</svg>
