<svg id="file-digit" xmlns="http://www.w3.org/2000/svg" width="20" height="22" viewBox="0 0 20 22">
  <path id="Vector" d="M3,20a1,1,0,0,0,0,2ZM19,6h1a1,1,0,0,0-.293-.707ZM14,1l.707-.707A1,1,0,0,0,14,0ZM5,1V1ZM3,3H3ZM2,7A1,1,0,0,0,4,7ZM14,1a1,1,0,0,0-2,0Zm1,6V7Zm4,1a1,1,0,0,0,0-2ZM9,10a1,1,0,0,0,0,2Zm2,1h1a1,1,0,0,0-1-1Zm-1,6a1,1,0,0,0,2,0ZM9,16a1,1,0,0,0,0,2Zm4,2a1,1,0,0,0,0-2ZM3,22H17V20H3Zm14,0a3,3,0,0,0,2.121-.879l-1.414-1.414A1,1,0,0,1,17,20Zm2.121-.879A3,3,0,0,0,20,19H18a1,1,0,0,1-.293.707ZM20,19V6H18V19ZM19.707,5.293l-5-5L13.293,1.707l5,5ZM14,0H5V2h9ZM5,0A3,3,0,0,0,2.879.879L4.293,2.293A1,1,0,0,1,5,2ZM2.879.879A3,3,0,0,0,2,3H4a1,1,0,0,1,.293-.707ZM2,3V7H4V3ZM12,1V5h2V1Zm0,4a3,3,0,0,0,.879,2.121l1.414-1.414A1,1,0,0,1,14,5Zm.879,2.121A3,3,0,0,0,15,8V6a1,1,0,0,1-.707-.293ZM15,8h4V6H15ZM3,12a1,1,0,0,1,1,1H6a3,3,0,0,0-3-3Zm1,1v2H6V13Zm0,2a1,1,0,0,1-1,1v2a3,3,0,0,0,3-3ZM3,16a1,1,0,0,1-1-1H0a3,3,0,0,0,3,3ZM2,15V13H0v2Zm0-2a1,1,0,0,1,1-1V10a3,3,0,0,0-3,3Zm7-1h2V10H9Zm1-1v6h2V11ZM9,18h4V16H9Z" fill="#09090b"/>
</svg>
