<svg id="file-volume-2" xmlns="http://www.w3.org/2000/svg" width="18" height="22" viewBox="0 0 18 22">
  <path id="Vector" d="M12,1l.707-.707A1,1,0,0,0,12,0ZM3,1V1ZM1,3H1ZM1,19H1ZM17,6h1a1,1,0,0,0-.293-.707ZM12,1a1,1,0,0,0-2,0Zm1,6V7Zm4,1a1,1,0,0,0,0-2ZM5,13a1,1,0,0,0,0,2Zm.01,2a1,1,0,0,0,0-2ZM9.3,11.9a1,1,0,0,0-1.6,1.2ZM9,14H9Zm-1.3.9a1,1,0,1,0,1.6,1.2Zm5.1-4.5a1,1,0,0,0-1.6,1.2Zm-1.6,6a1,1,0,1,0,1.6,1.2ZM12,0H3V2h9ZM3,0A3,3,0,0,0,.879.879L2.293,2.293A1,1,0,0,1,3,2ZM.879.879A3,3,0,0,0,0,3H2a1,1,0,0,1,.293-.707ZM0,3V19H2V3ZM0,19a3,3,0,0,0,.879,2.121l1.414-1.414A1,1,0,0,1,2,19Zm.879,2.121A3,3,0,0,0,3,22V20a1,1,0,0,1-.707-.293ZM3,22H15V20H3Zm12,0a3,3,0,0,0,2.121-.879l-1.414-1.414A1,1,0,0,1,15,20Zm2.121-.879A3,3,0,0,0,18,19H16a1,1,0,0,1-.293.707ZM18,19V6H16V19ZM17.707,5.293l-5-5L11.293,1.707l5,5ZM10,1V5h2V1Zm0,4a3,3,0,0,0,.879,2.121l1.414-1.414A1,1,0,0,1,12,5Zm.879,2.121A3,3,0,0,0,13,8V6a1,1,0,0,1-.707-.293ZM13,8h4V6H13ZM5,15h.01V13H5Zm2.7-1.9A1.5,1.5,0,0,1,8,14h2a3.5,3.5,0,0,0-.7-2.1ZM8,14a1.5,1.5,0,0,1-.3.9l1.6,1.2A3.5,3.5,0,0,0,10,14Zm3.2-2.4A4,4,0,0,1,12,14h2a6,6,0,0,0-1.2-3.6ZM12,14a4,4,0,0,1-.8,2.4l1.6,1.2A6,6,0,0,0,14,14Z" fill="#09090b"/>
</svg>
