<svg id="file-cog" xmlns="http://www.w3.org/2000/svg" width="19.7" height="22" viewBox="0 0 19.7 22">
  <path id="Vector" d="M13.7,1a1,1,0,0,0-2,0Zm1,6V7Zm4,1a1,1,0,0,0,0-2ZM1.494,12.814a1,1,0,0,0,.812-1.828Zm-.088-2.228a1,1,0,0,0-.812,1.828Zm.9,4.428a1,1,0,0,0-.812-1.828ZM.594,13.586a1,1,0,0,0,.812,1.828ZM4.039,19.75a1,1,0,1,0-1.323,1.5ZM4.69,21l0,1h0ZM18.7,6h1a1,1,0,0,0-.293-.707Zm-5-5,.707-.707A1,1,0,0,0,13.7,0Zm-9,0V1Zm-2,2h0Zm-1,2.5a1,1,0,0,0,2,0Zm.986,5.106a1,1,0,1,0,1.828-.812ZM4.114,8.894a1,1,0,0,0-1.828.812Zm.4,7.312a1,1,0,1,0-1.828-.812Zm-2.228.088a1,1,0,1,0,1.828.812ZM7.114,9.706a1,1,0,1,0-1.828-.812Zm-2.228.088a1,1,0,1,0,1.828.812Zm.4,7.312a1,1,0,1,0,1.828-.812Zm1.428-1.712a1,1,0,1,0-1.828.812Zm2.092-2.98a1,1,0,0,0-.812-1.828ZM7.094,10.986a1,1,0,0,0,.812,1.828Zm.9,4.428a1,1,0,0,0,.812-1.828Zm-.088-2.228a1,1,0,0,0-.812,1.828ZM11.7,1V5h2V1Zm0,4a3,3,0,0,0,.879,2.121l1.414-1.414A1,1,0,0,1,13.7,5Zm.879,2.121A3,3,0,0,0,14.7,8V6a1,1,0,0,1-.707-.293ZM14.7,8h4V6h-4ZM2.306,10.986l-.9-.4L.594,12.414l.9.4Zm-.812,2.2-.9.4.812,1.828.9-.4ZM2.716,21.25a3,3,0,0,0,1.97.75l.01-2a1,1,0,0,1-.656-.25ZM4.69,22H16.7V20H4.69ZM16.7,22a3,3,0,0,0,2.121-.879l-1.414-1.414A1,1,0,0,1,16.7,20Zm2.121-.879A3,3,0,0,0,19.7,19h-2a1,1,0,0,1-.293.707ZM19.7,19V6h-2V19ZM19.408,5.293l-5-5L12.993,1.707l5,5ZM13.7,0h-9V2h9Zm-9,0A3,3,0,0,0,2.579.879L3.993,2.293A1,1,0,0,1,4.7,2ZM2.579.879A3,3,0,0,0,1.7,3h2a1,1,0,0,1,.293-.707ZM1.7,3V5.5h2V3ZM4.514,9.794l-.4-.9-1.828.812.4.9Zm-1.828,5.6-.4.9,1.828.812.4-.9Zm2.6-6.5-.4.9,1.828.812.4-.9Zm1.828,7.4-.4-.9-1.828.812.4.9Zm.88-5.708-.9.4.812,1.828.9-.4Zm.812,3-.9-.4-.812,1.828.9.4ZM6.7,13a2,2,0,0,1-2,2v2a4,4,0,0,0,4-4Zm-2,2a2,2,0,0,1-2-2H.7a4,4,0,0,0,4,4Zm-2-2a2,2,0,0,1,2-2V9a4,4,0,0,0-4,4Zm2-2a2,2,0,0,1,2,2h2a4,4,0,0,0-4-4Z" transform="translate(0)" fill="#09090b"/>
</svg>
