<svg id="files" xmlns="http://www.w3.org/2000/svg" width="19" height="22" viewBox="0 0 19 22">
  <path id="Vector" d="M18,7a1,1,0,0,0,0-2ZM15,6V6ZM14,1a1,1,0,0,0-2,0ZM5,15H5ZM7,1V1Zm7,0,.707-.707A1,1,0,0,0,14,0Zm4,4h1a1,1,0,0,0-.293-.707ZM2,6.6a1,1,0,0,0-2,0ZM1,19.4H1ZM12.4,22a1,1,0,0,0,0-2ZM18,5H15V7h3ZM15,5a1,1,0,0,1-.707-.293L12.879,6.121A3,3,0,0,0,15,7Zm-.707-.293A1,1,0,0,1,14,4H12a3,3,0,0,0,.879,2.121ZM14,4V1H12V4ZM7,16a1,1,0,0,1-.707-.293L4.879,17.121A3,3,0,0,0,7,18Zm-.707-.293A1,1,0,0,1,6,15H4a3,3,0,0,0,.879,2.121ZM6,15V3H4V15ZM6,3a1,1,0,0,1,.293-.707L4.879.879A3,3,0,0,0,4,3Zm.293-.707A1,1,0,0,1,7,2V0A3,3,0,0,0,4.879.879ZM7,2h7V0H7Zm6.293-.293,4,4,1.414-1.414-4-4ZM17,5V15h2V5Zm0,10a1,1,0,0,1-.293.707l1.414,1.414A3,3,0,0,0,19,15Zm-.293.707A1,1,0,0,1,16,16v2a3,3,0,0,0,2.121-.879ZM16,16H7v2h9ZM0,6.6V19.4H2V6.6ZM0,19.4a2.6,2.6,0,0,0,.762,1.839l1.414-1.414A.6.6,0,0,1,2,19.4Zm.762,1.838A2.6,2.6,0,0,0,2.6,22V20a.6.6,0,0,1-.424-.176ZM2.6,22h9.8V20H2.6Z" fill="#09090b"/>
</svg>
