<svg id="file-search" xmlns="http://www.w3.org/2000/svg" width="20" height="22" viewBox="0 0 20 22">
  <path id="Vector" d="M14,1a1,1,0,0,0-2,0Zm1,6V7Zm4,1a1,1,0,0,0,0-2ZM4.134,19.5a1,1,0,0,0-1.732,1ZM4.995,21l0,1h0ZM19,6h1a1,1,0,0,0-.293-.707ZM14,1l.707-.707A1,1,0,0,0,14,0ZM5,1V1ZM3,3H3ZM2,6A1,1,0,0,0,4,6ZM7.293,17.707a1,1,0,1,0,1.414-1.414Zm-.086-2.914a1,1,0,1,0-1.414,1.414ZM12,1V5h2V1Zm0,4a3,3,0,0,0,.879,2.121l1.414-1.414A1,1,0,0,1,14,5Zm.879,2.121A3,3,0,0,0,15,8V6a1,1,0,0,1-.707-.293ZM15,8h4V6H15ZM2.4,20.5A3,3,0,0,0,3.5,21.6l1-1.731a1,1,0,0,1-.365-.365ZM3.5,21.6a3,3,0,0,0,1.5.4L5,20a1,1,0,0,1-.5-.135Zm1.5.4H17V20H4.995ZM17,22a3,3,0,0,0,2.121-.879l-1.414-1.414A1,1,0,0,1,17,20Zm2.121-.879A3,3,0,0,0,20,19H18a1,1,0,0,1-.293.707ZM20,19V6H18V19ZM19.707,5.293l-5-5L13.293,1.707l5,5ZM14,0H5V2h9ZM5,0A3,3,0,0,0,2.879.879L4.293,2.293A1,1,0,0,1,5,2ZM2.879.879A3,3,0,0,0,2,3H4a1,1,0,0,1,.293-.707ZM2,3V6H4V3ZM8.707,16.293l-1.5-1.5L5.793,16.207l1.5,1.5ZM6,13a2,2,0,0,1-2,2v2a4,4,0,0,0,4-4ZM4,15a2,2,0,0,1-2-2H0a4,4,0,0,0,4,4ZM2,13a2,2,0,0,1,2-2V9a4,4,0,0,0-4,4Zm2-2a2,2,0,0,1,2,2H8A4,4,0,0,0,4,9Z" fill="#09090b"/>
</svg>
