<svg id="filter" xmlns="http://www.w3.org/2000/svg" width="22" height="20" viewBox="0 0 22 20">
  <path id="Vector" d="M21,1l.764.646A1,1,0,0,0,21,0ZM1,1V0A1,1,0,0,0,.236,1.646Zm8,9.46h1a1,1,0,0,0-.236-.646ZM9,17H8a1,1,0,0,0,.553.894Zm4,2-.447.894A1,1,0,0,0,14,19Zm0-8.54-.764-.646A1,1,0,0,0,12,10.46ZM21,0H1V2H21ZM.236,1.646l8,9.46L9.764,9.814l-8-9.46ZM8,10.46V17h2V10.46Zm.553,7.434,4,2,.894-1.789-4-2ZM14,19V10.46H12V19Zm-.236-7.894,8-9.46L20.236.354l-8,9.46Z" transform="translate(0)" fill="#09090b"/>
</svg>
