<svg id="fingerprint" xmlns="http://www.w3.org/2000/svg" width="21.925" height="22" viewBox="0 0 21.925 22">
  <path id="Vector" d="M11,10a1,1,0,1,0,0-2ZM7.746,14.893a1,1,0,1,0,1.989.214ZM14,12.12a1,1,0,1,0-2,0Zm-2.929,8.509a1,1,0,1,0,1.857.743Zm4.238-.8a1,1,0,1,0,1.961.392ZM17.785,17.1a1,1,0,1,0-1.991-.194ZM0,11a1,1,0,0,0,2,0ZM18.2,5.6a1,1,0,0,0,1.6-1.2ZM1,14a1,1,0,0,0,0,2Zm.01,2a1,1,0,0,0,0-2ZM19.8,14.9a1,1,0,0,0,1.99.2ZM21.78,8.8a1,1,0,1,0-1.96.4ZM3.051,18.184a1,1,0,1,0,1.9.632ZM5,11H5ZM6.283,9.332A1,1,0,1,0,4.4,8.668ZM6.7,20.7A1,1,0,0,0,8.6,21.3ZM9.2,19.174a1,1,0,1,0-1.97-.348ZM7.5,4.934a1,1,0,1,0,1,1.732ZM17,11h0Zm-1,2a1,1,0,0,0,2,0ZM11,8a3,3,0,0,0-2.121.879l1.414,1.414A1,1,0,0,1,11,10Zm-2.121.879A3,3,0,0,0,8,11h2a1,1,0,0,1,.293-.707ZM8,11c0,.97-.1,2.421-.254,3.893l1.989.214C9.9,13.6,10,12.07,10,11Zm4,1.12c0,1.194,0,2.752-.122,4.318a15.032,15.032,0,0,1-.807,4.191l1.857.743a16.929,16.929,0,0,0,.943-4.779C14,14.939,14,13.307,14,12.12Zm5.271,8.1c.119-.6.439-2.343.515-3.119L15.795,16.9c-.064.663-.365,2.317-.485,2.921ZM2,11A9,9,0,0,1,3.7,5.738L2.076,4.568A11,11,0,0,0,0,11ZM3.7,5.738A9,9,0,0,1,8.154,2.462L7.521.564a11,11,0,0,0-5.445,4ZM8.154,2.462a9,9,0,0,1,5.53-.052L14.28.5A11,11,0,0,0,7.521.564Zm5.53-.052A9,9,0,0,1,18.2,5.6l1.6-1.2A11,11,0,0,0,14.28.5ZM1,16h.01V14H1Zm20.795-.9c.105-1.052.138-2.431.129-3.615,0-.6-.019-1.152-.042-1.606a8.468,8.468,0,0,0-.1-1.078l-1.96.4a7.5,7.5,0,0,1,.065.78c.021.42.035.947.04,1.521.008,1.154-.024,2.452-.119,3.4ZM4.949,18.816A28.029,28.029,0,0,0,6,11H4a26.165,26.165,0,0,1-.949,7.184ZM6,11a5,5,0,0,1,.283-1.667L4.4,8.668A7,7,0,0,0,4,11ZM8.6,21.3a16.475,16.475,0,0,0,.6-2.129l-1.97-.348A14.927,14.927,0,0,1,6.7,20.7ZM8.5,6.666A5,5,0,0,1,11,6V4a7,7,0,0,0-3.5.938ZM11,6a5,5,0,0,1,2.5.671l1-1.732A7,7,0,0,0,11,4Zm2.5.671A5,5,0,0,1,15.331,8.5l1.733-1A7,7,0,0,0,14.5,4.935ZM15.331,8.5A5,5,0,0,1,16,11h2a7,7,0,0,0-.936-3.5ZM16,11v2h2V11Z" transform="translate(0 0)" fill="#09090b"/>
</svg>
