<svg id="fire-extinguisher" xmlns="http://www.w3.org/2000/svg" width="15" height="22" viewBox="0 0 15 22">
  <path id="Vector" d="M10,5.5a1,1,0,0,0,2,0ZM10,1V1ZM8,1V1ZM6,5.5a1,1,0,0,0,2,0ZM5,16a1,1,0,0,0,0,2Zm8,2a1,1,0,0,0,0-2ZM14,3a1,1,0,0,0,0-2ZM1,8H1ZM0,19a1,1,0,0,0,2,0Zm1-8a1,1,0,0,0,0,2Zm4,2a1,1,0,0,0,0-2ZM9,5V5ZM5,9H5Zm7-3.5V2H10V5.5ZM12,2A2,2,0,0,0,11.414.586L10,2h2ZM11.414.586A2,2,0,0,0,10,0V2h0ZM10,0H8V2h2ZM8,0A2,2,0,0,0,6.586.586L8,2H8ZM6.586.586A2,2,0,0,0,6,2H8ZM6,2V5.5H8V2ZM5,18h8V16H5ZM14,1H11V3h3ZM7,1A7,7,0,0,0,2.05,3.05L3.464,4.464A5,5,0,0,1,7,3ZM2.05,3.05A7,7,0,0,0,0,8H2A5,5,0,0,1,3.464,4.464ZM0,8V19H2V8Zm1,5H5V11H1ZM14,9a5,5,0,0,0-1.465-3.536L11.121,6.879A3,3,0,0,1,12,9ZM12.535,5.464A5,5,0,0,0,9,4V6a3,3,0,0,1,2.121.879ZM9,4A5,5,0,0,0,5.464,5.464L6.879,6.879A3,3,0,0,1,9,6ZM5.464,5.464A5,5,0,0,0,4,9H6a3,3,0,0,1,.879-2.121ZM4,9V19H6V9ZM4,19a3,3,0,0,0,.879,2.121l1.414-1.414A1,1,0,0,1,6,19Zm.879,2.121A3,3,0,0,0,7,22V20a1,1,0,0,1-.707-.293ZM7,22h4V20H7Zm4,0a3,3,0,0,0,2.121-.879l-1.414-1.414A1,1,0,0,1,11,20Zm2.121-.879A3,3,0,0,0,14,19H12a1,1,0,0,1-.293.707ZM14,19V9H12V19Z" fill="#09090b"/>
</svg>
