<svg id="fish-symbol" xmlns="http://www.w3.org/2000/svg" width="22" height="10.062" viewBox="0 0 22 10.062">
  <path id="Vector" d="M.143,8.516A1,1,0,1,0,1.858,9.545ZM21,5.031l.707.707a1,1,0,0,0,0-1.414ZM1.858.516A1,1,0,0,0,.143,1.545ZM1,9.031l.857.515h0l0-.005.016-.026.07-.11c.063-.1.159-.245.286-.429.254-.369.632-.889,1.118-1.481A18.81,18.81,0,0,1,7.423,3.742a9.477,9.477,0,0,1,5.753-1.729c2.1.123,4.5,1.108,7.117,3.724l1.414-1.414C18.824,1.44,15.979.175,13.293.017A11.465,11.465,0,0,0,6.327,2.069,20.8,20.8,0,0,0,1.806,6.224C1.277,6.866.866,7.433.585,7.841c-.141.2-.249.369-.323.485l-.086.136L.153,8.5l-.007.011,0,0h0s0,0,.857.515ZM20.293,4.324c-2.616,2.616-5.022,3.6-7.117,3.724A9.477,9.477,0,0,1,7.423,6.32,18.81,18.81,0,0,1,3.35,2.567c-.487-.592-.864-1.111-1.118-1.481C2.105.9,2.009.756,1.946.658l-.07-.11L1.861.521l0-.005h0L1,1.031c-.857.515-.857.515-.857.515h0l0,0,.007.011L.176,1.6l.086.136c.074.116.182.281.323.485.281.408.693.974,1.221,1.617A20.8,20.8,0,0,0,6.327,7.992a11.465,11.465,0,0,0,6.966,2.052c2.686-.158,5.53-1.423,8.414-4.307Z" transform="translate(0 0)" fill="#09090b"/>
</svg>
