<svg id="flag" xmlns="http://www.w3.org/2000/svg" width="18" height="22" viewBox="0 0 18 22">
  <path id="Vector" d="M17,14l.707.707A1,1,0,0,0,18,14ZM17,2h1a1,1,0,0,0-1.707-.707ZM1,2,.293,1.293A1,1,0,0,0,0,2ZM0,21a1,1,0,0,0,2,0Zm1-7c.707.707.707.708.706.708h0l0,0,0,0-.006.006-.009.008s0,0,0,0,.031-.025.073-.053a2.685,2.685,0,0,1,.489-.247A7.441,7.441,0,0,1,5,14V12a9.4,9.4,0,0,0-3.5.571,4.658,4.658,0,0,0-.855.44c-.1.066-.177.125-.235.173-.029.024-.054.046-.074.064l-.027.025-.011.01,0,0,0,0h0s0,0,.706.708Zm4,0a9.543,9.543,0,0,1,3.629.929A11.429,11.429,0,0,0,13,16V14a9.543,9.543,0,0,1-3.629-.929A11.429,11.429,0,0,0,5,12Zm8,2a9.4,9.4,0,0,0,3.5-.571,4.661,4.661,0,0,0,.855-.44c.1-.066.177-.125.235-.173.029-.024.054-.046.074-.064l.027-.025.011-.01,0,0,0,0h0s0,0-.706-.708-.707-.708-.706-.708h0l0,0,0,0,.006-.006.009-.008s0,0,0,0-.031.025-.073.053a2.685,2.685,0,0,1-.489.247A7.441,7.441,0,0,1,13,14Zm5-2V2H16V14ZM17,2c-.707-.707-.707-.708-.706-.708h0l0,0,0,0,.006-.006.009-.008s0,0,0,0-.031.025-.073.053a2.682,2.682,0,0,1-.489.247A7.442,7.442,0,0,1,13,2V4a9.4,9.4,0,0,0,3.5-.572,4.664,4.664,0,0,0,.855-.44,2.907,2.907,0,0,0,.235-.173c.029-.024.054-.046.074-.064l.027-.025.011-.01,0,0,0,0h0s0,0-.706-.708ZM13,2a9.544,9.544,0,0,1-3.629-.928A11.428,11.428,0,0,0,5,0V2a9.544,9.544,0,0,1,3.629.928A11.428,11.428,0,0,0,13,4ZM5,0A9.4,9.4,0,0,0,1.5.572a4.66,4.66,0,0,0-.855.44,2.907,2.907,0,0,0-.235.173c-.029.024-.054.046-.074.064l-.027.025L.3,1.284l0,0,0,0h0s0,0,.706.708.707.708.706.708h0l0,0,0,0-.006.006-.009.008s0,0,0,0,.031-.025.073-.053a2.682,2.682,0,0,1,.489-.247A7.442,7.442,0,0,1,5,2ZM0,2V14H2V2ZM2,21V14H0v7Z" fill="#09090b"/>
</svg>
