<svg id="flask-conical-off" xmlns="http://www.w3.org/2000/svg" width="22" height="22" viewBox="0 0 22 22">
  <path id="Vector" d="M9.894,9.448a1,1,0,1,0-1.789-.9ZM3.72,19.55l.893.45v0ZM4.62,21V20H4.613Zm12.76,0,.007-1H17.38Zm.9-1.45L17.385,20v0ZM17.9,16.56a1,1,0,0,0-1.789.9ZM10,1A1,1,0,0,0,8,1ZM8,3.343a1,1,0,1,0,2,0ZM14,1a1,1,0,0,0-2,0ZM12,7.343a1,1,0,1,0,2,0ZM7.5,0a1,1,0,0,0,0,2Zm7,2a1,1,0,0,0,0-2ZM6,14a1,1,0,0,0,0,2Zm9,2a1,1,0,0,0,0-2ZM1.707.293A1,1,0,0,0,.293,1.707ZM20.293,21.707a1,1,0,0,0,1.414-1.414ZM8.106,8.552,2.826,19.1l1.789.9,5.28-10.55ZM2.827,19.1a2,2,0,0,0-.212.989l2-.089h0Zm-.212.989a2,2,0,0,0,.3.966L4.613,20h0Zm.3.966a2,2,0,0,0,.733.7L4.613,20h0Zm.733.7a2,2,0,0,0,.98.249l-.014-2h0ZM4.62,22H17.38V20H4.62Zm12.753,0a2,2,0,0,0,.98-.249L17.387,20h0Zm.98-.249a2,2,0,0,0,.733-.7L17.387,20h0Zm.733-.7a2,2,0,0,0,.3-.966l-2-.089h0Zm.3-.966a2,2,0,0,0-.212-.989l-1.786.9h0Zm-.211-.986L17.9,16.561l-1.789.9L17.386,20ZM8,1V3.343h2V1Zm4,0V7.343h2V1ZM7.5,2h7V0h-7ZM6,16h9V14H6ZM.293,1.707l20,20,1.414-1.414-20-20Z" transform="translate(0)" fill="#09090b"/>
</svg>
