<svg id="flask-conical" xmlns="http://www.w3.org/2000/svg" width="16.774" height="22" viewBox="0 0 16.774 22">
  <path id="Vector" d="M7.387,1a1,1,0,0,0-2,0Zm-1,7.527h0Zm-.211.9.894.448h0ZM1.107,19.55,2,20v0Zm.9,1.45V20H2Zm12.76,0,.007-1h-.007Zm.9-1.45L14.773,20v0ZM10.6,9.423,9.7,9.87h0Zm-.211-.9h0Zm1-7.527a1,1,0,0,0-2,0Zm-6.5-1a1,1,0,0,0,0,2Zm7,2a1,1,0,0,0,0-2Zm-8.5,12a1,1,0,0,0,0,2Zm10,2a1,1,0,1,0,0-2Zm-8-15V8.527h2V1Zm0,7.528a1,1,0,0,1-.106.448L7.07,9.87a3,3,0,0,0,.317-1.344Zm-.105.447L.213,19.1,2,20,7.07,9.871ZM.214,19.1A2,2,0,0,0,0,20.089L2,20H2ZM0,20.089a2,2,0,0,0,.3.966L2,20H2Zm.3.966a2,2,0,0,0,.733.7L2,20H2Zm.733.7a2,2,0,0,0,.98.249L2,20H2ZM2.007,22h12.76V20H2.007ZM14.76,22a2,2,0,0,0,.98-.249L14.774,20h0Zm.98-.249a2,2,0,0,0,.733-.7L14.774,20h0Zm.733-.7a2,2,0,0,0,.3-.966l-2-.089h0Zm.3-.966a2,2,0,0,0-.212-.989l-1.786.9h0Zm-.211-.986L11.492,8.975l-1.788.9L14.773,20ZM11.493,8.976a1,1,0,0,1-.106-.448l-2,0A3,3,0,0,0,9.7,9.87Zm-.106-.449V1h-2V8.527ZM4.887,2h7V0h-7Zm-1.5,14h10V14h-10Z" transform="translate(0)" fill="#09090b"/>
</svg>
