<svg id="flashlight-off" xmlns="http://www.w3.org/2000/svg" width="22" height="22" viewBox="0 0 22 22">
  <path id="Vector" d="M16,15a1,1,0,0,0-2,0ZM6,5A1,1,0,0,0,4,5ZM6,0A1,1,0,0,0,6,2ZM17,1h1a1,1,0,0,0-1-1Zm-3,9a1,1,0,0,0,2,0ZM10,4a1,1,0,0,0,0,2ZM1.707.293A1,1,0,0,0,.293,1.707ZM20.293,21.707a1,1,0,0,0,1.414-1.414ZM14,15v4h2V15Zm0,4a1,1,0,0,1-.293.707l1.414,1.414A3,3,0,0,0,16,19Zm-.293.707A1,1,0,0,1,13,20v2a3,3,0,0,0,2.121-.879ZM13,20H9v2h4ZM9,20a1,1,0,0,1-.707-.293L6.879,21.121A3,3,0,0,0,9,22Zm-.707-.293A1,1,0,0,1,8,19H6a3,3,0,0,0,.879,2.121ZM8,19V9H6V19ZM8,9A3.57,3.57,0,0,0,6.707,6.293C6.218,5.8,6,5.56,6,5H4A3.57,3.57,0,0,0,5.293,7.707C5.782,8.2,6,8.44,6,9ZM6,2H17V0H6ZM16,1V5h2V1Zm0,4c0,.56-.218.8-.707,1.293A3.57,3.57,0,0,0,14,9h2c0-.56.218-.8.707-1.293A3.57,3.57,0,0,0,18,5ZM14,9v1h2V9ZM10,6h7V4H10ZM.293,1.707l20,20,1.414-1.414-20-20Z" transform="translate(0)" fill="#09090b"/>
</svg>
