<svg id="flask-round" xmlns="http://www.w3.org/2000/svg" width="15" height="21.995" viewBox="0 0 15 21.995">
  <path id="Vector" d="M6.5,1.01a1,1,0,0,0-2,0Zm-2,7.31a1,1,0,0,0,2,0Zm5-.01h-1a1,1,0,0,0,.692.951ZM10.5,1a1,1,0,0,0-2,0ZM4,.01a1,1,0,0,0,0,2Zm7,2a1,1,0,0,0,0-2ZM7.5,20.995v0ZM5.808,9.262a1,1,0,0,0-.615-1.9ZM1.02,14.01a1,1,0,0,0,0,2Zm12.96,2a1,1,0,1,0,0-2ZM4.5,1.01V8.32h2V1.01Zm6,7.3V1h-2V8.31ZM4,2.01h7v-2H4ZM9.192,9.261a5.5,5.5,0,0,1,2.994,2.355l1.7-1.047A7.5,7.5,0,0,0,9.808,7.359Zm2.994,2.355a5.5,5.5,0,0,1,.746,3.735l1.976.311a7.5,7.5,0,0,0-1.018-5.094Zm.746,3.735a5.5,5.5,0,0,1-1.859,3.324l1.3,1.52a7.5,7.5,0,0,0,2.536-4.533Zm-1.86,3.324A5.5,5.5,0,0,1,7.5,19.995v2a7.5,7.5,0,0,0,4.873-1.8ZM7.5,19.995a5.5,5.5,0,0,1-3.573-1.319l-1.3,1.52a7.5,7.5,0,0,0,4.873,1.8ZM3.927,18.676a5.5,5.5,0,0,1-1.859-3.324l-1.976.311A7.5,7.5,0,0,0,2.627,20.2ZM2.067,15.351a5.5,5.5,0,0,1,.746-3.735l-1.7-1.047A7.5,7.5,0,0,0,.092,15.663Zm.746-3.735A5.5,5.5,0,0,1,5.808,9.262l-.615-1.9a7.5,7.5,0,0,0-4.083,3.211ZM1.02,16.01H13.98v-2H1.02Z" transform="translate(0)" fill="#09090b"/>
</svg>
