<svg id="flip-horizontal" xmlns="http://www.w3.org/2000/svg" width="20" height="22" viewBox="0 0 20 22">
  <path id="Vector" d="M6,3A1,1,0,0,0,6,1ZM3,2V2ZM1,4H1ZM6,21a1,1,0,0,0,0-2ZM14,1a1,1,0,0,0,0,2Zm3,1V2ZM14,19a1,1,0,0,0,0,2Zm-3,0a1,1,0,0,0-2,0ZM9,21a1,1,0,0,0,2,0Zm2-8a1,1,0,0,0-2,0ZM9,15a1,1,0,0,0,2,0Zm2-8A1,1,0,0,0,9,7ZM9,9a1,1,0,0,0,2,0Zm2-8A1,1,0,0,0,9,1ZM9,3a1,1,0,0,0,2,0ZM6,1H3V3H6ZM3,1a3,3,0,0,0-2.121.879L2.293,3.293A1,1,0,0,1,3,3ZM.879,1.879A3,3,0,0,0,0,4H2a1,1,0,0,1,.293-.707ZM0,4V18H2V4ZM0,18a3.006,3.006,0,0,0,3,3V19a1.006,1.006,0,0,1-1-1Zm3,3H6V19H3ZM14,3h3V1H14Zm3,0a1,1,0,0,1,.707.293l1.414-1.414A3,3,0,0,0,17,1Zm.707.293A1,1,0,0,1,18,4h2a3,3,0,0,0-.879-2.121ZM18,4V18h2V4Zm0,14a1,1,0,0,1-.293.707l1.414,1.414A3,3,0,0,0,20,18Zm-.293.707A1,1,0,0,1,17,19v2a3,3,0,0,0,2.121-.879ZM17,19H14v2h3ZM9,19v2h2V19Zm0-6v2h2V13ZM9,7V9h2V7ZM9,1V3h2V1Z" fill="#09090b"/>
</svg>
