<svg id="flip-vertical" xmlns="http://www.w3.org/2000/svg" width="22" height="20" viewBox="0 0 22 20">
  <path id="Vector" d="M19,6a1,1,0,0,0,2,0ZM18,1V1ZM4,1V1ZM2,3H2ZM1,6A1,1,0,0,0,3,6Zm20,8a1,1,0,0,0-2,0ZM2,17H2Zm1-3a1,1,0,0,0-2,0Zm0-3A1,1,0,0,0,3,9ZM1,9a1,1,0,0,0,0,2Zm8,2A1,1,0,0,0,9,9ZM7,9a1,1,0,0,0,0,2Zm8,2a1,1,0,0,0,0-2ZM13,9a1,1,0,0,0,0,2Zm8,2a1,1,0,0,0,0-2ZM19,9a1,1,0,0,0,0,2Zm2-3V3H19V6Zm0-3A3,3,0,0,0,20.121.879L18.707,2.293A1,1,0,0,1,19,3ZM20.121.879A3,3,0,0,0,18,0V2a1,1,0,0,1,.707.293ZM18,0H4V2H18ZM4,0A3,3,0,0,0,1.879.879L3.293,2.293A1,1,0,0,1,4,2ZM1.879.879A3,3,0,0,0,1,3H3a1,1,0,0,1,.293-.707ZM1,3V6H3V3ZM19,14v3h2V14Zm0,3a1,1,0,0,1-.293.707l1.414,1.414A3,3,0,0,0,21,17Zm-.293.707A1,1,0,0,1,18,18v2a3,3,0,0,0,2.121-.879ZM18,18H4v2H18ZM4,18a1,1,0,0,1-.707-.293L1.879,19.121A3,3,0,0,0,4,20Zm-.707-.293A1,1,0,0,1,3,17H1a3,3,0,0,0,.879,2.121ZM3,17V14H1v3ZM3,9H1v2H3ZM9,9H7v2H9Zm6,0H13v2h2Zm6,0H19v2h2Z" fill="#09090b"/>
</svg>
