<svg id="flip-horizontal-2" xmlns="http://www.w3.org/2000/svg" width="20" height="22" viewBox="0 0 20 22">
  <path id="Vector" d="M1,6l.707-.707A1,1,0,0,0,0,6Zm5,5,.707.707a1,1,0,0,0,0-1.414ZM1,16H0a1,1,0,0,0,1.707.707ZM19,6h1a1,1,0,0,0-1.707-.707Zm-5,5-.707-.707a1,1,0,0,0,0,1.414Zm5,5-.707.707A1,1,0,0,0,20,16Zm-8,3a1,1,0,0,0-2,0ZM9,21a1,1,0,0,0,2,0Zm2-8a1,1,0,0,0-2,0ZM9,15a1,1,0,0,0,2,0Zm2-8A1,1,0,0,0,9,7ZM9,9a1,1,0,0,0,2,0Zm2-8A1,1,0,0,0,9,1ZM9,3a1,1,0,0,0,2,0ZM.293,6.707l5,5,1.414-1.414-5-5Zm5,3.586-5,5,1.414,1.414,5-5ZM2,16V6H0V16ZM18.293,5.293l-5,5,1.414,1.414,5-5Zm-5,6.414,5,5,1.414-1.414-5-5ZM20,16V6H18V16ZM9,19v2h2V19Zm0-6v2h2V13ZM9,7V9h2V7ZM9,1V3h2V1Z" transform="translate(0)" fill="#09090b"/>
</svg>
