<svg id="flower" xmlns="http://www.w3.org/2000/svg" width="20" height="20" viewBox="0 0 20 20">
  <path id="Vector" d="M10,14.5h0ZM5.5,10v1h0ZM10,5.5h0ZM14.5,10v1h0ZM6.707,5.293A1,1,0,0,0,5.293,6.707Zm.466,3.294A1,1,0,0,0,8.587,7.173Zm4.24-1.414a1,1,0,1,0,1.414,1.414Zm3.294-.466a1,1,0,0,0-1.414-1.414ZM5.293,13.293a1,1,0,0,0,1.414,1.414Zm3.294-.466a1,1,0,1,0-1.414-1.414Zm4.24-1.414a1,1,0,0,0-1.414,1.414Zm.466,3.294a1,1,0,0,0,1.414-1.414ZM12,10a2,2,0,0,1-2,2v2a4,4,0,0,0,4-4Zm-2,2a2,2,0,0,1-2-2H6a4,4,0,0,0,4,4ZM8,10a2,2,0,0,1,2-2V6a4,4,0,0,0-4,4Zm2-2a2,2,0,0,1,2,2h2a4,4,0,0,0-4-4ZM9,14.5a3.5,3.5,0,0,1-.59,1.944l1.663,1.111A5.5,5.5,0,0,0,11,14.5Zm-.59,1.944a3.5,3.5,0,0,1-1.571,1.289L7.6,19.581a5.5,5.5,0,0,0,2.468-2.026ZM6.839,17.734a3.5,3.5,0,0,1-2.022.2l-.39,1.962A5.5,5.5,0,0,0,7.6,19.581Zm-2.022.2a3.5,3.5,0,0,1-1.792-.958L1.611,18.389a5.5,5.5,0,0,0,2.816,1.505Zm-1.792-.958a3.5,3.5,0,0,1-.958-1.792l-1.962.39a5.5,5.5,0,0,0,1.505,2.816Zm-.958-1.792a3.5,3.5,0,0,1,.2-2.022L.419,12.4a5.5,5.5,0,0,0-.313,3.178Zm.2-2.022A3.5,3.5,0,0,1,3.556,11.59L2.444,9.927A5.5,5.5,0,0,0,.419,12.4ZM3.556,11.59A3.5,3.5,0,0,1,5.5,11V9a5.5,5.5,0,0,0-3.056.927ZM5.5,9a3.5,3.5,0,0,1-1.944-.59L2.444,10.073A5.5,5.5,0,0,0,5.5,11ZM3.556,8.41A3.5,3.5,0,0,1,2.266,6.839L.419,7.6a5.5,5.5,0,0,0,2.026,2.468ZM2.266,6.839a3.5,3.5,0,0,1-.2-2.022L.106,4.427A5.5,5.5,0,0,0,.419,7.6Zm-.2-2.022a3.5,3.5,0,0,1,.958-1.792L1.611,1.611A5.5,5.5,0,0,0,.106,4.427Zm.958-1.792a3.5,3.5,0,0,1,1.792-.958L4.427.106A5.5,5.5,0,0,0,1.611,1.611Zm1.792-.958a3.5,3.5,0,0,1,2.022.2L7.6.419A5.5,5.5,0,0,0,4.427.106Zm2.022.2A3.5,3.5,0,0,1,8.41,3.556l1.663-1.111A5.5,5.5,0,0,0,7.6.419ZM8.41,3.556A3.5,3.5,0,0,1,9,5.5h2a5.5,5.5,0,0,0-.927-3.056ZM11,5.5a3.5,3.5,0,0,1,.59-1.944L9.927,2.444A5.5,5.5,0,0,0,9,5.5Zm.59-1.944a3.5,3.5,0,0,1,1.571-1.289L12.4.419A5.5,5.5,0,0,0,9.927,2.444Zm1.571-1.289a3.5,3.5,0,0,1,2.022-.2l.39-1.962A5.5,5.5,0,0,0,12.4.419Zm2.022-.2a3.5,3.5,0,0,1,1.792.958l1.414-1.414A5.5,5.5,0,0,0,15.573.106Zm1.792.958a3.5,3.5,0,0,1,.958,1.792l1.962-.39a5.5,5.5,0,0,0-1.505-2.816Zm.958,1.792a3.5,3.5,0,0,1-.2,2.022l1.848.765a5.5,5.5,0,0,0,.313-3.178Zm-.2,2.022A3.5,3.5,0,0,1,16.444,8.41l1.111,1.663A5.5,5.5,0,0,0,19.581,7.6ZM16.444,8.41A3.5,3.5,0,0,1,14.5,9v2a5.5,5.5,0,0,0,3.056-.927ZM14.5,11a3.5,3.5,0,0,1,1.944.59l1.111-1.663A5.5,5.5,0,0,0,14.5,9Zm1.944.59a3.5,3.5,0,0,1,1.289,1.571l1.848-.765a5.5,5.5,0,0,0-2.026-2.468Zm1.289,1.571a3.5,3.5,0,0,1,.2,2.022l1.962.39a5.5,5.5,0,0,0-.313-3.178Zm.2,2.022a3.5,3.5,0,0,1-.958,1.792l1.414,1.414a5.5,5.5,0,0,0,1.505-2.816Zm-.958,1.792a3.5,3.5,0,0,1-1.792.958l.39,1.962a5.5,5.5,0,0,0,2.816-1.505Zm-1.792.958a3.5,3.5,0,0,1-2.022-.2L12.4,19.581a5.5,5.5,0,0,0,3.178.313Zm-2.022-.2a3.5,3.5,0,0,1-1.571-1.289L9.927,17.556A5.5,5.5,0,0,0,12.4,19.581ZM11.59,16.444A3.5,3.5,0,0,1,11,14.5H9a5.5,5.5,0,0,0,.927,3.056ZM9,5.5V7h2V5.5ZM5.5,11H7V9H5.5Zm9-2H13v2h1.5ZM11,14.5V13H9v1.5ZM5.293,6.707l1.88,1.88L8.587,7.173l-1.88-1.88Zm7.534,1.88,1.88-1.88L13.293,5.293l-1.88,1.88Zm-6.12,6.12,1.88-1.88L7.173,11.413l-1.88,1.88Zm4.706-1.88,1.88,1.88,1.414-1.414-1.88-1.88Z" transform="translate(0 0)" fill="#09090b"/>
</svg>
