<svg id="folder-cog" xmlns="http://www.w3.org/2000/svg" width="22" height="20.7" viewBox="0 0 22 20.7">
  <path id="Vector" d="M9.3,19a1,1,0,0,0,0-2ZM1,16H1ZM3,1V1ZM6.9,1V2h.01Zm1.69.9-.835.55.006.009ZM9.4,3.1l.835-.55-.006-.009Zm1.67.9V5h0ZM19,4V4Zm1,5.3a1,1,0,1,0,2,0Zm.384,9.049a1,1,0,0,0,.632-1.9Zm-.267-2.2a1,1,0,0,0-.632,1.9Zm-6.233-.3a1,1,0,0,0,.633-1.9Zm-.267-2.2a1,1,0,0,0-.633,1.9Zm1.035,5.732a1,1,0,0,0,1.9.632Zm2.2-.267a1,1,0,0,0-1.9-.632Zm.3-6.233a1,1,0,0,0,1.9.633Zm2.2-.267a1,1,0,0,0-1.9-.633Zm-1.677,7.455a1,1,0,0,0,1.857-.743Zm1.457-1.743a1,1,0,1,0-1.857.743Zm-4.257-4.657a1,1,0,0,0,1.857-.743Zm1.457-1.743a1,1,0,0,0-1.857.743Zm-3.4,4.743a1,1,0,0,0,.743,1.857Zm1.743,1.457a1,1,0,0,0-.743-1.857Zm4.657-4.257a1,1,0,0,0,.743,1.857Zm1.743,1.457a1,1,0,0,0-.743-1.857ZM19,16a2,2,0,0,1-2,2v2a4,4,0,0,0,4-4Zm-2,2a2,2,0,0,1-2-2H13a4,4,0,0,0,4,4Zm-2-2a2,2,0,0,1,2-2V12a4,4,0,0,0-4,4Zm2-2a2,2,0,0,1,2,2h2a4,4,0,0,0-4-4ZM9.3,17H3v2H9.3ZM3,17a1,1,0,0,1-.707-.293L.879,18.121A3,3,0,0,0,3,19Zm-.707-.293A1,1,0,0,1,2,16H0a3,3,0,0,0,.879,2.121ZM2,16V3H0V16ZM2,3a1,1,0,0,1,.293-.707L.879.879A3,3,0,0,0,0,3Zm.293-.707A1,1,0,0,1,3,2V0A3,3,0,0,0,.879.879ZM3,2H6.9V0H3ZM6.91,2a1,1,0,0,1,.48.117L8.33.352A3,3,0,0,0,6.89,0Zm.48.117a1,1,0,0,1,.365.333l1.67-1.1a3,3,0,0,0-1.1-1Zm.372.342.81,1.2,1.658-1.119-.81-1.2Zm.8,1.191a3,3,0,0,0,1.082.991L10.6,2.88a1,1,0,0,1-.361-.33Zm1.082.991A3,3,0,0,0,11.07,5V3a1,1,0,0,1-.474-.12ZM11.07,5H19V3H11.07ZM19,5a1,1,0,0,1,.707.293l1.414-1.414A3,3,0,0,0,19,3Zm.707.293A1,1,0,0,1,20,6h2a3,3,0,0,0-.879-2.121ZM20,6V9.3h2V6Zm1.016,10.451-.9-.3-.632,1.9.9.3Zm-6.5-2.5-.9-.3-.632,1.9.9.3Zm2.032,6.065.3-.9-1.9-.632-.3.9Zm2.5-6.5.3-.9-1.9-.632-.3.9Zm.48,5.812-.4-1-1.857.743.4,1Zm-2.8-6.4-.4-1-1.857.743.4,1Zm-3.057,5.6,1-.4-.743-1.857-1,.4Zm6.4-2.8,1-.4-.743-1.857-1,.4Z" transform="translate(0 0)" fill="#09090b"/>
</svg>
