<svg id="folder-tree" xmlns="http://www.w3.org/2000/svg" width="20" height="20" viewBox="0 0 20 20">
  <path id="Vector" d="M14.7,2.6l.8-.6h0Zm-.9-1.2L13,2h0ZM11,1V1Zm4.1,13-.013,1H15.1Zm-.88-.55-.9.443,0,.007Zm-.42-.85-.917.4.02.043Zm-.92-.6v1h0ZM2,3A1,1,0,0,0,0,3ZM3,5V5ZM6,6A1,1,0,0,0,6,4ZM2,1A1,1,0,0,0,0,1ZM1,14H1Zm5,3a1,1,0,0,0,0-2ZM18,9a2,2,0,0,0,1.414-.586L18,7h0Zm1.414-.586A2,2,0,0,0,20,7H18ZM20,7V4H18V7Zm0-3a2,2,0,0,0-.586-1.414L18,4h2Zm-.586-1.414A2,2,0,0,0,18,2V4h0ZM18,2H15.5V4H18ZM15.5,2h0l-.894,1.789A2,2,0,0,0,15.5,4Zm0,0h0L13.9,3.2a2,2,0,0,0,.706.589Zm0,0L14.6.8,13,2l.9,1.2ZM14.6.8a2,2,0,0,0-.706-.589L13,2h0ZM13.894.211A2,2,0,0,0,13,0V2h0ZM13,0H11V2h2ZM11,0A2,2,0,0,0,9.586.586L11,2h0ZM9.586.586A2,2,0,0,0,9,2h2ZM9,2V7h2V2ZM9,7a2,2,0,0,0,.586,1.414L11,7H9Zm.586,1.414A2,2,0,0,0,11,9V7h0ZM11,9h7V7H11Zm7,11a2,2,0,0,0,1.414-.586L18,18h0Zm1.414-.586A2,2,0,0,0,20,18H18ZM20,18V15H18v3Zm0-3a2,2,0,0,0-.586-1.414L18,15h2Zm-.586-1.414A2,2,0,0,0,18,13v2h0ZM18,13H15.1v2H18Zm-2.887,0h0l-1.06,1.7a2,2,0,0,0,1.034.3Zm0,0h0l-1.786.9a2,2,0,0,0,.726.8Zm0,.007-.42-.85-1.793.886.42.85Zm-.4-.807a2,2,0,0,0-.741-.875L12.884,13h0Zm-.741-.875a2,2,0,0,0-1.1-.325l.007,2h0ZM12.88,11H11v2h1.88ZM11,11a2,2,0,0,0-1.414.586L11,13h0Zm-1.414.586A2,2,0,0,0,9,13h2ZM9,13v5h2V13Zm0,5a2,2,0,0,0,.586,1.414L11,18H9Zm.586,1.414A2,2,0,0,0,11,20V18h0ZM11,20h7V18H11ZM0,3A3,3,0,0,0,.879,5.121L2.293,3.707A1,1,0,0,1,2,3ZM.879,5.121A3,3,0,0,0,3,6V4a1,1,0,0,1-.707-.293ZM3,6H6V4H3ZM0,1V14H2V1ZM0,14a3,3,0,0,0,.879,2.121l1.414-1.414A1,1,0,0,1,2,14Zm.879,2.121A3,3,0,0,0,3,17V15a1,1,0,0,1-.707-.293ZM3,17H6V15H3Z" fill="#09090b"/>
</svg>
