<svg id="folder-open" xmlns="http://www.w3.org/2000/svg" width="22.003" height="19" viewBox="0 0 22.003 19">
  <path id="Vector" d="M4.112,11.541a1,1,0,0,0,1.776.919ZM6.5,9.1l.888.459,0-.01ZM8.24,8V7H8.217ZM19,8V9h0Zm1.94,2.5-.968-.25h0Zm-1.54,6,.968.25h0ZM17.45,18l.007-1H17.45ZM1,16H1ZM3,1V1ZM6.9,1V2h.01Zm1.69.9-.835.55.006.009ZM9.4,3.1l.835-.55-.006-.009Zm1.67.9V5h0ZM17,4V4ZM5.888,12.46l1.5-2.9L5.612,8.641l-1.5,2.9Zm1.5-2.91a1,1,0,0,1,.359-.4L6.683,7.464A3,3,0,0,0,5.607,8.65Zm.359-.4A1,1,0,0,1,8.263,9L8.217,7a3,3,0,0,0-1.534.463ZM8.24,9H19V7H8.24ZM19,9a1,1,0,0,1,.441.1l.878-1.8A3,3,0,0,0,19,7Zm.441.1a1,1,0,0,1,.351.285l1.58-1.226A3,3,0,0,0,20.321,7.3Zm.351.285a1,1,0,0,1,.189.411l1.959-.4a3,3,0,0,0-.568-1.233Zm.189.411a1,1,0,0,1-.011.452l1.936.5a3,3,0,0,0,.033-1.357Zm-.011.454-1.54,6,1.937.5,1.54-6Zm-1.54,6a1,1,0,0,1-.358.543l1.219,1.585a3,3,0,0,0,1.076-1.628Zm-.358.543a1,1,0,0,1-.617.207l-.013,2a3,3,0,0,0,1.849-.622ZM17.45,17H3v2H17.45ZM3,17a1,1,0,0,1-.707-.293L.879,18.121A3,3,0,0,0,3,19Zm-.707-.293A1,1,0,0,1,2,16H0a3,3,0,0,0,.879,2.121ZM2,16V3H0V16ZM2,3a1,1,0,0,1,.293-.707L.879.879A3,3,0,0,0,0,3Zm.293-.707A1,1,0,0,1,3,2V0A3,3,0,0,0,.879.879ZM3,2H6.9V0H3ZM6.91,2a1,1,0,0,1,.48.117L8.33.352A3,3,0,0,0,6.89,0Zm.48.117a1,1,0,0,1,.365.333l1.67-1.1a3,3,0,0,0-1.1-1Zm.372.342.81,1.2,1.658-1.119-.81-1.2Zm.8,1.191a3,3,0,0,0,1.082.991L10.6,2.88a1,1,0,0,1-.361-.33Zm1.082.991A3,3,0,0,0,11.07,5V3a1,1,0,0,1-.474-.12ZM11.07,5H17V3H11.07ZM17,5a1,1,0,0,1,.707.293l1.414-1.414A3,3,0,0,0,17,3Zm.707.293A1,1,0,0,1,18,6h2a3,3,0,0,0-.879-2.121ZM18,6V8h2V6Z" transform="translate(0 0)" fill="#09090b"/>
</svg>
