<svg id="folder-x" xmlns="http://www.w3.org/2000/svg" width="22" height="19" viewBox="0 0 22 19">
  <path id="Vector" d="M19,4V4ZM11.1,4V3h-.01ZM9.41,3.1l.835-.55-.006-.009ZM8.6,1.9l-.835.55.006.009ZM6.93,1V0h0ZM3,1V1ZM1,3H1ZM1,16H1ZM9.207,7.793A1,1,0,0,0,7.793,9.207Zm3.586,6.414a1,1,0,0,0,1.414-1.414Zm1.414-5a1,1,0,1,0-1.414-1.414ZM7.793,12.793a1,1,0,0,0,1.414,1.414ZM19,19a3,3,0,0,0,2.121-.879l-1.414-1.414A1,1,0,0,1,19,17Zm2.121-.879A3,3,0,0,0,22,16H20a1,1,0,0,1-.293.707ZM22,16V6H20V16ZM22,6a3,3,0,0,0-.879-2.121L19.707,5.293A1,1,0,0,1,20,6Zm-.879-2.121A3,3,0,0,0,19,3V5a1,1,0,0,1,.707.293ZM19,3H11.1V5H19ZM11.09,3a1,1,0,0,1-.48-.117L9.67,4.648A3,3,0,0,0,11.11,5Zm-.48-.117a1,1,0,0,1-.365-.333l-1.67,1.1a3,3,0,0,0,1.1,1Zm-.372-.342-.81-1.2L7.771,2.459l.81,1.2Zm-.8-1.191A3,3,0,0,0,8.353.359L7.4,2.12a1,1,0,0,1,.361.33ZM8.353.359A3,3,0,0,0,6.93,0V2a1,1,0,0,1,.474.12ZM6.93,0H3V2H6.93ZM3,0A3,3,0,0,0,.879.879L2.293,2.293A1,1,0,0,1,3,2ZM.879.879A3,3,0,0,0,0,3H2a1,1,0,0,1,.293-.707ZM0,3V16H2V3ZM0,16a3,3,0,0,0,.879,2.121l1.414-1.414A1,1,0,0,1,2,16Zm.879,2.121A3,3,0,0,0,3,19V17a1,1,0,0,1-.707-.293ZM3,19H19V17H3ZM7.793,9.207l5,5,1.414-1.414-5-5Zm5-1.414-5,5,1.414,1.414,5-5Z" fill="#09090b"/>
</svg>
