<svg id="folder-pen" xmlns="http://www.w3.org/2000/svg" width="22" height="19" viewBox="0 0 22 19">
  <path id="Vector" d="M0,9.5a1,1,0,0,0,2,0ZM3,1V1Zm5.6.9.832-.555h0Zm.8,1.2-.832.555h0ZM19,4V4ZM9.5,17a1,1,0,0,0,0,2Zm.878-5.374.707.707h0Zm.622-1.5h0Zm-3.626-1.5-.707-.707h0Zm-5.01,5.012.707.707h0Zm-.506.854-.96-.28h0Zm-.837,2.87.96.28h0Zm.62.62-.28-.96h0Zm2.87-.837.28.96h0Zm.854-.506-.707-.707h0ZM2,9.5V3H0V9.5ZM2,3a1,1,0,0,1,.293-.707L.879.879A3,3,0,0,0,0,3Zm.293-.707A1,1,0,0,1,3,2V0A3,3,0,0,0,.879.879ZM3,2H6.9V0H3ZM6.9,2a.968.968,0,0,1,.868.455L9.432,1.345A2.964,2.964,0,0,0,6.9,0Zm.868.455.8,1.2,1.664-1.109-.8-1.2Zm.8,1.2A2.964,2.964,0,0,0,11.1,5V3a.968.968,0,0,1-.868-.455ZM11.1,5H19V3H11.1ZM19,5a1,1,0,0,1,.707.293l1.414-1.414A3,3,0,0,0,19,3Zm.707.293A1,1,0,0,1,20,6h2a3,3,0,0,0-.879-2.121ZM20,6V16h2V6Zm0,10a1,1,0,0,1-.293.707l1.414,1.414A3,3,0,0,0,22,16Zm-.293.707A1,1,0,0,1,19,17v2a3,3,0,0,0,2.121-.879ZM19,17H9.5v2H19Zm-7.915-4.667a3.124,3.124,0,0,0,.677-1.014l-1.848-.765a1.124,1.124,0,0,1-.244.365Zm.677-1.014a3.125,3.125,0,0,0,.238-1.2H10a1.124,1.124,0,0,1-.086.43Zm.238-1.2a3.124,3.124,0,0,0-.238-1.2l-1.848.765a1.124,1.124,0,0,1,.086.43Zm-.238-1.2a3.124,3.124,0,0,0-.677-1.014L9.671,9.329a1.124,1.124,0,0,1,.244.365Zm-.677-1.014a3.124,3.124,0,0,0-1.014-.677L9.306,9.085a1.124,1.124,0,0,1,.365.244Zm-1.014-.677A3.124,3.124,0,0,0,8.876,7V9a1.124,1.124,0,0,1,.43.086ZM8.876,7a3.124,3.124,0,0,0-1.2.238l.765,1.848A1.124,1.124,0,0,1,8.876,9Zm-1.2.238a3.124,3.124,0,0,0-1.014.677L8.081,9.329a1.124,1.124,0,0,1,.365-.244Zm-1.014.677-5.01,5.012,1.414,1.414,5.01-5.012Zm-5.01,5.012A3,3,0,0,0,.9,14.208l1.92.561a1,1,0,0,1,.253-.427ZM.9,14.208l-.837,2.87,1.92.56.837-2.87Zm-.837,2.87a1.5,1.5,0,0,0-.013.792l1.937-.5a.5.5,0,0,1,0,.264Zm-.013.792a1.5,1.5,0,0,0,.392.688l1.414-1.414a.5.5,0,0,1,.131.229Zm.392.688a1.5,1.5,0,0,0,.688.392l.5-1.937a.5.5,0,0,1,.229.131Zm.688.392a1.5,1.5,0,0,0,.792-.013l-.56-1.92a.5.5,0,0,1,.264,0Zm.792-.013,2.87-.837-.56-1.92-2.87.837Zm2.87-.837a3,3,0,0,0,1.281-.759L4.658,15.928a1,1,0,0,1-.427.253Zm1.281-.758,5.013-5.009L9.671,10.919,4.658,15.928Z" fill="#09090b"/>
</svg>
