<svg id="folder-archive" xmlns="http://www.w3.org/2000/svg" width="22" height="20" viewBox="0 0 22 20">
  <path id="Vector" d="M19.45,16.907a1,1,0,1,0,.9,1.786ZM21,16H20v.007ZM19,4V4ZM11.1,4V3h-.01ZM9.41,3.1l.835-.55-.006-.009ZM8.6,1.9l-.835.55.006.009ZM6.93,1V0h0ZM3,1V1ZM1,3H1ZM1,16H1Zm7.1,3a1,1,0,0,0,0-2ZM13,9a1,1,0,0,0,2,0Zm2-1a1,1,0,0,0-2,0Zm0,5a1,1,0,0,0-2,0Zm0,4a1,1,0,0,1-1,1v2a3,3,0,0,0,3-3Zm-1,1a1,1,0,0,1-1-1H11a3,3,0,0,0,3,3Zm-1-1a1,1,0,0,1,1-1V14a3,3,0,0,0-3,3Zm1-1a1,1,0,0,1,1,1h2a3,3,0,0,0-3-3Zm6.35,2.693a3,3,0,0,0,1.21-1.115l-1.707-1.043a1,1,0,0,1-.4.372Zm1.21-1.115A3,3,0,0,0,22,15.993l-2,.014a1,1,0,0,1-.147.528ZM22,16V6H20V16ZM22,6a3,3,0,0,0-.879-2.121L19.707,5.293A1,1,0,0,1,20,6Zm-.879-2.121A3,3,0,0,0,19,3V5a1,1,0,0,1,.707.293ZM19,3H11.1V5H19ZM11.09,3a1,1,0,0,1-.48-.117L9.67,4.648A3,3,0,0,0,11.11,5Zm-.48-.117a1,1,0,0,1-.365-.333l-1.67,1.1a3,3,0,0,0,1.1,1Zm-.372-.342-.81-1.2L7.771,2.459l.81,1.2Zm-.8-1.191A3,3,0,0,0,8.353.359L7.4,2.12a1,1,0,0,1,.361.33ZM8.353.359A3,3,0,0,0,6.93,0V2a1,1,0,0,1,.474.12ZM6.93,0H3V2H6.93ZM3,0A3,3,0,0,0,.879.879L2.293,2.293A1,1,0,0,1,3,2ZM.879.879A3,3,0,0,0,0,3H2a1,1,0,0,1,.293-.707ZM0,3V16H2V3ZM0,16a3,3,0,0,0,.879,2.121l1.414-1.414A1,1,0,0,1,2,16Zm.879,2.121A3,3,0,0,0,3,19V17a1,1,0,0,1-.707-.293ZM3,19H8.1V17H3ZM15,9V8H13V9Zm0,6V13H13v2Z" fill="#09090b"/>
</svg>
