<svg id="framer" xmlns="http://www.w3.org/2000/svg" width="16" height="23" viewBox="0 0 16 23">
  <path id="Vector" d="M1,15H0a1,1,0,0,0,.293.707ZM1,8V7A1,1,0,0,0,0,8ZM15,8V9a1,1,0,0,0,1-1Zm0-7h1a1,1,0,0,0-1-1ZM1,1V0A1,1,0,0,0,.293,1.707ZM15,15v1a1,1,0,0,0,.707-1.707ZM8,22l-.707.707A1,1,0,0,0,9,22ZM2,15V8H0v7ZM1,9H15V7H1ZM16,8V1H14V8ZM15,0H1V2H15ZM.293,1.707l14,14,1.414-1.414-14-14ZM15,14H8v2h7ZM.293,15.707l7,7,1.414-1.414-7-7ZM9,22V15H7v7ZM1,16H8V14H1Z" transform="translate(0)" fill="#09090b"/>
</svg>
