<svg id="fuel" xmlns="http://www.w3.org/2000/svg" width="21" height="22" viewBox="0 0 21 22">
  <path id="Vector" d="M1,20a1,1,0,0,0,0,2Zm12,2a1,1,0,0,0,0-2ZM2,7A1,1,0,0,0,2,9ZM12,9a1,1,0,0,0,0-2ZM11,21a1,1,0,0,0,2,0ZM10,1V1ZM4,1V1ZM2,3H2ZM1,21a1,1,0,0,0,2,0ZM12,11a1,1,0,0,0,0,2Zm8-2.17h0Zm-.59-1.42-.707.707,0,0Zm-2.7-4.117a1,1,0,1,0-1.414,1.414ZM1,22H13V20H1ZM2,9H12V7H2ZM13,21V3H11V21ZM13,3A3,3,0,0,0,12.121.879L10.707,2.293A1,1,0,0,1,11,3ZM12.121.879A3,3,0,0,0,10,0V2a1,1,0,0,1,.707.293ZM10,0H4V2h6ZM4,0A3,3,0,0,0,1.879.879L3.293,2.293A1,1,0,0,1,4,2ZM1.879.879A3,3,0,0,0,1,3H3a1,1,0,0,1,.293-.707ZM1,3V21H3V3ZM12,13h2V11H12Zm2,0a1,1,0,0,1,.707.293l1.414-1.414A3,3,0,0,0,14,11Zm.707.293A1,1,0,0,1,15,14h2a3,3,0,0,0-.879-2.121ZM15,14v2h2V14Zm0,2a3,3,0,0,0,.879,2.121l1.414-1.414A1,1,0,0,1,17,16Zm.879,2.121A3,3,0,0,0,18,19V17a1,1,0,0,1-.707-.293ZM18,19a3,3,0,0,0,2.121-.879l-1.414-1.414A1,1,0,0,1,18,17Zm2.121-.879A3,3,0,0,0,21,16H19a1,1,0,0,1-.293.707ZM21,16V8.83H19V16Zm0-7.169a3,3,0,0,0-.23-1.153l-1.847.767A1,1,0,0,1,19,8.829Zm-.23-1.153a3,3,0,0,0-.655-.977L18.7,8.119a1,1,0,0,1,.219.326ZM20.117,6.7l-3.41-3.41L15.293,4.707l3.41,3.41Z" fill="#09090b"/>
</svg>
