<svg id="gamepad" xmlns="http://www.w3.org/2000/svg" width="22" height="14" viewBox="0 0 22 14">
  <path id="Vector" d="M5,6A1,1,0,0,0,5,8ZM9,8A1,1,0,0,0,9,6ZM8,5A1,1,0,0,0,6,5ZM6,9A1,1,0,0,0,8,9Zm8-2a1,1,0,0,0,0,2Zm.01,2a1,1,0,0,0,0-2ZM17,5a1,1,0,0,0,0,2Zm.01,2a1,1,0,0,0,0-2ZM5,8H9V6H5ZM6,5V9H8V5Zm8,4h.01V7H14Zm3-2h.01V5H17ZM3,2H19V0H3ZM19,2a1,1,0,0,1,1,1h2a3,3,0,0,0-3-3Zm1,1v8h2V3Zm0,8a1,1,0,0,1-1,1v2a3,3,0,0,0,3-3Zm-1,1H3v2H19ZM3,12a1,1,0,0,1-1-1H0a3,3,0,0,0,3,3ZM2,11V3H0v8ZM2,3A1,1,0,0,1,3,2V0A3,3,0,0,0,0,3Z" fill="#09090b"/>
</svg>
