<svg id="gem" xmlns="http://www.w3.org/2000/svg" width="22" height="21" viewBox="0 0 22 21">
  <path id="Vector" d="M5,1V0a1,1,0,0,0-.832.445ZM17,1l.832-.555A1,1,0,0,0,17,0Zm4,6,.793.61a1,1,0,0,0,.039-1.164ZM11,20l-.793.61a1,1,0,0,0,1.585,0ZM1,7,.168,6.446A1,1,0,0,0,.207,7.61Zm9.894-5.553A1,1,0,0,0,9.106.553ZM7,7l-.894-.447a1,1,0,0,0-.061.741Zm8,0,.956.294a1,1,0,0,0-.061-.741ZM12.894.553a1,1,0,1,0-1.789.894ZM5,2H17V0H5Zm11.168-.445,4,6,1.664-1.109-4-6Zm4.039,4.836-10,13,1.585,1.219,10-13Zm-8.415,13-10-13L.207,7.61l10,13ZM1.832,7.555l4-6L4.168.446l-4,6Zm7.274-7-3,6,1.789.894,3-6ZM6.044,7.294l4,13,1.912-.588-4-13Zm5.912,13,4-13-1.912-.588-4,13ZM15.894,6.553l-3-6-1.789.894,3,6ZM1,8H21V6H1Z" transform="translate(0 0)" fill="#09090b"/>
</svg>
