<svg id="ghost" xmlns="http://www.w3.org/2000/svg" width="18" height="22" viewBox="0 0 18 22">
  <path id="Vector" d="M6,8a1,1,0,0,0,0,2Zm.01,2a1,1,0,0,0,0-2ZM12,8a1,1,0,0,0,0,2Zm.01,2a1,1,0,0,0,0-2ZM9,1V1ZM1,9H1ZM1,21H0a1,1,0,0,0,1.707.707Zm3-3,.707-.707a1,1,0,0,0-1.414,0Zm2.5,2.5-.707.707a1,1,0,0,0,1.414,0ZM9,18l.707-.707a1,1,0,0,0-1.414,0Zm2.5,2.5-.707.707a1,1,0,0,0,1.414,0ZM14,18l.707-.707a1,1,0,0,0-1.414,0Zm3,3-.707.707A1,1,0,0,0,18,21ZM17,9h0ZM6,10h.01V8H6Zm6,0h.01V8H12ZM9,0A9,9,0,0,0,2.636,2.636L4.05,4.05A7,7,0,0,1,9,2ZM2.636,2.636A9,9,0,0,0,0,9H2A7,7,0,0,1,4.05,4.05ZM0,9V21H2V9ZM1.707,21.707l3-3L3.293,17.293l-3,3Zm1.586-3,2.5,2.5,1.414-1.414-2.5-2.5Zm3.914,2.5,2.5-2.5L8.293,17.293l-2.5,2.5Zm1.086-2.5,2.5,2.5,1.414-1.414-2.5-2.5Zm3.914,2.5,2.5-2.5-1.414-1.414-2.5,2.5Zm1.086-2.5,3,3,1.414-1.414-3-3ZM18,21V9H16V21ZM18,9a9,9,0,0,0-2.636-6.364L13.95,4.05A7,7,0,0,1,16,9ZM15.364,2.636A9,9,0,0,0,9,0V2a7,7,0,0,1,4.95,2.05Z" fill="#09090b"/>
</svg>
