<svg id="gift" xmlns="http://www.w3.org/2000/svg" width="20" height="20" viewBox="0 0 20 20">
  <path id="Vector" d="M9,19a1,1,0,0,0,2,0Zm9-9a1,1,0,1,0-2,0ZM3,17H3Zm1-7a1,1,0,1,0-2,0ZM5.5,7a1,1,0,0,0,0-2ZM3,3.5H3ZM5.5,1V2h.017Zm9,0-.017,1H14.5Zm0,4a1,1,0,0,0,0,2ZM2,7H18V5H2ZM18,7h2a2,2,0,0,0-2-2Zm0,0V9h2V7Zm0,2v2a2,2,0,0,0,2-2Zm0,0H2v2H18ZM2,9H0a2,2,0,0,0,2,2ZM2,9V7H0V9ZM2,7V5A2,2,0,0,0,0,7ZM9,6V19h2V6Zm7,4v7h2V10Zm0,7a1,1,0,0,1-.293.707l1.414,1.414A3,3,0,0,0,18,17Zm-.293.707A1,1,0,0,1,15,18v2a3,3,0,0,0,2.121-.879ZM15,18H5v2H15ZM5,18a1,1,0,0,1-.707-.293L2.879,19.122A3,3,0,0,0,5,20Zm-.707-.293A1,1,0,0,1,4,17H2a3,3,0,0,0,.879,2.121ZM4,17V10H2v7ZM5.5,5a1.5,1.5,0,0,1-1.061-.439L3.025,5.975A3.5,3.5,0,0,0,5.5,7ZM4.439,4.561A1.5,1.5,0,0,1,4,3.5H2A3.5,3.5,0,0,0,3.025,5.975ZM4,3.5A1.5,1.5,0,0,1,4.439,2.44L3.025,1.026A3.5,3.5,0,0,0,2,3.5ZM4.439,2.44A1.5,1.5,0,0,1,5.5,2V0A3.5,3.5,0,0,0,3.025,1.026ZM5.517,2A2.613,2.613,0,0,1,7.469,3.013L8.956,1.675A4.592,4.592,0,0,0,5.483,0ZM7.469,3.013A7.485,7.485,0,0,1,9.028,6.236l1.944-.472a9.458,9.458,0,0,0-2.016-4.09Zm3.5,3.224a7.484,7.484,0,0,1,1.559-3.224L11.044,1.675a9.458,9.458,0,0,0-2.016,4.09Zm1.559-3.224A2.613,2.613,0,0,1,14.483,2l.035-2a4.592,4.592,0,0,0-3.473,1.674ZM14.5,2a1.5,1.5,0,0,1,1.061.439l1.414-1.414A3.5,3.5,0,0,0,14.5,0Zm1.061.439A1.5,1.5,0,0,1,16,3.5h2a3.5,3.5,0,0,0-1.025-2.475ZM16,3.5a1.5,1.5,0,0,1-.439,1.061l1.414,1.414A3.5,3.5,0,0,0,18,3.5Zm-.439,1.061A1.5,1.5,0,0,1,14.5,5V7a3.5,3.5,0,0,0,2.475-1.025Z" transform="translate(0 0)" fill="#09090b"/>
</svg>
