<svg id="git-pull-request-create-arrow" xmlns="http://www.w3.org/2000/svg" width="22" height="20" viewBox="0 0 22 20">
  <path id="Vector" d="M3,19a1,1,0,0,0,2,0ZM13.293,7.707a1,1,0,0,0,1.414-1.414ZM11,4l-.707-.707a1,1,0,0,0,0,1.414Zm3.707-2.293A1,1,0,0,0,13.293.293ZM16,4V4Zm1,5a1,1,0,0,0,2,0Zm2,4a1,1,0,0,0-2,0Zm-2,6a1,1,0,0,0,2,0Zm4-2a1,1,0,0,0,0-2Zm-6-2a1,1,0,0,0,0,2ZM6,4A2,2,0,0,1,4,6V8A4,4,0,0,0,8,4ZM4,6A2,2,0,0,1,2,4H0A4,4,0,0,0,4,8ZM2,4A2,2,0,0,1,4,2V0A4,4,0,0,0,0,4ZM4,2A2,2,0,0,1,6,4H8A4,4,0,0,0,4,0ZM3,7V19H5V7Zm11.707-.707-3-3L10.293,4.707l3,3Zm-3-1.586,3-3L13.293.293l-3,3ZM11,5h5V3H11Zm5,0a1,1,0,0,1,.707.293l1.414-1.414A3,3,0,0,0,16,3Zm.707.293A1,1,0,0,1,17,6h2a3,3,0,0,0-.879-2.121ZM17,6V9h2V6Zm0,7v6h2V13Zm4,2H15v2h6Z" fill="#09090b"/>
</svg>
