<svg id="git-pull-request-closed" xmlns="http://www.w3.org/2000/svg" width="20" height="20" viewBox="0 0 20 20">
  <path id="Vector" d="M3,19a1,1,0,0,0,2,0ZM19.707,1.707A1,1,0,0,0,18.293.293ZM12.293,6.293a1,1,0,0,0,1.414,1.414Zm6,1.414a1,1,0,0,0,1.414-1.414ZM13.707.293a1,1,0,0,0-1.414,1.414ZM17,9.5a1,1,0,0,0-2,0ZM6,4A2,2,0,0,1,4,6V8A4,4,0,0,0,8,4ZM4,6A2,2,0,0,1,2,4H0A4,4,0,0,0,4,8ZM2,4A2,2,0,0,1,4,2V0A4,4,0,0,0,0,4ZM4,2A2,2,0,0,1,6,4H8A4,4,0,0,0,4,0ZM3,7V19H5V7ZM18.293.293l-6,6,1.414,1.414,6-6Zm1.414,6-6-6L12.293,1.707l6,6ZM15,9.5V13h2V9.5ZM18,16a2,2,0,0,1-2,2v2a4,4,0,0,0,4-4Zm-2,2a2,2,0,0,1-2-2H12a4,4,0,0,0,4,4Zm-2-2a2,2,0,0,1,2-2V12a4,4,0,0,0-4,4Zm2-2a2,2,0,0,1,2,2h2a4,4,0,0,0-4-4Z" fill="#09090b"/>
</svg>
