<svg id="git-fork" xmlns="http://www.w3.org/2000/svg" width="20" height="20" viewBox="0 0 20 20">
  <path id="Vector" d="M11,10a1,1,0,0,0-2,0Zm1,6a2,2,0,0,1-2,2v2a4,4,0,0,0,4-4Zm-2,2a2,2,0,0,1-2-2H6a4,4,0,0,0,4,4ZM8,16a2,2,0,0,1,2-2V12a4,4,0,0,0-4,4Zm2-2a2,2,0,0,1,2,2h2a4,4,0,0,0-4-4ZM6,4A2,2,0,0,1,4,6V8A4,4,0,0,0,8,4ZM4,6A2,2,0,0,1,2,4H0A4,4,0,0,0,4,8ZM2,4A2,2,0,0,1,4,2V0A4,4,0,0,0,0,4ZM4,2A2,2,0,0,1,6,4H8A4,4,0,0,0,4,0ZM18,4a2,2,0,0,1-2,2V8a4,4,0,0,0,4-4ZM16,6a2,2,0,0,1-2-2H12a4,4,0,0,0,4,4ZM14,4a2,2,0,0,1,2-2V0a4,4,0,0,0-4,4Zm2-2a2,2,0,0,1,2,2h2a4,4,0,0,0-4-4ZM15,7V9h2V7Zm0,2a.169.169,0,0,1-.005.05A.071.071,0,0,1,15,9.038.129.129,0,0,1,15.038,9l.012-.006A.169.169,0,0,1,15,9v2a1.942,1.942,0,0,0,2-2Zm0,0H5v2H15ZM5,9a.169.169,0,0,1-.05-.005L4.962,9A.129.129,0,0,1,5,9.038a.07.07,0,0,1,.006.012A.169.169,0,0,1,5,9H3a1.942,1.942,0,0,0,2,2ZM5,9V7H3V9Zm4,1v3h2V10Z" fill="#09090b"/>
</svg>
