<svg id="git-merge" xmlns="http://www.w3.org/2000/svg" width="20" height="20" viewBox="0 0 20 20">
  <path id="Vector" d="M3,19a1,1,0,0,0,2,0Zm15-3a2,2,0,0,1-2,2v2a4,4,0,0,0,4-4Zm-2,2a2,2,0,0,1-2-2H12a4,4,0,0,0,4,4Zm-2-2a2,2,0,0,1,2-2V12a4,4,0,0,0-4,4Zm2-2a2,2,0,0,1,2,2h2a4,4,0,0,0-4-4ZM6,4A2,2,0,0,1,4,6V8A4,4,0,0,0,8,4ZM4,6A2,2,0,0,1,2,4H0A4,4,0,0,0,4,8ZM2,4A2,2,0,0,1,4,2V0A4,4,0,0,0,0,4ZM4,2A2,2,0,0,1,6,4H8A4,4,0,0,0,4,0ZM5,19V7H3V19ZM3,7a10,10,0,0,0,2.929,7.071l1.414-1.414A8,8,0,0,1,5,7Zm2.929,7.071A10,10,0,0,0,13,17V15a8,8,0,0,1-5.657-2.343Z" fill="#09090b"/>
</svg>
