<svg id="git-compare" xmlns="http://www.w3.org/2000/svg" width="20" height="20" viewBox="0 0 20 20">
  <path id="Vector" d="M11,3a1,1,0,0,0,0,2Zm3,1V4ZM9,17a1,1,0,0,0,0-2ZM4,14H4Zm14,2a2,2,0,0,1-2,2v2a4,4,0,0,0,4-4Zm-2,2a2,2,0,0,1-2-2H12a4,4,0,0,0,4,4Zm-2-2a2,2,0,0,1,2-2V12a4,4,0,0,0-4,4Zm2-2a2,2,0,0,1,2,2h2a4,4,0,0,0-4-4ZM6,4A2,2,0,0,1,4,6V8A4,4,0,0,0,8,4ZM4,6A2,2,0,0,1,2,4H0A4,4,0,0,0,4,8ZM2,4A2,2,0,0,1,4,2V0A4,4,0,0,0,0,4ZM4,2A2,2,0,0,1,6,4H8A4,4,0,0,0,4,0Zm7,3h3V3H11Zm3,0a1,1,0,0,1,.707.293l1.414-1.414A3,3,0,0,0,14,3Zm.707.293A1,1,0,0,1,15,6h2a3,3,0,0,0-.879-2.121ZM15,6v7h2V6ZM9,15H6v2H9ZM6,15a1,1,0,0,1-.707-.293L3.879,16.121A3,3,0,0,0,6,17Zm-.707-.293A1,1,0,0,1,5,14H3a3,3,0,0,0,.879,2.121ZM5,14V7H3v7Z" fill="#09090b"/>
</svg>
