<svg id="git-pull-request-draft" xmlns="http://www.w3.org/2000/svg" width="20" height="20" viewBox="0 0 20 20">
  <path id="Vector" d="M15,4a1,1,0,0,0,2,0Zm2-1a1,1,0,0,0-2,0ZM15,9a1,1,0,0,0,2,0Zm2-1a1,1,0,0,0-2,0ZM3,19a1,1,0,0,0,2,0Zm15-3a2,2,0,0,1-2,2v2a4,4,0,0,0,4-4Zm-2,2a2,2,0,0,1-2-2H12a4,4,0,0,0,4,4Zm-2-2a2,2,0,0,1,2-2V12a4,4,0,0,0-4,4Zm2-2a2,2,0,0,1,2,2h2a4,4,0,0,0-4-4ZM6,4A2,2,0,0,1,4,6V8A4,4,0,0,0,8,4ZM4,6A2,2,0,0,1,2,4H0A4,4,0,0,0,4,8ZM2,4A2,2,0,0,1,4,2V0A4,4,0,0,0,0,4ZM4,2A2,2,0,0,1,6,4H8A4,4,0,0,0,4,0ZM17,4V3H15V4Zm0,5V8H15V9ZM3,7V19H5V7Z" fill="#09090b"/>
</svg>
