<svg id="git-branch" xmlns="http://www.w3.org/2000/svg" width="20" height="20" viewBox="0 0 20 20">
  <path id="Vector" d="M5,1A1,1,0,0,0,3,1ZM3,1V13H5V1ZM18,4a2,2,0,0,1-2,2V8a4,4,0,0,0,4-4ZM16,6a2,2,0,0,1-2-2H12a4,4,0,0,0,4,4ZM14,4a2,2,0,0,1,2-2V0a4,4,0,0,0-4,4Zm2-2a2,2,0,0,1,2,2h2a4,4,0,0,0-4-4ZM6,16a2,2,0,0,1-2,2v2a4,4,0,0,0,4-4ZM4,18a2,2,0,0,1-2-2H0a4,4,0,0,0,4,4ZM2,16a2,2,0,0,1,2-2V12a4,4,0,0,0-4,4Zm2-2a2,2,0,0,1,2,2H8a4,4,0,0,0-4-4ZM15,7a8,8,0,0,1-2.343,5.657l1.414,1.414A10,10,0,0,0,17,7Zm-2.343,5.657A8,8,0,0,1,7,15v2a10,10,0,0,0,7.071-2.929Z" fill="#09090b"/>
</svg>
