<svg id="git-branch-plus" xmlns="http://www.w3.org/2000/svg" width="20" height="20" viewBox="0 0 20 20">
  <path id="Vector" d="M5,1A1,1,0,0,0,3,1ZM16,7V7Zm3-3h0ZM16,1V1ZM4,19v0ZM1,16H1Zm16-3a1,1,0,0,0-2,0Zm-2,6a1,1,0,0,0,2,0Zm4-2a1,1,0,0,0,0-2Zm-6-2a1,1,0,0,0,0,2ZM3,1V13H5V1ZM16,8a4,4,0,0,0,2.828-1.172L17.414,5.414A2,2,0,0,1,16,6Zm2.828-1.172A4,4,0,0,0,20,4H18a2,2,0,0,1-.586,1.414ZM20,4a4,4,0,0,0-1.172-2.828L17.414,2.586A2,2,0,0,1,18,4ZM18.828,1.172A4,4,0,0,0,16,0V2a2,2,0,0,1,1.414.586ZM16,0a4,4,0,0,0-2.828,1.172l1.414,1.414A2,2,0,0,1,16,2ZM13.172,1.172A4,4,0,0,0,12,4h2a2,2,0,0,1,.586-1.414ZM12,4a4,4,0,0,0,1.172,2.828l1.414-1.414A2,2,0,0,1,14,4Zm1.172,2.828A4,4,0,0,0,16,8V6a2,2,0,0,1-1.414-.586ZM4,20a4,4,0,0,0,2.828-1.172L5.414,17.414A2,2,0,0,1,4,18Zm2.828-1.172A4,4,0,0,0,8,16H6a2,2,0,0,1-.586,1.414ZM8,16a4,4,0,0,0-1.172-2.828L5.414,14.586A2,2,0,0,1,6,16ZM6.828,13.172A4,4,0,0,0,4,12v2a2,2,0,0,1,1.414.586ZM4,12a4,4,0,0,0-2.828,1.172l1.414,1.414A2,2,0,0,1,4,14ZM1.172,13.172A4,4,0,0,0,0,16H2a2,2,0,0,1,.586-1.414ZM0,16a4,4,0,0,0,1.172,2.828l1.414-1.414A2,2,0,0,1,2,16Zm1.172,2.828A4,4,0,0,0,4,20V18a2,2,0,0,1-1.414-.586ZM13,3A10,10,0,0,0,5.929,5.929L7.343,7.343A8,8,0,0,1,13,5ZM5.929,5.929A10,10,0,0,0,3,13H5A8,8,0,0,1,7.343,7.343ZM15,13v6h2V13Zm4,2H13v2h6Z" fill="#09090b"/>
</svg>
