<svg id="github" xmlns="http://www.w3.org/2000/svg" width="20.011" height="22" viewBox="0 0 20.011 22">
  <path id="Vector" d="M13,21a1,1,0,0,0,2,0Zm1-4-.994-.11A1.018,1.018,0,0,0,13,17Zm-1-3.5v-1a1,1,0,0,0-.785,1.619ZM19,8l-1-.064Q18,7.968,18,8ZM18,4.5l-.972-.237a1,1,0,0,0,.158.819ZM18,1l.972-.237A1,1,0,0,0,18,0ZM15,2.5l-.186.983A1,1,0,0,0,15.6,3.3Zm-8,0-.6.8a1,1,0,0,0,.786.183ZM4,1V0a1,1,0,0,0-.968.748ZM4,4.5l.813.583a1,1,0,0,0,.155-.835ZM3,8H4q0-.033,0-.065Zm6,5.5.782.623A1,1,0,0,0,9,12.5ZM8,17H9a1,1,0,0,0-.006-.112ZM7,21a1,1,0,0,0,2,0ZM1,14a1,1,0,0,0,0,2Zm14,7V17H13v4Zm-.006-3.89a5.8,5.8,0,0,0-1.208-4.229l-1.571,1.238a3.8,3.8,0,0,1,.792,2.771ZM13,14.5c3.374,0,7-2.285,7-6.5H18c0,2.785-2.374,4.5-5,4.5Zm7-6.436a6.4,6.4,0,0,0-1.185-4.146L17.187,5.082A4.4,4.4,0,0,1,18,7.936ZM18.972,4.737a8.4,8.4,0,0,0,0-3.973l-1.943.473a6.4,6.4,0,0,1,0,3.027ZM18,1c0-1,0-1,0-1h-.057L17.86.007c-.062.006-.139.016-.232.033A4.4,4.4,0,0,0,16.9.251,10.28,10.28,0,0,0,14.4,1.7l1.2,1.6a8.341,8.341,0,0,1,2-1.176,2.438,2.438,0,0,1,.4-.118C18.03,2,18.046,2,18.047,2H18s0,0,0-1Zm-2.814.517a22.521,22.521,0,0,0-8.372,0l.372,1.965a20.521,20.521,0,0,1,7.628,0ZM7.6,1.7A10.279,10.279,0,0,0,5.1.251,4.4,4.4,0,0,0,4.372.041C4.28.023,4.2.013,4.14.007L4.059,0H4S4,0,4,1,4,2,4,2H3.954S3.97,2,4,2.006a2.438,2.438,0,0,1,.4.118A8.341,8.341,0,0,1,6.4,3.3ZM3.032.748a7.918,7.918,0,0,0,0,4l1.935-.5a5.918,5.918,0,0,1,0-3Zm.155,3.17A6.4,6.4,0,0,0,2,8.065l2-.13a4.4,4.4,0,0,1,.815-2.852ZM2,8c0,4.215,3.626,6.5,7,6.5v-2c-2.626,0-5-1.715-5-4.5Zm6.218,4.877a5.714,5.714,0,0,0-1.03,2l1.924.545a3.716,3.716,0,0,1,.67-1.3Zm-1.03,2a5.813,5.813,0,0,0-.182,2.235l1.987-.224a3.813,3.813,0,0,1,.118-1.465ZM7,17v4H9V17Zm.595-.914a4.1,4.1,0,0,1-2.179.454,2.424,2.424,0,0,1-1.232-.57c-.195-.156-.381-.331-.584-.528s-.417-.409-.643-.6A2.971,2.971,0,0,0,1,14v2c.135,0,.308.056.649.35.171.148.34.316.559.528s.451.433.725.652a4.414,4.414,0,0,0,2.221.992,6.051,6.051,0,0,0,3.251-.609Z" fill="#09090b"/>
</svg>
