<svg id="glasses" xmlns="http://www.w3.org/2000/svg" width="22" height="16" viewBox="0 0 22 16">
  <path id="Vector" d="M.577,8.615a1,1,0,1,0,1.846.769ZM4,3l-.88-.474q-.024.044-.043.089ZM7,2A1,1,0,0,0,7,0ZM19.577,9.385a1,1,0,0,0,1.846-.769ZM18,3l.923-.385c-.013-.031-.027-.06-.043-.089ZM15,0a1,1,0,0,0,0,2ZM8,11a3,3,0,0,1-3,3v2a5,5,0,0,0,5-5ZM5,14a3,3,0,0,1-3-3H0a5,5,0,0,0,5,5ZM2,11A3,3,0,0,1,5,8V6a5,5,0,0,0-5,5ZM5,8a3,3,0,0,1,3,3h2A5,5,0,0,0,5,6Zm15,3a3,3,0,0,1-3,3v2a5,5,0,0,0,5-5Zm-3,3a3,3,0,0,1-3-3H12a5,5,0,0,0,5,5Zm-3-3a3,3,0,0,1,3-3V6a5,5,0,0,0-5,5Zm3-3a3,3,0,0,1,3,3h2a5,5,0,0,0-5-5Zm-3,3a3,3,0,0,0-.879-2.121l-1.414,1.414A1,1,0,0,1,12,11Zm-.879-2.121A3,3,0,0,0,11,8v2a1,1,0,0,1,.707.293ZM11,8a3,3,0,0,0-2.121.879l1.414,1.414A1,1,0,0,1,11,10Zm-2.121.879A3,3,0,0,0,8,11h2a1,1,0,0,1,.293-.707Zm-6.456.506,2.5-6L3.077,2.615l-2.5,6ZM4.88,3.474A3.317,3.317,0,0,1,5.752,2.32,1.99,1.99,0,0,1,7,2V0A3.962,3.962,0,0,0,4.573.7,5.225,5.225,0,0,0,3.12,2.526ZM21.423,8.615l-2.5-6-1.846.769,2.5,6ZM18.881,2.526A5.165,5.165,0,0,0,17.379.7,3.975,3.975,0,0,0,15,0V2a1.992,1.992,0,0,1,1.221.328,3.223,3.223,0,0,1,.9,1.146Z" transform="translate(0 0)" fill="#09090b"/>
</svg>
