<svg id="globe" xmlns="http://www.w3.org/2000/svg" width="22" height="22" viewBox="0 0 22 22">
  <path id="Vector" d="M7,11H7Zm8,0h0Zm5,0a9,9,0,0,1-9,9v2A11,11,0,0,0,22,11Zm-9,9a9,9,0,0,1-9-9H0A11,11,0,0,0,11,22ZM2,11a9,9,0,0,1,9-9V0A11,11,0,0,0,0,11Zm9-9a9,9,0,0,1,9,9h2A11,11,0,0,0,11,0ZM10.276.31A15.5,15.5,0,0,0,6,11H8a13.5,13.5,0,0,1,3.724-9.31ZM6,11a15.5,15.5,0,0,0,4.276,10.69l1.448-1.379A13.5,13.5,0,0,1,8,11Zm5.724,10.69A15.5,15.5,0,0,0,16,11H14a13.5,13.5,0,0,1-3.724,9.31ZM16,11A15.5,15.5,0,0,0,11.724.31L10.276,1.69A13.5,13.5,0,0,1,14,11ZM1,12H21V10H1Z" fill="#09090b"/>
</svg>
