<svg id="goal" xmlns="http://www.w3.org/2000/svg" width="20" height="21.999" viewBox="0 0 20 21.999">
  <path id="Vector" d="M9,12a1,1,0,0,0,2,0ZM10,1l.447-.894A1,1,0,0,0,9,1Zm8,4,.447.894a1,1,0,0,0,0-1.789ZM9.552,8.106a1,1,0,0,0,.894,1.789Zm9.96.808a1,1,0,0,0-1.9.617ZM6.454,4.828a1,1,0,0,0-.887-1.793ZM6.8,9.6A1,1,0,0,0,5.2,8.4Zm9.081,1.223a1,1,0,0,0-1.961.393ZM11,12V1H9V12ZM9.552,1.894l8,4,.894-1.789-8-4Zm8,2.211-8,4,.894,1.789,8-4Zm.057,5.425a8,8,0,0,1,.128,4.5l1.934.509a10,10,0,0,0-.159-5.629Zm.127,4.5a8,8,0,0,1-2.326,3.858l1.353,1.473a10,10,0,0,0,2.908-4.823Zm-2.326,3.858a8,8,0,0,1-4.042,1.99l.342,1.971a10,10,0,0,0,5.053-2.487Zm-4.042,1.99a8,8,0,0,1-4.476-.51l-.777,1.843a10,10,0,0,0,5.6.638Zm-4.476-.51A8,8,0,0,1,3.4,16.523l-1.65,1.131a10,10,0,0,0,4.363,3.56ZM3.4,16.523A8,8,0,0,1,2,12.241L0,12.3a10,10,0,0,0,1.748,5.353ZM2,12.241A8,8,0,0,1,3.141,7.882L1.427,6.852A10,10,0,0,0,0,12.3ZM3.141,7.882A8,8,0,0,1,6.454,4.828L5.567,3.035A10,10,0,0,0,1.427,6.852ZM5.2,8.4a6,6,0,0,0-1.139,2.729l1.979.292A4,4,0,0,1,6.8,9.6ZM4.063,11.125a6,6,0,0,0,.3,2.941l1.878-.689a4,4,0,0,1-.2-1.961Zm.3,2.942a6,6,0,0,0,1.671,2.439L7.358,15a4,4,0,0,1-1.114-1.626Zm1.671,2.439a6,6,0,0,0,2.634,1.345l.443-1.95A4,4,0,0,1,7.358,15Zm2.634,1.345a6,6,0,0,0,2.956-.076l-.543-1.925a4,4,0,0,1-1.971.051Zm2.956-.076A6,6,0,0,0,14.188,16.3l-1.4-1.432a4,4,0,0,1-1.707.986ZM14.188,16.3a6,6,0,0,0,1.543-2.522l-1.911-.591a4,4,0,0,1-1.029,1.682Zm1.543-2.522a6,6,0,0,0,.151-2.953l-1.961.393a4,4,0,0,1-.1,1.969Z" transform="translate(0 0)" fill="#09090b"/>
</svg>
