<svg id="grab" xmlns="http://www.w3.org/2000/svg" width="22" height="18" viewBox="0 0 22 18">
  <path id="Vector" d="M16,6.5a1,1,0,0,0,2,0ZM15,2V2ZM12,5.4a1,1,0,0,0,2,0ZM12,5a1,1,0,0,0,2,0ZM11,1V1ZM8,5a1,1,0,0,0,2,0Zm0-.1a1,1,0,0,0,2,0ZM7,2V2ZM5,4H5ZM4,9A1,1,0,0,0,6,9ZM1,9H1ZM16,6a1,1,0,0,0,2,0Zm3-2V4Zm2,5h0Zm-8,8v0ZM9,17v0ZM18,6.5V4H16V6.5ZM18,4a3,3,0,0,0-.879-2.121L15.707,3.293A1,1,0,0,1,16,4Zm-.879-2.121A3,3,0,0,0,15,1V3a1,1,0,0,1,.707.293ZM15,1a3,3,0,0,0-2.121.879l1.414,1.414A1,1,0,0,1,15,3Zm-2.121.879A3,3,0,0,0,12,4h2a1,1,0,0,1,.293-.707ZM12,4V5.4h2V4Zm2,1V3H12V5Zm0-2A3,3,0,0,0,13.121.879L11.707,2.293A1,1,0,0,1,12,3ZM13.121.879A3,3,0,0,0,11,0V2a1,1,0,0,1,.707.293ZM11,0A3,3,0,0,0,8.879.879l1.414,1.414A1,1,0,0,1,11,2ZM8.879.879A3,3,0,0,0,8,3h2a1,1,0,0,1,.293-.707ZM8,3V5h2V3Zm2,1.9V4H8v.9ZM10,4a3,3,0,0,0-.879-2.121L7.707,3.293A1,1,0,0,1,8,4ZM9.121,1.879A3,3,0,0,0,7,1V3a1,1,0,0,1,.707.293ZM7,1a3,3,0,0,0-2.121.879L6.293,3.293A1,1,0,0,1,7,3Zm-2.121.879A3,3,0,0,0,4,4H6a1,1,0,0,1,.293-.707ZM4,4V9H6V4ZM6,9a3,3,0,0,0-.879-2.121L3.707,8.293A1,1,0,0,1,4,9ZM5.121,6.879A3,3,0,0,0,3,6V8a1,1,0,0,1,.707.293ZM3,6a3,3,0,0,0-2.121.879L2.293,8.293A1,1,0,0,1,3,8ZM.879,6.879A3,3,0,0,0,0,9H2a1,1,0,0,1,.293-.707ZM18,6a1,1,0,0,1,.293-.707L16.879,3.879A3,3,0,0,0,16,6Zm.293-.707A1,1,0,0,1,19,5V3a3,3,0,0,0-2.121.879ZM19,5a1,1,0,0,1,.707.293l1.414-1.414A3,3,0,0,0,19,3Zm.707.293A1,1,0,0,1,20,6h2a3,3,0,0,0-.879-2.121ZM20,6V9h2V6Zm0,3a7,7,0,0,1-2.05,4.95l1.414,1.414A9,9,0,0,0,22,9Zm-2.05,4.95A7,7,0,0,1,13,16v2a9,9,0,0,0,6.364-2.636ZM13,16H9v2h4ZM9,16a7,7,0,0,1-4.95-2.05L2.636,15.364A9,9,0,0,0,9,18ZM4.05,13.95A7,7,0,0,1,2,9H0a9,9,0,0,0,2.636,6.364Z" fill="#09090b"/>
</svg>
