<svg id="grape" xmlns="http://www.w3.org/2000/svg" width="22" height="22" viewBox="0 0 22 22">
  <path id="Vector" d="M20,4a1,1,0,0,0,2,0Zm1-3h1A1,1,0,0,0,20.293.293ZM14.4,6.183A1,1,0,0,0,15.817,7.6ZM22,4V1H20V4ZM20.293.293,14.4,6.183,15.817,7.6l5.89-5.89ZM17.6,14.89a2,2,0,0,1-2,2v2a4,4,0,0,0,4-4Zm-2,2a2,2,0,0,1-2-2h-2a4,4,0,0,0,4,4Zm-2-2a2,2,0,0,1,2-2v-2a4,4,0,0,0-4,4Zm2-2a2,2,0,0,1,2,2h2a4,4,0,0,0-4-4ZM9.11,6.4a2,2,0,0,1-2,2v2a4,4,0,0,0,4-4Zm-2,2a2,2,0,0,1-2-2h-2a4,4,0,0,0,4,4Zm-2-2a2,2,0,0,1,2-2v-2a4,4,0,0,0-4,4Zm2-2a2,2,0,0,1,2,2h2a4,4,0,0,0-4-4Zm6.24,6.25a2,2,0,0,1-2,2v2a4,4,0,0,0,4-4Zm-2,2a2,2,0,0,1-2-2h-2a4,4,0,0,0,4,4Zm-2-2a2,2,0,0,1,2-2v-2a4,4,0,0,0-4,4Zm2-2a2,2,0,0,1,2,2h2a4,4,0,0,0-4-4Zm3.56-3.8a2,2,0,0,1-2,2v2a4,4,0,0,0,4-4Zm-2,2a2,2,0,0,1-2-2h-2a4,4,0,0,0,4,4Zm-2-2a2,2,0,0,1,2-2v-2a4,4,0,0,0-4,4Zm2-2a2,2,0,0,1,2,2h2a4,4,0,0,0-4-4Zm6.24,6.24a2,2,0,0,1-2,2v2a4,4,0,0,0,4-4Zm-2,2a2,2,0,0,1-2-2h-2a4,4,0,0,0,4,4Zm-2-2a2,2,0,0,1,2-2v-2a4,4,0,0,0-4,4Zm2-2a2,2,0,0,1,2,2h2a4,4,0,0,0-4-4ZM7.56,12.2a2,2,0,0,1-2,2v2a4,4,0,0,0,4-4Zm-2,2a2,2,0,0,1-2-2h-2a4,4,0,0,0,4,4Zm-2-2a2,2,0,0,1,2-2v-2a4,4,0,0,0-4,4Zm2-2a2,2,0,0,1,2,2h2a4,4,0,0,0-4-4Zm6.24,6.24a2,2,0,0,1-2,2v2a4,4,0,0,0,4-4Zm-2,2a2,2,0,0,1-2-2h-2a4,4,0,0,0,4,4Zm-2-2a2,2,0,0,1,2-2v-2a4,4,0,0,0-4,4Zm2-2a2,2,0,0,1,2,2h2a4,4,0,0,0-4-4ZM6,18a2,2,0,0,1-2,2v2a4,4,0,0,0,4-4ZM4,20a2,2,0,0,1-2-2H0a4,4,0,0,0,4,4ZM2,18a2,2,0,0,1,2-2V14a4,4,0,0,0-4,4Zm2-2a2,2,0,0,1,2,2H8a4,4,0,0,0-4-4Z" transform="translate(0 0)" fill="#09090b"/>
</svg>
