<svg id="grid-3x3" xmlns="http://www.w3.org/2000/svg" width="20" height="20" viewBox="0 0 20 20">
  <path id="Vector" d="M1,6A1,1,0,0,0,1,8ZM19,8a1,1,0,0,0,0-2ZM1,12a1,1,0,0,0,0,2Zm18,2a1,1,0,0,0,0-2ZM8,1A1,1,0,0,0,6,1ZM6,19a1,1,0,0,0,2,0ZM14,1a1,1,0,0,0-2,0ZM12,19a1,1,0,0,0,2,0ZM3,2H17V0H3ZM17,2a1,1,0,0,1,1,1h2a3,3,0,0,0-3-3Zm1,1V17h2V3Zm0,14a1,1,0,0,1-1,1v2a3,3,0,0,0,3-3Zm-1,1H3v2H17ZM3,18a1,1,0,0,1-1-1H0a3,3,0,0,0,3,3ZM2,17V3H0V17ZM2,3A1,1,0,0,1,3,2V0A3,3,0,0,0,0,3ZM1,8H19V6H1Zm0,6H19V12H1ZM6,1V19H8V1Zm6,0V19h2V1Z" fill="#09090b"/>
</svg>
