<svg id="ham" xmlns="http://www.w3.org/2000/svg" width="22.311" height="22.261" viewBox="0 0 22.311 22.261">
  <path id="Vector" d="M12.142,20.406l.707.707h0ZM1.854,10.118l-.707-.707Zm13-1.128A1,1,0,1,0,16.27,10.4ZM17.6,7.663l.485-.875a1,1,0,0,0-1.192.168Zm1.65-4.65-.981.195a1,1,0,0,0,.806.79Zm-4.66,1.66.707.707A1,1,0,0,0,15.471,4.2ZM11.857,5.991A1,1,0,1,0,13.271,7.4ZM6.791,16.47a1,1,0,0,0,1.414-1.414Zm.414-2.414A1,1,0,0,0,5.791,15.47Zm5.644,7.058a15.492,15.492,0,0,0,2.6-3.442L13.7,16.7A13.488,13.488,0,0,1,11.435,19.7Zm2.6-3.442a12.524,12.524,0,0,0,1.39-3.819L14.874,13.5A10.525,10.525,0,0,1,13.7,16.7Zm1.39-3.819a8.75,8.75,0,0,0-.083-3.692l-1.938.493a6.758,6.758,0,0,1,.052,2.848ZM16.76,10.16a6.42,6.42,0,0,0-1.668-2.992L13.677,8.583a4.423,4.423,0,0,1,1.144,2.07ZM15.092,7.169A6.42,6.42,0,0,0,12.1,5.5l-.493,1.938a4.423,4.423,0,0,1,2.07,1.144ZM12.1,5.5a8.75,8.75,0,0,0-3.692-.083L8.76,7.386a6.758,6.758,0,0,1,2.848.052ZM8.408,5.418a12.523,12.523,0,0,0-3.819,1.39l.967,1.751a10.528,10.528,0,0,1,3.2-1.172ZM4.589,6.808a15.49,15.49,0,0,0-3.442,2.6l1.414,1.414A13.491,13.491,0,0,1,5.556,8.559Zm8.26,14.306a4.763,4.763,0,0,0,.939-4.639l-1.94.485a2.811,2.811,0,0,1-.413,2.74Zm.939-4.639a11.2,11.2,0,0,0-3-5.006L9.378,12.883a9.223,9.223,0,0,1,2.47,4.077Zm-3-5.006a11.2,11.2,0,0,0-5.006-3L5.3,10.413a9.222,9.222,0,0,1,4.077,2.47Zm-5.006-3a4.764,4.764,0,0,0-4.639.939l1.414,1.414a2.812,2.812,0,0,1,2.74-.413Zm-4.639.939A4.764,4.764,0,0,0,.208,14.05l1.94-.485a2.812,2.812,0,0,1,.413-2.74ZM.208,14.05a11.2,11.2,0,0,0,3,5.006l1.414-1.414a9.223,9.223,0,0,1-2.47-4.077Zm3,5.006a11.2,11.2,0,0,0,5.006,3l.485-1.94a9.223,9.223,0,0,1-4.077-2.47Zm5.006,3a4.763,4.763,0,0,0,4.639-.939L11.435,19.7a2.812,2.812,0,0,1-2.74.413ZM16.27,10.4,18.305,8.37,16.891,6.955,14.856,8.99Zm.843-1.867a3.5,3.5,0,0,0,1.445.43L18.7,6.972a1.5,1.5,0,0,1-.619-.184Zm1.445.43a3.5,3.5,0,0,0,1.492-.218l-.708-1.87a1.5,1.5,0,0,1-.639.093Zm1.492-.218a3.5,3.5,0,0,0,1.262-.825l-1.429-1.4a1.5,1.5,0,0,1-.541.354Zm1.262-.825a3.5,3.5,0,0,0,.8-1.279l-1.885-.669a1.5,1.5,0,0,1-.342.548Zm.8-1.279a3.5,3.5,0,0,0,.186-1.5L20.3,5.336a1.5,1.5,0,0,1-.08.641Zm.186-1.5a3.5,3.5,0,0,0-.46-1.436L20.107,4.72a1.5,1.5,0,0,1,.2.615Zm-.46-1.436a3.5,3.5,0,0,0-1.021-1.109L19.67,4.245a1.5,1.5,0,0,1,.438.476ZM20.815,2.605a3.5,3.5,0,0,0-1.392-.577L19.073,4a1.5,1.5,0,0,1,.6.247Zm-.587.212a3.5,3.5,0,0,0-.6-1.367L18.012,2.622a1.5,1.5,0,0,1,.255.586Zm-.6-1.367a3.5,3.5,0,0,0-1.11-.995L17.536,2.2a1.5,1.5,0,0,1,.476.426ZM18.523.456A3.5,3.5,0,0,0,17.1.013l-.174,1.992a1.5,1.5,0,0,1,.61.19ZM17.1.013A3.5,3.5,0,0,0,15.621.2l.671,1.884a1.5,1.5,0,0,1,.634-.081ZM15.621.2a3.5,3.5,0,0,0-1.266.788L15.75,2.425a1.5,1.5,0,0,1,.542-.338ZM14.356.991a3.5,3.5,0,0,0-.823,1.243l1.865.724a1.5,1.5,0,0,1,.353-.533Zm-.823,1.243A3.5,3.5,0,0,0,13.3,3.706l2-.118a1.5,1.5,0,0,1,.1-.631ZM13.3,3.706a3.5,3.5,0,0,0,.4,1.435L15.471,4.2a1.5,1.5,0,0,1-.173-.615Zm.579.259L11.857,5.991,13.271,7.4,15.3,5.379ZM8.205,15.055l-1-1L5.791,15.47l1,1Z" transform="translate(0 0)" fill="#09090b"/>
</svg>
