<svg id="hand-platter" xmlns="http://www.w3.org/2000/svg" width="22.016" height="22" viewBox="0 0 22.016 22">
  <path id="Vector" d="M10,2a1,1,0,0,0,2,0Zm2-1a1,1,0,0,0-2,0ZM3.014,8.833a1,1,0,0,0,1.972.334ZM11,3.087v0Zm6.014,6.08a1,1,0,1,0,1.972-.334ZM3,8a1,1,0,0,0,0,2Zm16,2a1,1,0,0,0,0-2ZM1,12a1,1,0,0,0,0,2Zm10,4a1,1,0,0,0,0,2Zm2.741-.353a1,1,0,1,0,1.317,1.505ZM17.6,13.6l.659.753.036-.033Zm2.8,2.9.676.737.019-.018Zm-3.6,3.3-.676-.737a1,1,0,0,0-.077.079Zm-9.6,0,.753-.659a1,1,0,0,0-.094-.094ZM4.659,16.247a1,1,0,0,0-1.317,1.505ZM5,13a1,1,0,0,0-2,0ZM4,20v1a1,1,0,0,0,1-1ZM1,19a1,1,0,0,0,0,2ZM12,2V1H10V2ZM4.986,9.167a6.1,6.1,0,0,1,2.078-3.64L5.773,4A8.1,8.1,0,0,0,3.014,8.833Zm2.078-3.64A6.1,6.1,0,0,1,11,4.087v-2A8.1,8.1,0,0,0,5.773,4ZM11,4.087a6.1,6.1,0,0,1,3.936,1.44L16.227,4A8.1,8.1,0,0,0,11,2.087Zm3.936,1.44a6.1,6.1,0,0,1,2.078,3.64l1.972-.334A8.1,8.1,0,0,0,16.227,4ZM3,10H19V8H3ZM1,14H13V12H1Zm12,0a1,1,0,0,1,.707.293l1.414-1.414A3,3,0,0,0,13,12Zm.707.293A1,1,0,0,1,14,15h2a3,3,0,0,0-.879-2.121ZM14,15a1,1,0,0,1-.293.707l1.414,1.414A3,3,0,0,0,16,15Zm-.293.707A1,1,0,0,1,13,16v2a3,3,0,0,0,2.121-.879ZM13,16H11v2h2Zm2.059,1.153,3.2-2.8-1.317-1.505-3.2,2.8Zm3.236-2.833a1.016,1.016,0,0,1,.723-.285l.035-2a3.016,3.016,0,0,0-2.148.846Zm.723-.285a1.015,1.015,0,0,1,.713.31l1.439-1.389a3.015,3.015,0,0,0-2.117-.92Zm.713.31a1.015,1.015,0,0,1,.285.723l2,.035a3.016,3.016,0,0,0-.846-2.148Zm.285.723a1.015,1.015,0,0,1-.31.713l1.389,1.439a3.015,3.015,0,0,0,.92-2.116Zm-.291.7-3.6,3.3,1.351,1.474,3.6-3.3Zm-3.677,3.379A2.634,2.634,0,0,1,14,20v2a4.63,4.63,0,0,0,3.553-1.542ZM14,20H10v2h4Zm-4,0a2.634,2.634,0,0,1-2.047-.858L6.447,20.458A4.63,4.63,0,0,0,10,22Zm-2.141-.953-3.2-2.8L3.341,17.753l3.2,2.8ZM3,13v7H5V13Zm1,6H1v2H4Z" fill="#09090b"/>
</svg>
