<svg id="hand-coins" xmlns="http://www.w3.org/2000/svg" width="22.027" height="22" viewBox="0 0 22.027 22">
  <path id="Vector" d="M10,13a1,1,0,0,0,0,2ZM7.6,10.6l.694.72A1,1,0,0,0,8.4,11.2ZM1.306,15.28a1,1,0,1,0,1.388,1.44Zm4.036,3.967a1,1,0,0,0,1.317,1.505ZM7.6,18.6l.659.753A1,1,0,0,0,8.4,19.2Zm8.2-1.8-.691-.723q-.032.031-.061.064Zm4.6-4.4-.687-.727,0,0ZM17.65,9.49l.681.733.006-.006Zm-4.88,3.167a1,1,0,1,0,1.361,1.466ZM1.707,14.293A1,1,0,0,0,.293,15.707Zm4.586,7.414a1,1,0,0,0,1.414-1.414ZM10,15h2V13H10Zm2,0a3,3,0,0,0,2.121-.879l-1.414-1.414A1,1,0,0,1,12,13Zm2.121-.879A3,3,0,0,0,15,12H13a1,1,0,0,1-.293.707ZM15,12a3,3,0,0,0-.879-2.121l-1.414,1.414A1,1,0,0,1,13,12Zm-.879-2.121A3,3,0,0,0,12,9v2a1,1,0,0,1,.707.293ZM12,9H9v2h3ZM9,9a2.671,2.671,0,0,0-2.2,1l1.6,1.2c.057-.076.211-.2.6-.2Zm-2.094.88-5.6,5.4,1.388,1.44,5.6-5.4ZM6.659,20.753l1.6-1.4L6.942,17.847l-1.6,1.4ZM8.4,19.2c.057-.076.211-.2.6-.2V17a2.671,2.671,0,0,0-2.2,1ZM9,19h4V17H9Zm4,0a4.63,4.63,0,0,0,3.553-1.542l-1.505-1.317A2.634,2.634,0,0,1,13,17Zm3.491-1.477,4.6-4.4-1.382-1.445-4.6,4.4Zm4.6-4.4a3,3,0,0,0,.939-2.1l-2-.057a1,1,0,0,1-.313.7Zm.939-2.1a3,3,0,0,0-.819-2.147l-1.454,1.374a1,1,0,0,1,.273.716Zm-.819-2.147a3,3,0,0,0-2.1-.939l-.056,2a1,1,0,0,1,.7.313Zm-2.1-.939a3,3,0,0,0-2.147.819l1.374,1.454a1,1,0,0,1,.716-.273Zm-2.14.813-4.2,3.9,1.361,1.466,4.2-3.9ZM.293,15.707l6,6,1.414-1.414-6-6ZM16.9,8A1.9,1.9,0,0,1,15,9.9v2A3.9,3.9,0,0,0,18.9,8ZM15,9.9A1.9,1.9,0,0,1,13.1,8h-2A3.9,3.9,0,0,0,15,11.9ZM13.1,8A1.9,1.9,0,0,1,15,6.1v-2A3.9,3.9,0,0,0,11.1,8ZM15,6.1A1.9,1.9,0,0,1,16.9,8h2A3.9,3.9,0,0,0,15,4.1ZM7,4A2,2,0,0,1,5,6V8A4,4,0,0,0,9,4ZM5,6A2,2,0,0,1,3,4H1A4,4,0,0,0,5,8ZM3,4A2,2,0,0,1,5,2V0A4,4,0,0,0,1,4ZM5,2A2,2,0,0,1,7,4H9A4,4,0,0,0,5,0Z" transform="translate(0)" fill="#09090b"/>
</svg>
