<svg id="hand-helping" xmlns="http://www.w3.org/2000/svg" width="22.027" height="14.057" viewBox="0 0 22.027 14.057">
  <path id="Vector" d="M10,5.057a1,1,0,0,0,0,2Zm2-3v0Zm-4.4.6.694.72a1,1,0,0,0,.106-.12ZM1.306,7.337a1,1,0,0,0,1.388,1.44ZM5.341,11.3A1,1,0,0,0,6.658,12.81ZM7.6,10.657l.659.753a1,1,0,0,0,.141-.153Zm8.2-1.8-.691-.723q-.032.031-.061.064Zm4.6-4.4-.687-.727,0,0Zm-2.75-2.91.681.733.006-.006Zm-4.88,3.167A1,1,0,0,0,14.13,6.18ZM1.707,6.35A1,1,0,0,0,.293,7.764Zm4.586,7.414A1,1,0,0,0,7.707,12.35ZM10,7.057h2v-2H10Zm2,0a3,3,0,0,0,2.121-.879L12.707,4.764A1,1,0,0,1,12,5.057Zm2.121-.879A3,3,0,0,0,15,4.057H13a1,1,0,0,1-.293.707ZM15,4.057a3,3,0,0,0-.879-2.121L12.707,3.35A1,1,0,0,1,13,4.057Zm-.879-2.121A3,3,0,0,0,12,1.057v2a1,1,0,0,1,.707.293ZM12,1.057H9v2h3Zm-3,0a2.671,2.671,0,0,0-2.2,1l1.6,1.2c.057-.076.211-.2.6-.2Zm-2.094.88-5.6,5.4,1.388,1.44,5.6-5.4ZM6.659,12.809l1.6-1.4L6.942,9.9l-1.6,1.4ZM8.4,11.257c.057-.076.211-.2.6-.2v-2a2.671,2.671,0,0,0-2.2,1Zm.6-.2h4v-2H9Zm4,0a4.63,4.63,0,0,0,3.553-1.541L15.047,8.2A2.634,2.634,0,0,1,13,9.057ZM16.491,9.58l4.6-4.4L19.709,3.734l-4.6,4.4Zm4.6-4.4a3,3,0,0,0,.939-2.1l-2-.057a1,1,0,0,1-.313.7Zm.939-2.1A3,3,0,0,0,21.207.94L19.753,2.314a1,1,0,0,1,.273.716ZM21.207.94A3,3,0,0,0,19.11,0l-.056,2a1,1,0,0,1,.7.313ZM19.11,0A3,3,0,0,0,16.963.82l1.374,1.454A1,1,0,0,1,19.053,2Zm-2.14.813-4.2,3.9L14.13,6.18l4.2-3.9ZM.293,7.764l6,6L7.707,12.35l-6-6Z" transform="translate(0 0)" fill="#09090b"/>
</svg>
