<svg id="hdmi-port" xmlns="http://www.w3.org/2000/svg" width="22" height="10" viewBox="0 0 22 10">
  <path id="Vector" d="M20,1V1ZM2,1V1ZM1,2H1ZM1,6H1ZM3,7l.707-.707A1,1,0,0,0,3,6ZM5,9l-.707.707A1,1,0,0,0,5,10ZM17,9v1a1,1,0,0,0,.707-.293Zm2-2V6a1,1,0,0,0-.707.293ZM6.5,4a1,1,0,0,0,0,2Zm9,2a1,1,0,0,0,0-2ZM22,2A2,2,0,0,0,21.414.586L20,2h2ZM21.414.586A2,2,0,0,0,20,0V2h0ZM20,0H2V2H20ZM2,0A2,2,0,0,0,.586.586L2,2H2ZM.586.586A2,2,0,0,0,0,2H2ZM0,2V6H2V2ZM0,6A2,2,0,0,0,.586,7.414L2,6H0ZM.586,7.414A2,2,0,0,0,2,8V6H2ZM2,8H3V6H2Zm.293-.293,2,2L5.707,8.293l-2-2ZM5,10H17V8H5Zm12.707-.293,2-2L18.293,6.293l-2,2ZM19,8h1V6H19Zm1,0a2,2,0,0,0,1.414-.586L20,6h0Zm1.414-.586A2,2,0,0,0,22,6H20ZM22,6V2H20V6ZM6.5,6h9V4h-9Z" fill="#09090b"/>
</svg>
