<svg id="heading-6" xmlns="http://www.w3.org/2000/svg" width="19" height="14" viewBox="0 0 19 14">
  <path id="Vector" d="M1,6A1,1,0,0,0,1,8ZM9,8A1,1,0,0,0,9,6ZM0,13a1,1,0,0,0,2,0ZM2,1A1,1,0,0,0,0,1ZM8,13a1,1,0,0,0,2,0ZM10,1A1,1,0,0,0,8,1Zm7.707,4.707a1,1,0,0,0-1.414-1.414ZM1,8H9V6H1Zm1,5V1H0V13Zm8,0V1H8V13Zm7-2a1,1,0,0,1-1,1v2a3,3,0,0,0,3-3Zm-1,1a1,1,0,0,1-1-1H13a3,3,0,0,0,3,3Zm-1-1a1,1,0,0,1,1-1V8a3,3,0,0,0-3,3Zm1-1a1,1,0,0,1,1,1h2a3,3,0,0,0-3-3Zm.293-5.707a13.26,13.26,0,0,0-2.425,3.049A7.492,7.492,0,0,0,13,11h2a5.5,5.5,0,0,1,.632-2.717,11.355,11.355,0,0,1,2.075-2.576Z" fill="#09090b"/>
</svg>
