<svg id="headset" xmlns="http://www.w3.org/2000/svg" width="20" height="22" viewBox="0 0 20 22">
  <path id="Vector" d="M6,12H6Zm0,3H6ZM1,15H1ZM10,1V1Zm4,14h0Zm0-3h0Zm2-2v0ZM10,20a1,1,0,0,0,0,2ZM1,11H4V9H1Zm3,0a1,1,0,0,1,.707.293L6.121,9.879A3,3,0,0,0,4,9Zm.707.293A1,1,0,0,1,5,12H7a3,3,0,0,0-.879-2.121ZM5,12v3H7V12Zm0,3a1,1,0,0,1-.293.707l1.414,1.414A3,3,0,0,0,7,15Zm-.293.707A1,1,0,0,1,4,16v2a3,3,0,0,0,2.121-.879ZM4,16H3v2H4ZM3,16a1,1,0,0,1-.707-.293L.879,17.121A3,3,0,0,0,3,18Zm-.707-.293A1,1,0,0,1,2,15H0a3,3,0,0,0,.879,2.121ZM2,15V10H0v5Zm0-5a8,8,0,0,1,.609-3.061L.761,6.173A10,10,0,0,0,0,10Zm.609-3.061a8,8,0,0,1,1.734-2.6L2.929,2.929A10,10,0,0,0,.761,6.173Zm1.734-2.6a8,8,0,0,1,2.6-1.734L6.173.761A10,10,0,0,0,2.929,2.929Zm2.6-1.734A8,8,0,0,1,10,2V0A10,10,0,0,0,6.173.761ZM10,2a8,8,0,0,1,3.062.609L13.827.761A10,10,0,0,0,10,0Zm3.061.609a8,8,0,0,1,2.6,1.734l1.414-1.414A10,10,0,0,0,13.827.761Zm2.6,1.734a8,8,0,0,1,1.734,2.6l1.848-.765a10,10,0,0,0-2.168-3.244Zm1.734,2.6A8,8,0,0,1,18,10h2a10,10,0,0,0-.761-3.827ZM18,10v5h2V10Zm0,5a1,1,0,0,1-.293.707l1.414,1.414A3,3,0,0,0,20,15Zm-.293.707A1,1,0,0,1,17,16v2a3,3,0,0,0,2.121-.879ZM17,16H16v2h1Zm-1,0a1,1,0,0,1-.707-.293l-1.414,1.414A3,3,0,0,0,16,18Zm-.707-.293A1,1,0,0,1,15,15H13a3,3,0,0,0,.879,2.121ZM15,15V12H13v3Zm0-3a1,1,0,0,1,.293-.707L13.879,9.879A3,3,0,0,0,13,12Zm.293-.707A1,1,0,0,1,16,11V9a3,3,0,0,0-2.121.879ZM16,11h3V9H16Zm2,4v2h2V15Zm0,2a3,3,0,0,1-.879,2.121l1.414,1.414A5,5,0,0,0,20,17Zm-.879,2.121A3,3,0,0,1,15,20v2a5,5,0,0,0,3.535-1.465ZM15,20H10v2h5Z" fill="#09090b"/>
</svg>
