<svg id="headphones" xmlns="http://www.w3.org/2000/svg" width="20" height="20" viewBox="0 0 20 20">
  <path id="Vector" d="M1,11a1,1,0,0,0,0,2Zm5,3H6Zm0,3H6ZM1,17H1Zm0-7H1Zm9-9V1Zm9,9h0Zm-5,7h0Zm0-3h0Zm2-2v0Zm3,1a1,1,0,0,0,0-2ZM1,13H4V11H1Zm3,0a1,1,0,0,1,.707.293l1.414-1.414A3,3,0,0,0,4,11Zm.707.293A1,1,0,0,1,5,14H7a3,3,0,0,0-.879-2.121ZM5,14v3H7V14Zm0,3a1,1,0,0,1-.293.707l1.414,1.414A3,3,0,0,0,7,17Zm-.293.707A1,1,0,0,1,4,18v2a3,3,0,0,0,2.121-.879ZM4,18H3v2H4ZM3,18a1,1,0,0,1-.707-.293L.879,19.121A3,3,0,0,0,3,20Zm-.707-.293A1,1,0,0,1,2,17H0a3,3,0,0,0,.879,2.121ZM2,17V10H0v7Zm0-7A8,8,0,0,1,4.343,4.343L2.929,2.929A10,10,0,0,0,0,10ZM4.343,4.343A8,8,0,0,1,10,2V0A10,10,0,0,0,2.929,2.929ZM10,2a8,8,0,0,1,5.657,2.343l1.414-1.414A10,10,0,0,0,10,0Zm5.657,2.343A8,8,0,0,1,18,10h2a10,10,0,0,0-2.929-7.071ZM18,10v7h2V10Zm0,7a1,1,0,0,1-.293.707l1.414,1.414A3,3,0,0,0,20,17Zm-.293.707A1,1,0,0,1,17,18v2a3,3,0,0,0,2.121-.879ZM17,18H16v2h1Zm-1,0a1,1,0,0,1-.707-.293l-1.414,1.414A3,3,0,0,0,16,20Zm-.707-.293A1,1,0,0,1,15,17H13a3,3,0,0,0,.879,2.121ZM15,17V14H13v3Zm0-3a1,1,0,0,1,.293-.707l-1.414-1.414A3,3,0,0,0,13,14Zm.293-.707A1,1,0,0,1,16,13V11a3,3,0,0,0-2.121.879ZM16,13h3V11H16Z" transform="translate(0 0)" fill="#09090b"/>
</svg>
