<svg id="heading-5" xmlns="http://www.w3.org/2000/svg" width="19" height="14" viewBox="0 0 19 14">
  <path id="Vector" d="M1,6A1,1,0,0,0,1,8ZM9,8A1,1,0,0,0,9,6ZM0,13a1,1,0,0,0,2,0ZM2,1A1,1,0,0,0,0,1ZM8,13a1,1,0,0,0,2,0ZM10,1A1,1,0,0,0,8,1Zm4,7H13a1,1,0,0,0,1,1Zm0-3V4a1,1,0,0,0-1,1Zm4,1a1,1,0,0,0,0-2Zm-3.553,5.806a1,1,0,0,0-.894,1.789ZM1,8H9V6H1Zm1,5V1H0V13Zm8,0V1H8V13Zm5-5V5H13V8ZM14,6h4V4H14Zm-.447,7.594A3.766,3.766,0,0,0,15.3,14V12a1.772,1.772,0,0,1-.853-.194ZM15.3,14A3.586,3.586,0,0,0,19,10.5H17A1.591,1.591,0,0,1,15.3,12ZM19,10.5A3.586,3.586,0,0,0,15.3,7V9A1.591,1.591,0,0,1,17,10.5ZM15.3,7H14V9h1.3Z" fill="#09090b"/>
</svg>
