<svg id="heater" xmlns="http://www.w3.org/2000/svg" width="22" height="22" viewBox="0 0 22 22">
  <path id="Vector" d="M9.168,6.445a1,1,0,0,0,1.664,1.109Zm1.664-4.891A1,1,0,0,0,9.168.445Zm2.836,4.891a1,1,0,0,0,1.664,1.109Zm1.664-4.891A1,1,0,1,0,13.668.445ZM5,8a1,1,0,0,0,0,2Zm.01,2a1,1,0,0,0,0-2ZM5,12a1,1,0,0,0,0,2Zm.01,2a1,1,0,0,0,0-2ZM8,15a1,1,0,1,0,2,0Zm2-4a1,1,0,0,0-2,0Zm2,4a1,1,0,1,0,2,0Zm2-4a1,1,0,0,0-2,0Zm2,4a1,1,0,1,0,2,0Zm2-4a1,1,0,0,0-2,0Zm1-7a1,1,0,0,0,0,2ZM1,17H1ZM3,5V5ZM6,6A1,1,0,0,0,6,4ZM5,19a1,1,0,0,0-2,0ZM3,21a1,1,0,0,0,2,0Zm16-2a1,1,0,0,0-2,0Zm-2,2a1,1,0,1,0,2,0ZM10.832,7.555a3.562,3.562,0,0,0,.722-2.468,3.851,3.851,0,0,0-.722-1.641,2.017,2.017,0,0,1-.4-.8,1.64,1.64,0,0,1,.4-1.094L9.168.445a3.562,3.562,0,0,0-.722,2.468,3.851,3.851,0,0,0,.722,1.641,2.017,2.017,0,0,1,.4.8,1.64,1.64,0,0,1-.4,1.094Zm4.5,0a3.562,3.562,0,0,0,.722-2.468,3.851,3.851,0,0,0-.722-1.641,2.017,2.017,0,0,1-.4-.8,1.64,1.64,0,0,1,.4-1.094L13.668.445a3.562,3.562,0,0,0-.722,2.468,3.851,3.851,0,0,0,.722,1.641,2.017,2.017,0,0,1,.4.8,1.64,1.64,0,0,1-.4,1.094ZM5,10h.01V8H5Zm0,4h.01V12H5Zm5,1V11H8v4Zm4,0V11H12v4Zm4,0V11H16v4Zm1-9a1,1,0,0,1,.707.293l1.414-1.414A3,3,0,0,0,19,4Zm.707.293A1,1,0,0,1,20,7h2a3,3,0,0,0-.879-2.121ZM20,7V17h2V7Zm0,10a1,1,0,0,1-.293.707l1.414,1.414A3,3,0,0,0,22,17Zm-.293.707A1,1,0,0,1,19,18v2a3,3,0,0,0,2.121-.879ZM19,18H3v2H19ZM3,18a1,1,0,0,1-.707-.293L.879,19.121A3,3,0,0,0,3,20Zm-.707-.293A1,1,0,0,1,2,17H0a3,3,0,0,0,.879,2.121ZM2,17V7H0V17ZM2,7a1,1,0,0,1,.293-.707L.879,4.879A3,3,0,0,0,0,7Zm.293-.707A1,1,0,0,1,3,6V4a3,3,0,0,0-2.121.879ZM3,6H6V4H3ZM3,19v2H5V19Zm14,0v2h2V19Z" transform="translate(0 0)" fill="#09090b"/>
</svg>
