<svg id="home" xmlns="http://www.w3.org/2000/svg" width="20" height="22" viewBox="0 0 20 22">
  <path id="Vector" d="M1,8,.386,7.211A1,1,0,0,0,0,8Zm9-7,.614-.789a1,1,0,0,0-1.228,0Zm9,7h1a1,1,0,0,0-.386-.789ZM1,19H1Zm5,2a1,1,0,0,0,2,0ZM7,11V10a1,1,0,0,0-1,1Zm6,0h1a1,1,0,0,0-1-1ZM12,21a1,1,0,0,0,2,0ZM1.614,8.789l9-7L9.386.211l-9,7Zm7.772-7,9,7,1.228-1.579-9-7ZM18,8V19h2V8Zm0,11a1,1,0,0,1-.293.707l1.414,1.414A3,3,0,0,0,20,19Zm-.293.707A1,1,0,0,1,17,20v2a3,3,0,0,0,2.121-.879ZM17,20H3v2H17ZM3,20a1,1,0,0,1-.707-.293L.879,21.121A3,3,0,0,0,3,22Zm-.707-.293A1,1,0,0,1,2,19H0a3,3,0,0,0,.879,2.121ZM2,19V8H0V19Zm6,2V11H6V21ZM7,12h6V10H7Zm5-1V21h2V11Z" transform="translate(0 0)" fill="#09090b"/>
</svg>
