<svg id="hotel" xmlns="http://www.w3.org/2000/svg" width="18" height="22" viewBox="0 0 18 22">
  <path id="Vector" d="M6,21a1,1,0,0,0,2,0Zm2-6.57a1,1,0,1,0-2,0ZM9,9a1,1,0,0,0,0,2Zm.01,2a1,1,0,1,0,0-2ZM9,5A1,1,0,0,0,9,7Zm.01,2a1,1,0,1,0,0-2ZM12,14.43a1,1,0,1,0-2,0ZM10,21a1,1,0,0,0,2,0Zm1.4-5.2a1,1,0,1,0,1.2-1.6Zm-6-1.6a1,1,0,1,0,1.2,1.6ZM13,9a1,1,0,0,0,0,2Zm.01,2a1,1,0,0,0,0-2ZM13,5a1,1,0,0,0,0,2Zm.01,2a1,1,0,0,0,0-2ZM5,9a1,1,0,0,0,0,2Zm.01,2a1,1,0,0,0,0-2ZM5,5A1,1,0,0,0,5,7Zm.01,2a1,1,0,0,0,0-2ZM8,21V14.43H6V21ZM9,11h.01V9H9ZM9,7h.01V5H9Zm1,7.43V21h2V14.43Zm2.6-.23A6,6,0,0,0,9,13v2a4,4,0,0,1,2.4.8ZM9,13a6,6,0,0,0-3.6,1.2l1.2,1.6A4,4,0,0,1,9,15Zm4-2h.01V9H13Zm0-4h.01V5H13ZM5,11h.01V9H5ZM5,7h.01V5H5ZM3,2H15V0H3ZM15,2a1,1,0,0,1,1,1h2a3,3,0,0,0-3-3Zm1,1V19h2V3Zm0,16a1,1,0,0,1-1,1v2a3,3,0,0,0,3-3Zm-1,1H3v2H15ZM3,20a1,1,0,0,1-1-1H0a3,3,0,0,0,3,3ZM2,19V3H0V19ZM2,3A1,1,0,0,1,3,2V0A3,3,0,0,0,0,3Z" fill="#09090b"/>
</svg>
