<svg id="hourglass" xmlns="http://www.w3.org/2000/svg" width="16" height="22" viewBox="0 0 16 22">
  <path id="Vector" d="M1,20a1,1,0,0,0,0,2Zm14,2a1,1,0,0,0,0-2ZM1,0A1,1,0,0,0,1,2ZM15,2a1,1,0,0,0,0-2ZM12,21a1,1,0,0,0,2,0Zm1-4.172h0Zm-.586-1.414-.707.707h0Zm-8.828,0,.707.707h0ZM3,16.828H3ZM2,21a1,1,0,0,0,2,0ZM4,1A1,1,0,0,0,2,1ZM3,5.172H3Zm.586,1.414.707-.707h0Zm8.828,0-.707-.707h0ZM13,5.172h0ZM14,1a1,1,0,0,0-2,0ZM1,22H15V20H1ZM1,2H15V0H1ZM14,21V16.828H12V21Zm0-4.172a3,3,0,0,0-.879-2.121l-1.414,1.414a1,1,0,0,1,.293.707Zm-.879-2.121L8.707,10.293,7.293,11.707l4.414,4.414ZM7.293,10.293,2.879,14.707l1.414,1.414,4.414-4.414ZM2.879,14.707A3,3,0,0,0,2,16.828H4a1,1,0,0,1,.293-.707ZM2,16.828V21H4V16.828ZM2,1V5.172H4V1ZM2,5.172a3,3,0,0,0,.879,2.121L4.293,5.879A1,1,0,0,1,4,5.172Zm.879,2.121,4.414,4.414,1.414-1.414L4.293,5.879Zm5.828,4.414,4.414-4.414L11.707,5.879,7.293,10.293Zm4.414-4.414A3,3,0,0,0,14,5.172H12a1,1,0,0,1-.293.707ZM14,5.172V1H12V5.172Z" fill="#09090b"/>
</svg>
