<svg id="ice-cream-bowl" xmlns="http://www.w3.org/2000/svg" width="18" height="20" viewBox="0 0 18 20">
  <path id="Vector" d="M17,9h1a1,1,0,0,0-1-1ZM1,9V8A1,1,0,0,0,0,9Zm4,9a1,1,0,0,0,0,2Zm8,2a1,1,0,0,0,0-2Zm-3-4a1,1,0,1,0-2,0ZM8,19a1,1,0,0,0,2,0ZM1.181,9.285A1,1,0,0,0,3.1,8.715ZM5.495,4.5v0Zm2.4,4.212a1,1,0,0,0,1.917.57Zm.29.57a1,1,0,0,0,1.917-.57ZM12.5,4.5v0Zm2.4,4.212a1,1,0,0,0,1.917.57ZM11.5,4.5a1,1,0,0,0,2,0ZM9,1V1ZM4.5,4.5a1,1,0,0,0,2,0ZM9,16c5.32,0,9-2.931,9-7H16c0,2.551-2.32,5-7,5Zm8-8H1v2H17ZM0,9c0,4.069,3.68,7,9,7V14c-4.68,0-7-2.449-7-5ZM5,20h8V18H5Zm3-4v3h2V16ZM3.1,8.715a2.5,2.5,0,0,1-.065-1.15l-1.969-.35a4.5,4.5,0,0,0,.117,2.07Zm-.065-1.15a2.5,2.5,0,0,1,.458-1.057l-1.6-1.2a4.5,4.5,0,0,0-.824,1.9Zm.458-1.057a2.5,2.5,0,0,1,.883-.74l-.9-1.788A4.5,4.5,0,0,0,1.888,5.312Zm.883-.74A2.5,2.5,0,0,1,5.495,5.5v-2a4.5,4.5,0,0,0-2.018.478ZM5.495,5.5a2.5,2.5,0,0,1,1.121.265l.9-1.788A4.5,4.5,0,0,0,5.495,3.5Zm1.121.265a2.5,2.5,0,0,1,.883.74l1.6-1.2A4.5,4.5,0,0,0,7.513,3.981Zm.883.74a2.5,2.5,0,0,1,.458,1.057l1.969-.35a4.5,4.5,0,0,0-.824-1.9Zm.458,1.057a2.5,2.5,0,0,1-.065,1.15l1.917.57a4.5,4.5,0,0,0,.117-2.07ZM10.1,8.715a2.5,2.5,0,0,1-.065-1.15l-1.969-.35a4.5,4.5,0,0,0,.117,2.07Zm-.065-1.15a2.5,2.5,0,0,1,.458-1.057l-1.6-1.2a4.5,4.5,0,0,0-.824,1.9Zm.458-1.057a2.5,2.5,0,0,1,.883-.74l-.9-1.788A4.5,4.5,0,0,0,8.888,5.312Zm.883-.74A2.5,2.5,0,0,1,12.5,5.5v-2a4.5,4.5,0,0,0-2.018.478ZM12.5,5.5a2.5,2.5,0,0,1,1.121.265l.9-1.788A4.5,4.5,0,0,0,12.5,3.5Zm1.121.265a2.5,2.5,0,0,1,.883.74l1.6-1.2a4.5,4.5,0,0,0-1.589-1.331Zm.883.74a2.5,2.5,0,0,1,.458,1.057l1.969-.35a4.5,4.5,0,0,0-.824-1.9Zm.458,1.057a2.5,2.5,0,0,1-.065,1.15l1.917.57a4.5,4.5,0,0,0,.117-2.07ZM13.5,4.5a4.5,4.5,0,0,0-.342-1.722l-1.848.765a2.5,2.5,0,0,1,.19.957Zm-.342-1.722a4.5,4.5,0,0,0-.976-1.46L10.768,2.732a2.5,2.5,0,0,1,.542.811Zm-.976-1.46a4.5,4.5,0,0,0-1.46-.975L9.957,2.19a2.5,2.5,0,0,1,.811.542ZM10.722.343A4.5,4.5,0,0,0,9,0V2a2.5,2.5,0,0,1,.957.19ZM9,0A4.5,4.5,0,0,0,7.278.343L8.043,2.19A2.5,2.5,0,0,1,9,2ZM7.278.343a4.5,4.5,0,0,0-1.46.975L7.232,2.732a2.5,2.5,0,0,1,.811-.542Zm-1.46.975a4.5,4.5,0,0,0-.975,1.46l1.848.765a2.5,2.5,0,0,1,.542-.811Zm-.975,1.46A4.5,4.5,0,0,0,4.5,4.5h2a2.5,2.5,0,0,1,.19-.957Z" fill="#09090b"/>
</svg>
