<svg width="24" height="21" viewBox="0 0 24 21" fill="none" xmlns="http://www.w3.org/2000/svg">
    <g clip-path="url(#clip0_9_253)">
    <path d="M22.6554 12.9649C22.3627 12.7394 22.0219 12.5846 21.6595 12.5124C21.2971 12.4402 20.923 12.4527 20.5662 12.5489L16.4508 13.4951C16.5466 13.0906 16.5495 12.6697 16.4595 12.264C16.3694 11.8582 16.1887 11.4781 15.9308 11.1521C15.673 10.8261 15.3447 10.5627 14.9705 10.3816C14.5964 10.2006 14.1861 10.1065 13.7705 10.1066H8.84656C8.43305 10.1055 8.02343 10.1864 7.64138 10.3446C7.25932 10.5028 6.9124 10.7352 6.62066 11.0282L4.39574 13.2541H1.57377C1.15638 13.2541 0.756086 13.4199 0.460947 13.7151C0.165808 14.0102 0 14.4105 0 14.8279L0 18.7623C0 19.1797 0.165808 19.58 0.460947 19.8751C0.756086 20.1703 1.15638 20.3361 1.57377 20.3361H11.8033C11.8676 20.3361 11.9317 20.3282 11.9941 20.3125L18.2892 18.7387C18.3293 18.7291 18.3685 18.716 18.4062 18.6993L22.2295 17.0725L22.2728 17.0528C22.6402 16.8692 22.9549 16.5951 23.1871 16.2562C23.4193 15.9174 23.5615 15.525 23.6001 15.1161C23.6388 14.7072 23.5727 14.2951 23.4081 13.9188C23.2435 13.5424 22.9859 13.2142 22.6593 12.9649H22.6554ZM1.57377 14.8279H3.93443V18.7623H1.57377V14.8279ZM21.5833 15.6354L17.8456 17.2269L11.7049 18.7623H5.5082V14.3666L7.7341 12.1416C7.87971 11.9949 8.05304 11.8785 8.24402 11.7993C8.43499 11.7201 8.63981 11.6797 8.84656 11.6803H13.7705C14.0835 11.6803 14.3838 11.8047 14.6051 12.026C14.8265 12.2474 14.9508 12.5476 14.9508 12.8607C14.9508 13.1737 14.8265 13.4739 14.6051 13.6953C14.3838 13.9166 14.0835 14.041 13.7705 14.041H11.0164C10.8077 14.041 10.6076 14.1239 10.46 14.2715C10.3124 14.419 10.2295 14.6192 10.2295 14.8279C10.2295 15.0366 10.3124 15.2367 10.46 15.3843C10.6076 15.5319 10.8077 15.6148 11.0164 15.6148H14.1639C14.2232 15.6146 14.2822 15.608 14.34 15.5951L20.9302 14.0793L20.9607 14.0715C21.1618 14.0156 21.3766 14.0362 21.5635 14.1291C21.7505 14.222 21.8964 14.3809 21.9734 14.575C22.0503 14.7691 22.0527 14.9847 21.9801 15.1805C21.9076 15.3763 21.7652 15.5383 21.5803 15.6354H21.5833ZM15.181 6.72886C15.0333 6.58121 14.9504 6.38095 14.9504 6.17214C14.9504 5.96333 15.0333 5.76307 15.181 5.61542C15.3286 5.46776 15.5289 5.38481 15.7377 5.38481C15.9465 5.38481 16.1468 5.46776 16.2944 5.61542L18.0984 7.42033V1.45083C18.0984 1.24213 18.1813 1.04198 18.3288 0.894414C18.4764 0.746844 18.6765 0.66394 18.8852 0.66394C19.0939 0.66394 19.2941 0.746844 19.4417 0.894414C19.5892 1.04198 19.6721 1.24213 19.6721 1.45083V7.42033L21.4761 5.61542C21.6237 5.46776 21.824 5.38481 22.0328 5.38481C22.2416 5.38481 22.4419 5.46776 22.5895 5.61542C22.7372 5.76307 22.8201 5.96333 22.8201 6.17214C22.8201 6.38095 22.7372 6.58121 22.5895 6.72886L19.442 9.8764C19.3689 9.94956 19.2821 10.0076 19.1866 10.0472C19.091 10.0868 18.9887 10.1072 18.8852 10.1072C18.7818 10.1072 18.6794 10.0868 18.5839 10.0472C18.4884 10.0076 18.4016 9.94956 18.3285 9.8764L15.181 6.72886Z" fill="black"/>
    </g>
    <defs>
    <clipPath id="clip0_9_253">
    <rect width="24" height="19.6721" fill="white" transform="translate(0 0.66394)"/>
    </clipPath>
    </defs>
    </svg>
    