<svg xmlns="http://www.w3.org/2000/svg" width="14" height="14" viewBox="0 0 14 14">
  <path id="Vector" d="M7,0A7,7,0,1,1,0,7,7,7,0,0,1,7,0ZM6.412,12.469a.194.194,0,0,0,.213-.2V10.1a.194.194,0,0,0-.213-.2,5.03,5.03,0,0,0-1.479.387.191.191,0,0,0-.1.239A7.955,7.955,0,0,0,5.292,11.6a5.723,5.723,0,0,0,.434.7.191.191,0,0,0,.115.074,5.463,5.463,0,0,0,.571.091ZM7.588,9.906a.194.194,0,0,0-.213.2v2.172a.194.194,0,0,0,.213.2,5.463,5.463,0,0,0,.571-.091.191.191,0,0,0,.115-.074,5.723,5.723,0,0,0,.434-.7,7.953,7.953,0,0,0,.462-1.068.191.191,0,0,0-.1-.239,5.03,5.03,0,0,0-1.479-.387Zm1.626-.365a.2.2,0,0,0,.277-.14,11.036,11.036,0,0,0,.244-1.82.2.2,0,0,0-.2-.207H7.575a.2.2,0,0,0-.2.2V8.948a.205.205,0,0,0,.188.2,5.854,5.854,0,0,1,1.651.391ZM6.425,6.625a.2.2,0,0,0,.2-.2V5.052a.2.2,0,0,0-.188-.2,5.855,5.855,0,0,1-1.651-.391.2.2,0,0,0-.277.14,11.029,11.029,0,0,0-.244,1.82.2.2,0,0,0,.2.207ZM7.563,4.85a.2.2,0,0,0-.188.2V6.425a.2.2,0,0,0,.2.2H9.537a.2.2,0,0,0,.2-.207A11.037,11.037,0,0,0,9.491,4.6a.2.2,0,0,0-.277-.14,5.855,5.855,0,0,1-1.651.391Zm1.5-1.143a.191.191,0,0,0,.1-.239A7.952,7.952,0,0,0,8.708,2.4a5.726,5.726,0,0,0-.434-.7.192.192,0,0,0-.115-.074,5.49,5.49,0,0,0-.571-.091.194.194,0,0,0-.213.2V3.9a.194.194,0,0,0,.213.2,5.027,5.027,0,0,0,1.479-.387Zm-2.656.387a.194.194,0,0,0,.213-.2V1.727a.194.194,0,0,0-.213-.2,5.49,5.49,0,0,0-.571.091.192.192,0,0,0-.115.074,5.724,5.724,0,0,0-.434.7A7.955,7.955,0,0,0,4.83,3.468a.191.191,0,0,0,.1.239,5.027,5.027,0,0,0,1.479.387ZM6.437,9.15a.205.205,0,0,0,.188-.2V7.575a.2.2,0,0,0-.2-.2H4.463a.2.2,0,0,0-.2.207A11.029,11.029,0,0,0,4.509,9.4a.2.2,0,0,0,.277.14A5.855,5.855,0,0,1,6.437,9.15Zm3.654,1.806a.19.19,0,0,0-.307.079,8.45,8.45,0,0,1-.422.933,5.5,5.5,0,0,0,1.038-.645,2.136,2.136,0,0,0-.309-.367Zm2.378-3.368a.194.194,0,0,0-.2-.213H10.688a.2.2,0,0,0-.2.194,11.7,11.7,0,0,1-.338,2.309.209.209,0,0,0,.08.219,3.487,3.487,0,0,1,.583.532.207.207,0,0,0,.31.012,5.478,5.478,0,0,0,1.346-3.053ZM3.771,10.1a.209.209,0,0,0,.08-.219,11.7,11.7,0,0,1-.338-2.309.2.2,0,0,0-.2-.194H1.727a.194.194,0,0,0-.2.213,5.478,5.478,0,0,0,1.346,3.053.207.207,0,0,0,.31-.012,3.484,3.484,0,0,1,.583-.532ZM3.6,11.324a5.5,5.5,0,0,0,1.038.645,8.451,8.451,0,0,1-.422-.933.19.19,0,0,0-.308-.079,2.141,2.141,0,0,0-.309.367Zm0-8.647a2.139,2.139,0,0,0,.309.367.19.19,0,0,0,.308-.079,8.454,8.454,0,0,1,.422-.933A5.5,5.5,0,0,0,3.6,2.676Zm.251,1.446a.209.209,0,0,0-.08-.219,3.488,3.488,0,0,1-.583-.532.207.207,0,0,0-.31-.012A5.478,5.478,0,0,0,1.531,6.412a.194.194,0,0,0,.2.213H3.312a.2.2,0,0,0,.2-.194,11.7,11.7,0,0,1,.338-2.309Zm8.422,2.5a.194.194,0,0,0,.2-.213,5.478,5.478,0,0,0-1.346-3.053.207.207,0,0,0-.31.012,3.491,3.491,0,0,1-.583.532.209.209,0,0,0-.08.219,11.7,11.7,0,0,1,.338,2.309.2.2,0,0,0,.2.194ZM9.361,2.031a8.454,8.454,0,0,1,.422.933.19.19,0,0,0,.307.079,2.135,2.135,0,0,0,.309-.367,5.5,5.5,0,0,0-1.038-.645Z" fill="#4cb782" fill-rule="evenodd"/>
</svg>
