<svg width="24" height="20" viewBox="0 0 24 20" fill="none" xmlns="http://www.w3.org/2000/svg">
    <path d="M12.0022 7.33405C11.4749 7.33405 10.9595 7.49041 10.521 7.78335C10.0826 8.07628 9.74093 8.49265 9.53915 8.97978C9.33737 9.46692 9.28458 10.003 9.38744 10.5201C9.49031 11.0372 9.74422 11.5123 10.1171 11.8851C10.4899 12.2579 10.9649 12.5118 11.4821 12.6147C11.9992 12.7176 12.5352 12.6648 13.0224 12.463C13.5095 12.2612 13.9259 11.9195 14.2188 11.4811C14.5117 11.0427 14.6681 10.5273 14.6681 10C14.6681 9.29294 14.3872 8.61485 13.8873 8.11489C13.3873 7.61493 12.7092 7.33405 12.0022 7.33405ZM12.0022 11.5996C11.6858 11.5996 11.3765 11.5058 11.1135 11.33C10.8504 11.1542 10.6454 10.9044 10.5244 10.6121C10.4033 10.3198 10.3716 9.99822 10.4333 9.68794C10.495 9.37765 10.6474 9.09264 10.8711 8.86893C11.0948 8.64523 11.3798 8.49289 11.6901 8.43117C12.0004 8.36945 12.322 8.40112 12.6143 8.52219C12.9066 8.64326 13.1564 8.84828 13.3322 9.11133C13.5079 9.37437 13.6017 9.68363 13.6017 10C13.6017 10.4242 13.4332 10.8311 13.1332 11.1311C12.8332 11.431 12.4264 11.5996 12.0022 11.5996ZM16.9148 12.0754C16.6858 12.617 16.3687 13.117 15.9764 13.555C15.8814 13.6578 15.7499 13.7191 15.6101 13.7257C15.4703 13.7324 15.3335 13.6838 15.2292 13.5904C15.125 13.4971 15.0616 13.3665 15.0527 13.2268C15.0439 13.0872 15.0903 12.9496 15.182 12.8439C15.8821 12.0622 16.2692 11.0497 16.2692 10.0003C16.2692 8.95095 15.8821 7.93846 15.182 7.15677C15.134 7.10482 15.0968 7.04384 15.0726 6.97738C15.0483 6.91092 15.0376 6.84031 15.0409 6.76966C15.0443 6.699 15.0617 6.62972 15.092 6.56585C15.1224 6.50197 15.1652 6.44478 15.2179 6.39761C15.2706 6.35043 15.3322 6.31421 15.399 6.29106C15.4659 6.26791 15.5366 6.25829 15.6072 6.26276C15.6778 6.26723 15.7468 6.2857 15.8102 6.31709C15.8736 6.34849 15.9301 6.39218 15.9764 6.44563C16.6497 7.19898 17.0952 8.12796 17.2614 9.12456C17.4275 10.1212 17.3073 11.1444 16.9148 12.0754ZM8.06989 8.33978C7.7553 9.08449 7.65881 9.90327 7.79168 10.7007C7.92455 11.4982 8.2813 12.2414 8.82036 12.8439C8.91202 12.9496 8.95844 13.0872 8.9496 13.2268C8.94076 13.3665 8.87736 13.4971 8.77309 13.5904C8.66882 13.6838 8.53204 13.7324 8.39225 13.7257C8.25247 13.7191 8.12089 13.6578 8.02591 13.555C7.15054 12.5779 6.66648 11.3122 6.66648 10.0003C6.66648 8.68846 7.15054 7.42273 8.02591 6.44563C8.12021 6.34001 8.25261 6.27618 8.39397 6.26818C8.53533 6.26019 8.67409 6.30867 8.7797 6.40297C8.88532 6.49728 8.94915 6.62967 8.95715 6.77104C8.96515 6.9124 8.91666 7.05115 8.82236 7.15677C8.50778 7.50673 8.2535 7.90651 8.06989 8.33978ZM20 10C20.0032 12.0939 19.1823 14.105 17.7146 15.5985C17.6661 15.6504 17.6076 15.6921 17.5427 15.7211C17.4778 15.7501 17.4078 15.7658 17.3367 15.7673C17.2656 15.7689 17.195 15.7562 17.1289 15.73C17.0628 15.7038 17.0026 15.6647 16.9519 15.6149C16.9011 15.5652 16.8608 15.5057 16.8334 15.4402C16.8059 15.3746 16.7919 15.3042 16.792 15.2331C16.7922 15.1621 16.8065 15.0917 16.8343 15.0263C16.862 14.9608 16.9025 14.9016 16.9535 14.852C18.2243 13.5573 18.9363 11.8155 18.9363 10.0013C18.9363 8.18713 18.2243 6.44539 16.9535 5.15065C16.8541 5.04971 16.799 4.91345 16.8001 4.77184C16.8012 4.63023 16.8586 4.49486 16.9595 4.39552C17.0604 4.29618 17.1967 4.241 17.3383 4.24212C17.4799 4.24325 17.6153 4.30058 17.7146 4.40152C19.1823 5.895 20.0032 7.90608 20 10ZM7.05084 14.8507C7.09994 14.9007 7.13872 14.9598 7.16495 15.0248C7.19119 15.0897 7.20438 15.1592 7.20376 15.2293C7.20314 15.2994 7.18873 15.3686 7.16135 15.4331C7.13397 15.4976 7.09415 15.556 7.04417 15.6051C6.9942 15.6542 6.93504 15.693 6.87008 15.7193C6.80511 15.7455 6.73562 15.7587 6.66556 15.7581C6.5955 15.7574 6.52625 15.743 6.46176 15.7157C6.39728 15.6883 6.33881 15.6485 6.28971 15.5985C4.82223 14.1045 4 12.0941 4 10C4 7.90587 4.82223 5.89546 6.28971 4.40152C6.33827 4.3496 6.39671 4.30792 6.46161 4.27893C6.52651 4.24993 6.59655 4.2342 6.66762 4.23267C6.73868 4.23113 6.80934 4.24383 6.87543 4.27C6.94152 4.29617 7.0017 4.33529 7.05245 4.38506C7.1032 4.43483 7.14349 4.49425 7.17094 4.55982C7.19839 4.62539 7.21245 4.69578 7.2123 4.76686C7.21215 4.83794 7.19779 4.90828 7.17006 4.97373C7.14233 5.03918 7.1018 5.09842 7.05084 5.14798C5.78003 6.44272 5.06807 8.18447 5.06807 9.99866C5.06807 11.8129 5.78003 13.5546 7.05084 14.8493V14.8507Z" fill="#666666"/>
    </svg>
    