<svg xmlns="http://www.w3.org/2000/svg" width="15" height="15" viewBox="0 0 15 15">
  <g id="Group_32261" data-name="Group 32261" transform="translate(6589 4247.75)">
    <g id="arrow-right" transform="translate(-6574 -4232.75) rotate(180)">
      <path id="Vector" d="M9.826,3.27a.75.75,0,0,1,0,.96l-2.5,3a.75.75,0,0,1-1.152-.96L7.649,4.5H-4.25A.75.75,0,0,1-5,3.75.75.75,0,0,1-4.25,3h11.9L6.174,1.23A.75.75,0,0,1,7.326.27Z" transform="translate(5 0)"/>
    </g>
    <g id="arrow-right-2" data-name="arrow-right" transform="translate(-6589 -4247.75)">
      <path id="Vector-2" data-name="Vector" d="M9.826,3.27a.75.75,0,0,1,0,.96l-2.5,3a.75.75,0,0,1-1.152-.96L7.649,4.5H-4.25A.75.75,0,0,1-5,3.75.75.75,0,0,1-4.25,3h11.9L6.174,1.23A.75.75,0,0,1,7.326.27Z" transform="translate(5 0)"/>
    </g>
  </g>
</svg>
