<svg id="question" xmlns="http://www.w3.org/2000/svg" width="15.392" height="15.392" viewBox="0 0 15.392 15.392">
  <path id="Vector" d="M7.7,1.392a6.3,6.3,0,1,0,4.458,1.846A6.3,6.3,0,0,0,7.7,1.392ZM0,7.7a7.7,7.7,0,1,1,2.254,5.442A7.7,7.7,0,0,1,0,7.7Z" transform="translate(0 0)"/>
  <path id="Vector-2" data-name="Vector" d="M7.776,4.662A1.17,1.17,0,0,0,6.526,5.83a.7.7,0,1,1-1.393,0A2.563,2.563,0,1,1,8.55,8.246a.237.237,0,0,0-.157.224V9.1A.7.7,0,1,1,7,9.1V8.47A1.63,1.63,0,0,1,8.086,6.933a1.171,1.171,0,0,0-.31-2.271Z" transform="translate(0 0)"/>
  <path id="Vector-3" data-name="Vector" d="M7.746,11.267a.179.179,0,1,0,.127.052A.179.179,0,0,0,7.746,11.267Zm-.53.709a.75.75,0,1,1,.53.22.75.75,0,0,1-.53-.22Z" transform="translate(0 0)"/>
</svg>
