<svg width="24" height="25" viewBox="0 0 24 25" fill="none" xmlns="http://www.w3.org/2000/svg">
    <g clip-path="url(#clip0_9_249)">
    <path d="M23.4985 1.00171C23.2829 0.78628 23.0138 0.632213 22.7189 0.555378C22.424 0.478542 22.1139 0.481715 21.8206 0.56457H21.8046L1.23956 6.80449C0.905693 6.90071 0.608949 7.0961 0.388647 7.36478C0.168345 7.63345 0.0348856 7.96273 0.00595442 8.30897C-0.0229767 8.65521 0.0539863 9.00207 0.226644 9.30358C0.399303 9.60509 0.659505 9.84702 0.972769 9.99731L10.0713 14.4287L14.4963 23.5218C14.634 23.8155 14.8528 24.0637 15.1269 24.237C15.4011 24.4103 15.7191 24.5016 16.0435 24.5C16.0928 24.5 16.1421 24.4978 16.1913 24.4936C16.5373 24.4655 16.8664 24.3324 17.1345 24.112C17.4027 23.8915 17.597 23.5944 17.6913 23.2604L23.9271 2.69561C23.9271 2.69026 23.9271 2.6849 23.9271 2.67954C24.011 2.38701 24.0155 2.0774 23.9402 1.78253C23.8649 1.48766 23.7124 1.21816 23.4985 1.00171ZM16.0531 22.7696L16.0478 22.7846V22.7771L11.7556 13.9594L16.8985 8.81661C17.0524 8.65456 17.137 8.43877 17.1341 8.21527C17.1313 7.99176 17.0412 7.77821 16.8832 7.62016C16.7251 7.4621 16.5116 7.37204 16.288 7.36918C16.0645 7.36632 15.8488 7.45088 15.6867 7.60484L10.5438 12.7476L1.72277 8.45554H1.71527H1.73027L22.2856 2.21455L16.0531 22.7696Z" fill="black"/>
    </g>
    <defs>
    <clipPath id="clip0_9_249">
    <rect width="24" height="24" fill="white" transform="translate(0 0.5)"/>
    </clipPath>
    </defs>
    </svg>
    