<svg id="image-minus" xmlns="http://www.w3.org/2000/svg" width="21" height="20" viewBox="0 0 21 20">
  <path id="Vector" d="M20,7a1,1,0,0,0-2,0ZM1,17H1ZM3,1V1Zm7,1a1,1,0,0,0,0-2Zm4,0a1,1,0,0,0,0,2Zm6,2a1,1,0,0,0,0-2Zm-1.707,9.707a1,1,0,1,0,1.414-1.414ZM15.914,9.914l.707-.707h0Zm-2.828,0-.707-.707h0ZM3.293,18.293a1,1,0,1,0,1.414,1.414ZM18,7V17h2V7Zm0,10a1,1,0,0,1-.293.707l1.414,1.414A3,3,0,0,0,20,17Zm-.293.707A1,1,0,0,1,17,18v2a3,3,0,0,0,2.121-.879ZM17,18H3v2H17ZM3,18a1,1,0,0,1-.707-.293L.879,19.121A3,3,0,0,0,3,20Zm-.707-.293A1,1,0,0,1,2,17H0a3,3,0,0,0,.879,2.121ZM2,17V3H0V17ZM2,3a1,1,0,0,1,.293-.707L.879.879A3,3,0,0,0,0,3Zm.293-.707A1,1,0,0,1,3,2V0A3,3,0,0,0,.879.879ZM3,2h7V0H3ZM14,4h6V2H14ZM8,7A1,1,0,0,1,7,8v2a3,3,0,0,0,3-3ZM7,8A1,1,0,0,1,6,7H4a3,3,0,0,0,3,3ZM6,7A1,1,0,0,1,7,6V4A3,3,0,0,0,4,7ZM7,6A1,1,0,0,1,8,7h2A3,3,0,0,0,7,4Zm12.707,6.293L16.621,9.207l-1.414,1.414,3.086,3.086ZM16.621,9.207A3,3,0,0,0,14.5,8.328v2a1,1,0,0,1,.707.293ZM14.5,8.328a3,3,0,0,0-2.121.878l1.414,1.414a1,1,0,0,1,.707-.293Zm-2.121.878L3.293,18.293l1.414,1.414,9.086-9.086Z" fill="#09090b"/>
</svg>
