<svg id="image-up" xmlns="http://www.w3.org/2000/svg" width="20" height="21" viewBox="0 0 20 21">
  <path id="Vector" d="M8.3,20a1,1,0,0,0,0-2ZM1,17H1ZM3,1V1ZM17,1V1Zm2,12-.707.707A1,1,0,0,0,20,13ZM15.9,9.9l.707-.707L16.6,9.186Zm-2.814.014-.707-.707h0ZM3.293,18.293a1,1,0,1,0,1.414,1.414Zm8-1.5a1,1,0,0,0,1.414,1.414ZM15,14.5l.707-.707a1,1,0,0,0-1.414,0Zm2.293,3.707a1,1,0,0,0,1.414-1.414ZM14,20a1,1,0,0,0,2,0ZM8.3,18H3v2H8.3ZM3,18a1,1,0,0,1-.707-.293L.879,19.121A3,3,0,0,0,3,20Zm-.707-.293A1,1,0,0,1,2,17H0a3,3,0,0,0,.879,2.121ZM2,17V3H0V17ZM2,3a1,1,0,0,1,.293-.707L.879.879A3,3,0,0,0,0,3Zm.293-.707A1,1,0,0,1,3,2V0A3,3,0,0,0,.879.879ZM3,2H17V0H3ZM17,2a1,1,0,0,1,.707.293L19.121.879A3,3,0,0,0,17,0Zm.707.293A1,1,0,0,1,18,3h2A3,3,0,0,0,19.121.879ZM18,3V13h2V3Zm1.707,9.293-3.1-3.1-1.414,1.414,3.1,3.1ZM16.6,9.186a3,3,0,0,0-2.115-.857l.01,2a1,1,0,0,1,.7.286Zm-2.115-.857a3,3,0,0,0-2.106.878l1.414,1.414a1,1,0,0,1,.7-.293Zm-2.106.878L3.293,18.293l1.414,1.414,9.086-9.086Zm.328,9,3-3-1.414-1.414-3,3Zm1.586-3,3,3,1.414-1.414-3-3ZM16,20V14.5H14V20ZM8,7A1,1,0,0,1,7,8v2a3,3,0,0,0,3-3ZM7,8A1,1,0,0,1,6,7H4a3,3,0,0,0,3,3ZM6,7A1,1,0,0,1,7,6V4A3,3,0,0,0,4,7ZM7,6A1,1,0,0,1,8,7h2A3,3,0,0,0,7,4Z" fill="#09090b"/>
</svg>
