<svg id="images" xmlns="http://www.w3.org/2000/svg" width="22" height="22" viewBox="0 0 22 22">
  <path id="Vector" d="M17,22a1,1,0,0,0,0-2ZM1,19H1ZM2,5A1,1,0,0,0,0,5Zm18.293,7.707a1,1,0,1,0,1.414-1.414Zm-.589-2L20.411,10h0Zm-3.408,0L15.589,10h0Zm-7,5.589a1,1,0,0,0,1.414,1.414ZM17,20H3v2H17ZM3,20a1,1,0,0,1-.707-.293L.879,21.121A3,3,0,0,0,3,22Zm-.707-.293A1,1,0,0,1,2,19H0a3,3,0,0,0,.879,2.121ZM2,19V5H0V19Zm19.707-7.707-1.3-1.3L19,11.411l1.3,1.3Zm-1.3-1.3A3.41,3.41,0,0,0,18,9v2a1.41,1.41,0,0,1,1,.413ZM18,9a3.41,3.41,0,0,0-2.411,1L17,11.411A1.41,1.41,0,0,1,18,11Zm-2.411,1-6.3,6.3,1.414,1.414,6.3-6.3ZM12,7a1,1,0,0,1-1,1v2a3,3,0,0,0,3-3ZM11,8a1,1,0,0,1-1-1H8a3,3,0,0,0,3,3ZM10,7a1,1,0,0,1,1-1V4A3,3,0,0,0,8,7Zm1-1a1,1,0,0,1,1,1h2a3,3,0,0,0-3-3ZM7,2H19V0H7ZM19,2a1,1,0,0,1,1,1h2a3,3,0,0,0-3-3Zm1,1V15h2V3Zm0,12a1,1,0,0,1-1,1v2a3,3,0,0,0,3-3Zm-1,1H7v2H19ZM7,16a1,1,0,0,1-1-1H4a3,3,0,0,0,3,3ZM6,15V3H4V15ZM6,3A1,1,0,0,1,7,2V0A3,3,0,0,0,4,3Z" fill="#09090b"/>
</svg>
