<svg id="import" xmlns="http://www.w3.org/2000/svg" width="22" height="18" viewBox="0 0 22 18">
  <path id="Vector" d="M12,1a1,1,0,0,0-2,0ZM11,13l-.707.707a1,1,0,0,0,1.414,0ZM7.707,8.293A1,1,0,0,0,6.293,9.707Zm8,1.414a1,1,0,1,0-1.414-1.414ZM7,4A1,1,0,0,0,7,2ZM3,3V3ZM1,5H1ZM1,15H1ZM19,3V3ZM15,2a1,1,0,0,0,0,2ZM10,1V13h2V1ZM6.293,9.707l4,4,1.414-1.414-4-4Zm5.414,4,4-4L14.293,8.293l-4,4ZM7,2H3V4H7ZM3,2a3,3,0,0,0-2.121.879L2.293,4.293A1,1,0,0,1,3,4ZM.879,2.879A3,3,0,0,0,0,5H2a1,1,0,0,1,.293-.707ZM0,5V15H2V5ZM0,15a3,3,0,0,0,.879,2.121l1.414-1.414A1,1,0,0,1,2,15Zm.879,2.121A3,3,0,0,0,3,18V16a1,1,0,0,1-.707-.293ZM3,18H19V16H3Zm16,0a3,3,0,0,0,2.121-.879l-1.414-1.414A1,1,0,0,1,19,16Zm2.121-.879A3,3,0,0,0,22,15H20a1,1,0,0,1-.293.707ZM22,15V5H20V15ZM22,5a3,3,0,0,0-.879-2.121L19.707,4.293A1,1,0,0,1,20,5Zm-.879-2.121A3,3,0,0,0,19,2V4a1,1,0,0,1,.707.293ZM19,2H15V4h4Z" fill="#09090b"/>
</svg>
