<svg id="indian-rupee" xmlns="http://www.w3.org/2000/svg" width="14" height="20" viewBox="0 0 14 20">
  <path id="Vector" d="M1,0A1,1,0,0,0,1,2ZM13,2a1,1,0,0,0,0-2ZM1,5A1,1,0,0,0,1,7ZM13,7a1,1,0,0,0,0-2ZM1,11V10a1,1,0,0,0-.685,1.728Zm7.815,8.728a1,1,0,1,0,1.371-1.456ZM4,0A1,1,0,0,0,4,2ZM1,2H13V0H1ZM1,7H13V5H1ZM.315,11.728l8.5,8,1.371-1.456-8.5-8ZM1,12H4V10H1Zm3,0a5.835,5.835,0,0,0,4.5-1.9A6.177,6.177,0,0,0,10,6,6.177,6.177,0,0,0,8.5,1.9,5.835,5.835,0,0,0,4,0V2A3.842,3.842,0,0,1,7,3.227,4.179,4.179,0,0,1,8,6,4.179,4.179,0,0,1,7,8.773,3.842,3.842,0,0,1,4,10Z" transform="translate(0 0)" fill="#09090b"/>
</svg>
