<svg id="instagram" xmlns="http://www.w3.org/2000/svg" width="22" height="22" viewBox="0 0 22 22">
  <path id="Vector" d="M15,10.37l-.989.147ZM11.63,7l-.147.989ZM16.5,4.5a1,1,0,0,0,0,2Zm.01,2a1,1,0,0,0,0-2ZM6,2H16V0H6ZM16,2a4,4,0,0,1,4,4h2a6,6,0,0,0-6-6Zm4,4V16h2V6Zm0,10a4,4,0,0,1-4,4v2a6,6,0,0,0,6-6Zm-4,4H6v2H16ZM6,20a4,4,0,0,1-4-4H0a6,6,0,0,0,6,6ZM2,16V6H0V16ZM2,6A4,4,0,0,1,6,2V0A6,6,0,0,0,0,6Zm12.011,4.517a3,3,0,0,1-.3,1.822l1.775.921a5,5,0,0,0,.508-3.036Zm-.3,1.822a3,3,0,0,1-1.314,1.3l.9,1.786a5,5,0,0,0,2.19-2.163Zm-1.314,1.3a3,3,0,0,1-1.825.282l-.318,1.975a5,5,0,0,0,3.042-.47Zm-1.825.282a3,3,0,0,1-1.645-.841L7.508,14.492a5,5,0,0,0,2.741,1.4Zm-1.645-.841a3,3,0,0,1-.841-1.645l-1.975.318a5,5,0,0,0,1.4,2.741Zm-.841-1.645a3,3,0,0,1,.282-1.825l-1.786-.9a5,5,0,0,0-.47,3.042Zm.282-1.825a3,3,0,0,1,1.3-1.314L8.741,6.519a5,5,0,0,0-2.163,2.19Zm1.3-1.314a3,3,0,0,1,1.822-.3l.293-1.978a5,5,0,0,0-3.036.508Zm1.822-.3a3,3,0,0,1,1.681.846l1.414-1.414a5,5,0,0,0-2.8-1.41Zm1.681.846a3,3,0,0,1,.846,1.681l1.978-.293a5,5,0,0,0-1.41-2.8ZM16.5,6.5h.01v-2H16.5Z" fill="#09090b"/>
</svg>
