<svg id="iteration-cw" xmlns="http://www.w3.org/2000/svg" width="18" height="22" viewBox="0 0 18 22">
  <path id="Vector" d="M0,9A1,1,0,0,0,2,9Zm1,8-.707-.707a1,1,0,0,0,0,1.414Zm3.293,4.707a1,1,0,0,0,1.414-1.414Zm1.414-8a1,1,0,1,0-1.414-1.414ZM2,9A7.024,7.024,0,0,1,9,2V0A9.024,9.024,0,0,0,0,9ZM9,2a7.024,7.024,0,0,1,7,7h2A9.023,9.023,0,0,0,9,0Zm7,7a7.024,7.024,0,0,1-7,7v2a9.023,9.023,0,0,0,9-9ZM9,16H1v2H9ZM5.707,20.293l-4-4L.293,17.707l4,4Zm-4-2.586,4-4L4.293,12.293l-4,4Z" fill="#09090b"/>
</svg>
