<svg id="joystick" xmlns="http://www.w3.org/2000/svg" width="20" height="20" viewBox="0 0 20 20">
  <path id="Vector" d="M1,15H1Zm0,2H1Zm2-4a1,1,0,0,0,2,0Zm2-2a1,1,0,0,0-2,0Zm4,2a1,1,0,0,0,2,0Zm11,2a3,3,0,0,0-.879-2.121l-1.414,1.414A1,1,0,0,1,18,15Zm-.879-2.121A3,3,0,0,0,17,12v2a1,1,0,0,1,.707.293ZM17,12H3v2H17ZM3,12a3,3,0,0,0-2.121.879l1.414,1.414A1,1,0,0,1,3,14Zm-2.121.879A3,3,0,0,0,0,15H2a1,1,0,0,1,.293-.707ZM0,15v2H2V15Zm0,2a3,3,0,0,0,.879,2.121l1.414-1.414A1,1,0,0,1,2,17Zm.879,2.121A3,3,0,0,0,3,20V18a1,1,0,0,1-.707-.293ZM3,20H17V18H3Zm14,0a3,3,0,0,0,2.121-.879l-1.414-1.414A1,1,0,0,1,17,18Zm2.121-.879A3,3,0,0,0,20,17H18a1,1,0,0,1-.293.707ZM20,17V15H18v2ZM5,13V11H3v2Zm6,0V7H9v6Zm1-9a2,2,0,0,1-2,2V8a4,4,0,0,0,4-4ZM10,6A2,2,0,0,1,8,4H6a4,4,0,0,0,4,4ZM8,4a2,2,0,0,1,2-2V0A4,4,0,0,0,6,4Zm2-2a2,2,0,0,1,2,2h2a4,4,0,0,0-4-4Z" fill="#09090b"/>
</svg>
