<svg xmlns="http://www.w3.org/2000/svg" width="22.042" height="22.042" viewBox="0 0 22.042 22.042">
  <g id="key-round" transform="translate(1 1.004)">
    <g id="Vector" transform="translate(0 0)">
      <path id="Vector_path_1_" data-name="Vector (path 1)" d="M0,16.038v3a.945.945,0,0,0,1,1H5v-3H8v-3h2l1.4-1.4a6.5,6.5,0,1,0-4-4Z" fill="rgba(0,0,0,0)"/>
      <path id="Vector_path_2_" data-name="Vector (path 2)" d="M.5,1A.5.5,0,1,0,0,.5.5.5,0,0,0,.5,1Z" transform="translate(14 5.038)" fill="#09090b"/>
      <g id="Vector_stroke_" data-name="Vector (stroke)">
        <path id="_445CB94B-ED82-4369-B268-73A0878A97B3" data-name="445CB94B-ED82-4369-B268-73A0878A97B3" d="M0,16.038v3a.945.945,0,0,0,1,1H5v-3H8v-3h2l1.4-1.4a6.5,6.5,0,1,0-4-4Z" transform="translate(0 0)" fill="rgba(0,0,0,0)" stroke="#09090b" stroke-linecap="round" stroke-linejoin="round" stroke-miterlimit="10" stroke-width="2"/>
        <path id="A28A74ED-CFFD-48F6-B9D9-4C5D430DE205" d="M.5,1A.5.5,0,1,0,0,.5.5.5,0,0,0,.5,1Z" transform="translate(14 5.038)" fill="rgba(0,0,0,0)" stroke="#09090b" stroke-linecap="round" stroke-linejoin="round" stroke-miterlimit="10" stroke-width="2"/>
      </g>
    </g>
  </g>
</svg>
