<svg id="keyboard-off" xmlns="http://www.w3.org/2000/svg" width="22" height="22" viewBox="0 0 22 22">
  <path id="Vector" d="M19,3V3Zm1,12.41a1,1,0,0,0,2,0ZM6,14a1,1,0,0,0,0,2Zm9,2a1,1,0,0,0,0-2ZM8.69,2a1,1,0,0,0,0,2ZM13,6a1,1,0,0,0,0,2Zm.01,2a1,1,0,0,0,0-2ZM17,6a1,1,0,0,0,0,2Zm.01,2a1,1,0,0,0,0-2ZM1.707.293A1,1,0,0,0,.293,1.707ZM20.293,21.707a1,1,0,0,0,1.414-1.414ZM19,20a1,1,0,0,0,0-2ZM1,17H1ZM3,4A1,1,0,0,0,3,2ZM5,6A1,1,0,0,0,5,8Zm.01,2a1,1,0,0,0,0-2ZM7,10a1,1,0,0,0,0,2Zm.01,2a1,1,0,0,0,0-2ZM19,4a1,1,0,0,1,.707.293l1.414-1.414A3,3,0,0,0,19,2Zm.707.293A1,1,0,0,1,20,5h2a3,3,0,0,0-.879-2.121ZM20,5V15.41h2V5ZM6,16h9V14H6ZM8.69,4H19V2H8.69ZM13,8h.01V6H13Zm4,0h.01V6H17ZM.293,1.707l20,20,1.414-1.414-20-20ZM19,18H3v2H19ZM3,18a1,1,0,0,1-.707-.293L.879,19.121A3,3,0,0,0,3,20Zm-.707-.293A1,1,0,0,1,2,17H0a3,3,0,0,0,.879,2.121ZM2,17V5H0V17ZM2,5a1,1,0,0,1,.293-.707L.879,2.879A3,3,0,0,0,0,5Zm.293-.707A1,1,0,0,1,3,4V2a3,3,0,0,0-2.121.879ZM5,8h.01V6H5Zm2,4h.01V10H7Z" fill="#09090b"/>
</svg>
