<svg id="lamp-ceiling" xmlns="http://www.w3.org/2000/svg" width="22" height="19.995" viewBox="0 0 22 19.995">
  <path id="Vector" d="M12,1a1,1,0,0,0-2,0ZM10,6a1,1,0,0,0,2,0ZM5,6V5a1,1,0,0,0-.914.594ZM17,6l.914-.406A1,1,0,0,0,17,5Zm4,9v1a1,1,0,0,0,.914-1.406ZM1,15l-.914-.406A1,1,0,0,0,1,16Zm8.113.332a1,1,0,0,0-1.887-.664ZM11,19v0Zm3.773-4.327a1,1,0,1,0-1.887.664ZM10,1V6h2V1ZM5,7H17V5H5Zm11.086-.594,4,9,1.828-.812-4-9ZM21,14H1v2H21ZM1.914,15.406l4-9L4.086,5.594l-4,9Zm5.313-.738a4,4,0,0,0-.188,1.882l1.981-.277a2,2,0,0,1,.094-.941ZM7.039,16.55a4,4,0,0,0,.7,1.758l1.632-1.156a2,2,0,0,1-.349-.879Zm.7,1.758a4,4,0,0,0,1.427,1.241l.919-1.777a2,2,0,0,1-.713-.621Zm1.427,1.241A4,4,0,0,0,11,20V18a2,2,0,0,1-.919-.223ZM11,20a4,4,0,0,0,1.837-.447l-.919-1.777A2,2,0,0,1,11,18Zm1.837-.447a4,4,0,0,0,1.427-1.241l-1.632-1.156a2,2,0,0,1-.713.621Zm1.427-1.241a4,4,0,0,0,.7-1.758l-1.981-.277a2,2,0,0,1-.349.879Zm.7-1.758a4,4,0,0,0-.188-1.882l-1.887.664a2,2,0,0,1,.094.941Z" transform="translate(0)" fill="#09090b"/>
</svg>
