<svg id="lamp-wall-down" xmlns="http://www.w3.org/2000/svg" width="18" height="19" viewBox="0 0 18 19">
  <path id="Vector" d="M8,11V10a1,1,0,0,0-.919.606Zm6,0,.919-.394A1,1,0,0,0,14,10Zm3,7v1a1,1,0,0,0,.919-1.394ZM5,18l-.919-.394A1,1,0,0,0,5,19Zm5-7a1,1,0,0,0,2,0ZM9,4V4ZM5,3A1,1,0,0,0,5,5ZM1,7H0A1,1,0,0,0,1,8ZM5,5H5ZM5,3H5ZM3,1V1ZM1,1V0A1,1,0,0,0,0,1ZM8,12h6V10H8Zm5.081-.606,3,7,1.838-.788-3-7ZM17,17H5v2H17ZM5.919,18.394l3-7-1.838-.788-3,7ZM12,11V6H10v5Zm0-5a3,3,0,0,0-.879-2.121L9.707,5.293A1,1,0,0,1,10,6Zm-.879-2.121A3,3,0,0,0,9,3V5a1,1,0,0,1,.707.293ZM9,3H5V5H9ZM1,8H3V6H1ZM3,8a3,3,0,0,0,2.121-.879L3.707,5.707A1,1,0,0,1,3,6Zm2.121-.879A3,3,0,0,0,6,5H4a1,1,0,0,1-.293.707ZM6,5V3H4V5ZM6,3A3,3,0,0,0,5.121.879L3.707,2.293A1,1,0,0,1,4,3ZM5.121.879A3,3,0,0,0,3,0V2a1,1,0,0,1,.707.293ZM3,0H1V2H3ZM0,1V7H2V1Z" fill="#09090b"/>
</svg>
