<svg id="landmark" xmlns="http://www.w3.org/2000/svg" width="20" height="22" viewBox="0 0 20 22">
  <path id="Vector" d="M1,20a1,1,0,0,0,0,2Zm18,2a1,1,0,0,0,0-2ZM3,17a1,1,0,0,0,2,0Zm2-7a1,1,0,0,0-2,0Zm2,7a1,1,0,0,0,2,0Zm2-7a1,1,0,0,0-2,0Zm2,7a1,1,0,0,0,2,0Zm2-7a1,1,0,0,0-2,0Zm2,7a1,1,0,0,0,2,0Zm2-7a1,1,0,0,0-2,0ZM10,1l.53-.848a1,1,0,0,0-1.06,0Zm8,5V7a1,1,0,0,0,.53-1.848ZM2,6l-.53-.848A1,1,0,0,0,2,7ZM1,22H19V20H1Zm4-5V10H3v7Zm4,0V10H7v7Zm4,0V10H11v7Zm4,0V10H15v7ZM9.47,1.848l8,5,1.06-1.7-8-5ZM18,5H2V7H18ZM2.53,6.848l8-5L9.47.152l-8,5Z" transform="translate(0 0)" fill="#09090b"/>
</svg>
