<svg id="languages" xmlns="http://www.w3.org/2000/svg" width="22" height="22" viewBox="0 0 22 22">
  <path id="Vector" d="M4.707,6.293A1,1,0,0,0,3.293,7.707Zm4.586,7.414a1,1,0,1,0,1.414-1.414Zm-7-1.414a1,1,0,0,0,1.414,1.414ZM9,7l.707.707a1,1,0,0,0,.125-.152Zm2.832-2.445a1,1,0,0,0-1.664-1.109ZM1,3A1,1,0,0,0,1,5ZM13,5a1,1,0,0,0,0-2ZM6,0A1,1,0,0,0,6,2ZM7,2A1,1,0,0,0,7,0ZM20.106,21.447a1,1,0,0,0,1.789-.894ZM16,11l.894-.447a1,1,0,0,0-1.789,0Zm-5.894,9.553a1,1,0,0,0,1.789.894ZM13,16a1,1,0,0,0,0,2Zm6,2a1,1,0,0,0,0-2ZM3.293,7.707l6,6,1.414-1.414-6-6Zm.414,6,6-6L8.293,6.293l-6,6ZM9.832,7.555l2-3L10.168,3.445l-2,3ZM1,5H13V3H1ZM6,2H7V0H6ZM21.894,20.553l-5-10-1.789.894,5,10Zm-6.789-10-5,10,1.789.894,5-10ZM13,18h6V16H13Z" fill="#09090b"/>
</svg>
