<svg id="lasso" xmlns="http://www.w3.org/2000/svg" width="22" height="22" viewBox="0 0 22 22">
  <path id="Vector" d="M5.4,21.8a1,1,0,0,0,1.2-1.6ZM1.491,13.588a1,1,0,0,0,1.618-1.176ZM1,9H1Zm10,8V16h-.017ZM6.4,15.083a1,1,0,1,0-.8,1.833ZM6,15H6ZM2,15H2Zm4.6,5.2a4,4,0,0,1-1.178-1.411l-1.789.894A6,6,0,0,0,5.4,21.8ZM5.422,18.789A4,4,0,0,1,5,17H3a6,6,0,0,0,.633,2.683ZM3.109,12.412A5.8,5.8,0,0,1,2,9H0a7.8,7.8,0,0,0,1.491,4.588ZM2,9c0-3.651,3.833-7,9-7V0C5.167,0,0,3.851,0,9Zm9-7c5.167,0,9,3.349,9,7h2c0-5.149-5.167-9-11-9Zm9,7c0,3.651-3.833,7-9,7v2c5.833,0,11-3.851,11-9Zm-9.017,7A11,11,0,0,1,6.4,15.083l-.8,1.833A13,13,0,0,0,11.017,18ZM4,18a3,3,0,0,0,2.121-.879L4.707,15.707A1,1,0,0,1,4,16Zm2.121-.879A3,3,0,0,0,7,15H5a1,1,0,0,1-.293.707ZM7,15a3,3,0,0,0-.879-2.121L4.707,14.293A1,1,0,0,1,5,15Zm-.879-2.121A3,3,0,0,0,4,12v2a1,1,0,0,1,.707.293ZM4,12a3,3,0,0,0-2.121.879l1.414,1.414A1,1,0,0,1,4,14Zm-2.121.879A3,3,0,0,0,1,15H3a1,1,0,0,1,.293-.707ZM1,15a3,3,0,0,0,.879,2.121l1.414-1.414A1,1,0,0,1,3,15Zm.879,2.121A3,3,0,0,0,4,18V16a1,1,0,0,1-.707-.293Z" transform="translate(0)" fill="#09090b"/>
</svg>
