<svg id="lasso-select" xmlns="http://www.w3.org/2000/svg" width="22.007" height="22" viewBox="0 0 22.007 22">
  <path id="Vector" d="M5.4,21.8a1,1,0,0,0,1.2-1.6Zm1.009-6.783a1,1,0,1,0-.818,1.825Zm2.418,2.809a1,1,0,1,0,.326-1.973ZM1.537,13.6A1,1,0,0,0,3.143,12.4ZM1,9H0v.008ZM21,9l1,.022c0-.007,0-.015,0-.022Zm-1.284,1.7a1,1,0,0,0,1.908.6ZM6,15H6ZM2,15H2Zm11.33,6v0Zm-.09,0-.314.949A1,1,0,0,0,13.24,22ZM13,20.68H12c0,.012,0,.024,0,.035Zm0-10h0Zm.33-.34v-1H13.3Zm.21.08-.64.768.007.006Zm7.34,6-.633.774.017.014Zm-.21.59.021-1H20.67Zm-4.49,0v-1a1,1,0,0,0-.832.445Zm-2.57,3.85.8.6.032-.045ZM6.6,20.2a4,4,0,0,1-1.178-1.411l-1.789.894A6,6,0,0,0,5.4,21.8ZM5.422,18.789A4,4,0,0,1,5,17H3a6,6,0,0,0,.633,2.683Zm.169-1.946a13.151,13.151,0,0,0,3.236.984l.326-1.973a11.152,11.152,0,0,1-2.744-.836ZM3.143,12.4A5.8,5.8,0,0,1,2,8.992L0,9.008A7.8,7.8,0,0,0,1.537,13.6ZM2,9c0-3.671,3.812-7,9-7V0C5.148,0,0,3.831,0,9Zm9-7c5.188,0,9,3.329,9,7h2c0-5.169-5.148-9-11-9Zm9,6.978a6.187,6.187,0,0,1-.284,1.722l1.908.6A8.193,8.193,0,0,0,22,9.022ZM4,18a3,3,0,0,0,2.121-.879L4.707,15.707A1,1,0,0,1,4,16Zm2.121-.879A3,3,0,0,0,7,15H5a1,1,0,0,1-.293.707ZM7,15a3,3,0,0,0-.879-2.121L4.707,14.293A1,1,0,0,1,5,15Zm-.879-2.121A3,3,0,0,0,4,12v2a1,1,0,0,1,.707.293ZM4,12a3,3,0,0,0-2.121.879l1.414,1.414A1,1,0,0,1,4,14Zm-2.121.879A3,3,0,0,0,1,15H3a1,1,0,0,1,.293-.707ZM1,15a3,3,0,0,0,.879,2.121l1.414-1.414A1,1,0,0,1,3,15Zm.879,2.121A3,3,0,0,0,4,18V16a1,1,0,0,1-.707-.293ZM13.33,20h-.09v2h.09Zm.224.051a.649.649,0,0,1,.316.227l-1.6,1.2a1.35,1.35,0,0,0,.656.472Zm.316.227a.65.65,0,0,1,.13.367l-2,.07a1.35,1.35,0,0,0,.269.763Zm.13.4v-10H12v10Zm0-10a.66.66,0,0,1-.186.46L12.378,9.747a1.34,1.34,0,0,0-.378.934Zm-.186.46a.66.66,0,0,1-.454.2l-.059-2a1.34,1.34,0,0,0-.922.406Zm-.484.2a.679.679,0,0,1-.43-.152l1.28-1.536a1.322,1.322,0,0,0-.85-.312Zm-.423-.146,7.34,6,1.266-1.549-7.34-6Zm7.357,6.014a.671.671,0,0,1-.231-.341l1.92-.558a1.329,1.329,0,0,0-.458-.677Zm-.231-.341a.67.67,0,0,1,.012-.412l1.884.671a1.33,1.33,0,0,0,.024-.817Zm.012-.412a.669.669,0,0,1,.251-.327l1.136,1.646a1.33,1.33,0,0,0,.5-.649Zm.251-.327a.67.67,0,0,1,.395-.118l-.042,2a1.33,1.33,0,0,0,.783-.235Zm.374-.119H16.18v2h4.49Zm-5.322.445-2.57,3.85,1.663,1.11,2.57-3.85ZM12.81,20.26a.651.651,0,0,1,.229-.191l.894,1.789a1.351,1.351,0,0,0,.476-.4Zm.229-.191A.651.651,0,0,1,13.33,20v2a1.35,1.35,0,0,0,.6-.142Z" fill="#09090b"/>
</svg>
