<svg id="laugh" xmlns="http://www.w3.org/2000/svg" width="22" height="22" viewBox="0 0 22 22">
  <path id="Vector" d="M17,12l.986.167A1,1,0,0,0,17,11Zm-6,5,.014-1h-.028ZM5,12V11a1,1,0,0,0-.986,1.167ZM8,7A1,1,0,0,0,8,9Zm.01,2a1,1,0,0,0,0-2ZM14,7a1,1,0,0,0,0,2Zm.01,2a1,1,0,0,0,0-2ZM20,11a9,9,0,0,1-9,9v2A11,11,0,0,0,22,11Zm-9,9a9,9,0,0,1-9-9H0A11,11,0,0,0,11,22ZM2,11a9,9,0,0,1,9-9V0A11,11,0,0,0,0,11Zm9-9a9,9,0,0,1,9,9h2A11,11,0,0,0,11,0Zm5.014,9.833a5,5,0,0,1-1.729,3.008l1.28,1.536a7,7,0,0,0,2.421-4.212Zm-1.729,3.008A5,5,0,0,1,11.014,16l-.028,2a7,7,0,0,0,4.579-1.622ZM10.986,16a5,5,0,0,1-3.271-1.158l-1.28,1.536A7,7,0,0,0,11.014,18ZM7.715,14.842a5,5,0,0,1-1.729-3.008l-1.972.333a7,7,0,0,0,2.421,4.212ZM5,13H17V11H5ZM8,9h.01V7H8Zm6,0h.01V7H14Z" fill="#09090b"/>
</svg>
