<svg id="layers-2" xmlns="http://www.w3.org/2000/svg" width="22.014" height="22.016" viewBox="0 0 22.014 22.016">
  <path id="Vector" d="M15.523,10.14a1,1,0,1,0-.992,1.737Zm4.984,4-.5.868,0,0Zm.507.87h0Zm-.507.87-.493-.87,0,0Zm-8.5,4.87-.5-.868,0,0Zm-2,0,.5-.866,0,0Zm-8.5-4.87L2,15.01l0,0Zm0-1.74.493.87,0,0Zm5.976-2.262a1,1,0,1,0-.992-1.737Zm4.524.872-.5-.868,0,0Zm-1,.268v0Zm-1-.268.5-.866,0,0Zm-8.5-4.87L2,7.01l0,0ZM1,7.008H1Zm.507-.87L2,7.008l0,0Zm8.5-4.87.5.868,0,0Zm1-.268V1Zm1,.268-.5.866,0,0Zm8.5,4.87-.5.868,0,0Zm0,1.74-.493-.87,0,0Zm-5.976,4,5.48,3.13L21,13.27l-5.48-3.13Zm5.483,3.132h0L21.742,14A2,2,0,0,0,21,13.268Zm0,0h2A2,2,0,0,0,21.742,14Zm0,0h0l1.728,1.007a2,2,0,0,0,.272-1.007Zm0,0h0L21,16.748a2,2,0,0,0,.742-.733Zm0,0-8.5,4.87.994,1.735,8.5-4.87Zm-8.5,4.872a1,1,0,0,1-.5.134v2a3,3,0,0,0,1.5-.4Zm-.5.134a1,1,0,0,1-.5-.134l-1,1.732a3,3,0,0,0,1.5.4Zm-.5-.136L2,15.01,1.01,16.746l8.5,4.87ZM2,15.008H2L.272,16.015a2,2,0,0,0,.742.733Zm0,0H0a2,2,0,0,0,.272,1.007Zm0,0H2L.272,14A2,2,0,0,0,0,15.008Zm0,0H2l-.986-1.74A2,2,0,0,0,.272,14Zm0,0,5.48-3.13L6.491,10.14l-5.48,3.13Zm9.5-3.125a1,1,0,0,1-.5.134v2a3,3,0,0,0,1.5-.4Zm-.5.134a1,1,0,0,1-.5-.134l-1,1.732a3,3,0,0,0,1.5.4Zm-.5-.136L2,7.01,1.01,8.746l8.5,4.87ZM2,7.008H2L.272,8.015a2,2,0,0,0,.742.733Zm0,0H0A2,2,0,0,0,.272,8.015Zm0,0H2L.272,6A2,2,0,0,0,0,7.008Zm0,0H2l-.986-1.74A2,2,0,0,0,.272,6Zm0,0,8.5-4.87L9.51.4,1.01,5.27Zm8.5-4.872a1,1,0,0,1,.5-.134V0a3,3,0,0,0-1.5.4Zm.5-.134a1,1,0,0,1,.5.134l1-1.732a3,3,0,0,0-1.5-.4Zm.5.136,8.5,4.87L21,5.27,12.5.4Zm8.5,4.872h0L21.742,6A2,2,0,0,0,21,5.268Zm0,0h2A2,2,0,0,0,21.742,6Zm0,0h0l1.728,1.007a2,2,0,0,0,.272-1.007Zm0,0h0L21,8.748a2,2,0,0,0,.742-.733Zm0,0-8.5,4.87.994,1.735L21,8.746Z" fill="#09090b"/>
</svg>
