<svg id="layers-3" xmlns="http://www.w3.org/2000/svg" width="22.013" height="21.998" viewBox="0 0 22.013 21.998">
  <path id="Vector" d="M11.826,1.18l-.415.91h0ZM11,1V1Zm-.83.18.414.91h0ZM1.6,5.08,2,6l.011,0Zm0,1.83L2.011,6,2,6Zm8.58,3.91.415-.91h0Zm.83.18v0Zm.83-.18-.414-.91h0Zm8.58-3.9-.4-.915-.01,0Zm0-1.83L20,6l.011,0ZM5.492,9.41a1,1,0,1,0-.832-1.819ZM1.577,10.1l-.416-.91-.01,0Zm-.575.9H1Zm.575.9-.425.905.012.005Zm8.6,3.91-.414.91h0Zm1.65,0,.413.911h0Zm8.58-3.9-.4-.915-.01,0Zm0-1.83L19.993,11l.01,0ZM17.32,7.59a1,1,0,0,0-.827,1.821ZM5.492,14.41a1,1,0,1,0-.832-1.819Zm-3.916.69-.416-.91-.01,0Zm-.575.9H1Zm.575.905-.425.905.012.005Zm8.6,3.91-.414.91h0Zm1.65,0,.413.911h0Zm8.58-3.9-.4-.915-.01,0Zm0-1.83L19.993,16l.01,0Zm-3.086-2.5a1,1,0,0,0-.827,1.821ZM12.241.271A3,3,0,0,0,11,0V2a1,1,0,0,1,.415.09ZM11,0A3,3,0,0,0,9.752.271l.83,1.82A1,1,0,0,1,11,2ZM9.752.27l-8.57,3.9.828,1.82,8.57-3.9Zm-8.559,3.9A2,2,0,0,0,.325,4.9L2,6H2ZM.325,4.9A2,2,0,0,0,0,6H2ZM0,6A2,2,0,0,0,.325,7.088L2,6H0ZM.325,7.088a2,2,0,0,0,.868.738L2,6H2Zm.857.733,8.58,3.91.829-1.82L2.011,6Zm8.58,3.91A3,3,0,0,0,11.007,12V10a1,1,0,0,1-.415-.09ZM11.007,12a3,3,0,0,0,1.245-.271l-.83-1.82a1,1,0,0,1-.415.09Zm1.244-.27,8.58-3.9L20,6.01l-8.58,3.9Zm8.57-3.9a2,2,0,0,0,.868-.738L20.013,6.005h0Zm.868-.738a2,2,0,0,0,.325-1.092h-2Zm.325-1.092a2,2,0,0,0-.325-1.092L20.013,6.005h2Zm-.325-1.092a2,2,0,0,0-.868-.738l-.807,1.83h0Zm-.858-.733L12.241.27l-.828,1.82L20,6ZM4.661,7.591l-3.5,1.6.832,1.819,3.5-1.6ZM1.151,9.2a2,2,0,0,0-.838.738L2,11.005H2Zm-.838.738A2,2,0,0,0,0,11.005H2ZM0,11.005a2,2,0,0,0,.312,1.072L2,11.005H0Zm.312,1.072a2,2,0,0,0,.838.738L2,11.005H2Zm.849.743,8.6,3.91.828-1.821L1.99,11Zm8.6,3.911A3,3,0,0,0,11,17V15a1,1,0,0,1-.412-.089ZM11,17a3,3,0,0,0,1.238-.267l-.825-1.822A1,1,0,0,1,11,15Zm1.239-.268,8.58-3.9-.828-1.821-8.58,3.9Zm8.57-3.9a2,2,0,0,0,.868-.738L20,11.005h0Zm.868-.738A2,2,0,0,0,22,11.005H20ZM22,11.005a2,2,0,0,0-.325-1.092L20,11.005h2Zm-.325-1.092a2,2,0,0,0-.868-.738L20,11.005h0ZM20.82,9.18l-3.5-1.59-.827,1.821,3.5,1.59ZM4.661,12.591l-3.5,1.6.832,1.819,3.5-1.6Zm-3.51,1.6a2,2,0,0,0-.838.738L2,16.005H2Zm-.838.738A2,2,0,0,0,0,16.005H2ZM0,16.005a2,2,0,0,0,.312,1.072L2,16.005H0Zm.312,1.072a2,2,0,0,0,.838.738L2,16.005H2Zm.849.743,8.6,3.91.828-1.821L1.99,16Zm8.6,3.911A3,3,0,0,0,11,22V20a1,1,0,0,1-.412-.089ZM11,22a3,3,0,0,0,1.238-.267l-.825-1.822A1,1,0,0,1,11,20Zm1.239-.268,8.58-3.9-.828-1.821-8.58,3.9Zm8.57-3.9a2,2,0,0,0,.868-.738L20,16.005h0Zm.868-.738A2,2,0,0,0,22,16.005H20ZM22,16.005a2,2,0,0,0-.325-1.092L20,16.005h2Zm-.325-1.092a2,2,0,0,0-.868-.738L20,16.005h0Zm-.858-.733-3.5-1.59-.827,1.821,3.5,1.59Z" fill="#09090b"/>
</svg>
