<svg id="layers" xmlns="http://www.w3.org/2000/svg" width="22.017" height="21.99" viewBox="0 0 22.017 21.99">
  <path id="Vector" d="M11.83,1.18l-.415.91h0ZM11,1V1Zm-.83.18.414.91h0ZM1.6,5.08,2,6l.011,0Zm0,1.83L2.015,6,2,6Zm8.58,3.91.415-.91h0Zm.83.18v0Zm.83-.18-.414-.91h0Zm8.58-3.9-.4-.915-.01,0Zm0-1.83L20.006,6l.011,0Zm.993,12.47a1,1,0,1,0-.826-1.821ZM11.83,20.81l-.413-.911h0Zm-1.66,0,.415-.91h0ZM1.413,15.74a1,1,0,1,0-.826,1.821Zm20-3.179a1,1,0,1,0-.826-1.821ZM11.83,15.81l-.413-.911h0Zm-1.66,0,.415-.91h0ZM1.413,10.739a1,1,0,1,0-.826,1.821ZM12.245.271A3,3,0,0,0,11,0V2a1,1,0,0,1,.415.09ZM11,0A3,3,0,0,0,9.755.271l.83,1.82A1,1,0,0,1,11,2ZM9.756.27l-8.57,3.9.828,1.82,8.57-3.9ZM1.2,4.165A2,2,0,0,0,.328,4.9L2,6H2ZM.328,4.9A2,2,0,0,0,0,6H2ZM0,6A2,2,0,0,0,.328,7.088L2,6H0ZM.328,7.088a2,2,0,0,0,.868.738L2,6H2Zm.857.733,8.58,3.91.829-1.82L2.015,6Zm8.58,3.91A3,3,0,0,0,11.01,12V10a1,1,0,0,1-.415-.09ZM11.01,12a3,3,0,0,0,1.245-.271l-.83-1.82a1,1,0,0,1-.415.09Zm1.244-.27,8.58-3.9L20.006,6.01l-8.58,3.9Zm8.57-3.9a2,2,0,0,0,.868-.738L20.017,6.005h0Zm.868-.738a2,2,0,0,0,.325-1.092h-2Zm.325-1.092a2,2,0,0,0-.325-1.092L20.017,6.005h2Zm-.325-1.092a2,2,0,0,0-.868-.738l-.807,1.83h0Zm-.858-.733L12.244.27l-.828,1.82L20.006,6ZM20.587,15.74l-9.17,4.16.826,1.821,9.17-4.16ZM11.415,19.9a1,1,0,0,1-.415.09v2a3,3,0,0,0,1.245-.271ZM11,19.99a1,1,0,0,1-.415-.09l-.83,1.82A3,3,0,0,0,11,21.99Zm-.417-.091-9.17-4.16L.587,17.561l9.17,4.16Zm10-9.16-9.17,4.16.826,1.821,9.17-4.16ZM11.415,14.9a1,1,0,0,1-.415.09v2a3,3,0,0,0,1.245-.271Zm-.415.09a1,1,0,0,1-.415-.09l-.83,1.82A3,3,0,0,0,11,16.99Zm-.417-.091-9.17-4.16L.587,12.561l9.17,4.16Z" transform="translate(0)" fill="#09090b"/>
</svg>
