<svg id="layout-panel-top" xmlns="http://www.w3.org/2000/svg" width="20" height="20" viewBox="0 0 20 20">
  <path id="Vector" d="M2,2H18V0H2ZM18,2h2a2,2,0,0,0-2-2Zm0,0V7h2V2Zm0,5V9a2,2,0,0,0,2-2Zm0,0H2V9H18ZM2,7H0A2,2,0,0,0,2,9ZM2,7V2H0V7ZM2,2V0A2,2,0,0,0,0,2ZM2,13H7V11H2Zm5,0H9a2,2,0,0,0-2-2Zm0,0v5H9V13Zm0,5v2a2,2,0,0,0,2-2Zm0,0H2v2H7ZM2,18H0a2,2,0,0,0,2,2Zm0,0V13H0v5Zm0-5V11a2,2,0,0,0-2,2Zm11,0h5V11H13Zm5,0h2a2,2,0,0,0-2-2Zm0,0v5h2V13Zm0,5v2a2,2,0,0,0,2-2Zm0,0H13v2h5Zm-5,0H11a2,2,0,0,0,2,2Zm0,0V13H11v5Zm0-5V11a2,2,0,0,0-2,2Z" fill="#09090b"/>
</svg>
