<svg id="library-big" xmlns="http://www.w3.org/2000/svg" width="19.465" height="20" viewBox="0 0 19.465 20">
  <path id="Vector" d="M6,1A1,1,0,0,0,4,1ZM4,19a1,1,0,0,0,2,0Zm14.4-2.1-.94.34.012.031Zm-.6,1.3.346.938.026-.01Zm-1.9.7-.346-.938-.026.01Zm-1.3-.6-.94.34.012.031ZM9.1,3.1l.94-.34-.012-.031Zm.6-1.3L9.355.862l-.026.01Zm1.9-.7.346.938.026-.01Zm1.3.6.94-.34-.012-.031ZM2,2H8V0H2ZM8,2h2A2,2,0,0,0,8,0ZM8,2V18h2V2ZM8,18v2a2,2,0,0,0,2-2Zm0,0H2v2H8ZM2,18H0a2,2,0,0,0,2,2Zm0,0V2H0V18ZM2,2V0A2,2,0,0,0,0,2ZM4,1V19H6V1ZM17.472,17.271a.11.11,0,0,1-.009-.046c0-.006,0,0,0,.009a.105.105,0,0,1-.021.03c-.008.008-.012.009-.009.007l.743,1.857a2.039,2.039,0,0,0,1.157-2.6Zm-.017-.01-1.9.7.691,1.877,1.9-.7Zm-1.926.71a.113.113,0,0,1,.045-.009c.006,0,0,0-.009,0a.109.109,0,0,1-.03-.021c-.008-.008-.009-.012-.007-.009l-1.857.743a2.039,2.039,0,0,0,2.6,1.157Zm.012-.012-5.5-15.2L8.16,3.44l5.5,15.2ZM10.029,2.729a.112.112,0,0,1,.009.046c0,.006,0,0,0-.009a.106.106,0,0,1,.021-.03c.008-.008.012-.009.009-.007L9.329.872a2.039,2.039,0,0,0-1.157,2.6Zm.017.01,1.9-.7L11.255.162l-1.9.7Zm1.926-.71a.111.111,0,0,1-.045.009c-.006,0,0,0,.009,0a.107.107,0,0,1,.03.021c.008.008.009.012.007.009l1.857-.743a2.039,2.039,0,0,0-2.6-1.157Zm-.012.012,5.5,15.2,1.881-.681-5.5-15.2Z" fill="#09090b"/>
</svg>
