<svg id="ligature" xmlns="http://www.w3.org/2000/svg" width="14" height="18" viewBox="0 0 14 18">
  <path id="Vector" d="M2,17a1,1,0,0,0,2,0ZM9.636,3.5A1,1,0,1,0,11.364,2.5ZM1,8a1,1,0,0,0,0,2Zm4,2A1,1,0,0,0,5,8ZM9,8a1,1,0,0,0,0,2Zm2,1h1a1,1,0,0,0-1-1Zm-1,8a1,1,0,0,0,2,0ZM1,16a1,1,0,0,0,0,2Zm4,2a1,1,0,0,0,0-2Zm4-2a1,1,0,0,0,0,2Zm4,2a1,1,0,0,0,0-2ZM4,17V5H2V17ZM4,5A3.012,3.012,0,0,1,7,2V0A5.012,5.012,0,0,0,2,5ZM7,2A3.033,3.033,0,0,1,9.636,3.5L11.364,2.5A5.033,5.033,0,0,0,7,0ZM1,10H5V8H1Zm8,0h2V8H9Zm1-1v8h2V9ZM1,18H5V16H1Zm8,0h4V16H9Z" fill="#09090b"/>
</svg>
