<svg id="lightbulb-off" xmlns="http://www.w3.org/2000/svg" width="22" height="22" viewBox="0 0 22 22">
  <path id="Vector" d="M15.053,9.536a1,1,0,1,0,1.495,1.329ZM17,7h1V7ZM7.15,1.165a1,1,0,1,0,1.1,1.67ZM1.707.293A1,1,0,0,0,.293,1.707ZM20.293,21.707a1,1,0,0,0,1.414-1.414ZM6.228,5.672a1,1,0,0,0-1.856-.744ZM6.5,10.5l.707-.707-.036-.034Zm.519,2.7A1,1,0,0,0,8.98,12.8ZM8,16a1,1,0,0,0,0,2Zm6,2a1,1,0,0,0,0-2ZM9,20a1,1,0,0,0,0,2Zm4,2a1,1,0,0,0,0-2Zm3.548-11.136A5.716,5.716,0,0,0,18,7H16a3.718,3.718,0,0,1-.947,2.536ZM18,7a7,7,0,0,0-.995-3.584L15.29,4.442A5,5,0,0,1,16,7Zm-.995-3.584A7,7,0,0,0,14.315.846l-.947,1.762A5,5,0,0,1,15.29,4.442ZM14.315.846A7,7,0,0,0,10.689.018l.089,2a5,5,0,0,1,2.59.591ZM10.689.018A7,7,0,0,0,7.15,1.165l1.1,1.67a5,5,0,0,1,2.527-.819ZM.293,1.707l20,20,1.414-1.414-20-20ZM4.372,4.928A5.67,5.67,0,0,0,4.11,8.313l1.949-.45a3.67,3.67,0,0,1,.17-2.191ZM4.11,8.313a5.67,5.67,0,0,0,1.719,2.928L7.171,9.759a3.67,3.67,0,0,1-1.113-1.9Zm1.683,2.894A3.993,3.993,0,0,1,7.019,13.2L8.98,12.8A5.952,5.952,0,0,0,7.207,9.793ZM8,18h6V16H8Zm1,4h4V20H9Z" transform="translate(0)" fill="#09090b"/>
</svg>
