<svg id="lightbulb" xmlns="http://www.w3.org/2000/svg" width="14" height="22" viewBox="0 0 14 22">
  <path id="Vector" d="M9.019,12.8a1,1,0,1,0,1.961.392ZM11.5,10.5l-.669-.743-.038.036ZM7,1V1ZM1,7H1Zm2.019,6.2A1,1,0,1,0,4.981,12.8ZM4,16a1,1,0,0,0,0,2Zm6,2a1,1,0,0,0,0-2ZM5,20a1,1,0,0,0,0,2Zm4,2a1,1,0,0,0,0-2Zm1.981-8.8a3.723,3.723,0,0,1,1.227-1.989L10.793,9.793A5.682,5.682,0,0,0,9.019,12.8Zm1.188-1.953A5.69,5.69,0,0,0,14,7H12a3.692,3.692,0,0,1-1.169,2.757ZM14,7a7,7,0,0,0-2.05-4.95L10.536,3.464A5,5,0,0,1,12,7ZM11.95,2.05A7,7,0,0,0,7,0V2a5,5,0,0,1,3.536,1.464ZM7,0A7,7,0,0,0,2.05,2.05L3.464,3.464A5,5,0,0,1,7,2ZM2.05,2.05A7,7,0,0,0,0,7H2A5,5,0,0,1,3.464,3.464ZM0,7a5.587,5.587,0,0,0,1.793,4.207L3.207,9.793A3.6,3.6,0,0,1,2,7Zm1.793,4.207A3.993,3.993,0,0,1,3.019,13.2L4.981,12.8A5.952,5.952,0,0,0,3.207,9.793ZM4,18h6V16H4Zm1,4H9V20H5Z" fill="#09090b"/>
</svg>
