<svg id="linkedin" xmlns="http://www.w3.org/2000/svg" width="22" height="21" viewBox="0 0 22 21">
  <path id="Vector" d="M21,20v1a1,1,0,0,0,1-1Zm-4,0H16a1,1,0,0,0,1,1Zm-4,0v1a1,1,0,0,0,1-1ZM9,20H8a1,1,0,0,0,1,1ZM1,8V7A1,1,0,0,0,0,8ZM5,8H6A1,1,0,0,0,5,7ZM5,20v1a1,1,0,0,0,1-1ZM1,20H0a1,1,0,0,0,1,1ZM15,8a5,5,0,0,1,3.535,1.464L19.95,8.05A7,7,0,0,0,15,6Zm3.535,1.464A5,5,0,0,1,20,13h2a7,7,0,0,0-2.05-4.95ZM20,13v7h2V13Zm1,6H17v2h4Zm-3,1V13H16v7Zm0-7a3,3,0,0,0-.879-2.121l-1.414,1.414A1,1,0,0,1,16,13Zm-.879-2.121A3,3,0,0,0,15,10v2a1,1,0,0,1,.707.293ZM15,10a3,3,0,0,0-2.121.879l1.414,1.414A1,1,0,0,1,15,12Zm-2.121.879A3,3,0,0,0,12,13h2a1,1,0,0,1,.293-.707ZM12,13v7h2V13Zm1,6H9v2h4Zm-3,1V13H8v7Zm0-7a5,5,0,0,1,1.465-3.536L10.05,8.05A7,7,0,0,0,8,13Zm1.465-3.536A5,5,0,0,1,15,8V6a7,7,0,0,0-4.95,2.05ZM1,9H5V7H1ZM4,8V20H6V8ZM5,19H1v2H5ZM2,20V8H0V20ZM4,3A1,1,0,0,1,3,4V6A3,3,0,0,0,6,3ZM3,4A1,1,0,0,1,2,3H0A3,3,0,0,0,3,6ZM2,3A1,1,0,0,1,3,2V0A3,3,0,0,0,0,3ZM3,2A1,1,0,0,1,4,3H6A3,3,0,0,0,3,0Z" fill="#09090b"/>
</svg>
