<svg id="link-2-off" xmlns="http://www.w3.org/2000/svg" width="22" height="22" viewBox="0 0 22 22">
  <path id="Vector" d="M8,17a1,1,0,0,0,0-2ZM6,16v0ZM6,7A1,1,0,0,0,6,5Zm8-2a1,1,0,0,0,0,2Zm2,1V6Zm3.2,7.4a1,1,0,0,0,1.6,1.2ZM7,10a1,1,0,0,0,0,2Zm4,2a1,1,0,0,0,0-2ZM1.707.293A1,1,0,0,0,.293,1.707ZM20.293,21.707a1,1,0,0,0,1.414-1.414ZM8,15H6v2H8ZM6,15a4,4,0,0,1-2.828-1.172L1.757,15.243A6,6,0,0,0,6,17ZM3.172,13.828A4,4,0,0,1,2,11H0a6,6,0,0,0,1.757,4.243ZM2,11A4,4,0,0,1,3.172,8.172L1.757,6.757A6,6,0,0,0,0,11ZM3.172,8.172A4,4,0,0,1,6,7V5A6,6,0,0,0,1.757,6.757ZM14,7h2V5H14Zm2,0a4,4,0,0,1,2.1.6l1.052-1.7A6,6,0,0,0,16,5Zm2.1.6a4,4,0,0,1,1.475,1.614l1.789-.894A6,6,0,0,0,19.154,5.9Zm1.475,1.614a4,4,0,0,1,.406,2.148l1.992.18a6,6,0,0,0-.609-3.222Zm.406,2.148A4,4,0,0,1,19.2,13.4l1.6,1.2a6,6,0,0,0,1.176-3.061ZM7,12h4V10H7ZM.293,1.707l20,20,1.414-1.414-20-20Z" transform="translate(0)" fill="#09090b"/>
</svg>
