<svg id="list-tree" xmlns="http://www.w3.org/2000/svg" width="20" height="14" viewBox="0 0 20 14">
  <path id="Vector" d="M19,8a1,1,0,0,0,0-2ZM11,6a1,1,0,0,0,0,2Zm8-4a1,1,0,0,0,0-2ZM6,0A1,1,0,0,0,6,2ZM19,14a1,1,0,0,0,0-2Zm-8-2a1,1,0,0,0,0,2ZM2,1A1,1,0,0,0,0,1ZM6,8A1,1,0,0,0,6,6Zm0,6a1,1,0,0,0,0-2ZM19,6H11V8h8Zm0-6H6V2H19Zm0,12H11v2h8ZM0,1V5H2V1ZM0,5A3.006,3.006,0,0,0,3,8V6A1.006,1.006,0,0,1,2,5ZM3,8H6V6H3ZM0,5v6H2V5Zm0,6a3.006,3.006,0,0,0,3,3V12a1.006,1.006,0,0,1-1-1Zm3,3H6V12H3Z" fill="#09090b"/>
</svg>
