<svg id="list-checks" xmlns="http://www.w3.org/2000/svg" width="20" height="16" viewBox="0 0 20 16">
  <path id="Vector" d="M1.707,12.293A1,1,0,0,0,.293,13.707ZM3,15l-.707.707a1,1,0,0,0,1.414,0Zm4.707-3.293a1,1,0,0,0-1.414-1.414Zm-6-9.414A1,1,0,0,0,.293,3.707ZM3,5l-.707.707a1,1,0,0,0,1.414,0ZM7.707,1.707A1,1,0,0,0,6.293.293ZM11,1a1,1,0,0,0,0,2Zm8,2a1,1,0,0,0,0-2ZM11,7a1,1,0,0,0,0,2Zm8,2a1,1,0,0,0,0-2Zm-8,4a1,1,0,0,0,0,2Zm8,2a1,1,0,0,0,0-2ZM.293,13.707l2,2,1.414-1.414-2-2Zm3.414,2,4-4L6.293,10.293l-4,4Zm-3.414-12,2,2L3.707,4.293l-2-2Zm3.414,2,4-4L6.293.293l-4,4ZM11,3h8V1H11Zm0,6h8V7H11Zm0,6h8V13H11Z" transform="translate(0 0)" fill="#09090b"/>
</svg>
