<svg id="list-collapse" xmlns="http://www.w3.org/2000/svg" width="20" height="16" viewBox="0 0 20 16">
  <path id="Vector" d="M.293,5.293A1,1,0,0,0,1.707,6.707ZM3.5,3.5l.707.707a1,1,0,0,0,0-1.414ZM1.707.293A1,1,0,0,0,.293,1.707Zm-1.414,14a1,1,0,0,0,1.414,1.414ZM3.5,12.5l.707.707a1,1,0,0,0,0-1.414ZM1.707,9.293A1,1,0,0,0,.293,10.707ZM8,1A1,1,0,0,0,8,3ZM19,3a1,1,0,0,0,0-2ZM8,7A1,1,0,0,0,8,9ZM19,9a1,1,0,0,0,0-2ZM8,13a1,1,0,0,0,0,2Zm11,2a1,1,0,0,0,0-2ZM1.707,6.707l2.5-2.5L2.793,2.793l-2.5,2.5Zm2.5-3.914-2.5-2.5L.293,1.707l2.5,2.5Zm-2.5,12.914,2.5-2.5L2.793,11.793l-2.5,2.5Zm2.5-3.914-2.5-2.5L.293,10.707l2.5,2.5ZM8,3H19V1H8ZM8,9H19V7H8Zm0,6H19V13H8Z" fill="#09090b"/>
</svg>
