<svg id="list-ordered" xmlns="http://www.w3.org/2000/svg" width="19" height="14" viewBox="0 0 19 14">
  <path id="Vector" d="M7,0A1,1,0,0,0,7,2ZM18,2a1,1,0,0,0,0-2ZM7,6A1,1,0,0,0,7,8ZM18,8a1,1,0,0,0,0-2ZM7,12a1,1,0,0,0,0,2Zm11,2a1,1,0,0,0,0-2ZM1,0A1,1,0,0,0,1,2ZM2,1H3A1,1,0,0,0,2,0ZM1,5A1,1,0,1,0,3,5ZM1,4A1,1,0,0,0,1,6ZM3,6A1,1,0,1,0,3,4Zm0,8a1,1,0,1,0,0-2ZM1,13H0a1,1,0,0,0,1,1ZM.553,8.106a1,1,0,0,0,.894,1.789ZM7,2H18V0H7ZM7,8H18V6H7Zm0,6H18V12H7ZM1,2H2V0H1ZM1,1V5H3V1ZM1,6H3V4H1Zm2,6H1v2H3ZM2,13c0,.076-.032.043.112-.15a6.659,6.659,0,0,1,.595-.643,8.375,8.375,0,0,0,.78-.857A2.277,2.277,0,0,0,4,10H2c0-.076.032-.043-.112.15a6.652,6.652,0,0,1-.595.643,8.375,8.375,0,0,0-.78.857A2.277,2.277,0,0,0,0,13Zm2-3A2.139,2.139,0,0,0,2.822,8.043a2.532,2.532,0,0,0-2.269.063l.894,1.789a.561.561,0,0,1,.481-.062.1.1,0,0,1,.046.04A.244.244,0,0,1,2,10Z" transform="translate(0)" fill="#09090b"/>
</svg>
