<svg id="list-music" xmlns="http://www.w3.org/2000/svg" width="20" height="14" viewBox="0 0 20 14">
  <path id="Vector" d="M18,10a1,1,0,0,0,2,0Zm2-9a1,1,0,0,0-2,0ZM16.5,13v0ZM14,10.5h0ZM10,8a1,1,0,0,0,0-2ZM1,6A1,1,0,0,0,1,8ZM14,2a1,1,0,0,0,0-2ZM1,0A1,1,0,0,0,1,2Zm9,14a1,1,0,0,0,0-2ZM1,12a1,1,0,0,0,0,2Zm19-2V1H18v9Zm-3.5,4a3.5,3.5,0,0,0,2.475-1.025l-1.414-1.414A1.5,1.5,0,0,1,16.5,12Zm2.475-1.025A3.5,3.5,0,0,0,20,10.5H18a1.5,1.5,0,0,1-.439,1.061ZM20,10.5a3.5,3.5,0,0,0-1.025-2.475L17.561,9.439A1.5,1.5,0,0,1,18,10.5ZM18.975,8.025A3.5,3.5,0,0,0,16.5,7V9a1.5,1.5,0,0,1,1.061.439ZM16.5,7a3.5,3.5,0,0,0-2.475,1.025l1.414,1.414A1.5,1.5,0,0,1,16.5,9ZM14.025,8.025A3.5,3.5,0,0,0,13,10.5h2a1.5,1.5,0,0,1,.439-1.061ZM13,10.5a3.5,3.5,0,0,0,1.025,2.475l1.414-1.414A1.5,1.5,0,0,1,15,10.5Zm1.025,2.475A3.5,3.5,0,0,0,16.5,14V12a1.5,1.5,0,0,1-1.061-.439ZM10,6H1V8h9Zm4-6H1V2H14ZM10,12H1v2h9Z" fill="#09090b"/>
</svg>
