<svg id="loader" xmlns="http://www.w3.org/2000/svg" width="22" height="22" viewBox="0 0 22 22">
  <path id="Vector" d="M12,1a1,1,0,0,0-2,0ZM10,5a1,1,0,0,0,2,0Zm4.493,1.093a1,1,0,0,0,1.414,1.414Zm4.314-1.486a1,1,0,0,0-1.414-1.414ZM17,10a1,1,0,0,0,0,2Zm4,2a1,1,0,0,0,0-2Zm-5.093,2.493a1,1,0,0,0-1.414,1.414Zm1.486,4.314a1,1,0,0,0,1.414-1.414ZM12,17a1,1,0,0,0-2,0Zm-2,4a1,1,0,0,0,2,0ZM3.193,17.393a1,1,0,0,0,1.414,1.414Zm4.314-1.486a1,1,0,0,0-1.414-1.414ZM1,10a1,1,0,0,0,0,2Zm4,2a1,1,0,0,0,0-2ZM4.607,3.193A1,1,0,0,0,3.193,4.607ZM6.093,7.507A1,1,0,0,0,7.507,6.093ZM10,1V5h2V1Zm5.907,6.507,2.9-2.9L17.393,3.193l-2.9,2.9ZM17,12h4V10H17Zm-2.507,3.907,2.9,2.9,1.414-1.414-2.9-2.9ZM10,17v4h2V17ZM4.607,18.807l2.9-2.9L6.093,14.493l-2.9,2.9ZM1,12H5V10H1ZM3.193,4.607l2.9,2.9L7.507,6.093l-2.9-2.9Z" fill="#09090b"/>
</svg>
