<svg id="loader-circle" xmlns="http://www.w3.org/2000/svg" width="20" height="20" viewBox="0 0 20 20">
  <path id="Vector" d="M20,10a1,1,0,0,0-2,0ZM12.472,2.391a1,1,0,1,0,.618-1.9ZM18,10a8,8,0,0,1-1.528,4.7l1.618,1.176A10,10,0,0,0,20,10Zm-1.528,4.7a8,8,0,0,1-4,2.906l.618,1.9a10,10,0,0,0,5-3.632Zm-4,2.906a8,8,0,0,1-4.944,0l-.618,1.9a10,10,0,0,0,6.18,0Zm-4.944,0a8,8,0,0,1-4-2.906L1.91,15.878a10,10,0,0,0,5,3.633Zm-4-2.906A8,8,0,0,1,2,10H0a10,10,0,0,0,1.91,5.878ZM2,10A8,8,0,0,1,3.528,5.3L1.91,4.122A10,10,0,0,0,0,10ZM3.528,5.3a8,8,0,0,1,4-2.906L6.91.489a10,10,0,0,0-5,3.633Zm4-2.906a8,8,0,0,1,4.944,0l.618-1.9a10,10,0,0,0-6.18,0Z" transform="translate(0 0)" fill="#09090b"/>
</svg>
