<svg id="locate-off" xmlns="http://www.w3.org/2000/svg" width="22" height="22" viewBox="0 0 22 22">
  <path id="Vector" d="M1,10a1,1,0,0,0,0,2Zm20,2a1,1,0,0,0,0-2ZM12,1a1,1,0,0,0-2,0ZM10,21a1,1,0,0,0,2,0ZM6.817,6.817A1,1,0,0,0,5.4,5.4ZM16.6,16.6a1,1,0,1,0-1.414-1.414Zm.156-3.926a1,1,0,1,0,1.915.577Zm-8-9.339a1,1,0,0,0,.577,1.915ZM1.707.293A1,1,0,0,0,.293,1.707ZM20.293,21.707a1,1,0,0,0,1.414-1.414ZM1,12H4V10H1Zm17,0h3V10H18ZM10,1V4h2V1Zm0,17v3h2V18ZM5.4,5.4A7.919,7.919,0,0,0,3,11H5A5.921,5.921,0,0,1,6.817,6.817ZM3,11a8,8,0,0,0,8,8V17a6,6,0,0,1-6-6Zm8,8a7.919,7.919,0,0,0,5.6-2.4l-1.414-1.414A5.921,5.921,0,0,1,11,17Zm7.667-5.751A7.786,7.786,0,0,0,19,11H17a5.787,5.787,0,0,1-.247,1.671ZM19,11a8,8,0,0,0-8-8V5a6,6,0,0,1,6,6ZM11,3a7.788,7.788,0,0,0-2.249.333l.577,1.915A5.788,5.788,0,0,1,11,5ZM.293,1.707l20,20,1.414-1.414-20-20Z" fill="#09090b"/>
</svg>
