<svg id="locate-fixed" xmlns="http://www.w3.org/2000/svg" width="22" height="22" viewBox="0 0 22 22">
  <path id="Vector" d="M1,10a1,1,0,0,0,0,2Zm20,2a1,1,0,0,0,0-2ZM12,1a1,1,0,0,0-2,0ZM10,21a1,1,0,0,0,2,0ZM1,12H4V10H1Zm17,0h3V10H18ZM10,1V4h2V1Zm0,17v3h2V18Zm7-7a6,6,0,0,1-6,6v2a8,8,0,0,0,8-8Zm-6,6a6,6,0,0,1-6-6H3a8,8,0,0,0,8,8ZM5,11a6,6,0,0,1,6-6V3a8,8,0,0,0-8,8Zm6-6a6,6,0,0,1,6,6h2a8,8,0,0,0-8-8Zm2,6a2,2,0,0,1-2,2v2a4,4,0,0,0,4-4Zm-2,2a2,2,0,0,1-2-2H7a4,4,0,0,0,4,4ZM9,11a2,2,0,0,1,2-2V7a4,4,0,0,0-4,4Zm2-2a2,2,0,0,1,2,2h2a4,4,0,0,0-4-4Z" fill="#09090b"/>
</svg>
