<svg id="lock-keyhole" xmlns="http://www.w3.org/2000/svg" width="20" height="22" viewBox="0 0 20 22">
  <path id="Vector" d="M4,9A1,1,0,0,0,6,9ZM5,6H5Zm5-5V1Zm4,8a1,1,0,0,0,2,0Zm-4,6v2a2,2,0,0,0,2-2Zm0,0H8a2,2,0,0,0,2,2Zm0,0V13a2,2,0,0,0-2,2Zm0,0h2a2,2,0,0,0-2-2ZM3,10H17V8H3Zm14,0a1,1,0,0,1,1,1h2a3,3,0,0,0-3-3Zm1,1v8h2V11Zm0,8a1,1,0,0,1-1,1v2a3,3,0,0,0,3-3Zm-1,1H3v2H17ZM3,20a1,1,0,0,1-1-1H0a3,3,0,0,0,3,3ZM2,19V11H0v8Zm0-8a1,1,0,0,1,1-1V8a3,3,0,0,0-3,3ZM6,9V6H4V9ZM6,6A4,4,0,0,1,7.172,3.172L5.757,1.757A6,6,0,0,0,4,6ZM7.172,3.172A4,4,0,0,1,10,2V0A6,6,0,0,0,5.757,1.757ZM10,2a4,4,0,0,1,2.828,1.172l1.414-1.414A6,6,0,0,0,10,0Zm2.828,1.172A4,4,0,0,1,14,6h2a6,6,0,0,0-1.757-4.243ZM14,6V9h2V6Z" transform="translate(0 0)" fill="#09090b"/>
</svg>
