<svg id="log-in" xmlns="http://www.w3.org/2000/svg" width="20" height="20" viewBox="0 0 20 20">
  <path id="Vector" d="M13,0a1,1,0,0,0,0,2Zm4,1V1ZM13,18a1,1,0,0,0,0,2ZM7.293,14.293a1,1,0,0,0,1.414,1.414ZM13,10l.707.707a1,1,0,0,0,0-1.414ZM8.707,4.293A1,1,0,0,0,7.293,5.707ZM1,9a1,1,0,0,0,0,2ZM13,2h4V0H13Zm4,0a1,1,0,0,1,.707.293L19.121.879A3,3,0,0,0,17,0Zm.707.293A1,1,0,0,1,18,3h2A3,3,0,0,0,19.121.879ZM18,3V17h2V3Zm0,14a1,1,0,0,1-.293.707l1.414,1.414A3,3,0,0,0,20,17Zm-.293.707A1,1,0,0,1,17,18v2a3,3,0,0,0,2.121-.879ZM17,18H13v2h4ZM8.707,15.707l5-5L12.293,9.293l-5,5Zm5-6.414-5-5L7.293,5.707l5,5ZM13,9H1v2H13Z" fill="#09090b"/>
</svg>
