<svg id="lollipop" xmlns="http://www.w3.org/2000/svg" width="20" height="20" viewBox="0 0 20 20">
  <path id="Vector" d="M18.293,19.707a1,1,0,1,0,1.414-1.414Zm-2.886-5.714a1,1,0,0,0-1.414,1.414ZM10,9A1,1,0,0,0,8,9Zm3,0h0ZM9,5V5ZM5,9H5ZM16,9a7,7,0,0,1-7,7v2a9,9,0,0,0,9-9ZM9,16A7,7,0,0,1,2,9H0a9,9,0,0,0,9,9ZM2,9A7,7,0,0,1,9,2V0A9,9,0,0,0,0,9ZM9,2a7,7,0,0,1,7,7h2A9,9,0,0,0,9,0ZM19.707,18.293l-4.3-4.3-1.414,1.414,4.3,4.3ZM8,9a3,3,0,0,0,.879,2.121l1.414-1.414A1,1,0,0,1,10,9Zm.879,2.121A3,3,0,0,0,11,12V10a1,1,0,0,1-.707-.293ZM11,12a3,3,0,0,0,2.121-.879L11.707,9.707A1,1,0,0,1,11,10Zm2.121-.879A3,3,0,0,0,14,9H12a1,1,0,0,1-.293.707ZM14,9a5,5,0,0,0-1.465-3.536L11.121,6.879A3,3,0,0,1,12,9ZM12.535,5.464A5,5,0,0,0,9,4V6a3,3,0,0,1,2.121.879ZM9,4A5,5,0,0,0,5.464,5.464L6.879,6.879A3,3,0,0,1,9,6ZM5.464,5.464A5,5,0,0,0,4,9H6a3,3,0,0,1,.879-2.121ZM4,9a7,7,0,0,0,2.05,4.95l1.414-1.414A5,5,0,0,1,6,9Zm2.05,4.95A7,7,0,0,0,11,16V14a5,5,0,0,1-3.536-1.465ZM11,16a7,7,0,0,0,4.95-2.05l-1.414-1.414A5,5,0,0,1,11,14Zm4.95-2.05A7,7,0,0,0,18,9H16a5,5,0,0,1-1.465,3.535Z" fill="#09090b"/>
</svg>
