<svg id="luggage" xmlns="http://www.w3.org/2000/svg" width="18" height="22" viewBox="0 0 18 22">
  <path id="Vector" d="M1,17H1ZM3,5V5ZM15,5V5ZM7,1V1Zm4,0V1ZM3,18a1,1,0,0,1-.707-.293L.879,19.121A3,3,0,0,0,3,20Zm-.707-.293A1,1,0,0,1,2,17H0a3,3,0,0,0,.879,2.121ZM2,17V7H0V17ZM2,7a1,1,0,0,1,.293-.707L.879,4.879A3,3,0,0,0,0,7Zm.293-.707A1,1,0,0,1,3,6V4a3,3,0,0,0-2.121.879ZM3,6H15V4H3ZM15,6a1,1,0,0,1,.707.293l1.414-1.414A3,3,0,0,0,15,4Zm.707.293A1,1,0,0,1,16,7h2a3,3,0,0,0-.879-2.121ZM16,7V17h2V7Zm0,10a1,1,0,0,1-.293.707l1.414,1.414A3,3,0,0,0,18,17Zm-.293.707A1,1,0,0,1,15,18v2a3,3,0,0,0,2.121-.879ZM6,17V3H4V17ZM6,3a1,1,0,0,1,.293-.707L4.879.879A3,3,0,0,0,4,3Zm.293-.707A1,1,0,0,1,7,2V0A3,3,0,0,0,4.879.879ZM7,2h4V0H7Zm4,0a1,1,0,0,1,.707.293L13.121.879A3,3,0,0,0,11,0Zm.707.293A1,1,0,0,1,12,3h2A3,3,0,0,0,13.121.879ZM12,3V17h2V3ZM7,20h4V18H7Zm7-1a1,1,0,0,1-1,1v2a3,3,0,0,0,3-3Zm-1,1a1,1,0,0,1-1-1H10a3,3,0,0,0,3,3Zm-1-1a1,1,0,0,1,1-1V16a3,3,0,0,0-3,3Zm1-1a1,1,0,0,1,1,1h2a3,3,0,0,0-3-3ZM6,19a1,1,0,0,1-1,1v2a3,3,0,0,0,3-3ZM5,20a1,1,0,0,1-1-1H2a3,3,0,0,0,3,3ZM4,19a1,1,0,0,1,1-1V16a3,3,0,0,0-3,3Zm1-1a1,1,0,0,1,1,1H8a3,3,0,0,0-3-3Z" fill="#09090b"/>
</svg>
