<svg id="magnet" xmlns="http://www.w3.org/2000/svg" width="21.737" height="21.757" viewBox="0 0 21.737 21.757">
  <path id="Vector" d="M5,13.757l-.707.707a1,1,0,0,0,1.413,0Zm-4-4L.292,9.051a1,1,0,0,0,0,1.413Zm6.75-6.77-.667-.745-.041.039Zm11,11,.708.706.037-.039ZM12,20.757l-.707.707a1,1,0,0,0,1.415,0Zm-4-4-.705-.709a1,1,0,0,0,0,1.416Zm6.39-6.36.705.709a1,1,0,0,0,.089-.1Zm-3-3L10.782,6.6a1,1,0,0,0-.1.085ZM4.707,6.049A1,1,0,0,0,3.293,7.464Zm2.586,5.414a1,1,0,1,0,1.414-1.414Zm4.414,1.586a1,1,0,0,0-1.414,1.414Zm2.586,5.414a1,1,0,1,0,1.414-1.414ZM5.707,13.05l-4-4L.293,10.464l4,4Zm-4-2.587,6.75-6.77L7.042,2.281.292,9.051ZM8.417,3.732A6.79,6.79,0,0,1,13.134,2l.055-2A8.79,8.79,0,0,0,7.083,2.242ZM13.134,2a6.79,6.79,0,0,1,4.614,1.986l1.414-1.414A8.79,8.79,0,0,0,13.189,0Zm4.614,1.986A6.79,6.79,0,0,1,19.734,8.6l2-.055a8.791,8.791,0,0,0-2.571-5.973ZM19.734,8.6A6.79,6.79,0,0,1,18,13.319l1.49,1.334a8.79,8.79,0,0,0,2.238-6.106Zm-1.692,4.678-6.75,6.77,1.416,1.412,6.75-6.77Zm-5.335,6.769-4-4L7.293,17.464l4,4Zm-4-2.584,6.39-6.36L13.685,9.688l-6.39,6.36ZM15.184,11a3.14,3.14,0,0,0,.639-2.116l-2,.132a1.139,1.139,0,0,1-.232.768Zm.639-2.116a3.139,3.139,0,0,0-.913-2.013L13.5,8.29a1.14,1.14,0,0,1,.331.731Zm-.913-2.013A3.14,3.14,0,0,0,12.9,5.963l-.132,2a1.14,1.14,0,0,1,.731.331ZM12.9,5.963a3.14,3.14,0,0,0-2.116.639L12,8.191a1.14,1.14,0,0,1,.768-.232Zm-2.213.725-6.39,6.36,1.411,1.418,6.39-6.36Zm-7.392.776,4,4,1.414-1.414-4-4Zm7,7,4,4,1.414-1.414-4-4Z" transform="translate(0 0)" fill="#09090b"/>
</svg>
