<svg id="mails" xmlns="http://www.w3.org/2000/svg" width="22" height="19" viewBox="0 0 22 19">
  <path id="Vector" d="M21.47,4.883a1,1,0,1,0-.94-1.765ZM13.9,7.78l.466.885,0,0Zm-1.8,0-.47.883,0,0ZM5.47,3.117a1,1,0,0,0-.94,1.765ZM2,5A1,1,0,0,0,0,5ZM17,19a1,1,0,0,0,0-2ZM7,2H19V0H7ZM19,2a1,1,0,0,1,1,1h2a3,3,0,0,0-3-3Zm1,1v9h2V3Zm0,9a1,1,0,0,1-1,1v2a3,3,0,0,0,3-3Zm-1,1H7v2H19ZM7,13a1,1,0,0,1-1-1H4a3,3,0,0,0,3,3ZM6,12V3H4v9ZM6,3A1,1,0,0,1,7,2V0A3,3,0,0,0,4,3Zm14.53.117L13.43,6.9l.94,1.765,7.1-3.78ZM13.434,6.9a.913.913,0,0,1-.869,0l-.931,1.77a2.912,2.912,0,0,0,2.731,0Zm-.864,0-7.1-3.78L4.53,4.883l7.1,3.78ZM0,5V16H2V5ZM0,16a3.006,3.006,0,0,0,3,3V17a1.006,1.006,0,0,1-1-1Zm3,3H17V17H3Z" fill="#09090b"/>
</svg>
