<svg id="mail-x" xmlns="http://www.w3.org/2000/svg" width="22" height="19" viewBox="0 0 22 19">
  <path id="Vector" d="M20,10a1,1,0,0,0,2,0ZM19,1V1ZM3,1V1ZM1,3H1ZM12,18a1,1,0,1,0,0-2ZM21.536,4.844a1,1,0,1,0-1.073-1.688ZM12.03,9.7l.531.847.005,0ZM11,10v0ZM9.97,9.7l-.536.844.005,0ZM1.536,3.156A1,1,0,1,0,.464,4.844ZM16.707,13.293a1,1,0,0,0-1.414,1.414Zm2.586,5.414a1,1,0,1,0,1.414-1.414Zm1.414-4a1,1,0,1,0-1.414-1.414Zm-5.414,2.586a1,1,0,0,0,1.414,1.414ZM22,10V3H20v7Zm0-7A3,3,0,0,0,21.121.879L19.707,2.293A1,1,0,0,1,20,3ZM21.121.879A3,3,0,0,0,19,0V2a1,1,0,0,1,.707.293ZM19,0H3V2H19ZM3,0A3,3,0,0,0,.879.879L2.293,2.293A1,1,0,0,1,3,2ZM.879.879A3,3,0,0,0,0,3H2a1,1,0,0,1,.293-.707ZM0,3V15H2V3ZM0,15a3.006,3.006,0,0,0,3,3V16a1.006,1.006,0,0,1-1-1Zm3,3h9V16H3ZM20.464,3.156l-8.97,5.7,1.073,1.688,8.97-5.7ZM11.5,8.853A.94.94,0,0,1,11,9v2a2.94,2.94,0,0,0,1.561-.449ZM11,9a.94.94,0,0,1-.5-.143L9.439,10.547A2.94,2.94,0,0,0,11,11Zm-.494-.14-8.97-5.7L.464,4.844l8.97,5.7Zm4.787,5.851,4,4,1.414-1.414-4-4Zm4-1.414-4,4,1.414,1.414,4-4Z" transform="translate(0)" fill="#09090b"/>
</svg>
