<svg id="mail" xmlns="http://www.w3.org/2000/svg" width="22" height="18" viewBox="0 0 22 18">
  <path id="Vector" d="M21.536,4.844a1,1,0,1,0-1.073-1.688ZM12.03,9.7l.531.847.005,0ZM11,10v0ZM9.97,9.7l-.536.844.005,0ZM1.536,3.156A1,1,0,1,0,.464,4.844ZM3,2H19V0H3ZM19,2a1,1,0,0,1,1,1h2a3,3,0,0,0-3-3Zm1,1V15h2V3Zm0,12a1,1,0,0,1-1,1v2a3,3,0,0,0,3-3Zm-1,1H3v2H19ZM3,16a1,1,0,0,1-1-1H0a3,3,0,0,0,3,3ZM2,15V3H0V15ZM2,3A1,1,0,0,1,3,2V0A3,3,0,0,0,0,3Zm18.464.156-8.97,5.7,1.073,1.688,8.97-5.7ZM11.5,8.853A.94.94,0,0,1,11,9v2a2.94,2.94,0,0,0,1.561-.449ZM11,9a.94.94,0,0,1-.5-.143L9.439,10.547A2.94,2.94,0,0,0,11,11Zm-.494-.14-8.97-5.7L.464,4.844l8.97,5.7Z" transform="translate(0)" fill="#09090b"/>
</svg>
