<svg id="mail-open" xmlns="http://www.w3.org/2000/svg" width="22" height="22" viewBox="0 0 22 22">
  <path id="Vector" d="M20.2,7.4l.605-.8-.005,0ZM1,19H1ZM1.8,7.4l-.6-.8h0Zm8-6,.6.8h0ZM11,1V1Zm1.2.4-.6.8h0Zm-.17,13.3.531.847.005,0ZM11,15v0Zm-1.03-.3-.536.844.005,0Zm9.625-6.5A1.013,1.013,0,0,1,20,9h2a3.013,3.013,0,0,0-1.195-2.4ZM20,9V19h2V9Zm0,10a1,1,0,0,1-.293.707l1.414,1.414A3,3,0,0,0,22,19Zm-.293.707A1,1,0,0,1,19,20v2a3,3,0,0,0,2.121-.879ZM19,20H3v2H19ZM3,20a1,1,0,0,1-.707-.293L.879,21.121A3,3,0,0,0,3,22Zm-.707-.293A1,1,0,0,1,2,19H0a3,3,0,0,0,.879,2.121ZM2,19V9H0V19ZM2,9a1,1,0,0,1,.106-.447L.317,7.658A3,3,0,0,0,0,9Zm.106-.447A1,1,0,0,1,2.4,8.2L1.2,6.6A3,3,0,0,0,.317,7.658ZM2.4,8.2l8-6L9.2.6l-8,6Zm8-6A1,1,0,0,1,11,2V0A3,3,0,0,0,9.2.6ZM11,2a1,1,0,0,1,.6.2L12.8.6A3,3,0,0,0,11,0Zm.6.2,8,6,1.2-1.6-8-6Zm8.864,5.956-8.97,5.7,1.073,1.688,8.97-5.7Zm-8.965,5.7A.94.94,0,0,1,11,14v2a2.94,2.94,0,0,0,1.561-.449ZM11,14a.94.94,0,0,1-.5-.143L9.439,15.547A2.94,2.94,0,0,0,11,16Zm-.494-.14-8.97-5.7L.464,9.844l8.97,5.7Z" fill="#09090b"/>
</svg>
