<svg id="map-pinned" xmlns="http://www.w3.org/2000/svg" width="22" height="22" viewBox="0 0 22 22">
  <path id="Vector" d="M17,7h0Zm-6,9-.6.8a1,1,0,0,0,1.2,0ZM5,7H5Zm6-6V1ZM7.835,14a1,1,0,0,0,0-2ZM4,13V12l-.054,0Zm-.9.7.949.316L4.055,14Zm-2,6,.707.707a1,1,0,0,0,.242-.391Zm19.8,0-.949.316a1,1,0,0,0,.242.391Zm-2-6-.954.3.006.018ZM18,13l.054-1L18,12Zm-3.835-1a1,1,0,1,0,0,2ZM16,7c0,1.855-1.271,3.862-2.747,5.523a22.51,22.51,0,0,1-1.974,1.951c-.269.236-.493.42-.648.544-.077.062-.137.109-.177.14l-.044.034-.01.007h0l.6.8.6.8h0l0,0,.016-.012.057-.044c.048-.038.117-.092.2-.161.174-.14.419-.342.712-.6a24.513,24.513,0,0,0,2.151-2.127C16.271,12.138,18,9.645,18,7Zm-5,9,.6-.8h0l-.01-.007-.044-.034c-.04-.031-.1-.078-.177-.14-.155-.124-.378-.309-.648-.544a22.517,22.517,0,0,1-1.974-1.951C7.271,10.862,6,8.855,6,7H4c0,2.645,1.73,5.138,3.253,6.852A24.506,24.506,0,0,0,9.4,15.979c.293.256.538.459.712.6.087.07.156.124.2.161l.057.044.016.012,0,0h0L11,16ZM6,7A5,5,0,0,1,7.465,3.464L6.05,2.05A7,7,0,0,0,4,7ZM7.465,3.464A5,5,0,0,1,11,2V0A7,7,0,0,0,6.05,2.05ZM11,2a5,5,0,0,1,3.535,1.464L15.95,2.05A7,7,0,0,0,11,0Zm3.535,1.464A5,5,0,0,1,16,7h2a7,7,0,0,0-2.05-4.95ZM12,7a1,1,0,0,1-1,1v2a3,3,0,0,0,3-3ZM11,8a1,1,0,0,1-1-1H8a3,3,0,0,0,3,3ZM10,7a1,1,0,0,1,1-1V4A3,3,0,0,0,8,7Zm1-1a1,1,0,0,1,1,1h2a3,3,0,0,0-3-3ZM7.835,12H4v2H7.835ZM3.946,12a2,2,0,0,0-1.119.418L4.055,14h0Zm-1.119.418a2,2,0,0,0-.681.982l1.909.6h0Zm-.675.964-2,6,1.9.632,2-6ZM.393,18.993A1.353,1.353,0,0,0,0,20H2c0-.069,0,0-.017.093a.7.7,0,0,1-.069.173.657.657,0,0,1-.107.142ZM0,20a2,2,0,0,0,.568,1.432A2,2,0,0,0,2,22V20a.169.169,0,0,1-.05-.005L1.962,20A.13.13,0,0,1,2,20.038a.07.07,0,0,1,.006.012A.169.169,0,0,1,2,20Zm2,2H20V20H2Zm18,0a1.942,1.942,0,0,0,2-2H20a.169.169,0,0,1-.005.05A.07.07,0,0,1,20,20.038.13.13,0,0,1,20.039,20l.012-.006A.169.169,0,0,1,20,20Zm2-2a1.353,1.353,0,0,0-.393-1.007l-1.414,1.414a.658.658,0,0,1-.107-.142.7.7,0,0,1-.069-.173C20,20,20,19.931,20,20Zm-.151-.616-2-6-1.9.632,2,6ZM19.855,13.4a2,2,0,0,0-.681-.982L17.946,14h0Zm-.681-.982A2,2,0,0,0,18.055,12l-.109,2h0ZM18,12H14.165v2H18Z" transform="translate(0 0)" fill="#09090b"/>
</svg>
