<svg id="megaphone" xmlns="http://www.w3.org/2000/svg" width="20" height="15.008" viewBox="0 0 20 15.008">
  <path id="Vector" d="M1,6,.732,5.036A1,1,0,0,0,0,6ZM19,1h1A1,1,0,0,0,18.732.036Zm0,12-.217.976A1,1,0,0,0,20,13ZM1,9H0a1,1,0,0,0,.783.976Zm9.564,3.066a1,1,0,0,0-1.928-.532Zm-5.8-1.6a1,1,0,0,0-1.928-.532Zm-3.5-3.5,18-5L18.732.036l-18,5ZM18,1V13h2V1Zm1.217,11.024-18-4L.783,9.976l18,4ZM2,9V6H0V9Zm6.636,2.534a2.007,2.007,0,0,1-.352.7l1.578,1.229a4.008,4.008,0,0,0,.7-1.4Zm-.352.7a2.008,2.008,0,0,1-.593.512l.987,1.739a4.007,4.007,0,0,0,1.183-1.023Zm-.593.512a2.01,2.01,0,0,1-.744.246l.246,1.985a4.006,4.006,0,0,0,1.485-.492Zm-.744.246a2.009,2.009,0,0,1-.782-.057l-.532,1.928a4.007,4.007,0,0,0,1.56.114Zm-.782-.057a2.009,2.009,0,0,1-.7-.352L4.237,14.162a4.007,4.007,0,0,0,1.4.7Zm-.7-.352a2.009,2.009,0,0,1-.512-.593l-1.739.987a4.008,4.008,0,0,0,1.023,1.183Zm-.512-.593a2.009,2.009,0,0,1-.246-.744l-1.985.246a4.008,4.008,0,0,0,.492,1.485Zm-.246-.744a2.008,2.008,0,0,1,.057-.782L2.836,9.934a4.008,4.008,0,0,0-.114,1.56Z" transform="translate(0 0)" fill="#09090b"/>
</svg>
