<svg id="megaphone-off" xmlns="http://www.w3.org/2000/svg" width="22" height="22" viewBox="0 0 22 22">
  <path id="Vector" d="M8.528,9.223A1,1,0,0,0,7.992,7.3ZM2,10l-.268-.963A1,1,0,0,0,1,10Zm0,3H1a1,1,0,0,0,.783.976Zm13.923,4.116a1,1,0,1,0,.434-1.952ZM19,14.34a1,1,0,1,0,2,0ZM20,5h1a1,1,0,0,0-1.267-.964ZM12.422,6.066a1,1,0,1,0,.535,1.927Zm-.858,10a1,1,0,0,0-1.928-.532Zm-5.8-1.6a1,1,0,0,0-1.928-.532ZM1.707.293A1,1,0,0,0,.293,1.707ZM20.293,21.707a1,1,0,0,0,1.414-1.414ZM7.992,7.3l-6.26,1.74.536,1.927,6.26-1.74ZM1,10v3H3V10Zm.783,3.976,14.14,3.14.434-1.952-14.14-3.14ZM21,14.34V5H19v9.34Zm-1.267-10.3-7.31,2.03.535,1.927,7.31-2.03Zm-10.1,11.5a2.007,2.007,0,0,1-.352.7l1.578,1.229a4.008,4.008,0,0,0,.7-1.4Zm-.352.7a2.008,2.008,0,0,1-.593.512l.987,1.739a4.007,4.007,0,0,0,1.183-1.023Zm-.593.512a2.01,2.01,0,0,1-.744.246l.246,1.985a4.006,4.006,0,0,0,1.485-.492Zm-.744.246a2.009,2.009,0,0,1-.782-.057l-.532,1.928a4.007,4.007,0,0,0,1.56.114Zm-.782-.057a2.009,2.009,0,0,1-.7-.352L5.237,18.162a4.007,4.007,0,0,0,1.4.7Zm-.7-.352a2.009,2.009,0,0,1-.512-.593l-1.739.987a4.008,4.008,0,0,0,1.023,1.183Zm-.512-.593a2.009,2.009,0,0,1-.246-.744l-1.985.246a4.008,4.008,0,0,0,.492,1.485Zm-.246-.744a2.008,2.008,0,0,1,.057-.781l-1.928-.532a4.008,4.008,0,0,0-.114,1.56ZM.293,1.707l20,20,1.414-1.414-20-20Z" transform="translate(0)" fill="#09090b"/>
</svg>
