<svg id="memory-stick" xmlns="http://www.w3.org/2000/svg" width="22" height="16" viewBox="0 0 22 16">
  <path id="Vector" d="M4,15a1,1,0,0,0,2,0Zm2-3a1,1,0,0,0-2,0Zm2,3a1,1,0,0,0,2,0Zm2-3a1,1,0,0,0-2,0Zm2,3a1,1,0,0,0,2,0Zm2-3a1,1,0,0,0-2,0Zm2,3a1,1,0,0,0,2,0Zm2-3a1,1,0,0,0-2,0ZM6,7A1,1,0,0,0,8,7ZM8,5A1,1,0,0,0,6,5Zm6,2a1,1,0,0,0,2,0Zm2-2a1,1,0,0,0-2,0ZM10,7a1,1,0,0,0,2,0Zm2-2a1,1,0,0,0-2,0ZM1,10a1,1,0,0,0,0,2Zm20,2a1,1,0,0,0,0-2ZM3,1V1ZM19,1V1Zm2,3.1.283.959A1,1,0,0,0,22,4.1Zm0,3.837h1a1,1,0,0,0-.717-.959ZM1,13H1ZM1,7.9.717,6.941A1,1,0,0,0,0,7.9ZM1,4.063H0a1,1,0,0,0,.717.959ZM6,15V12H4v3Zm4,0V12H8v3Zm4,0V12H12v3Zm4,0V12H16v3ZM8,7V5H6V7Zm8,0V5H14V7ZM12,7V5H10V7ZM1,12H21V10H1ZM2,3a1,1,0,0,1,.293-.707L.879.879A3,3,0,0,0,0,3Zm.293-.707A1,1,0,0,1,3,2V0A3,3,0,0,0,.879.879ZM3,2H19V0H3ZM19,2a1,1,0,0,1,.707.293L21.121.879A3,3,0,0,0,19,0Zm.707.293A1,1,0,0,1,20,3h2A3,3,0,0,0,21.121.879ZM20,3V4.1h2V3Zm.717.141a3,3,0,0,0-1.555,1.081l1.6,1.2a1,1,0,0,1,.518-.36ZM19.163,4.222a3,3,0,0,0-.6,1.8h2a1,1,0,0,1,.2-.6Zm-.6,1.8a3,3,0,0,0,.6,1.8l1.6-1.2a1,1,0,0,1-.2-.6Zm.6,1.8A3,3,0,0,0,20.717,8.9l.565-1.918a1,1,0,0,1-.518-.36ZM20,7.937V13h2V7.937ZM20,13a1,1,0,0,1-.293.707l1.414,1.414A3,3,0,0,0,22,13Zm-.293.707A1,1,0,0,1,19,14v2a3,3,0,0,0,2.121-.879ZM19,14H3v2H19ZM3,14a1,1,0,0,1-.707-.293L.879,15.121A3,3,0,0,0,3,16Zm-.707-.293A1,1,0,0,1,2,13H0a3,3,0,0,0,.879,2.121ZM2,13V7.9H0V13ZM1.283,8.859A3,3,0,0,0,2.837,7.778l-1.6-1.2a1,1,0,0,1-.518.36ZM2.837,7.778a3,3,0,0,0,.6-1.8h-2a1,1,0,0,1-.2.6Zm.6-1.8a3,3,0,0,0-.6-1.8l-1.6,1.2a1,1,0,0,1,.2.6Zm-.6-1.8A3,3,0,0,0,1.283,3.1L.717,5.022a1,1,0,0,1,.518.36ZM2,4.063V3H0V4.063Z" fill="#09090b"/>
</svg>
