<svg id="message-square-quote" xmlns="http://www.w3.org/2000/svg" width="20" height="20" viewBox="0 0 20 20">
  <path id="Vector" d="M5,15V14a1,1,0,0,0-.707.293ZM1,19H0a1,1,0,0,0,1.707.707ZM3,1V1ZM17,1V1ZM6,9a1,1,0,0,0,0,2ZM8,6H9A1,1,0,0,0,8,5ZM6,5A1,1,0,0,0,6,7Zm6,4a1,1,0,0,0,0,2Zm2-3h1a1,1,0,0,0-1-1ZM12,5a1,1,0,0,0,0,2Zm6,8a1,1,0,0,1-.293.707l1.414,1.414A3,3,0,0,0,20,13Zm-.293.707A1,1,0,0,1,17,14v2a3,3,0,0,0,2.121-.879ZM17,14H5v2H17Zm-12.707.293-4,4,1.414,1.414,4-4ZM2,19V3H0V19ZM2,3a1,1,0,0,1,.293-.707L.879.879A3,3,0,0,0,0,3Zm.293-.707A1,1,0,0,1,3,2V0A3,3,0,0,0,.879.879ZM3,2H17V0H3ZM17,2a1,1,0,0,1,.707.293L19.121.879A3,3,0,0,0,17,0Zm.707.293A1,1,0,0,1,18,3h2A3,3,0,0,0,19.121.879ZM18,3V13h2V3ZM6,11a3,3,0,0,0,2.121-.879L6.707,8.707A1,1,0,0,1,6,9Zm2.121-.879A3,3,0,0,0,9,8H7a1,1,0,0,1-.293.707ZM9,8V6H7V8ZM8,5H6V7H8Zm4,6a3,3,0,0,0,2.121-.879L12.707,8.707A1,1,0,0,1,12,9Zm2.121-.879A3,3,0,0,0,15,8H13a1,1,0,0,1-.293.707ZM15,8V6H13V8ZM14,5H12V7h2Z" fill="#09090b"/>
</svg>
