<svg id="message-circle-warning" xmlns="http://www.w3.org/2000/svg" width="21.008" height="21.008" viewBox="0 0 21.008 21.008">
  <path id="Vector" d="M6.9,18.008l.456-.89a1,1,0,0,0-.777-.057ZM3,14.108l.947.321a1,1,0,0,0-.057-.778Zm-2,5.9-.947-.321a1,1,0,0,0,1.268,1.268Zm11-14a1,1,0,1,0-2,0Zm-2,4a1,1,0,0,0,2,0Zm1,3a1,1,0,0,0,0,2Zm.01,2a1,1,0,1,0,0-2ZM6.444,18.9a10,10,0,0,0,6.879.831l-.463-1.946a8,8,0,0,1-5.5-.665Zm6.879.831a10,10,0,0,0,5.768-3.84l-1.617-1.178a8,8,0,0,1-4.614,3.072Zm5.768-3.84a10,10,0,0,0,1.888-6.667l-1.994.156a8,8,0,0,1-1.51,5.333Zm1.888-6.667a10,10,0,0,0-2.9-6.293L16.665,4.343a8,8,0,0,1,2.319,5.035Zm-2.9-6.293A10,10,0,0,0,11.786.03L11.63,2.024a8,8,0,0,1,5.035,2.319ZM11.786.03A10,10,0,0,0,5.119,1.918L6.3,3.534a8,8,0,0,1,5.333-1.51ZM5.119,1.918a10,10,0,0,0-3.84,5.768l1.946.463A8,8,0,0,1,6.3,3.534ZM1.279,7.686a10,10,0,0,0,.831,6.879l1.78-.913a8,8,0,0,1-.665-5.5Zm.774,6.1-2,5.9,1.894.642,2-5.9Zm-.732,7.168,5.9-2-.642-1.894-5.9,2ZM10,6.008v4h2v-4Zm1,9h.01v-2H11Z" transform="translate(0 0)" fill="#09090b"/>
</svg>
