<svg id="message-square-dashed" xmlns="http://www.w3.org/2000/svg" width="20" height="20" viewBox="0 0 20 20">
  <path id="Vector" d="M0,4A1,1,0,0,0,2,4ZM5,2A1,1,0,0,0,5,0ZM9,0A1,1,0,0,0,9,2Zm3,2a1,1,0,0,0,0-2Zm4-2a1,1,0,0,0,0,2Zm2,3a1,1,0,0,0,2,0Zm2,4a1,1,0,0,0-2,0ZM18,9a1,1,0,0,0,2,0Zm2,4a1,1,0,0,0-2,0Zm-4,1a1,1,0,0,0,0,2Zm-4,2a1,1,0,0,0,0-2ZM9,14a1,1,0,0,0,0,2ZM5.707,15.707a1,1,0,1,0-1.414-1.414ZM1,19H0a1,1,0,0,0,1.707.707Zm1-5a1,1,0,0,0-2,0ZM0,10a1,1,0,0,0,2,0ZM2,8A1,1,0,0,0,0,8ZM2,4V3H0V4ZM2,3A1.006,1.006,0,0,1,3,2V0A3.006,3.006,0,0,0,0,3ZM3,2H5V0H3ZM9,2h3V0H9Zm7,0h1V0H16Zm1,0a1.006,1.006,0,0,1,1,1h2a3.006,3.006,0,0,0-3-3Zm1,5V9h2V7Zm0,6a1.006,1.006,0,0,1-1,1v2a3.006,3.006,0,0,0,3-3Zm-1,1H16v2h1Zm-5,0H9v2h3Zm-7.707.293-4,4,1.414,1.414,4-4ZM2,19V14H0v5Zm0-9V8H0v2Z" fill="#09090b"/>
</svg>
