<svg id="message-square-diff" xmlns="http://www.w3.org/2000/svg" width="20" height="20" viewBox="0 0 20 20">
  <path id="Vector" d="M3.707,17.707a1,1,0,0,0-1.414-1.414ZM1,19H0a1,1,0,0,0,1.707.707ZM3,1V1ZM17,1V1Zm0,13a1,1,0,0,0,0,2ZM7,7A1,1,0,0,0,7,9Zm6,2a1,1,0,0,0,0-2ZM11,5A1,1,0,0,0,9,5ZM9,11a1,1,0,0,0,2,0ZM7,14a1,1,0,0,0,0,2Zm6,2a1,1,0,0,0,0-2Zm-10.707.293-2,2,1.414,1.414,2-2ZM2,19V3H0V19ZM2,3a1,1,0,0,1,.293-.707L.879.879A3,3,0,0,0,0,3Zm.293-.707A1,1,0,0,1,3,2V0A3,3,0,0,0,.879.879ZM3,2H17V0H3ZM17,2a1,1,0,0,1,.707.293L19.121.879A3,3,0,0,0,17,0Zm.707.293A1,1,0,0,1,18,3h2A3,3,0,0,0,19.121.879ZM18,3V13h2V3Zm0,10a1,1,0,0,1-.293.707l1.414,1.414A3,3,0,0,0,20,13Zm-.293.707A1,1,0,0,1,17,14v2a3,3,0,0,0,2.121-.879ZM7,9h6V7H7ZM9,5v6h2V5ZM7,16h6V14H7Z" fill="#09090b"/>
</svg>
