<svg id="message-square-heart" xmlns="http://www.w3.org/2000/svg" width="20" height="20" viewBox="0 0 20 20">
  <path id="Vector" d="M5,15V14a1,1,0,0,0-.707.293ZM1,19H0a1,1,0,0,0,1.707.707ZM3,1V1ZM17,1V1ZM12.8,5.5l.707-.707h0Zm-1.3-.538v0ZM10.2,5.5l-.707-.708a1,1,0,0,0-.126.153Zm-.2.3-.707.707a1,1,0,0,0,1.539-.152Zm-.3-.3.707-.707q-.027-.027-.056-.052ZM7.3,8.3l.707-.707q-.027-.027-.056-.052ZM10,11l-.707.707a1,1,0,0,0,1.414,0Zm2.7-2.7.707.707h0ZM18,13a1,1,0,0,1-.293.707l1.414,1.414A3,3,0,0,0,20,13Zm-.293.707A1,1,0,0,1,17,14v2a3,3,0,0,0,2.121-.879ZM17,14H5v2H17Zm-12.707.293-4,4,1.414,1.414,4-4ZM2,19V3H0V19ZM2,3a1,1,0,0,1,.293-.707L.879.879A3,3,0,0,0,0,3Zm.293-.707A1,1,0,0,1,3,2V0A3,3,0,0,0,.879.879ZM3,2H17V0H3ZM17,2a1,1,0,0,1,.707.293L19.121.879A3,3,0,0,0,17,0Zm.707.293A1,1,0,0,1,18,3h2A3,3,0,0,0,19.121.879ZM18,3V13h2V3ZM13.506,4.792a2.84,2.84,0,0,0-2.007-.83v2a.84.84,0,0,1,.594.246ZM11.5,3.962a2.84,2.84,0,0,0-2.007.83l1.413,1.415a.84.84,0,0,1,.593-.246Zm-2.132.983-.2.3,1.664,1.109.2-.3Zm1.339.148-.3-.3L8.993,6.207l.3.3Zm-.356-.352A2.844,2.844,0,0,0,9.384,4.2L8.762,6.1a.844.844,0,0,1,.287.161ZM9.384,4.2a2.844,2.844,0,0,0-1.1-.132l.153,1.994a.844.844,0,0,1,.327.039Zm-1.1-.132a2.844,2.844,0,0,0-1.069.3l.9,1.784a.844.844,0,0,1,.317-.089Zm-1.069.3a2.844,2.844,0,0,0-.873.685l1.519,1.3a.844.844,0,0,1,.259-.2Zm-.873.685a2.844,2.844,0,0,0-.544.967l1.9.621a.844.844,0,0,1,.161-.287ZM5.8,6.016a2.844,2.844,0,0,0-.132,1.1l1.994-.153A.844.844,0,0,1,7.7,6.638Zm-.132,1.1a2.844,2.844,0,0,0,.3,1.069l1.784-.9a.844.844,0,0,1-.089-.317Zm.3,1.069a2.844,2.844,0,0,0,.685.873l1.3-1.519a.844.844,0,0,1-.2-.259Zm.629.82,2.7,2.7,1.414-1.414-2.7-2.7Zm4.114,2.7,2.7-2.7L11.993,7.593l-2.7,2.7Zm2.7-2.7a2.935,2.935,0,0,0,.1-4.214L12.093,6.207a.942.942,0,0,1-.1,1.386Z" fill="#09090b"/>
</svg>
