<svg id="message-square-x" xmlns="http://www.w3.org/2000/svg" width="20" height="20" viewBox="0 0 20 20">
  <path id="Vector" d="M5,15V14a1,1,0,0,0-.707.293ZM1,19H0a1,1,0,0,0,1.707.707ZM3,1V1ZM17,1V1ZM13.207,6.207a1,1,0,0,0-1.414-1.414ZM6.793,9.793a1,1,0,1,0,1.414,1.414Zm1.414-5A1,1,0,0,0,6.793,6.207Zm3.586,6.414a1,1,0,1,0,1.414-1.414ZM18,13a1,1,0,0,1-.293.707l1.414,1.414A3,3,0,0,0,20,13Zm-.293.707A1,1,0,0,1,17,14v2a3,3,0,0,0,2.121-.879ZM17,14H5v2H17Zm-12.707.293-4,4,1.414,1.414,4-4ZM2,19V3H0V19ZM2,3a1,1,0,0,1,.293-.707L.879.879A3,3,0,0,0,0,3Zm.293-.707A1,1,0,0,1,3,2V0A3,3,0,0,0,.879.879ZM3,2H17V0H3ZM17,2a1,1,0,0,1,.707.293L19.121.879A3,3,0,0,0,17,0Zm.707.293A1,1,0,0,1,18,3h2A3,3,0,0,0,19.121.879ZM18,3V13h2V3ZM11.793,4.793l-5,5,1.414,1.414,5-5Zm-5,1.414,5,5,1.414-1.414-5-5Z" fill="#09090b"/>
</svg>
