<svg id="message-square-reply" xmlns="http://www.w3.org/2000/svg" width="20" height="20" viewBox="0 0 20 20">
  <path id="Vector" d="M5,15V14a1,1,0,0,0-.707.293ZM1,19H0a1,1,0,0,0,1.707.707ZM3,1V1ZM17,1V1ZM8.707,5.707A1,1,0,0,0,7.293,4.293ZM5,8l-.707-.707a1,1,0,0,0,0,1.414Zm2.293,3.707a1,1,0,1,0,1.414-1.414ZM14,11a1,1,0,0,0,2,0Zm4,2a1,1,0,0,1-.293.707l1.414,1.414A3,3,0,0,0,20,13Zm-.293.707A1,1,0,0,1,17,14v2a3,3,0,0,0,2.121-.879ZM17,14H5v2H17Zm-12.707.293-4,4,1.414,1.414,4-4ZM2,19V3H0V19ZM2,3a1,1,0,0,1,.293-.707L.879.879A3,3,0,0,0,0,3Zm.293-.707A1,1,0,0,1,3,2V0A3,3,0,0,0,.879.879ZM3,2H17V0H3ZM17,2a1,1,0,0,1,.707.293L19.121.879A3,3,0,0,0,17,0Zm.707.293A1,1,0,0,1,18,3h2A3,3,0,0,0,19.121.879ZM18,3V13h2V3ZM7.293,4.293l-3,3L5.707,8.707l3-3Zm-3,4.414,3,3,1.414-1.414-3-3ZM16,11V10H14v1Zm0-1a3,3,0,0,0-.879-2.121L13.707,9.293A1,1,0,0,1,14,10Zm-.879-2.121A3,3,0,0,0,13,7V9a1,1,0,0,1,.707.293ZM13,7H5V9h8Z" fill="#09090b"/>
</svg>
