<svg id="microwave" xmlns="http://www.w3.org/2000/svg" width="22" height="19" viewBox="0 0 22 19">
  <path id="Vector" d="M18,5a1,1,0,0,0-2,0Zm-2,7a1,1,0,0,0,2,0ZM6,16a1,1,0,0,0-2,0ZM4,18a1,1,0,0,0,2,0Zm14-2a1,1,0,0,0-2,0Zm-2,2a1,1,0,0,0,2,0ZM3,2H19V0H3ZM19,2a1,1,0,0,1,1,1h2a3,3,0,0,0-3-3Zm1,1V14h2V3Zm0,11a1,1,0,0,1-1,1v2a3,3,0,0,0,3-3Zm-1,1H3v2H19ZM3,15a1,1,0,0,1-1-1H0a3,3,0,0,0,3,3ZM2,14V3H0V14ZM2,3A1,1,0,0,1,3,2V0A3,3,0,0,0,0,3ZM6,6h6V4H6Zm6,0h2a2,2,0,0,0-2-2Zm0,0v5h2V6Zm0,5v2a2,2,0,0,0,2-2Zm0,0H6v2h6ZM6,11H4a2,2,0,0,0,2,2Zm0,0V6H4v5ZM6,6V4A2,2,0,0,0,4,6ZM16,5v7h2V5ZM4,16v2H6V16Zm12,0v2h2V16Z" fill="#09090b"/>
</svg>
