<svg id="milestone" xmlns="http://www.w3.org/2000/svg" width="21" height="20" viewBox="0 0 21 20">
  <path id="Vector" d="M16,4l.659-.753A1,1,0,0,0,16,3ZM3,4V4ZM1,6H1ZM1,9H1Zm15,2v1a1,1,0,0,0,.659-.247Zm4-3.5.659.753a1,1,0,0,0,0-1.505ZM11,11a1,1,0,0,0-2,0ZM9,19a1,1,0,0,0,2,0ZM11,1A1,1,0,0,0,9,1ZM9,4a1,1,0,0,0,2,0Zm7-1H3V5H16ZM3,3a3,3,0,0,0-2.121.879L2.293,5.293A1,1,0,0,1,3,5ZM.879,3.879A3,3,0,0,0,0,6H2a1,1,0,0,1,.293-.707ZM0,6V9H2V6ZM0,9a3,3,0,0,0,.879,2.121L2.293,9.707A1,1,0,0,1,2,9Zm.879,2.121A3,3,0,0,0,3,12V10a1,1,0,0,1-.707-.293ZM3,12H16V10H3Zm13.659-.247,4-3.5L19.342,6.747l-4,3.5Zm4-5.005-4-3.5L15.342,4.753l4,3.5ZM9,11v8h2V11ZM9,1V4h2V1Z" fill="#09090b"/>
</svg>
