<svg id="milk-off" xmlns="http://www.w3.org/2000/svg" width="22" height="22" viewBox="0 0 22 22">
  <path id="Vector" d="M7,0A1,1,0,0,0,7,2Zm8,2a1,1,0,0,0,0-2ZM9,1A1,1,0,0,0,7,1ZM7,2.343a1,1,0,1,0,2,0ZM15,1a1,1,0,0,0-2,0ZM14,3.789h0Zm.672,2.219.832-.555h0Zm.656.984-.832.555h0ZM16,9.212h0Zm-1,1.131a1,1,0,0,0,2,0ZM7.632,7.355A1,1,0,1,0,5.968,6.245Zm-.96-.363.832.555h0ZM6,9.212H6ZM6,19H6Zm11-3a1,1,0,0,0-2,0ZM5.614,13.078a1,1,0,1,0,.773,1.845ZM8.5,13.5v0ZM11,14l.386-.922h0Zm3.579,1.424a1,1,0,0,0-.289-1.979ZM1.707.293A1,1,0,0,0,.293,1.707ZM20.293,21.707a1,1,0,0,0,1.414-1.414ZM7,2h8V0H7ZM7,1V2.343H9V1Zm6,0V3.789h2V1Zm0,2.789a5,5,0,0,0,.84,2.774L15.5,5.453A3,3,0,0,1,15,3.789Zm.84,2.774.656.984L16.16,6.437,15.5,5.453Zm.656.984A3,3,0,0,1,15,9.212h2a5,5,0,0,0-.84-2.775ZM15,9.212v1.131h2V9.212ZM5.968,6.245l-.128.192L7.5,7.547l.128-.192Zm-.128.192A5,5,0,0,0,5,9.212H7a3,3,0,0,1,.5-1.665ZM5,9.212V19H7V9.212ZM5,19a3,3,0,0,0,.879,2.121l1.414-1.414A1,1,0,0,1,7,19Zm.879,2.121A3,3,0,0,0,8,22V20a1,1,0,0,1-.707-.293ZM8,22h6V20H8Zm6,0a3,3,0,0,0,2.121-.879l-1.414-1.414A1,1,0,0,1,14,20Zm2.121-.879A3,3,0,0,0,17,19H15a1,1,0,0,1-.293.707ZM17,19V16H15v3ZM6.386,14.922A5.47,5.47,0,0,1,8.5,14.5v-2a7.471,7.471,0,0,0-2.886.58ZM8.5,14.5a5.47,5.47,0,0,1,2.114.425l.773-1.845A7.471,7.471,0,0,0,8.5,12.5Zm2.114.425a7.471,7.471,0,0,0,3.966.5l-.289-1.979a5.472,5.472,0,0,1-2.9-.368ZM.293,1.707l20,20,1.414-1.414-20-20Z" transform="translate(0)" fill="#09090b"/>
</svg>
