<svg id="minimize" xmlns="http://www.w3.org/2000/svg" width="20" height="20" viewBox="0 0 20 20">
  <path id="Vector" d="M7,1A1,1,0,0,0,5,1ZM6,4H6ZM4,6V6ZM1,5A1,1,0,0,0,1,7ZM19,7a1,1,0,0,0,0-2ZM16,6V6ZM14,4h0Zm1-3a1,1,0,0,0-2,0ZM1,13a1,1,0,0,0,0,2Zm3,1v0Zm2,2H6ZM5,19a1,1,0,0,0,2,0Zm8,0a1,1,0,0,0,2,0Zm1-3h0Zm2-2v0Zm3,1a1,1,0,0,0,0-2ZM5,1V4H7V1ZM5,4a1,1,0,0,1-.293.707L6.121,6.121A3,3,0,0,0,7,4Zm-.293.707A1,1,0,0,1,4,5V7a3,3,0,0,0,2.121-.879ZM4,5H1V7H4ZM19,5H16V7h3ZM16,5a1,1,0,0,1-.707-.293L13.879,6.121A3,3,0,0,0,16,7Zm-.707-.293A1,1,0,0,1,15,4H13a3,3,0,0,0,.879,2.121ZM15,4V1H13V4ZM1,15H4V13H1Zm3,0a1,1,0,0,1,.707.293l1.414-1.414A3,3,0,0,0,4,13Zm.707.293A1,1,0,0,1,5,16H7a3,3,0,0,0-.879-2.121ZM5,16v3H7V16Zm10,3V16H13v3Zm0-3a1,1,0,0,1,.293-.707l-1.414-1.414A3,3,0,0,0,13,16Zm.293-.707A1,1,0,0,1,16,15V13a3,3,0,0,0-2.121.879ZM16,15h3V13H16Z" fill="#09090b"/>
</svg>
