<svg id="monitor-off" xmlns="http://www.w3.org/2000/svg" width="22" height="22" viewBox="0 0 22 22">
  <path id="Vector" d="M16,17a1,1,0,0,0,0-2ZM1,14H1ZM2.447,2.894a1,1,0,1,0-.894-1.789ZM20,14a1,1,0,0,0,2,0ZM19,2V2ZM8,1A1,1,0,0,0,8,3ZM7,19a1,1,0,0,0,0,2Zm8,2a1,1,0,0,0,0-2Zm-3-5a1,1,0,0,0-2,0Zm-2,4a1,1,0,0,0,2,0ZM1.707.293A1,1,0,0,0,.293,1.707ZM20.293,21.707a1,1,0,0,0,1.414-1.414ZM16,15H3v2H16ZM3,15a1,1,0,0,1-.707-.293L.879,16.121A3,3,0,0,0,3,17Zm-.707-.293A1,1,0,0,1,2,14H0a3,3,0,0,0,.879,2.121ZM2,14V4H0V14ZM2,4a1.438,1.438,0,0,1,.281-.938A.921.921,0,0,1,2.444,2.9c.019-.014.03-.021.032-.022l-.005,0-.009,0-.006,0,0,0h0s0,0-.448-.894-.448-.894-.448-.894h0l0,0-.011.006-.026.014-.069.04c-.053.032-.119.076-.194.132a2.919,2.919,0,0,0-.525.511A3.426,3.426,0,0,0,0,4ZM22,14V4H20V14ZM22,4a3,3,0,0,0-.879-2.121L19.707,3.293A1,1,0,0,1,20,4Zm-.879-2.121A3,3,0,0,0,19,1V3a1,1,0,0,1,.707.293ZM19,1H8V3H19ZM7,21h8V19H7Zm3-5v4h2V16ZM.293,1.707l20,20,1.414-1.414-20-20Z" transform="translate(0)" fill="#09090b"/>
</svg>
