<svg id="monitor-dot" xmlns="http://www.w3.org/2000/svg" width="22" height="20" viewBox="0 0 22 20">
  <path id="Vector" d="M22,10a1,1,0,0,0-2,0ZM1,13H1ZM3,1V1Zm9,1a1,1,0,0,0,0-2Zm0,13a1,1,0,0,0-2,0Zm-2,4a1,1,0,0,0,2,0ZM7,18a1,1,0,0,0,0,2Zm8,2a1,1,0,0,0,0-2ZM20,4a2,2,0,0,1-2,2V8a4,4,0,0,0,4-4ZM18,6a2,2,0,0,1-2-2H14a4,4,0,0,0,4,4ZM16,4a2,2,0,0,1,2-2V0a4,4,0,0,0-4,4Zm2-2a2,2,0,0,1,2,2h2a4,4,0,0,0-4-4Zm2,8v3h2V10Zm0,3a1,1,0,0,1-.293.707l1.414,1.414A3,3,0,0,0,22,13Zm-.293.707A1,1,0,0,1,19,14v2a3,3,0,0,0,2.121-.879ZM19,14H3v2H19ZM3,14a1,1,0,0,1-.707-.293L.879,15.121A3,3,0,0,0,3,16Zm-.707-.293A1,1,0,0,1,2,13H0a3,3,0,0,0,.879,2.121ZM2,13V3H0V13ZM2,3a1,1,0,0,1,.293-.707L.879.879A3,3,0,0,0,0,3Zm.293-.707A1,1,0,0,1,3,2V0A3,3,0,0,0,.879.879ZM3,2h9V0H3Zm7,13v4h2V15ZM7,20h8V18H7Z" fill="#09090b"/>
</svg>
