<svg id="monitor-stop" xmlns="http://www.w3.org/2000/svg" width="22" height="20" viewBox="0 0 22 20">
  <path id="Vector" d="M12,15a1,1,0,0,0-2,0Zm-2,4a1,1,0,0,0,2,0ZM7,18a1,1,0,0,0,0,2Zm8,2a1,1,0,0,0,0-2Zm-5-5v4h2V15ZM7,20h8V18H7ZM3,2H19V0H3ZM19,2a1,1,0,0,1,1,1h2a3,3,0,0,0-3-3Zm1,1V13h2V3Zm0,10a1,1,0,0,1-1,1v2a3,3,0,0,0,3-3Zm-1,1H3v2H19ZM3,14a1,1,0,0,1-1-1H0a3,3,0,0,0,3,3ZM2,13V3H0V13ZM2,3A1,1,0,0,1,3,2V0A3,3,0,0,0,0,3ZM9,6h4V4H9Zm4,0h2a2,2,0,0,0-2-2Zm0,0v4h2V6Zm0,4v2a2,2,0,0,0,2-2Zm0,0H9v2h4ZM9,10H7a2,2,0,0,0,2,2Zm0,0V6H7v4ZM9,6V4A2,2,0,0,0,7,6Z" fill="#09090b"/>
</svg>
