<svg id="monitor-pause" xmlns="http://www.w3.org/2000/svg" width="22" height="20" viewBox="0 0 22 20">
  <path id="Vector" d="M8,11a1,1,0,0,0,2,0Zm2-6A1,1,0,0,0,8,5Zm2,6a1,1,0,0,0,2,0Zm2-6a1,1,0,0,0-2,0ZM12,15a1,1,0,0,0-2,0Zm-2,4a1,1,0,0,0,2,0ZM7,18a1,1,0,0,0,0,2Zm8,2a1,1,0,0,0,0-2Zm-5-9V5H8v6Zm4,0V5H12v6ZM3,2H19V0H3ZM19,2a1,1,0,0,1,1,1h2a3,3,0,0,0-3-3Zm1,1V13h2V3Zm0,10a1,1,0,0,1-1,1v2a3,3,0,0,0,3-3Zm-1,1H3v2H19ZM3,14a1,1,0,0,1-1-1H0a3,3,0,0,0,3,3ZM2,13V3H0V13ZM2,3A1,1,0,0,1,3,2V0A3,3,0,0,0,0,3Zm8,12v4h2V15ZM7,20h8V18H7Z" fill="#09090b"/>
</svg>
