<svg id="monitor-speaker" xmlns="http://www.w3.org/2000/svg" width="22" height="18" viewBox="0 0 22 18">
  <path id="Vector" d="M4.5,16a1,1,0,0,0,0,2ZM7,18a1,1,0,0,0,0-2ZM16,5a1,1,0,0,0,0,2Zm.01,2a1,1,0,0,0,0-2ZM7,4A1,1,0,0,0,7,2ZM3,3V3ZM1,5H1Zm0,6H1Zm6,3a1,1,0,0,0,0-2ZM4.5,18H7V16H4.5ZM16,7h.01V5H16ZM13,2h6V0H13Zm6,0a1,1,0,0,1,1,1h2a3,3,0,0,0-3-3Zm1,1V15h2V3Zm0,12a1,1,0,0,1-1,1v2a3,3,0,0,0,3-3Zm-1,1H13v2h6Zm-6,0a1,1,0,0,1-1-1H10a3,3,0,0,0,3,3Zm-1-1V3H10V15ZM12,3a1,1,0,0,1,1-1V0a3,3,0,0,0-3,3ZM7,2H3V4H7ZM3,2a3,3,0,0,0-2.121.879L2.293,4.293A1,1,0,0,1,3,4ZM.879,2.879A3,3,0,0,0,0,5H2a1,1,0,0,1,.293-.707ZM0,5v6H2V5Zm0,6a3,3,0,0,0,.879,2.121l1.414-1.414A1,1,0,0,1,2,11Zm.879,2.121A3,3,0,0,0,3,14V12a1,1,0,0,1-.707-.293ZM3,14H7V12H3Zm13-2v2a2,2,0,0,0,2-2Zm0,0H14a2,2,0,0,0,2,2Zm0,0V10a2,2,0,0,0-2,2Zm0,0h2a2,2,0,0,0-2-2Z" fill="#09090b"/>
</svg>
