<svg id="moon" xmlns="http://www.w3.org/2000/svg" width="20" height="20" viewBox="0 0 20 20">
  <path id="Vector" d="M10,1l.707.707A1,1,0,0,0,10,0ZM8.136,5.5h0ZM14.5,11.864v0ZM19,10h1a1,1,0,0,0-1.707-.707ZM9.293.293A7.364,7.364,0,0,0,7.136,5.5h2a5.364,5.364,0,0,1,1.571-3.793ZM7.136,5.5a7.364,7.364,0,0,0,2.157,5.207l1.414-1.414A5.364,5.364,0,0,1,9.136,5.5Zm2.157,5.207A7.364,7.364,0,0,0,14.5,12.864v-2a5.364,5.364,0,0,1-3.793-1.571ZM14.5,12.864a7.364,7.364,0,0,0,5.207-2.157L18.293,9.293A5.364,5.364,0,0,1,14.5,10.864ZM18,10a8,8,0,0,1-1.348,4.445l1.663,1.111A10,10,0,0,0,20,10Zm-1.348,4.445a8,8,0,0,1-3.59,2.946l.765,1.848a10,10,0,0,0,4.488-3.683Zm-3.59,2.946a8,8,0,0,1-4.622.455l-.39,1.962a10,10,0,0,0,5.778-.569Zm-4.622.455a8,8,0,0,1-4.1-2.189L2.929,17.071a10,10,0,0,0,5.12,2.737Zm-4.1-2.189a8,8,0,0,1-2.189-4.1l-1.962.39a10,10,0,0,0,2.737,5.12Zm-2.189-4.1a8,8,0,0,1,.455-4.622L.761,6.173a10,10,0,0,0-.569,5.778Zm.455-4.622a8,8,0,0,1,2.946-3.59L4.444,1.685A10,10,0,0,0,.761,6.173Zm2.946-3.59A8,8,0,0,1,10,2V0A10,10,0,0,0,4.444,1.685Z" transform="translate(0 0)" fill="#09090b"/>
</svg>
