<svg id="mouse-off" xmlns="http://www.w3.org/2000/svg" width="22" height="22.004" viewBox="0 0 22 22.004">
  <path id="Vector" d="M12,5a1,1,0,0,0-2,0Zm-2,.343a1,1,0,1,0,2,0Zm8.106,12.334a1,1,0,0,0-1.777-.918ZM4,14H4ZM4,8H4ZM5.67,5.243a1,1,0,1,0-1.777-.919ZM17,12.345a1,1,0,1,0,2,0ZM18,8h0ZM7.069,1.033a1,1,0,1,0,.983,1.742ZM20.293,21.709a1,1,0,1,0,1.414-1.414ZM1.707.294A1,1,0,0,0,.293,1.709ZM10,5v.343h2V5ZM16.33,16.76a6,6,0,0,1-2.843,2.7l.829,1.82a8,8,0,0,0,3.79-3.606Zm-2.843,2.7a6,6,0,0,1-3.906.369l-.473,1.943a8,8,0,0,0,5.208-.493Zm-3.906.369a6,6,0,0,1-3.3-2.124L4.709,18.946a8,8,0,0,0,4.4,2.832Zm-3.3-2.124A6,6,0,0,1,5,14H3a8,8,0,0,0,1.709,4.945ZM5,14V8H3v6ZM5,8a6,6,0,0,1,.67-2.758L3.894,4.324A8,8,0,0,0,3,8Zm14,4.344V8H17v4.343ZM19,8a8,8,0,0,0-1.061-3.984l-1.735,1A6,6,0,0,1,17,8ZM17.939,4.018a8,8,0,0,0-2.9-2.926L14.026,2.819A6,6,0,0,1,16.2,5.014Zm-2.9-2.926A8,8,0,0,0,11.06,0l-.015,2a6,6,0,0,1,2.981.819ZM11.06,0A8,8,0,0,0,7.069,1.033l.983,1.742A6,6,0,0,1,11.045,2ZM21.707,20.294l-20-20L.293,1.709l20,20Z" transform="translate(0 0)" fill="#09090b"/>
</svg>
