<svg id="mouse-pointer-ban" xmlns="http://www.w3.org/2000/svg" width="22" height="22" viewBox="0 0 22 22">
  <path id="Vector" d="M1,1,1.342.06A1,1,0,0,0,.06,1.342ZM5,12l-.94.342a1,1,0,0,0,1.868.03ZM7,7l-.371-.928a1,1,0,0,0-.557.557Zm5-2,.371.928a1,1,0,0,0-.03-1.868Zm-.493,5.093a1,1,0,0,0-1.414,1.414Zm6.986,9.814a1,1,0,0,0,1.414-1.414ZM.06,1.342l4,11,1.88-.683-4-11Zm5.868,11.03,2-5L6.072,6.629l-2,5ZM7.371,7.929l5-2-.743-1.857-5,2Zm4.97-3.868-11-4L.658,1.94l11,4ZM20,15a5,5,0,0,1-5,5v2a7,7,0,0,0,7-7Zm-5,5a5,5,0,0,1-5-5H8a7,7,0,0,0,7,7Zm-5-5a5,5,0,0,1,5-5V8a7,7,0,0,0-7,7Zm5-5a5,5,0,0,1,5,5h2a7,7,0,0,0-7-7Zm-4.907,1.507,8.4,8.4,1.414-1.414-8.4-8.4Z" transform="translate(0 0)" fill="#09090b"/>
</svg>
