<svg id="move-3d" xmlns="http://www.w3.org/2000/svg" width="21" height="21" viewBox="0 0 21 21">
  <path id="Vector" d="M4,1,4.707.293a1,1,0,0,0-1.414,0ZM4,17H3a1,1,0,0,0,1,1Zm16,0,.707.707a1,1,0,0,0,0-1.414Zm-9.293-5.293a1,1,0,1,0-1.414-1.414ZM.293,3.293A1,1,0,0,0,1.707,4.707Zm6,1.414A1,1,0,0,0,7.707,3.293Zm11.414,8.586a1,1,0,0,0-1.414,1.414Zm-1.414,6a1,1,0,0,0,1.414,1.414ZM3,1V17H5V1ZM4,18H20V16H4Zm.707-.293,6-6L9.293,10.293l-6,6Zm-3-13,3-3L3.293.293l-3,3Zm1.586-3,3,3L7.707,3.293l-3-3Zm13,13,3,3,1.414-1.414-3-3Zm3,1.586-3,3,1.414,1.414,3-3Z" fill="#09090b"/>
</svg>
