<svg id="move" xmlns="http://www.w3.org/2000/svg" width="22" height="22" viewBox="0 0 22 22">
  <path id="Vector" d="M4.707,8.707A1,1,0,0,0,3.293,7.293ZM1,11l-.707-.707a1,1,0,0,0,0,1.414Zm2.293,3.707a1,1,0,0,0,1.414-1.414Zm4-11.414A1,1,0,0,0,8.707,4.707ZM11,1l.707-.707a1,1,0,0,0-1.414,0Zm2.293,3.707a1,1,0,0,0,1.414-1.414Zm1.414,14a1,1,0,0,0-1.414-1.414ZM11,21l-.707.707a1,1,0,0,0,1.414,0ZM8.707,17.293a1,1,0,0,0-1.414,1.414Zm10-10a1,1,0,0,0-1.414,1.414ZM21,11l.707.707a1,1,0,0,0,0-1.414Zm-3.707,2.293a1,1,0,0,0,1.414,1.414Zm-14-6-3,3,1.414,1.414,3-3Zm-3,4.414,3,3,1.414-1.414-3-3Zm8.414-7,3-3L10.293.293l-3,3Zm1.586-3,3,3,1.414-1.414-3-3Zm3,15.586-3,3,1.414,1.414,3-3Zm-1.586,3-3-3L7.293,18.707l3,3ZM17.293,8.707l3,3,1.414-1.414-3-3Zm3,1.586-3,3,1.414,1.414,3-3ZM1,12H21V10H1ZM10,1V21h2V1Z" fill="#09090b"/>
</svg>
