<svg id="music" xmlns="http://www.w3.org/2000/svg" width="20" height="20" viewBox="0 0 20 20">
  <path id="Vector" d="M7,3l-.164-.986A1,1,0,0,0,6,3ZM19,1h1A1,1,0,0,0,18.836.014ZM8,16V3H6V16ZM7.164,3.986l12-2L18.836.014l-12,2ZM18,1V14h2V1ZM6,16a2,2,0,0,1-2,2v2a4,4,0,0,0,4-4ZM4,18a2,2,0,0,1-2-2H0a4,4,0,0,0,4,4ZM2,16a2,2,0,0,1,2-2V12a4,4,0,0,0-4,4Zm2-2a2,2,0,0,1,2,2H8a4,4,0,0,0-4-4Zm14,0a2,2,0,0,1-2,2v2a4,4,0,0,0,4-4Zm-2,2a2,2,0,0,1-2-2H12a4,4,0,0,0,4,4Zm-2-2a2,2,0,0,1,2-2V10a4,4,0,0,0-4,4Zm2-2a2,2,0,0,1,2,2h2a4,4,0,0,0-4-4Z" transform="translate(0 0)" fill="#09090b"/>
</svg>
