<svg id="navigation-off" xmlns="http://www.w3.org/2000/svg" width="22" height="22" viewBox="0 0 22 22">
  <path id="Vector" d="M7.858,8.334A1,1,0,0,0,7,6.526ZM2,10l-.428-.9a1,1,0,0,0,.185,1.874Zm8,2,.97-.243a1,1,0,0,0-.728-.728Zm2,8-.97.243a1,1,0,0,0,1.874.185Zm3.474-5a1,1,0,0,0-1.808-.856Zm.012-4.7a1,1,0,0,0,1.807.856ZM21,1l.9.428A1,1,0,0,0,20.572.1ZM10.842,4.706A1,1,0,1,0,11.7,6.514ZM1.707.293A1,1,0,0,0,.293,1.707ZM20.293,21.707a1,1,0,1,0,1.414-1.414ZM7,6.526,1.572,9.1,2.428,10.9l5.43-2.57ZM1.757,10.97l8,2,.485-1.94-8-2ZM9.03,12.243l2,8,1.94-.485-2-8ZM12.9,20.428,15.474,15l-1.808-.856-2.57,5.43Zm4.39-9.27,4.61-9.73L20.1.572l-4.61,9.73ZM20.572.1l-9.73,4.61L11.7,6.514l9.73-4.61ZM.293,1.707l20,20,1.414-1.414-20-20Z" transform="translate(0 0)" fill="#09090b"/>
</svg>
