<svg id="network" xmlns="http://www.w3.org/2000/svg" width="22" height="22" viewBox="0 0 22 22">
  <path id="Vector" d="M3,15a1,1,0,0,0,2,0Zm14,0a1,1,0,0,0,2,0Zm-7-4a1,1,0,0,0,2,0Zm2-4a1,1,0,0,0-2,0Zm4,9h4V14H16Zm4,0h2a2,2,0,0,0-2-2Zm0,0v4h2V16Zm0,4v2a2,2,0,0,0,2-2Zm0,0H16v2h4Zm-4,0H14a2,2,0,0,0,2,2Zm0,0V16H14v4Zm0-4V14a2,2,0,0,0-2,2ZM2,16H6V14H2Zm4,0H8a2,2,0,0,0-2-2Zm0,0v4H8V16Zm0,4v2a2,2,0,0,0,2-2Zm0,0H2v2H6ZM2,20H0a2,2,0,0,0,2,2Zm0,0V16H0v4Zm0-4V14a2,2,0,0,0-2,2ZM9,2h4V0H9Zm4,0h2a2,2,0,0,0-2-2Zm0,0V6h2V2Zm0,4V8a2,2,0,0,0,2-2Zm0,0H9V8h4ZM9,6H7A2,2,0,0,0,9,8ZM9,6V2H7V6ZM9,2V0A2,2,0,0,0,7,2ZM5,15V12H3v3Zm0-3H5L3.586,10.586A2,2,0,0,0,3,12Zm0,0H5V10a2,2,0,0,0-1.414.586Zm0,0H17V10H5Zm12,0h0l1.414-1.414A2,2,0,0,0,17,10Zm0,0h2a2,2,0,0,0-.586-1.414Zm0,0v3h2V12Zm-5-1V7H10v4Z" fill="#09090b"/>
</svg>
