<svg id="nfc" xmlns="http://www.w3.org/2000/svg" width="15.025" height="22" viewBox="0 0 15.025 22">
  <path id="Vector" d="M1.869,6.825a1,1,0,0,0-1.737.991ZM1.976,11h0ZM.131,14.185a1,1,0,0,0,1.737.991Zm5.2-9.467A1,1,0,0,0,3.59,5.7ZM5.984,11h0ZM3.59,16.3a1,1,0,1,0,1.741.985ZM8.778,2.6A1,1,0,1,0,7.043,3.6ZM7.052,18.4a1,1,0,0,0,1.737.992ZM12.239.5A1,1,0,0,0,10.5,1.5ZM14.025,11h0ZM10.5,20.5a1,1,0,1,0,1.737.992ZM.131,7.816A6.43,6.43,0,0,1,.976,11h2A8.43,8.43,0,0,0,1.869,6.825ZM.976,11a6.43,6.43,0,0,1-.844,3.185l1.737.991A8.43,8.43,0,0,0,2.976,11ZM3.59,5.7A10.76,10.76,0,0,1,4.984,11h2A12.76,12.76,0,0,0,5.331,4.718ZM4.984,11A10.76,10.76,0,0,1,3.59,16.3l1.741.985A12.76,12.76,0,0,0,6.984,11ZM7.043,3.6A14.91,14.91,0,0,1,9.015,11h2A16.91,16.91,0,0,0,8.778,2.6ZM9.015,11a14.91,14.91,0,0,1-1.963,7.4l1.737.992A16.911,16.911,0,0,0,11.015,11ZM10.5,1.5A19.16,19.16,0,0,1,13.025,11h2A21.16,21.16,0,0,0,12.239.5ZM13.025,11A19.16,19.16,0,0,1,10.5,20.5l1.737.992A21.16,21.16,0,0,0,15.025,11Z" transform="translate(0 0)" fill="#09090b"/>
</svg>
