<svg id="notebook-text" xmlns="http://www.w3.org/2000/svg" width="20" height="22" viewBox="0 0 20 22">
  <path id="Vector" d="M1,4A1,1,0,0,0,1,6ZM5,6A1,1,0,0,0,5,4ZM1,8a1,1,0,0,0,0,2Zm4,2A1,1,0,0,0,5,8ZM1,12a1,1,0,0,0,0,2Zm4,2a1,1,0,0,0,0-2ZM1,16a1,1,0,0,0,0,2Zm4,2a1,1,0,0,0,0-2ZM8.5,6a1,1,0,0,0,0,2Zm5,2a1,1,0,0,0,0-2Zm-5,2a1,1,0,0,0,0,2ZM15,12a1,1,0,0,0,0-2ZM8.5,14a1,1,0,0,0,0,2ZM13,16a1,1,0,0,0,0-2ZM1,6H5V4H1Zm0,4H5V8H1Zm0,4H5V12H1Zm0,4H5V16H1ZM5,2H17V0H5ZM17,2a1,1,0,0,1,1,1h2a3,3,0,0,0-3-3Zm1,1V19h2V3Zm0,16a1,1,0,0,1-1,1v2a3,3,0,0,0,3-3Zm-1,1H5v2H17ZM5,20a1,1,0,0,1-1-1H2a3,3,0,0,0,3,3ZM4,19V3H2V19ZM4,3A1,1,0,0,1,5,2V0A3,3,0,0,0,2,3ZM8.5,8h5V6h-5Zm0,4H15V10H8.5Zm0,4H13V14H8.5Z" fill="#09090b"/>
</svg>
