<svg id="nut-off" xmlns="http://www.w3.org/2000/svg" width="22" height="22" viewBox="0 0 22 22">
  <path id="Vector" d="M12,1a1,1,0,0,0-2,0ZM4,9l.862-.506a1,1,0,0,0-1.431-.317Zm0,4H4Zm5.277,6.787-.247.969h0ZM11,21l-.707.707a1,1,0,0,0,1.414,0Zm1.723-1.213.245.97h0Zm4.96-2.389a1,1,0,1,0-1.671-1.1ZM18,9l.664-.748a1,1,0,0,0-1.62.453Zm-1,3.343a1,1,0,1,0,2,0Zm-6.391-.423a1,1,0,0,0,.782-1.841ZM8.5,9l.858-.513a1,1,0,0,0-1.714,0ZM6,11l-.535.845a1,1,0,0,0,.942.068ZM1,10,.3,9.282A1,1,0,0,0,1.063,11ZM3,7l.97.243h0ZM5.36,5.612A1,1,0,0,0,4.22,3.968ZM15.986,9.9a1,1,0,0,0,.916,1.778ZM21,10l.118.993a1,1,0,0,0,.506-1.774ZM19,7l.97-.242h0ZM8.673,2.208a1,1,0,1,0,.354,1.968ZM1.707.293A1,1,0,0,0,.293,1.707ZM20.293,21.707a1,1,0,1,0,1.414-1.414ZM12,3V1H10V3ZM3,9v4H5V9Zm0,4a8,8,0,0,0,1.685,4.912l1.579-1.228A6,6,0,0,1,5,13Zm1.685,4.912A8,8,0,0,0,9.03,20.756l.493-1.938a6,6,0,0,1-3.259-2.133Zm4.347,2.844a1.363,1.363,0,0,1,.64.33l1.414-1.414a3.35,3.35,0,0,0-1.564-.854Zm.64.33.621.621,1.414-1.414-.621-.621Zm2.035.621.621-.621-1.414-1.414-.621.621Zm.621-.621a1.364,1.364,0,0,1,.64-.33l-.49-1.939a3.35,3.35,0,0,0-1.564.854Zm.642-.33A8.01,8.01,0,0,0,17.683,17.4l-1.671-1.1a6.01,6.01,0,0,1-3.537,2.52ZM17,9v3.343h2V9Zm-5.609,1.08a5.543,5.543,0,0,1-1.3-.7,3.06,3.06,0,0,1-.732-.889L7.642,9.513a5.035,5.035,0,0,0,1.2,1.427,7.444,7.444,0,0,0,1.764.98Zm-3.746-1.6a3,3,0,0,1-.687.839,6.01,6.01,0,0,1-1.364.766l.814,1.827A7.9,7.9,0,0,0,8.222,10.87,4.973,4.973,0,0,0,9.356,9.518Zm-1.11,1.673A5.7,5.7,0,0,1,5.527,9.4a4.231,4.231,0,0,1-.665-.9L3.138,9.506a6.2,6.2,0,0,0,.977,1.305,7.63,7.63,0,0,0,1.351,1.034Zm-3.1-1.978a4.4,4.4,0,0,1-1.139.609A5.3,5.3,0,0,1,.938,9l.125,2a7.237,7.237,0,0,0,1.857-.313,6.359,6.359,0,0,0,1.649-.862ZM1.7,10.718A7.634,7.634,0,0,0,3.97,7.243L2.03,6.757A5.724,5.724,0,0,1,.3,9.282ZM3.97,7.243A3.22,3.22,0,0,1,5.36,5.612L4.22,3.968A5.132,5.132,0,0,0,2.03,6.757ZM16.9,11.676a4.271,4.271,0,0,0,1.3-.958,3.761,3.761,0,0,0,.753-1.423l-1.911-.589A1.793,1.793,0,0,1,16.7,9.4a2.329,2.329,0,0,1-.714.5Zm.434-1.928a5.111,5.111,0,0,0,1.735,1.1,4.518,4.518,0,0,0,2.047.144l-.237-1.986a2.575,2.575,0,0,1-1.167-.051,3.2,3.2,0,0,1-1.051-.7Zm4.288-.529A4.23,4.23,0,0,1,19.97,6.758l-1.941.484a6.218,6.218,0,0,0,2.346,3.539ZM19.97,6.757a5.884,5.884,0,0,0-3.195-3.394A12.689,12.689,0,0,0,11,2V4a10.692,10.692,0,0,1,4.85,1.137,4.023,4.023,0,0,1,2.18,2.106ZM11,2a13.152,13.152,0,0,0-2.327.208l.354,1.968A11.151,11.151,0,0,1,11,4ZM.293,1.707l20,20,1.414-1.414-20-20Z" transform="translate(0)" fill="#09090b"/>
</svg>
