<svg id="nut" xmlns="http://www.w3.org/2000/svg" width="22" height="22" viewBox="0 0 22 22">
  <path id="Vector" d="M12,1a1,1,0,0,0-2,0ZM4,9l.862-.506a1,1,0,0,0-1.431-.317Zm0,4H4Zm5.277,6.787-.247.969h0ZM11,21l-.707.707a1,1,0,0,0,1.414,0Zm1.723-1.213.245.97h0ZM18,13h0Zm0-4,.664-.748a1,1,0,0,0-1.619.452ZM3,7l.97.243h0ZM1,10,.3,9.282A1,1,0,0,0,1.063,11Zm5,1-.535.845a1,1,0,0,0,.942.068ZM8.5,9l.858-.513a1,1,0,0,0-1.714,0ZM11,11l-.391.92a1,1,0,0,0,.819-.017Zm2.5-2,.841-.541a1,1,0,0,0-1.669-.019ZM16,11l-.4.918a1,1,0,0,0,.809-.007Zm5-1,.118.993a1,1,0,0,0,.506-1.774ZM19,7l.97-.242h0ZM12,3V1H10V3ZM3,9v4H5V9Zm0,4a8,8,0,0,0,1.685,4.912l1.579-1.228A6,6,0,0,1,5,13Zm1.685,4.912A8,8,0,0,0,9.03,20.756l.493-1.938a6,6,0,0,1-3.259-2.133Zm4.347,2.844a1.363,1.363,0,0,1,.64.33l1.414-1.414a3.35,3.35,0,0,0-1.564-.854Zm.64.33.621.621,1.414-1.414-.621-.621Zm2.035.621.621-.621-1.414-1.414-.621.621Zm.621-.621a1.364,1.364,0,0,1,.64-.33l-.49-1.939a3.35,3.35,0,0,0-1.564.854Zm.641-.33a8,8,0,0,0,4.345-2.844l-1.579-1.228a6,6,0,0,1-3.26,2.133Zm4.345-2.844A8,8,0,0,0,19,13H17a6,6,0,0,1-1.264,3.685ZM19,13V9H17v4ZM11,2A12.689,12.689,0,0,0,5.225,3.363a5.884,5.884,0,0,0-3.2,3.394l1.94.485A4.023,4.023,0,0,1,6.15,5.137,10.692,10.692,0,0,1,11,4ZM2.03,6.757A5.724,5.724,0,0,1,.3,9.282L1.7,10.718A7.634,7.634,0,0,0,3.97,7.243ZM1.063,11a7.237,7.237,0,0,0,1.857-.313,6.359,6.359,0,0,0,1.649-.862L3.432,8.177a4.4,4.4,0,0,1-1.139.609A5.3,5.3,0,0,1,.938,9ZM3.138,9.506a6.2,6.2,0,0,0,.977,1.305,7.63,7.63,0,0,0,1.351,1.034l1.069-1.69A5.7,5.7,0,0,1,5.527,9.4a4.231,4.231,0,0,1-.665-.9Zm3.269,2.407A7.9,7.9,0,0,0,8.222,10.87,4.973,4.973,0,0,0,9.356,9.518L7.645,8.482a3,3,0,0,1-.687.839,6.01,6.01,0,0,1-1.364.766Zm1.235-2.4a5.035,5.035,0,0,0,1.2,1.427,7.444,7.444,0,0,0,1.764.98l.782-1.841a5.543,5.543,0,0,1-1.3-.7,3.06,3.06,0,0,1-.732-.889Zm3.787,2.39a8.492,8.492,0,0,0,1.7-1,5.783,5.783,0,0,0,1.2-1.341L12.672,8.439a3.8,3.8,0,0,1-.794.9,6.58,6.58,0,0,1-1.306.757Zm1.231-2.362a5.553,5.553,0,0,0,1.2,1.387,7.346,7.346,0,0,0,1.748.99l.792-1.837a5.426,5.426,0,0,1-1.284-.71,3.59,3.59,0,0,1-.771-.913Zm3.754,2.369a5.488,5.488,0,0,0,1.62-1.014,3.637,3.637,0,0,0,.922-1.6L17.045,8.7a1.667,1.667,0,0,1-.411.763,3.623,3.623,0,0,1-1.047.622Zm.923-2.163a5.111,5.111,0,0,0,1.735,1.1,4.518,4.518,0,0,0,2.047.144l-.237-1.986a2.575,2.575,0,0,1-1.167-.051,3.2,3.2,0,0,1-1.051-.7Zm4.288-.529A4.23,4.23,0,0,1,19.97,6.758l-1.941.484a6.218,6.218,0,0,0,2.346,3.539ZM19.97,6.757a5.884,5.884,0,0,0-3.195-3.394A12.689,12.689,0,0,0,11,2V4a10.692,10.692,0,0,1,4.85,1.137,4.023,4.023,0,0,1,2.18,2.106Z" transform="translate(0)" fill="#09090b"/>
</svg>
