<svg id="octagon-pause" xmlns="http://www.w3.org/2000/svg" width="22" height="22" viewBox="0 0 22 22">
  <path id="Vector" d="M8,14a1,1,0,0,0,2,0Zm2-6A1,1,0,0,0,8,8Zm2,6a1,1,0,0,0,2,0Zm2-6a1,1,0,0,0-2,0ZM6.714,1V0a1,1,0,0,0-.707.293Zm8.572,0,.707-.707A1,1,0,0,0,15.286,0ZM21,6.714h1a1,1,0,0,0-.293-.707Zm0,8.572.707.707A1,1,0,0,0,22,15.286ZM15.286,21v1a1,1,0,0,0,.707-.293ZM6.714,21l-.707.707A1,1,0,0,0,6.714,22ZM1,15.286H0a1,1,0,0,0,.293.707ZM1,6.714.293,6.007A1,1,0,0,0,0,6.714ZM10,14V8H8v6Zm4,0V8H12v6ZM6.714,2h8.572V0H6.714Zm7.865-.293,5.714,5.714,1.414-1.414L15.993.293ZM20,6.714v8.572h2V6.714Zm.293,7.865-5.714,5.714,1.414,1.414,5.714-5.714ZM15.286,20H6.714v2h8.572Zm-7.865.293L1.707,14.579.293,15.993l5.714,5.714ZM2,15.286V6.714H0v8.572ZM1.707,7.421,7.421,1.707,6.007.293.293,6.007Z" fill="#09090b"/>
</svg>
