<svg id="octagon" xmlns="http://www.w3.org/2000/svg" width="22" height="22" viewBox="0 0 22 22">
  <path id="Vector" d="M6.86,1V0a1,1,0,0,0-.707.293Zm8.28,0,.707-.707A1,1,0,0,0,15.14,0ZM21,6.86h1a1,1,0,0,0-.293-.707Zm0,8.28.707.707A1,1,0,0,0,22,15.14ZM15.14,21v1a1,1,0,0,0,.707-.293ZM6.86,21l-.707.707A1,1,0,0,0,6.86,22ZM1,15.14H0a1,1,0,0,0,.293.707ZM1,6.86.293,6.153A1,1,0,0,0,0,6.86ZM6.86,2h8.28V0H6.86Zm7.573-.293,5.86,5.86,1.414-1.414L15.847.293ZM20,6.86v8.28h2V6.86Zm.293,7.573-5.86,5.86,1.414,1.414,5.86-5.86ZM15.14,20H6.86v2h8.28Zm-7.573.293-5.86-5.86L.293,15.847l5.86,5.86ZM2,15.14V6.86H0v8.28ZM1.707,7.567l5.86-5.86L6.153.293.293,6.153Z" fill="#09090b"/>
</svg>
