<svg id="origami" xmlns="http://www.w3.org/2000/svg" width="19.882" height="20" viewBox="0 0 19.882 20">
  <path id="Vector" d="M9.125,10a1,1,0,0,0,2,0Zm2-9V1Zm6.3,0V0h0Zm.651,1.759.651.759h0ZM12.727,6.025a1,1,0,1,0,1.3,1.519ZM9.418,19.707a1,1,0,0,0,1.414-1.414ZM2.711,11.586l.707-.707h0Zm-.586-1.414h0Zm0-5.757-1-.005v.005Zm1.707-.707L4.54,3l0,0ZM17.418,18.716A1,1,0,1,0,18.833,17.3ZM11.211.891a1,1,0,0,0-1.743.98Zm7.542,15.456.872-.49h0Zm-.167,1.2-.7-.709h0Zm-1.168,1.163.705.709h0ZM16.712,19V18h0ZM4.477,19V18h0Zm-.625-.219-.625.781h0ZM1.375,16.8,2,16.019H2Zm.631-1.781-.007,1H2Zm4.159,1.027a1,1,0,0,0,.013-2ZM11.125,10V2h-2v8Zm0-8h0L9.711.586A2,2,0,0,0,9.125,2Zm0,0h0V0A2,2,0,0,0,9.711.586Zm0,0h6.3V0h-6.3Zm6.3,0h0L18.565.359A2,2,0,0,0,17.423,0Zm0,0h0L19.3,1.306a2,2,0,0,0-.733-.947Zm0,0h0l1.936.5a2,2,0,0,0-.06-1.2Zm0,0h0l1.3,1.518A2,2,0,0,0,19.358,2.5Zm0,0-4.7,4.025,1.3,1.519,4.7-4.025Zm-6.59,16.293L3.419,10.879,2,12.293l7.414,7.414ZM3.418,10.879a1,1,0,0,1-.293-.707h-2A3,3,0,0,0,2,12.293Zm-.293-.707V4.415h-2v5.757Zm0-5.752h0L1.466,3.3a2,2,0,0,0-.34,1.106Zm0,0h0L2.361,2.57a2,2,0,0,0-.9.733Zm0,0h0l.385-1.963a2,2,0,0,0-1.152.115Zm0,0h0L4.536,3a2,2,0,0,0-1.023-.542Zm0,0,14.293,14.3L18.833,17.3,4.54,3ZM9.468,1.871l8.414,14.966,1.743-.98L11.211.891Zm8.414,14.966h0l1.981.276a2,2,0,0,0-.237-1.255Zm0,0h0l1.41,1.419a2,2,0,0,0,.571-1.143Zm0,0L16.713,18l1.411,1.417,1.168-1.163ZM16.713,18h0l0,2a2,2,0,0,0,1.412-.582Zm0,0H4.476v2H16.712ZM4.476,18h0L3.227,19.562A2,2,0,0,0,4.477,20Zm0,0L2,16.019.751,17.581l2.476,1.981ZM2,16.019H2l-1.923.549a2,2,0,0,0,.674,1.013Zm0,0H2L.115,15.351a2,2,0,0,0-.038,1.217Zm0,0H2L.851,14.382a2,2,0,0,0-.736.969Zm0,0H2l.013-2a2,2,0,0,0-1.162.363Zm0,0,4.165.027.013-2-4.165-.027Z" transform="translate(0 0)" fill="#09090b"/>
</svg>
