<svg id="paintbrush" xmlns="http://www.w3.org/2000/svg" width="21.999" height="21.964" viewBox="0 0 21.999 21.964">
  <path id="Vector" d="M13.358,17.861a1,1,0,1,0,.526-1.929ZM3.2,13.019a1,1,0,1,0-.526,1.93Zm14.171-11.4.707.707h0ZM18.876,1V1Zm1.5,3.624-.707-.707h0ZM16.359,8.643l-.707-.707h0Zm0,.707-.707.707h0Zm.944.944.707-.707h0Zm0,3.408.707.707h0Zm-.944.944.707.707h0Zm-.707,0-.707.707h0Zm-8.3-8.3-.707.707h0Zm0-.707-.707-.707h0ZM8.3,4.7,7.59,3.99h0Zm3.408,0,.707-.707h0Zm.944.944-.707.707h0ZM13,5.787v0Zm.353-.146.707.707h0ZM8.831,7.554A1,1,0,1,0,7.167,6.446ZM1.416,10.948l.18.984h0Zm-.3.819L.339,12.4l0,0Zm7.32,8.883-.772.636q.021.026.044.05Zm1.185.2.457.889a1.009,1.009,0,0,0,.108-.065ZM16,14a1,1,0,0,0-2,0Zm-2.115,1.932L3.2,13.019l-.526,1.929,10.68,2.913Zm4.2-13.6a1.124,1.124,0,0,1,.364-.243L17.681.238a3.124,3.124,0,0,0-1.013.677Zm.364-.243A1.123,1.123,0,0,1,18.876,2V0a3.123,3.123,0,0,0-1.195.238ZM18.876,2a1.123,1.123,0,0,1,.43.085L20.071.238A3.123,3.123,0,0,0,18.876,0Zm.43.085a1.122,1.122,0,0,1,.364.243L21.084.915A3.122,3.122,0,0,0,20.071.238Zm.364.243a1.122,1.122,0,0,1,.243.364l1.848-.765A3.124,3.124,0,0,0,21.084.915Zm.243.364a1.123,1.123,0,0,1,.086.43h2a3.123,3.123,0,0,0-.238-1.2Zm.085.43a1.123,1.123,0,0,1-.086.43l1.848.765A3.123,3.123,0,0,0,22,3.123Zm-.085.43a1.122,1.122,0,0,1-.243.364l1.414,1.414a3.124,3.124,0,0,0,.677-1.013Zm-.243.364L15.652,7.936,17.066,9.35l4.018-4.019ZM15.652,7.936A1.5,1.5,0,0,0,15.212,9h2a.5.5,0,0,1-.146.354ZM15.212,9a1.5,1.5,0,0,0,.439,1.061l1.415-1.414A.5.5,0,0,1,17.212,9Zm.439,1.061L16.6,11,18.01,9.587l-.944-.944ZM16.6,11a1.41,1.41,0,0,1,.413,1h2a3.41,3.41,0,0,0-1-2.411Zm.413,1a1.41,1.41,0,0,1-.413,1l1.414,1.414a3.41,3.41,0,0,0,1-2.411Zm-.413,1-.944.944,1.414,1.414.944-.944Zm-.944.944a.5.5,0,0,1,.353-.146v2a1.5,1.5,0,0,0,1.06-.439Zm.353-.146a.5.5,0,0,1,.354.146l-1.414,1.414a1.5,1.5,0,0,0,1.06.439Zm.354.146-8.3-8.3L6.646,7.055l8.3,8.3Zm-8.3-8.3a.5.5,0,0,1,.146.354h-2a1.5,1.5,0,0,0,.439,1.06Zm.146.354a.5.5,0,0,1-.146.353L6.646,4.934a1.5,1.5,0,0,0-.439,1.061Zm-.146.354L9,5.4,7.59,3.99l-.944.944ZM9,5.4a1.41,1.41,0,0,1,1-.413v-2a3.41,3.41,0,0,0-2.411,1Zm1-.413A1.41,1.41,0,0,1,11,5.4L12.412,3.99a3.41,3.41,0,0,0-2.411-1ZM11,5.4l.944.944,1.414-1.414-.944-.944Zm.944.944A1.5,1.5,0,0,0,13,6.787v-2a.5.5,0,0,1,.354.146ZM13,6.787a1.5,1.5,0,0,0,1.061-.439L12.649,4.934A.5.5,0,0,1,13,4.787Zm1.061-.439,4.019-4.019L16.668.915,12.649,4.934Zm-6.9.1a7.206,7.206,0,0,1-2.629,2.48A11.211,11.211,0,0,1,1.232,9.965L1.6,11.931a13.151,13.151,0,0,0,3.884-1.243A9.2,9.2,0,0,0,8.831,7.554ZM1.236,9.964a1.507,1.507,0,0,0-.7.329l1.287,1.531a.493.493,0,0,1-.229.108Zm-.7.329a1.507,1.507,0,0,0-.444.632l1.876.692a.493.493,0,0,1-.145.207Zm-.444.632a1.507,1.507,0,0,0-.073.769l1.973-.329a.493.493,0,0,1-.024.252Zm-.073.769a1.507,1.507,0,0,0,.318.7l1.551-1.263a.493.493,0,0,1,.1.23Zm.322.708,7.32,8.883,1.543-1.272-7.32-8.883Zm7.364,8.933a2,2,0,0,0,1.117.6l.339-1.971h0Zm1.117.6a2,2,0,0,0,1.253-.192l-.914-1.779h0Zm1.361-.257a19.767,19.767,0,0,0,3.689-3.486,14.116,14.116,0,0,0,1.458-2.085A4.577,4.577,0,0,0,16,14H14a2.768,2.768,0,0,1-.418,1.139,12.14,12.14,0,0,1-1.25,1.78,17.822,17.822,0,0,1-3.277,3.11Z" transform="translate(0 0)" fill="#09090b"/>
</svg>
