<svg id="panel-bottom-dashed" xmlns="http://www.w3.org/2000/svg" width="20" height="20" viewBox="0 0 20 20">
  <path id="Vector" d="M12,12a1,1,0,0,0,0,2Zm1,2a1,1,0,0,0,0-2Zm4-2a1,1,0,0,0,0,2Zm2,2a1,1,0,0,0,0-2ZM1,12a1,1,0,0,0,0,2Zm2,2a1,1,0,0,0,0-2Zm4-2a1,1,0,0,0,0,2Zm1,2a1,1,0,0,0,0-2ZM3,2H17V0H3ZM17,2a1,1,0,0,1,1,1h2a3,3,0,0,0-3-3Zm1,1V17h2V3Zm0,14a1,1,0,0,1-1,1v2a3,3,0,0,0,3-3Zm-1,1H3v2H17ZM3,18a1,1,0,0,1-1-1H0a3,3,0,0,0,3,3ZM2,17V3H0V17ZM2,3A1,1,0,0,1,3,2V0A3,3,0,0,0,0,3ZM12,14h1V12H12Zm5,0h2V12H17ZM1,14H3V12H1Zm6,0H8V12H7Z" fill="#09090b"/>
</svg>
