<svg id="panel-right-open" xmlns="http://www.w3.org/2000/svg" width="20" height="20" viewBox="0 0 20 20">
  <path id="Vector" d="M14,1a1,1,0,0,0-2,0ZM12,19a1,1,0,0,0,2,0ZM7.293,13.707a1,1,0,1,0,1.414-1.414ZM5,10l-.707-.707a1,1,0,0,0,0,1.414ZM8.707,7.707A1,1,0,0,0,7.293,6.293ZM3,2H17V0H3ZM17,2a1,1,0,0,1,1,1h2a3,3,0,0,0-3-3Zm1,1V17h2V3Zm0,14a1,1,0,0,1-1,1v2a3,3,0,0,0,3-3Zm-1,1H3v2H17ZM3,18a1,1,0,0,1-1-1H0a3,3,0,0,0,3,3ZM2,17V3H0V17ZM2,3A1,1,0,0,1,3,2V0A3,3,0,0,0,0,3ZM12,1V19h2V1ZM8.707,12.293l-3-3L4.293,10.707l3,3Zm-3-1.586,3-3L7.293,6.293l-3,3Z" fill="#09090b"/>
</svg>
