<svg id="parking-meter" xmlns="http://www.w3.org/2000/svg" width="16" height="22.032" viewBox="0 0 16 22.032">
  <path id="Vector" d="M4,8.032a1,1,0,0,0,2,0Zm4-3v0Zm2,3a1,1,0,0,0,2,0Zm-1,3a1,1,0,0,0-2,0Zm-2,3a1,1,0,0,0,2,0Zm0-1a1,1,0,0,0,0,2Zm2,2a1,1,0,0,0,0-2Zm6-7-1,0v0Zm-13.6,2.3.952-.307L2.343,10Zm2.6,7.7-.944.329A1,1,0,0,0,4,19.032Zm8,0v1a1,1,0,0,0,.944-.671Zm2.6-7.7-.936-.351q-.008.022-.015.044ZM9,18.032a1,1,0,0,0-2,0Zm-2,3a1,1,0,0,0,2,0Zm-1-13a2,2,0,0,1,.586-1.414L5.172,5.2A4,4,0,0,0,4,8.032Zm.586-1.414A2,2,0,0,1,8,6.032v-2A4,4,0,0,0,5.172,5.2ZM8,6.032a2,2,0,0,1,1.414.586L10.828,5.2A4,4,0,0,0,8,4.032Zm1.414.586A2,2,0,0,1,10,8.032h2A4,4,0,0,0,10.828,5.2ZM7,11.032v3H9v-3Zm0,4H9v-2H7Zm9-7a8,8,0,0,0-.732-3.38l-1.817.836A6,6,0,0,1,14,8.028Zm-.732-3.38A8,8,0,0,0,13.178,1.9L11.883,3.426a6,6,0,0,1,1.568,2.066ZM13.178,1.9A8,8,0,0,0,10.12.286L9.59,2.214a6,6,0,0,1,2.293,1.212ZM10.12.286A8,8,0,0,0,6.666.112L7,2.084a6,6,0,0,1,2.59.131ZM6.666.112a8,8,0,0,0-3.2,1.3L4.6,3.059A6,6,0,0,1,7,2.084Zm-3.2,1.3A8,8,0,0,0,1.1,3.943L2.829,4.957A6,6,0,0,1,4.6,3.059ZM1.1,3.943A8,8,0,0,0,.037,7.233l1.991.192a6,6,0,0,1,.8-2.467ZM.037,7.233a8,8,0,0,0,.42,3.433L2.343,10a6,6,0,0,1-.315-2.575Zm.411,3.407c.5,1.558,1.155,3.49,1.68,5.029.263.77.495,1.443.66,1.924l.2.565.053.152.014.039,0,.01v0h0L4,18.032l.944-.329h0v0l0-.01-.014-.039L4.874,17.5l-.195-.562c-.165-.479-.4-1.15-.658-1.917-.525-1.536-1.172-3.455-1.67-5ZM4,19.032h8v-2H4Zm8-1,.944.328h0v0l0-.01.014-.039.053-.152.2-.565c.166-.481.4-1.153.66-1.924.525-1.539,1.178-3.47,1.68-5.029l-1.9-.614c-.5,1.542-1.145,3.46-1.67,5-.262.767-.493,1.438-.658,1.917l-.194.562-.052.151-.014.039,0,.01v0h0l.944.329Zm3.536-7.349A7.2,7.2,0,0,0,16,8.032H14a5.2,5.2,0,0,1-.336,1.949ZM7,18.032v3H9v-3Z" transform="translate(0 0)" fill="#09090b"/>
</svg>
