<svg id="party-popper" xmlns="http://www.w3.org/2000/svg" width="22.01" height="22" viewBox="0 0 22.01 22">
  <path id="Vector" d="M5.742,10.635a1,1,0,1,0-1.885-.669ZM1,21l-.942-.335a1,1,0,0,0,1.276,1.277Zm11.034-2.847a1,1,0,0,0-.668-1.885ZM3,1A1,1,0,1,0,3,3Zm.01,2a1,1,0,0,0,0-2ZM21,6a1,1,0,0,0,0,2Zm.01,2a1,1,0,0,0,0-2ZM14,0a1,1,0,1,0,0,2Zm.01,2a1,1,0,0,0,0-2ZM21,18a1,1,0,0,0,0,2Zm.01,2a1,1,0,0,0,0-2Zm.307-18.052a1,1,0,1,0-.635-1.9Zm-2.557-.2.316.949h0ZM16.8,4.87l.993-.116V4.743ZM13.21,7.94l.981.194V8.127Zm-1.191.866a1,1,0,1,0,1.962.389Zm8.608,4.122a1,1,0,1,0,.747-1.855ZM20.18,11.67l.373-.928-.006,0ZM18.2,12.78l-.985-.173,0,.018ZM16,13a1,1,0,1,0,0,2ZM10.928.627a1,1,0,1,0-1.855.747Zm-.6,1.193.93-.368,0-.006ZM9.22,3.8l.141.99.032-.005ZM7,6A1,1,0,0,0,9,6ZM3.858,9.966l-3.8,10.7,1.885.669,3.8-10.7ZM1.334,21.943l10.7-3.79-.668-1.885-10.7,3.79ZM3,3h.01V1H3ZM21,8h.01V6H21ZM14,2h.01V0H14Zm7,18h.01V18H21ZM20.683.052,18.443.8l.635,1.9,2.24-.75ZM18.444.8a3.9,3.9,0,0,0-2.07,1.626l1.694,1.064A1.9,1.9,0,0,1,19.076,2.7Zm-2.07,1.626A3.9,3.9,0,0,0,15.808,5l1.984-.254a1.9,1.9,0,0,1,.276-1.252Zm-.567,2.559a.461.461,0,0,1-.457.515v2a2.461,2.461,0,0,0,2.443-2.746ZM15.35,5.5h-.38v2h.38Zm-.38,0a2.781,2.781,0,0,0-2.742,2.253l1.965.374A.782.782,0,0,1,14.97,7.5ZM12.229,7.746l-.21,1.06,1.962.389.21-1.06Zm9.144,3.327-.82-.33L19.807,12.6l.82.33Zm-.826-.332a2.467,2.467,0,0,0-3.333,1.867l1.97.346a.467.467,0,0,1,.627-.353Zm-3.336,1.885A.45.45,0,0,1,16.77,13v2a2.45,2.45,0,0,0,2.418-2.065ZM16.77,13H16v2h.77ZM9.072,1.374l.33.82,1.855-.747-.33-.82Zm.328.814a.467.467,0,0,1-.353.627l.346,1.97A2.467,2.467,0,0,0,11.26,1.453Zm-.321.622A2.443,2.443,0,0,0,7,5.23H9a.443.443,0,0,1,.361-.44ZM7,5.23V6H9V5.23Zm2.293,7.477a8.2,8.2,0,0,1,1.814,2.577,2.38,2.38,0,0,1,.2.85c0,.18-.048.191-.016.159l1.414,1.414a2.178,2.178,0,0,0,.6-1.561,4.325,4.325,0,0,0-.346-1.605,10.166,10.166,0,0,0-2.256-3.248Zm2,3.586c.032-.032.021.015-.159.016a2.38,2.38,0,0,1-.85-.2,8.2,8.2,0,0,1-2.577-1.814L6.293,15.707a10.165,10.165,0,0,0,3.248,2.256,4.325,4.325,0,0,0,1.605.346,2.178,2.178,0,0,0,1.561-.6Zm-3.586-2a8.2,8.2,0,0,1-1.814-2.577,2.379,2.379,0,0,1-.2-.85c0-.18.048-.191.016-.159L4.293,9.293a2.177,2.177,0,0,0-.6,1.561,4.324,4.324,0,0,0,.346,1.605,10.165,10.165,0,0,0,2.256,3.248Zm-2-3.586c-.032.032-.021-.015.159-.016a2.379,2.379,0,0,1,.85.2,8.2,8.2,0,0,1,2.577,1.814l1.414-1.414A10.166,10.166,0,0,0,7.459,9.037a4.325,4.325,0,0,0-1.605-.346,2.177,2.177,0,0,0-1.561.6Z" transform="translate(0 0)" fill="#09090b"/>
</svg>
