<svg id="pen-tool" xmlns="http://www.w3.org/2000/svg" width="21.586" height="21.586" viewBox="0 0 21.586 21.586">
  <path id="Vector" d="M14.707,20.293l.707.707h0Zm-1.414,0L12.586,21h0Zm-1.586-1.586L11,19.414h0Zm0-1.414L11,16.586h0Zm5.586-5.586L16.586,11h0Zm1.414,0L19.414,11h0Zm1.586,1.586L21,12.586h0Zm0,1.414.707.707h0ZM16.019,12.2a1,1,0,0,0,1.961-.392Zm-.394-7.07-.981.2h0Zm-.746-.776-.254.967.019,0ZM2.235,1.028,2.489.061l-.019,0ZM1.028,2.235.056,2.47l0,.019ZM4.35,14.879l.972-.235,0-.019Zm.776.746.2-.981h0ZM11.8,17.981a1,1,0,0,0,.392-1.961ZM2.007.593A1,1,0,0,0,.593,2.007Zm5.872,8.7A1,1,0,0,0,9.293,7.879ZM14,19.586h0v2A2,2,0,0,0,15.414,21Zm0,0h0L12.586,21A2,2,0,0,0,14,21.586Zm0,0L12.414,18,11,19.414,12.586,21ZM12.414,18h-2A2,2,0,0,0,11,19.414Zm0,0h0L11,16.586A2,2,0,0,0,10.414,18Zm0,0L18,12.414,16.586,11,11,16.586ZM18,12.414h0v-2A2,2,0,0,0,16.586,11Zm0,0h0L19.414,11A2,2,0,0,0,18,10.414Zm0,0L19.586,14,21,12.586,19.414,11ZM19.586,14h2A2,2,0,0,0,21,12.586Zm0,0h0L21,15.414A2,2,0,0,0,21.586,14Zm0,0L14,19.586,15.414,21,21,15.414Zm-1.605-2.2L16.606,4.93l-1.961.392L16.019,12.2ZM16.606,4.93a2,2,0,0,0-.519-.994L14.644,5.322h0Zm-.519-.994a2,2,0,0,0-.973-.558l-.469,1.944h0Zm-.953-.553L2.489.061,1.981,2,14.625,5.317ZM2.47.056A2,2,0,0,0,1.459.075L2,2H2ZM1.459.075A2,2,0,0,0,.586.586L2,2H2ZM.586.586a2,2,0,0,0-.511.873L2,2H2Zm-.511.873A2,2,0,0,0,.056,2.47L2,2H2ZM.061,2.489,3.383,15.133l1.934-.508L2,1.981ZM3.378,15.114a2,2,0,0,0,.558.973l1.386-1.442h0Zm.558.973a2,2,0,0,0,.994.519l.392-1.961h0Zm.994.519L11.8,17.981l.392-1.961L5.322,14.644ZM.593,2.007,7.879,9.293,9.293,7.879,2.007.593ZM11,10a1,1,0,0,1-1,1v2a3,3,0,0,0,3-3Zm-1,1a1,1,0,0,1-1-1H7a3,3,0,0,0,3,3ZM9,10a1,1,0,0,1,1-1V7a3,3,0,0,0-3,3Zm1-1a1,1,0,0,1,1,1h2a3,3,0,0,0-3-3Z" transform="translate(0 0)" fill="#09090b"/>
</svg>
