<svg id="pen-line" xmlns="http://www.w3.org/2000/svg" width="19.999" height="19" viewBox="0 0 19.999 19">
  <path id="Vector" d="M10,17a1,1,0,0,0,0,2Zm9,2a1,1,0,0,0,0-2ZM14.375,1.622,13.668.915h0ZM15.876,1V1Zm1.5,3.624-.707-.707h0ZM5.367,16.635l.707.707h0Zm-.855.506-.28-.96h0Zm-2.872.838.28.96h0Zm-.62-.62-.96-.28h0Zm.838-2.872-.96-.28h0Zm.506-.854.707.707h0ZM10,19h9V17H10ZM15.082,2.329A1.123,1.123,0,0,1,15.876,2V0a3.123,3.123,0,0,0-2.208.915ZM15.876,2a1.123,1.123,0,0,1,.794.329L18.084.915A3.123,3.123,0,0,0,15.876,0Zm.794.329A1.123,1.123,0,0,1,17,3.123h2A3.123,3.123,0,0,0,18.084.915ZM17,3.123a1.123,1.123,0,0,1-.329.794l1.414,1.414A3.123,3.123,0,0,0,19,3.123Zm-.329.794L4.66,15.928l1.414,1.414L18.084,5.331ZM4.66,15.928a1,1,0,0,1-.428.253l.559,1.92a3,3,0,0,0,1.282-.759Zm-.428.253-2.872.838.56,1.92L4.792,18.1Zm-2.872.838a.5.5,0,0,1,.264,0l-.5,1.937a1.5,1.5,0,0,0,.792-.013Zm.264,0a.5.5,0,0,1,.229.131L.439,18.559a1.5,1.5,0,0,0,.688.392Zm.229.131a.5.5,0,0,1,.131.229l-1.937.5a1.5,1.5,0,0,0,.392.688Zm.131.229a.5.5,0,0,1,0,.264l-1.92-.56a1.5,1.5,0,0,0-.013.792Zm0,.264.838-2.872L.9,14.207.06,17.079Zm.838-2.872a1,1,0,0,1,.253-.427L1.657,12.925A3,3,0,0,0,.9,14.206Zm.253-.427L15.082,2.329,13.668.915,1.657,12.926Z" transform="translate(0)" fill="#09090b"/>
</svg>
