<svg id="pen-off" xmlns="http://www.w3.org/2000/svg" width="22" height="22" viewBox="0 0 22 22">
  <path id="Vector" d="M9.708,9.707A1,1,0,0,0,8.293,8.293ZM2.843,15.162l.707.707h0Zm-.5.833L1.387,15.7h0Zm-1.322,4.36-.957-.29h0Zm.622.624.287.958h0ZM6,19.656l.29.957h0Zm.83-.5-.707-.707h0Zm6.876-5.467a1,1,0,1,0-1.415-1.414ZM11.123,5.464A1,1,0,0,0,12.536,6.88Zm5.065-3.638.706.708h0ZM18.182,1V1ZM21,3.819h0ZM15.115,9.458a1,1,0,0,0,1.414,1.414ZM1.708.293A1,1,0,1,0,.293,1.707ZM20.293,21.707a1,1,0,0,0,1.414-1.414Zm-12-13.414L2.136,14.455l1.415,1.414L9.708,9.707ZM2.137,14.455a3,3,0,0,0-.75,1.25l1.913.582a1,1,0,0,1,.25-.417Zm-.75,1.25L.065,20.065l1.914.58L3.3,16.285ZM.064,20.065a1.5,1.5,0,0,0-.02.8l1.94-.485a.5.5,0,0,1-.007.266Zm-.02.8a1.5,1.5,0,0,0,.393.7l1.416-1.412a.5.5,0,0,1,.131.232Zm.393.7a1.5,1.5,0,0,0,.694.4l.491-1.939a.5.5,0,0,1,.231.132Zm.694.4a1.5,1.5,0,0,0,.8-.017l-.574-1.916a.5.5,0,0,1,.266-.006Zm.8-.018,4.358-1.323L5.711,18.7,1.353,20.022Zm4.361-1.324a3,3,0,0,0,1.245-.75L6.123,18.45a1,1,0,0,1-.415.25Zm1.244-.749,6.169-6.174-1.415-1.414L6.124,18.449Zm5-12.983,4.359-4.346L15.483,1.118,11.123,5.464ZM16.9,2.533a1.818,1.818,0,0,1,.59-.394L16.72.291a3.819,3.819,0,0,0-1.239.828Zm.59-.394a1.818,1.818,0,0,1,.7-.138V0A3.818,3.818,0,0,0,16.72.291Zm.7-.138a1.818,1.818,0,0,1,.7.138L19.643.291A3.819,3.819,0,0,0,18.182,0Zm.7.138a1.819,1.819,0,0,1,.59.394l1.414-1.414A3.819,3.819,0,0,0,19.643.291Zm.59.394a1.82,1.82,0,0,1,.394.59l1.848-.765a3.818,3.818,0,0,0-.828-1.239Zm.394.59a1.818,1.818,0,0,1,.138.7h2a3.817,3.817,0,0,0-.291-1.461Zm.138.7a1.818,1.818,0,0,1-.138.7l1.848.765A3.817,3.817,0,0,0,22,3.819Zm-.138.7a1.818,1.818,0,0,1-.394.59l1.414,1.414a3.818,3.818,0,0,0,.828-1.239Zm-.394.59L15.115,9.458l1.414,1.414,4.353-4.353ZM.293,1.707l20,20,1.414-1.414-20-20Z" transform="translate(0)" fill="#09090b"/>
</svg>
