<svg id="pencil-ruler" xmlns="http://www.w3.org/2000/svg" width="22.007" height="22.007" viewBox="0 0 22.007 22.007">
  <path id="Vector" d="M11.295,6.709a1,1,0,0,0,1.414-1.414ZM7.7,1.7,8.409.995l0,0ZM6,1V1Zm-1.7.7L3.6.993l0,0ZM1.7,4.3.995,3.595l0,0Zm0,3.4-.709.705,0,0Zm3.593,5.007a1,1,0,0,0,1.414-1.414Zm1-8.414A1,1,0,0,0,7.709,5.709Zm3.414-.586A1,1,0,1,0,8.295,2.295Zm6.586,10.586a1,1,0,1,0,1.414,1.414Zm3.414-.586a1,1,0,1,0-1.414-1.414Zm-3-4.414a1,1,0,1,0-1.414,1.414ZM20.3,14.3l-.707.707h0Zm-6,6,.707-.707h0Zm-3.593-5.007a1,1,0,0,0-1.414,1.414Zm9.467-9.481-.707-.707h0ZM16.19,1.827l-.707-.707h0ZM2.844,15.176l.706.708h0Zm-.5.83-.956-.293v0ZM1.023,20.358l-.957-.291v0Zm.623.622.288.958h0ZM6,19.66l.29.957h0Zm.83-.5.706.708h0Zm7.88-15.868a1,1,0,0,0-1.414,1.414Zm2.586,5.414a1,1,0,0,0,1.414-1.414ZM12.709,5.295l-4.3-4.3L6.995,2.409l4.3,4.3Zm-4.3-4.3A3.41,3.41,0,0,0,6,0V2A1.41,1.41,0,0,1,7,2.411ZM6,0A3.41,3.41,0,0,0,3.6.993L5.007,2.411A1.41,1.41,0,0,1,6,2ZM3.595.995l-2.6,2.6L2.409,5.009l2.6-2.6ZM.993,3.6A3.41,3.41,0,0,0,0,6H2a1.41,1.41,0,0,1,.411-.995ZM0,6A3.41,3.41,0,0,0,.993,8.407L2.411,7A1.41,1.41,0,0,1,2,6ZM.995,8.409l4.3,4.3,1.414-1.414-4.3-4.3Zm6.714-2.7,2-2L8.295,2.295l-2,2Zm10,10,2-2-1.414-1.414-2,2Zm-2.414-5,4.3,4.3,1.414-1.414-4.3-4.3Zm4.3,4.3a1.4,1.4,0,0,1,0,1.986l1.414,1.414a3.4,3.4,0,0,0,0-4.814Zm0,1.986-2.6,2.6,1.414,1.414,2.6-2.6Zm-2.6,2.6a1.4,1.4,0,0,1-1.986,0l-1.414,1.414a3.4,3.4,0,0,0,4.814,0Zm-1.986,0-4.3-4.3L9.295,16.709l4.3,4.3ZM20.883,6.521A3.819,3.819,0,0,0,22,3.821H20a1.819,1.819,0,0,1-.533,1.286ZM22,3.821a3.819,3.819,0,0,0-1.118-2.7L19.469,2.534A1.819,1.819,0,0,1,20,3.82Zm-1.118-2.7A3.819,3.819,0,0,0,18.183,0V2a1.819,1.819,0,0,1,1.286.533ZM18.183,0a3.819,3.819,0,0,0-2.7,1.118L16.9,2.534A1.819,1.819,0,0,1,18.183,2Zm-2.7,1.118L2.137,14.469l1.414,1.414L16.9,2.534ZM2.138,14.467a3,3,0,0,0-.75,1.245L3.3,16.3a1,1,0,0,1,.25-.415Zm-.751,1.248L.066,20.067l1.914.581L3.3,16.3ZM.065,20.071a1.5,1.5,0,0,0-.017.8l1.939-.491a.5.5,0,0,1-.006.266Zm-.017.8a1.5,1.5,0,0,0,.394.694l1.413-1.415a.5.5,0,0,1,.131.231Zm.394.694a1.5,1.5,0,0,0,.694.393l.488-1.94a.5.5,0,0,1,.231.131Zm.694.393a1.5,1.5,0,0,0,.8-.018l-.576-1.915a.5.5,0,0,1,.266-.006Zm.8-.019,4.353-1.32L5.709,18.7l-4.353,1.32Zm4.354-1.32a3,3,0,0,0,1.245-.746L6.123,18.454a1,1,0,0,1-.415.249Zm1.246-.747L20.883,6.521,19.469,5.107,6.122,18.455ZM13.295,4.709l4,4,1.414-1.414-4-4Z" fill="#09090b"/>
</svg>
