<svg id="pentagon" xmlns="http://www.w3.org/2000/svg" width="20.733" height="19.977" viewBox="0 0 20.733 19.977">
  <path id="Vector" d="M1.816,6.677,2.4,7.49l.006,0Zm-.7,2.2.952-.306q-.007-.023-.016-.045Zm2.8,8.7-.952.306c0,.015.01.03.016.045Zm12.9,0,.936.351.016-.045Zm2.8-8.7-.936-.351-.016.045Zm-.7-2.2-.582.813h0Zm-7.4-5.3L12.1.564,12.088.556Zm-2.4,0L8.545.556,8.529.567ZM1.235,5.863A2.9,2.9,0,0,0,.18,9.228l1.873-.7A.9.9,0,0,1,2.4,7.49ZM.165,9.183l2.8,8.7,1.9-.613-2.8-8.7ZM2.98,17.928a3.043,3.043,0,0,0,2.836,2.049v-2a1.047,1.047,0,0,1-.964-.751Zm2.836,2.049h9.1v-2h-9.1Zm9.1,0a3.043,3.043,0,0,0,2.836-2.049l-1.873-.7a1.047,1.047,0,0,1-.964.751Zm2.852-2.094,2.8-8.7-1.9-.613-2.8,8.7Zm2.784-8.655A2.9,2.9,0,0,0,19.5,5.863L18.335,7.49a.9.9,0,0,1,.345,1.035ZM19.5,5.864,12.1.564,10.934,2.19l7.4,5.3ZM12.088.556A3.1,3.1,0,0,0,10.316,0V2a1.1,1.1,0,0,1,.629.2ZM10.316,0A3.1,3.1,0,0,0,8.545.556L9.688,2.2a1.1,1.1,0,0,1,.629-.2ZM8.529.567l-7.3,5.3L2.4,7.486l7.3-5.3Z" transform="translate(0)" fill="#09090b"/>
</svg>
