<svg id="person-standing" xmlns="http://www.w3.org/2000/svg" width="14" height="18" viewBox="0 0 14 18">
  <path id="Vector" d="M3.106,16.553a1,1,0,0,0,1.789.894Zm6,.894a1,1,0,0,0,1.789-.894ZM1.316,4.051a1,1,0,1,0-.632,1.9Zm12,1.9a1,1,0,1,0-.632-1.9ZM7,2V4A2,2,0,0,0,9,2ZM7,2H5A2,2,0,0,0,7,4ZM7,2V0A2,2,0,0,0,5,2ZM7,2H9A2,2,0,0,0,7,0ZM4.895,17.447l3-6-1.789-.894-3,6Zm1.211-6,3,6,1.789-.894-3-6ZM.684,5.949l6,2,.632-1.9-6-2Zm6.632,2,6-2-.632-1.9-6,2ZM6,7v4H8V7Z" transform="translate(0)" fill="#09090b"/>
</svg>
