<svg id="phone-incoming" xmlns="http://www.w3.org/2000/svg" width="21.889" height="21.928" viewBox="0 0 21.889 21.928">
  <path id="Vector" d="M15.888,1a1,1,0,0,0-2,0Zm-1,6h-1a1,1,0,0,0,1,1Zm6,1a1,1,0,0,0,0-2ZM21.6,1.707A1,1,0,1,0,20.181.293ZM20.888,15.92l-1-.025c0,.008,0,.017,0,.025Zm0,3h-1v0Zm-2.18,2-.108.994.018,0Zm-8.63-3.07.544-.839-.008,0Zm-6-6,.844-.536,0-.007ZM1.008,3.18l-1,.09,0,.016ZM3,1V0H3ZM6,1V2h.01ZM8,2.72l.991-.131V2.58Zm.7,2.81-.937.35v0Zm-.45,2.11.707.707,0,0ZM6.978,8.91,6.271,8.2a1,1,0,0,0-.162,1.2Zm6,6-.494.869a1,1,0,0,0,1.2-.162Zm1.27-1.27-.7-.711,0,0Zm2.11-.45-.352.936h0Zm2.81.7.14-.99H19.3ZM13.888,1V7h2V1Zm1,7h6V6h-6ZM20.181.293l-6,6L15.6,7.707l6-6ZM19.888,15.92v3h2v-3Zm0,3a1,1,0,0,1-.084.4l1.833.8a3,3,0,0,0,.251-1.214Zm-.084.4a1,1,0,0,1-.24.336l1.352,1.474a3,3,0,0,0,.721-1.009Zm-.24.336a1,1,0,0,1-.356.21l.641,1.895a3,3,0,0,0,1.067-.631Zm-.356.21a1,1,0,0,1-.41.049l-.18,1.992a3,3,0,0,0,1.231-.146Zm-.392.05a18.79,18.79,0,0,1-8.194-2.915L9.534,18.689A20.788,20.788,0,0,0,18.6,21.914Zm-8.2-2.92a18.5,18.5,0,0,1-5.692-5.692L3.234,12.386a20.5,20.5,0,0,0,6.308,6.308Zm-5.7-5.7A18.79,18.79,0,0,1,2,3.075L.014,3.286a20.79,20.79,0,0,0,3.225,9.108ZM2,3.09a1,1,0,0,1,.048-.409l-1.9-.638A3,3,0,0,0,.012,3.27Zm.048-.409a1,1,0,0,1,.209-.355L.784.978A3,3,0,0,0,.157,2.043Zm.209-.355A1,1,0,0,1,2.6,2.085L1.788.256a3,3,0,0,0-1,.722ZM2.6,2.085A1,1,0,0,1,3,2L3,0A3,3,0,0,0,1.788.256ZM3,2H6V0H3Zm3.01,0a1,1,0,0,1,.662.242L7.974.725A3,3,0,0,0,5.988,0Zm.662.242a1,1,0,0,1,.338.618l1.98-.28A3,3,0,0,0,7.974.725Zm.337.609A13.84,13.84,0,0,0,7.761,5.88l1.874-.7A11.84,11.84,0,0,1,8.99,2.589Zm.755,3.031a1,1,0,0,1,.042.56L9.76,6.86a3,3,0,0,0-.126-1.681Zm.042.56a1,1,0,0,1-.267.495L8.959,8.343a3,3,0,0,0,.8-1.484Zm-.263.491L6.271,8.2,7.685,9.617l1.27-1.27ZM6.109,9.4a17,17,0,0,0,6.375,6.375l.989-1.739A15,15,0,0,1,7.847,8.416Zm7.576,6.213,1.27-1.27-1.414-1.414-1.27,1.27Zm1.266-1.266a1,1,0,0,1,.495-.267l-.417-1.956a3,3,0,0,0-1.484.8Zm.495-.267a1,1,0,0,1,.561.042l.7-1.872a3,3,0,0,0-1.681-.126Zm.563.043a13.841,13.841,0,0,0,3.029.755L19.3,12.9a11.841,11.841,0,0,1-2.591-.646Zm3.02.753a1,1,0,0,1,.623.344l1.526-1.293a3,3,0,0,0-1.87-1.031Zm.623.344a1,1,0,0,1,.237.671l2,.05a3,3,0,0,0-.71-2.014Z" transform="translate(0 0)" fill="#09090b"/>
</svg>
