<svg id="piano" xmlns="http://www.w3.org/2000/svg" width="22.033" height="22.54" viewBox="0 0 22.033 22.54">
  <path id="Vector" d="M14.333,5.54l-.941.339a1.008,1.008,0,0,0,.046.108Zm-13.3,3h1q0-.049,0-.1Zm0,11h0Zm0-7a1,1,0,0,0,0,2Zm20,2a1,1,0,0,0,0-2Zm-15-1a1,1,0,0,0-2,0Zm-2,4a1,1,0,0,0,2,0Zm6-4a1,1,0,0,0-2,0Zm-2,4a1,1,0,0,0,2,0Zm6-4a1,1,0,0,0-2,0Zm-2,4a1,1,0,0,0,2,0Zm6-4a1,1,0,1,0-2,0Zm-2,4a1,1,0,0,0,2,0Zm1.5-11a2.563,2.563,0,0,1-2.306-1.447l-1.789.894A4.563,4.563,0,0,0,17.533,8.54ZM15.274,5.2A7.87,7.87,0,0,0,11.653.969l-.961,1.754a5.87,5.87,0,0,1,2.7,3.156ZM11.653.969A7.87,7.87,0,0,0,6.138.193l.44,1.951a5.87,5.87,0,0,1,4.113.579ZM6.138.193A7.87,7.87,0,0,0,1.491,3.261L3.112,4.432A5.87,5.87,0,0,1,6.578,2.144ZM1.491,3.261A7.87,7.87,0,0,0,.038,8.637l1.99-.195a5.87,5.87,0,0,1,1.084-4.01ZM.033,8.54v11h2v-11Zm0,11a3,3,0,0,0,.879,2.121l1.414-1.414a1,1,0,0,1-.293-.707Zm.879,2.121a3,3,0,0,0,2.121.879v-2a1,1,0,0,1-.707-.293Zm2.121.879h16v-2h-16Zm16,0a3,3,0,0,0,2.121-.879L19.74,20.247a1,1,0,0,1-.707.293Zm2.121-.879a3,3,0,0,0,.879-2.121h-2a1,1,0,0,1-.293.707Zm.879-2.121v-8.5h-2v8.5Zm0-8.5a4.543,4.543,0,0,0-4.5-4.5v2a2.543,2.543,0,0,1,2.5,2.5Zm-21,3.5h20v-2h-20Zm3-1v4h2v-4Zm4,0v4h2v-4Zm4,0v4h2v-4Zm4,0v4h2v-4Z" transform="translate(0 0)" fill="#09090b"/>
</svg>
