<svg id="pie-chart" xmlns="http://www.w3.org/2000/svg" width="22" height="21.995" viewBox="0 0 22 21.995">
  <path id="Vector" d="M21.131,15.28a1,1,0,1,0-1.842-.779ZM7.4,2.747A1,1,0,1,0,6.6.914ZM21,11v1a1,1,0,0,0,1-1ZM11,1V0a1,1,0,0,0-1,1Zm0,10H10a1,1,0,0,0,1,1Zm8.289,3.5a9,9,0,0,1-2.608,3.475l1.262,1.551a11,11,0,0,0,3.188-4.247Zm-2.608,3.475a9,9,0,0,1-3.932,1.848l.389,1.962a11,11,0,0,0,4.806-2.259Zm-3.933,1.848a9,9,0,0,1-4.34-.21L7.833,21.53a11,11,0,0,0,5.3.256Zm-4.34-.21A9,9,0,0,1,4.672,17.4L3.266,18.818A11,11,0,0,0,7.833,21.53ZM4.672,17.4a9,9,0,0,1-2.261-3.71l-1.909.6a11,11,0,0,0,2.764,4.535Zm-2.261-3.71a9,9,0,0,1-.259-4.337L.186,8.982a11,11,0,0,0,.317,5.3ZM2.152,9.348a9,9,0,0,1,1.8-3.953L2.39,4.15a11,11,0,0,0-2.2,4.832Zm1.8-3.953A9,9,0,0,1,7.4,2.747L6.6.914A11,11,0,0,0,2.39,4.15ZM22,11a11,11,0,0,0-.837-4.21l-1.848.765A9,9,0,0,1,20,11Zm-.837-4.21a11,11,0,0,0-2.385-3.569L17.364,4.636a9,9,0,0,1,1.951,2.92ZM18.779,3.222A11,11,0,0,0,15.21.837l-.765,1.848a9,9,0,0,1,2.92,1.951ZM15.21.837A11,11,0,0,0,11,0V2a9,9,0,0,1,3.444.685ZM10,1V11h2V1Zm1,11H21V10H11Z" transform="translate(0)" fill="#09090b"/>
</svg>
