<svg id="piggy-bank" xmlns="http://www.w3.org/2000/svg" width="22" height="17" viewBox="0 0 22 17">
  <path id="Vector" d="M18,1h1a1,1,0,0,0-1-1ZM15,3l-.394.919a1,1,0,0,0,1.343-.6ZM6,12.5H7a1,1,0,0,0-.4-.8ZM6,16H5a1,1,0,0,0,1,1Zm4,0v1a1,1,0,0,0,1-1Zm0-2V13a1,1,0,0,0-1,1Zm3,0h1a1,1,0,0,0-1-1Zm0,2H12a1,1,0,0,0,1,1Zm4,0v1a1,1,0,0,0,1-1Zm0-4-.447-.894A1,1,0,0,0,16,12Zm2-2V9a1,1,0,0,0-.958.713Zm2,0v1a1,1,0,0,0,1-1Zm0-4h1a1,1,0,0,0-1-1ZM19,6H18a1,1,0,0,0,1,1ZM18,4H17a1,1,0,0,0,.293.707ZM2,5A1,1,0,0,0,0,5ZM15,6a1,1,0,0,0,0,2Zm.01,2a1,1,0,0,0,0-2ZM18,0a4.286,4.286,0,0,0-2.608.991,5.265,5.265,0,0,0-.829.817,2.969,2.969,0,0,0-.512.876l1.9.632a1.425,1.425,0,0,1,.173-.255,3.273,3.273,0,0,1,.511-.5A2.309,2.309,0,0,1,18,2ZM15.394,2.081A11.354,11.354,0,0,0,7.87,2C5.34,2.85,3,4.749,3,8H5C5,5.951,6.41,4.6,8.505,3.9a9.389,9.389,0,0,1,6.1.021ZM3,8a7.956,7.956,0,0,0,.306,2.694A5.574,5.574,0,0,0,5.4,13.3l1.2-1.6a3.621,3.621,0,0,1-1.406-1.669A6.165,6.165,0,0,1,5,8Zm2,4.5V16H7V12.5ZM6,17h4V15H6Zm5-1V14H9v2Zm-1-1h3V13H10Zm2-1v2h2V14Zm1,3h4V15H13Zm5-1V12H16v4Zm-.553-3.106a4.272,4.272,0,0,0,2.511-2.607l-1.916-.575c-.176.588-.551.924-1.489,1.393ZM19,11h2V9H19Zm3-1V6H20v4ZM21,5H19V7h2ZM20,6a3.57,3.57,0,0,0-1.293-2.707L17.293,4.707C17.782,5.2,18,5.44,18,6ZM19,4V1H17V4ZM0,5V6H2V5ZM0,6A3.006,3.006,0,0,0,3,9V7A1.006,1.006,0,0,1,2,6ZM3,9H4V7H3ZM15,8h.01V6H15Z" fill="#09090b"/>
</svg>
