<svg id="pilcrow" xmlns="http://www.w3.org/2000/svg" width="16" height="18" viewBox="0 0 16 18">
  <path id="Vector" d="M10,1A1,1,0,0,0,8,1ZM8,17a1,1,0,0,0,2,0ZM14,1a1,1,0,0,0-2,0ZM12,17a1,1,0,0,0,2,0ZM15,2a1,1,0,0,0,0-2ZM5.5,1V1ZM1,5.5H1ZM9,11A1,1,0,0,0,9,9ZM8,1V17h2V1Zm4,0V17h2V1Zm3-1H5.5V2H15ZM5.5,0A5.5,5.5,0,0,0,1.611,1.611L3.025,3.025A3.5,3.5,0,0,1,5.5,2ZM1.611,1.611A5.5,5.5,0,0,0,0,5.5H2A3.5,3.5,0,0,1,3.025,3.025ZM0,5.5A5.5,5.5,0,0,0,1.611,9.389L3.025,7.975A3.5,3.5,0,0,1,2,5.5ZM1.611,9.389A5.5,5.5,0,0,0,5.5,11V9A3.5,3.5,0,0,1,3.025,7.975ZM5.5,11H9V9H5.5Z" fill="#09090b"/>
</svg>
