<svg id="pilcrow-left" xmlns="http://www.w3.org/2000/svg" width="22" height="21" viewBox="0 0 22 21">
  <path id="Vector" d="M14,1a1,1,0,0,0-2,0ZM12,12a1,1,0,0,0,2,0Zm1-4a1,1,0,0,0,0-2ZM10,1V1Zm9,1a1,1,0,0,0,0-2ZM18,1a1,1,0,0,0-2,0ZM16,12a1,1,0,0,0,2,0Zm5,5a1,1,0,0,0,0-2ZM1,16l-.707-.707a1,1,0,0,0,0,1.414Zm4.707-3.293a1,1,0,1,0-1.414-1.414Zm-1.414,8a1,1,0,0,0,1.414-1.414ZM12,1V12h2V1Zm1,5H10V8h3ZM10,6a2,2,0,0,1-1.414-.586L7.172,6.828A4,4,0,0,0,10,8ZM8.586,5.414A2,2,0,0,1,8,4H6A4,4,0,0,0,7.172,6.828ZM8,4a2,2,0,0,1,.586-1.414L7.172,1.172A4,4,0,0,0,6,4Zm.586-1.414A2,2,0,0,1,10,2V0A4,4,0,0,0,7.172,1.172ZM10,2h9V0H10Zm6-1V12h2V1Zm5,14H1v2H21ZM1.707,16.707l4-4L4.293,11.293l-4,4Zm4,2.586-4-4L.293,16.707l4,4Z" fill="#09090b"/>
</svg>
