<svg id="pilcrow-right" xmlns="http://www.w3.org/2000/svg" width="22" height="21" viewBox="0 0 22 21">
  <path id="Vector" d="M10,1A1,1,0,0,0,8,1ZM8,12a1,1,0,0,0,2,0ZM9,8A1,1,0,0,0,9,6ZM3,4H3ZM6,1V1Zm8,1a1,1,0,0,0,0-2Zm0-1a1,1,0,0,0-2,0ZM12,12a1,1,0,0,0,2,0Zm5.707-.707a1,1,0,0,0-1.414,1.414ZM21,16l.707.707a1,1,0,0,0,0-1.414ZM1,15a1,1,0,0,0,0,2Zm15.293,4.293a1,1,0,0,0,1.414,1.414ZM8,1V12h2V1ZM9,6H6V8H9ZM6,6a2,2,0,0,1-1.414-.586L3.172,6.828A4,4,0,0,0,6,8ZM4.586,5.414A2,2,0,0,1,4,4H2A4,4,0,0,0,3.172,6.828ZM4,4a2,2,0,0,1,.586-1.414L3.172,1.172A4,4,0,0,0,2,4Zm.586-1.414A2,2,0,0,1,6,2V0A4,4,0,0,0,3.172,1.172ZM6,2h8V0H6Zm6-1V12h2V1Zm4.293,11.707,4,4,1.414-1.414-4-4ZM21,15H1v2H21Zm-.707.293-4,4,1.414,1.414,4-4Z" fill="#09090b"/>
</svg>
