<svg id="pill" xmlns="http://www.w3.org/2000/svg" width="21.971" height="21.971" viewBox="0 0 21.971 21.971">
  <path id="Vector" d="M9.485,19.485l-.707-.707-.007.007Zm10-10-.7-.714-.007.007Zm-7-7,.707.707.007-.007Zm-10,10,.7.714.007-.007ZM8.192,6.778A1,1,0,0,0,6.778,8.192Zm5.586,8.414a1,1,0,1,0,1.414-1.414Zm-3.586,5,10-10L18.778,8.778l-10,10ZM20.185,10.2A5.95,5.95,0,0,0,21.5,8.269l-1.842-.779a3.951,3.951,0,0,1-.873,1.282ZM21.5,8.269a5.949,5.949,0,0,0,.47-2.288l-2-.01a3.952,3.952,0,0,1-.312,1.519Zm.47-2.288a5.95,5.95,0,0,0-.447-2.293l-1.85.761a3.95,3.95,0,0,1,.3,1.522Zm-.447-2.293a5.95,5.95,0,0,0-1.3-1.944L18.814,3.157a3.95,3.95,0,0,1,.86,1.291Zm-1.3-1.944a5.95,5.95,0,0,0-1.944-1.3L17.523,2.3a3.951,3.951,0,0,1,1.291.86ZM18.284.447A5.95,5.95,0,0,0,15.991,0L16,2a3.95,3.95,0,0,1,1.522.3ZM15.991,0A5.949,5.949,0,0,0,13.7.47l.779,1.842A3.95,3.95,0,0,1,16,2ZM13.7.47a5.951,5.951,0,0,0-1.931,1.315l1.429,1.4a3.95,3.95,0,0,1,1.282-.873ZM11.778,1.778l-10,10,1.414,1.414,10-10ZM1.785,11.771A5.95,5.95,0,0,0,.47,13.7l1.842.779A3.95,3.95,0,0,1,3.185,13.2ZM.47,13.7A5.949,5.949,0,0,0,0,15.991L2,16a3.95,3.95,0,0,1,.312-1.519ZM0,15.991a5.95,5.95,0,0,0,.447,2.293l1.85-.761A3.95,3.95,0,0,1,2,16Zm.447,2.293a5.95,5.95,0,0,0,1.3,1.944l1.414-1.414a3.951,3.951,0,0,1-.86-1.291Zm1.3,1.944a5.949,5.949,0,0,0,1.944,1.3l.761-1.85a3.95,3.95,0,0,1-1.291-.86Zm1.944,1.3a5.95,5.95,0,0,0,2.293.447l-.01-2a3.95,3.95,0,0,1-1.522-.3Zm2.293.447a5.95,5.95,0,0,0,2.288-.47l-.779-1.842a3.952,3.952,0,0,1-1.519.312Zm2.288-.47A5.951,5.951,0,0,0,10.2,20.185l-1.428-1.4a3.951,3.951,0,0,1-1.282.873ZM6.778,8.192l7,7,1.414-1.414-7-7Z" transform="translate(0 0)" fill="#09090b"/>
</svg>
