<svg id="pin-off" xmlns="http://www.w3.org/2000/svg" width="22" height="22" viewBox="0 0 22 22">
  <path id="Vector" d="M12,16a1,1,0,0,0-2,0Zm-2,5a1,1,0,0,0,2,0ZM13,8.34a1,1,0,0,0,2,0ZM15,5V5Zm0-4V1ZM6.89,0a1,1,0,0,0,0,2ZM1.707.293A1,1,0,0,0,.293,1.707ZM20.293,21.707a1,1,0,0,0,1.414-1.414ZM9,8A1,1,0,0,0,7,8ZM8,9.76H8ZM6.89,11.55l-.445-.9-.006,0Zm-1.78.9.445.9.006,0ZM4,14.24H4ZM16,17a1,1,0,0,0,0-2Zm-6-1v5h2V16Zm5-7.66V6H13V8.34ZM15,6h0L13.586,4.586A2,2,0,0,0,13,6Zm0,0h0V4a2,2,0,0,0-1.414.586Zm0,0a3,3,0,0,0,2.121-.879L15.707,3.707A1,1,0,0,1,15,4Zm2.121-.879A3,3,0,0,0,18,3H16a1,1,0,0,1-.293.707ZM18,3A3,3,0,0,0,17.121.879L15.707,2.293A1,1,0,0,1,16,3ZM17.121.879A3,3,0,0,0,15,0V2a1,1,0,0,1,.707.293ZM15,0H6.89V2H15ZM.293,1.707l20,20,1.414-1.414-20-20ZM7,8V9.76H9V8ZM7,9.759a1,1,0,0,1-.15.526l1.7,1.054A3,3,0,0,0,9,9.761Zm-.15.526a1,1,0,0,1-.4.369l.89,1.791A3,3,0,0,0,8.55,11.34Zm-.411.372-1.78.9.9,1.785,1.78-.9Zm-1.774.9A3,3,0,0,0,3.45,12.66l1.7,1.054a1,1,0,0,1,.4-.369ZM3.45,12.66A3,3,0,0,0,3,14.24H5a1,1,0,0,1,.15-.526ZM3,14.24V15H5v-.76ZM3,15a2,2,0,0,0,.586,1.414L5,15H3Zm.586,1.414A2,2,0,0,0,5,17V15H5ZM5,17H16V15H5Z" transform="translate(0)" fill="#09090b"/>
</svg>
