<svg id="pizza" xmlns="http://www.w3.org/2000/svg" width="22" height="22" viewBox="0 0 22 22">
  <path id="Vector" d="M14,9a1,1,0,1,0,0,2Zm.01,2a1,1,0,1,0,0-2ZM10,13a1,1,0,0,0,0,2Zm.01,2a1,1,0,0,0,0-2ZM15,14a1,1,0,1,0,0,2Zm.01,2a1,1,0,1,0,0-2ZM1,15l-.964-.264a1,1,0,0,0,.677,1.222Zm20,6-.287.958a1,1,0,0,0,1.245-1.245ZM15,1l.958-.287A1,1,0,0,0,14.736.036ZM3.753,15.822a1,1,0,0,0,1.915.577ZM16.4,5.668a1,1,0,0,0-.577-1.915ZM14,11h.01V9H14Zm-4,4h.01V13H10Zm5,1h.01V14H15ZM.713,15.958l20,6,.575-1.916-20-6Zm21.245,4.755-6-20-1.916.575,6,20ZM14.736.036a21,21,0,0,0-9.3,5.4L6.853,6.853a19,19,0,0,1,8.411-4.889Zm-9.3,5.4a21,21,0,0,0-5.4,9.3l1.929.529A19,19,0,0,1,6.853,6.853ZM5.668,16.4A16.04,16.04,0,0,1,9.684,9.684L8.27,8.27a18.04,18.04,0,0,0-4.517,7.552ZM9.684,9.684A16.04,16.04,0,0,1,16.4,5.668l-.577-1.915A18.04,18.04,0,0,0,8.27,8.27Z" transform="translate(0 0)" fill="#09090b"/>
</svg>
