<svg id="plane-takeoff" xmlns="http://www.w3.org/2000/svg" width="22.026" height="18.656" viewBox="0 0 22.026 18.656">
  <path id="Vector" d="M1,16.656a1,1,0,0,0,0,2Zm20,2a1,1,0,0,0,0-2Zm-15.64-5.6-.167.986a1,1,0,0,0,1.167-.986ZM3,12.655l-.894.447a1,1,0,0,0,.727.539Zm-2-4L.553,7.761A1,1,0,0,0,.106,9.1Zm1.1-.55L2.547,9h0Zm1.8,0,.507-.862L4.35,7.212Zm.17.1-.507.862L3.62,9.1Zm1.8,0-.438-.9-.012.006ZM7,7.655l.438.9a1,1,0,0,0,.457-1.346Zm-3-6L3.553.761A1,1,0,0,0,3.106,2.1Zm.9-.45-.441-.9-.006,0Zm2.09.2-.6.8.006,0Zm4.02,3,.606-.8L11.608,3.6Zm2.1.2-.441-.9,0,0Zm4.19-2.06.441.9.009,0Zm1.73-.17.277-.961-.01,0Zm.97.28-.277.961.01,0Zm.87,1.99-.889-.458-.005.011Zm-.38.76L19.6,4.958h0Zm-1.07,1.08.444.9.01-.005ZM6.58,12.855l.444.9h0Zm-1.22.18.166-.986a1,1,0,0,0-1.166.986ZM1,18.656H21v-2H1Zm4.527-6.586-2.36-.4-.334,1.972,2.36.4Zm-1.633.139-2-4L.106,9.1l2,4ZM1.447,9.55,2.547,9,1.653,7.211l-1.1.55ZM2.55,9A1,1,0,0,1,3,8.891v-2a3,3,0,0,0-1.35.321ZM3,8.891A1,1,0,0,1,3.45,9l.9-1.786A3,3,0,0,0,3,6.891Zm.393.076.17.1L4.577,7.343l-.17-.1ZM3.62,9.1a3,3,0,0,0,1.35.321v-2a1,1,0,0,1-.45-.107Zm1.35.321A3,3,0,0,0,6.32,9.1l-.9-1.786a1,1,0,0,1-.45.107ZM6.308,9.1l1.13-.55-.875-1.8-1.13.55Zm1.587-1.9-3-6L3.106,2.1l3,6ZM4.447,2.55l.9-.45L4.453.311l-.9.45ZM5.342,2.1A1,1,0,0,1,5.878,2L6.069.014a3,3,0,0,0-1.61.294ZM5.878,2a1,1,0,0,1,.508.2L7.594.608A3,3,0,0,0,6.069.014Zm.514.2,4.02,3,1.2-1.6L7.588.6ZM10.4,5.2a3,3,0,0,0,1.532.6l.19-1.991a1,1,0,0,1-.511-.2Zm1.532.6a3,3,0,0,0,1.618-.3L12.666,3.71a1,1,0,0,1-.539.1Zm1.615-.3,4.19-2.06-.882-1.795-4.19,2.06Zm4.2-2.064a1.41,1.41,0,0,1,1.012-.1L19.3,1.412a3.41,3.41,0,0,0-2.448.241Zm1-.1.97.28.555-1.922-.97-.28Zm.98.283a.4.4,0,0,1,.155.083L21.2,2.192a2.4,2.4,0,0,0-.931-.5Zm.155.083a.4.4,0,0,1,.1.142l1.833-.8a2.4,2.4,0,0,0-.626-.851Zm.1.142a.4.4,0,0,1,.033.173l2,.063a2.4,2.4,0,0,0-.2-1.038Zm.033.173a.4.4,0,0,1-.044.17l1.778.916a2.4,2.4,0,0,0,.265-1.023Zm-.05.181-.38.76,1.789.894.38-.76Zm-.38.76a1.429,1.429,0,0,1-.63.637l.91,1.781a3.429,3.429,0,0,0,1.51-1.523Zm-.62.631L6.136,11.96l.889,1.792,12.84-6.37ZM6.136,11.959a1,1,0,0,1-.61.09l-.332,1.972a3,3,0,0,0,1.83-.27ZM4.36,13.035v.02h2v-.02Z" transform="translate(0 0)" fill="#09090b"/>
</svg>
