<svg id="plane" xmlns="http://www.w3.org/2000/svg" width="20.188" height="20.188" viewBox="0 0 20.188 20.188">
  <path id="Vector" d="M15.8,17.388l.981-.2,0-.018ZM14,9.188l-.707-.707a1,1,0,0,0-.27.922Zm5-8L19.894.74a1,1,0,0,0-.447-.447Zm-8,5-.214.977a1,1,0,0,0,.922-.27Zm-8.2-1.8.214-.977L3,3.407Zm-1.1.5.857.515q.02-.033.037-.067Zm-.3.5L.543,4.873a1,1,0,0,0-.071.143Zm.3,1.3-.6.8.049.034Zm5.3,3.5.832.555a1,1,0,0,0-.281-1.389Zm-2,3v1a1,1,0,0,0,.832-.445Zm-3,0v-1a1,1,0,0,0-.707.293Zm-1,1L.293,13.48A1,1,0,0,0,.445,15.02Zm3,2,.832-.555a1,1,0,0,0-.277-.277Zm2,3-.832.555a1,1,0,0,0,1.539.152Zm1-1,.707.707A1,1,0,0,0,8,18.188Zm0-3-.555-.832A1,1,0,0,0,6,15.188Zm3-2,.834-.551a1,1,0,0,0-1.389-.281Zm3.5,5.3-.835.551q.016.025.035.049Zm1.3.3.371.928h0Zm.5-.2.371.928a1,1,0,0,0,.229-.128Zm1.477-1.414-1.8-8.2L13.023,9.4l1.8,8.2Zm-2.07-7.278,3.5-3.5L16.793,4.98l-3.5,3.5Zm3.5-3.5a7.022,7.022,0,0,0,1.749-2.851,3.864,3.864,0,0,0-.061-2.8l-1.789.894a1.984,1.984,0,0,1-.061,1.321A5.024,5.024,0,0,1,16.793,4.98Zm1.24-6.1a3.864,3.864,0,0,0-2.8-.061A7.021,7.021,0,0,0,13.793,1.98l1.414,1.414a5.025,5.025,0,0,1,2.024-1.251,1.984,1.984,0,0,1,1.321-.061ZM13.793,1.98l-3.5,3.5,1.414,1.414,3.5-3.5Zm-2.578,3.23-8.2-1.8L2.586,5.364l8.2,1.8ZM3,3.407A1.945,1.945,0,0,0,.806,4.44l1.789.894c.005-.01.006-.008,0,0l-.014.012-.018.011a.123.123,0,0,1-.017.006.219.219,0,0,1,.06.006ZM.843,4.373l-.3.5L2.257,5.9l.3-.5Zm-.371.643A2.057,2.057,0,0,0,1.1,7.488l1.2-1.6c-.008-.006-.007-.007,0,0a.041.041,0,0,1,0,.01.265.265,0,0,1,.027-.137Zm.677,2.506,5.3,3.5,1.1-1.669-5.3-3.5ZM6.168,9.633l-2,3,1.664,1.109,2-3ZM5,12.188H2v2H5Zm-3.707.293-1,1,1.414,1.414,1-1ZM.445,15.02l3,2,1.109-1.664-3-2Zm2.723,1.723,2,3,1.664-1.109-2-3Zm3.539,3.152,1-1L6.293,17.48l-1,1ZM8,18.188v-3H6v3ZM7.555,16.02l3-2L9.445,12.355l-3,2Zm1.611-2.281,3.5,5.3,1.669-1.1-3.5-5.3ZM12.7,19.087a2.057,2.057,0,0,0,2.471.628l-.743-1.857a.265.265,0,0,1-.137.027l.01,0c.006,0,0,0,0,0Zm2.471.628.5-.2-.743-1.857-.5.2Zm.729-.328a2.144,2.144,0,0,0,.881-2.2l-1.961.392a.22.22,0,0,1,.006.063.041.041,0,0,1,0,.015.369.369,0,0,1-.121.126Z" transform="translate(0 0)" fill="#09090b"/>
</svg>
