<svg id="plug-zap-2" xmlns="http://www.w3.org/2000/svg" width="10" height="22" viewBox="0 0 10 22">
  <path id="Vector" d="M6.781,1.625A1,1,0,0,0,5.219.375ZM4,3.5l-.781-.625A1,1,0,0,0,4,4.5Zm3,0,.781.625A1,1,0,0,0,7,2.5ZM4.219,5.375A1,1,0,1,0,5.781,6.625ZM2,13a1,1,0,0,0,2,0Zm2-3a1,1,0,1,0-2,0Zm2,3a1,1,0,0,0,2,0Zm2-3a1,1,0,1,0-2,0ZM1,13V12a1,1,0,0,0-1,1Zm8,0h1a1,1,0,0,0-1-1ZM4,21a1,1,0,0,0,2,0Zm2-3a1,1,0,0,0-2,0ZM5.219.375l-2,2.5L4.781,4.125l2-2.5ZM4,4.5H7v-2H4ZM6.219,2.875l-2,2.5L5.781,6.625l2-2.5ZM4,13V10H2v3Zm4,0V10H6v3ZM4,17a1.947,1.947,0,0,1-2-2H0a3.946,3.946,0,0,0,4,4ZM2,15V13H0v2ZM1,14H9V12H1Zm7-1v2h2V13Zm0,2a1.947,1.947,0,0,1-2,2v2a3.946,3.946,0,0,0,4-4ZM6,17H4v2H6Zm0,4V18H4v3Z" transform="translate(0 0)" fill="#09090b"/>
</svg>
