<svg id="plug-2" xmlns="http://www.w3.org/2000/svg" width="16" height="22" viewBox="0 0 16 22">
  <path id="Vector" d="M6,1A1,1,0,0,0,4,1ZM4,7A1,1,0,0,0,6,7Zm8-6a1,1,0,0,0-2,0ZM10,7a1,1,0,0,0,2,0ZM7,21a1,1,0,0,0,2,0ZM1,6A1,1,0,0,0,1,8ZM15,8a1,1,0,0,0,0-2ZM2,10H2ZM2,7V6A1,1,0,0,0,1,7ZM14,7h1a1,1,0,0,0-1-1ZM4,1V7H6V1Zm6,0V7h2V1ZM7,16v5H9V16ZM1,8H15V6H1Zm2,2V7H1v3ZM2,8H14V6H2ZM13,7v3h2V7Zm0,3a5,5,0,0,1-1.465,3.535L12.95,14.95A7,7,0,0,0,15,10Zm-1.465,3.535A5,5,0,0,1,8,15v2a7,7,0,0,0,4.95-2.05ZM8,15a5,5,0,0,1-3.536-1.465L3.05,14.95A7,7,0,0,0,8,17ZM4.464,13.535A5,5,0,0,1,3,10H1a7,7,0,0,0,2.05,4.95Z" fill="#09090b"/>
</svg>
