<svg id="plug" xmlns="http://www.w3.org/2000/svg" width="14" height="22" viewBox="0 0 14 22">
  <path id="Vector" d="M6,21a1,1,0,0,0,2,0Zm2-5a1,1,0,0,0-2,0ZM3,7A1,1,0,0,0,5,7ZM5,1A1,1,0,0,0,3,1ZM9,7a1,1,0,0,0,2,0Zm2-6A1,1,0,0,0,9,1Zm2,6h1a1,1,0,0,0-1-1ZM1,12H1ZM1,7V6A1,1,0,0,0,0,7ZM8,21V16H6v5ZM5,7V1H3V7Zm6,0V1H9V7Zm1,0v5h2V7Zm0,5a3,3,0,0,1-.879,2.121l1.414,1.414A5,5,0,0,0,14,12Zm-.879,2.121A3,3,0,0,1,9,15v2a5,5,0,0,0,3.535-1.465ZM9,15H5v2H9ZM5,15a3,3,0,0,1-2.121-.879L1.464,15.535A5,5,0,0,0,5,17Zm-2.121-.879A3,3,0,0,1,2,12H0a5,5,0,0,0,1.464,3.535ZM2,12V7H0v5ZM1,8H13V6H1Z" fill="#09090b"/>
</svg>
