<svg id="pocket" xmlns="http://www.w3.org/2000/svg" width="22" height="20" viewBox="0 0 22 20">
  <path id="Vector" d="M3,1V1ZM19,1V1ZM11,19v0ZM7.707,7.293A1,1,0,0,0,6.293,8.707ZM11,12l-.707.707a1,1,0,0,0,1.414,0Zm4.707-3.293a1,1,0,1,0-1.414-1.414ZM3,2H19V0H3ZM19,2a1,1,0,0,1,.707.293L21.121.879A3,3,0,0,0,19,0Zm.707.293A1,1,0,0,1,20,3h2A3,3,0,0,0,21.121.879ZM20,3V9h2V3Zm0,6a9,9,0,0,1-2.636,6.364l1.414,1.414A11,11,0,0,0,22,9Zm-2.636,6.364A9,9,0,0,1,11,18v2a11,11,0,0,0,7.778-3.222ZM11,18a9,9,0,0,1-3.444-.685L6.79,19.163A11,11,0,0,0,11,20Zm-3.444-.685a9,9,0,0,1-2.92-1.951L3.222,16.778A11,11,0,0,0,6.79,19.163Zm-2.92-1.951A9,9,0,0,1,2,9H0a11,11,0,0,0,3.222,7.778ZM2,9V3H0V9ZM2,3a1,1,0,0,1,.293-.707L.879.879A3,3,0,0,0,0,3Zm.293-.707A1,1,0,0,1,3,2V0A3,3,0,0,0,.879.879Zm4,6.414,4,4,1.414-1.414-4-4Zm5.414,4,4-4L14.293,7.293l-4,4Z" fill="#09090b"/>
</svg>
