<svg id="podcast" xmlns="http://www.w3.org/2000/svg" width="20" height="22.001" viewBox="0 0 20 22.001">
  <path id="Vector" d="M14.311,16.739a1,1,0,1,0,1.078,1.685ZM10,1V1ZM4.611,18.424a1,1,0,0,0,1.078-1.685ZM5.2,13.6a1,1,0,0,0,1.6-1.2ZM10,5V5Zm3.2,7.4a1,1,0,0,0,1.6,1.2ZM11,16l.994.11A.994.994,0,0,0,12,16ZM9,16H8a1,1,0,0,0,.006.11Zm.5,4.5h1a1,1,0,0,0-.006-.111Zm1,0-.994-.111A1,1,0,0,0,9.5,20.5Zm4.889-2.078a10,10,0,0,0,3.975-4.915l-1.873-.7a8,8,0,0,1-3.18,3.932Zm3.975-4.914A10,10,0,0,0,19.6,7.193l-1.92.561a8,8,0,0,1-.187,5.053ZM19.6,7.193A10,10,0,0,0,16,2L14.8,3.6a8,8,0,0,1,2.881,4.156ZM16,2a10,10,0,0,0-6-2V2a8,8,0,0,1,4.8,1.6ZM10,0A10,10,0,0,0,4,2L5.2,3.6A8,8,0,0,1,10,2ZM4,2A10,10,0,0,0,.4,7.193l1.92.561A8,8,0,0,1,5.2,3.6ZM.4,7.193a10,10,0,0,0,.234,6.317l1.873-.7a8,8,0,0,1-.187-5.053Zm.234,6.317a10,10,0,0,0,3.975,4.915l1.078-1.685a8,8,0,0,1-3.18-3.932ZM6.8,12.4a4,4,0,0,1-.784-2.041l-1.992.18A6,6,0,0,0,5.2,13.6Zm-.784-2.041a4,4,0,0,1,.406-2.148L4.633,7.318a6,6,0,0,0-.609,3.222Zm.406-2.148A4,4,0,0,1,7.9,6.6L6.846,4.9A6,6,0,0,0,4.633,7.318ZM7.9,6.6A4,4,0,0,1,10,6V4a6,6,0,0,0-3.154.9ZM10,6a4,4,0,0,1,2.1.6l1.052-1.7A6,6,0,0,0,10,4Zm2.1.6a4,4,0,0,1,1.475,1.614l1.789-.894A6,6,0,0,0,13.154,4.9Zm1.475,1.614a4,4,0,0,1,.406,2.148l1.992.18a6,6,0,0,0-.609-3.222Zm.406,2.148A4,4,0,0,1,13.2,12.4l1.6,1.2a6,6,0,0,0,1.176-3.061ZM10,10v2a2,2,0,0,0,2-2Zm0,0H8a2,2,0,0,0,2,2Zm0,0V8a2,2,0,0,0-2,2Zm0,0h2a2,2,0,0,0-2-2Zm2,6a2,2,0,0,0-.586-1.414L10,16h2Zm-.586-1.414A2,2,0,0,0,10,14v2h0ZM10,14a2,2,0,0,0-1.414.586L10,16h0Zm-1.414.586A2,2,0,0,0,8,16h2Zm-.58,1.525.5,4.5,1.988-.221-.5-4.5ZM8.5,20.5a1.5,1.5,0,0,0,.439,1.061l1.414-1.414a.5.5,0,0,1,.146.354Zm.439,1.061A1.5,1.5,0,0,0,10,22V20a.5.5,0,0,1,.354.146ZM10,22a1.5,1.5,0,0,0,1.061-.439L9.646,20.148A.5.5,0,0,1,10,20Zm1.061-.439A1.5,1.5,0,0,0,11.5,20.5h-2a.5.5,0,0,1,.146-.354Zm.433-.95.5-4.5-1.988-.221-.5,4.5Z" transform="translate(0)" fill="#09090b"/>
</svg>
