<svg id="popsicle" xmlns="http://www.w3.org/2000/svg" width="22.07" height="21.97" viewBox="0 0 22.07 21.97">
  <path id="Vector" d="M17.67,10.57l-.707.707h0Zm-8.1-8.1.707-.707h0ZM6.02,1V1ZM1,6.02H1ZM2.47,9.57l.707-.707h0Zm8.1,8.1-.707.707a.994.994,0,0,0,.093.082Zm9.793,4.007a1,1,0,1,0,1.414-1.414Zm-4.086-6.914a1,1,0,1,0-1.414,1.414Zm2.1-.686a2.933,2.933,0,0,0,0-4.214l-1.414,1.414a.935.935,0,0,1,0,1.386Zm0-4.214-8.1-8.1L8.863,3.178l8.1,8.1Zm-8.1-8.1A6.02,6.02,0,0,0,6.02,0V2A4.02,4.02,0,0,1,8.863,3.178ZM6.02,0A6.02,6.02,0,0,0,1.763,1.763L3.178,3.178A4.02,4.02,0,0,1,6.02,2ZM1.763,1.763A6.02,6.02,0,0,0,0,6.02H2A4.02,4.02,0,0,1,3.178,3.178ZM0,6.02a6.021,6.021,0,0,0,1.763,4.257L3.178,8.863A4.02,4.02,0,0,1,2,6.02Zm1.763,4.257,8.1,8.1,1.414-1.414-8.1-8.1ZM9.957,18.46a3.148,3.148,0,0,0,4.221-.182l-1.414-1.414a1.152,1.152,0,0,1-1.579.018Zm4.221-.182,4.2-4.2-1.414-1.414-4.2,4.2Zm7.6,1.986-5.5-5.5-1.414,1.414,5.5,5.5Z" fill="#09090b"/>
</svg>
