<svg id="pound-sterling" xmlns="http://www.w3.org/2000/svg" width="14" height="20" viewBox="0 0 14 20">
  <path id="Vector" d="M12,5a1,1,0,0,0,2,0ZM4,19a1,1,0,0,0,2,0ZM1,18a1,1,0,0,0,0,2Zm12,2a1,1,0,0,0,0-2ZM1,10a1,1,0,0,0,0,2Zm10,2a1,1,0,0,0,0-2Zm3-7a4.866,4.866,0,0,0-1.586-3.747A5.141,5.141,0,0,0,9,0,5.141,5.141,0,0,0,5.586,1.253,4.867,4.867,0,0,0,4,5H6a2.874,2.874,0,0,1,.914-2.252A3.144,3.144,0,0,1,9,2a3.144,3.144,0,0,1,2.086.747A2.874,2.874,0,0,1,12,5ZM4,5V19H6V5ZM1,20H13V18H1Zm0-8H11V10H1Z" transform="translate(0 0)" fill="#09090b"/>
</svg>
