<svg id="power" xmlns="http://www.w3.org/2000/svg" width="20" height="21.963" viewBox="0 0 20 21.963">
  <path id="Vector" d="M10.965,1a1,1,0,0,0-2,0Zm-2,10a1,1,0,0,0,2,0Zm8.107-6.107a1,1,0,0,0-1.415,1.414ZM4.307,6.343A1,1,0,0,0,2.883,4.938ZM8.965,1V11h2V1Zm6.693,5.307a8,8,0,0,1,2.187,4.09l1.961-.391a10,10,0,0,0-2.734-5.113Zm2.187,4.09a8,8,0,0,1-.45,4.616l1.849.763a10,10,0,0,0,.562-5.77Zm-.45,4.616A8,8,0,0,1,14.46,18.6l1.115,1.66a10,10,0,0,0,3.67-4.489ZM14.46,18.6a8,8,0,0,1-4.435,1.358l.006,2a10,10,0,0,0,5.543-1.7Zm-4.435,1.358a8,8,0,0,1-4.443-1.331L4.477,20.3a10,10,0,0,0,5.554,1.663ZM5.582,18.632A8,8,0,0,1,2.624,15.06L.78,15.834a10,10,0,0,0,3.7,4.466ZM2.624,15.06a8,8,0,0,1-.479-4.613L.181,10.067a10,10,0,0,0,.6,5.767Zm-.479-4.613a8,8,0,0,1,2.162-4.1L2.883,4.938a10,10,0,0,0-2.7,5.13Z" transform="translate(0)" fill="#09090b"/>
</svg>
