<svg id="power-off" xmlns="http://www.w3.org/2000/svg" width="22" height="22.052" viewBox="0 0 22 22.052">
  <path id="Vector" d="M18.067,4.933a1,1,0,1,0-1.414,1.414Zm.728,8.845a1,1,0,1,0,1.95.444ZM5.8,5.926A1,1,0,0,0,4.517,4.394Zm12.8,12.557A1,1,0,0,0,17.074,17.2ZM12,1a1,1,0,0,0-2,0ZM10,5a1,1,0,0,0,2,0ZM1.707.293A1,1,0,0,0,.293,1.707ZM20.293,21.707a1,1,0,0,0,1.414-1.414Zm-3.64-15.36a8,8,0,0,1,2.029,3.439L20.6,9.232a10,10,0,0,0-2.536-4.3Zm2.029,3.439a8,8,0,0,1,.114,3.992l1.95.444A10,10,0,0,0,20.6,9.232ZM4.517,4.394A10,10,0,0,0,1.978,7.632l1.794.884A8,8,0,0,1,5.8,5.926ZM1.978,7.632a10,10,0,0,0-1.02,3.986l2,.087a8,8,0,0,1,.816-3.189ZM.958,11.618a10,10,0,0,0,.671,4.059l1.864-.725A8,8,0,0,1,2.956,11.7Zm.671,4.059a10,10,0,0,0,2.249,3.446l1.414-1.414a8,8,0,0,1-1.8-2.757Zm2.249,3.446a10,10,0,0,0,3.446,2.249l.725-1.864a8,8,0,0,1-2.756-1.8Zm3.446,2.249a10,10,0,0,0,4.059.671l-.087-2a8,8,0,0,1-3.248-.537Zm4.059.671a10,10,0,0,0,3.986-1.02l-.884-1.794a8,8,0,0,1-3.189.816Zm3.986-1.02a10,10,0,0,0,3.238-2.539L17.074,17.2a8,8,0,0,1-2.59,2.031ZM10,1V5h2V1ZM.293,1.707l20,20,1.414-1.414-20-20Z" transform="translate(0)" fill="#09090b"/>
</svg>
