<svg id="puzzle" xmlns="http://www.w3.org/2000/svg" width="22.004" height="22.004" viewBox="0 0 22.004 22.004">
  <path id="Vector" d="M18.441,6.852,19.43,7V7Zm.289.878.707-.707h0ZM20.3,9.3l-.707.707h0Zm0,3.408.707.707h0Zm-1.611,1.611.707.707h0Zm-.837.276L18,13.6h0Zm-.968-.925-.938.347v0Zm-3.214,3.214.349-.937h0Zm.925.968L13.6,18h0Zm-.276.837-.707-.707h0Zm-1.61,1.61L12,19.59h0ZM11,21V20h0ZM9.3,20.3l.708-.706h0ZM7.73,18.73l-.708.706h0Zm-.877-.29-.147-.989h0Zm-1.02.968.932.363h0ZM2.6,16.171l-.362-.932h0Zm.967-1.02L2.574,15h0Zm-.289-.877.707-.707h0ZM1.706,12.706,2.413,12h0ZM1,11H1Zm.706-1.7L1,8.591H1ZM3.232,7.772l.707.707h0Zm.917-.3L4.3,6.48h0Zm1.073,1.01L4.3,8.856h0ZM8.481,5.22l.378-.926h0ZM7.471,4.147l-.989.147h0Zm.3-.917.707.707h0ZM9.3,1.705l.707.707h0ZM11,1V2h0Zm1.7.706L13.413,1Zm1.568,1.568-.707.707Zm.877.29.148.989h0Zm1.02-.968-.932-.363h0Zm3.237,3.237.362.932h0ZM17.452,6.7a2.025,2.025,0,0,0,.57,1.736l1.414-1.414A.025.025,0,0,1,19.43,7Zm.57,1.736,1.568,1.568,1.414-1.414L19.437,7.023Zm1.568,1.568A1.4,1.4,0,0,1,20,11h2a3.4,3.4,0,0,0-1-2.411ZM20,11a1.4,1.4,0,0,1-.413,1l1.414,1.414A3.4,3.4,0,0,0,22,11Zm-.413,1L17.98,13.61l1.414,1.414,1.611-1.611ZM17.98,13.609l.008,0,.626,1.9a1.98,1.98,0,0,0,.779-.48Zm.008,0H18L17.7,15.582a1.981,1.981,0,0,0,.912-.078Zm.009,0c.024,0,.014.014-.029-.03a.753.753,0,0,1-.149-.255l-1.874.7A2.322,2.322,0,0,0,17.7,15.582Zm-.178-.283a3.5,3.5,0,0,0-.986-1.426L15.522,13.4a1.5,1.5,0,0,1,.423.611Zm-.986-1.426a3.5,3.5,0,0,0-1.549-.778l-.427,1.954a1.5,1.5,0,0,1,.664.334Zm-1.549-.778a3.5,3.5,0,0,0-1.733.06l.562,1.919a1.5,1.5,0,0,1,.743-.026Zm-1.732.06a3.5,3.5,0,0,0-1.491.884l1.414,1.414a1.5,1.5,0,0,1,.639-.379Zm-1.491.884a3.5,3.5,0,0,0-.884,1.491l1.919.562a1.5,1.5,0,0,1,.379-.639Zm-.884,1.491a3.5,3.5,0,0,0-.06,1.733l1.954-.427a1.5,1.5,0,0,1,.026-.743Zm-.06,1.732a3.5,3.5,0,0,0,.778,1.549L13.4,15.522a1.5,1.5,0,0,1-.334-.664Zm.778,1.549a3.5,3.5,0,0,0,1.426.986l.695-1.875a1.5,1.5,0,0,1-.611-.423Zm1.424.985a.751.751,0,0,1,.255.149c.043.042.033.052.03.029l1.978-.294a2.318,2.318,0,0,0-1.565-1.758ZM13.6,18a.021.021,0,0,1,0-.01l1.9.626a1.978,1.978,0,0,0,.078-.912Zm0-.01a.02.02,0,0,1,.005-.008l1.414,1.414a1.978,1.978,0,0,0,.48-.78Zm.005-.008L12,19.59,13.414,21l1.61-1.61ZM12,19.591a1.4,1.4,0,0,1-.457.306l.766,1.847A3.4,3.4,0,0,0,13.415,21Zm-.457.306A1.4,1.4,0,0,1,11,20l0,2a3.4,3.4,0,0,0,1.307-.26ZM11,20a1.4,1.4,0,0,1-.538-.107L9.7,21.745A3.4,3.4,0,0,0,11,22Zm-.538-.107a1.4,1.4,0,0,1-.456-.305L8.59,21a3.4,3.4,0,0,0,1.107.741Zm-.457-.306L8.437,18.023,7.023,19.437l1.568,1.568ZM8.438,18.024a2.025,2.025,0,0,0-.8-.492l-.628,1.9a.025.025,0,0,1,.01.006Zm-.8-.492a2.025,2.025,0,0,0-.934-.08L7,19.429h.012Zm-.935-.08a2.4,2.4,0,0,0-1.8,1.6l1.865.723a.886.886,0,0,1,.175-.293A.192.192,0,0,1,7,19.429ZM4.9,19.045a1.5,1.5,0,0,1-.428.6L5.767,21.17a3.5,3.5,0,0,0,1-1.4Zm-.428.6a1.5,1.5,0,0,1-.662.324l.411,1.957a3.5,3.5,0,0,0,1.544-.755Zm-.662.324a1.5,1.5,0,0,1-.736-.03l-.57,1.917a3.5,3.5,0,0,0,1.717.071Zm-.736-.03a1.5,1.5,0,0,1-.633-.377L1.029,20.975a3.5,3.5,0,0,0,1.477.88Zm-.633-.377a1.5,1.5,0,0,1-.377-.633L.149,19.5a3.5,3.5,0,0,0,.88,1.477Zm-.377-.633a1.5,1.5,0,0,1-.03-.736L.078,17.781A3.5,3.5,0,0,0,.149,19.5Zm-.03-.736a1.5,1.5,0,0,1,.324-.662L.834,16.237a3.5,3.5,0,0,0-.755,1.544Zm.324-.662a1.5,1.5,0,0,1,.6-.428l-.726-1.864a3.5,3.5,0,0,0-1.4,1Zm.6-.427A2.4,2.4,0,0,0,4.552,15.3L2.574,15a.209.209,0,0,1-.047.059.885.885,0,0,1-.292.175Zm1.594-1.8a2.026,2.026,0,0,0-.08-.934l-1.9.626a.026.026,0,0,1,0,.012Zm-.08-.934a2.026,2.026,0,0,0-.491-.8L2.567,14.981a.026.026,0,0,1,.006.01Zm-.491-.8L2.413,12,1,13.413l1.568,1.568ZM2.412,12a1.4,1.4,0,0,1-.305-.456l-1.848.766A3.4,3.4,0,0,0,1,13.414Zm-.305-.456A1.4,1.4,0,0,1,2,11L0,11a3.4,3.4,0,0,0,.259,1.307ZM2,11a1.4,1.4,0,0,1,.413-1L1,8.591A3.4,3.4,0,0,0,0,11Zm.413-1L3.939,8.479,2.525,7.065,1,8.591ZM3.939,8.479A.075.075,0,0,1,4,8.458L4.3,6.48a2.075,2.075,0,0,0-1.771.585ZM4,8.458a.059.059,0,0,1,.021.008.322.322,0,0,1,.07.057,1.048,1.048,0,0,1,.2.333L6.148,8.1A2.492,2.492,0,0,0,4.3,6.48Zm.295.4a3.5,3.5,0,0,0,1.009,1.375L6.581,8.69A1.5,1.5,0,0,1,6.148,8.1Zm1.009,1.375a3.5,3.5,0,0,0,1.539.734l.4-1.96a1.5,1.5,0,0,1-.66-.315Zm1.539.734a3.5,3.5,0,0,0,1.7-.08L7.97,8.971a1.5,1.5,0,0,1-.73.034Zm1.7-.08a3.5,3.5,0,0,0,1.463-.876L8.6,8.6a1.5,1.5,0,0,1-.627.375Zm1.463-.876a3.5,3.5,0,0,0,.876-1.463L8.973,7.968A1.5,1.5,0,0,1,8.6,8.6Zm.876-1.463a3.5,3.5,0,0,0,.08-1.7l-1.96.4a1.5,1.5,0,0,1-.034.73Zm.08-1.7A3.5,3.5,0,0,0,10.233,5.3L8.692,6.579a1.5,1.5,0,0,1,.315.66ZM10.233,5.3A3.5,3.5,0,0,0,8.859,4.294L8.1,6.146a1.5,1.5,0,0,1,.589.433ZM8.858,4.294a1.048,1.048,0,0,1-.333-.2.322.322,0,0,1-.057-.07A.059.059,0,0,1,8.46,4l-1.978.3A2.492,2.492,0,0,0,8.1,6.146ZM8.46,4a.073.073,0,0,1,.021-.063L7.067,2.523a2.073,2.073,0,0,0-.585,1.771Zm.021-.063,1.525-1.525L8.592,1,7.067,2.523Zm1.526-1.526a1.4,1.4,0,0,1,.456-.3L9.7.259A3.4,3.4,0,0,0,8.591,1Zm.456-.3A1.4,1.4,0,0,1,11,2l0-2A3.4,3.4,0,0,0,9.7.259ZM11,2a1.4,1.4,0,0,1,1,.413L13.413,1A3.4,3.4,0,0,0,11,0Zm1,.413,1.568,1.568,1.414-1.414L13.413,1Zm1.568,1.568a2.027,2.027,0,0,0,1.732.572L15,2.575h-.011a.029.029,0,0,1-.011-.007Zm1.733.572a2.4,2.4,0,0,0,1.8-1.6l-1.865-.723a.889.889,0,0,1-.175.293A.187.187,0,0,1,15,2.575Zm1.8-1.594a1.5,1.5,0,0,1,.428-.6L16.237.834a3.5,3.5,0,0,0-1,1.4Zm.428-.6a1.5,1.5,0,0,1,.662-.324L17.781.078a3.5,3.5,0,0,0-1.544.755Zm.662-.324a1.5,1.5,0,0,1,.736.03L19.5.149A3.5,3.5,0,0,0,17.781.078Zm.736.03a1.5,1.5,0,0,1,.633.377l1.414-1.414A3.5,3.5,0,0,0,19.5.149Zm.633.377a1.5,1.5,0,0,1,.377.633l1.917-.57a3.5,3.5,0,0,0-.88-1.477Zm.377.633a1.5,1.5,0,0,1,.03.736l1.957.411a3.5,3.5,0,0,0-.071-1.717Zm.03.736a1.5,1.5,0,0,1-.324.662L21.17,5.767a3.5,3.5,0,0,0,.755-1.544Zm-.324.662a1.5,1.5,0,0,1-.6.428l.726,1.864a3.5,3.5,0,0,0,1.4-1Zm-.6.427a2.4,2.4,0,0,0-1.594,1.8L19.43,7a.223.223,0,0,1,.046-.058.89.89,0,0,1,.293-.175Z" transform="translate(0 0)" fill="#09090b"/>
</svg>
