<svg id="pyramid" xmlns="http://www.w3.org/2000/svg" width="21.997" height="22.002" viewBox="0 0 21.997 22.002">
  <path id="Vector" d="M1.5,15.88l-.5.864.008,0Zm-.32-1.43-.823-.569,0,0Zm9-13.02L9.356.858l0,0ZM11,1V1Zm.82.428.822-.569,0,0Zm9,13.01-.823.569,0,0Zm-.32,1.44.5.868,0,0Zm-8.51,4.86.495.869h0Zm-1.98,0-.5.868h0ZM12,1a1,1,0,0,0-2,0ZM10,21a1,1,0,0,0,2,0ZM2,15.017H2L.385,16.2a2,2,0,0,0,.606.547Zm0,0H2l-1.952.437a2,2,0,0,0,.337.744Zm0,0H2l-1.964-.38a2,2,0,0,0,.012.816Zm0,0H2L.352,13.884a2,2,0,0,0-.315.753Zm0,0L11,2,9.353.861l-9,13.02ZM11,2h0L10.071.229a2,2,0,0,0-.715.629Zm0,0h0V0a2,2,0,0,0-.925.227Zm0,0h0L11.921.229A2,2,0,0,0,11,0Zm0,0h0L12.636.858a2,2,0,0,0-.715-.629Zm0,0,9,13.01,1.645-1.138-9-13.01Zm9,13.015h0l1.962-.39a2,2,0,0,0-.323-.757Zm0,0h0l1.952.434a2,2,0,0,0,.009-.823Zm0,0h0L21.609,16.2a2,2,0,0,0,.34-.75Zm0,0h0l1,1.733a2,2,0,0,0,.614-.549Zm0,0-8.51,4.86.992,1.737,8.51-4.86Zm-8.509,4.86A1,1,0,0,1,11,20v2a3,3,0,0,0,1.485-.393ZM11,20a1,1,0,0,1-.495-.131l-.99,1.738A3,3,0,0,0,11,22Zm-.494-.131-8.51-4.86L1,16.748l8.51,4.86ZM10,1V21h2V1Z" transform="translate(0)" fill="#09090b"/>
</svg>
