<svg id="qr-code" xmlns="http://www.w3.org/2000/svg" width="20" height="20.01" viewBox="0 0 20 20.01">
  <path id="Vector" d="M19,15a1,1,0,0,0,0-2Zm-3-1v0Zm-2,2h0Zm-1,3a1,1,0,0,0,2,0Zm7,0a1,1,0,0,0-2,0Zm-2,.01a1,1,0,0,0,2,0ZM11,5A1,1,0,0,0,9,5ZM5,9a1,1,0,0,0,0,2ZM1,9a1,1,0,0,0,0,2Zm.01,2a1,1,0,0,0,0-2ZM10,0a1,1,0,0,0,0,2Zm.01,2a1,1,0,0,0,0-2ZM11,14a1,1,0,0,0-2,0Zm-2,.01a1,1,0,0,0,2,0ZM14,9a1,1,0,0,0,0,2Zm1,2a1,1,0,0,0,0-2Zm5-1a1,1,0,0,0-2,0Zm-2,.01a1,1,0,0,0,2,0ZM9,19a1,1,0,0,0,2,0Zm2-1a1,1,0,0,0-2,0ZM2,2H5V0H2ZM5,2H7A2,2,0,0,0,5,0ZM5,2V5H7V2ZM5,5V7A2,2,0,0,0,7,5ZM5,5H2V7H5ZM2,5H0A2,2,0,0,0,2,7ZM2,5V2H0V5ZM2,2V0A2,2,0,0,0,0,2ZM15,2h3V0H15Zm3,0h2a2,2,0,0,0-2-2Zm0,0V5h2V2Zm0,3V7a2,2,0,0,0,2-2Zm0,0H15V7h3ZM15,5H13a2,2,0,0,0,2,2Zm0,0V2H13V5Zm0-3V0a2,2,0,0,0-2,2ZM2,15H5V13H2Zm3,0H7a2,2,0,0,0-2-2Zm0,0v3H7V15Zm0,3v2a2,2,0,0,0,2-2Zm0,0H2v2H5ZM2,18H0a2,2,0,0,0,2,2Zm0,0V15H0v3Zm0-3V13a2,2,0,0,0-2,2Zm17-2H16v2h3Zm-3,0a3,3,0,0,0-2.121.879l1.414,1.414A1,1,0,0,1,16,15Zm-2.121.879A3,3,0,0,0,13,16h2a1,1,0,0,1,.293-.707ZM13,16v3h2V16Zm5,3v.01h2V19ZM9,5V8h2V5ZM9,8a1,1,0,0,1-.293.707l1.414,1.414A3,3,0,0,0,11,8Zm-.293.707A1,1,0,0,1,8,9v2a3,3,0,0,0,2.121-.879ZM8,9H5v2H8ZM1,11h.01V9H1Zm9-9h.01V0H10ZM9,14v.01h2V14Zm5-3h1V9H14Zm4-1v.01h2V10Zm-7,9V18H9v1Z" fill="#09090b"/>
</svg>
