<svg id="rabbit" xmlns="http://www.w3.org/2000/svg" width="22" height="21" viewBox="0 0 22 21">
  <path id="Vector" d="M12,14a1,1,0,0,0,0,2Zm1.5,5.333a1,1,0,0,0,1.491,1.333ZM17,10a1,1,0,0,0,0,2Zm.01,2a1,1,0,0,0,0-2ZM17,21a1,1,0,0,0,0-2ZM5,16H5Zm7-7V9Zm.2,0v1a1,1,0,0,0,.707-1.707ZM8.6,5.4l.707-.707h0ZM10,2.02v0Zm1.4.58-.707.707h0ZM14.8,6l-.707.707A1,1,0,0,0,14.8,7ZM18,15v0Zm-4,3a1,1,0,1,0,2,0ZM18,7.54a1,1,0,0,0,2,0ZM17,1V1ZM15,3h0ZM5.741,12.016a1,1,0,1,0,1.741-.984Zm-.392,4.749a1,1,0,1,0-.675-1.883ZM12,16a2,2,0,0,1,1.089.321l1.086-1.679A4,4,0,0,0,12,14Zm1.089.321a2,2,0,0,1,.739.862l1.825-.818a4,4,0,0,0-1.478-1.723Zm.739.862a2,2,0,0,1,.151,1.125l1.976.307a4,4,0,0,0-.3-2.25Zm.151,1.125a2,2,0,0,1-.486,1.026l1.491,1.333a4,4,0,0,0,.971-2.052ZM17,12h.01V10H17Zm0,7H9v2h8ZM9,19a3,3,0,0,1-2.121-.879L5.464,19.535A5,5,0,0,0,9,21Zm-2.121-.879A3,3,0,0,1,6,16H4a5,5,0,0,0,1.464,3.536ZM6,16a6,6,0,0,1,1.757-4.243L6.343,10.343A8,8,0,0,0,4,16Zm1.757-4.243A6,6,0,0,1,12,10V8a8,8,0,0,0-5.657,2.343ZM12,10h.2V8H12Zm.907-1.707-3.6-3.6L7.893,6.107l3.6,3.6Zm-3.6-3.6a.98.98,0,0,1-.212-.318L7.247,5.14a2.98,2.98,0,0,0,.646.967Zm-.212-.318A.98.98,0,0,1,9.02,4h-2a2.98,2.98,0,0,0,.227,1.14ZM9.02,4a.98.98,0,0,1,.287-.693L7.893,1.893A2.98,2.98,0,0,0,7.02,4Zm.287-.693A.98.98,0,0,1,10,3.02v-2a2.98,2.98,0,0,0-2.107.873ZM10,3.02a.98.98,0,0,1,.375.075l.765-1.848A2.98,2.98,0,0,0,10,1.02Zm.375.075a.98.98,0,0,1,.318.212l1.414-1.414a2.98,2.98,0,0,0-.967-.646Zm.318.212,3.4,3.4,1.414-1.414-3.4-3.4ZM14.8,7H15V5h-.2ZM15,7a5.018,5.018,0,0,1,5,5h2a7.018,7.018,0,0,0-7-7Zm5,5v1h2V12Zm0,1a1,1,0,0,1-.293.707l1.414,1.414A3,3,0,0,0,22,13Zm-.293.707A1,1,0,0,1,19,14v2a3,3,0,0,0,2.121-.879ZM19,14H18v2h1Zm-1,0a4,4,0,0,0-2.828,1.172l1.414,1.414A2,2,0,0,1,18,16Zm-2.828,1.172A4,4,0,0,0,14,18h2a2,2,0,0,1,.586-1.414ZM20,7.54V3H18V7.54ZM20,3A3,3,0,0,0,19.121.879L17.707,2.293A1,1,0,0,1,18,3ZM19.121.879A3,3,0,0,0,17,0V2a1,1,0,0,1,.707.293ZM17,0a3,3,0,0,0-2.121.879l1.414,1.414A1,1,0,0,1,17,2ZM14.879.879A3,3,0,0,0,14,3h2a1,1,0,0,1,.293-.707ZM14,3V6h2V3ZM7.483,11.032a4,4,0,0,0-1.6-1.564l-.939,1.766a2,2,0,0,1,.8.782Zm-1.6-1.564a4,4,0,0,0-2.194-.456l.158,1.994a2,2,0,0,1,1.1.228ZM3.684,9.012a4,4,0,0,0-2.095.8l1.205,1.6a2,2,0,0,1,1.047-.4Zm-2.095.8A4,4,0,0,0,.251,11.6l1.874.7a2,2,0,0,1,.669-.9ZM.251,11.6A4,4,0,0,0,.089,13.84l1.955-.42A2,2,0,0,1,2.126,12.3ZM.089,13.84a4,4,0,0,0,1.065,1.971l1.423-1.406a2,2,0,0,1-.533-.986Zm1.065,1.971A4,4,0,0,0,3.113,16.9l.444-1.95a2,2,0,0,1-.979-.545ZM3.113,16.9a4,4,0,0,0,2.237-.135l-.675-1.883a2,2,0,0,1-1.118.067Z" transform="translate(0)" fill="#09090b"/>
</svg>
