<svg id="radius" xmlns="http://www.w3.org/2000/svg" width="22" height="22" viewBox="0 0 22 22">
  <path id="Vector" d="M18.505,15.967a1,1,0,1,0,1.668,1.1Zm-1.434,4.206a1,1,0,1,0-1.1-1.668ZM13.116,11.7A1,1,0,1,0,11.7,13.116ZM15.882,17.3A1,1,0,0,0,17.3,15.882Zm4.291-.225a11,11,0,0,0,1.7-7.721l-1.977.3a9,9,0,0,1-1.393,6.317Zm1.7-7.721A11,11,0,0,0,17.96,2.482L16.694,4.03a9,9,0,0,1,3.2,5.62ZM17.96,2.482A11,11,0,0,0,10.448.014l.1,2A9,9,0,0,1,16.694,4.03ZM10.448.014A11,11,0,0,0,3.222,3.222L4.636,4.636a9,9,0,0,1,5.912-2.625ZM3.222,3.222A11,11,0,0,0,.014,10.448l2,.1A9,9,0,0,1,4.636,4.636ZM.014,10.448A11,11,0,0,0,2.482,17.96L4.03,16.694a9,9,0,0,1-2.019-6.146ZM2.482,17.96A11,11,0,0,0,9.35,21.876l.3-1.977a9,9,0,0,1-5.62-3.2ZM9.35,21.876a11,11,0,0,0,7.721-1.7l-1.1-1.668A9,9,0,0,1,9.65,19.9ZM19,18a1,1,0,0,1-1,1v2a3,3,0,0,0,3-3Zm-1,1a1,1,0,0,1-1-1H15a3,3,0,0,0,3,3Zm-1-1a1,1,0,0,1,1-1V15a3,3,0,0,0-3,3Zm1-1a1,1,0,0,1,1,1h2a3,3,0,0,0-3-3Zm-6.3-3.883,4.18,4.18L17.3,15.882l-4.18-4.18ZM12,11a1,1,0,0,1-1,1v2a3,3,0,0,0,3-3Zm-1,1a1,1,0,0,1-1-1H8a3,3,0,0,0,3,3Zm-1-1a1,1,0,0,1,1-1V8a3,3,0,0,0-3,3Zm1-1a1,1,0,0,1,1,1h2a3,3,0,0,0-3-3Z" transform="translate(0 0)" fill="#09090b"/>
</svg>
