<svg id="radiation" xmlns="http://www.w3.org/2000/svg" width="22.013" height="20.351" viewBox="0 0 22.013 20.351">
  <path id="Vector" d="M11.013,8.351a1,1,0,1,0,0,2Zm.01,2a1,1,0,0,0,0-2Zm-4.51-8.8.874-.486-.017-.029Zm-1.3-.4.594.8.006,0Zm-4.2,7.2.981.2Q2,8.5,2.008,8.453Zm6,1v1a1,1,0,0,0,1-1Zm2-3.4.447.894a1,1,0,0,0,.418-1.4Zm12,2.4h1a1.01,1.01,0,0,0-.005-.1Zm-4.1-7.1-.6.8.029.021Zm-1.3.3.832.555a1,1,0,0,0,.1-.183Zm-2.6,4.3-.853-.521a1,1,0,0,0,.349,1.385Zm2,3.5h-1a1,1,0,0,0,1,1Zm-8.5,7.8.857.514.017-.029Zm.4,1.3.419-.908-.048-.021Zm8.2,0-.371-.928-.048.021Zm.4-1.3-.874.486.017.029Zm-2.5-4.3.853-.521a1,1,0,0,0-1.357-.342Zm-4,0,.5-.864a1,1,0,0,0-1.357.342Zm2-2.5h.01v-2h-.01ZM7.371,1.036A1.916,1.916,0,0,0,4.613.351l1.2,1.6a.3.3,0,0,1-.138.057A.181.181,0,0,1,5.6,2a.18.18,0,0,1,.056.061ZM4.619.346a11.367,11.367,0,0,0-4.6,7.9l1.989.206a9.368,9.368,0,0,1,3.8-6.5ZM.033,8.154A1.764,1.764,0,0,0,.544,9.745a2.087,2.087,0,0,0,1.47.605v-2a.09.09,0,0,1-.035-.007l-.015-.008-.006,0a.067.067,0,0,1,.008.01.184.184,0,0,1,.018.038.319.319,0,0,1,.01.168Zm1.981,2.2h5v-2h-5Zm6-1A2.758,2.758,0,0,1,9.461,6.845L8.566,5.056A4.755,4.755,0,0,0,6.013,9.351Zm1.865-3.9C8.782,3.555,7.885,1.96,7.388,1.065l-1.748.971c.5.9,1.406,2.51,2.509,4.415Zm10.134,4.9a1.942,1.942,0,0,0,2-2h-2a.169.169,0,0,1-.005.05.071.071,0,0,1,.006-.012.13.13,0,0,1,.037-.037l.012-.006a.169.169,0,0,1-.05.005Zm1.995-2.1A10.852,10.852,0,0,0,17.484.43L16.342,2.072a8.852,8.852,0,0,1,3.676,6.382ZM17.513.451A1.925,1.925,0,0,0,15.992.12a1.757,1.757,0,0,0-1.307,1.059l1.857.743a.305.305,0,0,1-.1.129.157.157,0,0,1-.06.031h-.011a.157.157,0,0,1-.06-.031ZM14.781,1c-.611.917-1.556,2.591-2.621,4.333l1.707,1.043C15,4.515,15.857,2.988,16.445,2.105ZM12.509,6.714a3.033,3.033,0,0,1,1.5,2.636h2a5.033,5.033,0,0,0-2.5-4.364Zm2.5,3.636h5v-2h-5ZM5.656,16.636a1.882,1.882,0,0,0,.886,2.743l.743-1.857a.149.149,0,0,1,.082.09.125.125,0,0,1,0,.053Zm.838,2.722a10.789,10.789,0,0,0,9.038,0l-.838-1.816a8.789,8.789,0,0,1-7.362,0Zm8.99.021a1.882,1.882,0,0,0,.886-2.743l-1.715,1.029a.129.129,0,0,1,0-.053.149.149,0,0,1,.082-.09Zm.9-2.714c-.5-.906-1.411-2.519-2.521-4.336L12.16,13.372c1.09,1.783,1.982,3.37,2.479,4.264Zm-3.878-4.678a3.073,3.073,0,0,1-2.992,0L8.509,13.714a5.071,5.071,0,0,0,5.008,0Zm-4.349.342c-1.11,1.817-2.018,3.43-2.521,4.336l1.748.971c.5-.895,1.389-2.481,2.479-4.264Z" transform="translate(0 0)" fill="#09090b"/>
</svg>
