<svg id="rainbow" xmlns="http://www.w3.org/2000/svg" width="22" height="12" viewBox="0 0 22 12">
  <path id="Vector" d="M20,11a1,1,0,0,0,2,0ZM0,11a1,1,0,0,0,2,0Zm4,0a1,1,0,0,0,2,0Zm7-6V5Zm5,6a1,1,0,0,0,2,0ZM8,11a1,1,0,0,0,2,0Zm3-2V9Zm1,2a1,1,0,0,0,2,0Zm10,0a11,11,0,0,0-3.222-7.778L17.364,4.636A9,9,0,0,1,20,11ZM18.778,3.222A11,11,0,0,0,11,0V2a9,9,0,0,1,6.364,2.636ZM11,0A11,11,0,0,0,3.222,3.222L4.636,4.636A9,9,0,0,1,11,2ZM3.222,3.222A11,11,0,0,0,0,11H2A9,9,0,0,1,4.636,4.636ZM6,11A5,5,0,0,1,7.464,7.464L6.05,6.05A7,7,0,0,0,4,11ZM7.464,7.464A5,5,0,0,1,11,6V4A7,7,0,0,0,6.05,6.05ZM11,6a5,5,0,0,1,3.535,1.464L15.95,6.05A7,7,0,0,0,11,4Zm3.535,1.464A5,5,0,0,1,16,11h2a7,7,0,0,0-2.05-4.95ZM10,11a1,1,0,0,1,.293-.707L8.879,8.879A3,3,0,0,0,8,11Zm.293-.707A1,1,0,0,1,11,10V8a3,3,0,0,0-2.121.879ZM11,10a1,1,0,0,1,.707.293l1.414-1.414A3,3,0,0,0,11,8Zm.707.293A1,1,0,0,1,12,11h2a3,3,0,0,0-.879-2.121Z" fill="#09090b"/>
</svg>
