<svg id="rat" xmlns="http://www.w3.org/2000/svg" width="21.913" height="22" viewBox="0 0 21.913 22">
  <path id="Vector" d="M15,4a1,1,0,0,0,2,0ZM10.8,6V7a1,1,0,0,0,.707-1.707ZM7,18a1,1,0,0,0,0-2ZM15.093,2.193a1,1,0,0,0,1.414,1.414ZM16.8,2.2l-.371-.928q-.039.015-.076.034Zm2.3,5.5-.371-.928a1,1,0,0,0-.5,1.425Zm1.6,2.8-.868.5q.017.03.036.059Zm.2,1,.97.243a1,1,0,0,0,.03-.243Zm-1.7,1.1-.184.983.06.009ZM16.5,12l.263-.965A1,1,0,0,0,16.5,11ZM12,15a1,1,0,0,0,2,0Zm-.545,1.333a1,1,0,1,0,1.491,1.333ZM10.012,11a1,1,0,1,0-.024,2ZM12,22a1,1,0,0,0,0-2ZM1,19H1Zm14-1a1,1,0,0,0,0-2ZM15,7a1,1,0,0,0,0,2Zm.01,2a1,1,0,0,0,0-2ZM17,4a3.946,3.946,0,0,0-4-4V2a1.947,1.947,0,0,1,2,2ZM13,0A3.946,3.946,0,0,0,9,4h2a1.947,1.947,0,0,1,2-2ZM9,4a3.792,3.792,0,0,0,1.093,2.707l1.414-1.414A1.793,1.793,0,0,1,11,4Zm1.8,1H10V7h.8ZM10,5a7.957,7.957,0,0,0-8,8H4a5.957,5.957,0,0,1,6-6ZM2,13a5.012,5.012,0,0,0,5,5V16a3.012,3.012,0,0,1-3-3ZM16.507,3.607a2.6,2.6,0,0,1,.74-.513l-.894-1.789a4.585,4.585,0,0,0-1.26.887Zm.664-.479a2.022,2.022,0,0,1,2.6,1.043l1.857-.743a4.021,4.021,0,0,0-5.2-2.157Zm2.6,1.043a2.022,2.022,0,0,1-1.043,2.6l.743,1.857a4.021,4.021,0,0,0,2.157-5.2ZM18.232,8.2l1.6,2.8L21.568,10l-1.6-2.8Zm1.636,2.859c-.013-.019,0,0,.017.087a2.606,2.606,0,0,1,.015.359h2a2.748,2.748,0,0,0-.368-1.555Zm.062.2a.429.429,0,0,1-.185.282.639.639,0,0,1-.421.068l-.248,1.985a2.464,2.464,0,0,0,2.794-1.85ZM19.2,12.6l.184-.983h0l-.013,0-.051-.01-.192-.037c-.164-.032-.394-.078-.658-.133-.532-.111-1.184-.257-1.7-.4l-.526,1.929c.58.158,1.278.313,1.821.427.274.057.512.1.683.138l.2.039.055.01.014,0h.005L19.2,12.6ZM16.5,11H16v2h.5ZM16,11a3.946,3.946,0,0,0-4,4h2a1.947,1.947,0,0,1,2-2Zm-3.055,6.667a4,4,0,0,0,.969-2.039l-1.975-.314a2,2,0,0,1-.485,1.019Zm.969-2.039a4,4,0,0,0-.289-2.239l-1.831.806a2,2,0,0,1,.144,1.12Zm-.289-2.239a4,4,0,0,0-1.455-1.726l-1.1,1.668a2,2,0,0,1,.728.863ZM12.17,11.663A4,4,0,0,0,10.012,11l-.024,2a2,2,0,0,1,1.079.332ZM12,20H3v2h9ZM3,20a1,1,0,0,1-.707-.293L.879,21.121A3,3,0,0,0,3,22Zm-.707-.293A1,1,0,0,1,2,19H0a3,3,0,0,0,.879,2.121ZM2,19a1,1,0,0,1,.293-.707L.879,16.879A3,3,0,0,0,0,19Zm.293-.707A1,1,0,0,1,3,18V16a3,3,0,0,0-2.121.879ZM3,18H15V16H3ZM15,9h.01V7H15Z" fill="#09090b"/>
</svg>
