<svg id="receipt-japanese-yen" xmlns="http://www.w3.org/2000/svg" width="18" height="22" viewBox="0 0 18 22">
  <path id="Vector" d="M1,1,1.447.106A1,1,0,0,0,0,1ZM1,21H0a1,1,0,0,0,1.447.894Zm2-1,.447-.894a1,1,0,0,0-.894,0Zm2,1-.447.894a1,1,0,0,0,.894,0Zm2-1,.447-.894a1,1,0,0,0-.894,0Zm2,1-.447.894a1,1,0,0,0,.894,0Zm2-1,.447-.894a1,1,0,0,0-.894,0Zm2,1-.447.894a1,1,0,0,0,.894,0Zm2-1,.447-.894a1,1,0,0,0-.894,0Zm2,1-.447.894A1,1,0,0,0,18,21ZM17,1h1A1,1,0,0,0,16.553.106ZM15,2l-.447.894a1,1,0,0,0,.894,0ZM13,1l.447-.894a1,1,0,0,0-.894,0ZM11,2l-.447.894a1,1,0,0,0,.894,0ZM9,1,9.447.106a1,1,0,0,0-.894,0ZM7,2l-.447.894a1,1,0,0,0,.894,0ZM5,1,5.447.106a1,1,0,0,0-.894,0ZM3,2l-.447.894a1,1,0,0,0,.894,0Zm9.707,4.707a1,1,0,0,0-1.414-1.414Zm-6-1.414A1,1,0,0,0,5.293,6.707ZM8,16.5a1,1,0,0,0,2,0ZM6,9a1,1,0,0,0,0,2Zm6,2a1,1,0,0,0,0-2ZM6,13a1,1,0,0,0,0,2Zm6,2a1,1,0,0,0,0-2ZM0,1V21H2V1ZM1.447,21.894l2-1-.894-1.789-2,1Zm1.106-1,2,1,.894-1.789-2-1Zm2.894,1,2-1-.894-1.789-2,1Zm1.106-1,2,1,.894-1.789-2-1Zm2.894,1,2-1-.894-1.789-2,1Zm1.106-1,2,1,.894-1.789-2-1Zm2.894,1,2-1-.894-1.789-2,1Zm1.106-1,2,1,.894-1.789-2-1ZM18,21V1H16V21ZM16.553.106l-2,1,.894,1.789,2-1Zm-1.106,1-2-1-.894,1.789,2,1Zm-2.894-1-2,1,.894,1.789,2-1Zm-1.106,1-2-1L8.553,1.894l2,1Zm-2.894-1-2,1,.894,1.789,2-1Zm-1.106,1-2-1L4.553,1.894l2,1Zm-2.894-1-2,1,.894,1.789,2-1Zm-1.106,1-2-1L.553,1.894l2,1Zm6.26,8.6,3-3L11.293,5.293l-3,3Zm-4.414-3,3,3L9.707,8.293l-3-3ZM8,9v7.5h2V9ZM6,11h6V9H6Zm0,4h6V13H6Z" transform="translate(0 0)" fill="#09090b"/>
</svg>
