<svg id="redo-2" xmlns="http://www.w3.org/2000/svg" width="18" height="18" viewBox="0 0 18 18">
  <path id="Vector" d="M11.293,10.293a1,1,0,0,0,1.414,1.414ZM17,6l.707.707a1,1,0,0,0,0-1.414ZM12.707.293a1,1,0,0,0-1.414,1.414ZM1,11.5H1ZM6.5,17v0ZM10,18a1,1,0,0,0,0-2Zm2.707-6.293,5-5L16.293,5.293l-5,5Zm5-6.414-5-5L11.293,1.707l5,5ZM17,5H6.5V7H17ZM6.5,5A6.5,6.5,0,0,0,1.9,6.9L3.318,8.318A4.5,4.5,0,0,1,6.5,7ZM1.9,6.9A6.5,6.5,0,0,0,0,11.5H2A4.5,4.5,0,0,1,3.318,8.318ZM0,11.5a6.5,6.5,0,0,0,.495,2.487l1.848-.765A4.5,4.5,0,0,1,2,11.5Zm.495,2.487A6.5,6.5,0,0,0,1.9,16.1l1.414-1.414a4.5,4.5,0,0,1-.975-1.46ZM1.9,16.1A6.5,6.5,0,0,0,6.5,18V16a4.5,4.5,0,0,1-3.182-1.318ZM6.5,18H10V16H6.5Z" fill="#09090b"/>
</svg>
