<svg id="refresh-ccw" xmlns="http://www.w3.org/2000/svg" width="20" height="20" viewBox="0 0 20 20">
  <path id="Vector" d="M18,10a1,1,0,0,0,2,0ZM10,1V0h0ZM3.26,3.74l-.7-.719-.012.012ZM1,6H0A1,1,0,0,0,1,7ZM2,1A1,1,0,0,0,0,1ZM6,7A1,1,0,0,0,6,5ZM2,10a1,1,0,0,0-2,0Zm8,9v1h0Zm6.74-2.74.695.719.012-.012ZM19,14h1a1,1,0,0,0-1-1Zm-5-1a1,1,0,0,0,0,2Zm4,6a1,1,0,1,0,2,0Zm2-9a10,10,0,0,0-2.929-7.071L15.657,4.343A8,8,0,0,1,18,10ZM17.071,2.929A10,10,0,0,0,10,0V2a8,8,0,0,1,5.657,2.343ZM10,0A10.75,10.75,0,0,0,2.565,3.021l1.39,1.438A8.75,8.75,0,0,1,10,2ZM2.553,3.033.293,5.293,1.707,6.707l2.26-2.26ZM0,1V6H2V1ZM1,7H6V5H1ZM0,10a10,10,0,0,0,2.929,7.071l1.414-1.414A8,8,0,0,1,2,10Zm2.929,7.071A10,10,0,0,0,10,20V18a8,8,0,0,1-5.657-2.343ZM10,20a10.75,10.75,0,0,0,7.431-3.021l-1.39-1.438A8.75,8.75,0,0,1,10,18Zm7.443-3.033,2.26-2.26-1.414-1.414-2.26,2.26ZM14,15h5V13H14Zm4-1v5h2V14Z" fill="#09090b"/>
</svg>
