<svg id="refresh-ccw-dot" xmlns="http://www.w3.org/2000/svg" width="20" height="22" viewBox="0 0 20 22">
  <path id="Vector" d="M2,1A1,1,0,0,0,0,1ZM1,7H0A1,1,0,0,0,1,8ZM7,8A1,1,0,0,0,7,6Zm11,3a1,1,0,0,0,2,0ZM4,4.3l-.667-.745,0,0ZM18,21a1,1,0,0,0,2,0Zm1-6h1a1,1,0,0,0-1-1Zm-6-1a1,1,0,0,0,0,2ZM2,11a1,1,0,0,0-2,0Zm14,6.7.667.745,0,0ZM0,1V7H2V1ZM1,8H7V6H1Zm19,3a10,10,0,0,0-1.612-5.436L16.71,6.652A8,8,0,0,1,18,11ZM18.388,5.563a10,10,0,0,0-4.309-3.685L13.263,3.7A8,8,0,0,1,16.71,6.652ZM14.078,1.878a10,10,0,0,0-5.62-.75L8.766,3.1a8,8,0,0,1,4.5.6Zm-5.62-.75A10,10,0,0,0,3.333,3.555L4.667,5.045A8,8,0,0,1,8.766,3.1ZM3.331,3.557l-3,2.7L1.669,7.743l3-2.7ZM20,21V15H18v6Zm-1-7H13v2h6ZM0,11a10,10,0,0,0,1.613,5.436L3.29,15.348A8,8,0,0,1,2,11Zm1.613,5.436a10,10,0,0,0,4.309,3.685L6.737,18.3A8,8,0,0,1,3.29,15.348Zm4.309,3.685a10,10,0,0,0,5.62.75L11.234,18.9a8,8,0,0,1-4.5-.6Zm5.62.75a10,10,0,0,0,5.125-2.427l-1.333-1.491a8,8,0,0,1-4.1,1.941Zm5.127-2.429,3-2.7-1.338-1.487-3,2.7ZM10,11v2a2,2,0,0,0,2-2Zm0,0H8a2,2,0,0,0,2,2Zm0,0V9a2,2,0,0,0-2,2Zm0,0h2a2,2,0,0,0-2-2Z" transform="translate(0)" fill="#09090b"/>
</svg>
