<svg id="regex" xmlns="http://www.w3.org/2000/svg" width="20.33" height="20" viewBox="0 0 20.33 20">
  <path id="Vector" d="M16,1a1,1,0,0,0-2,0ZM14,11a1,1,0,0,0,2,0ZM11.17,2.634a1,1,0,0,0-1,1.732Zm7.66,6.732a1,1,0,0,0,1-1.732ZM10.17,7.634a1,1,0,0,0,1,1.732Zm9.66-3.268a1,1,0,0,0-1-1.732ZM1,15H1Zm0,2H1ZM14,1V11h2V1ZM10.17,4.366l8.66,5,1-1.732-8.66-5Zm1,5,8.66-5-1-1.732-8.66,5ZM8,15a3,3,0,0,0-.879-2.121L5.707,14.293A1,1,0,0,1,6,15Zm-.879-2.121A3,3,0,0,0,5,12v2a1,1,0,0,1,.707.293ZM5,12H3v2H5ZM3,12a3,3,0,0,0-2.121.879l1.414,1.414A1,1,0,0,1,3,14Zm-2.121.879A3,3,0,0,0,0,15H2a1,1,0,0,1,.293-.707ZM0,15v2H2V15Zm0,2a3,3,0,0,0,.879,2.121l1.414-1.414A1,1,0,0,1,2,17Zm.879,2.121A3,3,0,0,0,3,20V18a1,1,0,0,1-.707-.293ZM3,20H5V18H3Zm2,0a3,3,0,0,0,2.121-.879L5.707,17.707A1,1,0,0,1,5,18Zm2.121-.879A3,3,0,0,0,8,17H6a1,1,0,0,1-.293.707ZM8,17V15H6v2Z" fill="#09090b"/>
</svg>
