<svg id="remove-formatting" xmlns="http://www.w3.org/2000/svg" width="18" height="18" viewBox="0 0 18 18">
  <path id="Vector" d="M0,4A1,1,0,0,0,2,4ZM1,1V0A1,1,0,0,0,0,1ZM17,1h1a1,1,0,0,0-1-1ZM16,4a1,1,0,0,0,2,0ZM2,16a1,1,0,0,0,0,2Zm6,2a1,1,0,0,0,0-2ZM10.954,1.3A1,1,0,1,0,9.046.7ZM4.046,16.7a1,1,0,1,0,1.909.6Zm8.662-5.409a1,1,0,1,0-1.414,1.414Zm3.586,6.414a1,1,0,0,0,1.414-1.414Zm1.414-5a1,1,0,1,0-1.414-1.414Zm-6.414,3.586a1,1,0,0,0,1.414,1.414ZM2,4V1H0V4ZM1,2H17V0H1ZM16,1V4h2V1ZM2,18H8V16H2ZM9.046.7l-5,16,1.909.6,5-16Zm2.247,12.005,5,5,1.414-1.414-5-5Zm5-1.414-5,5,1.414,1.414,5-5Z" transform="translate(0 0)" fill="#09090b"/>
</svg>
