<svg id="repeat-2" xmlns="http://www.w3.org/2000/svg" width="22" height="14" viewBox="0 0 22 14">
  <path id="Vector" d="M.293,3.293A1,1,0,0,0,1.707,4.707ZM4,1,4.707.293a1,1,0,0,0-1.414,0ZM6.293,4.707A1,1,0,0,0,7.707,3.293ZM12,14a1,1,0,0,0,0-2ZM4,11H4Zm17.707-.293a1,1,0,0,0-1.414-1.414ZM18,13l-.707.707a1,1,0,0,0,1.414,0ZM15.707,9.293a1,1,0,0,0-1.414,1.414ZM10,0a1,1,0,0,0,0,2Zm6,1V1ZM1.707,4.707l3-3L3.293.293l-3,3Zm1.586-3,3,3L7.707,3.293l-3-3ZM12,12H6v2h6ZM6,12a1,1,0,0,1-.707-.293L3.879,13.121A3,3,0,0,0,6,14Zm-.707-.293A1,1,0,0,1,5,11H3a3,3,0,0,0,.879,2.121ZM5,11V1H3V11ZM20.293,9.293l-3,3,1.414,1.414,3-3Zm-1.586,3-3-3-1.414,1.414,3,3ZM10,2h6V0H10Zm6,0a1,1,0,0,1,.707.293L18.121.879A3,3,0,0,0,16,0Zm.707.293A1,1,0,0,1,17,3h2A3,3,0,0,0,18.121.879ZM17,3V13h2V3Z" fill="#09090b"/>
</svg>
