<svg id="reply-all" xmlns="http://www.w3.org/2000/svg" width="22" height="13" viewBox="0 0 22 13">
  <path id="Vector" d="M5.293,11.707a1,1,0,1,0,1.414-1.414ZM1,6,.293,5.293a1,1,0,0,0,0,1.414ZM6.707,1.707A1,1,0,0,0,5.293.293Zm3.586,10a1,1,0,0,0,1.414-1.414ZM6,6l-.707-.707a1,1,0,0,0,0,1.414Zm5.707-4.293A1,1,0,0,0,10.293.293ZM20,12a1,1,0,0,0,2,0ZM17,6V6ZM6.707,10.293l-5-5L.293,6.707l5,5Zm-5-3.586,5-5L5.293.293l-5,5Zm10,3.586-5-5L5.293,6.707l5,5Zm-5-3.586,5-5L10.293.293l-5,5ZM22,12V10H20v2Zm0-2a5,5,0,0,0-1.465-3.536L19.121,7.879A3,3,0,0,1,20,10ZM20.535,6.464A5,5,0,0,0,17,5V7a3,3,0,0,1,2.121.879ZM17,5H6V7H17Z" transform="translate(0 0)" fill="#09090b"/>
</svg>
