<svg id="rewind" xmlns="http://www.w3.org/2000/svg" width="22" height="16" viewBox="0 0 22 16">
  <path id="Vector" d="M10,15l-.614.789A1,1,0,0,0,11,15ZM1,8,.386,7.211a1,1,0,0,0,0,1.579Zm9-7h1A1,1,0,0,0,9.386.211ZM21,15l-.614.789A1,1,0,0,0,22,15ZM12,8l-.614-.789a1,1,0,0,0,0,1.579Zm9-7h1A1,1,0,0,0,20.386.211ZM10.614,14.211l-9-7L.386,8.789l9,7Zm-9-5.421,9-7L9.386.211l-9,7ZM9,1V15h2V1ZM21.614,14.211l-9-7L11.386,8.789l9,7Zm-9-5.421,9-7L20.386.211l-9,7ZM20,1V15h2V1Z" transform="translate(0 0)" fill="#09090b"/>
</svg>
