<svg id="rocket" xmlns="http://www.w3.org/2000/svg" width="21.5" height="21.5" viewBox="0 0 21.5 21.5">
  <path id="Vector" d="M3,15.5l.643.766h0Zm-2,5-.991-.132a1,1,0,0,0,1.124,1.124Zm5-2-.764-.646,0,0Zm-.09-2.91.7-.712L6.6,14.867ZM9.5,7.05l.842.539.006-.009ZM20.5,1h1a1,1,0,0,0-.994-1ZM2.5,11l-.984-.179A1,1,0,0,0,2.5,12Zm2-4-.555-.832h0Zm4.7.953A1,1,0,0,0,9.8,6.048ZM10.5,19h-1a1,1,0,0,0,1.179.984Zm4-2,.831.556h0ZM2.357,14.735a4.985,4.985,0,0,0-1.2,1.64A11.3,11.3,0,0,0,.476,18.2c-.167.583-.283,1.121-.357,1.512-.037.2-.064.357-.082.471-.009.057-.016.1-.02.133l-.005.037,0,.011v0h0L1,20.5l.991.133h0v-.005L2,20.6c0-.024.009-.06.017-.108.015-.1.039-.237.072-.411.066-.35.169-.826.315-1.335a9.321,9.321,0,0,1,.554-1.5,3.051,3.051,0,0,1,.69-.986ZM1,20.5c.133.991.133.991.133.991h.016l.037-.005.134-.02c.114-.018.275-.045.471-.082.391-.074.929-.19,1.512-.357a11.3,11.3,0,0,0,1.824-.68,4.984,4.984,0,0,0,1.64-1.2L5.234,17.857a3.05,3.05,0,0,1-.986.69,9.325,9.325,0,0,1-1.5.554c-.509.146-.985.249-1.335.315-.174.033-.315.057-.411.072L.9,19.5l-.026,0H.867s0,0,.133.991Zm5.764-1.354a3.163,3.163,0,0,0-.151-4.267L5.207,16.3a1.164,1.164,0,0,1,.029,1.553ZM6.6,14.867a3.181,3.181,0,0,0-2.1-.878l-.062,2a1.18,1.18,0,0,1,.778.326Zm-2.1-.878a3.18,3.18,0,0,0-2.148.747l1.289,1.529a1.18,1.18,0,0,1,.8-.277Zm6.7-.7-3-3L6.793,11.707l3,3ZM8.433,11.36a21,21,0,0,1,1.909-3.77L8.658,6.511a23,23,0,0,0-2.091,4.13Zm1.915-3.779a11.88,11.88,0,0,1,4.347-4.11l-.964-1.752a13.88,13.88,0,0,0-5.079,4.8Zm4.347-4.11A11.88,11.88,0,0,1,20.494,2l.012-2a13.88,13.88,0,0,0-6.775,1.718ZM19.5,1A11.828,11.828,0,0,1,13.943,11.17l1.114,1.661A13.825,13.825,0,0,0,21.5,1ZM13.966,11.155a21.355,21.355,0,0,1-3.821,1.91l.711,1.869a23.349,23.349,0,0,0,4.179-2.089ZM7.5,10h-5v2h5Zm-5,1,.984.179h0v0l0-.019c0-.018.009-.046.017-.083.016-.075.04-.185.074-.322A10.622,10.622,0,0,1,3.9,9.705a3.994,3.994,0,0,1,1.16-1.874L3.944,6.169A5.826,5.826,0,0,0,2.016,9.023a12.621,12.621,0,0,0-.378,1.248c-.04.162-.07.3-.09.391-.01.047-.018.085-.023.112l-.006.032,0,.01v0h0L2.5,11ZM5.055,7.832a2.2,2.2,0,0,1,1-.292,6.62,6.62,0,0,1,1.422.047,11.2,11.2,0,0,1,1.227.232c.157.039.284.073.369.1l.095.028.022.007h0s0,0,.3-.953.3-.953.3-.953H9.8l-.011,0-.036-.011-.125-.037c-.106-.03-.257-.072-.441-.117A13.2,13.2,0,0,0,7.735,5.6a8.6,8.6,0,0,0-1.863-.055,4.154,4.154,0,0,0-1.927.619ZM9.5,14v5h2V14Zm1,5c.179.984.179.984.179.984h0l.01,0,.032-.006.112-.023c.095-.02.229-.05.391-.09a12.608,12.608,0,0,0,1.248-.378,5.826,5.826,0,0,0,2.854-1.928l-1.662-1.112A3.994,3.994,0,0,1,11.8,17.6a10.634,10.634,0,0,1-1.047.317c-.137.034-.247.059-.322.074l-.083.017-.019,0h0s0,0,.179.984Zm4.832-1.445a4.154,4.154,0,0,0,.619-1.927,8.594,8.594,0,0,0-.054-1.863,13.2,13.2,0,0,0-.274-1.451c-.045-.185-.087-.335-.117-.441-.015-.053-.028-.1-.037-.125l-.011-.035,0-.011v0h0L14.5,12l-.953.3h0v0l.007.022c.006.02.016.052.028.095.024.085.059.211.1.369a11.208,11.208,0,0,1,.232,1.227,6.62,6.62,0,0,1,.047,1.422,2.2,2.2,0,0,1-.292,1Z" transform="translate(0 0)" fill="#09090b"/>
</svg>
