<svg id="roller-coaster" xmlns="http://www.w3.org/2000/svg" width="22" height="16" viewBox="0 0 22 16">
  <path id="Vector" d="M4,15a1,1,0,0,0,2,0ZM5,1V1ZM8,15a1,1,0,0,0,2,0ZM10,2.8a1,1,0,1,0-2,0ZM12,15a1,1,0,0,0,2,0Zm2-7.8a1,1,0,0,0-2,0ZM18,1a1,1,0,0,0-2,0ZM16,5a1,1,0,0,0,2,0Zm0,10a1,1,0,0,0,2,0Zm4,0a1,1,0,0,0,2,0ZM22,5a1,1,0,0,0-2,0ZM0,15a1,1,0,0,0,2,0ZM13.251,1.688a1,1,0,0,0,1.5,1.325ZM6,15V1H4V15Zm4,0V2.8H8V15Zm4,0V7.2H12V15ZM16,1V5h2V1Zm2,14V9H16v6Zm4,0V5H20V15ZM2,15V5H0V15ZM2,5a3,3,0,0,1,.879-2.121L1.464,1.464A5,5,0,0,0,0,5Zm.879-2.121A3,3,0,0,1,5,2V0A5,5,0,0,0,1.464,1.464ZM5,2c1.524,0,3.264,1.016,5.2,3.6l1.6-1.2C9.736,1.644,7.476,0,5,0Zm5.2,3.6C12.265,8.356,14.524,10,17,10V8c-1.524,0-3.264-1.016-5.2-3.6ZM17,10a5,5,0,0,0,2.39-.611l-.958-1.756A3,3,0,0,1,17,8Zm2.39-.611A5,5,0,0,0,21.2,7.711L19.517,6.627a3,3,0,0,1-1.084,1.007ZM21.2,7.711a5,5,0,0,0,.785-2.338l-1.994-.149a3,3,0,0,1-.471,1.4Zm.785-2.338a5,5,0,0,0-.428-2.429l-1.823.822a3,3,0,0,1,.257,1.457Zm-.428-2.429a5,5,0,0,0-1.537-1.929L18.808,2.609a3,3,0,0,1,.923,1.157ZM20.017,1.015A5,5,0,0,0,17.744.056l-.3,1.977a3,3,0,0,1,1.363.575ZM17.744.056A5,5,0,0,0,15.29.3l.682,1.88a3,3,0,0,1,1.473-.146ZM15.29.3a5,5,0,0,0-2.039,1.387l1.5,1.325a3,3,0,0,1,1.223-.832Z" fill="#09090b"/>
</svg>
