<svg id="rotate-cw-square" xmlns="http://www.w3.org/2000/svg" width="18" height="20" viewBox="0 0 18 20">
  <path id="Vector" d="M9,4l.707.707a1,1,0,0,0,0-1.414ZM3,4V4ZM1,6H1ZM0,9A1,1,0,0,0,2,9ZM5.293,6.293A1,1,0,0,0,6.707,7.707Zm1.414-6A1,1,0,0,0,5.293,1.707ZM2,13a1,1,0,0,0-2,0ZM1,17H1ZM15,4V4ZM13,3a1,1,0,0,0,0,2ZM9,3H3V5H9ZM3,3a3,3,0,0,0-2.121.879L2.293,5.293A1,1,0,0,1,3,5ZM.879,3.879A3,3,0,0,0,0,6H2a1,1,0,0,1,.293-.707ZM0,6V9H2V6ZM6.707,7.707l3-3L8.293,3.293l-3,3Zm3-4.414-3-3L5.293,1.707l3,3ZM0,13v4H2V13Zm0,4a3,3,0,0,0,.879,2.121l1.414-1.414A1,1,0,0,1,2,17Zm.879,2.121A3,3,0,0,0,3,20V18a1,1,0,0,1-.707-.293ZM3,20H15V18H3Zm12,0a3,3,0,0,0,2.121-.879l-1.414-1.414A1,1,0,0,1,15,18Zm2.121-.879A3,3,0,0,0,18,17H16a1,1,0,0,1-.293.707ZM18,17V6H16V17ZM18,6a3,3,0,0,0-.879-2.121L15.707,5.293A1,1,0,0,1,16,6Zm-.879-2.121A3,3,0,0,0,15,3V5a1,1,0,0,1,.707.293ZM15,3H13V5h2Z" fill="#09090b"/>
</svg>
