<svg id="rotate-3d" xmlns="http://www.w3.org/2000/svg" width="21.8" height="22" viewBox="0 0 21.8 22">
  <path id="Vector" d="M14.5,6.745a1,1,0,1,0,1.939-.489ZM12.376,21.727a1,1,0,1,0-.752-1.853Zm2.256-9.918a1,1,0,1,0-.877,1.8Zm3.376,2.759.9.438a1,1,0,0,0-.461-1.337Zm-2.759,3.376a1,1,0,0,0,1.8.877Zm3.191-2.475a1,1,0,0,0-.881-1.8Zm1.433-5.091a1,1,0,0,0,1.853-.753ZM16.436,6.255a11.6,11.6,0,0,0-2-4.352A4.469,4.469,0,0,0,11,0V2a2.51,2.51,0,0,1,1.874,1.149,9.641,9.641,0,0,1,1.622,3.6ZM11,0C9.037,0,7.528,1.566,6.57,3.482A17.2,17.2,0,0,0,5,11H7A15.23,15.23,0,0,1,8.359,4.376C9.211,2.673,10.2,2,11,2ZM5,11a17.2,17.2,0,0,0,1.57,7.518C7.528,20.434,9.037,22,11,22V20c-.8,0-1.789-.673-2.641-2.376A15.23,15.23,0,0,1,7,11Zm6,11a3.647,3.647,0,0,0,1.376-.273l-.752-1.853A1.648,1.648,0,0,1,11,20Zm2.755-8.394,3.814,1.86.877-1.8-3.814-1.86Zm3.353.523-1.86,3.814,1.8.877,1.86-3.814Zm.451-.457A15.3,15.3,0,0,1,11,15v2a17.273,17.273,0,0,0,7.44-1.532ZM11,15a15.23,15.23,0,0,1-6.624-1.359C2.673,12.789,2,11.8,2,11H0c0,1.963,1.566,3.472,3.482,4.43A17.2,17.2,0,0,0,11,17ZM2,11c0-.8.673-1.789,2.376-2.641A15.23,15.23,0,0,1,11,7V5A17.2,17.2,0,0,0,3.482,6.57C1.566,7.528,0,9.037,0,11Zm9-4a15.992,15.992,0,0,1,5.985,1.068,5.05,5.05,0,0,1,2.889,2.308l1.853-.753a6.942,6.942,0,0,0-3.978-3.4A17.976,17.976,0,0,0,11,5Z" transform="translate(0)" fill="#09090b"/>
</svg>
