<svg id="route-off" xmlns="http://www.w3.org/2000/svg" width="22" height="22" viewBox="0 0 22 22">
  <path id="Vector" d="M16.5,18v1h0Zm1.542.77a1,1,0,0,0-.485-1.94ZM4.579,5.125a1,1,0,1,0-.759-1.85ZM5.5,11l-.005,1H5.5ZM11,12a1,1,0,0,0,0-2ZM1.707.293A1,1,0,0,0,.293,1.707ZM20.293,21.707a1,1,0,0,0,1.414-1.414ZM19,14.356a1,1,0,1,0,2-.111ZM16.756,10a1,1,0,1,0-.111,2ZM9.7,3a1,1,0,0,0,0,2ZM7,18a2,2,0,0,1-2,2v2a4,4,0,0,0,4-4ZM5,20a2,2,0,0,1-2-2H1a4,4,0,0,0,4,4ZM3,18a2,2,0,0,1,2-2V14a4,4,0,0,0-4,4Zm2-2a2,2,0,0,1,2,2H9a4,4,0,0,0-4-4Zm3,3h8.5V17H8Zm8.5,0a6.8,6.8,0,0,0,1.542-.23l-.485-1.94A4.94,4.94,0,0,1,16.5,17ZM3.82,3.275A4.51,4.51,0,0,0,1.561,5.313l1.761.947A2.51,2.51,0,0,1,4.579,5.125ZM1.561,5.313A4.556,4.556,0,0,0,1.1,8.326l1.964-.376a2.556,2.556,0,0,1,.259-1.69ZM1.1,8.326a4.536,4.536,0,0,0,1.542,2.627L3.925,9.419a2.536,2.536,0,0,1-.861-1.469Zm1.542,2.627A4.482,4.482,0,0,0,5.495,12l.011-2a2.482,2.482,0,0,1-1.58-.58ZM5.5,12H11V10H5.5ZM.293,1.707l20,20,1.414-1.414-20-20ZM21,14.244a4.5,4.5,0,0,0-1.311-2.932l-1.414,1.414A2.5,2.5,0,0,1,19,14.356Zm-1.311-2.932A4.5,4.5,0,0,0,16.756,10l-.111,2a2.5,2.5,0,0,1,1.629.728ZM14,3H9.7V5H14Zm5,1a2,2,0,0,1-2,2V8a4,4,0,0,0,4-4ZM17,6a2,2,0,0,1-2-2H13a4,4,0,0,0,4,4ZM15,4a2,2,0,0,1,2-2V0a4,4,0,0,0-4,4Zm2-2a2,2,0,0,1,2,2h2a4,4,0,0,0-4-4Z" transform="translate(0)" fill="#09090b"/>
</svg>
