<svg id="rows-4" xmlns="http://www.w3.org/2000/svg" width="20" height="20" viewBox="0 0 20 20">
  <path id="Vector" d="M19,6.5a1,1,0,0,0,0-2ZM1,4.5a1,1,0,0,0,0,2ZM19,11a1,1,0,0,0,0-2ZM1,9a1,1,0,0,0,0,2Zm18,6.5a1,1,0,0,0,0-2Zm-18-2a1,1,0,0,0,0,2ZM3,2H17V0H3ZM17,2a1,1,0,0,1,1,1h2a3,3,0,0,0-3-3Zm1,1V17h2V3Zm0,14a1,1,0,0,1-1,1v2a3,3,0,0,0,3-3Zm-1,1H3v2H17ZM3,18a1,1,0,0,1-1-1H0a3,3,0,0,0,3,3ZM2,17V3H0V17ZM2,3A1,1,0,0,1,3,2V0A3,3,0,0,0,0,3ZM19,4.5H1v2H19ZM19,9H1v2H19Zm0,4.5H1v2H19Z" fill="#09090b"/>
</svg>
