<svg id="sailboat" xmlns="http://www.w3.org/2000/svg" width="22" height="22" viewBox="0 0 22 22">
  <path id="Vector" d="M21,17h1a1,1,0,0,0-1-1ZM1,17V16a1,1,0,0,0-1,1Zm19-4v1a1,1,0,0,0,.737-1.676ZM9,1,9.737.324A1,1,0,0,0,8.136.5ZM2,13l-.864-.5A1,1,0,0,0,2,14Zm6,4a1,1,0,0,0,2,0Zm13-1H1v2H21ZM0,17a5,5,0,0,0,1.464,3.535l1.414-1.414A3,3,0,0,1,2,17Zm1.464,3.535A5,5,0,0,0,5,22V20a3,3,0,0,1-2.121-.879ZM5,22H17V20H5Zm12,0a5,5,0,0,0,3.535-1.465l-1.414-1.414A3,3,0,0,1,17,20Zm3.535-1.465A5,5,0,0,0,22,17H20a3,3,0,0,1-.879,2.121Zm.2-8.211-11-12L8.263,1.676l11,12ZM8.136.5l-7,12L2.864,13.5l7-12ZM2,14H20V12H2ZM8,1V17h2V1Z" transform="translate(0 0)" fill="#09090b"/>
</svg>
