<svg id="salad" xmlns="http://www.w3.org/2000/svg" width="20.533" height="19.683" viewBox="0 0 20.533 19.683">
  <path id="Vector" d="M5,17.683a1,1,0,0,0,0,2Zm10,2a1,1,0,0,0,0-2Zm-5-1v0Zm9-9h1a1,1,0,0,0-1-1Zm-18,0v-1a1,1,0,0,0-1,1Zm8.389,1a1,1,0,1,0-.019-2ZM8.98,4.913l.157.988a1,1,0,0,0,.818-1.208Zm3.2-2.77-.358.934a1,1,0,0,0,1.2-.4Zm3.47-.63-.6.8a1,1,0,0,0,1.22-.012Zm3.37,3.37-.786-.618a1,1,0,0,0-.013,1.219Zm-1.1,3.7-.341-.94a1,1,0,0,0-.629,1.186Zm-.951.907a1,1,0,0,0,1.963.385Zm-6.676-.515a1,1,0,0,0,1.414,1.414ZM15.707,6.39a1,1,0,1,0-1.414-1.414ZM8.171,5.617A1,1,0,0,0,9.629,4.249ZM2,7.683H3V7.678Zm-.326,2.5a1,1,0,1,0,1.733-1ZM5,19.683H15v-2H5Zm5,0a10,10,0,0,0,7.071-2.929L15.657,15.34A8,8,0,0,1,10,17.683Zm7.071-2.929A10,10,0,0,0,20,9.683H18a8,8,0,0,1-2.343,5.657ZM19,8.683H1v2H19Zm-19,1a10,10,0,0,0,2.929,7.071L4.343,15.34A8,8,0,0,1,2,9.683Zm2.929,7.071A10,10,0,0,0,10,19.683v-2A8,8,0,0,1,4.343,15.34ZM9.371,8.683a1.4,1.4,0,0,1-.956-.365L7.068,9.8a3.4,3.4,0,0,0,2.322.887Zm-.956-.365A1.4,1.4,0,0,1,7.962,7.4l-1.993.167A3.4,3.4,0,0,0,7.068,9.8ZM7.962,7.4a1.4,1.4,0,0,1,.293-.98L6.681,5.186a3.4,3.4,0,0,0-.712,2.381Zm.293-.98A1.4,1.4,0,0,1,9.137,5.9L8.823,3.926A3.4,3.4,0,0,0,6.681,5.186Zm1.7-1.727a1.4,1.4,0,0,1,.036-.746l-1.9-.624A3.4,3.4,0,0,0,8,5.133Zm.036-.746a1.4,1.4,0,0,1,.414-.621L9.1,1.813a3.4,3.4,0,0,0-1,1.509Zm.414-.621a1.4,1.4,0,0,1,.674-.32l-.346-1.97A3.4,3.4,0,0,0,9.1,1.813Zm.674-.32a1.4,1.4,0,0,1,.743.072l.716-1.867a3.4,3.4,0,0,0-1.8-.174Zm1.945-.326a1.4,1.4,0,0,1,.4-.411L12.308.609a3.4,3.4,0,0,0-.972,1Zm.4-.411a1.4,1.4,0,0,1,.531-.216L13.6.085a3.4,3.4,0,0,0-1.291.524Zm.531-.216a1.4,1.4,0,0,1,.573.015L14.991.122A3.4,3.4,0,0,0,13.6.085Zm.573.015a1.4,1.4,0,0,1,.519.244l1.2-1.6A3.4,3.4,0,0,0,14.991.122Zm1.739.232a1.4,1.4,0,0,1,.949-.3l.119-2a3.4,3.4,0,0,0-2.3.721Zm.949-.3a1.4,1.4,0,0,1,.906.408L19.537,1a3.4,3.4,0,0,0-2.2-.99Zm.906.408a1.4,1.4,0,0,1,.408.907l2-.119a3.4,3.4,0,0,0-.99-2.2Zm.408.907a1.4,1.4,0,0,1-.3.949L19.806,5.5a3.4,3.4,0,0,0,.721-2.3Zm-.309,2.168a1.4,1.4,0,0,1,.259.594l1.968-.354a3.4,3.4,0,0,0-.63-1.442Zm.259.594a1.4,1.4,0,0,1-.036.647l1.917.57a3.4,3.4,0,0,0,.087-1.571Zm-.036.647a1.4,1.4,0,0,1-.323.562l1.455,1.372A3.4,3.4,0,0,0,20.361,7.3Zm-.323.562a1.4,1.4,0,0,1-.542.356l.681,1.88a3.4,3.4,0,0,0,1.316-.864Zm-1.17,1.542a1.511,1.511,0,0,1,.018.662l1.963.385a3.509,3.509,0,0,0-.042-1.538ZM11.707,10.39l4-4L14.293,4.976l-4,4ZM9.629,4.249A4.99,4.99,0,0,0,7.074,2.792L6.64,4.744a2.99,2.99,0,0,1,1.531.873ZM7.074,2.792a4.99,4.99,0,0,0-2.932.235l.74,1.858A2.99,2.99,0,0,1,6.64,4.744Zm-2.932.235a4.99,4.99,0,0,0-2.29,1.846L3.511,5.991A2.99,2.99,0,0,1,4.883,4.885ZM1.853,4.873A4.99,4.99,0,0,0,1,7.688l2-.01a2.99,2.99,0,0,1,.511-1.687ZM1,7.683a4.989,4.989,0,0,0,.674,2.5l1.733-1A2.99,2.99,0,0,1,3,7.683Z" transform="translate(0 0)" fill="#09090b"/>
</svg>
