<svg id="satellite-dish" xmlns="http://www.w3.org/2000/svg" width="19.999" height="19.999" viewBox="0 0 19.999 19.999">
  <path id="Vector" d="M2,8l.707-.707a1,1,0,0,0-1.57.2ZM12,18l.5.863a1,1,0,0,0,.2-1.57ZM6.292,12.293a1,1,0,0,0,1.414,1.414Zm4.414-1.586A1,1,0,0,0,9.292,9.293ZM14,11a1,1,0,0,0,2,0ZM9,4A1,1,0,0,0,9,6Zm9,7a1,1,0,0,0,2,0ZM9,0A1,1,0,0,0,9,2ZM1.136,7.5A8.31,8.31,0,0,0,.068,12.752L2.052,12.5A6.31,6.31,0,0,1,2.863,8.5ZM.068,12.752a8.31,8.31,0,0,0,2.366,4.814l1.414-1.414a6.31,6.31,0,0,1-1.8-3.655Zm2.366,4.814a8.31,8.31,0,0,0,4.814,2.366L7.5,17.947a6.31,6.31,0,0,1-3.655-1.8Zm4.814,2.366A8.311,8.311,0,0,0,12.5,18.863l-1.009-1.727a6.31,6.31,0,0,1-3.991.811Zm5.459-2.638-10-10L1.292,8.707l10,10Zm-5-3.586,3-3L9.292,9.293l-3,3ZM16,11a7,7,0,0,0-2.05-4.95L12.535,7.464A5,5,0,0,1,14,11Zm-2.05-4.95A7,7,0,0,0,9,4V6a5,5,0,0,1,3.536,1.464ZM20,11a11,11,0,0,0-3.222-7.778L15.363,4.636A9,9,0,0,1,18,11ZM16.777,3.222A11,11,0,0,0,9,0V2a9,9,0,0,1,6.364,2.636Z" transform="translate(0)" fill="#09090b"/>
</svg>
