<svg id="satellite" xmlns="http://www.w3.org/2000/svg" width="20" height="20" viewBox="0 0 20 20">
  <path id="Vector" d="M10.293,5.707a1,1,0,0,0,1.414-1.414ZM7,1,7.707.293a1,1,0,0,0-1.414,0ZM3,5l-.707-.707a1,1,0,0,0,0,1.414ZM6.293,9.707A1,1,0,0,0,7.707,8.293Zm9.414-1.414a1,1,0,0,0-1.414,1.414ZM19,13l.707.707a1,1,0,0,0,0-1.414Zm-4,4-.707.707a1,1,0,0,0,1.414,0Zm-3.293-4.707a1,1,0,0,0-1.414,1.414ZM6,10l-.707-.707a1,1,0,0,0,0,1.414Zm4,4-.707.707a1,1,0,0,0,1.414,0Zm6-6,.707.707a1,1,0,0,0,0-1.414ZM12,4l.707-.707a1,1,0,0,0-1.414,0Zm1.293,1.293a1,1,0,0,0,1.414,1.414Zm4.414-1.586a1,1,0,1,0-1.414-1.414ZM6,19a1,1,0,0,0,2,0ZM1,12a1,1,0,0,0,0,2ZM11.707,4.293l-4-4L6.293,1.707l4,4Zm-5.414-4-4,4L3.707,5.707l4-4Zm-4,5.414,4,4L7.707,8.293l-4-4Zm12,4,4,4,1.414-1.414-4-4Zm4,2.586-4,4,1.414,1.414,4-4Zm-2.586,4-4-4-1.414,1.414,4,4ZM5.293,10.707l4,4,1.414-1.414-4-4Zm5.414,4,6-6L15.293,7.293l-6,6Zm6-7.414-4-4L11.293,4.707l4,4Zm-5.414-4-6,6,1.414,1.414,6-6Zm3.414,3.414,3-3L16.293,2.293l-3,3ZM8,19a7,7,0,0,0-2.05-4.95L4.536,15.465A5,5,0,0,1,6,19ZM5.95,14.05A7,7,0,0,0,1,12v2a5,5,0,0,1,3.536,1.465Z" fill="#09090b"/>
</svg>
