<svg id="save-all" xmlns="http://www.w3.org/2000/svg" width="22" height="22" viewBox="0 0 22 22">
  <path id="Vector" d="M10,1A1,1,0,0,0,8,1Zm5,5a1,1,0,0,0,0-2Zm1,11a1,1,0,0,0,2,0ZM8,17a1,1,0,0,0,2,0Zm9,5a1,1,0,0,0,0-2ZM1,19H1ZM2,5A1,1,0,0,0,0,5ZM5,15H5ZM7,1V1Zm9.172,0V0h0Zm1.414.586-.707.707h0Zm2.828,2.828-.707.707h0ZM21,5.828h0ZM21,15h0Zm-2.01,2,0-1h0ZM8,1V4h2V1ZM8,4a2,2,0,0,0,.586,1.414L10,4H8Zm.586,1.414A2,2,0,0,0,10,6V4h0ZM10,6h5V4H10Zm8,11V11H16v6Zm0-6a2,2,0,0,0-.586-1.414L16,11h2Zm-.586-1.414A2,2,0,0,0,16,9v2h0ZM16,9H10v2h6ZM10,9a2,2,0,0,0-1.414.586L10,11h0Zm-1.414.586A2,2,0,0,0,8,11h2ZM8,11v6h2V11Zm9,9H3v2H17ZM3,20a1,1,0,0,1-.707-.293L.879,21.121A3,3,0,0,0,3,22Zm-.707-.293A1,1,0,0,1,2,19H0a3,3,0,0,0,.879,2.121ZM2,19V5H0V19Zm5-3a1,1,0,0,1-.707-.293L4.879,17.121A3,3,0,0,0,7,18Zm-.707-.293A1,1,0,0,1,6,15H4a3,3,0,0,0,.879,2.121ZM6,15V3H4V15ZM6,3a1,1,0,0,1,.293-.707L4.879.879A3,3,0,0,0,4,3Zm.293-.707A1,1,0,0,1,7,2V0A3,3,0,0,0,4.879.879ZM7,2h9.172V0H7Zm9.172,0a1,1,0,0,1,.707.293L18.293.879A3,3,0,0,0,16.172,0Zm.707.293,2.828,2.828,1.414-1.414L18.293.879Zm2.828,2.828A1,1,0,0,1,20,5.828h2a3,3,0,0,0-.879-2.121ZM20,5.828V15h2V5.828ZM20,15a1,1,0,0,1-.077.384l1.847.768A3,3,0,0,0,22,15Zm-.077.384a1,1,0,0,1-.218.325l1.411,1.418a3,3,0,0,0,.654-.975Zm-.218.325a1,1,0,0,1-.326.216l.758,1.851a3,3,0,0,0,.978-.649Zm-.326.216A1,1,0,0,1,19,16l-.01,2a3,3,0,0,0,1.153-.224ZM18.99,16H7v2H18.99Z" transform="translate(0 0)" fill="#09090b"/>
</svg>
