<svg id="scaling" xmlns="http://www.w3.org/2000/svg" width="20" height="20" viewBox="0 0 20 20">
  <path id="Vector" d="M10,2a1,1,0,0,0,0-2ZM3,1V1ZM1,3H1ZM1,17H1Zm19-7a1,1,0,0,0-2,0Zm-8,4a1,1,0,0,0,0-2ZM7,13H6a1,1,0,0,0,1,1ZM8,8A1,1,0,0,0,6,8Zm6-8a1,1,0,0,0,0,2Zm5,1h1a1,1,0,0,0-1-1ZM18,6a1,1,0,0,0,2,0ZM10,0H3V2h7ZM3,0A3,3,0,0,0,.879.879L2.293,2.293A1,1,0,0,1,3,2ZM.879.879A3,3,0,0,0,0,3H2a1,1,0,0,1,.293-.707ZM0,3V17H2V3ZM0,17a3,3,0,0,0,.879,2.121l1.414-1.414A1,1,0,0,1,2,17Zm.879,2.121A3,3,0,0,0,3,20V18a1,1,0,0,1-.707-.293ZM3,20H17V18H3Zm14,0a3,3,0,0,0,2.121-.879l-1.414-1.414A1,1,0,0,1,17,18Zm2.121-.879A3,3,0,0,0,20,17H18a1,1,0,0,1-.293.707ZM20,17V10H18v7Zm-8-5H7v2h5ZM8,13V8H6v5ZM14,2h5V0H14Zm4-1V6h2V1Zm.293-.707-12,12,1.414,1.414,12-12Z" fill="#09090b"/>
</svg>
