<svg id="scan-face" xmlns="http://www.w3.org/2000/svg" width="20" height="20" viewBox="0 0 20 20">
  <path id="Vector" d="M0,5A1,1,0,0,0,2,5ZM3,1V1ZM5,2A1,1,0,0,0,5,0ZM15,0a1,1,0,0,0,0,2Zm2,1V1Zm1,4a1,1,0,0,0,2,0Zm2,10a1,1,0,0,0-2,0Zm-5,3a1,1,0,0,0,0,2ZM5,20a1,1,0,0,0,0-2ZM1,17H1Zm1-2a1,1,0,0,0-2,0Zm4.8-3.6a1,1,0,0,0-1.6,1.2Zm8,1.2a1,1,0,1,0-1.6-1.2ZM7,6A1,1,0,0,0,7,8Zm.01,2a1,1,0,0,0,0-2ZM13,6a1,1,0,0,0,0,2Zm.01,2a1,1,0,0,0,0-2ZM2,5V3H0V5ZM2,3a1,1,0,0,1,.293-.707L.879.879A3,3,0,0,0,0,3Zm.293-.707A1,1,0,0,1,3,2V0A3,3,0,0,0,.879.879ZM3,2H5V0H3ZM15,2h2V0H15Zm2,0a1,1,0,0,1,.707.293L19.121.879A3,3,0,0,0,17,0Zm.707.293A1,1,0,0,1,18,3h2A3,3,0,0,0,19.121.879ZM18,3V5h2V3Zm0,12v2h2V15Zm0,2a1,1,0,0,1-.293.707l1.414,1.414A3,3,0,0,0,20,17Zm-.293.707A1,1,0,0,1,17,18v2a3,3,0,0,0,2.121-.879ZM17,18H15v2h2ZM5,18H3v2H5ZM3,18a1,1,0,0,1-.707-.293L.879,19.121A3,3,0,0,0,3,20Zm-.707-.293A1,1,0,0,1,2,17H0a3,3,0,0,0,.879,2.121ZM2,17V15H0v2Zm4-5-.8.6h0v0l0,0,.007.009.021.027.07.086c.059.07.142.165.248.276a6.942,6.942,0,0,0,.923.8A5.987,5.987,0,0,0,10,15V13a3.991,3.991,0,0,1-2.349-.809A4.952,4.952,0,0,1,7,11.621c-.073-.076-.127-.138-.16-.177L6.8,11.4l0-.006h0v0h0L6,12Zm4,3a5.987,5.987,0,0,0,3.526-1.191,6.944,6.944,0,0,0,.923-.8c.106-.111.189-.206.248-.276l.07-.086.021-.027.007-.009,0,0v0h0L14,12l-.8-.6h0v0h0l0,.006-.034.041c-.033.04-.087.1-.16.177a4.953,4.953,0,0,1-.655.571A3.99,3.99,0,0,1,10,13ZM7,8h.01V6H7Zm6,0h.01V6H13Z" fill="#09090b"/>
</svg>
