<svg id="scan-eye" xmlns="http://www.w3.org/2000/svg" width="20" height="20" viewBox="0 0 20 20">
  <path id="Vector" d="M0,5A1,1,0,0,0,2,5ZM3,1V1ZM5,2A1,1,0,0,0,5,0ZM15,0a1,1,0,0,0,0,2Zm2,1V1Zm1,4a1,1,0,0,0,2,0Zm2,10a1,1,0,0,0-2,0Zm-5,3a1,1,0,0,0,0,2ZM5,20a1,1,0,0,0,0-2ZM1,17H1Zm1-2a1,1,0,0,0-2,0Zm1-5-.894-.447a1,1,0,0,0,0,.894Zm14,0,.894.447a1,1,0,0,0,0-.894ZM2,5V3H0V5ZM2,3a1,1,0,0,1,.293-.707L.879.879A3,3,0,0,0,0,3Zm.293-.707A1,1,0,0,1,3,2V0A3,3,0,0,0,.879.879ZM3,2H5V0H3ZM15,2h2V0H15Zm2,0a1,1,0,0,1,.707.293L19.121.879A3,3,0,0,0,17,0Zm.707.293A1,1,0,0,1,18,3h2A3,3,0,0,0,19.121.879ZM18,3V5h2V3Zm0,12v2h2V15Zm0,2a1,1,0,0,1-.293.707l1.414,1.414A3,3,0,0,0,20,17Zm-.293.707A1,1,0,0,1,17,18v2a3,3,0,0,0,2.121-.879ZM17,18H15v2h2ZM5,18H3v2H5ZM3,18a1,1,0,0,1-.707-.293L.879,19.121A3,3,0,0,0,3,20Zm-.707-.293A1,1,0,0,1,2,17H0a3,3,0,0,0,.879,2.121ZM2,17V15H0v2Zm8-7v2a2,2,0,0,0,2-2Zm0,0H8a2,2,0,0,0,2,2Zm0,0V8a2,2,0,0,0-2,2Zm0,0h2a2,2,0,0,0-2-2ZM3,10l.894.448h0l0-.006.016-.031c.016-.029.04-.075.074-.136.068-.121.173-.3.312-.513A11.094,11.094,0,0,1,5.538,8.189,6.252,6.252,0,0,1,10,6V4A8.235,8.235,0,0,0,4.088,6.811,13.093,13.093,0,0,0,2.622,8.674c-.165.254-.291.467-.377.62-.043.076-.076.138-.1.182l-.027.053-.008.016,0,.005v0h0L3,10Zm7-4a6.252,6.252,0,0,1,4.462,2.189A11.091,11.091,0,0,1,15.7,9.764c.14.215.244.392.312.513.034.06.059.106.074.136l.016.031,0,.006h0L17,10l.894-.448h0v0l0-.005-.008-.016-.028-.053c-.023-.044-.057-.105-.1-.182-.086-.153-.212-.366-.377-.62a13.1,13.1,0,0,0-1.465-1.863A8.235,8.235,0,0,0,10,4Zm7,4-.894-.448h0l0,.006-.016.031c-.016.029-.04.075-.074.136-.068.121-.173.3-.312.513a11.094,11.094,0,0,1-1.238,1.575A6.252,6.252,0,0,1,10,14v2a8.235,8.235,0,0,0,5.913-2.811,13.09,13.09,0,0,0,1.465-1.863c.165-.254.291-.467.377-.62.043-.076.076-.138.1-.182l.028-.053.008-.016,0-.005v0h0L17,10Zm-7,4a6.252,6.252,0,0,1-4.463-2.189A11.1,11.1,0,0,1,4.3,10.236c-.14-.215-.244-.392-.312-.513-.034-.06-.059-.106-.074-.136L3.9,9.557l0-.006h0L3,10l-.894.448h0v0l0,.005.008.016.027.053c.023.044.057.105.1.182.086.153.212.366.377.62a13.086,13.086,0,0,0,1.465,1.863A8.235,8.235,0,0,0,10,16Z" fill="#09090b"/>
</svg>
