<svg id="scissors" xmlns="http://www.w3.org/2000/svg" width="19" height="20" viewBox="0 0 19 20">
  <path id="Vector" d="M6.827,5.413A1,1,0,0,0,5.413,6.827Zm2.466,5.294a1,1,0,0,0,1.414-1.414Zm9.414-8a1,1,0,0,0-1.414-1.414ZM5.413,13.173a1,1,0,0,0,1.414,1.414Zm8.094-1.08a1,1,0,1,0-1.414,1.414Zm3.786,6.614a1,1,0,0,0,1.414-1.414ZM6,4A2,2,0,0,1,4,6V8A4,4,0,0,0,8,4ZM4,6A2,2,0,0,1,2,4H0A4,4,0,0,0,4,8ZM2,4A2,2,0,0,1,4,2V0A4,4,0,0,0,0,4ZM4,2A2,2,0,0,1,6,4H8A4,4,0,0,0,4,0ZM5.413,6.827l3.88,3.88,1.414-1.414-3.88-3.88Zm11.88-5.534L5.413,13.173l1.414,1.414,11.88-11.88ZM6,16a2,2,0,0,1-2,2v2a4,4,0,0,0,4-4ZM4,18a2,2,0,0,1-2-2H0a4,4,0,0,0,4,4ZM2,16a2,2,0,0,1,2-2V12a4,4,0,0,0-4,4Zm2-2a2,2,0,0,1,2,2H8a4,4,0,0,0-4-4Zm8.093-.493,5.2,5.2,1.414-1.414-5.2-5.2Z" fill="#09090b"/>
</svg>
