<svg id="search-slash" xmlns="http://www.w3.org/2000/svg" width="20" height="20" viewBox="0 0 20 20">
  <path id="Vector" d="M12.207,7.207a1,1,0,0,0-1.414-1.414ZM5.793,10.793a1,1,0,0,0,1.414,1.414Zm12.5,8.914a1,1,0,1,0,1.414-1.414Zm-2.886-5.714a1,1,0,0,0-1.414,1.414Zm-4.614-8.2-5,5,1.414,1.414,5-5ZM16,9a7,7,0,0,1-7,7v2a9,9,0,0,0,9-9ZM9,16A7,7,0,0,1,2,9H0a9,9,0,0,0,9,9ZM2,9A7,7,0,0,1,9,2V0A9,9,0,0,0,0,9ZM9,2a7,7,0,0,1,7,7h2A9,9,0,0,0,9,0ZM19.707,18.293l-4.3-4.3-1.414,1.414,4.3,4.3Z" fill="#09090b"/>
</svg>
