<svg id="send-to-back" xmlns="http://www.w3.org/2000/svg" width="22" height="22" viewBox="0 0 22 22">
  <path id="Vector" d="M7,13a1,1,0,0,0-2,0ZM6,14H6Zm3,3a1,1,0,0,0,0-2ZM13,5a1,1,0,0,0,0,2Zm1,1V6Zm1,3a1,1,0,0,0,2,0Zm0,5h4V12H15Zm4,0a1,1,0,0,1,1,1h2a3,3,0,0,0-3-3Zm1,1v4h2V15Zm0,4a1,1,0,0,1-1,1v2a3,3,0,0,0,3-3Zm-1,1H15v2h4Zm-4,0a1,1,0,0,1-1-1H12a3,3,0,0,0,3,3Zm-1-1V15H12v4Zm0-4a1,1,0,0,1,1-1V12a3,3,0,0,0-3,3ZM3,2H7V0H3ZM7,2A1,1,0,0,1,8,3h2A3,3,0,0,0,7,0ZM8,3V7h2V3ZM8,7A1,1,0,0,1,7,8v2a3,3,0,0,0,3-3ZM7,8H3v2H7ZM3,8A1,1,0,0,1,2,7H0a3,3,0,0,0,3,3ZM2,7V3H0V7ZM2,3A1,1,0,0,1,3,2V0A3,3,0,0,0,0,3ZM5,13v1H7V13Zm0,1a3,3,0,0,0,.879,2.121l1.414-1.414A1,1,0,0,1,7,14Zm.879,2.121A3,3,0,0,0,8,17V15a1,1,0,0,1-.707-.293ZM8,17H9V15H8ZM13,7h1V5H13Zm1,0a1,1,0,0,1,.707.293l1.414-1.414A3,3,0,0,0,14,5Zm.707.293A1,1,0,0,1,15,8h2a3,3,0,0,0-.879-2.121ZM15,8V9h2V8Z" fill="#09090b"/>
</svg>
