<svg id="separator-vertical" xmlns="http://www.w3.org/2000/svg" width="18" height="20" viewBox="0 0 18 20">
  <path id="Vector" d="M10,1A1,1,0,0,0,8,1ZM8,19a1,1,0,0,0,2,0ZM5.707,6.707A1,1,0,0,0,4.293,5.293ZM1,10,.293,9.293a1,1,0,0,0,0,1.414Zm3.293,4.707a1,1,0,1,0,1.414-1.414Zm8-1.414a1,1,0,0,0,1.414,1.414ZM17,10l.707.707a1,1,0,0,0,0-1.414ZM13.707,5.293a1,1,0,0,0-1.414,1.414ZM8,1V19h2V1ZM4.293,5.293l-4,4,1.414,1.414,4-4Zm-4,5.414,4,4,1.414-1.414-4-4Zm13.414,4,4-4L16.293,9.293l-4,4Zm4-5.414-4-4L12.293,6.707l4,4Z" fill="#09090b"/>
</svg>
