<svg id="separator-horizontal" xmlns="http://www.w3.org/2000/svg" width="20" height="18" viewBox="0 0 20 18">
  <path id="Vector" d="M1,8a1,1,0,0,0,0,2Zm18,2a1,1,0,0,0,0-2ZM5.293,4.293A1,1,0,0,0,6.707,5.707ZM10,1l.707-.707a1,1,0,0,0-1.414,0Zm3.293,4.707a1,1,0,0,0,1.414-1.414Zm1.414,8a1,1,0,0,0-1.414-1.414ZM10,17l-.707.707a1,1,0,0,0,1.414,0ZM6.707,12.293a1,1,0,0,0-1.414,1.414ZM1,10H19V8H1ZM6.707,5.707l4-4L9.293.293l-4,4Zm2.586-4,4,4,1.414-1.414-4-4Zm4,10.586-4,4,1.414,1.414,4-4Zm-2.586,4-4-4L5.293,13.707l4,4Z" fill="#09090b"/>
</svg>
