<svg id="server" xmlns="http://www.w3.org/2000/svg" width="22" height="22" viewBox="0 0 22 22">
  <path id="Vector" d="M5,4A1,1,0,0,0,5,6Zm.01,2a1,1,0,0,0,0-2ZM5,16a1,1,0,0,0,0,2Zm.01,2a1,1,0,0,0,0-2ZM3,2H19V0H3ZM19,2a1,1,0,0,1,1,1h2a3,3,0,0,0-3-3Zm1,1V7h2V3Zm0,4a1,1,0,0,1-1,1v2a3,3,0,0,0,3-3ZM19,8H3v2H19ZM3,8A1,1,0,0,1,2,7H0a3,3,0,0,0,3,3ZM2,7V3H0V7ZM2,3A1,1,0,0,1,3,2V0A3,3,0,0,0,0,3ZM3,14H19V12H3Zm16,0a1,1,0,0,1,1,1h2a3,3,0,0,0-3-3Zm1,1v4h2V15Zm0,4a1,1,0,0,1-1,1v2a3,3,0,0,0,3-3Zm-1,1H3v2H19ZM3,20a1,1,0,0,1-1-1H0a3,3,0,0,0,3,3ZM2,19V15H0v4Zm0-4a1,1,0,0,1,1-1V12a3,3,0,0,0-3,3ZM5,6h.01V4H5ZM5,18h.01V16H5Z" fill="#09090b"/>
</svg>
