<svg id="server-crash" xmlns="http://www.w3.org/2000/svg" width="22" height="22" viewBox="0 0 22 22">
  <path id="Vector" d="M5,10A1,1,0,0,0,5,8ZM1,7H1ZM3,1V1ZM19,1V1ZM17,8a1,1,0,0,0,0,2ZM5,14a1,1,0,0,0,0-2ZM1,15H1Zm0,4H1Zm16-7a1,1,0,0,0,0,2ZM5,4A1,1,0,0,0,5,6Zm.01,2a1,1,0,0,0,0-2ZM5,16a1,1,0,0,0,0,2Zm.01,2a1,1,0,0,0,0-2ZM12.832,5.555a1,1,0,0,0-1.664-1.109ZM8,11l-.832-.555A1,1,0,0,0,8,12Zm6,0,.832.555A1,1,0,0,0,14,10ZM9.168,16.445a1,1,0,1,0,1.664,1.109ZM5,8H3v2H5ZM3,8a1,1,0,0,1-.707-.293L.879,9.121A3,3,0,0,0,3,10Zm-.707-.293A1,1,0,0,1,2,7H0A3,3,0,0,0,.879,9.121ZM2,7V3H0V7ZM2,3a1,1,0,0,1,.293-.707L.879.879A3,3,0,0,0,0,3Zm.293-.707A1,1,0,0,1,3,2V0A3,3,0,0,0,.879.879ZM3,2H19V0H3ZM19,2a1,1,0,0,1,.707.293L21.121.879A3,3,0,0,0,19,0Zm.707.293A1,1,0,0,1,20,3h2A3,3,0,0,0,21.121.879ZM20,3V7h2V3Zm0,4a1,1,0,0,1-.293.707l1.414,1.414A3,3,0,0,0,22,7Zm-.293.707A1,1,0,0,1,19,8v2a3,3,0,0,0,2.121-.879ZM19,8H17v2h2ZM5,12H3v2H5ZM3,12a3,3,0,0,0-2.121.879l1.414,1.414A1,1,0,0,1,3,14Zm-2.121.879A3,3,0,0,0,0,15H2a1,1,0,0,1,.293-.707ZM0,15v4H2V15Zm0,4a3,3,0,0,0,.879,2.121l1.414-1.414A1,1,0,0,1,2,19Zm.879,2.121A3,3,0,0,0,3,22V20a1,1,0,0,1-.707-.293ZM3,22H19V20H3Zm16,0a3,3,0,0,0,2.121-.879l-1.414-1.414A1,1,0,0,1,19,20Zm2.121-.879A3,3,0,0,0,22,19H20a1,1,0,0,1-.293.707ZM22,19V15H20v4Zm0-4a3,3,0,0,0-.879-2.121l-1.414,1.414A1,1,0,0,1,20,15Zm-.879-2.121A3,3,0,0,0,19,12v2a1,1,0,0,1,.707.293ZM19,12H17v2h2ZM5,6h.01V4H5ZM5,18h.01V16H5ZM11.168,4.445l-4,6,1.664,1.109,4-6ZM8,12h6V10H8Zm5.168-1.555-4,6,1.664,1.109,4-6Z" fill="#09090b"/>
</svg>
