<svg id="share" xmlns="http://www.w3.org/2000/svg" width="18" height="22" viewBox="0 0 18 22">
  <path id="Vector" d="M2,11a1,1,0,0,0-2,0ZM1,19H1Zm17-8a1,1,0,0,0-2,0ZM12.293,5.707a1,1,0,0,0,1.414-1.414ZM9,1,9.707.293a1,1,0,0,0-1.414,0ZM4.293,4.293A1,1,0,0,0,5.707,5.707ZM8,14a1,1,0,0,0,2,0ZM0,11v8H2V11Zm0,8a3,3,0,0,0,.879,2.121l1.414-1.414A1,1,0,0,1,2,19Zm.879,2.121A3,3,0,0,0,3,22V20a1,1,0,0,1-.707-.293ZM3,22H15V20H3Zm12,0a3,3,0,0,0,2.121-.879l-1.414-1.414A1,1,0,0,1,15,20Zm2.121-.879A3,3,0,0,0,18,19H16a1,1,0,0,1-.293.707ZM18,19V11H16v8ZM13.707,4.293l-4-4L8.293,1.707l4,4Zm-5.414-4-4,4L5.707,5.707l4-4ZM8,1V14h2V1Z" fill="#09090b"/>
</svg>
