<svg id="share-2" xmlns="http://www.w3.org/2000/svg" width="20" height="22" viewBox="0 0 20 22">
  <path id="Vector" d="M7.094,11.646a1,1,0,1,0-1.007,1.728Zm5.823,5.708a1,1,0,1,0,1.007-1.728Zm1-10.98a1,1,0,1,0-1.008-1.727ZM6.086,8.626a1,1,0,1,0,1.008,1.727ZM18,4a2,2,0,0,1-2,2V8a4,4,0,0,0,4-4ZM16,6a2,2,0,0,1-2-2H12a4,4,0,0,0,4,4ZM14,4a2,2,0,0,1,2-2V0a4,4,0,0,0-4,4Zm2-2a2,2,0,0,1,2,2h2a4,4,0,0,0-4-4ZM6,11a2,2,0,0,1-2,2v2a4,4,0,0,0,4-4ZM4,13a2,2,0,0,1-2-2H0a4,4,0,0,0,4,4ZM2,11A2,2,0,0,1,4,9V7a4,4,0,0,0-4,4ZM4,9a2,2,0,0,1,2,2H8A4,4,0,0,0,4,7Zm14,9a2,2,0,0,1-2,2v2a4,4,0,0,0,4-4Zm-2,2a2,2,0,0,1-2-2H12a4,4,0,0,0,4,4Zm-2-2a2,2,0,0,1,2-2V14a4,4,0,0,0-4,4Zm2-2a2,2,0,0,1,2,2h2a4,4,0,0,0-4-4ZM6.087,13.374l6.83,3.98,1.007-1.728-6.83-3.98Zm6.819-8.728-6.82,3.98,1.008,1.727,6.82-3.98Z" fill="#09090b"/>
</svg>
