<svg id="shell" xmlns="http://www.w3.org/2000/svg" width="22" height="20.098" viewBox="0 0 22 20.098">
  <path id="Vector" d="M14,9.1a1,1,0,0,0-2,0Zm-1-4v0Zm4,4h0ZM5,9.1H5Zm8-8v0Zm8,8h0Zm-10,10v0ZM1,9.1H1Zm2.42-7.22.8.6.031-.043ZM5.828,3.659a1,1,0,1,0,1.5,1.318ZM12,9.1a1,1,0,0,1-.293.707l1.414,1.414A3,3,0,0,0,14,9.1Zm-.293.707A1,1,0,0,1,11,10.1v2a3,3,0,0,0,2.121-.879ZM11,10.1a1,1,0,0,1-.707-.293L8.879,11.219A3,3,0,0,0,11,12.1ZM10.293,9.8A1,1,0,0,1,10,9.1H8a3,3,0,0,0,.879,2.121ZM10,9.1a3,3,0,0,1,.879-2.121L9.464,5.562A5,5,0,0,0,8,9.1Zm.879-2.121A3,3,0,0,1,13,6.1v-2A5,5,0,0,0,9.464,5.562ZM13,6.1a3,3,0,0,1,2.121.879l1.414-1.414A5,5,0,0,0,13,4.1Zm2.121.879A3,3,0,0,1,16,9.1h2a5,5,0,0,0-1.465-3.536ZM16,9.1a5,5,0,0,1-1.465,3.536l1.414,1.414A7,7,0,0,0,18,9.1Zm-1.465,3.536A5,5,0,0,1,11,14.1v2a7,7,0,0,0,4.95-2.05ZM11,14.1a5,5,0,0,1-3.536-1.464L6.05,14.047A7,7,0,0,0,11,16.1ZM7.464,12.633A5,5,0,0,1,6,9.1H4a7,7,0,0,0,2.05,4.95ZM6,9.1a7,7,0,0,1,2.05-4.95L6.636,2.734A9,9,0,0,0,4,9.1Zm2.05-4.95A7,7,0,0,1,13,2.1V.1A9,9,0,0,0,6.636,2.734ZM13,2.1a7,7,0,0,1,4.95,2.05l1.414-1.414A9,9,0,0,0,13,.1Zm4.95,2.05A7,7,0,0,1,20,9.1h2a9,9,0,0,0-2.636-6.364ZM20,9.1a9,9,0,0,1-2.636,6.364l1.414,1.414A11,11,0,0,0,22,9.1Zm-2.636,6.364A9,9,0,0,1,11,18.1v2a11,11,0,0,0,7.778-3.222ZM11,18.1a9,9,0,0,1-6.364-2.636L3.222,16.876A11,11,0,0,0,11,20.1ZM4.636,15.462A9,9,0,0,1,2,9.1H0a11,11,0,0,0,3.222,7.778ZM2,9.1A10.93,10.93,0,0,1,4.217,2.481L2.623,1.274A12.93,12.93,0,0,0,0,9.1ZM4.248,2.439a1,1,0,0,1,.291-.282L3.464.469a3,3,0,0,0-.872.847Zm.291-.282a1,1,0,0,1,.379-.144L4.6.038A3,3,0,0,0,3.464.469Zm.379-.144a1,1,0,0,1,.4.018L5.816.093A3,3,0,0,0,4.6.038Zm.4.018a1,1,0,0,1,.364.178L6.909.625A3,3,0,0,0,5.816.093Zm.364.178a1,1,0,0,1,.264.308L7.7,1.548A3,3,0,0,0,6.909.625Zm.264.308a1,1,0,0,1,.12.387l1.991-.194A3,3,0,0,0,7.7,1.548Zm.12.387a1,1,0,0,1-.043.4l1.9.612a3,3,0,0,0,.13-1.209Zm-.043.4a1,1,0,0,1-.2.353l1.5,1.318a3,3,0,0,0,.6-1.058Z" transform="translate(0 0)" fill="#09090b"/>
</svg>
