<svg id="shield-off" xmlns="http://www.w3.org/2000/svg" width="22" height="22.003" viewBox="0 0 22 22.003">
  <path id="Vector" d="M1.707.293A1,1,0,1,0,.293,1.708ZM20.293,21.708a1,1,0,0,0,1.414-1.414ZM4,5A1,1,0,0,0,4,3ZM3,5H3Zm7.67,15.94L11.019,20,11,20Zm.67.01.321.947.009,0Zm6.675-3.078a1,1,0,1,0-1.55-1.265ZM7.811,1.785a1,1,0,1,0,1,1.735Zm2.429-.5L9.59.52l-.006,0Zm1.52,0,.658-.753L12.41.52ZM19,12H18v0Zm-1.072,1.136a1,1,0,1,0,1.984.255ZM.293,1.708l20,20,1.414-1.414-20-20ZM4,3a2,2,0,0,0-1.414.586L4,5H4Zm-1.414.586A2,2,0,0,0,2,5H4ZM2,5v7H4V5Zm0,7a8.954,8.954,0,0,0,2.556,6.5,14.684,14.684,0,0,0,5.788,3.382L11,20a12.729,12.729,0,0,1-5.01-2.888A6.959,6.959,0,0,1,4,12Zm8.321,9.877a2,2,0,0,0,1.34.02L11.019,20h0Zm1.349.017a13.914,13.914,0,0,0,6.345-4.022l-1.549-1.265a11.963,11.963,0,0,1-5.455,3.4ZM8.807,3.52A13.252,13.252,0,0,0,10.9,2.036L9.585.525a11.252,11.252,0,0,1-1.773,1.26ZM10.89,2.041A.17.17,0,0,1,11,2V0a2.17,2.17,0,0,0-1.41.52ZM11,2a.17.17,0,0,1,.11.041L12.41.52A2.17,2.17,0,0,0,11,0Zm.1.033A11.518,11.518,0,0,0,18,5V3A9.58,9.58,0,0,1,12.418.528ZM18,5h0l1.414-1.414A2,2,0,0,0,18,3Zm0,0h2a2,2,0,0,0-.586-1.414Zm0,0v7h2V5Zm0,7a8.787,8.787,0,0,1-.072,1.135l1.984.255A10.781,10.781,0,0,0,20,12Z" transform="translate(0)" fill="#09090b"/>
</svg>
