<svg id="shield-ellipsis" xmlns="http://www.w3.org/2000/svg" width="18" height="22.003" viewBox="0 0 18 22.003">
  <path id="Vector" d="M9.34,20.951l.321.947.008,0Zm-.67-.01L9.019,20,9,20ZM2,4V4ZM8.24,1.28,7.59.52,7.582.527Zm1.52,0,.658-.753L10.41.52ZM5,10a1,1,0,0,0,0,2Zm.01,2a1,1,0,0,0,0-2ZM9,10a1,1,0,0,0,0,2Zm.01,2a1,1,0,0,0,0-2ZM13,10a1,1,0,0,0,0,2Zm.01,2a1,1,0,0,0,0-2ZM16,12a6.968,6.968,0,0,1-1.986,5.108,12.78,12.78,0,0,1-5,2.9l.658,1.889a14.735,14.735,0,0,0,5.777-3.39A8.963,8.963,0,0,0,18,12ZM9.019,20h0l-.7,1.874a2,2,0,0,0,1.34.02ZM9,20a12.727,12.727,0,0,1-5.01-2.888A6.958,6.958,0,0,1,2,12H0a8.954,8.954,0,0,0,2.556,6.5,14.685,14.685,0,0,0,5.788,3.382ZM2,12V5H0v7ZM2,5H2L.586,3.586A2,2,0,0,0,0,5ZM2,5H2V3a2,2,0,0,0-1.414.586ZM2,5A11.553,11.553,0,0,0,8.9,2.034L7.582.527A9.616,9.616,0,0,1,2,3Zm6.89-2.96A.17.17,0,0,1,9,2V0A2.17,2.17,0,0,0,7.59.52ZM9,2a.17.17,0,0,1,.11.041L10.41.52A2.17,2.17,0,0,0,9,0Zm.1.033A11.518,11.518,0,0,0,16,5V3A9.58,9.58,0,0,1,10.418.528ZM16,5h0l1.414-1.414A2,2,0,0,0,16,3Zm0,0h2a2,2,0,0,0-.586-1.414Zm0,0v7h2V5ZM5,12h.01V10H5Zm4,0h.01V10H9Zm4,0h.01V10H13Z" fill="#09090b"/>
</svg>
