<svg id="ship-wheel" xmlns="http://www.w3.org/2000/svg" width="22" height="22" viewBox="0 0 22 22">
  <path id="Vector" d="M12,1a1,1,0,0,0-2,0Zm6.707,3.707a1,1,0,1,0-1.414-1.414ZM12.063,8.523a1,1,0,0,0,1.414,1.414ZM21,12a1,1,0,0,0,0-2Zm-3.707,6.707a1,1,0,0,0,1.414-1.414Zm-3.816-6.644a1,1,0,0,0-1.414,1.414ZM10,21a1,1,0,0,0,2,0Zm-.063-7.523a1,1,0,0,0-1.414-1.414ZM3.293,17.293a1,1,0,1,0,1.414,1.414ZM1,10a1,1,0,0,0,0,2Zm7.523-.063A1,1,0,0,0,9.937,8.523ZM4.707,3.293A1,1,0,0,0,3.293,4.707ZM18,11a7,7,0,0,1-7,7v2a9,9,0,0,0,9-9Zm-7,7a7,7,0,0,1-7-7H2a9,9,0,0,0,9,9ZM4,11a7,7,0,0,1,7-7V2a9,9,0,0,0-9,9Zm7-7a7,7,0,0,1,7,7h2a9,9,0,0,0-9-9ZM10,1V8.5h2V1Zm7.293,2.293-5.23,5.23,1.414,1.414,5.23-5.23ZM21,10H13.5v2H21Zm-2.293,7.293-5.23-5.23-1.414,1.414,5.23,5.23ZM10,13.5V21h2V13.5ZM8.523,12.063l-5.23,5.23,1.414,1.414,5.23-5.23ZM8.5,10H1v2H8.5ZM9.937,8.523l-5.23-5.23L3.293,4.707l5.23,5.23ZM12.5,11A1.5,1.5,0,0,1,11,12.5v2A3.5,3.5,0,0,0,14.5,11ZM11,12.5A1.5,1.5,0,0,1,9.5,11h-2A3.5,3.5,0,0,0,11,14.5ZM9.5,11A1.5,1.5,0,0,1,11,9.5v-2A3.5,3.5,0,0,0,7.5,11ZM11,9.5A1.5,1.5,0,0,1,12.5,11h2A3.5,3.5,0,0,0,11,7.5Z" fill="#09090b"/>
</svg>
