<svg id="shopping-cart" xmlns="http://www.w3.org/2000/svg" width="22.04" height="21.95" viewBox="0 0 22.04 21.95">
  <path id="Vector" d="M1,0A1,1,0,0,0,1,2ZM3,1,3.978.791A1,1,0,0,0,3,0ZM5.66,13.42l-.978.209h0Zm2,1.58V14H7.638Zm9.78,0v1h0Zm1.95-1.57-.976-.217v0ZM21.04,6l.976.217A1,1,0,0,0,21.04,5ZM4.07,5a1,1,0,0,0,0,2ZM6.95,19.95v2a2,2,0,0,0,2-2Zm0,0h-2a2,2,0,0,0,2,2Zm0,0v-2a2,2,0,0,0-2,2Zm0,0h2a2,2,0,0,0-2-2Zm11,0v2a2,2,0,0,0,2-2Zm0,0h-2a2,2,0,0,0,2,2Zm0,0v-2a2,2,0,0,0-2,2Zm0,0h2a2,2,0,0,0-2-2ZM1,2H3V0H1Zm1.022-.791,2.66,12.42,1.956-.419L3.978.791Zm2.66,12.42a3,3,0,0,0,1.074,1.725L7,13.785a1,1,0,0,1-.358-.575Zm1.074,1.725A3,3,0,0,0,7.682,16l-.044-2A1,1,0,0,1,7,13.785ZM7.66,16h9.78V14H7.66Zm9.782,0a3,3,0,0,0,1.877-.663l-1.254-1.558a1,1,0,0,1-.625.221Zm1.877-.663a3,3,0,0,0,1.048-1.692l-1.953-.43a1,1,0,0,1-.35.564Zm1.048-1.69,1.65-7.43-1.952-.434-1.65,7.43ZM21.04,5H4.07V7H21.04Z" fill="#09090b"/>
</svg>
