<svg id="shopping-basket" xmlns="http://www.w3.org/2000/svg" width="22" height="18.001" viewBox="0 0 22 18.001">
  <path id="Vector" d="M14.994,8.111a1,1,0,0,0-1.988-.221ZM12.006,16.89a1,1,0,0,0,1.988.221ZM17.132,8.5A1,1,0,1,0,18.868,7.5ZM14.868.5a1,1,0,1,0-1.736.992ZM1,7A1,1,0,1,0,1,9ZM21,9a1,1,0,0,0,0-2ZM3.477,7.789a1,1,0,1,0-1.955.423ZM4.1,15.4l.98-.2,0-.012Zm2,1.6V16H6.08Zm9.8,0,.02-1H15.9Zm2-1.6-.975-.224-.005.024Zm2.675-7.176a1,1,0,1,0-1.949-.448ZM3.5,11.5a1,1,0,0,0,0,2Zm15,2a1,1,0,0,0,0-2ZM3.132,7.5A1,1,0,0,0,4.868,8.5ZM8.868,1.5A1,1,0,1,0,7.132.5ZM8.994,7.89a1,1,0,0,0-1.988.221Zm-.988,9.221a1,1,0,1,0,1.988-.221Zm5-9.221-1,9,1.988.221,1-9ZM18.868,7.5l-4-7L13.132,1.5l4,7ZM1,9H21V7H1Zm.523-.789,1.6,7.4,1.955-.423-1.6-7.4ZM3.12,15.6a3,3,0,0,0,1.065,1.743l1.249-1.562A1,1,0,0,1,5.08,15.2Zm1.065,1.743A3,3,0,0,0,6.12,18l-.04-2a1,1,0,0,1-.645-.219ZM6.1,18h9.8V16H6.1Zm9.78,0a3,3,0,0,0,1.935-.657l-1.249-1.562A1,1,0,0,1,15.92,16Zm1.935-.657A3,3,0,0,0,18.88,15.6l-1.96-.4a1,1,0,0,1-.355.581Zm1.06-1.719,1.7-7.4-1.949-.448-1.7,7.4ZM3.5,13.5h15v-2H3.5Zm1.368-5,4-7L7.132.5l-4,7Zm2.138-.386,1,9,1.988-.221-1-9Z" transform="translate(0 0)" fill="#09090b"/>
</svg>
