<svg id="shopping-bag" xmlns="http://www.w3.org/2000/svg" width="20" height="22" viewBox="0 0 20 22">
  <path id="Vector" d="M4,1V0a1,1,0,0,0-.8.4ZM1,5,.2,4.4A1,1,0,0,0,0,5ZM1,19H1ZM19,5h1a1,1,0,0,0-.2-.6ZM16,1l.8-.6A1,1,0,0,0,16,0ZM15,9a1,1,0,0,0-2,0Zm-5,4v0ZM7,9A1,1,0,0,0,5,9ZM3.2.4l-3,4L1.8,5.6l3-4ZM0,5V19H2V5ZM0,19a3,3,0,0,0,.879,2.121l1.414-1.414A1,1,0,0,1,2,19Zm.879,2.121A3,3,0,0,0,3,22V20a1,1,0,0,1-.707-.293ZM3,22H17V20H3Zm14,0a3,3,0,0,0,2.121-.879l-1.414-1.414A1,1,0,0,1,17,20Zm2.121-.879A3,3,0,0,0,20,19H18a1,1,0,0,1-.293.707ZM20,19V5H18V19ZM19.8,4.4l-3-4L15.2,1.6l3,4ZM16,0H4V2H16ZM1,6H19V4H1ZM13,9a3,3,0,0,1-.879,2.121l1.414,1.414A5,5,0,0,0,15,9Zm-.879,2.121A3,3,0,0,1,10,12v2a5,5,0,0,0,3.535-1.465ZM10,12a3,3,0,0,1-2.121-.879L6.464,12.535A5,5,0,0,0,10,14Zm-2.121-.879A3,3,0,0,1,7,9H5a5,5,0,0,0,1.464,3.535Z" transform="translate(0 0)" fill="#09090b"/>
</svg>
