<svg id="shrub" xmlns="http://www.w3.org/2000/svg" width="18.073" height="21" viewBox="0 0 18.073 21">
  <path id="Vector" d="M8.06,20a1,1,0,0,0,2,0Zm1-7h1a1,1,0,0,0-.293-.707ZM7.767,10.293a1,1,0,0,0-1.414,1.414ZM14.06,6.8h-1a1,1,0,0,0,.5.867ZM10.86,18l.036-1H10.86Zm-3.8,0-.068,1,.068,0Zm-3-12,.529.848A1,1,0,0,0,5.06,6Zm5-5V1Zm2.707,11.707a1,1,0,0,0-1.414-1.414Zm-3.414.586a1,1,0,0,0,1.414,1.414ZM10.06,20V13h-2v7Zm-.293-7.707-2-2L6.352,11.707l2,2ZM13.06,6v.8h2V6Zm.5,1.667a5,5,0,0,1,2.144,2.455l1.853-.752a7,7,0,0,0-3-3.437Zm2.144,2.455a5,5,0,0,1,.175,3.255l1.923.549a7,7,0,0,0-.245-4.557Zm.175,3.255a5,5,0,0,1-1.868,2.671l1.176,1.618a7,7,0,0,0,2.615-3.74Zm-1.868,2.671A5,5,0,0,1,10.9,17l-.071,2a7,7,0,0,0,4.364-1.333ZM10.86,17H7.06v2h3.8ZM7.127,17A5.5,5.5,0,0,1,3.97,15.733L2.687,17.267A7.5,7.5,0,0,0,6.992,19ZM3.97,15.733a5.5,5.5,0,0,1-1.806-2.884l-1.94.485a7.5,7.5,0,0,0,2.463,3.933ZM2.164,12.849A5.5,5.5,0,0,1,2.4,9.454L.546,8.7a7.5,7.5,0,0,0-.322,4.629ZM2.4,9.454A5.5,5.5,0,0,1,4.589,6.848L3.53,5.152A7.5,7.5,0,0,0,.546,8.7ZM5.06,6A4,4,0,0,1,6.231,3.172L4.817,1.757A6,6,0,0,0,3.06,6ZM6.231,3.172A4,4,0,0,1,9.06,2V0A6,6,0,0,0,4.817,1.757ZM9.06,2a4,4,0,0,1,2.828,1.172L13.3,1.757A6,6,0,0,0,9.06,0Zm2.828,1.172A4,4,0,0,1,13.06,6h2A6,6,0,0,0,13.3,1.757Zm-1.536,8.121-2,2,1.414,1.414,2-2Z" transform="translate(0 0)" fill="#09090b"/>
</svg>
