<svg id="shuffle" xmlns="http://www.w3.org/2000/svg" width="22" height="22" viewBox="0 0 22 22">
  <path id="Vector" d="M1,16a1,1,0,0,0,0,2Zm4.7-.7.809.588.007-.01Zm6.1-8.6.816.579.028-.042ZM21,5l.707.707a1,1,0,0,0,0-1.414ZM17.707.293a1,1,0,0,0-1.414,1.414Zm-1.414,8a1,1,0,0,0,1.414,1.414ZM1,4A1,1,0,0,0,1,6ZM5.62,7.674A1,1,0,0,0,7.38,6.726ZM21,17l.707.707a1,1,0,0,0,0-1.414Zm-9.2-1.8-.848.53,0,.007Zm.348-1.33a1,1,0,1,0-1.7,1.06Zm5.559-1.577a1,1,0,0,0-1.414,1.414Zm-1.414,8a1,1,0,0,0,1.414,1.414ZM1,18H2.4V16H1Zm1.4,0a5.032,5.032,0,0,0,4.109-2.112L4.891,14.712A3.032,3.032,0,0,1,2.4,16Zm4.116-2.122,6.1-8.6L10.984,6.121l-6.1,8.6Zm6.128-8.642A2.9,2.9,0,0,1,15.1,6V4a4.9,4.9,0,0,0-4.144,2.163ZM15.1,6H21V4H15.1Zm1.193-4.293,4,4,1.414-1.414-4-4Zm4,2.586-4,4,1.414,1.414,4-4ZM1,6H2.9V4H1ZM2.9,6A3.174,3.174,0,0,1,5.62,7.674L7.38,6.726A5.173,5.173,0,0,0,2.9,4ZM21,16H15.1v2H21Zm-5.9,0a3,3,0,0,1-2.456-1.337l-1.687,1.074A4.993,4.993,0,0,0,15.1,18Zm-2.452-1.33-.5-.8-1.7,1.06.5.8Zm3.645-.963,4,4,1.414-1.414-4-4Zm4,2.586-4,4,1.414,1.414,4-4Z" fill="#09090b"/>
</svg>
