<svg id="siren" xmlns="http://www.w3.org/2000/svg" width="22" height="22" viewBox="0 0 22 22">
  <path id="Vector" d="M6,11H6Zm5-5V6ZM4,19H4Zm16-9a1,1,0,0,0,0,2Zm1,2a1,1,0,0,0,0-2ZM18.207,4.207a1,1,0,1,0-1.414-1.414Zm-1.914-.914a1,1,0,0,0,1.414,1.414ZM1,10a1,1,0,0,0,0,2Zm1,2a1,1,0,0,0,0-2ZM12,1a1,1,0,0,0-2,0ZM10,2a1,1,0,0,0,2,0ZM4.636,3.222A1,1,0,1,0,3.222,4.636ZM3.929,5.343A1,1,0,0,0,5.343,3.929ZM12,11a1,1,0,0,0-2,0Zm-2,6a1,1,0,0,0,2,0ZM7,17V11H5v6Zm0-6A4,4,0,0,1,8.172,8.172L6.757,6.757A6,6,0,0,0,5,11ZM8.172,8.172A4,4,0,0,1,11,7V5A6,6,0,0,0,6.757,6.757ZM11,7a4,4,0,0,1,2.828,1.172l1.414-1.414A6,6,0,0,0,11,5Zm2.828,1.172A4,4,0,0,1,15,11h2a6,6,0,0,0-1.757-4.243ZM15,11v6h2V11ZM3,20a2,2,0,0,0,.586,1.414L5,20H3Zm.586,1.414A2,2,0,0,0,5,22V20H5ZM5,22H17V20H5Zm12,0a2,2,0,0,0,1.414-.586L17,20h0Zm1.414-.586A2,2,0,0,0,19,20H17ZM19,20V19H17v1Zm0-1a3,3,0,0,0-.879-2.121l-1.414,1.414A1,1,0,0,1,17,19Zm-.879-2.121A3,3,0,0,0,16,16v2a1,1,0,0,1,.707.293ZM16,16H6v2H16ZM6,16a3,3,0,0,0-2.121.879l1.414,1.414A1,1,0,0,1,6,18Zm-2.121.879A3,3,0,0,0,3,19H5a1,1,0,0,1,.293-.707ZM3,19v1H5V19Zm17-7h1V10H20ZM16.793,2.793l-.5.5,1.414,1.414.5-.5ZM1,12H2V10H1ZM10,1V2h2V1ZM3.222,4.636l.707.707L5.343,3.929l-.707-.707ZM10,11v6h2V11Z" fill="#09090b"/>
</svg>
