<svg id="skull" xmlns="http://www.w3.org/2000/svg" width="18" height="21.002" viewBox="0 0 18 21.002">
  <path id="Vector" d="M5,18H6a1,1,0,0,0-1-1Zm0,2H4a1,1,0,0,0,1,1Zm8,0v1a1,1,0,0,0,1-1Zm0-2V17a1,1,0,0,0-1,1ZM9.5,15v1a1,1,0,0,0,.894-1.447ZM9,14l.894-.447a1,1,0,0,0-1.789,0Zm-.5,1-.894-.447A1,1,0,0,0,8.5,16Zm6.06-.25-.695-.719a1,1,0,0,0-.086,1.344ZM9,1V1ZM3.44,14.752l.781.625a1,1,0,0,0-.086-1.344ZM6,10v2a2,2,0,0,0,2-2Zm0,0H4a2,2,0,0,0,2,2Zm0,0V8a2,2,0,0,0-2,2Zm0,0H8A2,2,0,0,0,6,8Zm6,0v2a2,2,0,0,0,2-2Zm0,0H10a2,2,0,0,0,2,2Zm0,0V8a2,2,0,0,0-2,2Zm0,0h2a2,2,0,0,0-2-2ZM4,18v2H6V18Zm1,3h8V19H5Zm9-1V18H12v2Zm-3.606-5.447-.5-1-1.789.894.5,1Zm-2.289-1-.5,1,1.789.894.5-1ZM8.5,16h1V14h-1ZM13,19a3,3,0,0,0,1.6-.462l-1.066-1.692A1,1,0,0,1,13,17Zm1.6-.461A3,3,0,0,0,15.7,17.3l-1.8-.865a1,1,0,0,1-.369.413ZM15.7,17.3a3,3,0,0,0,.276-1.639l-1.987.227a1,1,0,0,1-.092.546Zm.276-1.639a3,3,0,0,0-.639-1.534l-1.561,1.25a1,1,0,0,1,.213.511Zm-.724-.19a9,9,0,0,0,2.549-4.6l-1.956-.415a7,7,0,0,1-1.983,3.58Zm2.549-4.6a9,9,0,0,0-.46-5.242l-1.854.75a7,7,0,0,1,.358,4.077Zm-.46-5.242a9,9,0,0,0-3.312-4.089L12.914,3.2a7,7,0,0,1,2.576,3.18ZM14.032,1.538A9,9,0,0,0,9,0V2a7,7,0,0,1,3.914,1.2ZM9,0A9,9,0,0,0,3.968,1.538L5.086,3.2A7,7,0,0,1,9,2ZM3.968,1.538A9,9,0,0,0,.656,5.627l1.854.75A7,7,0,0,1,5.086,3.2ZM.656,5.627A9,9,0,0,0,.2,10.868l1.956-.415A7,7,0,0,1,2.51,6.376ZM.2,10.868a9,9,0,0,0,2.549,4.6l1.39-1.438a7,7,0,0,1-1.983-3.58Zm2.463,3.259a3,3,0,0,0-.639,1.534l1.987.227a1,1,0,0,1,.213-.511Zm-.639,1.534A3,3,0,0,0,2.3,17.3l1.8-.865a1,1,0,0,1-.092-.546ZM2.3,17.3A3,3,0,0,0,3.4,18.541l1.066-1.692a1,1,0,0,1-.369-.413ZM3.4,18.541A3,3,0,0,0,5,19V17a1,1,0,0,1-.532-.154Z" transform="translate(0)" fill="#09090b"/>
</svg>
