<svg id="slice" xmlns="http://www.w3.org/2000/svg" width="21.991" height="18.991" viewBox="0 0 21.991 18.991">
  <path id="Vector" d="M7,11.991l-.707-.707h0Zm-6,6-.707-.707A1,1,0,0,0,1,18.991Zm9,0v1a1,1,0,0,0,1-1Zm7.37-16.37.707.707h0Zm3,3,.707.707h0ZM18.87,1V1ZM6.293,11.284l-6,6L1.707,18.7l6-6ZM1,18.991h9v-2H1Zm10-1v-3H9v3ZM16.663.914,6.293,11.284,7.707,12.7l10.37-10.37ZM6.293,12.7l3,3,1.414-1.414-3-3Zm4.414,3,10.37-10.37L19.663,3.914,9.293,14.284Zm10.37-10.37a3.121,3.121,0,0,0,.914-2.207h-2a1.121,1.121,0,0,1-.328.793Zm.914-2.207A3.121,3.121,0,0,0,21.077.914L19.663,2.328a1.121,1.121,0,0,1,.328.793ZM21.077.914A3.121,3.121,0,0,0,18.87,0V2a1.121,1.121,0,0,1,.793.328ZM18.87,0a3.121,3.121,0,0,0-2.207.914l1.414,1.414A1.121,1.121,0,0,1,18.87,2Z" transform="translate(0)" fill="#09090b"/>
</svg>
