<svg id="sliders-horizontal" xmlns="http://www.w3.org/2000/svg" width="20" height="22" viewBox="0 0 20 22">
  <path id="Vector" d="M19,4a1,1,0,0,0,0-2ZM12,2a1,1,0,0,0,0,2ZM8,4A1,1,0,0,0,8,2ZM1,2A1,1,0,0,0,1,4ZM19,12a1,1,0,0,0,0-2Zm-9-2a1,1,0,0,0,0,2ZM6,12a1,1,0,0,0,0-2ZM1,10a1,1,0,0,0,0,2ZM19,20a1,1,0,0,0,0-2Zm-5-2a1,1,0,0,0,0,2Zm-4,2a1,1,0,0,0,0-2ZM1,18a1,1,0,0,0,0,2ZM13,1a1,1,0,0,0-2,0ZM11,5a1,1,0,0,0,2,0ZM7,9A1,1,0,0,0,5,9ZM5,13a1,1,0,0,0,2,0Zm10,4a1,1,0,0,0-2,0Zm-2,4a1,1,0,0,0,2,0ZM19,2H12V4h7ZM8,2H1V4H8Zm11,8H10v2h9ZM6,10H1v2H6Zm13,8H14v2h5Zm-9,0H1v2h9ZM11,1V5h2V1ZM5,9v4H7V9Zm8,8v4h2V17Z" fill="#09090b"/>
</svg>
