<svg id="smile-plus" xmlns="http://www.w3.org/2000/svg" width="22" height="22" viewBox="0 0 22 22">
  <path id="Vector" d="M22,10.05a1,1,0,0,0-2,0Zm-1,1,1,.005V11.05Zm-9.1-9a1,1,0,1,0,.2-1.99ZM7.8,12.45a1,1,0,0,0-1.6,1.2Zm8,1.2a1,1,0,1,0-1.6-1.2ZM8,7.05a1,1,0,0,0,0,2Zm.01,2a1,1,0,0,0,0-2Zm5.99-2a1,1,0,0,0,0,2Zm.01,2a1,1,0,0,0,0-2Zm.99-6a1,1,0,1,0,0,2Zm6,2a1,1,0,0,0,0-2Zm-2-4a1,1,0,1,0-2,0Zm-2,6a1,1,0,0,0,2,0Zm3,3v1h2v-1Zm0,.995a9,9,0,0,1-1.6,5.081l1.644,1.139A11,11,0,0,0,22,11.055Zm-1.6,5.081A9,9,0,0,1,14.2,19.411l.712,1.869a11,11,0,0,0,5.126-4.015ZM14.2,19.411a9,9,0,0,1-5.317.338l-.47,1.944a11,11,0,0,0,6.5-.413Zm-5.317.338A9,9,0,0,1,4.31,17.021L2.824,18.359a11,11,0,0,0,5.593,3.334ZM4.31,17.021a9,9,0,0,1-2.232-4.837L.1,12.446a11,11,0,0,0,2.728,5.912ZM2.078,12.183a9,9,0,0,1,.894-5.252l-1.784-.9A11,11,0,0,0,.1,12.446Zm.894-5.252A9,9,0,0,1,6.679,3.105l-.96-1.754A11,11,0,0,0,1.188,6.027ZM6.679,3.105A9,9,0,0,1,11.9,2.045l.2-1.99a11,11,0,0,0-6.381,1.3ZM7,13.05c-.8.6-.8.6-.8.6h0v0l0,0,.007.009.021.027.07.086c.059.07.142.165.248.276a6.95,6.95,0,0,0,.923.8A5.987,5.987,0,0,0,11,16.05v-2a3.99,3.99,0,0,1-2.349-.809A4.944,4.944,0,0,1,8,12.671c-.073-.076-.127-.138-.16-.177L7.8,12.452l0-.006h0l-.8.6Zm4,3a5.988,5.988,0,0,0,3.526-1.191,6.951,6.951,0,0,0,.923-.8c.106-.111.189-.206.248-.276l.07-.086.021-.027.007-.009,0,0v0h0s0,0-.8-.6l-.8-.6h0l0,.006-.034.041c-.033.04-.087.1-.16.177a4.946,4.946,0,0,1-.655.571A3.99,3.99,0,0,1,11,14.05Zm-3-7h.01v-2H8Zm6,0h.01v-2H14Zm1-4h6v-2H15Zm2-4v6h2v-6Z" transform="translate(0 0)" fill="#09090b"/>
</svg>
