<svg id="snail" xmlns="http://www.w3.org/2000/svg" width="22" height="20" viewBox="0 0 22 20">
  <path id="Vector" d="M13,11h0ZM9,7V7ZM5,11H5Zm5,0a1,1,0,0,0-2,0ZM1,18a1,1,0,0,0,0,2ZM19,3V3ZM17.894.553a1,1,0,1,0-1.789.894Zm-.689,3.094a1,1,0,1,0,1.789-.894Zm4.689-2.2A1,1,0,1,0,20.105.553ZM19.006,2.753a1,1,0,1,0,1.789.894ZM0,11a7,7,0,0,0,.533,2.679l1.848-.765A5,5,0,0,1,2,11Zm.533,2.679A7,7,0,0,0,2.05,15.95l1.414-1.414a5,5,0,0,1-1.084-1.622ZM2.05,15.95a7,7,0,0,0,2.271,1.518l.765-1.848a5,5,0,0,1-1.622-1.084Zm2.271,1.518A7,7,0,0,0,7,18V16a5,5,0,0,1-1.913-.381ZM7,18a7,7,0,0,0,2.679-.533L8.913,15.62A5,5,0,0,1,7,16Zm2.679-.533A7,7,0,0,0,11.95,15.95l-1.414-1.414A5,5,0,0,1,8.913,15.62ZM11.95,15.95a7,7,0,0,0,1.517-2.271l-1.848-.765a5,5,0,0,1-1.084,1.622Zm1.517-2.271A7,7,0,0,0,14,11H12a5,5,0,0,1-.381,1.913ZM14,11a5,5,0,0,0-1.465-3.536L11.121,8.879A3,3,0,0,1,12,11ZM12.535,7.465A5,5,0,0,0,9,6V8a3,3,0,0,1,2.121.879ZM9,6A5,5,0,0,0,5.464,7.465L6.879,8.879A3,3,0,0,1,9,8ZM5.464,7.465A5,5,0,0,0,4,11H6a3,3,0,0,1,.879-2.121ZM4,11a3,3,0,0,0,.879,2.121l1.414-1.414A1,1,0,0,1,6,11Zm.879,2.121A3,3,0,0,0,7,14V12a1,1,0,0,1-.707-.293ZM7,14a3,3,0,0,0,2.121-.879L7.707,11.707A1,1,0,0,1,7,12Zm2.121-.879A3,3,0,0,0,10,11H8a1,1,0,0,1-.293.707ZM16,11a7,7,0,0,1-7,7v2a9,9,0,0,0,9-9ZM9,18a7,7,0,0,1-7-7H0a9,9,0,0,0,9,9ZM2,11A7,7,0,0,1,9,4V2a9,9,0,0,0-9,9ZM9,4a7,7,0,0,1,7,7h2A9,9,0,0,0,9,2ZM1,20H13V18H1Zm12,0a9.023,9.023,0,0,0,9-9H20a7.024,7.024,0,0,1-7,7Zm9-9V5H20v6Zm0-6a3,3,0,0,0-.879-2.121L19.707,4.293A1,1,0,0,1,20,5Zm-.879-2.121A3,3,0,0,0,19,2V4a1,1,0,0,1,.707.293ZM19,2a3,3,0,0,0-2.121.879l1.414,1.414A1,1,0,0,1,19,4Zm-2.121.879A3,3,0,0,0,16,5h2a1,1,0,0,1,.293-.707ZM16,5v6h2V5Zm.106-3.553,1.1,2.2,1.789-.894-1.1-2.2Zm4-.894-1.1,2.2,1.789.894,1.1-2.2Z" transform="translate(0 0)" fill="#09090b"/>
</svg>
