<svg id="snowflake" xmlns="http://www.w3.org/2000/svg" width="22" height="22" viewBox="0 0 22 22">
  <path id="Vector" d="M1,10a1,1,0,0,0,0,2Zm20,2a1,1,0,0,0,0-2ZM12,1a1,1,0,0,0-2,0ZM10,21a1,1,0,0,0,2,0Zm8.293-5.293a1,1,0,1,0,1.414-1.414ZM15,11l-.707-.707a1,1,0,0,0,0,1.414Zm4.707-3.293a1,1,0,0,0-1.414-1.414Zm-16-1.414A1,1,0,0,0,2.293,7.707ZM7,11l.707.707a1,1,0,0,0,0-1.414ZM2.293,14.293a1,1,0,0,0,1.414,1.414ZM15.707,3.707a1,1,0,0,0-1.414-1.414ZM11,7l-.707.707a1,1,0,0,0,1.414,0ZM7.707,2.293A1,1,0,0,0,6.293,3.707Zm-1.414,16a1,1,0,0,0,1.414,1.414ZM11,15l.707-.707a1,1,0,0,0-1.414,0Zm3.293,4.707a1,1,0,0,0,1.414-1.414ZM1,12H21V10H1ZM10,1V21h2V1Zm9.707,13.293-4-4-1.414,1.414,4,4Zm-4-2.586,4-4L18.293,6.293l-4,4Zm-13.414-4,4,4,1.414-1.414-4-4Zm4,2.586-4,4,1.414,1.414,4-4Zm8-8-4,4,1.414,1.414,4-4Zm-2.586,4-4-4L6.293,3.707l4,4Zm-4,13.414,4-4-1.414-1.414-4,4Zm2.586-4,4,4,1.414-1.414-4-4Z" fill="#09090b"/>
</svg>
