<svg id="sofa" xmlns="http://www.w3.org/2000/svg" width="22" height="18" viewBox="0 0 22 18">
  <path id="Vector" d="M17,1V1ZM5,1V1ZM3,3H3ZM1,8H1Zm0,5H1Zm16-3v1a1,1,0,0,0,1-1ZM5,10H4a1,1,0,0,0,1,1ZM5,8H5ZM2,17a1,1,0,0,0,2,0Zm16,0a1,1,0,0,0,2,0ZM12,1a1,1,0,0,0-2,0Zm-2,9a1,1,0,0,0,2,0ZM20,6V3H18V6Zm0-3A3,3,0,0,0,19.121.879L17.707,2.293A1,1,0,0,1,18,3ZM19.121.879A3,3,0,0,0,17,0V2a1,1,0,0,1,.707.293ZM17,0H5V2H17ZM5,0A3,3,0,0,0,2.879.879L4.293,2.293A1,1,0,0,1,5,2ZM2.879.879A3,3,0,0,0,2,3H4a1,1,0,0,1,.293-.707ZM2,3V6H4V3ZM0,8v5H2V8Zm0,5a3,3,0,0,0,.879,2.121l1.414-1.414A1,1,0,0,1,2,13Zm.879,2.121A3,3,0,0,0,3,16V14a1,1,0,0,1-.707-.293ZM3,16H19V14H3Zm16,0a3,3,0,0,0,2.121-.879l-1.414-1.414A1,1,0,0,1,19,14Zm2.121-.879A3,3,0,0,0,22,13H20a1,1,0,0,1-.293.707ZM22,13V8H20v5Zm0-5a3,3,0,0,0-.879-2.121L19.707,7.293A1,1,0,0,1,20,8Zm-.879-2.121A3,3,0,0,0,19,5V7a1,1,0,0,1,.707.293ZM19,5a3,3,0,0,0-2.121.879l1.414,1.414A1,1,0,0,1,19,7Zm-2.121.879A3,3,0,0,0,16,8h2a1,1,0,0,1,.293-.707ZM16,8v2h2V8Zm1,1H5v2H17ZM6,10V8H4v2ZM6,8a3,3,0,0,0-.879-2.121L3.707,7.293A1,1,0,0,1,4,8ZM5.121,5.879A3,3,0,0,0,3,5V7a1,1,0,0,1,.707.293ZM3,5a3,3,0,0,0-2.121.879L2.293,7.293A1,1,0,0,1,3,7ZM.879,5.879A3,3,0,0,0,0,8H2a1,1,0,0,1,.293-.707ZM2,15v2H4V15Zm16,0v2h2V15ZM10,1v9h2V1Z" fill="#09090b"/>
</svg>
