<svg id="soup" xmlns="http://www.w3.org/2000/svg" width="21" height="20" viewBox="0 0 21 20">
  <path id="Vector" d="M10,19v0Zm9-9h1a1,1,0,0,0-1-1ZM1,10V9a1,1,0,0,0-1,1Zm4,8a1,1,0,0,0,0,2Zm10,2a1,1,0,0,0,0-2ZM16.577,9.616a1,1,0,0,0,1.846.769Zm4.346-5.231a1,1,0,0,0-1.846-.769ZM14.6.063A1,1,0,0,0,13.9,1.938Zm.4,2.3,1,.072V2.42ZM14,4.38,13,4.3l0,.021Zm.032,2.336a1,1,0,1,0,1.4-1.432ZM9.6.063A1,1,0,0,0,8.9,1.938Zm.393,2.3-1-.072V2.3ZM9.01,4.38l1,.077V4.441Zm.022,2.336a1,1,0,0,0,1.4-1.432ZM4.6.063A1,1,0,0,0,3.9,1.938ZM5,2.36l1,.072V2.42ZM4,4.38,3,4.3q0,.011,0,.021Zm.051,2.345a1,1,0,0,0,1.378-1.45ZM10,20a10,10,0,0,0,7.071-2.929l-1.414-1.414A8,8,0,0,1,10,18Zm7.071-2.929A10,10,0,0,0,20,10H18a8,8,0,0,1-2.343,5.657ZM19,9H1v2H19ZM0,10a10,10,0,0,0,2.929,7.071l1.414-1.414A8,8,0,0,1,2,10Zm2.929,7.071A10,10,0,0,0,10,20V18a8,8,0,0,1-5.657-2.343ZM5,20H15V18H5Zm13.423-9.615,2.5-6-1.846-.769-2.5,6ZM13.9,1.938c-.042-.015-.046-.024-.027-.009a.29.29,0,0,1,.056.06.352.352,0,0,1,.051.107A.592.592,0,0,1,14,2.3l2,.12A2.323,2.323,0,0,0,14.6.063Zm.1.35c-.005.069-.03.141-.286.47A2.851,2.851,0,0,0,13,4.3L15,4.465c.006-.068.032-.139.3-.475A2.815,2.815,0,0,0,16,2.432ZM13,4.316a2.943,2.943,0,0,0,1.03,2.4l1.4-1.432a1.818,1.818,0,0,1-.347-.418A.735.735,0,0,1,15,4.444ZM8.9,1.938c-.042-.015-.046-.024-.028-.01a.275.275,0,0,1,.054.057.332.332,0,0,1,.048.1.573.573,0,0,1,.016.2l1.995.144A2.306,2.306,0,0,0,9.6.063Zm.089.362c0,.061-.023.129-.281.46a2.774,2.774,0,0,0-.7,1.56l2,.122c0-.055.02-.117.281-.453a2.781,2.781,0,0,0,.7-1.568Zm-.979,2A2.91,2.91,0,0,0,9.032,6.716l1.4-1.432a1.784,1.784,0,0,1-.344-.415.7.7,0,0,1-.076-.412ZM3.9,1.938c-.042-.015-.046-.024-.027-.009a.29.29,0,0,1,.056.06.354.354,0,0,1,.051.107A.591.591,0,0,1,4,2.3l2,.12A2.324,2.324,0,0,0,4.6.063Zm.1.35c0,.069-.03.141-.286.47A2.851,2.851,0,0,0,3,4.3L5,4.465c.006-.068.032-.139.295-.475A2.815,2.815,0,0,0,6,2.432ZM3,4.316A2.923,2.923,0,0,0,4.051,6.725l1.378-1.45a1.756,1.756,0,0,1-.349-.412A.724.724,0,0,1,5,4.444Z" transform="translate(0 0)" fill="#09090b"/>
</svg>
