<svg id="spade" xmlns="http://www.w3.org/2000/svg" width="22" height="22" viewBox="0 0 22 22">
  <path id="Vector" d="M1,13.5H1ZM6.5,19v0ZM11,17l.707-.707a1,1,0,0,0-1.414,0Zm4.5,2v0ZM11,1l.707-.707a1,1,0,0,0-1.414,0ZM10,21a1,1,0,0,0,2,0ZM3.293,7.293C1.808,8.778,0,10.744,0,13.5H2c0-1.844,1.192-3.278,2.707-4.793ZM0,13.5a6.5,6.5,0,0,0,.495,2.487l1.848-.765A4.5,4.5,0,0,1,2,13.5Zm.495,2.487A6.5,6.5,0,0,0,1.9,18.1l1.414-1.414a4.5,4.5,0,0,1-.975-1.46ZM1.9,18.1A6.5,6.5,0,0,0,6.5,20V18a4.5,4.5,0,0,1-3.182-1.318ZM6.5,20a6.683,6.683,0,0,0,2.764-.522,8.055,8.055,0,0,0,2.443-1.771l-1.414-1.414a6.1,6.1,0,0,1-1.832,1.354A4.7,4.7,0,0,1,6.5,18Zm3.793-2.293a8.055,8.055,0,0,0,2.443,1.771A6.683,6.683,0,0,0,15.5,20V18a4.7,4.7,0,0,1-1.961-.353,6.1,6.1,0,0,1-1.832-1.354ZM15.5,20a6.5,6.5,0,0,0,2.487-.495l-.765-1.848A4.5,4.5,0,0,1,15.5,18Zm2.487-.495A6.5,6.5,0,0,0,20.1,18.1l-1.414-1.414a4.5,4.5,0,0,1-1.46.976ZM20.1,18.1a6.5,6.5,0,0,0,1.409-2.109l-1.848-.765a4.5,4.5,0,0,1-.976,1.46Zm1.409-2.109A6.5,6.5,0,0,0,22,13.5H20a4.5,4.5,0,0,1-.343,1.722ZM22,13.5c0-2.756-1.808-4.722-3.293-6.207L17.293,8.707C18.808,10.222,20,11.656,20,13.5ZM18.707,7.293l-7-7L10.293,1.707l7,7Zm-8.414-7-7,7L4.707,8.707l7-7ZM10,17v4h2V17Z" fill="#09090b"/>
</svg>
