<svg id="sparkle" xmlns="http://www.w3.org/2000/svg" width="22" height="22" viewBox="0 0 22 22">
  <path id="Vector" d="M8.935,14.5l.968-.25h0ZM7.5,13.063l.25-.968h0ZM1.363,11.481l-.273.962.023.006Zm0-.962-.25-.968-.023.006ZM7.5,8.936l-.25-.968h0ZM8.935,7.5l.968.25h0Zm1.582-6.135L9.554,1.1l-.005.02Zm.963,0,.968-.25-.005-.02ZM13.061,7.5l-.968.25h0ZM14.5,8.937l-.25.968h0Zm6.135,1.581.266-.964-.016,0Zm0,.964.25.968.016,0ZM14.5,13.063l-.25-.968h0ZM13.061,14.5l-.968-.25h0Zm-1.582,6.135.963.27.005-.02Zm-.963,0-.968.25.005.02ZM9.9,14.25a3,3,0,0,0-.784-1.372L7.706,14.293a1,1,0,0,1,.261.457ZM9.12,12.878A3,3,0,0,0,7.748,12.1l-.5,1.936a1,1,0,0,1,.457.261Zm-1.372-.784L1.613,10.513l-.5,1.937,6.135,1.582ZM1.637,10.519a.5.5,0,0,1,.262.18L.3,11.9a1.5,1.5,0,0,0,.787.539Zm.262.18A.5.5,0,0,1,2,11H0a1.5,1.5,0,0,0,.3.9ZM2,11a.5.5,0,0,1-.1.3L.3,10.1A1.5,1.5,0,0,0,0,11Zm-.1.3a.5.5,0,0,1-.262.179L1.09,9.557A1.5,1.5,0,0,0,.3,10.1Zm-.286.186L7.748,9.9l-.5-1.937L1.114,9.551ZM7.748,9.9A3,3,0,0,0,9.12,9.122L7.706,7.707a1,1,0,0,1-.457.261ZM9.12,9.122A3,3,0,0,0,9.9,7.751l-1.936-.5a1,1,0,0,1-.261.457ZM9.9,7.75l1.582-6.135-1.937-.5L7.967,7.251Zm1.577-6.115A.5.5,0,0,1,11.3,1.9L10.092.3a1.5,1.5,0,0,0-.538.791ZM11.3,1.9A.5.5,0,0,1,11,2V0a1.5,1.5,0,0,0-.907.3ZM11,2a.5.5,0,0,1-.3-.1L11.906.3A1.5,1.5,0,0,0,11,0Zm-.3-.1a.5.5,0,0,1-.179-.264L12.443,1.1A1.5,1.5,0,0,0,11.905.3Zm-.185-.284L12.093,7.75l1.937-.5L12.449,1.116ZM12.093,7.75a3,3,0,0,0,.784,1.372l1.414-1.414a1,1,0,0,1-.261-.457Zm.784,1.372a3,3,0,0,0,1.372.784l.5-1.937a1,1,0,0,1-.457-.261Zm1.372.784,6.135,1.581.5-1.937L14.748,7.969Zm6.119,1.577A.5.5,0,0,1,20.1,11.3l1.591-1.212a1.5,1.5,0,0,0-.795-.537ZM20.1,11.3A.5.5,0,0,1,20,11h2a1.5,1.5,0,0,0-.307-.909ZM20,11a.5.5,0,0,1,.1-.3l1.591,1.212A1.5,1.5,0,0,0,22,11Zm.1-.3a.5.5,0,0,1,.265-.179l.532,1.928a1.5,1.5,0,0,0,.795-.537Zm.281-.183-6.135,1.581.5,1.937,6.135-1.581ZM14.249,12.1a3,3,0,0,0-1.372.783l1.414,1.414a1,1,0,0,1,.457-.261Zm-1.372.783a3,3,0,0,0-.784,1.372l1.937.5a1,1,0,0,1,.261-.457Zm-.784,1.372-1.582,6.135,1.937.5L14.03,14.75Zm-1.577,6.115A.5.5,0,0,1,10.7,20.1L11.9,21.7a1.5,1.5,0,0,0,.538-.791ZM10.7,20.1A.5.5,0,0,1,11,20v2a1.5,1.5,0,0,0,.907-.3ZM11,20a.5.5,0,0,1,.3.1L10.091,21.7A1.5,1.5,0,0,0,11,22Zm.3.1a.5.5,0,0,1,.179.264L9.553,20.9a1.5,1.5,0,0,0,.538.791Zm.185.284L9.9,14.251l-1.937.5,1.581,6.135Z" transform="translate(0 0)" fill="#09090b"/>
</svg>
