<svg id="spell-check-2" xmlns="http://www.w3.org/2000/svg" width="18.1" height="19" viewBox="0 0 18.1 19">
  <path id="Vector" d="M2.106,12.553a1,1,0,0,0,1.789.894ZM9,1,9.894.553a1,1,0,0,0-1.789,0Zm5.106,12.447a1,1,0,0,0,1.789-.894ZM5,8a1,1,0,0,0,0,2Zm8,2a1,1,0,0,0,0-2ZM1,17a1,1,0,0,0,0,2Zm16.1,1a1,1,0,0,0,0-2ZM3.894,13.447l6-12L8.106.553l-6,12Zm4.211-12,6,12,1.789-.894-6-12ZM5,10h8V8H5ZM1,19a2.5,2.5,0,0,0,1.769-.745,1.4,1.4,0,0,1,.271-.205A.54.54,0,0,1,3.3,18V16a2.528,2.528,0,0,0-1.161.263,3.269,3.269,0,0,0-.683.482C1.176,16.989,1.149,17,1,17Zm2.3-1a.461.461,0,0,1,.231.041,1.312,1.312,0,0,1,.246.2,3.144,3.144,0,0,0,.66.489A2.443,2.443,0,0,0,5.6,19V17a.461.461,0,0,1-.231-.041,1.312,1.312,0,0,1-.246-.2,3.144,3.144,0,0,0-.66-.489A2.443,2.443,0,0,0,3.3,16Zm2.3,1a2.5,2.5,0,0,0,1.769-.745,1.4,1.4,0,0,1,.271-.205A.54.54,0,0,1,7.9,18V16a2.528,2.528,0,0,0-1.161.263,3.269,3.269,0,0,0-.683.482c-.28.244-.307.255-.456.255Zm2.3-1c.149,0,.176.011.456.255a3.269,3.269,0,0,0,.683.482A2.528,2.528,0,0,0,10.2,19V17a.54.54,0,0,1-.261-.049,1.4,1.4,0,0,1-.271-.205A2.5,2.5,0,0,0,7.9,16Zm2.3,1a2.5,2.5,0,0,0,1.769-.745,1.405,1.405,0,0,1,.271-.205A.539.539,0,0,1,12.5,18V16a2.528,2.528,0,0,0-1.161.263,3.269,3.269,0,0,0-.683.482c-.28.244-.307.255-.456.255Zm2.3-1c.149,0,.176.011.456.255a3.271,3.271,0,0,0,.682.482A2.529,2.529,0,0,0,14.8,19V17a.539.539,0,0,1-.261-.049,1.405,1.405,0,0,1-.271-.205A2.5,2.5,0,0,0,12.5,16Zm2.3,1a2.5,2.5,0,0,0,1.769-.745,1.405,1.405,0,0,1,.271-.205A.539.539,0,0,1,17.1,18V16a2.528,2.528,0,0,0-1.161.263,3.269,3.269,0,0,0-.683.482c-.28.244-.307.255-.456.255Z" fill="#09090b"/>
</svg>
