<svg id="spline" xmlns="http://www.w3.org/2000/svg" width="20" height="20" viewBox="0 0 20 20">
  <path id="Vector" d="M18,3a1,1,0,0,1-1,1V6a3,3,0,0,0,3-3ZM17,4a1,1,0,0,1-1-1H14a3,3,0,0,0,3,3ZM16,3a1,1,0,0,1,1-1V0a3,3,0,0,0-3,3Zm1-1a1,1,0,0,1,1,1h2a3,3,0,0,0-3-3ZM4,17a1,1,0,0,1-1,1v2a3,3,0,0,0,3-3ZM3,18a1,1,0,0,1-1-1H0a3,3,0,0,0,3,3ZM2,17a1,1,0,0,1,1-1V14a3,3,0,0,0-3,3Zm1-1a1,1,0,0,1,1,1H6a3,3,0,0,0-3-3Zm1-1A11,11,0,0,1,7.222,7.222L5.808,5.808A13,13,0,0,0,2,15ZM7.222,7.222A11,11,0,0,1,15,4V2A13,13,0,0,0,5.808,5.808Z" fill="#09090b"/>
</svg>
