<svg id="split" xmlns="http://www.w3.org/2000/svg" width="20" height="21" viewBox="0 0 20 21">
  <path id="Vector" d="M14,0a1,1,0,0,0,0,2Zm5,1h1a1,1,0,0,0-1-1ZM18,6a1,1,0,0,0,2,0ZM6,2A1,1,0,0,0,6,0ZM1,1V0A1,1,0,0,0,0,1ZM0,6A1,1,0,0,0,2,6ZM9,20a1,1,0,0,0,2,0Zm1-8.3-1-.011V11.7ZM8.828,8.828l-.707.707h0Zm3.465-2.535a1,1,0,0,0,1.414,1.414ZM14,2h5V0H14Zm4-1V6h2V1ZM6,0H1V2H6ZM0,1V6H2V1ZM11,20V11.7H9V20Zm0-8.289a5,5,0,0,0-.37-1.943l-1.852.756A3,3,0,0,1,9,11.689Zm-.37-1.943A5,5,0,0,0,9.535,8.121L8.121,9.535a3,3,0,0,1,.657.988ZM9.535,8.121,1.707.293.293,1.707,8.121,9.535Zm4.172-.414,6-6L18.293.293l-6,6Z" fill="#09090b"/>
</svg>
