<svg id="spray-can" xmlns="http://www.w3.org/2000/svg" width="20" height="21" viewBox="0 0 20 21">
  <path id="Vector" d="M1,0A1,1,0,0,0,1,2Zm.01,2a1,1,0,0,0,0-2ZM5,2A1,1,0,0,0,5,4Zm.01,2a1,1,0,0,0,0-2ZM9,4A1,1,0,0,0,9,6Zm.01,2a1,1,0,1,0,0-2ZM1,4A1,1,0,0,0,1,6Zm.01,2a1,1,0,0,0,0-2ZM5,6A1,1,0,0,0,5,8Zm.01,2a1,1,0,0,0,0-2ZM1,8a1,1,0,0,0,0,2Zm.01,2a1,1,0,0,0,0-2ZM13,3V2a1,1,0,0,0-1,1Zm4,0h1a1,1,0,0,0-1-1Zm2,6h1a1,1,0,0,0-.293-.707ZM11,9l-.707-.707A1,1,0,0,0,10,9Zm-.243,2.03a1,1,0,1,0,.485,1.94Zm8.485-.06a1,1,0,0,0-.485-1.94Zm-8.485,5.06a1,1,0,1,0,.485,1.94Zm8.485-.06a1,1,0,1,0-.485-1.94ZM1,2h.01V0H1ZM5,4h.01V2H5ZM9,6h.01V4H9ZM1,6h.01V4H1ZM5,8h.01V6H5ZM1,10h.01V8H1ZM13,4h4V2H13Zm3-1V7h2V3Zm1,3H13V8h4ZM14,7V3H12V7Zm2.293.707,2,2,1.414-1.414-2-2ZM18,9V19h2V9Zm0,10a.169.169,0,0,1-.005.05A.07.07,0,0,1,18,19.038.13.13,0,0,1,18.038,19l.012-.006A.169.169,0,0,1,18,19v2a1.942,1.942,0,0,0,2-2Zm0,0H12v2h6Zm-6,0a.169.169,0,0,1-.05-.005l.012.006a.13.13,0,0,1,.037.037.07.07,0,0,1,.006.012A.169.169,0,0,1,12,19H10a1.942,1.942,0,0,0,2,2Zm0,0V9H10V19Zm-.293-9.293,2-2L12.293,6.293l-2,2Zm-.465,3.263,8-2-.485-1.94-8,2Zm0,5,8-2-.485-1.94-8,2Z" fill="#09090b"/>
</svg>
