<svg id="square-asterisk" xmlns="http://www.w3.org/2000/svg" width="20" height="20" viewBox="0 0 20 20">
  <path id="Vector" d="M11,6A1,1,0,0,0,9,6ZM9,14a1,1,0,0,0,2,0ZM6,11.132A1,1,0,1,0,7,12.868ZM14,8.868A1,1,0,0,0,13,7.132ZM7,7.132A1,1,0,0,0,6,8.868ZM13,12.868A1,1,0,0,0,14,11.132ZM3,2H17V0H3ZM17,2a1,1,0,0,1,1,1h2a3,3,0,0,0-3-3Zm1,1V17h2V3Zm0,14a1,1,0,0,1-1,1v2a3,3,0,0,0,3-3Zm-1,1H3v2H17ZM3,18a1,1,0,0,1-1-1H0a3,3,0,0,0,3,3ZM2,17V3H0V17ZM2,3A1,1,0,0,1,3,2V0A3,3,0,0,0,0,3ZM9,6v8h2V6ZM7,12.868l7-4L13,7.132l-7,4ZM6,8.868l7,4L14,11.132l-7-4Z" fill="#09090b"/>
</svg>
