<svg id="square-stack" xmlns="http://www.w3.org/2000/svg" width="22" height="22" viewBox="0 0 22 22">
  <path id="Vector" d="M3,10A1,1,0,0,0,3,8ZM8,3a1,1,0,0,0,2,0ZM9,16a1,1,0,0,0,0-2Zm5-7a1,1,0,0,0,2,0ZM3,8A1.006,1.006,0,0,1,2,7H0a3.006,3.006,0,0,0,3,3ZM2,7V3H0V7ZM2,3A1.006,1.006,0,0,1,3,2V0A3.006,3.006,0,0,0,0,3ZM3,2H7V0H3ZM7,2A1.006,1.006,0,0,1,8,3h2A3.006,3.006,0,0,0,7,0ZM9,14a1.006,1.006,0,0,1-1-1H6a3.006,3.006,0,0,0,3,3ZM8,13V9H6v4ZM8,9A1.006,1.006,0,0,1,9,8V6A3.006,3.006,0,0,0,6,9ZM9,8h4V6H9Zm4,0a1.006,1.006,0,0,1,1,1h2a3.006,3.006,0,0,0-3-3Zm2,6h4V12H15Zm4,0a1,1,0,0,1,1,1h2a3,3,0,0,0-3-3Zm1,1v4h2V15Zm0,4a1,1,0,0,1-1,1v2a3,3,0,0,0,3-3Zm-1,1H15v2h4Zm-4,0a1,1,0,0,1-1-1H12a3,3,0,0,0,3,3Zm-1-1V15H12v4Zm0-4a1,1,0,0,1,1-1V12a3,3,0,0,0-3,3Z" fill="#09090b"/>
</svg>
