<svg id="square-terminal" xmlns="http://www.w3.org/2000/svg" width="20" height="20" viewBox="0 0 20 20">
  <path id="Vector" d="M4.293,8.293A1,1,0,0,0,5.707,9.707ZM7,7l.707.707a1,1,0,0,0,0-1.414ZM5.707,4.293A1,1,0,0,0,4.293,5.707ZM9,10a1,1,0,0,0,0,2Zm4,2a1,1,0,0,0,0-2ZM5.707,9.707l2-2L6.293,6.293l-2,2Zm2-3.414-2-2L4.293,5.707l2,2ZM9,12h4V10H9ZM3,2H17V0H3ZM17,2a1,1,0,0,1,1,1h2a3,3,0,0,0-3-3Zm1,1V17h2V3Zm0,14a1,1,0,0,1-1,1v2a3,3,0,0,0,3-3Zm-1,1H3v2H17ZM3,18a1,1,0,0,1-1-1H0a3,3,0,0,0,3,3ZM2,17V3H0V17ZM2,3A1,1,0,0,1,3,2V0A3,3,0,0,0,0,3Z" fill="#09090b"/>
</svg>
