<svg id="square-arrow-left" xmlns="http://www.w3.org/2000/svg" width="20" height="20" viewBox="0 0 20 20">
  <path id="Vector" d="M10.707,6.707A1,1,0,1,0,9.293,5.293ZM6,10l-.707-.707a1,1,0,0,0,0,1.414Zm3.293,4.707a1,1,0,1,0,1.414-1.414ZM14,11a1,1,0,0,0,0-2ZM3,2H17V0H3ZM17,2a1,1,0,0,1,1,1h2a3,3,0,0,0-3-3Zm1,1V17h2V3Zm0,14a1,1,0,0,1-1,1v2a3,3,0,0,0,3-3Zm-1,1H3v2H17ZM3,18a1,1,0,0,1-1-1H0a3,3,0,0,0,3,3ZM2,17V3H0V17ZM2,3A1,1,0,0,1,3,2V0A3,3,0,0,0,0,3ZM9.293,5.293l-4,4,1.414,1.414,4-4Zm-4,5.414,4,4,1.414-1.414-4-4ZM14,9H6v2h8Z" fill="#09090b"/>
</svg>
