<svg id="square-pi" xmlns="http://www.w3.org/2000/svg" width="20" height="20" viewBox="0 0 20 20">
  <path id="Vector" d="M5,4A1,1,0,0,0,5,6ZM15,6a1,1,0,0,0,0-2ZM9,5A1,1,0,0,0,7,5ZM7,15a1,1,0,0,0,2,0Zm7,1a1,1,0,0,0,0-2ZM13,5a1,1,0,0,0-2,0ZM3,2H17V0H3ZM17,2a1,1,0,0,1,1,1h2a3,3,0,0,0-3-3Zm1,1V17h2V3Zm0,14a1,1,0,0,1-1,1v2a3,3,0,0,0,3-3Zm-1,1H3v2H17ZM3,18a1,1,0,0,1-1-1H0a3,3,0,0,0,3,3ZM2,17V3H0V17ZM2,3A1,1,0,0,1,3,2V0A3,3,0,0,0,0,3ZM5,6H15V4H5ZM7,5V15H9V5Zm7,9a1,1,0,0,1-.707-.293l-1.414,1.414A3,3,0,0,0,14,16Zm-.707-.293A1,1,0,0,1,13,13H11a3,3,0,0,0,.879,2.121ZM13,13V5H11v8Z" fill="#09090b"/>
</svg>
