<svg id="square-split-vertical" xmlns="http://www.w3.org/2000/svg" width="18" height="20" viewBox="0 0 18 20">
  <path id="Vector" d="M1,6A1,1,0,0,0,3,6ZM15,6a1,1,0,0,0,2,0Zm2,8a1,1,0,0,0-2,0ZM3,14a1,1,0,0,0-2,0ZM1,9a1,1,0,0,0,0,2Zm16,2a1,1,0,0,0,0-2ZM3,6V3H1V6ZM3,3a1.021,1.021,0,0,1,.332-.668A1.021,1.021,0,0,1,4,2V0A3,3,0,0,0,1.918.918,3,3,0,0,0,1,3ZM4,2H14V0H4ZM14,2a1.022,1.022,0,0,1,.668.332A1.022,1.022,0,0,1,15,3h2A3,3,0,0,0,16.082.918,3,3,0,0,0,14,0Zm1,1V6h2V3Zm0,11v3h2V14Zm0,3a1.172,1.172,0,0,1-1,1v2a3.145,3.145,0,0,0,3-3Zm-1,1H4v2H14ZM4,18a1.022,1.022,0,0,1-.668-.332A1.022,1.022,0,0,1,3,17H1a3,3,0,0,0,.918,2.082A3,3,0,0,0,4,20ZM3,17V14H1v3ZM1,11H17V9H1Z" fill="#09090b"/>
</svg>
