<svg id="square-activity" xmlns="http://www.w3.org/2000/svg" width="20" height="20" viewBox="0 0 20 20">
  <path id="Vector" d="M15,11a1,1,0,0,0,0-2Zm-2-1V9a1,1,0,0,0-.929.629Zm-2,5-.981.2a1,1,0,0,0,1.909.175ZM9,5l.981-.2a1,1,0,0,0-1.909-.175ZM7,10v1a1,1,0,0,0,.928-.629ZM5,9a1,1,0,0,0,0,2ZM3,2H17V0H3ZM17,2a1,1,0,0,1,1,1h2a3,3,0,0,0-3-3Zm1,1V17h2V3Zm0,14a1,1,0,0,1-1,1v2a3,3,0,0,0,3-3Zm-1,1H3v2H17ZM3,18a1,1,0,0,1-1-1H0a3,3,0,0,0,3,3ZM2,17V3H0V17ZM2,3A1,1,0,0,1,3,2V0A3,3,0,0,0,0,3ZM15,9H13v2h2Zm-2.929.629-2,5,1.857.743,2-5ZM11.981,14.8l-2-10L8.019,5.2l2,10ZM8.072,4.629l-2,5,1.857.743,2-5ZM7,9H5v2H7Z" fill="#09090b"/>
</svg>
