<svg id="square-arrow-out-down-right" xmlns="http://www.w3.org/2000/svg" width="20" height="20" viewBox="0 0 20 20">
  <path id="Vector" d="M18,9a1,1,0,0,0,2,0ZM17,1V1ZM3,1V1ZM1,3H1ZM1,17H1Zm8,3a1,1,0,0,0,0-2Zm10-1v1a1,1,0,0,0,1-1ZM10.707,9.293a1,1,0,0,0-1.414,1.414ZM20,13a1,1,0,0,0-2,0Zm-7,5a1,1,0,0,0,0,2Zm7-9V3H18V9Zm0-6A3,3,0,0,0,19.121.879L17.707,2.293A1,1,0,0,1,18,3ZM19.121.879A3,3,0,0,0,17,0V2a1,1,0,0,1,.707.293ZM17,0H3V2H17ZM3,0A3,3,0,0,0,.879.879L2.293,2.293A1,1,0,0,1,3,2ZM.879.879A3,3,0,0,0,0,3H2a1,1,0,0,1,.293-.707ZM0,3V17H2V3ZM0,17a3,3,0,0,0,.879,2.121l1.414-1.414A1,1,0,0,1,2,17Zm.879,2.121A3,3,0,0,0,3,20V18a1,1,0,0,1-.707-.293ZM3,20H9V18H3Zm16.707-1.707-9-9L9.293,10.707l9,9ZM18,13v6h2V13Zm1,5H13v2h6Z" fill="#09090b"/>
</svg>
