<svg id="square-library" xmlns="http://www.w3.org/2000/svg" width="20" height="20" viewBox="0 0 20 20">
  <path id="Vector" d="M6,5A1,1,0,0,0,4,5ZM4,15a1,1,0,0,0,2,0ZM10,5A1,1,0,0,0,8,5ZM8,15a1,1,0,0,0,2,0ZM13.981,4.8a1,1,0,0,0-1.961.392ZM14.019,15.2a1,1,0,1,0,1.961-.392ZM3,2H17V0H3ZM17,2a1,1,0,0,1,1,1h2a3,3,0,0,0-3-3Zm1,1V17h2V3Zm0,14a1,1,0,0,1-1,1v2a3,3,0,0,0,3-3Zm-1,1H3v2H17ZM3,18a1,1,0,0,1-1-1H0a3,3,0,0,0,3,3ZM2,17V3H0V17ZM2,3A1,1,0,0,1,3,2V0A3,3,0,0,0,0,3ZM4,5V15H6V5ZM8,5V15h2V5Zm4.019.2,2,10,1.961-.392-2-10Z" fill="#09090b"/>
</svg>
