<svg id="square-mouse-pointer" xmlns="http://www.w3.org/2000/svg" width="21" height="21" viewBox="0 0 21 21">
  <path id="Vector" d="M18,9a1,1,0,0,0,2,0ZM17,1V1ZM3,1V1ZM1,3H1ZM1,17H1Zm8,3a1,1,0,0,0,0-2Zm1-10,.371-.928a1,1,0,0,0-1.3,1.3Zm4,10-.929.371a1,1,0,0,0,1.859,0Zm1.7-4.3-.368-.93a1,1,0,0,0-.562.562ZM20,14l.368.93a1,1,0,0,0,0-1.858Zm0-5V3H18V9Zm0-6A3,3,0,0,0,19.121.879L17.707,2.293A1,1,0,0,1,18,3ZM19.121.879A3,3,0,0,0,17,0V2a1,1,0,0,1,.707.293ZM17,0H3V2H17ZM3,0A3,3,0,0,0,.879.879L2.293,2.293A1,1,0,0,1,3,2ZM.879.879A3,3,0,0,0,0,3H2a1,1,0,0,1,.293-.707ZM0,3V17H2V3ZM0,17a3,3,0,0,0,.879,2.121l1.414-1.414A1,1,0,0,1,2,17Zm.879,2.121A3,3,0,0,0,3,20V18a1,1,0,0,1-.707-.293ZM3,20H9V18H3Zm6.072-9.629,4,10,1.857-.743-4-10Zm5.858,10,1.7-4.3-1.86-.735-1.7,4.3Zm1.138-3.738,4.3-1.7-.735-1.86-4.3,1.7Zm4.3-3.558-10-4-.743,1.857,10,4Z" fill="#09090b"/>
</svg>
