<svg id="square-arrow-up" xmlns="http://www.w3.org/2000/svg" width="20" height="20" viewBox="0 0 20 20">
  <path id="Vector" d="M13.293,10.707a1,1,0,1,0,1.414-1.414ZM10,6l.707-.707a1,1,0,0,0-1.414,0ZM5.293,9.293a1,1,0,1,0,1.414,1.414ZM9,14a1,1,0,0,0,2,0ZM3,2H17V0H3ZM17,2a1,1,0,0,1,1,1h2a3,3,0,0,0-3-3Zm1,1V17h2V3Zm0,14a1,1,0,0,1-1,1v2a3,3,0,0,0,3-3Zm-1,1H3v2H17ZM3,18a1,1,0,0,1-1-1H0a3,3,0,0,0,3,3ZM2,17V3H0V17ZM2,3A1,1,0,0,1,3,2V0A3,3,0,0,0,0,3ZM14.707,9.293l-4-4L9.293,6.707l4,4Zm-5.414-4-4,4,1.414,1.414,4-4ZM11,14V6H9v8Z" fill="#09090b"/>
</svg>
