<svg id="square-user" xmlns="http://www.w3.org/2000/svg" width="20" height="20" viewBox="0 0 20 20">
  <path id="Vector" d="M4,19a1,1,0,0,0,2,0Zm10,0a1,1,0,0,0,2,0ZM3,2H17V0H3ZM17,2a1,1,0,0,1,1,1h2a3,3,0,0,0-3-3Zm1,1V17h2V3Zm0,14a1,1,0,0,1-1,1v2a3,3,0,0,0,3-3Zm-1,1H3v2H17ZM3,18a1,1,0,0,1-1-1H0a3,3,0,0,0,3,3ZM2,17V3H0V17ZM2,3A1,1,0,0,1,3,2V0A3,3,0,0,0,0,3ZM12,8a2,2,0,0,1-2,2v2a4,4,0,0,0,4-4Zm-2,2A2,2,0,0,1,8,8H6a4,4,0,0,0,4,4ZM8,8a2,2,0,0,1,2-2V4A4,4,0,0,0,6,8Zm2-2a2,2,0,0,1,2,2h2a4,4,0,0,0-4-4ZM6,19V17H4v2Zm0-2a1,1,0,0,1,.293-.707L4.879,14.879A3,3,0,0,0,4,17Zm.293-.707A1,1,0,0,1,7,16V14a3,3,0,0,0-2.121.879ZM7,16h6V14H7Zm6,0a1,1,0,0,1,.707.293l1.414-1.414A3,3,0,0,0,13,14Zm.707.293A1,1,0,0,1,14,17h2a3,3,0,0,0-.879-2.121ZM14,17v2h2V17Z" fill="#09090b"/>
</svg>
