<svg id="square-dashed-mouse-pointer" xmlns="http://www.w3.org/2000/svg" width="21" height="21" viewBox="0 0 21 21">
  <path id="Vector" d="M3,2A1,1,0,0,0,3,0ZM0,3A1,1,0,0,0,2,3ZM17,0a1,1,0,0,0,0,2Zm1,3a1,1,0,0,0,2,0Zm-8,7,.371-.928a1,1,0,0,0-1.3,1.3Zm4,10-.929.371a1,1,0,0,0,1.859,0Zm1.7-4.3-.368-.93a1,1,0,0,0-.562.562ZM20,14l.368.93a1,1,0,0,0,0-1.858ZM3,20a1,1,0,0,0,0-2ZM2,17a1,1,0,0,0-2,0ZM7,0A1,1,0,0,0,7,2ZM8,2A1,1,0,0,0,8,0ZM7,18a1,1,0,0,0,0,2Zm2,2a1,1,0,0,0,0-2ZM12,0a1,1,0,0,0,0,2Zm1,2a1,1,0,0,0,0-2ZM2,7A1,1,0,0,0,0,7ZM0,8A1,1,0,0,0,2,8ZM20,7a1,1,0,0,0-2,0ZM18,9a1,1,0,0,0,2,0ZM2,12a1,1,0,0,0-2,0ZM0,13a1,1,0,0,0,2,0ZM3,0A3,3,0,0,0,.879.879L2.293,2.293A1,1,0,0,1,3,2ZM.879.879A3,3,0,0,0,0,3H2a1,1,0,0,1,.293-.707ZM17,2a1,1,0,0,1,.707.293L19.121.879A3,3,0,0,0,17,0Zm.707.293A1,1,0,0,1,18,3h2A3,3,0,0,0,19.121.879ZM9.072,10.371l4,10,1.857-.743-4-10Zm5.858,10,1.7-4.3-1.86-.735-1.7,4.3Zm1.138-3.738,4.3-1.7-.735-1.86-4.3,1.7Zm4.3-3.558-10-4-.743,1.857,10,4ZM3,18a1,1,0,0,1-.707-.293L.879,19.121A3,3,0,0,0,3,20Zm-.707-.293A1,1,0,0,1,2,17H0a3,3,0,0,0,.879,2.121ZM7,2H8V0H7ZM7,20H9V18H7ZM12,2h1V0H12ZM0,7V8H2V7ZM18,7V9h2V7ZM0,12v1H2V12Z" fill="#09090b"/>
</svg>
