<svg id="square-parking-off" xmlns="http://www.w3.org/2000/svg" width="22" height="22" viewBox="0 0 22 22">
  <path id="Vector" d="M1.886,1.9A1,1,0,0,0,3.314,3.3ZM4,2V1H3.986ZM18,2V2Zm2,16,1,0v0Zm-1.3.7a1,1,0,1,0,1.41,1.418ZM3,7.7a1,1,0,0,0-2,0ZM2,18H2Zm12.3,3a1,1,0,1,0,0-2ZM1.707.293A1,1,0,0,0,.293,1.707ZM20.293,21.707a1,1,0,0,0,1.414-1.414ZM12,11a1,1,0,0,0,0,2ZM8,6V5A1,1,0,0,0,7,6ZM7,8A1,1,0,0,0,9,8Zm0,8a1,1,0,0,0,2,0Zm2-2.3a1,1,0,0,0-2,0ZM3.314,3.3a1,1,0,0,1,.7-.3L3.986,1a3,3,0,0,0-2.1.9ZM4,3H18V1H4ZM18,3a1,1,0,0,1,.707.293l1.414-1.414A3,3,0,0,0,18,1Zm.707.293A1,1,0,0,1,19,4h2a3,3,0,0,0-.879-2.121ZM19,4V18h2V4Zm0,14a1,1,0,0,1-.3.7l1.41,1.418A3,3,0,0,0,21,18ZM1,7.7V18H3V7.7ZM1,18a3,3,0,0,0,.879,2.121l1.414-1.414A1,1,0,0,1,3,18Zm.879,2.121A3,3,0,0,0,4,21V19a1,1,0,0,1-.707-.293ZM4,21H14.3V19H4ZM.293,1.707l20,20,1.414-1.414-20-20ZM12,13a4,4,0,0,0,2.828-1.172l-1.414-1.414A2,2,0,0,1,12,11Zm2.828-1.172A4,4,0,0,0,16,9H14a2,2,0,0,1-.586,1.414ZM16,9a4,4,0,0,0-1.172-2.828L13.414,7.586A2,2,0,0,1,14,9ZM14.828,6.172A4,4,0,0,0,12,5V7a2,2,0,0,1,1.414.586ZM12,5H8V7h4ZM7,6V8H9V6ZM9,16V13.7H7V16Z" transform="translate(0)" fill="#09090b"/>
</svg>
