<svg id="square-gantt-chart" xmlns="http://www.w3.org/2000/svg" width="20" height="20" viewBox="0 0 20 20">
  <path id="Vector" d="M7,5A1,1,0,0,0,7,7Zm7,2a1,1,0,0,0,0-2ZM6,9a1,1,0,0,0,0,2Zm6,2a1,1,0,0,0,0-2ZM9,13a1,1,0,0,0,0,2Zm5,2a1,1,0,0,0,0-2ZM3,2H17V0H3ZM17,2a1,1,0,0,1,1,1h2a3,3,0,0,0-3-3Zm1,1V17h2V3Zm0,14a1,1,0,0,1-1,1v2a3,3,0,0,0,3-3Zm-1,1H3v2H17ZM3,18a1,1,0,0,1-1-1H0a3,3,0,0,0,3,3ZM2,17V3H0V17ZM2,3A1,1,0,0,1,3,2V0A3,3,0,0,0,0,3ZM7,7h7V5H7ZM6,11h6V9H6Zm3,4h5V13H9Z" fill="#09090b"/>
</svg>
