<svg id="square-play" xmlns="http://www.w3.org/2000/svg" width="20" height="20" viewBox="0 0 20 20">
  <path id="Vector" d="M7,6l.555-.832A1,1,0,0,0,6,6Zm6,4,.555.832a1,1,0,0,0,0-1.664ZM7,14H6a1,1,0,0,0,1.555.832ZM3,2H17V0H3ZM17,2a1,1,0,0,1,1,1h2a3,3,0,0,0-3-3Zm1,1V17h2V3Zm0,14a1,1,0,0,1-1,1v2a3,3,0,0,0,3-3Zm-1,1H3v2H17ZM3,18a1,1,0,0,1-1-1H0a3,3,0,0,0,3,3ZM2,17V3H0V17ZM2,3A1,1,0,0,1,3,2V0A3,3,0,0,0,0,3ZM6.445,6.832l6,4,1.109-1.664-6-4Zm6,2.336-6,4,1.109,1.664,6-4ZM8,14V6H6v8Z" fill="#09090b"/>
</svg>
