<svg id="square-m" xmlns="http://www.w3.org/2000/svg" width="20" height="20" viewBox="0 0 20 20">
  <path id="Vector" d="M5,14a1,1,0,0,0,2,0ZM6,6l.707-.707A1,1,0,0,0,5,6Zm4,4-.707.707a1,1,0,0,0,1.414,0Zm4-4h1a1,1,0,0,0-1.707-.707Zm-1,8a1,1,0,0,0,2,0ZM3,2H17V0H3ZM17,2a1,1,0,0,1,1,1h2a3,3,0,0,0-3-3Zm1,1V17h2V3Zm0,14a1,1,0,0,1-1,1v2a3,3,0,0,0,3-3Zm-1,1H3v2H17ZM3,18a1,1,0,0,1-1-1H0a3,3,0,0,0,3,3ZM2,17V3H0V17ZM2,3A1,1,0,0,1,3,2V0A3,3,0,0,0,0,3ZM7,14V6H5v8ZM5.293,6.707l4,4,1.414-1.414-4-4Zm5.414,4,4-4L13.293,5.293l-4,4ZM13,6v8h2V6Z" fill="#09090b"/>
</svg>
