<svg id="square-arrow-out-up-right" xmlns="http://www.w3.org/2000/svg" width="20" height="20" viewBox="0 0 20 20">
  <path id="Vector" d="M20,11a1,1,0,0,0-2,0ZM1,17H1ZM3,1V1ZM9,2A1,1,0,0,0,9,0ZM19,1h1a1,1,0,0,0-1-1ZM9.293,9.293a1,1,0,0,0,1.414,1.414ZM13,0a1,1,0,0,0,0,2Zm5,7a1,1,0,0,0,2,0Zm0,4v6h2V11Zm0,6a1,1,0,0,1-.293.707l1.414,1.414A3,3,0,0,0,20,17Zm-.293.707A1,1,0,0,1,17,18v2a3,3,0,0,0,2.121-.879ZM17,18H3v2H17ZM3,18a1,1,0,0,1-.707-.293L.879,19.121A3,3,0,0,0,3,20Zm-.707-.293A1,1,0,0,1,2,17H0a3,3,0,0,0,.879,2.121ZM2,17V3H0V17ZM2,3a1,1,0,0,1,.293-.707L.879.879A3,3,0,0,0,0,3Zm.293-.707A1,1,0,0,1,3,2V0A3,3,0,0,0,.879.879ZM3,2H9V0H3ZM18.293.293l-9,9,1.414,1.414,9-9ZM13,2h6V0H13Zm5-1V7h2V1Z" fill="#09090b"/>
</svg>
