<svg id="square-parking" xmlns="http://www.w3.org/2000/svg" width="20" height="20" viewBox="0 0 20 20">
  <path id="Vector" d="M6,15a1,1,0,0,0,2,0ZM7,5V4A1,1,0,0,0,6,5Zm0,5a1,1,0,0,0,0,2ZM3,2H17V0H3ZM17,2a1,1,0,0,1,1,1h2a3,3,0,0,0-3-3Zm1,1V17h2V3Zm0,14a1,1,0,0,1-1,1v2a3,3,0,0,0,3-3Zm-1,1H3v2H17ZM3,18a1,1,0,0,1-1-1H0a3,3,0,0,0,3,3ZM2,17V3H0V17ZM2,3A1,1,0,0,1,3,2V0A3,3,0,0,0,0,3ZM8,15V5H6V15ZM7,6h4V4H7Zm4,0a2,2,0,0,1,1.414.586l1.414-1.414A4,4,0,0,0,11,4Zm1.414.586A2,2,0,0,1,13,8h2a4,4,0,0,0-1.172-2.828ZM13,8a2,2,0,0,1-.586,1.414l1.414,1.414A4,4,0,0,0,15,8Zm-.586,1.414A2,2,0,0,1,11,10v2a4,4,0,0,0,2.828-1.172ZM11,10H7v2h4Z" fill="#09090b"/>
</svg>
