<svg id="square-dashed-bottom-code" xmlns="http://www.w3.org/2000/svg" width="20" height="20" viewBox="0 0 20 20">
  <path id="Vector" d="M8.781,8.125A1,1,0,0,0,7.219,6.875ZM6,10l-.781-.625a1,1,0,0,0,0,1.249Zm1.219,3.125a1,1,0,1,0,1.562-1.249ZM12,18a1,1,0,0,0,0,2Zm1,2a1,1,0,0,0,0-2ZM12.781,6.875a1,1,0,0,0-1.562,1.249ZM14,10l.781.625a1,1,0,0,0,0-1.249Zm-2.781,1.875a1,1,0,1,0,1.562,1.249ZM3,20a1,1,0,0,0,0-2ZM1,17H1ZM3,1V1ZM17,1V1Zm0,17a1,1,0,0,0,0,2ZM7,18a1,1,0,0,0,0,2Zm1,2a1,1,0,0,0,0-2ZM7.219,6.875l-2,2.5,1.562,1.249,2-2.5Zm-2,3.749,2,2.5,1.562-1.249-2-2.5ZM12,20h1V18H12ZM11.219,8.125l2,2.5,1.562-1.249-2-2.5Zm2,1.251-2,2.5,1.562,1.249,2-2.5ZM3,18a1,1,0,0,1-.707-.293L.879,19.121A3,3,0,0,0,3,20Zm-.707-.293A1,1,0,0,1,2,17H0a3,3,0,0,0,.879,2.121ZM2,17V3H0V17ZM2,3a1,1,0,0,1,.293-.707L.879.879A3,3,0,0,0,0,3Zm.293-.707A1,1,0,0,1,3,2V0A3,3,0,0,0,.879.879ZM3,2H17V0H3ZM17,2a1,1,0,0,1,.707.293L19.121.879A3,3,0,0,0,17,0Zm.707.293A1,1,0,0,1,18,3h2A3,3,0,0,0,19.121.879ZM18,3V17h2V3Zm0,14a1,1,0,0,1-.293.707l1.414,1.414A3,3,0,0,0,20,17Zm-.293.707A1,1,0,0,1,17,18v2a3,3,0,0,0,2.121-.879ZM7,20H8V18H7Z" fill="#09090b"/>
</svg>
