<svg id="square-code" xmlns="http://www.w3.org/2000/svg" width="20" height="20" viewBox="0 0 20 20">
  <path id="Vector" d="M8.781,8.125A1,1,0,0,0,7.219,6.875ZM6,10l-.781-.625a1,1,0,0,0,0,1.249Zm1.219,3.125a1,1,0,1,0,1.562-1.249Zm5.562-6.249a1,1,0,0,0-1.562,1.249ZM14,10l.781.625a1,1,0,0,0,0-1.249Zm-2.781,1.875a1,1,0,1,0,1.562,1.249Zm-4-5-2,2.5,1.562,1.249,2-2.5Zm-2,3.749,2,2.5,1.562-1.249-2-2.5Zm6-2.5,2,2.5,1.562-1.249-2-2.5Zm2,1.251-2,2.5,1.562,1.249,2-2.5ZM3,2H17V0H3ZM17,2a1,1,0,0,1,1,1h2a3,3,0,0,0-3-3Zm1,1V17h2V3Zm0,14a1,1,0,0,1-1,1v2a3,3,0,0,0,3-3Zm-1,1H3v2H17ZM3,18a1,1,0,0,1-1-1H0a3,3,0,0,0,3,3ZM2,17V3H0V17ZM2,3A1,1,0,0,1,3,2V0A3,3,0,0,0,0,3Z" fill="#09090b"/>
</svg>
