<svg id="star-half" xmlns="http://www.w3.org/2000/svg" width="12" height="21" viewBox="0 0 12 21">
  <path id="Vector" d="M11.459,17.689a1,1,0,1,0-.917-1.777ZM4.8,20l-.985-.171a1,1,0,0,0,1.444,1.06ZM6,13.1l.985.171a1,1,0,0,0-.293-.893ZM1,8.3.859,7.31A1,1,0,0,0,.308,9.022Zm7-1,.141.99A1,1,0,0,0,8.9,7.73Zm3.9-5.87A1,1,0,0,0,10.1.57ZM10.541,15.912l-6.2,3.2.917,1.777,6.2-3.2Zm-4.756,4.26,1.2-6.9-1.97-.343-1.2,6.9Zm.907-7.793-5-4.8L.308,9.022l5,4.8ZM1.141,9.29l7-1L7.859,6.31l-7,1ZM8.9,7.73l3-6.3L10.1.57l-3,6.3Z" transform="translate(0 0)" fill="#09090b"/>
</svg>
