<svg id="star-off" xmlns="http://www.w3.org/2000/svg" width="22" height="22" viewBox="0 0 22 22">
  <path id="Vector" d="M7.485,8.33a1,1,0,1,0-.29-1.979ZM1,8.27.855,7.281A1,1,0,0,0,.3,8.986Zm5,4.87.986.17a1,1,0,0,0-.288-.886ZM4.82,20l-.986-.17a1,1,0,0,0,1.449,1.056ZM11,16.77l.463-.886a1,1,0,0,0-.926,0ZM17.18,20l-.463.886a1,1,0,0,0,1.449-1.056Zm.4-3.6a1,1,0,1,0-1.971.339Zm-.853-5.357a1,1,0,0,0,1.4,1.432ZM21,8.27l.7.716a1,1,0,0,0-.555-1.706Zm-6.91-1-.9.442a1,1,0,0,0,.754.548ZM11,1l.9-.442a1,1,0,0,0-1.793,0ZM8.664,3.466a1,1,0,1,0,1.793.887ZM1.707.293A1,1,0,0,0,.293,1.707ZM20.293,21.707a1,1,0,1,0,1.414-1.414ZM7.195,6.351l-6.34.93.29,1.979,6.34-.93ZM.3,8.986l5,4.87,1.4-1.433-5-4.87Zm4.712,3.984-1.18,6.86,1.971.339,1.18-6.86Zm.269,7.916,6.18-3.23-.926-1.773-6.18,3.23Zm5.254-3.23,6.18,3.23.926-1.772-6.18-3.23Zm7.629,2.174-.59-3.43L15.6,16.74l.59,3.43Zm-.047-7.355,3.58-3.49L20.3,7.554l-3.58,3.49Zm3.025-5.2-6.91-1L13.947,8.26l6.91,1Zm-6.156-.452L11.9.558,10.1,1.442l3.09,6.27ZM10.1.556l-1.44,2.91,1.793.887,1.44-2.91ZM.293,1.707l20,20,1.414-1.414-20-20Z" transform="translate(0 0)" fill="#09090b"/>
</svg>
