<svg id="store" xmlns="http://www.w3.org/2000/svg" width="22" height="22" viewBox="0 0 22 22">
  <path id="Vector" d="M1,6,.293,5.293A1,1,0,0,0,0,6ZM5.41,1.59l.707.707,0,0ZM6.83,1V2h0Zm8.34,0V2h0Zm1.42.59-.709.705,0,0ZM21,6h1a1,1,0,0,0-.293-.707ZM3,19H3Zm10,2a1,1,0,0,0,2,0Zm-1-6v0Zm-2,0v0ZM7,21a1,1,0,0,0,2,0ZM17.41,10.37l.644-.765q-.028-.024-.058-.045Zm-.82,0L16,9.559q-.03.022-.058.045ZM15,11l-.055,1a1.009,1.009,0,0,0,.11,0Zm-1.59-.63.644-.765q-.028-.024-.058-.045Zm-.82,0L12,9.559q-.03.022-.058.045ZM11,11l-.055,1a1.008,1.008,0,0,0,.11,0Zm-1.59-.63.644-.765q-.028-.024-.058-.045ZM9,10.237v0Zm-.41.133L8,9.559q-.03.022-.058.045ZM7,11l-.055,1a1.008,1.008,0,0,0,.11,0Zm-1.59-.63L6.054,9.6Q6.026,9.581,6,9.559Zm-.82,0L4,9.559q-.03.022-.058.045ZM1,9H1Zm.707-2.293L6.117,2.3,4.7.883.293,5.293ZM6.119,2.3a1,1,0,0,1,.326-.218L5.677.23A3,3,0,0,0,4.7.885Zm.326-.218A1,1,0,0,1,6.829,2l0-2A3,3,0,0,0,5.677.23ZM6.83,2h8.34V0H6.83Zm8.341,0a1,1,0,0,1,.384.077L16.323.23A3,3,0,0,0,15.169,0Zm.384.077a1,1,0,0,1,.326.218L17.3.885A3,3,0,0,0,16.323.23Zm.328.221,4.41,4.41,1.414-1.414L17.3.883ZM2,11v8H4V11Zm0,8a3,3,0,0,0,.879,2.121l1.414-1.414A1,1,0,0,1,4,19Zm.879,2.121A3,3,0,0,0,5,22V20a1,1,0,0,1-.707-.293ZM5,22H17V20H5Zm12,0a3,3,0,0,0,2.121-.879l-1.414-1.414A1,1,0,0,1,17,20Zm2.121-.879A3,3,0,0,0,20,19H18a1,1,0,0,1-.293.707ZM20,19V11H18v8Zm-5,2V17H13v4Zm0-4a3,3,0,0,0-.879-2.121l-1.414,1.414A1,1,0,0,1,13,17Zm-.879-2.121A3,3,0,0,0,12,14v2a1,1,0,0,1,.707.293ZM12,14H10v2h2Zm-2,0a3,3,0,0,0-2.121.879l1.414,1.414A1,1,0,0,1,10,16Zm-2.121.879A3,3,0,0,0,7,17H9a1,1,0,0,1,.293-.707ZM7,17v4H9V17ZM1,7H21V5H1ZM20,6V9h2V6Zm0,3a1,1,0,0,1-.293.707l1.414,1.414A3,3,0,0,0,22,9Zm-.293.707A1,1,0,0,1,19,10v2a3,3,0,0,0,2.121-.879ZM19.055,10a1.7,1.7,0,0,1-1-.4l-1.288,1.53A3.7,3.7,0,0,0,18.945,12ZM18,9.559a1.7,1.7,0,0,0-1-.322v2a.3.3,0,0,1-.176-.057Zm-1-.322a1.7,1.7,0,0,0-1,.322l1.171,1.621a.3.3,0,0,1-.176.057ZM15.946,9.6a1.7,1.7,0,0,1-1,.4l.11,2a3.7,3.7,0,0,0,2.179-.863Zm-.891.4a1.7,1.7,0,0,1-1-.4l-1.288,1.53A3.7,3.7,0,0,0,14.945,12ZM14,9.559a1.7,1.7,0,0,0-1-.322v2a.3.3,0,0,1-.176-.057Zm-1-.322a1.7,1.7,0,0,0-1,.322l1.171,1.621a.3.3,0,0,1-.176.057ZM11.946,9.6a1.7,1.7,0,0,1-1,.4l.11,2a3.7,3.7,0,0,0,2.179-.863Zm-.891.4a1.7,1.7,0,0,1-1-.4l-1.288,1.53A3.7,3.7,0,0,0,10.945,12ZM10,9.559a1.7,1.7,0,0,0-1-.322v2a.3.3,0,0,1-.176-.057ZM9,9.237a1.7,1.7,0,0,0-1,.322l1.171,1.621A.3.3,0,0,1,9,11.237ZM7.946,9.6a1.7,1.7,0,0,1-1,.4l.11,2a3.7,3.7,0,0,0,2.179-.863Zm-.891.4a1.7,1.7,0,0,1-1-.4l-1.288,1.53A3.7,3.7,0,0,0,6.945,12ZM6,9.559a1.7,1.7,0,0,0-1-.322v2a.3.3,0,0,1-.176-.057ZM5,9.237a1.7,1.7,0,0,0-1,.322l1.171,1.621A.3.3,0,0,1,5,11.237ZM3.946,9.6a1.7,1.7,0,0,1-1,.4l.11,2a3.7,3.7,0,0,0,2.179-.863ZM3,10a1,1,0,0,1-.707-.293L.879,11.121A3,3,0,0,0,3,12Zm-.707-.293A1,1,0,0,1,2,9H0a3,3,0,0,0,.879,2.121ZM2,9V6H0V9Z" transform="translate(0 0)" fill="#09090b"/>
</svg>
