<svg id="stretch-vertical" xmlns="http://www.w3.org/2000/svg" width="18" height="22" viewBox="0 0 18 22">
  <path id="Vector" d="M3,2H5V0H3ZM5,2A1,1,0,0,1,6,3H8A3,3,0,0,0,5,0ZM6,3V19H8V3ZM6,19a1,1,0,0,1-1,1v2a3,3,0,0,0,3-3ZM5,20H3v2H5ZM3,20a1,1,0,0,1-1-1H0a3,3,0,0,0,3,3ZM2,19V3H0V19ZM2,3A1,1,0,0,1,3,2V0A3,3,0,0,0,0,3ZM13,2h2V0H13Zm2,0a1,1,0,0,1,1,1h2a3,3,0,0,0-3-3Zm1,1V19h2V3Zm0,16a1,1,0,0,1-1,1v2a3,3,0,0,0,3-3Zm-1,1H13v2h2Zm-2,0a1,1,0,0,1-1-1H10a3,3,0,0,0,3,3Zm-1-1V3H10V19ZM12,3a1,1,0,0,1,1-1V0a3,3,0,0,0-3,3Z" fill="#09090b"/>
</svg>
