<svg id="strikethrough" xmlns="http://www.w3.org/2000/svg" width="18" height="18" viewBox="0 0 18 18">
  <path id="Vector" d="M13,2a1,1,0,0,0,0-2ZM6,1V2H6ZM2.227,5.333a1,1,0,1,0,1.886-.667ZM11,8a1,1,0,0,0,0,2ZM3,16a1,1,0,0,0,0,2ZM1,8a1,1,0,0,0,0,2Zm16,2a1,1,0,0,0,0-2ZM13,0H6V2h7ZM6,0A4,4,0,0,0,4.161.447L5.08,2.223A2,2,0,0,1,6,2ZM4.161.447A4,4,0,0,0,2.733,1.69L4.366,2.845a2,2,0,0,1,.714-.621ZM2.733,1.69a4,4,0,0,0-.7,1.76l1.981.275a2,2,0,0,1,.348-.88Zm-.7,1.76a4,4,0,0,0,.191,1.883l1.886-.667a2,2,0,0,1-.1-.942ZM11,10a3,3,0,0,1,2.121.879l1.414-1.414A5,5,0,0,0,11,8Zm2.121.879A3,3,0,0,1,14,13h2a5,5,0,0,0-1.465-3.536ZM14,13a3,3,0,0,1-.879,2.121l1.414,1.414A5,5,0,0,0,16,13Zm-.879,2.121A3,3,0,0,1,11,16v2a5,5,0,0,0,3.535-1.465ZM11,16H3v2h8ZM1,10H17V8H1Z" transform="translate(0 0)" fill="#09090b"/>
</svg>
