<svg id="subscript" xmlns="http://www.w3.org/2000/svg" width="18" height="16" viewBox="0 0 18 16">
  <path id="Vector" d="M1.707.293A1,1,0,0,0,.293,1.707ZM8.293,9.707A1,1,0,0,0,9.707,8.293Zm1.414-8A1,1,0,0,0,8.293.293ZM.293,8.293A1,1,0,0,0,1.707,9.707ZM17,16a1,1,0,0,0,0-2Zm-4-1H12a1,1,0,0,0,1,1Zm3.52-6.29.758-.653-.008-.009ZM13.9,8.27,13.408,7.4l0,0Zm-1.842.735a1,1,0,1,0,1.884.67ZM.293,1.707l8,8L9.707,8.293l-8-8Zm8-1.414-8,8L1.707,9.707l8-8ZM17,14H13v2h4Zm-3,1a2,2,0,0,1,.192-1.082,1.639,1.639,0,0,1,.734-.514L14.073,11.6a3.542,3.542,0,0,0-1.561,1.236A3.88,3.88,0,0,0,12,15Zm.927-1.6a9.169,9.169,0,0,0,1.848-1.064A2.978,2.978,0,0,0,18,10H16a1,1,0,0,1-.479.782,7.371,7.371,0,0,1-1.447.813ZM18,10a2.982,2.982,0,0,0-.722-1.943L15.762,9.363A.982.982,0,0,1,16,10Zm-.73-1.952A3.11,3.11,0,0,0,15.454,7.04l-.331,1.972a1.11,1.11,0,0,1,.648.36ZM15.454,7.04a3.11,3.11,0,0,0-2.046.36l.984,1.741a1.11,1.11,0,0,1,.73-.128ZM13.4,7.4a3.013,3.013,0,0,0-1.346,1.6l1.884.67a1.013,1.013,0,0,1,.454-.537Z" fill="#09090b"/>
</svg>
