<svg id="sun-moon" xmlns="http://www.w3.org/2000/svg" width="22" height="22" viewBox="0 0 22 22">
  <path id="Vector" d="M11,7l.73.683A1,1,0,0,0,11,6Zm4,4h1a1,1,0,0,0-1.683-.73ZM12,1a1,1,0,0,0-2,0ZM10,3a1,1,0,0,0,2,0Zm2,16a1,1,0,0,0-2,0Zm-2,2a1,1,0,0,0,2,0ZM4.607,3.193A1,1,0,0,0,3.193,4.607ZM4.593,6.007A1,1,0,0,0,6.007,4.593Zm12.815,9.986a1,1,0,1,0-1.414,1.414Zm-.014,2.814a1,1,0,1,0,1.414-1.414ZM1,10a1,1,0,0,0,0,2Zm2,2a1,1,0,0,0,0-2Zm16-2a1,1,0,0,0,0,2Zm2,2a1,1,0,0,0,0-2ZM6.007,17.407a1,1,0,0,0-1.414-1.414Zm-2.814-.014a1,1,0,0,0,1.414,1.414ZM18.807,4.607a1,1,0,1,0-1.414-1.414Zm-2.814-.014a1,1,0,0,0,1.414,1.414ZM10.27,6.317A3.83,3.83,0,0,0,9.237,9l2-.033a1.829,1.829,0,0,1,.493-1.281ZM9.237,9a3.83,3.83,0,0,0,1.121,2.644l1.414-1.414a1.83,1.83,0,0,1-.536-1.264Zm1.121,2.644A3.83,3.83,0,0,0,13,12.763l.033-2a1.83,1.83,0,0,1-1.264-.536ZM13,12.763a3.83,3.83,0,0,0,2.68-1.033L14.317,10.27a1.83,1.83,0,0,1-1.281.493ZM14,11a3,3,0,0,1-.506,1.667l1.663,1.111A5,5,0,0,0,16,11Zm-.506,1.667a3,3,0,0,1-1.346,1.1l.765,1.848a5,5,0,0,0,2.244-1.842Zm-1.346,1.1a3,3,0,0,1-1.733.171l-.39,1.962a5,5,0,0,0,2.889-.285Zm-1.733.171a3,3,0,0,1-1.536-.821L7.464,14.535a5,5,0,0,0,2.56,1.368Zm-1.536-.821a3,3,0,0,1-.821-1.536l-1.962.39a5,5,0,0,0,1.368,2.56Zm-.821-1.536a3,3,0,0,1,.171-1.733L6.381,9.087A5,5,0,0,0,6.1,11.976Zm.171-1.733a3,3,0,0,1,1.1-1.346L8.222,6.843A5,5,0,0,0,6.381,9.087Zm1.1-1.346A3,3,0,0,1,11,8V6a5,5,0,0,0-2.778.843ZM10,1V3h2V1Zm0,18v2h2V19ZM3.193,4.607l1.4,1.4L6.007,4.593l-1.4-1.4Zm12.8,12.8,1.4,1.4,1.414-1.414-1.4-1.4ZM1,12H3V10H1Zm18,0h2V10H19ZM4.593,15.993l-1.4,1.4,1.414,1.414,1.4-1.4Zm12.8-12.8-1.4,1.4,1.414,1.414,1.4-1.4Z" fill="#09090b"/>
</svg>
