<svg id="sun-snow" xmlns="http://www.w3.org/2000/svg" width="22" height="20" viewBox="0 0 22 20">
  <path id="Vector" d="M9,8A1,1,0,0,0,9,6Zm0,6a1,1,0,0,0,0-2ZM1,9a1,1,0,0,0,0,2Zm1,2A1,1,0,0,0,2,9Zm10,8a1,1,0,0,0,2,0ZM14,1a1,1,0,0,0-2,0ZM8,2a1,1,0,0,0,2,0Zm2-1A1,1,0,0,0,8,1ZM8,19a1,1,0,0,0,2,0Zm2-1a1,1,0,0,0-2,0ZM1.933,15.653a1,1,0,0,0,1.414,1.414Zm2.114.714a1,1,0,1,0-1.414-1.414ZM2.633,5.047A1,1,0,0,0,4.047,3.633Zm.714-2.114A1,1,0,0,0,1.933,4.347ZM13,9a1,1,0,0,0,0,2Zm8,2a1,1,0,0,0,0-2ZM16.707,2.707a1,1,0,0,0-1.414-1.414ZM12.293,4.293a1,1,0,0,0,1.414,1.414Zm1.414,10a1,1,0,0,0-1.414,1.414Zm1.586,4.414a1,1,0,0,0,1.414-1.414Zm4-5a1,1,0,1,0,1.414-1.414ZM17,10l-.707-.707a1,1,0,0,0,0,1.414Zm3.707-2.293a1,1,0,0,0-1.414-1.414ZM9,6A4,4,0,0,0,6.172,7.172L7.586,8.586A2,2,0,0,1,9,8ZM6.172,7.172A4,4,0,0,0,5,10H7a2,2,0,0,1,.586-1.414ZM5,10a4,4,0,0,0,1.172,2.828l1.414-1.414A2,2,0,0,1,7,10Zm1.172,2.828A4,4,0,0,0,9,14V12a2,2,0,0,1-1.414-.586ZM1,11H2V9H1Zm13,8V1H12V19ZM10,2V1H8V2Zm0,17V18H8v1ZM3.347,17.067l.7-.7L2.633,14.953l-.7.7Zm.7-13.434-.7-.7L1.933,4.347l.7.7ZM13,11h8V9H13Zm2.293-9.707-3,3,1.414,1.414,3-3Zm-3,14.414,3,3,1.414-1.414-3-3Zm8.414-3.414-3-3-1.414,1.414,3,3Zm-3-1.586,3-3L19.293,6.293l-3,3Z" fill="#09090b"/>
</svg>
