<svg id="sun-medium" xmlns="http://www.w3.org/2000/svg" width="20" height="20" viewBox="0 0 20 20">
  <path id="Vector" d="M11,1A1,1,0,0,0,9,1ZM9,2a1,1,0,0,0,2,0Zm2,16a1,1,0,0,0-2,0ZM9,19a1,1,0,0,0,2,0ZM1,9a1,1,0,0,0,0,2Zm1,2A1,1,0,0,0,2,9ZM18,9a1,1,0,0,0,0,2Zm1,2a1,1,0,0,0,0-2ZM17.071,4.343a1,1,0,1,0-1.414-1.414ZM14.95,3.636A1,1,0,0,0,16.364,5.05ZM5.05,16.364A1,1,0,1,0,3.636,14.95Zm-2.121-.707a1,1,0,0,0,1.414,1.414ZM4.343,2.929A1,1,0,0,0,2.929,4.343ZM3.636,5.05A1,1,0,0,0,5.05,3.636Zm12.728,9.9a1,1,0,0,0-1.414,1.414Zm-.707,2.121a1,1,0,1,0,1.414-1.414ZM13,10a3,3,0,0,1-3,3v2a5,5,0,0,0,5-5Zm-3,3a3,3,0,0,1-3-3H5a5,5,0,0,0,5,5ZM7,10a3,3,0,0,1,3-3V5a5,5,0,0,0-5,5Zm3-3a3,3,0,0,1,3,3h2a5,5,0,0,0-5-5ZM9,1V2h2V1ZM9,18v1h2V18ZM1,11H2V9H1Zm17,0h1V9H18ZM15.657,2.929l-.707.707L16.364,5.05l.707-.707ZM3.636,14.95l-.707.707,1.414,1.414.707-.707ZM2.929,4.343l.707.707L5.05,3.636l-.707-.707ZM14.95,16.364l.707.707,1.414-1.414-.707-.707Z" fill="#09090b"/>
</svg>
