<svg id="sun" xmlns="http://www.w3.org/2000/svg" width="22" height="22" viewBox="0 0 22 22">
  <path id="Vector" d="M12,1a1,1,0,0,0-2,0ZM10,3a1,1,0,0,0,2,0Zm2,16a1,1,0,0,0-2,0Zm-2,2a1,1,0,0,0,2,0ZM4.637,3.223A1,1,0,0,0,3.223,4.637Zm0,2.824A1,1,0,0,0,6.047,4.633Zm12.734,9.906a1,1,0,1,0-1.414,1.414Zm0,2.824a1,1,0,1,0,1.414-1.414ZM1,10a1,1,0,0,0,0,2Zm2,2a1,1,0,0,0,0-2Zm16-2a1,1,0,0,0,0,2Zm2,2a1,1,0,0,0,0-2ZM6.047,17.367a1,1,0,1,0-1.414-1.414Zm-2.824,0a1,1,0,1,0,1.414,1.414ZM18.777,4.637a1,1,0,1,0-1.414-1.414Zm-2.824,0a1,1,0,1,0,1.414,1.414ZM14,11a3,3,0,0,1-3,3v2a5,5,0,0,0,5-5Zm-3,3a3,3,0,0,1-3-3H6a5,5,0,0,0,5,5ZM8,11a3,3,0,0,1,3-3V6a5,5,0,0,0-5,5Zm3-3a3,3,0,0,1,3,3h2a5,5,0,0,0-5-5ZM10,1V3h2V1Zm0,18v2h2V19ZM3.223,4.637l1.41,1.41L6.047,4.633l-1.41-1.41Zm12.73,12.73,1.41,1.41,1.414-1.414-1.41-1.41ZM1,12H3V10H1Zm18,0h2V10H19ZM4.633,15.953l-1.41,1.41,1.414,1.414,1.41-1.41Zm12.73-12.73-1.41,1.41,1.414,1.414,1.41-1.41Z" fill="#09090b"/>
</svg>
