<svg id="sunset" xmlns="http://www.w3.org/2000/svg" width="22" height="22" viewBox="0 0 22 22">
  <path id="Vector" d="M11,9l-.707.707a1,1,0,0,0,1.414,0Zm1-8a1,1,0,0,0-2,0ZM4.637,9.223a1,1,0,1,0-1.414,1.414Zm0,2.824a1,1,0,1,0,1.414-1.414ZM1,16a1,1,0,0,0,0,2Zm2,2a1,1,0,0,0,0-2Zm16-2a1,1,0,0,0,0,2Zm2,2a1,1,0,0,0,0-2Zm-2.223-7.363a1,1,0,1,0-1.414-1.414Zm-2.824,0a1,1,0,1,0,1.414,1.414ZM21,22a1,1,0,0,0,0-2ZM1,20a1,1,0,0,0,0,2ZM15.707,5.707a1,1,0,0,0-1.414-1.414Zm-8-1.414A1,1,0,0,0,6.293,5.707ZM14,17a1,1,0,0,0,2,0Zm-3-4v0ZM6,17a1,1,0,0,0,2,0Zm6-8V1H10V9ZM3.223,10.637l1.41,1.41,1.414-1.414-1.41-1.41ZM1,18H3V16H1Zm18,0h2V16H19ZM17.363,9.223l-1.41,1.41,1.414,1.414,1.41-1.41ZM21,20H1v2H21ZM14.293,4.293l-4,4,1.414,1.414,4-4Zm-2.586,4-4-4L6.293,5.707l4,4ZM16,17a5,5,0,0,0-1.465-3.535l-1.414,1.414A3,3,0,0,1,14,17Zm-1.465-3.535A5,5,0,0,0,11,12v2a3,3,0,0,1,2.121.879ZM11,12a5,5,0,0,0-3.536,1.465l1.414,1.414A3,3,0,0,1,11,14ZM7.464,13.465A5,5,0,0,0,6,17H8a3,3,0,0,1,.879-2.121Z" fill="#09090b"/>
</svg>
