<svg id="swatch-book" xmlns="http://www.w3.org/2000/svg" width="20" height="20" viewBox="0 0 20 20">
  <path id="Vector" d="M9,15H9ZM1,15H1ZM3,1V1ZM7,1V1Zm7.7,9a1,1,0,0,0,0,2ZM5,14a1,1,0,0,0,0,2Zm.01,2a1,1,0,0,0,0-2ZM8.293,5.293A1,1,0,0,0,9.707,6.707ZM11.3,3.7l.707.707h0Zm3.4,0-.71.7,0,0Zm1.9,1.9-.707.707.014.014Zm.026,3.434-.7-.71,0,0ZM7.191,17.095a1,1,0,1,0,1.417,1.411ZM8,15a3,3,0,0,1-.879,2.121l1.414,1.414A5,5,0,0,0,10,15Zm-.879,2.121A3,3,0,0,1,5,18v2a5,5,0,0,0,3.536-1.465ZM5,18a3,3,0,0,1-2.121-.879L1.464,18.535A5,5,0,0,0,5,20Zm-2.121-.879A3,3,0,0,1,2,15H0a5,5,0,0,0,1.464,3.535ZM2,15V3H0V15ZM2,3a1,1,0,0,1,.293-.707L.879.879A3,3,0,0,0,0,3Zm.293-.707A1,1,0,0,1,3,2V0A3,3,0,0,0,.879.879ZM3,2H7V0H3ZM7,2a1,1,0,0,1,.707.293L9.121.879A3,3,0,0,0,7,0Zm.707.293A1,1,0,0,1,8,3h2A3,3,0,0,0,9.121.879ZM8,3V15h2V3Zm6.7,9H17V10H14.7ZM17,12a1,1,0,0,1,.707.293l1.414-1.414A3,3,0,0,0,17,10Zm.707.293A1,1,0,0,1,18,13h2a3,3,0,0,0-.879-2.121ZM18,13v4h2V13Zm0,4a1,1,0,0,1-.293.707l1.414,1.414A3,3,0,0,0,20,17Zm-.293.707A1,1,0,0,1,17,18v2a3,3,0,0,0,2.121-.879ZM17,18H5v2H17ZM5,16h.01V14H5ZM9.707,6.707l2.3-2.3L10.593,2.993l-2.3,2.3Zm2.3-2.3a1.4,1.4,0,0,1,.456-.305L11.7,2.253a3.4,3.4,0,0,0-1.106.741Zm.456-.305A1.4,1.4,0,0,1,13,3.994l0-2a3.4,3.4,0,0,0-1.306.259ZM13,3.994a1.4,1.4,0,0,1,.538.108l.77-1.846A3.4,3.4,0,0,0,13,1.994Zm.537.108a1.4,1.4,0,0,1,.455.306L15.414,3a3.4,3.4,0,0,0-1.1-.743ZM14,4.411l1.9,1.9,1.414-1.414L15.411,3Zm1.91,1.91a1.4,1.4,0,0,1,.316.456l1.837-.79a3.4,3.4,0,0,0-.766-1.107Zm.316.456a1.4,1.4,0,0,1,.114.543l2-.015a3.4,3.4,0,0,0-.277-1.318Zm.114.543a1.4,1.4,0,0,1-.106.544l1.849.762A3.4,3.4,0,0,0,18.336,7.3Zm-.106.544a1.4,1.4,0,0,1-.309.461l1.408,1.42a3.4,3.4,0,0,0,.75-1.118Zm-.313.465L7.191,17.095l1.417,1.411L17.335,9.74Z" fill="#09090b"/>
</svg>
