<svg id="sword" xmlns="http://www.w3.org/2000/svg" width="20" height="20" viewBox="0 0 20 20">
  <path id="Vector" d="M11.793,16.207a1,1,0,0,0,1.414-1.414ZM1,4H0a1,1,0,0,0,.293.707ZM1,1V0A1,1,0,0,0,0,1ZM4,1,4.707.293A1,1,0,0,0,4,0ZM14.793,13.207a1,1,0,0,0,1.414-1.414Zm-4.5,3.086a1,1,0,0,0,1.414,1.414Zm7.414-4.586a1,1,0,0,0-1.414-1.414Zm-3,1.586a1,1,0,0,0-1.414,1.414Zm2.586,5.414a1,1,0,0,0,1.414-1.414Zm-1-.414a1,1,0,0,0,1.414,1.414Zm3.414-.586a1,1,0,0,0-1.414-1.414Zm-6.5-2.914-11.5-11.5L.293,4.707l11.5,11.5ZM2,4V1H0V4ZM1,2H4V0H1Zm2.293-.293,11.5,11.5,1.414-1.414L4.707.293Zm8.414,16,6-6-1.414-1.414-6,6Zm1.586-3,4,4,1.414-1.414-4-4Zm4.414,5,2-2-1.414-1.414-2,2Z" fill="#09090b"/>
</svg>
