<svg id="table-rows-split" xmlns="http://www.w3.org/2000/svg" width="22" height="22" viewBox="0 0 22 22">
  <path id="Vector" d="M13,8a1,1,0,0,0,0,2Zm2,2a1,1,0,0,0,0-2ZM13,21a1,1,0,0,0,2,0Zm2-8a1,1,0,0,0-2,0ZM15,1a1,1,0,0,0-2,0ZM13,5a1,1,0,0,0,2,0ZM1,8a1,1,0,0,0,0,2Zm2,2A1,1,0,0,0,3,8ZM19,8a1,1,0,0,0,0,2Zm2,2a1,1,0,0,0,0-2ZM2,17a1,1,0,0,0,0,2Zm18,2a1,1,0,0,0,0-2ZM1,21a1,1,0,0,0,2,0Zm1-6H2Zm16-2v0Zm1,8a1,1,0,0,0,2,0ZM3,1A1,1,0,0,0,1,1ZM2,3H2ZM18,5V5Zm3-4a1,1,0,0,0-2,0ZM7,8a1,1,0,0,0,0,2Zm2,2A1,1,0,0,0,9,8ZM7,21a1,1,0,0,0,2,0Zm2-8a1,1,0,0,0-2,0ZM9,1A1,1,0,0,0,7,1ZM7,5A1,1,0,0,0,9,5Zm6,5h2V8H13Zm2,11V13H13v8ZM13,1V5h2V1ZM1,10H3V8H1Zm18,0h2V8H19ZM2,19H20V17H2Zm1,2V15H1v6Zm0-6a1,1,0,0,1,.076-.383l-1.848-.765A3,3,0,0,0,1,15Zm.076-.383a1,1,0,0,1,.217-.324L1.879,12.879a3,3,0,0,0-.65.973Zm.217-.324a1,1,0,0,1,.324-.217l-.765-1.848a3,3,0,0,0-.973.65Zm.324-.217A1,1,0,0,1,4,14V12a3,3,0,0,0-1.148.228ZM4,14H18V12H4Zm14,0a1,1,0,0,1,.383.076l.765-1.848A3,3,0,0,0,18,12Zm.383.076a1,1,0,0,1,.324.217l1.414-1.414a3,3,0,0,0-.973-.65Zm.324.217a1,1,0,0,1,.217.324l1.848-.765a3,3,0,0,0-.65-.973Zm.217.324A1,1,0,0,1,19,15h2a3,3,0,0,0-.228-1.148ZM19,15v6h2V15ZM1,1V3H3V1ZM1,3a3,3,0,0,0,.879,2.121L3.293,3.707A1,1,0,0,1,3,3Zm.879,2.121A3,3,0,0,0,4,6V4a1,1,0,0,1-.707-.293ZM4,6H18V4H4ZM18,6a3,3,0,0,0,2.121-.879L18.707,3.707A1,1,0,0,1,18,4Zm2.121-.879A3,3,0,0,0,21,3H19a1,1,0,0,1-.293.707ZM21,3V1H19V3ZM7,10H9V8H7ZM9,21V13H7v8ZM7,1V5H9V1Z" fill="#09090b"/>
</svg>
