<svg id="tablets" xmlns="http://www.w3.org/2000/svg" width="22" height="22" viewBox="0 0 22 22">
  <path id="Vector" d="M1.753,8.833a1,1,0,0,0,1.414,1.414Zm8.494-5.666A1,1,0,1,0,8.833,1.753ZM10,6a4,4,0,0,1-4,4v2a6,6,0,0,0,6-6ZM6,10A4,4,0,0,1,2,6H0a6,6,0,0,0,6,6ZM2,6A4,4,0,0,1,6,2V0A6,6,0,0,0,0,6ZM6,2a4,4,0,0,1,4,4h2A6,6,0,0,0,6,0ZM20,16a4,4,0,0,1-4,4v2a6,6,0,0,0,6-6Zm-4,4a4,4,0,0,1-4-4H10a6,6,0,0,0,6,6Zm-4-4a4,4,0,0,1,4-4V10a6,6,0,0,0-6,6Zm4-4a4,4,0,0,1,4,4h2a6,6,0,0,0-6-6Zm-5,5H21V15H11ZM3.167,10.247l7.08-7.08L8.833,1.753l-7.08,7.08Z" fill="#09090b"/>
</svg>
