<svg id="table-2" xmlns="http://www.w3.org/2000/svg" width="20" height="20" viewBox="0 0 20 20">
  <path id="Vector" d="M3,1V1ZM1,3H1ZM17,1V1ZM1,17H1ZM7,0H3V2H7ZM3,0A3,3,0,0,0,.879.879L2.293,2.293A1,1,0,0,1,3,2ZM.879.879A3,3,0,0,0,0,3H2a1,1,0,0,1,.293-.707ZM0,3V7H2V3ZM7,2H17V0H7ZM17,2a1,1,0,0,1,.707.293L19.121.879A3,3,0,0,0,17,0Zm.707.293A1,1,0,0,1,18,3h2A3,3,0,0,0,19.121.879ZM18,3V7h2V3ZM6,1V19H8V1ZM7,20H17V18H7Zm10,0a3,3,0,0,0,2.121-.879l-1.414-1.414A1,1,0,0,1,17,18Zm2.121-.879A3,3,0,0,0,20,17H18a1,1,0,0,1-.293.707ZM20,17V7H18V17ZM7,18H3v2H7ZM3,18a1,1,0,0,1-.707-.293L.879,19.121A3,3,0,0,0,3,20Zm-.707-.293A1,1,0,0,1,2,17H0a3,3,0,0,0,.879,2.121ZM2,17V7H0V17ZM1,8H19V6H1Z" fill="#09090b"/>
</svg>
