<svg id="table-columns-split" xmlns="http://www.w3.org/2000/svg" width="22" height="22" viewBox="0 0 22 22">
  <path id="Vector" d="M14,13a1,1,0,0,0-2,0Zm-2,2a1,1,0,0,0,2,0Zm2,4a1,1,0,0,0-2,0Zm-2,2a1,1,0,0,0,2,0ZM14,1a1,1,0,0,0-2,0ZM12,3a1,1,0,0,0,2,0Zm2,4a1,1,0,0,0-2,0ZM12,9a1,1,0,0,0,2,0ZM1,13a1,1,0,0,0,0,2Zm8,2a1,1,0,0,0,0-2ZM1,1A1,1,0,0,0,1,3ZM7,2V2ZM1,19a1,1,0,0,0,0,2ZM1,7A1,1,0,0,0,1,9ZM9,9A1,1,0,0,0,9,7Zm12,6a1,1,0,0,0,0-2Zm-4-2a1,1,0,0,0,0,2ZM21,3a1,1,0,0,0,0-2ZM19,2V2Zm2,19a1,1,0,0,0,0-2ZM21,9a1,1,0,0,0,0-2ZM17,7a1,1,0,0,0,0,2ZM5,2A1,1,0,0,0,3,2ZM3,20a1,1,0,0,0,2,0Zm9-7v2h2V13Zm0,6v2h2V19ZM12,1V3h2V1Zm0,6V9h2V7ZM1,15H9V13H1ZM1,3H7V1H1ZM7,3a1,1,0,0,1,.707.293L9.121,1.879A3,3,0,0,0,7,1Zm.707.293A1,1,0,0,1,8,4h2a3,3,0,0,0-.879-2.121ZM8,4V18h2V4ZM8,18a1,1,0,0,1-.293.707l1.414,1.414A3,3,0,0,0,10,18Zm-.293.707A1,1,0,0,1,7,19v2a3,3,0,0,0,2.121-.879ZM7,19H1v2H7ZM1,9H9V7H1Zm20,4H17v2h4ZM21,1H19V3h2ZM19,1a3,3,0,0,0-2.121.879l1.414,1.414A1,1,0,0,1,19,3Zm-2.121.879A3,3,0,0,0,16,4h2a1,1,0,0,1,.293-.707ZM16,4V18h2V4Zm0,14a3,3,0,0,0,.879,2.121l1.414-1.414A1,1,0,0,1,18,18Zm.879,2.121A3,3,0,0,0,19,21V19a1,1,0,0,1-.707-.293ZM19,21h2V19H19ZM21,7H17V9h4ZM3,2V20H5V2Z" fill="#09090b"/>
</svg>
