<svg id="tablet-smartphone" xmlns="http://www.w3.org/2000/svg" width="20" height="22" viewBox="0 0 20 22">
  <path id="Vector" d="M2,3A1,1,0,0,0,4,3ZM5,1V1ZM17,1V1ZM14.6,20a1,1,0,1,0,0,2ZM6,16a1,1,0,0,0,0,2Zm.01,2a1,1,0,0,0,0-2ZM3,8H9V6H3ZM9,8a1,1,0,0,1,1,1h2A3,3,0,0,0,9,6Zm1,1V19h2V9Zm0,10a1,1,0,0,1-1,1v2a3,3,0,0,0,3-3ZM9,20H3v2H9ZM3,20a1,1,0,0,1-1-1H0a3,3,0,0,0,3,3ZM2,19V9H0V19ZM2,9A1,1,0,0,1,3,8V6A3,3,0,0,0,0,9ZM4,3a1,1,0,0,1,.293-.707L2.879.879A3,3,0,0,0,2,3Zm.293-.707A1,1,0,0,1,5,2V0A3,3,0,0,0,2.879.879ZM5,2H17V0H5ZM17,2a1,1,0,0,1,.707.293L19.121.879A3,3,0,0,0,17,0Zm.707.293A1,1,0,0,1,18,3h2A3,3,0,0,0,19.121.879ZM18,3V19h2V3Zm0,16a1,1,0,0,1-.293.707l1.414,1.414A3,3,0,0,0,20,19Zm-.293.707A1,1,0,0,1,17,20v2a3,3,0,0,0,2.121-.879ZM17,20H14.6v2H17ZM6,18h.01V16H6Z" fill="#09090b"/>
</svg>
