<svg id="tangent" xmlns="http://www.w3.org/2000/svg" width="22" height="22" viewBox="0 0 22 22">
  <path id="Vector" d="M15.3,5.117A1,1,0,0,0,13.883,3.7ZM3.7,13.883A1,1,0,0,0,5.117,15.3Zm6.384,7.523a1,1,0,1,0,1.828-.812Zm10.508-9.492a1,1,0,0,0,.812-1.828ZM17,3a1,1,0,0,1-1,1V6a3,3,0,0,0,3-3ZM16,4a1,1,0,0,1-1-1H13a3,3,0,0,0,3,3ZM15,3a1,1,0,0,1,1-1V0a3,3,0,0,0-3,3Zm1-1a1,1,0,0,1,1,1h2a3,3,0,0,0-3-3ZM13.883,3.7,3.7,13.883,5.117,15.3,15.3,5.117ZM4,16a1,1,0,0,1-1,1v2a3,3,0,0,0,3-3ZM3,17a1,1,0,0,1-1-1H0a3,3,0,0,0,3,3ZM2,16a1,1,0,0,1,1-1V13a3,3,0,0,0-3,3Zm1-1a1,1,0,0,1,1,1H6a3,3,0,0,0-3-3Zm8,6,.914-.406h0l0,0-.007-.017-.031-.071c-.027-.063-.067-.157-.118-.278-.1-.243-.244-.594-.408-1.025-.328-.863-.738-2.032-1.07-3.271a15.759,15.759,0,0,1-.6-3.6,2.956,2.956,0,0,1,.528-2.125L8.793,8.793A4.834,4.834,0,0,0,7.68,12.371a17.7,17.7,0,0,0,.667,4.075c.355,1.324.789,2.561,1.133,3.464.172.452.323.823.43,1.082.054.13.1.231.128.3l.035.081.01.022,0,.006v0h0L11,21Zm-.793-10.793a2.956,2.956,0,0,1,2.125-.528,15.759,15.759,0,0,1,3.6.6c1.238.332,2.407.742,3.271,1.07.43.164.782.306,1.025.408l.278.118.07.031.017.007,0,0h0L21,11c.406-.914.406-.914.406-.914h0l-.006,0-.022-.01-.081-.035-.3-.128c-.259-.108-.63-.258-1.082-.43-.9-.343-2.139-.777-3.464-1.133a17.7,17.7,0,0,0-4.075-.667A4.834,4.834,0,0,0,8.793,8.793Z" fill="#09090b"/>
</svg>
