<svg id="target" xmlns="http://www.w3.org/2000/svg" width="22" height="22" viewBox="0 0 22 22">
  <path id="Vector" d="M20,11a9,9,0,0,1-9,9v2A11,11,0,0,0,22,11Zm-9,9a9,9,0,0,1-9-9H0A11,11,0,0,0,11,22ZM2,11a9,9,0,0,1,9-9V0A11,11,0,0,0,0,11Zm9-9a9,9,0,0,1,9,9h2A11,11,0,0,0,11,0Zm5,9a5,5,0,0,1-5,5v2a7,7,0,0,0,7-7Zm-5,5a5,5,0,0,1-5-5H4a7,7,0,0,0,7,7ZM6,11a5,5,0,0,1,5-5V4a7,7,0,0,0-7,7Zm5-5a5,5,0,0,1,5,5h2a7,7,0,0,0-7-7Zm1,5a1,1,0,0,1-1,1v2a3,3,0,0,0,3-3Zm-1,1a1,1,0,0,1-1-1H8a3,3,0,0,0,3,3Zm-1-1a1,1,0,0,1,1-1V8a3,3,0,0,0-3,3Zm1-1a1,1,0,0,1,1,1h2a3,3,0,0,0-3-3Z" fill="#09090b"/>
</svg>
