<svg id="tent-tree" xmlns="http://www.w3.org/2000/svg" width="22" height="22" viewBox="0 0 22 22">
  <path id="Vector" d="M12.293,3.293a1,1,0,0,0,1.414,1.414ZM16,1l.707-.707a1,1,0,0,0-1.414,0Zm2.293,3.707a1,1,0,0,0,1.414-1.414Zm-6,3.586a1,1,0,0,0,1.414,1.414ZM16,6l.707-.707a1,1,0,0,0-1.414,0Zm2.293,3.707a1,1,0,0,0,1.414-1.414ZM6,13V12a1,1,0,0,0-.848.47ZM1,21l-.848-.53A1,1,0,0,0,1,22Zm20,0v1a1,1,0,0,0,.848-1.53ZM8,13a1,1,0,0,0-2,0ZM6,21a1,1,0,0,0,2,0Zm2.848-8.53a1,1,0,1,0-1.7,1.06Zm3.3,9.06a1,1,0,1,0,1.7-1.06ZM4,3A1,1,0,0,1,3,4V6A3,3,0,0,0,6,3ZM3,4A1,1,0,0,1,2,3H0A3,3,0,0,0,3,6ZM2,3A1,1,0,0,1,3,2V0A3,3,0,0,0,0,3ZM3,2A1,1,0,0,1,4,3H6A3,3,0,0,0,3,0ZM13.707,4.707l3-3L15.293.293l-3,3Zm1.586-3,3,3,1.414-1.414-3-3Zm-1.586,8,3-3L15.293,5.293l-3,3Zm1.586-3,3,3,1.414-1.414-3-3ZM17,13V1H15V13Zm-1-1H6v2H16Zm-10.848.47-5,8,1.7,1.06,5-8ZM1,22H21V20H1Zm20.848-1.53-5-8-1.7,1.06,5,8ZM6,13v8H8V13Zm1.152.53,5,8,1.7-1.06-5-8Z" transform="translate(0)" fill="#09090b"/>
</svg>
