<svg id="text-select" xmlns="http://www.w3.org/2000/svg" width="20" height="20" viewBox="0 0 20 20">
  <path id="Vector" d="M3,2A1,1,0,0,0,3,0ZM0,3A1,1,0,0,0,2,3ZM17,0a1,1,0,0,0,0,2Zm1,3a1,1,0,0,0,2,0Zm2,14a1,1,0,0,0-2,0Zm-3,1a1,1,0,0,0,0,2ZM3,20a1,1,0,0,0,0-2ZM2,17a1,1,0,0,0-2,0ZM7,0A1,1,0,0,0,7,2ZM8,2A1,1,0,0,0,8,0ZM7,18a1,1,0,0,0,0,2Zm1,2a1,1,0,0,0,0-2ZM12,0a1,1,0,0,0,0,2Zm1,2a1,1,0,0,0,0-2ZM12,18a1,1,0,0,0,0,2Zm1,2a1,1,0,0,0,0-2ZM2,7A1,1,0,0,0,0,7ZM0,8A1,1,0,0,0,2,8ZM20,7a1,1,0,0,0-2,0ZM18,8a1,1,0,0,0,2,0ZM2,12a1,1,0,0,0-2,0ZM0,13a1,1,0,0,0,2,0Zm20-1a1,1,0,0,0-2,0Zm-2,1a1,1,0,0,0,2,0ZM5,5A1,1,0,0,0,5,7Zm8,2a1,1,0,0,0,0-2ZM5,9a1,1,0,0,0,0,2Zm10,2a1,1,0,0,0,0-2ZM5,13a1,1,0,0,0,0,2Zm6,2a1,1,0,0,0,0-2ZM3,0A3,3,0,0,0,.879.879L2.293,2.293A1,1,0,0,1,3,2ZM.879.879A3,3,0,0,0,0,3H2a1,1,0,0,1,.293-.707ZM17,2a1,1,0,0,1,.707.293L19.121.879A3,3,0,0,0,17,0Zm.707.293A1,1,0,0,1,18,3h2A3,3,0,0,0,19.121.879ZM18,17a1,1,0,0,1-.293.707l1.414,1.414A3,3,0,0,0,20,17Zm-.293.707A1,1,0,0,1,17,18v2a3,3,0,0,0,2.121-.879ZM3,18a1,1,0,0,1-.707-.293L.879,19.121A3,3,0,0,0,3,20Zm-.707-.293A1,1,0,0,1,2,17H0a3,3,0,0,0,.879,2.121ZM7,2H8V0H7ZM7,20H8V18H7ZM12,2h1V0H12Zm0,18h1V18H12ZM0,7V8H2V7ZM18,7V8h2V7ZM0,12v1H2V12Zm18,0v1h2V12ZM5,7h8V5H5Zm0,4H15V9H5Zm0,4h6V13H5Z" fill="#09090b"/>
</svg>
