<svg id="text-search" xmlns="http://www.w3.org/2000/svg" width="20" height="15" viewBox="0 0 20 15">
  <path id="Vector" d="M19,2a1,1,0,0,0,0-2ZM1,0A1,1,0,0,0,1,2ZM8,8A1,1,0,0,0,8,6ZM1,6A1,1,0,0,0,1,8Zm7,8a1,1,0,0,0,0-2ZM1,12a1,1,0,0,0,0,2Zm17.293,2.707a1,1,0,0,0,1.414-1.414Zm-.486-3.314a1,1,0,0,0-1.414,1.414ZM19,0H1V2H19ZM8,6H1V8H8Zm0,6H1v2H8Zm9-2a2,2,0,0,1-2,2v2a4,4,0,0,0,4-4Zm-2,2a2,2,0,0,1-2-2H11a4,4,0,0,0,4,4Zm-2-2a2,2,0,0,1,2-2V6a4,4,0,0,0-4,4Zm2-2a2,2,0,0,1,2,2h2a4,4,0,0,0-4-4Zm4.707,5.293-1.9-1.9-1.414,1.414,1.9,1.9Z" fill="#09090b"/>
</svg>
