<svg id="theater" xmlns="http://www.w3.org/2000/svg" width="22" height="22" viewBox="0 0 22 22">
  <path id="Vector" d="M1,9,.293,8.293a1,1,0,0,0,0,1.414ZM5,1A1,1,0,0,0,3,1ZM21,9l.707.707a1,1,0,0,0,0-1.414ZM19,1a1,1,0,0,0-2,0ZM10,1A1,1,0,0,0,8,1Zm4,0a1,1,0,0,0-2,0ZM2,14a1,1,0,0,0,2,0Zm16,0a1,1,0,0,0,2,0ZM7,13a1,1,0,0,0,0,2Zm8,2a1,1,0,0,0,0-2ZM0,21a1,1,0,0,0,2,0Zm8,0a1,1,0,0,0,2,0Zm4,0a1,1,0,0,0,2,0Zm8,0a1,1,0,0,0,2,0ZM1,9c.707.707.707.707.708.707h0l0,0,0,0,.011-.011.035-.036c.028-.03.067-.072.115-.125.1-.107.227-.26.382-.458A12.549,12.549,0,0,0,3.378,7.354,13.235,13.235,0,0,0,5,1H3A11.235,11.235,0,0,1,1.622,6.4,10.552,10.552,0,0,1,.681,7.837c-.126.161-.229.281-.3.358l-.076.082-.016.016,0,0h0s0,0,.708.707ZM21,9c.707-.707.707-.707.708-.707h0l0,0-.015-.016-.076-.082c-.069-.077-.172-.2-.3-.358A10.55,10.55,0,0,1,20.378,6.4,11.235,11.235,0,0,1,19,1H17a13.235,13.235,0,0,0,1.622,6.354,12.55,12.55,0,0,0,1.122,1.716c.155.2.286.351.382.458.048.053.087.1.115.125l.035.036.011.011,0,0,0,0h0S20.293,9.707,21,9ZM8,1A7.024,7.024,0,0,1,1,8v2a9.024,9.024,0,0,0,9-9Zm4,0a9.023,9.023,0,0,0,9,9V8a7.024,7.024,0,0,1-7-7ZM1,9l-.708.707h0L.3,9.713l.046.049c.042.047.108.122.188.222a6.961,6.961,0,0,1,.6.887A6.333,6.333,0,0,1,2,14H4A8.331,8.331,0,0,0,2.868,9.879a8.96,8.96,0,0,0-.775-1.144c-.107-.134-.2-.239-.265-.313l-.081-.088-.025-.026L1.713,8.3l0,0h0s0,0-.708.707ZM21,9c-.707-.707-.707-.707-.708-.707h0l0,0-.008.009-.025.026-.081.088c-.067.074-.158.179-.265.313a8.952,8.952,0,0,0-.775,1.144A8.33,8.33,0,0,0,18,14h2a6.333,6.333,0,0,1,.868-3.129,6.968,6.968,0,0,1,.6-.887c.08-.1.145-.175.188-.222l.045-.049L21.71,9.7s0,0,0,0h0L21,9ZM7,15h8V13H7ZM2,21V20H0v1Zm0-1a1,1,0,0,1,.293-.707L.879,17.879A3,3,0,0,0,0,20Zm.293-.707A1,1,0,0,1,3,19V17a3,3,0,0,0-2.121.879ZM3,19H7V17H3Zm4,0a1,1,0,0,1,.707.293l1.414-1.414A3,3,0,0,0,7,17Zm.707.293A1,1,0,0,1,8,20h2a3,3,0,0,0-.879-2.121ZM8,20v1h2V20Zm6,1V20H12v1Zm0-1a1,1,0,0,1,.293-.707l-1.414-1.414A3,3,0,0,0,12,20Zm.293-.707A1,1,0,0,1,15,19V17a3,3,0,0,0-2.121.879ZM15,19h4V17H15Zm4,0a1,1,0,0,1,.707.293l1.414-1.414A3,3,0,0,0,19,17Zm.707.293A1,1,0,0,1,20,20h2a3,3,0,0,0-.879-2.121ZM20,20v1h2V20Z" fill="#09090b"/>
</svg>
