<svg id="thermometer-snowflake" xmlns="http://www.w3.org/2000/svg" width="22" height="22.004" viewBox="0 0 22 22.004">
  <path id="Vector" d="M1,10a1,1,0,0,0,0,2Zm10,2a1,1,0,0,0,0-2ZM9,3A1,1,0,0,0,7,3ZM7,19a1,1,0,0,0,2,0ZM2.707,7.293A1,1,0,0,0,1.293,8.707ZM5,11l.707.707a1,1,0,0,0,0-1.414ZM1.293,13.293a1,1,0,0,0,1.414,1.414ZM11.707,5.707a1,1,0,0,0-1.414-1.414ZM8,8l-.707.707a1,1,0,0,0,1.414,0ZM5.707,4.293A1,1,0,0,0,4.293,5.707Zm-1.414,12a1,1,0,0,0,1.414,1.414ZM8,14l.707-.707a1,1,0,0,0-1.414,0Zm.793,2.207a1,1,0,0,0,1.414-1.414ZM19,13.54H18a1,1,0,0,0,.5.866Zm-4,0,.5.866a1,1,0,0,0,.5-.866ZM15,3h0Zm2-2V1ZM1,12H11V10H1ZM7,3V19H9V3ZM1.293,8.707l3,3,1.414-1.414-3-3Zm3,1.586-3,3,1.414,1.414,3-3Zm6-6-3,3L8.707,8.707l3-3Zm-1.586,3-3-3L4.293,5.707l3,3Zm-3,10.414,3-3L7.293,13.293l-3,3Zm1.586-3,1.5,1.5,1.414-1.414-1.5-1.5ZM18,3V13.54h2V3Zm.5,11.406a3,3,0,0,1,1.272,1.45l1.848-.765A5,5,0,0,0,19.5,12.674Zm1.272,1.45a3,3,0,0,1,.126,1.924l1.932.518a5,5,0,0,0-.21-3.208Zm.126,1.924a3,3,0,0,1-1.072,1.6l1.218,1.587A5,5,0,0,0,21.83,18.3Zm-1.072,1.6A3,3,0,0,1,17,20v2a5,5,0,0,0,3.044-1.033ZM17,20a3,3,0,0,1-1.826-.62l-1.217,1.587A5,5,0,0,0,17,22Zm-1.826-.62a3,3,0,0,1-1.071-1.6L12.17,18.3a5,5,0,0,0,1.786,2.673Zm-1.072-1.6a3,3,0,0,1,.126-1.924l-1.848-.765a5,5,0,0,0-.21,3.208Zm.126-1.924a3,3,0,0,1,1.272-1.45l-1-1.732a5,5,0,0,0-2.119,2.417ZM16,13.54V3H14V13.54ZM16,3a1,1,0,0,1,.293-.707L14.879.879A3,3,0,0,0,14,3Zm.293-.707A1,1,0,0,1,17,2V0a3,3,0,0,0-2.121.879ZM17,2a1,1,0,0,1,.707.293L19.121.879A3,3,0,0,0,17,0Zm.707.293A1,1,0,0,1,18,3h2A3,3,0,0,0,19.121.879Z" fill="#09090b"/>
</svg>
