<svg id="thermometer-sun" xmlns="http://www.w3.org/2000/svg" width="22" height="22.004" viewBox="0 0 22 22.004">
  <path id="Vector" d="M10.984,9a1,1,0,1,0,.032-2ZM8.516,16.375a1,1,0,0,0,.968-1.75ZM12,2a1,1,0,0,0-2,0ZM10,4a1,1,0,0,0,2,0ZM6.307,18.107a1,1,0,1,0-1.414-1.414Zm-2.814-.014a1,1,0,1,0,1.414,1.414ZM19,13.54H18a1,1,0,0,0,.5.866Zm-4,0,.5.866a1,1,0,0,0,.5-.866ZM15,3h0Zm2-2V1ZM3,13a1,1,0,0,0,0-2ZM1,11a1,1,0,0,0,0,2ZM4.633,7.047A1,1,0,0,0,6.047,5.633Zm0-2.824A1,1,0,0,0,3.223,5.637ZM11.016,7A5,5,0,0,0,7.921,8.01l1.206,1.6A3,3,0,0,1,10.984,9ZM7.921,8.01a5,5,0,0,0-1.817,2.7l1.932.515a3,3,0,0,1,1.09-1.621ZM6.1,10.711a5,5,0,0,0,.231,3.247l1.84-.783a3,3,0,0,1-.139-1.948Zm.231,3.247a5,5,0,0,0,2.181,2.417l.968-1.75a3,3,0,0,1-1.309-1.45ZM10,2V4h2V2ZM4.893,16.693l-1.4,1.4,1.414,1.414,1.4-1.4ZM18,3V13.54h2V3Zm.5,11.406a3,3,0,0,1,1.272,1.45l1.848-.765A5,5,0,0,0,19.5,12.674Zm1.272,1.45a3,3,0,0,1,.126,1.924l1.932.518a5,5,0,0,0-.21-3.208Zm.126,1.924a3,3,0,0,1-1.072,1.6l1.218,1.587A5,5,0,0,0,21.83,18.3Zm-1.072,1.6A3,3,0,0,1,17,20v2a5,5,0,0,0,3.044-1.033ZM17,20a3,3,0,0,1-1.826-.62l-1.217,1.587A5,5,0,0,0,17,22Zm-1.826-.62a3,3,0,0,1-1.071-1.6L12.17,18.3a5,5,0,0,0,1.786,2.673Zm-1.072-1.6a3,3,0,0,1,.126-1.924l-1.848-.765a5,5,0,0,0-.21,3.208Zm.126-1.924a3,3,0,0,1,1.272-1.45l-1-1.732a5,5,0,0,0-2.119,2.417ZM16,13.54V3H14V13.54ZM16,3a1,1,0,0,1,.293-.707L14.879.879A3,3,0,0,0,14,3Zm.293-.707A1,1,0,0,1,17,2V0a3,3,0,0,0-2.121.879ZM17,2a1,1,0,0,1,.707.293L19.121.879A3,3,0,0,0,17,0Zm.707.293A1,1,0,0,1,18,3h2A3,3,0,0,0,19.121.879ZM3,11H1v2H3ZM6.047,5.633l-1.41-1.41L3.223,5.637l1.41,1.41Z" fill="#09090b"/>
</svg>
