<svg id="thumbs-down" xmlns="http://www.w3.org/2000/svg" width="21.83" height="22" viewBox="0 0 21.83 22">
  <path id="Vector" d="M14.83,13a1,1,0,0,0,2,0Zm2-12a1,1,0,0,0-2,0Zm-9,16.12.971.24v0Zm1-4.12.972.236A1,1,0,0,0,8.83,12ZM3,13v0ZM1.08,10.44l.96.28h0Zm2.33-8-.96-.28h0ZM5.33,1V1Zm13.5,0V1ZM16.07,13V12h0Zm-1.79,1.11.894.448v0ZM10.83,21l-.012,1a1,1,0,0,0,.907-.552Zm6-8V1h-2V13ZM8.8,17.356l1-4.12-1.944-.472-1,4.12ZM8.83,12H3v2H8.83ZM3,12a1,1,0,0,1-.447-.106l-.894,1.789A3,3,0,0,0,3,14Zm-.447-.106A1,1,0,0,1,2.2,11.6L.6,12.8a3,3,0,0,0,1.058.883ZM2.2,11.6a1,1,0,0,1-.184-.421l-1.968.358A3,3,0,0,0,.6,12.8Zm-.184-.421a1,1,0,0,1,.024-.459L.12,10.16a3,3,0,0,0-.072,1.377Zm.024-.459,2.33-8L2.45,2.16l-2.33,8Zm2.33-8a1,1,0,0,1,.36-.52L3.53.6A3,3,0,0,0,2.45,2.16Zm.36-.52a1,1,0,0,1,.6-.2V0a3,3,0,0,0-1.8.6Zm.6-.2h13.5V0H5.33Zm13.5,0a1,1,0,0,1,.707.293L20.951.879A3,3,0,0,0,18.83,0Zm.707.293A1,1,0,0,1,19.83,3h2A3,3,0,0,0,20.951.879ZM19.83,3v8h2V3Zm0,8a1,1,0,0,1-.293.707l1.414,1.414A3,3,0,0,0,21.83,11Zm-.293.707A1,1,0,0,1,18.83,12v2a3,3,0,0,0,2.121-.879ZM18.83,12H16.07v2h2.76Zm-2.76,0a3,3,0,0,0-1.58.45l1.054,1.7A1,1,0,0,1,16.07,14Zm-1.58.45a3,3,0,0,0-1.106,1.215l1.791.89a1,1,0,0,1,.369-.4Zm-1.1,1.212-3.45,6.89,1.788.9,3.45-6.89ZM10.842,20a2.13,2.13,0,0,1-.924-.224l-.892,1.79A4.129,4.129,0,0,0,10.818,22Zm-.924-.224a2.13,2.13,0,0,1-.735-.6L7.6,20.4a4.129,4.129,0,0,0,1.425,1.17Zm-.735-.6a2.13,2.13,0,0,1-.4-.863l-1.957.413A4.13,4.13,0,0,0,7.6,20.4Zm-.4-.863A2.13,2.13,0,0,1,8.8,17.36L6.859,16.88a4.13,4.13,0,0,0-.031,1.843Z" transform="translate(0)" fill="#09090b"/>
</svg>
