<svg id="thumbs-up" xmlns="http://www.w3.org/2000/svg" width="21.83" height="22" viewBox="0 0 21.83 22">
  <path id="Vector" d="M7,9A1,1,0,0,0,5,9ZM5,21a1,1,0,0,0,2,0ZM14,4.88l-.971-.24v0ZM13,9l-.972-.236A1,1,0,0,0,13,10Zm7.75,2.56-.96-.28h0Zm-2.33,8,.96.28h0ZM1,19H1ZM3,9V9ZM5.76,9v1h0ZM7.55,7.89l-.894-.448v0ZM11,1l.012-1a1,1,0,0,0-.907.552ZM5,9V21H7V9Zm8.028-4.356-1,4.12,1.944.472,1-4.12ZM13,10h5.83V8H13Zm5.83,0a1,1,0,0,1,.447.106l.894-1.789A3,3,0,0,0,18.83,8Zm.447.106a1,1,0,0,1,.353.294l1.6-1.2a3,3,0,0,0-1.058-.883Zm.353.294a1,1,0,0,1,.184.421l1.968-.358A3,3,0,0,0,21.23,9.2Zm.184.421a1,1,0,0,1-.024.459l1.92.56a3,3,0,0,0,.072-1.377Zm-.024.459-2.33,8,1.92.559,2.33-8Zm-2.33,8a1,1,0,0,1-.36.52l1.2,1.6a3,3,0,0,0,1.08-1.56Zm-.36.52a1,1,0,0,1-.6.2v2a3,3,0,0,0,1.8-.6Zm-.6.2H3v2H16.5ZM3,20a1,1,0,0,1-.707-.293L.879,21.121A3,3,0,0,0,3,22Zm-.707-.293A1,1,0,0,1,2,19H0a3,3,0,0,0,.879,2.121ZM2,19V11H0v8Zm0-8a1,1,0,0,1,.293-.707L.879,8.879A3,3,0,0,0,0,11Zm.293-.707A1,1,0,0,1,3,10V8a3,3,0,0,0-2.121.879ZM3,10H5.76V8H3Zm2.761,0A3,3,0,0,0,7.34,9.55L6.286,7.85A1,1,0,0,1,5.759,8ZM7.34,9.55A3,3,0,0,0,8.446,8.335l-1.791-.89a1,1,0,0,1-.369.4Zm1.1-1.212,3.45-6.89-1.788-.9-3.45,6.89ZM10.988,2a2.13,2.13,0,0,1,.924.224L12.8.434A4.13,4.13,0,0,0,11.012,0Zm.924.224a2.13,2.13,0,0,1,.735.6L14.229,1.6A4.13,4.13,0,0,0,12.8.434Zm.735.6a2.13,2.13,0,0,1,.4.863L15,3.277A4.13,4.13,0,0,0,14.229,1.6Zm.4.863a2.13,2.13,0,0,1-.016.951l1.942.479A4.13,4.13,0,0,0,15,3.277Z" transform="translate(0 0)" fill="#09090b"/>
</svg>
