<svg id="ticket-check" xmlns="http://www.w3.org/2000/svg" width="22" height="16" viewBox="0 0 22 16">
  <path id="Vector" d="M1,5H0A1,1,0,0,0,1,6Zm0,6V10a1,1,0,0,0-1,1Zm0,2H1Zm20-2h1a1,1,0,0,0-1-1ZM18,8h0Zm3-3V6a1,1,0,0,0,1-1ZM19,1V1ZM3,1V1ZM1,3H1ZM8.707,7.293A1,1,0,0,0,7.293,8.707ZM10,10l-.707.707a1,1,0,0,0,1.414,0Zm4.707-3.293a1,1,0,0,0-1.414-1.414ZM1,6a2,2,0,0,1,1.414.586L3.828,5.172A4,4,0,0,0,1,4Zm1.414.586A2,2,0,0,1,3,8H5A4,4,0,0,0,3.828,5.172ZM3,8a2,2,0,0,1-.586,1.414l1.414,1.414A4,4,0,0,0,5,8ZM2.414,9.414A2,2,0,0,1,1,10v2a4,4,0,0,0,2.828-1.172ZM0,11v2H2V11Zm0,2a3,3,0,0,0,.879,2.121l1.414-1.414A1,1,0,0,1,2,13Zm.879,2.121A3,3,0,0,0,3,16V14a1,1,0,0,1-.707-.293ZM3,16H19V14H3Zm16,0a3,3,0,0,0,2.121-.879l-1.414-1.414A1,1,0,0,1,19,14Zm2.121-.879A3,3,0,0,0,22,13H20a1,1,0,0,1-.293.707ZM22,13V11H20v2Zm-1-3a2,2,0,0,1-1.414-.586l-1.414,1.414A4,4,0,0,0,21,12Zm-1.414-.586A2,2,0,0,1,19,8H17a4,4,0,0,0,1.172,2.828ZM19,8a2,2,0,0,1,.586-1.414L18.172,5.172A4,4,0,0,0,17,8Zm.586-1.414A2,2,0,0,1,21,6V4a4,4,0,0,0-2.828,1.172ZM22,5V3H20V5Zm0-2A3,3,0,0,0,21.121.879L19.707,2.293A1,1,0,0,1,20,3ZM21.121.879A3,3,0,0,0,19,0V2a1,1,0,0,1,.707.293ZM19,0H3V2H19ZM3,0A3,3,0,0,0,.879.879L2.293,2.293A1,1,0,0,1,3,2ZM.879.879A3,3,0,0,0,0,3H2a1,1,0,0,1,.293-.707ZM0,3V5H2V3ZM7.293,8.707l2,2,1.414-1.414-2-2Zm3.414,2,4-4L13.293,5.293l-4,4Z" fill="#09090b"/>
</svg>
