<svg id="timer-reset" xmlns="http://www.w3.org/2000/svg" width="17.992" height="22" viewBox="0 0 17.992 22">
  <path id="Vector" d="M7,0A1,1,0,0,0,7,2Zm4,2a1,1,0,0,0,0-2ZM8,13a1,1,0,0,0,2,0Zm2-4A1,1,0,0,0,8,9ZM.008,11.875a1,1,0,1,0,1.984.25ZM9,5,8.992,6H9ZM3.7,19l-.664.747,0,0ZM1.664,15.853A1,1,0,1,0,.336,17.347ZM6,17a1,1,0,0,0,0-2ZM1,16V15a1,1,0,0,0-1,1ZM0,21a1,1,0,0,0,2,0ZM7,2h4V0H7Zm3,11V9H8v4Zm-8.008-.875A7,7,0,0,1,4.328,7.732L3.011,6.227a9,9,0,0,0-3,5.648ZM4.328,7.732A7,7,0,0,1,8.992,6l.016-2a9,9,0,0,0-6,2.227ZM9,6a7,7,0,0,1,3.25.8l.931-1.77A9,9,0,0,0,9,4Zm3.25.8a7,7,0,0,1,2.5,2.221L16.4,7.889a9,9,0,0,0-3.22-2.856Zm2.5,2.221a7,7,0,0,1,1.187,3.13l1.985-.241A9,9,0,0,0,16.4,7.889Zm1.187,3.13a7,7,0,0,1-.4,3.323l1.87.708a9,9,0,0,0,.517-4.273Zm-.4,3.323a7,7,0,0,1-1.9,2.757l1.328,1.5a9,9,0,0,0,2.442-3.544Zm-1.9,2.757a7,7,0,0,1-2.962,1.559l.481,1.941a9,9,0,0,0,3.809-2Zm-2.962,1.559a7,7,0,0,1-3.348.006l-.475,1.943a9,9,0,0,0,4.3-.007ZM7.329,19.8a7,7,0,0,1-2.967-1.55l-1.323,1.5a9,9,0,0,0,3.815,1.992ZM4.364,18.253l-2.7-2.4L.336,17.347l2.7,2.4ZM6,15H1v2H6ZM0,16v5H2V16Z" transform="translate(0)" fill="#09090b"/>
</svg>
