<svg id="touchpad-off" xmlns="http://www.w3.org/2000/svg" width="22" height="22" viewBox="0 0 22 22">
  <path id="Vector" d="M3,4A1,1,0,0,0,3,2ZM1,5H1ZM1,17H1Zm18,3a1,1,0,0,0,0-2ZM1,12a1,1,0,0,0,0,2Zm12,2a1,1,0,0,0,0-2Zm8,0a1,1,0,0,0,0-2Zm-2-2a1,1,0,0,0,0,2Zm-9,7a1,1,0,0,0,2,0Zm2-6a1,1,0,0,0-2,0ZM1.707.293A1,1,0,0,0,.293,1.707ZM20.293,21.707a1,1,0,0,0,1.414-1.414ZM20,15a1,1,0,0,0,2,0ZM19,3V3ZM9,2A1,1,0,0,0,9,4ZM3,2a3,3,0,0,0-2.121.879L2.293,4.293A1,1,0,0,1,3,4ZM.879,2.879A3,3,0,0,0,0,5H2a1,1,0,0,1,.293-.707ZM0,5V17H2V5ZM0,17a3,3,0,0,0,.879,2.121l1.414-1.414A1,1,0,0,1,2,17Zm.879,2.121A3,3,0,0,0,3,20V18a1,1,0,0,1-.707-.293ZM3,20H19V18H3ZM1,14H13V12H1Zm20-2H19v2h2Zm-9,7V13H10v6ZM.293,1.707l20,20,1.414-1.414-20-20ZM22,15V5H20V15ZM22,5a3,3,0,0,0-.879-2.121L19.707,4.293A1,1,0,0,1,20,5Zm-.879-2.121A3,3,0,0,0,19,2V4a1,1,0,0,1,.707.293ZM19,2H9V4H19Z" fill="#09090b"/>
</svg>
