<svg id="tower-control" xmlns="http://www.w3.org/2000/svg" width="18" height="22" viewBox="0 0 18 22">
  <path id="Vector" d="M15.2,11.27l-.961-.276A1,1,0,0,0,15.2,12.27ZM17,5l.961.276A1,1,0,0,0,17,4ZM1,5V4A1,1,0,0,0,.039,5.276Zm1.8,6.27L3.763,11l0-.006Zm.95.73-.013,1H3.75Zm10.5,0v1h0Zm.96-.73.963.27a1,1,0,0,0-.963-1.27ZM6,12a1,1,0,0,0-2,0ZM4,21a1,1,0,0,0,2,0Zm8,0a1,1,0,0,0,2,0Zm2-9a1,1,0,0,0-2,0ZM6.99,4.859a1,1,0,1,0-1.98.283Zm-.98,7.283a1,1,0,0,0,1.98-.283Zm6.98-7a1,1,0,1,0-1.98-.283Zm-2.98,6.717a1,1,0,0,0,1.98.283ZM8,5a1,1,0,1,0,2,0Zm2-4A1,1,0,1,0,8,1Zm0,1a1,1,0,0,0,0-2ZM8,0A1,1,0,0,0,8,2Zm8.161,11.546,1.8-6.27-1.922-.552-1.8,6.27ZM17,4H1V6H17ZM.039,5.276l1.8,6.27,1.922-.552-1.8-6.27Zm1.8,6.264a2,2,0,0,0,.707,1.046L3.763,11h0Zm.707,1.046A2,2,0,0,0,3.737,13l.026-2h0ZM3.75,13h10.5V11H3.75Zm10.5,0a2,2,0,0,0,1.2-.408L14.247,11h0Zm1.2-.408a2,2,0,0,0,.715-1.052L14.247,11h0ZM15.21,10.27H15.2v2h.01ZM4,12v9H6V12Zm10,9V12H12v9ZM5.01,5.141l1,7,1.98-.283-1-7Zm6-.283-1,7,1.98.283,1-7ZM10,5V1H8V5Zm0-5H8V2h2Z" transform="translate(0)" fill="#09090b"/>
</svg>
