<svg id="train-track" xmlns="http://www.w3.org/2000/svg" width="22" height="22" viewBox="0 0 22 22">
  <path id="Vector" d="M.293,15.293a1,1,0,0,0,1.414,1.414ZM16.707,1.707A1,1,0,0,0,15.293.293Zm-15,10.586A1,1,0,0,0,.293,13.707Zm6.586,9.414a1,1,0,1,0,1.414-1.414ZM4.707,9.293a1,1,0,0,0-1.414,1.414Zm6.586,9.414a1,1,0,0,0,1.414-1.414ZM7.707,6.293A1,1,0,0,0,6.293,7.707Zm6.586,9.414a1,1,0,0,0,1.414-1.414ZM10.707,3.293A1,1,0,0,0,9.293,4.707Zm6.586,9.414a1,1,0,1,0,1.414-1.414ZM13.707.293a1,1,0,0,0-1.414,1.414Zm6.586,9.414a1,1,0,0,0,1.414-1.414Zm-15,10.586a1,1,0,0,0,1.414,1.414ZM21.707,6.707a1,1,0,0,0-1.414-1.414Zm-20,10,15-15L15.293.293l-15,15Zm-1.414-3,8,8,1.414-1.414-8-8Zm3-3,8,8,1.414-1.414-8-8Zm3-3,8,8,1.414-1.414-8-8Zm3-3,8,8,1.414-1.414-8-8Zm3-3,8,8,1.414-1.414-8-8Zm-5.586,20,15-15L20.293,5.293l-15,15Z" fill="#09090b"/>
</svg>
