<svg id="train-front" xmlns="http://www.w3.org/2000/svg" width="18" height="22" viewBox="0 0 18 22">
  <path id="Vector" d="M6,2.1a1,1,0,0,0-2,0ZM5,6H5Zm4,4v0Zm4-4h0Zm1-3.9a1,1,0,0,0-2,0ZM5.293,14.707a1,1,0,1,0,1.414-1.414Zm.414-2.414a1,1,0,0,0-1.414,1.414Zm5.586,1a1,1,0,0,0,1.414,1.414Zm2.414.414a1,1,0,0,0-1.414-1.414ZM9,1V1Zm8,8h0ZM5.832,18.555a1,1,0,1,0-1.664-1.109ZM2.168,20.445a1,1,0,1,0,1.664,1.109Zm11.664-3a1,1,0,0,0-1.664,1.109Zm.336,4.109a1,1,0,0,0,1.664-1.109ZM4,2.1V6H6V2.1ZM4,6A5,5,0,0,0,5.464,9.536L6.879,8.121A3,3,0,0,1,6,6ZM5.464,9.536A5,5,0,0,0,9,11V9a3,3,0,0,1-2.121-.879ZM9,11a5,5,0,0,0,3.535-1.464L11.121,8.121A3,3,0,0,1,9,9Zm3.535-1.464A5,5,0,0,0,14,6H12a3,3,0,0,1-.879,2.121ZM14,6V2.1H12V6ZM6.707,13.293l-1-1L4.293,13.707l1,1Zm6,1.414,1-1-1.414-1.414-1,1ZM6,17a3.952,3.952,0,0,1-4-4H0a5.951,5.951,0,0,0,6,6ZM2,13V9H0v4ZM2,9A7,7,0,0,1,4.05,4.05L2.636,2.636A9,9,0,0,0,0,9ZM4.05,4.05A7,7,0,0,1,9,2V0A9,9,0,0,0,2.636,2.636ZM9,2a7,7,0,0,1,4.95,2.05l1.414-1.414A9,9,0,0,0,9,0Zm4.95,2.05A7,7,0,0,1,16,9h2a9,9,0,0,0-2.636-6.364ZM16,9v4h2V9Zm0,4a3.952,3.952,0,0,1-4,4v2a5.951,5.951,0,0,0,6-6Zm-4,4H6v2h6Zm-7.832.445-2,3,1.664,1.109,2-3Zm8,1.109,2,3,1.664-1.109-2-3Z" fill="#09090b"/>
</svg>
