<svg id="train-front-tunnel" xmlns="http://www.w3.org/2000/svg" width="22" height="22" viewBox="0 0 22 22">
  <path id="Vector" d="M0,21a1,1,0,0,0,2,0ZM1,11H1ZM11,1V1ZM21,11h0ZM20,21a1,1,0,0,0,2,0ZM15,5.8a1,1,0,0,0-2,0ZM11,10v0ZM9,5.8a1,1,0,0,0-2,0ZM9,13a1,1,0,0,0,0,2Zm.01,2a1,1,0,1,0,0-2ZM13,13a1,1,0,0,0,0,2Zm.01,2a1,1,0,0,0,0-2ZM5,14H5Zm0-3H5Zm6-6V5Zm6,6h0ZM8.832,18.555a1,1,0,1,0-1.664-1.109ZM5.168,20.445a1,1,0,1,0,1.664,1.109Zm9.664-3a1,1,0,0,0-1.664,1.109Zm.336,4.109a1,1,0,0,0,1.664-1.109ZM2,21V11H0V21ZM2,11A9,9,0,0,1,4.636,4.636L3.222,3.222A11,11,0,0,0,0,11ZM4.636,4.636A9,9,0,0,1,11,2V0A11,11,0,0,0,3.222,3.222ZM11,2a9,9,0,0,1,6.364,2.636l1.414-1.414A11,11,0,0,0,11,0Zm6.364,2.636A9,9,0,0,1,20,11h2a11,11,0,0,0-3.222-7.778ZM20,11V21h2V11ZM13,5.8V7.2h2V5.8Zm0,1.4a1.709,1.709,0,0,1-.561,1.249L13.8,9.911A3.708,3.708,0,0,0,15,7.2Zm-.561,1.249A2.113,2.113,0,0,1,11,9v2a4.112,4.112,0,0,0,2.8-1.089ZM11,9a2.113,2.113,0,0,1-1.439-.551L8.2,9.911A4.112,4.112,0,0,0,11,11ZM9.561,8.449A1.709,1.709,0,0,1,9,7.2H7A3.709,3.709,0,0,0,8.2,9.911ZM9,7.2V5.8H7V7.2ZM9,15h.01V13H9Zm4,0h.01V13H13ZM9,17a3,3,0,0,1-2.121-.879L5.464,17.535A5,5,0,0,0,9,19Zm-2.121-.879A3,3,0,0,1,6,14H4a5,5,0,0,0,1.464,3.535ZM6,14V11H4v3Zm0-3A5,5,0,0,1,7.464,7.464L6.05,6.05A7,7,0,0,0,4,11ZM7.464,7.464A5,5,0,0,1,11,6V4A7,7,0,0,0,6.05,6.05ZM11,6a5,5,0,0,1,3.535,1.464L15.95,6.05A7,7,0,0,0,11,4Zm3.535,1.464A5,5,0,0,1,16,11h2a7,7,0,0,0-2.05-4.95ZM16,11v3h2V11Zm0,3a3,3,0,0,1-.879,2.121l1.414,1.414A5,5,0,0,0,18,14Zm-.879,2.121A3,3,0,0,1,13,17v2a5,5,0,0,0,3.535-1.465ZM13,17H9v2h4Zm-5.832.445-2,3,1.664,1.109,2-3Zm6,1.109,2,3,1.664-1.109-2-3Z" fill="#09090b"/>
</svg>
