<svg id="trash-2" xmlns="http://www.w3.org/2000/svg" width="20" height="22" viewBox="0 0 20 22">
  <path id="Vector" d="M1,4A1,1,0,0,0,1,6ZM19,6a1,1,0,0,0,0-2ZM18,5a1,1,0,0,0-2,0ZM4,5A1,1,0,0,0,2,5ZM5,5A1,1,0,0,0,7,5Zm8,0a1,1,0,0,0,2,0ZM9,10a1,1,0,0,0-2,0ZM7,16a1,1,0,0,0,2,0Zm6-6a1,1,0,0,0-2,0Zm-2,6a1,1,0,0,0,2,0ZM1,6H19V4H1ZM16,5V19h2V5Zm0,14a1.172,1.172,0,0,1-1,1v2a3.145,3.145,0,0,0,3-3Zm-1,1H5v2H15ZM5,20a1.022,1.022,0,0,1-.668-.332A1.022,1.022,0,0,1,4,19H2a3,3,0,0,0,.918,2.082A3,3,0,0,0,5,22ZM4,19V5H2V19ZM7,5V3H5V5ZM7,3a1.021,1.021,0,0,1,.332-.668A1.021,1.021,0,0,1,8,2V0A3,3,0,0,0,5.918.918,3,3,0,0,0,5,3ZM8,2h4V0H8Zm4,0a1.022,1.022,0,0,1,.668.332A1.022,1.022,0,0,1,13,3h2A3,3,0,0,0,14.082.918,3,3,0,0,0,12,0Zm1,1V5h2V3ZM7,10v6H9V10Zm4,0v6h2V10Z" fill="#09090b"/>
</svg>
