<svg id="tree-deciduous" xmlns="http://www.w3.org/2000/svg" width="18.003" height="21" viewBox="0 0 18.003 21">
  <path id="Vector" d="M5.009,17V16h0ZM2.769,9.68l.558.83A1,1,0,0,0,3.55,9.055Zm3.24-5.65-.145.989A1,1,0,0,0,7.009,4.03Zm3-3.03V1Zm3,3h0Zm0,.04h-1a1,1,0,0,0,1.145.989Zm3.24,5.65-.781-.625a1,1,0,0,0,.219,1.452ZM13.009,17v1h0Zm-3,0a1,1,0,0,0-2,0Zm-2,3a1,1,0,0,0,2,0Zm-3-4a3,3,0,0,1-1.788-.586L2.031,17.023A5,5,0,0,0,5.011,18Zm-1.788-.586a3,3,0,0,1-1.087-1.536l-1.912.585a5,5,0,0,0,1.812,2.56ZM2.131,13.878A3,3,0,0,1,2.173,12L.288,11.328a5,5,0,0,0-.069,3.136ZM2.173,12A3,3,0,0,1,3.327,10.51L2.211,8.85A5,5,0,0,0,.288,11.328ZM3.55,9.055a2.5,2.5,0,0,1-.541-1.369L1.015,7.84A4.5,4.5,0,0,0,1.988,10.3ZM3.009,7.686a2.5,2.5,0,0,1,.324-1.436L1.6,5.254A4.5,4.5,0,0,0,1.015,7.84Zm.324-1.436a2.5,2.5,0,0,1,1.076-1l-.874-1.8A4.5,4.5,0,0,0,1.6,5.254Zm1.076-1a2.5,2.5,0,0,1,1.455-.225l.29-1.979a4.5,4.5,0,0,0-2.619.405Zm2.6-1.214V4h-2v.03Zm0-.03a2,2,0,0,1,.586-1.414L6.181,1.172A4,4,0,0,0,5.009,4Zm.586-1.414A2,2,0,0,1,9.009,2V0A4,4,0,0,0,6.181,1.172ZM9.009,2a2,2,0,0,1,1.414.586l1.414-1.414A4,4,0,0,0,9.009,0Zm1.414.586A2,2,0,0,1,11.009,4h2a4,4,0,0,0-1.172-2.828ZM11.009,4v.04h2V4Zm1.145,1.029a2.5,2.5,0,0,1,1.455.225l.874-1.8a4.5,4.5,0,0,0-2.619-.405Zm1.455.225a2.5,2.5,0,0,1,1.076,1l1.735-.995a4.5,4.5,0,0,0-1.937-1.809Zm1.076,1A2.5,2.5,0,0,1,15.009,7.7L17,7.85a4.5,4.5,0,0,0-.583-2.585ZM15.009,7.7a2.5,2.5,0,0,1-.541,1.369l1.561,1.25A4.5,4.5,0,0,0,17,7.85Zm-.321,2.822A3,3,0,0,1,15.833,12l1.886-.665A5,5,0,0,0,15.81,8.862ZM15.833,12a3,3,0,0,1,.039,1.876l1.912.586a5,5,0,0,0-.065-3.126Zm.039,1.876a3,3,0,0,1-1.083,1.532l1.19,1.607a5,5,0,0,0,1.8-2.553Zm-1.083,1.532A3,3,0,0,1,13.007,16l0,2a5,5,0,0,0,2.969-.982ZM13.009,16h-8v2h8Zm-5,1v3h2V17Z" transform="translate(0)" fill="#09090b"/>
</svg>
