<svg id="trello" xmlns="http://www.w3.org/2000/svg" width="20" height="20" viewBox="0 0 20 20">
  <path id="Vector" d="M5,5V4A1,1,0,0,0,4,5ZM8,5H9A1,1,0,0,0,8,4Zm0,9v1a1,1,0,0,0,1-1ZM5,14H4a1,1,0,0,0,1,1Zm7-9V4a1,1,0,0,0-1,1Zm3,0h1a1,1,0,0,0-1-1Zm0,5v1a1,1,0,0,0,1-1Zm-3,0H11a1,1,0,0,0,1,1ZM3,2H17V0H3ZM17,2a1,1,0,0,1,1,1h2a3,3,0,0,0-3-3Zm1,1V17h2V3Zm0,14a1,1,0,0,1-1,1v2a3,3,0,0,0,3-3Zm-1,1H3v2H17ZM3,18a1,1,0,0,1-1-1H0a3,3,0,0,0,3,3ZM2,17V3H0V17ZM2,3A1,1,0,0,1,3,2V0A3,3,0,0,0,0,3ZM5,6H8V4H5ZM7,5v9H9V5Zm1,8H5v2H8ZM6,14V5H4v9Zm6-8h3V4H12Zm2-1v5h2V5Zm1,4H12v2h3Zm-2,1V5H11v5Z" fill="#09090b"/>
</svg>
