<svg id="twitch" xmlns="http://www.w3.org/2000/svg" width="20" height="22" viewBox="0 0 20 22">
  <path id="Vector" d="M19,1h1a1,1,0,0,0-1-1ZM1,1V0A1,1,0,0,0,0,1ZM1,17H0a1,1,0,0,0,1,1Zm5,0H7a1,1,0,0,0-1-1Zm0,4H5a1,1,0,0,0,1.707.707Zm4-4V16a1,1,0,0,0-.707.293Zm5,0v1a1,1,0,0,0,.707-.293Zm4-4,.707.707A1,1,0,0,0,20,13ZM8,10a1,1,0,0,0,2,0Zm2-4A1,1,0,0,0,8,6Zm3,4a1,1,0,0,0,2,0Zm2-4a1,1,0,0,0-2,0Zm4-6H1V2H19ZM0,1V17H2V1ZM1,18H6V16H1Zm4-1v4H7V17Zm1.707,4.707,4-4L9.293,16.293l-4,4ZM10,18h5V16H10Zm5.707-.293,4-4-1.414-1.414-4,4ZM20,13V1H18V13ZM10,10V6H8v4Zm5,0V6H13v4Z" fill="#09090b"/>
</svg>
