<svg id="umbrella-off" xmlns="http://www.w3.org/2000/svg" width="22" height="22.031" viewBox="0 0 22 22.031">
  <path id="Vector" d="M12,1a1,1,0,0,0-2,0ZM10,2a1,1,0,0,0,2,0Zm5.4,18.443a1,1,0,0,0-1.793-.885ZM11,19l1,.1c0-.032,0-.065,0-.1Zm0-8h1a1,1,0,0,0-1-1ZM1,11l-.995-.1A1,1,0,0,0,1,12ZM5.08,5.183a1,1,0,0,0-1.3-1.516ZM16.5,10a1,1,0,0,0,0,2ZM21,11v1a1,1,0,0,0,1-1.1ZM7.7,1.5a1,1,0,0,0,.609,1.905ZM1.707.293A1,1,0,0,0,.293,1.707ZM20.293,21.707a1,1,0,0,0,1.414-1.414ZM10,1V2h2V1Zm3.6,18.557a.85.85,0,0,1-.418.4L14,21.787a2.851,2.851,0,0,0,1.4-1.344Zm-.418.4a.85.85,0,0,1-.578.04l-.549,1.923A2.85,2.85,0,0,0,14,21.787Zm-.578.04a.85.85,0,0,1-.469-.339l-1.654,1.125a2.85,2.85,0,0,0,1.574,1.138Zm-.469-.339A.85.85,0,0,1,12,19.1L10,18.9a2.85,2.85,0,0,0,.48,1.882ZM12,19V11H10v8Zm-1-9H1v2H11ZM1.995,11.1A9,9,0,0,1,5.08,5.183l-1.3-1.516A11,11,0,0,0,.005,10.9Zm14.5.9H21V10H16.5ZM22,10.9A11,11,0,0,0,20.462,6.29L18.75,7.325A9,9,0,0,1,20,11.1ZM20.462,6.29a11,11,0,0,0-3.371-3.5l-1.1,1.671A9,9,0,0,1,18.75,7.325Zm-3.371-3.5a11,11,0,0,0-4.55-1.707L12.27,3.064a9,9,0,0,1,3.723,1.4Zm-4.55-1.707A11,11,0,0,0,7.7,1.5l.609,1.905a9,9,0,0,1,3.961-.344ZM.293,1.707l20,20,1.414-1.414-20-20Z" transform="translate(0)" fill="#09090b"/>
</svg>
