<svg id="umbrella" xmlns="http://www.w3.org/2000/svg" width="22" height="22" viewBox="0 0 22 22">
  <path id="Vector" d="M21,11v1a1,1,0,0,0,.994-1.109ZM11,2.037v0ZM1,11l-.994-.109A1,1,0,0,0,1,12Zm11,0a1,1,0,0,0-2,0Zm4,8a1,1,0,0,0-2,0ZM12,1a1,1,0,0,0-2,0ZM10,2a1,1,0,0,0,2,0Zm11.994,8.891a11.06,11.06,0,0,0-3.612-7.03L17.047,5.35a9.06,9.06,0,0,1,2.959,5.759Zm-3.612-7.03A11.06,11.06,0,0,0,11,1.037v2A9.06,9.06,0,0,1,17.047,5.35ZM11,1.037A11.06,11.06,0,0,0,3.618,3.861L4.953,5.35A9.06,9.06,0,0,1,11,3.037ZM3.618,3.861a11.06,11.06,0,0,0-3.612,7.03l1.988.218A9.06,9.06,0,0,1,4.953,5.35ZM1,12H21V10H1Zm9-1v8h2V11Zm0,8a3,3,0,0,0,.879,2.121l1.414-1.414A1,1,0,0,1,12,19Zm.879,2.121A3,3,0,0,0,13,22V20a1,1,0,0,1-.707-.293ZM13,22a3,3,0,0,0,2.121-.879l-1.414-1.414A1,1,0,0,1,13,20Zm2.121-.879A3,3,0,0,0,16,19H14a1,1,0,0,1-.293.707ZM10,1V2h2V1Z" transform="translate(0)" fill="#09090b"/>
</svg>
