<svg id="undo-2" xmlns="http://www.w3.org/2000/svg" width="18" height="18" viewBox="0 0 18 18">
  <path id="Vector" d="M5.293,11.707a1,1,0,1,0,1.414-1.414ZM1,6,.293,5.293a1,1,0,0,0,0,1.414ZM6.707,1.707A1,1,0,0,0,5.293.293ZM17,11.5h0ZM8,16a1,1,0,0,0,0,2ZM6.707,10.293l-5-5L.293,6.707l5,5Zm-5-3.586,5-5L5.293.293l-5,5ZM1,7H11.5V5H1ZM11.5,7a4.5,4.5,0,0,1,1.722.343l.765-1.848A6.5,6.5,0,0,0,11.5,5Zm1.722.343a4.5,4.5,0,0,1,1.46.975L16.1,6.9a6.5,6.5,0,0,0-2.109-1.409Zm1.46.975a4.5,4.5,0,0,1,.976,1.46l1.848-.765A6.5,6.5,0,0,0,16.1,6.9Zm.976,1.46A4.5,4.5,0,0,1,16,11.5h2a6.5,6.5,0,0,0-.495-2.487ZM16,11.5a4.5,4.5,0,0,1-.342,1.722l1.848.765A6.5,6.5,0,0,0,18,11.5Zm-.342,1.722a4.5,4.5,0,0,1-.976,1.46L16.1,16.1a6.5,6.5,0,0,0,1.409-2.109Zm-.976,1.46a4.5,4.5,0,0,1-1.46.976l.765,1.848A6.5,6.5,0,0,0,16.1,16.1Zm-1.46.976A4.5,4.5,0,0,1,11.5,16v2a6.5,6.5,0,0,0,2.487-.495ZM11.5,16H8v2h3.5Z" transform="translate(0 0)" fill="#09090b"/>
</svg>
