<svg id="unfold-horizontal" xmlns="http://www.w3.org/2000/svg" width="22" height="22" viewBox="0 0 22 22">
  <path id="Vector" d="M15,10a1,1,0,0,0,0,2Zm6,1,.707.707a1,1,0,0,0,0-1.414ZM7,12a1,1,0,0,0,0-2ZM1,11l-.707-.707a1,1,0,0,0,0,1.414ZM12,1a1,1,0,0,0-2,0ZM10,3a1,1,0,0,0,2,0Zm2,4a1,1,0,0,0-2,0ZM10,9a1,1,0,0,0,2,0Zm2,4a1,1,0,0,0-2,0Zm-2,2a1,1,0,0,0,2,0Zm2,4a1,1,0,0,0-2,0Zm-2,2a1,1,0,0,0,2,0Zm7.293-7.707a1,1,0,0,0,1.414,1.414Zm1.414-6a1,1,0,0,0-1.414,1.414Zm-14,1.414A1,1,0,0,0,3.293,7.293Zm-1.414,6a1,1,0,0,0,1.414-1.414ZM15,12h6V10H15ZM7,10H1v2H7Zm3-9V3h2V1Zm0,6V9h2V7Zm0,6v2h2V13Zm0,6v2h2V19Zm8.707-4.293,3-3-1.414-1.414-3,3Zm3-4.414-3-3L17.293,8.707l3,3Zm-18.414-3-3,3,1.414,1.414,3-3Zm-3,4.414,3,3,1.414-1.414-3-3Z" fill="#09090b"/>
</svg>
