<svg id="unfold-vertical" xmlns="http://www.w3.org/2000/svg" width="22" height="22" viewBox="0 0 22 22">
  <path id="Vector" d="M11,21l-.707.707a1,1,0,0,0,1.414,0Zm1-6a1,1,0,0,0-2,0ZM10,7a1,1,0,0,0,2,0Zm1-6,.707-.707a1,1,0,0,0-1.414,0ZM3,12a1,1,0,0,0,0-2ZM1,10a1,1,0,0,0,0,2Zm8,2a1,1,0,0,0,0-2ZM7,10a1,1,0,0,0,0,2Zm8,2a1,1,0,0,0,0-2Zm-2-2a1,1,0,0,0,0,2Zm8,2a1,1,0,0,0,0-2Zm-2-2a1,1,0,0,0,0,2Zm-4.293,8.707a1,1,0,0,0-1.414-1.414Zm-6-1.414a1,1,0,0,0-1.414,1.414ZM13.293,4.707a1,1,0,0,0,1.414-1.414Zm-6-1.414A1,1,0,0,0,8.707,4.707ZM12,21V15H10v6ZM12,7V1H10V7ZM3,10H1v2H3Zm6,0H7v2H9Zm6,0H13v2h2Zm6,0H19v2h2Zm-7.707,7.293-3,3,1.414,1.414,3-3Zm-1.586,3-3-3L7.293,18.707l3,3Zm3-17-3-3L10.293,1.707l3,3Zm-4.414-3-3,3L8.707,4.707l3-3Z" fill="#09090b"/>
</svg>
