<svg id="unlink" xmlns="http://www.w3.org/2000/svg" width="22" height="22" viewBox="0 0 22 22">
  <path id="Vector" d="M17.135,10.541a1,1,0,1,0,1.41,1.418Zm2.425-1,.7.709a1,1,0,0,0-.7-1.709Zm-.02,0-.72-.694a1,1,0,0,0,.72,1.694Zm-.12-7.07.7-.718h0Zm-3.475-1.4v0ZM12.47,2.47l-.694-.72-.011.011Zm-2.425,1a1,1,0,1,0,1.41,1.418ZM4.877,11.457a1,1,0,0,0-1.414-1.414Zm-2.417,1-.707-.707-.012.013Zm.12,7.07-.7.718h0Zm6.95,0,.694.72.013-.013Zm2.417-1a1,1,0,1,0-1.414-1.414ZM8,1A1,1,0,0,0,6,1ZM6,4A1,1,0,0,0,8,4ZM1,6A1,1,0,0,0,1,8ZM4,8A1,1,0,0,0,4,6ZM16,18a1,1,0,0,0-2,0Zm-2,3a1,1,0,0,0,2,0Zm4-7a1,1,0,0,0,0,2Zm3,2a1,1,0,0,0,0-2Zm-2.455-4.041,1.72-1.71-1.41-1.418-1.72,1.71ZM19.56,8.54h-.02v2h.02Zm.7,1.694a6,6,0,0,0,1.683-4.271l-2,.034A4,4,0,0,1,18.82,8.846Zm1.683-4.271a6,6,0,0,0-1.827-4.212L18.724,3.188A4,4,0,0,1,19.943,6ZM20.114,1.75A6.006,6.006,0,0,0,15.945.067v2A4.006,4.006,0,0,1,18.726,3.19ZM15.945.067A6.006,6.006,0,0,0,11.776,1.75l1.388,1.44a4.006,4.006,0,0,1,2.781-1.122Zm-4.18,1.693-1.72,1.71,1.41,1.418,1.72-1.71Zm-8.3,8.282-1.71,1.71,1.414,1.414,1.71-1.71ZM1.74,11.766A6,6,0,0,0,.058,16.037l2-.034a4,4,0,0,1,1.122-2.849ZM.058,16.037a6,6,0,0,0,1.827,4.212l1.391-1.437A4,4,0,0,1,2.057,16ZM1.886,20.25a6.006,6.006,0,0,0,4.169,1.683v-2A4.006,4.006,0,0,1,3.274,18.81Zm4.169,1.683a6.006,6.006,0,0,0,4.169-1.683L8.836,18.81a4.006,4.006,0,0,1-2.781,1.122Zm4.182-1.7,1.71-1.71-1.414-1.414-1.71,1.71ZM6,1V4H8V1ZM1,8H4V6H1ZM14,18v3h2V18Zm4-2h3V14H18Z" fill="#09090b"/>
</svg>
