<svg id="unplug" xmlns="http://www.w3.org/2000/svg" width="22" height="22" viewBox="0 0 22 22">
  <path id="Vector" d="M17.293,3.293a1,1,0,0,0,1.414,1.414Zm4.414-1.586A1,1,0,0,0,20.293.293ZM.293,20.293a1,1,0,0,0,1.414,1.414Zm4.414-1.586a1,1,0,0,0-1.414-1.414ZM5.3,19.3l.708-.706h0Zm3.4,0-.707-.707h0ZM11,17l.707.707a1,1,0,0,0,0-1.414ZM5,11l.707-.707a1,1,0,0,0-1.414,0ZM2.7,13.3l.706.708h0ZM1.994,15h0ZM2.7,16.7l.707-.707h0Zm3.093-4.907a1,1,0,0,0,1.414,1.414Zm3.914-1.086A1,1,0,0,0,8.293,9.293Zm-.914,4.086a1,1,0,0,0,1.414,1.414Zm3.914-1.086a1,1,0,0,0-1.414-1.414ZM11,5l-.707-.707a1,1,0,0,0,0,1.414Zm6,6-.707.707a1,1,0,0,0,1.414,0Zm2.3-2.3-.706-.708h0Zm0-3.4-.707.707h0ZM16.7,2.7l-.708.706h0Zm-3.4,0,.707.707h0Zm5.407,2.007,3-3L20.293.293l-3,3Zm-17,17,3-3L3.293,17.293l-3,3Zm2.885-1.7a3.4,3.4,0,0,0,1.1.74L6.463,18.9a1.4,1.4,0,0,1-.455-.3Zm1.1.74a3.4,3.4,0,0,0,1.3.26v-2a1.4,1.4,0,0,1-.537-.107Zm1.3.26a3.4,3.4,0,0,0,1.3-.26L7.537,18.9A1.4,1.4,0,0,1,7,19.006Zm1.3-.26a3.4,3.4,0,0,0,1.1-.74L7.992,18.594a1.4,1.4,0,0,1-.455.3Zm1.1-.739,2.3-2.3-1.414-1.414-2.3,2.3Zm2.3-3.714-6-6L4.293,11.707l6,6Zm-7.414-6-2.3,2.3,1.414,1.414,2.3-2.3Zm-2.3,2.3a3.4,3.4,0,0,0-.74,1.1l1.847.767a1.4,1.4,0,0,1,.3-.455Zm-.74,1.1A3.4,3.4,0,0,0,.994,15h2a1.4,1.4,0,0,1,.107-.537ZM.994,15a3.4,3.4,0,0,0,.26,1.3L3.1,15.537A1.4,1.4,0,0,1,2.994,15Zm.26,1.3a3.4,3.4,0,0,0,.74,1.1l1.412-1.417a1.4,1.4,0,0,1-.3-.455Zm.739,1.1,2.6,2.6,1.414-1.414-2.6-2.6Zm5.214-4.2,2.5-2.5L8.293,9.293l-2.5,2.5Zm3,3,2.5-2.5-1.414-1.414-2.5,2.5Zm.086-10.5,6,6,1.414-1.414-6-6Zm7.414,6,2.3-2.3L18.593,7.993l-2.3,2.3Zm2.3-2.3a3.4,3.4,0,0,0,.74-1.1L18.9,7.537a1.4,1.4,0,0,1-.3.455Zm.74-1.1a3.4,3.4,0,0,0,.26-1.3h-2a1.4,1.4,0,0,1-.107.537Zm.26-1.3a3.4,3.4,0,0,0-.26-1.3L18.9,6.463A1.4,1.4,0,0,1,19.006,7Zm-.26-1.3a3.4,3.4,0,0,0-.74-1.1L18.594,6.008a1.4,1.4,0,0,1,.3.455Zm-.739-1.1-2.6-2.6L15.993,3.407l2.6,2.6Zm-2.6-2.6a3.4,3.4,0,0,0-1.1-.74L15.537,3.1a1.4,1.4,0,0,1,.455.3Zm-1.1-.74A3.4,3.4,0,0,0,15,.994v2a1.4,1.4,0,0,1,.537.107ZM15,.994a3.4,3.4,0,0,0-1.3.26L14.463,3.1A1.4,1.4,0,0,1,15,2.994Zm-1.3.26a3.4,3.4,0,0,0-1.1.74l1.417,1.412a1.4,1.4,0,0,1,.455-.3Zm-1.1.739-2.3,2.3,1.414,1.414,2.3-2.3Z" transform="translate(0 0)" fill="#09090b"/>
</svg>
