<svg id="upload" xmlns="http://www.w3.org/2000/svg" width="20" height="20" viewBox="0 0 20 20">
  <path id="Vector" d="M20,13a1,1,0,0,0-2,0ZM1,17H1Zm1-4a1,1,0,0,0-2,0ZM14.293,6.707a1,1,0,0,0,1.414-1.414ZM10,1l.707-.707a1,1,0,0,0-1.414,0ZM4.293,5.293A1,1,0,0,0,5.707,6.707ZM9,13a1,1,0,0,0,2,0Zm9,0v4h2V13Zm0,4a1,1,0,0,1-.293.707l1.414,1.414A3,3,0,0,0,20,17Zm-.293.707A1,1,0,0,1,17,18v2a3,3,0,0,0,2.121-.879ZM17,18H3v2H17ZM3,18a1,1,0,0,1-.707-.293L.879,19.121A3,3,0,0,0,3,20Zm-.707-.293A1,1,0,0,1,2,17H0a3,3,0,0,0,.879,2.121ZM2,17V13H0v4ZM15.707,5.293l-5-5L9.293,1.707l5,5Zm-6.414-5-5,5L5.707,6.707l5-5ZM9,1V13h2V1Z" fill="#09090b"/>
</svg>
