<svg id="usb" xmlns="http://www.w3.org/2000/svg" width="20" height="20" viewBox="0 0 20 20">
  <path id="Vector" d="M1.993,16.593a1,1,0,1,0,1.414,1.414ZM17.707,3.707a1,1,0,0,0-1.414-1.414ZM19,1l.949.316A1,1,0,0,0,18.684.051ZM16,2l-.316-.949a1,1,0,0,0-.391,1.656Zm2,2-.707.707a1,1,0,0,0,1.656-.391ZM7.972,6.382a1,1,0,1,0-1.424-1.4ZM3,10l-.712-.7a1,1,0,0,0-.216,1.074Zm1.072,5.371a1,1,0,1,0,1.857-.743Zm4.3-4.3a1,1,0,0,0-.743,1.857ZM13,14l-.371.929a1,1,0,0,0,1.078-.221Zm4.207-2.793a1,1,0,0,0-1.414-1.414ZM16,10l-.707-.707a1,1,0,0,0,0,1.414Zm1-1,.707-.707a1,1,0,0,0-1.414,0Zm1,1,.707.707a1,1,0,0,0,0-1.414Zm-1,1-.707.707a1,1,0,0,0,1.414,0ZM8,5V7a2,2,0,0,0,2-2ZM8,5H6A2,2,0,0,0,8,7ZM8,5V3A2,2,0,0,0,6,5ZM8,5h2A2,2,0,0,0,8,3ZM2,18v2a2,2,0,0,0,2-2Zm0,0H0a2,2,0,0,0,2,2Zm0,0V16a2,2,0,0,0-2,2Zm0,0H4a2,2,0,0,0-2-2Zm1.407.007,14.3-14.3L16.293,2.293l-14.3,14.3ZM18.684.051l-3,1,.632,1.9,3-1ZM15.293,2.707l2,2,1.414-1.414-2-2Zm3.656,1.609,1-3-1.9-.632-1,3Zm-12.4.662L2.288,9.3l1.424,1.4,4.26-4.32ZM2.072,10.371l2,5,1.857-.743-2-5Zm5.557,2.557,5,2,.743-1.857-5-2Zm6.078,1.779,3.5-3.5L15.793,9.793l-3.5,3.5Zm3-4,1-1L16.293,8.293l-1,1Zm-.414-1,1,1,1.414-1.414-1-1Zm1-.414-1,1,1.414,1.414,1-1Zm.414,1-1-1-1.414,1.414,1,1Z" transform="translate(0 0)" fill="#09090b"/>
</svg>
