<svg id="user-search" xmlns="http://www.w3.org/2000/svg" width="20" height="20" viewBox="0 0 20 20">
  <path id="Vector" d="M8.3,14a1,1,0,0,0,0-2ZM5,13v0ZM1,17H1ZM0,19a1,1,0,0,0,2,0Zm18.293.707a1,1,0,0,0,1.414-1.414Zm-.486-3.314a1,1,0,0,0-1.414,1.414ZM11,5A3,3,0,0,1,8,8v2a5,5,0,0,0,5-5ZM8,8A3,3,0,0,1,5,5H3a5,5,0,0,0,5,5ZM5,5A3,3,0,0,1,8,2V0A5,5,0,0,0,3,5ZM8,2a3,3,0,0,1,3,3h2A5,5,0,0,0,8,0Zm.3,10H5v2H8.3ZM5,12a5,5,0,0,0-3.536,1.465l1.414,1.414A3,3,0,0,1,5,14ZM1.464,13.465A5,5,0,0,0,0,17H2a3,3,0,0,1,.879-2.121ZM0,17v2H2V17Zm17-2a2,2,0,0,1-2,2v2a4,4,0,0,0,4-4Zm-2,2a2,2,0,0,1-2-2H11a4,4,0,0,0,4,4Zm-2-2a2,2,0,0,1,2-2V11a4,4,0,0,0-4,4Zm2-2a2,2,0,0,1,2,2h2a4,4,0,0,0-4-4Zm4.707,5.293-1.9-1.9-1.414,1.414,1.9,1.9Z" fill="#09090b"/>
</svg>
