<svg id="user-round-search" xmlns="http://www.w3.org/2000/svg" width="22" height="21" viewBox="0 0 22 21">
  <path id="Vector" d="M0,19a1,1,0,0,0,2,0Zm11.13-6.667a1,1,0,1,0,.608-1.905Zm9.163,8.375a1,1,0,0,0,1.414-1.414Zm-.486-3.314a1,1,0,0,0-1.414,1.414ZM13,6a4,4,0,0,1-4,4v2a6,6,0,0,0,6-6ZM9,10A4,4,0,0,1,5,6H3a6,6,0,0,0,6,6ZM5,6A4,4,0,0,1,9,2V0A6,6,0,0,0,3,6ZM9,2a4,4,0,0,1,4,4h2A6,6,0,0,0,9,0ZM2,19a7,7,0,0,1,.759-3.17L.976,14.924A9,9,0,0,0,0,19Zm.759-3.17a7,7,0,0,1,2.112-2.483l-1.18-1.615A9,9,0,0,0,.976,14.924Zm2.112-2.483a7,7,0,0,1,3.008-1.257l-.32-1.974a9,9,0,0,0-3.867,1.616Zm3.008-1.257a7,7,0,0,1,3.251.241l.608-1.905a9,9,0,0,0-4.179-.311ZM19,16a2,2,0,0,1-2,2v2a4,4,0,0,0,4-4Zm-2,2a2,2,0,0,1-2-2H13a4,4,0,0,0,4,4Zm-2-2a2,2,0,0,1,2-2V12a4,4,0,0,0-4,4Zm2-2a2,2,0,0,1,2,2h2a4,4,0,0,0-4-4Zm4.707,5.293-1.9-1.9-1.414,1.414,1.9,1.9Z" transform="translate(0)" fill="#09090b"/>
</svg>
