<svg id="user-cog" xmlns="http://www.w3.org/2000/svg" width="21.7" height="20" viewBox="0 0 21.7 20">
  <path id="Vector" d="M9,14a1,1,0,0,0,0-2ZM5,13v0ZM1,17H1ZM0,19a1,1,0,0,0,2,0Zm20.384-3.651a1,1,0,0,0,.632-1.9Zm-.267-2.2a1,1,0,0,0-.632,1.9Zm-6.233-.3a1,1,0,0,0,.633-1.9Zm-.267-2.2a1,1,0,0,0-.633,1.9Zm1.035,5.732a1,1,0,0,0,1.9.632Zm2.2-.267a1,1,0,0,0-1.9-.633Zm.3-6.232a1,1,0,0,0,1.9.632Zm2.2-.268a1,1,0,0,0-1.9-.632Zm-1.677,7.455a1,1,0,0,0,1.857-.743Zm1.457-1.743a1,1,0,1,0-1.857.743Zm-4.257-4.657a1,1,0,0,0,1.857-.743Zm1.457-1.743a1,1,0,0,0-1.857.743Zm-3.4,4.743a1,1,0,0,0,.743,1.857Zm1.743,1.457a1,1,0,1,0-.743-1.857Zm4.657-4.257a1,1,0,0,0,.743,1.857Zm1.743,1.457a1,1,0,0,0-.743-1.857ZM19,13a2,2,0,0,1-2,2v2a4,4,0,0,0,4-4Zm-2,2a2,2,0,0,1-2-2H13a4,4,0,0,0,4,4Zm-2-2a2,2,0,0,1,2-2V9a4,4,0,0,0-4,4Zm2-2a2,2,0,0,1,2,2h2a4,4,0,0,0-4-4ZM11,5A3,3,0,0,1,8,8v2a5,5,0,0,0,5-5ZM8,8A3,3,0,0,1,5,5H3a5,5,0,0,0,5,5ZM5,5A3,3,0,0,1,8,2V0A5,5,0,0,0,3,5ZM8,2a3,3,0,0,1,3,3h2A5,5,0,0,0,8,0ZM9,12H5v2H9ZM5,12a5,5,0,0,0-3.536,1.465l1.414,1.414A3,3,0,0,1,5,14ZM1.464,13.465A5,5,0,0,0,0,17H2a3,3,0,0,1,.879-2.121ZM0,17v2H2V17Zm21.016-3.549-.9-.3-.632,1.9.9.3Zm-6.5-2.5-.9-.3-.632,1.9.9.3Zm2.032,6.065.3-.9-1.9-.632-.3.9Zm2.5-6.5.3-.9-1.9-.632-.3.9Zm.48,5.812-.4-1-1.857.743.4,1Zm-2.8-6.4-.4-1-1.857.743.4,1Zm-3.057,5.6,1-.4-.743-1.857-1,.4Zm6.4-2.8,1-.4-.743-1.857-1,.4Z" fill="#09090b"/>
</svg>
