<svg id="user-round-cog" xmlns="http://www.w3.org/2000/svg" width="21.7" height="20.7" viewBox="0 0 21.7 20.7">
  <path id="Vector" d="M0,19a1,1,0,0,0,2,0Zm11.13-6.667a1,1,0,1,0,.608-1.905Zm8.284.374a1,1,0,1,0-1.828-.812Zm-2.228.088a1,1,0,1,0,1.828.812Zm-.372,6.412a1,1,0,1,0-1.828-.812Zm-2.228.088a1,1,0,1,0,1.828.812Zm5.708-.88a1,1,0,1,0,.812-1.828Zm-.088-2.228a1,1,0,1,0-.812,1.828Zm-6.412-.373a1,1,0,1,0,.812-1.828Zm-.088-2.228a1,1,0,1,0-.812,1.828Zm7.4,1.828a1,1,0,1,0-.812-1.828Zm-1.712-1.428a1,1,0,1,0,.812,1.828Zm-4.788,4.028a1,1,0,1,0-.812-1.828Zm-1.712-1.428a1,1,0,1,0,.812,1.828Zm4.692,3.52a1,1,0,1,0,1.828-.812Zm1.428-1.712a1,1,0,1,0-1.828.812Zm-4.028-4.788a1,1,0,1,0,1.828-.812Zm1.428-1.712a1,1,0,1,0-1.828.812ZM2,19a7,7,0,0,1,.759-3.17L.976,14.924A9,9,0,0,0,0,19Zm.759-3.17a7,7,0,0,1,2.112-2.483l-1.18-1.615A9,9,0,0,0,.976,14.924Zm2.112-2.483a7,7,0,0,1,3.008-1.257l-.32-1.974a9,9,0,0,0-3.867,1.616Zm3.008-1.257a7,7,0,0,1,3.251.241l.608-1.905a9,9,0,0,0-4.179-.311ZM13,6a4,4,0,0,1-4,4v2a6,6,0,0,0,6-6ZM9,10A4,4,0,0,1,5,6H3a6,6,0,0,0,6,6ZM5,6A4,4,0,0,1,9,2V0A6,6,0,0,0,3,6ZM9,2a4,4,0,0,1,4,4h2A6,6,0,0,0,9,0ZM19,16a2,2,0,0,1-2,2v2a4,4,0,0,0,4-4Zm-2,2a2,2,0,0,1-2-2H13a4,4,0,0,0,4,4Zm-2-2a2,2,0,0,1,2-2V12a4,4,0,0,0-4,4Zm2-2a2,2,0,0,1,2,2h2a4,4,0,0,0-4-4Zm.586-2.106-.4.9,1.828.812.4-.9Zm-2.6,6.5-.4.9,1.828.812.4-.9Zm6.12-1.808-.9-.4-.812,1.828.9.4Zm-6.5-2.6-.9-.4-.812,1.828.9.4Zm5.688-.4-.9.4.812,1.828.9-.4Zm-6.5,2.6-.9.4.812,1.828.9-.4Zm5.62,3.108-.4-.9-1.828.812.4.9Zm-2.6-6.5-.4-.9-1.828.812.4.9Z" transform="translate(0)" fill="#09090b"/>
</svg>
