<svg id="user-round-x" xmlns="http://www.w3.org/2000/svg" width="22" height="21" viewBox="0 0 22 21">
  <path id="Vector" d="M0,19a1,1,0,0,0,2,0Zm12.389-6.125a1,1,0,1,0,.968-1.75Zm4.318,1.418a1,1,0,1,0-1.414,1.414Zm3.586,6.414a1,1,0,0,0,1.414-1.414Zm1.414-5a1,1,0,0,0-1.414-1.414Zm-6.414,3.586a1,1,0,1,0,1.414,1.414ZM2,19a7,7,0,0,1,.922-3.472l-1.737-.992A9,9,0,0,0,0,19Zm.922-3.472A7,7,0,0,1,5.445,12.97L4.429,11.247a9,9,0,0,0-3.244,3.288ZM5.445,12.97A7,7,0,0,1,8.9,12l-.027-2a9,9,0,0,0-4.448,1.246ZM8.9,12a7,7,0,0,1,3.485.874l.968-1.75A9,9,0,0,0,8.877,10ZM13,6a4,4,0,0,1-4,4v2a6,6,0,0,0,6-6ZM9,10A4,4,0,0,1,5,6H3a6,6,0,0,0,6,6ZM5,6A4,4,0,0,1,9,2V0A6,6,0,0,0,3,6ZM9,2a4,4,0,0,1,4,4h2A6,6,0,0,0,9,0Zm6.293,13.707,5,5,1.414-1.414-5-5Zm5-1.414-5,5,1.414,1.414,5-5Z" fill="#09090b"/>
</svg>
