<svg id="users-round" xmlns="http://www.w3.org/2000/svg" width="22" height="20" viewBox="0 0 22 20">
  <path id="Vector" d="M16,19a1,1,0,0,0,2,0ZM9,11v0ZM0,19a1,1,0,0,0,2,0Zm20-1a1,1,0,0,0,2,0Zm-3-8-.6-.8a1,1,0,0,0,0,1.6ZM17.06.84a1,1,0,0,0-1.02,1.72ZM18,19a9,9,0,0,0-2.636-6.364L13.95,14.05A7,7,0,0,1,16,19Zm-2.636-6.364A9,9,0,0,0,9,10v2a7,7,0,0,1,4.95,2.05ZM9,10a9,9,0,0,0-6.364,2.636L4.05,14.05A7,7,0,0,1,9,12ZM2.636,12.636A9,9,0,0,0,0,19H2a7,7,0,0,1,2.05-4.95ZM13,6a4,4,0,0,1-4,4v2a6,6,0,0,0,6-6ZM9,10A4,4,0,0,1,5,6H3a6,6,0,0,0,6,6ZM5,6A4,4,0,0,1,9,2V0A6,6,0,0,0,3,6ZM9,2a4,4,0,0,1,4,4h2A6,6,0,0,0,9,0ZM22,18a11.607,11.607,0,0,0-4.4-8.8l-1.2,1.6A9.616,9.616,0,0,1,20,18Zm-4.4-7.2a6,6,0,0,0,1.837-2.263l-1.812-.846A4,4,0,0,1,16.4,9.2Zm1.837-2.263a6,6,0,0,0,.554-2.861l-2,.108a4,4,0,0,1-.369,1.908Zm.554-2.861a6,6,0,0,0-.86-2.785L17.42,3.927a4,4,0,0,1,.573,1.856Zm-.86-2.785A6,6,0,0,0,17.06.84L16.04,2.56a4,4,0,0,1,1.38,1.367Z" fill="#09090b"/>
</svg>
