<svg id="utensils-crossed" xmlns="http://www.w3.org/2000/svg" width="21.961" height="22" viewBox="0 0 21.961 22">
  <path id="Vector" d="M15.668,1.707A1,1,0,1,0,14.254.293ZM12.661,3.3l-.707-.707-.007.007Zm0,4.2-.714.7.007.007Zm1.8,1.8-.707.707.007.007Zm2.1.858v0Zm2.1-.858.7.714.007-.007Zm3.007-1.593a1,1,0,0,0-1.414-1.414ZM13.961,14l.707-.707ZM2.261,2.3l.707-.707a1,1,0,0,0-1.407-.007ZM1,5.3H1Zm1.261,3,.707-.707L2.96,7.586Zm7.3,7.3.707-.707Zm2.8,0,.658.753.049-.045Zm7.893,6.107a1,1,0,1,0,1.414-1.414ZM.359,20.087a1,1,0,0,0,1.4,1.425Zm7.8-4.875a1,1,0,0,0-1.4-1.425ZM18.668,4.707a1,1,0,1,0-1.414-1.414Zm-8.414,5.586a1,1,0,0,0,1.414,1.414Zm4-10-2.3,2.3,1.414,1.414,2.3-2.3ZM11.947,2.6A4,4,0,0,0,10.8,5.4h2A2,2,0,0,1,13.375,4ZM10.8,5.4a4,4,0,0,0,1.143,2.8l1.428-1.4A2,2,0,0,1,12.8,5.4Zm1.15,2.807,1.8,1.8,1.414-1.414-1.8-1.8Zm1.807,1.807a4,4,0,0,0,2.8,1.143v-2a2,2,0,0,1-1.4-.572Zm2.8,1.143a4,4,0,0,0,2.8-1.143l-1.4-1.428a2,2,0,0,1-1.4.572Zm2.807-1.15,2.3-2.3L20.254,6.293l-2.3,2.3Zm-4.7,3.286-11.7-11.7L1.554,3.007l11.7,11.7ZM1.561,1.586a5.2,5.2,0,0,0-1.155,1.7L2.25,4.06A3.2,3.2,0,0,1,2.96,3.014ZM.406,3.286A5.2,5.2,0,0,0,0,5.3H2a3.2,3.2,0,0,1,.25-1.24ZM0,5.3A5.2,5.2,0,0,0,.406,7.314L2.25,6.54A3.2,3.2,0,0,1,2,5.3ZM.406,7.314a5.2,5.2,0,0,0,1.155,1.7l1.4-1.429A3.2,3.2,0,0,1,2.25,6.54ZM1.554,9.007l7.3,7.3,1.414-1.414-7.3-7.3Zm7.3,7.3a3.125,3.125,0,0,0,4.166.045L11.7,14.847a1.137,1.137,0,0,1-1.434.045Zm4.214,0,1.6-1.6-1.414-1.414-1.6,1.6Zm.186-1.6,7,7,1.414-1.414-7-7ZM1.762,21.513l6.4-6.3-1.4-1.425-6.4,6.3ZM17.254,3.293l-7,7,1.414,1.414,7-7Z" transform="translate(0 0)" fill="#09090b"/>
</svg>
