<svg id="utility-pole" xmlns="http://www.w3.org/2000/svg" width="22" height="22" viewBox="0 0 22 22">
  <path id="Vector" d="M12,1a1,1,0,0,0-2,0ZM10,21a1,1,0,0,0,2,0ZM1,3A1,1,0,0,0,1,5ZM21,5a1,1,0,0,0,0-2ZM3,2A1,1,0,0,0,1,2ZM1,4A1,1,0,0,0,3,4ZM7,2A1,1,0,0,0,5,2ZM5,4A1,1,0,0,0,7,4ZM17,2a1,1,0,0,0-2,0ZM15,4a1,1,0,0,0,2,0Zm6-2a1,1,0,0,0-2,0ZM19,4a1,1,0,0,0,2,0Zm-.293.707a1,1,0,1,0-1.414-1.414ZM11,11l-.707.707a1,1,0,0,0,1.414,0ZM4.707,3.293A1,1,0,0,0,3.293,4.707ZM10,1V21h2V1ZM1,5H21V3H1ZM1,2V4H3V2ZM5,2V4H7V2ZM15,2V4h2V2Zm4,0V4h2V2ZM17.293,3.293l-7,7,1.414,1.414,7-7Zm-5.586,7-7-7L3.293,4.707l7,7Z" fill="#09090b"/>
</svg>
