<svg xmlns="http://www.w3.org/2000/svg" width="20" height="20" viewBox="0 0 20 20">
  <g id="vault" transform="translate(1 1)">
    <g id="Vector">
      <path id="Vector_path_1_" data-name="Vector (path 1)" d="M16,0H2A2,2,0,0,0,0,2V16a2,2,0,0,0,2,2H16a2,2,0,0,0,2-2V2A2,2,0,0,0,16,0Z" fill="rgba(0,0,0,0)"/>
      <path id="Vector_path_2_" data-name="Vector (path 2)" d="M.5,1A.5.5,0,1,0,0,.5.5.5,0,0,0,.5,1Z" transform="translate(4 4)"/>
      <path id="Vector_path_3_" data-name="Vector (path 3)" d="M0,0,2.7,2.7Z" transform="translate(4.9 4.9)" fill="rgba(0,0,0,0)"/>
      <path id="Vector_path_4_" data-name="Vector (path 4)" d="M.5,1A.5.5,0,1,0,0,.5.5.5,0,0,0,.5,1Z" transform="translate(13 4)"/>
      <path id="Vector_path_5_" data-name="Vector (path 5)" d="M0,2.7,2.7,0Z" transform="translate(10.4 4.9)" fill="rgba(0,0,0,0)"/>
      <path id="Vector_path_6_" data-name="Vector (path 6)" d="M.5,1A.5.5,0,1,0,0,.5.5.5,0,0,0,.5,1Z" transform="translate(4 13)"/>
      <path id="Vector_path_7_" data-name="Vector (path 7)" d="M0,2.7,2.7,0Z" transform="translate(4.9 10.4)" fill="rgba(0,0,0,0)"/>
      <path id="Vector_path_8_" data-name="Vector (path 8)" d="M.5,1A.5.5,0,1,0,0,.5.5.5,0,0,0,.5,1Z" transform="translate(13 13)"/>
      <path id="Vector_path_9_" data-name="Vector (path 9)" d="M0,0,2.7,2.7Z" transform="translate(10.4 10.4)" fill="rgba(0,0,0,0)"/>
      <path id="Vector_path_10_" data-name="Vector (path 10)" d="M2,4A2,2,0,1,0,0,2,2,2,0,0,0,2,4Z" transform="translate(7 7)" fill="rgba(0,0,0,0)"/>
      <g id="Vector_stroke_" data-name="Vector (stroke)">
        <path id="C2E8CDD0-72D9-4BAA-87C7-7FDA81391CBB" d="M16,0H2A2,2,0,0,0,0,2V16a2,2,0,0,0,2,2H16a2,2,0,0,0,2-2V2A2,2,0,0,0,16,0Z" fill="rgba(0,0,0,0)" stroke="#09090b" stroke-linecap="round" stroke-linejoin="round" stroke-miterlimit="10" stroke-width="2"/>
        <path id="_87337FE2-59DD-47C7-98FA-675A9DE816F4" data-name="87337FE2-59DD-47C7-98FA-675A9DE816F4" d="M.5,1A.5.5,0,1,0,0,.5.5.5,0,0,0,.5,1Z" transform="translate(4 4)" fill="rgba(0,0,0,0)" stroke="#09090b" stroke-linecap="round" stroke-linejoin="round" stroke-miterlimit="10" stroke-width="2"/>
        <path id="CB8670EB-0DDC-4BCF-95DE-E0AF5842B4CF" d="M0,0,2.7,2.7Z" transform="translate(4.9 4.9)" fill="rgba(0,0,0,0)" stroke="#09090b" stroke-linecap="round" stroke-linejoin="round" stroke-miterlimit="10" stroke-width="2"/>
        <path id="_36ED5BFB-6D13-44C2-8E61-436172E370CE" data-name="36ED5BFB-6D13-44C2-8E61-436172E370CE" d="M.5,1A.5.5,0,1,0,0,.5.5.5,0,0,0,.5,1Z" transform="translate(13 4)" fill="rgba(0,0,0,0)" stroke="#09090b" stroke-linecap="round" stroke-linejoin="round" stroke-miterlimit="10" stroke-width="2"/>
        <path id="_45D9CF7B-1669-494F-B93C-572651216599" data-name="45D9CF7B-1669-494F-B93C-572651216599" d="M0,2.7,2.7,0Z" transform="translate(10.4 4.9)" fill="rgba(0,0,0,0)" stroke="#09090b" stroke-linecap="round" stroke-linejoin="round" stroke-miterlimit="10" stroke-width="2"/>
        <path id="B4BD3277-B24D-4EC7-854A-5950392EA765" d="M.5,1A.5.5,0,1,0,0,.5.5.5,0,0,0,.5,1Z" transform="translate(4 13)" fill="rgba(0,0,0,0)" stroke="#09090b" stroke-linecap="round" stroke-linejoin="round" stroke-miterlimit="10" stroke-width="2"/>
        <path id="_636941CC-FF4A-41C4-9713-FD57B27ADF4B" data-name="636941CC-FF4A-41C4-9713-FD57B27ADF4B" d="M0,2.7,2.7,0Z" transform="translate(4.9 10.4)" fill="rgba(0,0,0,0)" stroke="#09090b" stroke-linecap="round" stroke-linejoin="round" stroke-miterlimit="10" stroke-width="2"/>
        <path id="AA119E7D-E97F-450E-858C-C8822116A0D0" d="M.5,1A.5.5,0,1,0,0,.5.5.5,0,0,0,.5,1Z" transform="translate(13 13)" fill="rgba(0,0,0,0)" stroke="#09090b" stroke-linecap="round" stroke-linejoin="round" stroke-miterlimit="10" stroke-width="2"/>
        <path id="F444E555-FBA2-4E5F-96F5-289E73FB2966" d="M0,0,2.7,2.7Z" transform="translate(10.4 10.4)" fill="rgba(0,0,0,0)" stroke="#09090b" stroke-linecap="round" stroke-linejoin="round" stroke-miterlimit="10" stroke-width="2"/>
        <path id="A198B30C-D78E-4BF2-A0B8-84BED4BE7EDB" d="M2,4A2,2,0,1,0,0,2,2,2,0,0,0,2,4Z" transform="translate(7 7)" fill="rgba(0,0,0,0)" stroke="#09090b" stroke-linecap="round" stroke-linejoin="round" stroke-miterlimit="10" stroke-width="2"/>
      </g>
    </g>
  </g>
</svg>
