<svg id="vegan" xmlns="http://www.w3.org/2000/svg" width="22" height="22.01" viewBox="0 0 22 22.01">
  <path id="Vector" d="M1.624.218A1,1,0,0,0,.376,1.782ZM11,21l-1,.03a1,1,0,0,0,1.991.1ZM21,1h1a1,1,0,0,0-1-1ZM15.869,3.441a1,1,0,1,0,1.082-1.682Zm4.382,1.618a1,1,0,0,0-1.682,1.082ZM.376,1.782a25.6,25.6,0,0,1,6.933,8.564L9.1,9.451A27.6,27.6,0,0,0,1.624.218Zm6.933,8.564A25.6,25.6,0,0,1,10,21.03l2-.06A27.6,27.6,0,0,0,9.1,9.451Zm4.682,10.785c.894-6.772,1.472-9.307,3.883-13.645l-1.748-.971c-2.59,4.661-3.211,7.486-4.117,14.355ZM15,8a7.092,7.092,0,0,0,5.207-1.793A7.092,7.092,0,0,0,22,1H20a5.14,5.14,0,0,1-1.207,3.793A5.139,5.139,0,0,1,15,6Zm6-8a7.092,7.092,0,0,0-5.207,1.793A7.092,7.092,0,0,0,14,7h2a5.14,5.14,0,0,1,1.207-3.793A5.139,5.139,0,0,1,21,2ZM16.951,1.759A11,11,0,0,0,9.244.151l.319,1.974a9,9,0,0,1,6.306,1.315ZM9.244.151A11,11,0,0,0,2.437,4.106L3.994,5.361a9,9,0,0,1,5.57-3.236ZM2.437,4.106A11,11,0,0,0,.016,11.6l2-.107a9,9,0,0,1,1.981-6.13ZM.016,11.6a11,11,0,0,0,3.206,7.191l1.414-1.414a9,9,0,0,1-2.623-5.883Zm3.206,7.191a11,11,0,0,0,7.191,3.206l.107-2a9,9,0,0,1-5.883-2.623Zm7.191,3.206A11,11,0,0,0,17.9,19.574l-1.255-1.557A9,9,0,0,1,10.519,20ZM17.9,19.574a11,11,0,0,0,3.955-6.808l-1.974-.319a9,9,0,0,1-3.236,5.57Zm3.955-6.808a11,11,0,0,0-1.608-7.707L18.569,6.141a9,9,0,0,1,1.316,6.306Z" transform="translate(0 0)" fill="#09090b"/>
</svg>
