<svg id="venetian-mask" xmlns="http://www.w3.org/2000/svg" width="22" height="14" viewBox="0 0 22 14">
  <path id="Vector" d="M1,6H1Zm5,5,.037-1H6Zm5,2-.662.749a1,1,0,0,0,1.324,0Zm5-2V10h-.037ZM21,1h1a1,1,0,0,0-1-1ZM16,1V0h-.037ZM11,3l-.662.749a1,1,0,0,0,1.324,0ZM6,1l.037-1H6ZM1,1V0A1,1,0,0,0,0,1ZM5,5V4A1,1,0,0,0,4,5ZM8,7V8A1,1,0,0,0,9,7Zm9-2h1a1,1,0,0,0-1-1ZM14,7H13a1,1,0,0,0,1,1ZM0,6a6,6,0,0,0,1.757,4.243L3.172,8.828A4,4,0,0,1,2,6Zm1.757,4.243A6,6,0,0,0,6,12V10A4,4,0,0,1,3.172,8.828ZM5.963,12a7,7,0,0,1,4.375,1.75l1.324-1.5A9,9,0,0,0,6.037,10Zm5.7,1.75A7,7,0,0,1,16.037,12l-.074-2a9,9,0,0,0-5.625,2.25ZM16,12a6,6,0,0,0,4.243-1.757L18.828,8.828A4,4,0,0,1,16,10Zm4.243-1.757A6,6,0,0,0,22,6H20a4,4,0,0,1-1.172,2.828ZM22,6V1H20V6ZM21,0H16V2h5ZM15.963,0a9,9,0,0,0-5.625,2.25l1.324,1.5A7,7,0,0,1,16.037,2Zm-4.3,2.25A9,9,0,0,0,6.037,0L5.963,2a7,7,0,0,1,4.375,1.75ZM6,0H1V2H6ZM0,1V6H2V1ZM5,6a3.4,3.4,0,0,1,1.577.312A.7.7,0,0,1,7,7H9A2.693,2.693,0,0,0,7.548,4.563,5.336,5.336,0,0,0,5,4ZM8,6c-.513,0-.9,0-1.229-.028A1.673,1.673,0,0,1,6.2,5.856a.17.17,0,0,1-.1-.105A1.953,1.953,0,0,1,6,5H4a3.842,3.842,0,0,0,.274,1.562A2.16,2.16,0,0,0,5.3,7.644a3.558,3.558,0,0,0,1.3.321C7.03,8,7.513,8,8,8Zm9-2a5.335,5.335,0,0,0-2.548.563A2.693,2.693,0,0,0,13,7h2a.7.7,0,0,1,.423-.688A3.4,3.4,0,0,1,17,6ZM14,8c.487,0,.97,0,1.4-.035a3.558,3.558,0,0,0,1.3-.321,2.16,2.16,0,0,0,1.029-1.082A3.841,3.841,0,0,0,18,5H16a1.954,1.954,0,0,1-.1.75.17.17,0,0,1-.1.105,1.674,1.674,0,0,1-.573.117C14.9,6,14.513,6,14,6Z" transform="translate(0 0)" fill="#09090b"/>
</svg>
