<svg id="vibrate-off" xmlns="http://www.w3.org/2000/svg" width="22" height="22" viewBox="0 0 22 22">
  <path id="Vector" d="M1.707,6.293A1,1,0,1,0,.293,7.707ZM3,9l.707.707a1,1,0,0,0,0-1.414ZM1,11l-.707-.707a1,1,0,0,0,0,1.414Zm2,2,.707.707a1,1,0,0,0,0-1.414ZM.293,14.293a1,1,0,0,0,1.414,1.414ZM21.707,7.707a1,1,0,0,0-1.414-1.414ZM19,9l-.707-.707a1,1,0,0,0,0,1.414Zm2,2,.707.707a1,1,0,0,0,0-1.414Zm-2,2-.707-.707a1,1,0,0,0,0,1.414Zm1.293,2.707a1,1,0,1,0,1.414-1.414ZM8,7A1,1,0,0,0,6,7Zm8,8a1,1,0,0,0-2,0ZM14,9.34a1,1,0,1,0,2,0ZM9.66,3a1,1,0,0,0,0,2ZM1.707.293A1,1,0,0,0,.293,1.707ZM20.293,21.707a1,1,0,0,0,1.414-1.414Zm-20-14,2,2L3.707,8.293l-2-2Zm2,.586-2,2,1.414,1.414,2-2Zm-2,3.414,2,2,1.414-1.414-2-2Zm2,.586-2,2,1.414,1.414,2-2Zm18-6-2,2,1.414,1.414,2-2Zm-2,3.414,2,2,1.414-1.414-2-2Zm2,.586-2,2,1.414,1.414,2-2Zm-2,3.414,2,2,1.414-1.414-2-2ZM6,7V17H8V7ZM6,17a2,2,0,0,0,2,2V17Zm2,2h6V17H8Zm6,0a2,2,0,0,0,2-2H14Zm2-2V15H14v2Zm0-7.66V5H14V9.34ZM16,5a2,2,0,0,0-2-2V5ZM14,3H9.66V5H14ZM.293,1.707l20,20,1.414-1.414-20-20Z" fill="#09090b"/>
</svg>
