<svg id="vibrate" xmlns="http://www.w3.org/2000/svg" width="22" height="16" viewBox="0 0 22 16">
  <path id="Vector" d="M1.707,3.293A1,1,0,1,0,.293,4.707ZM3,6l.707.707a1,1,0,0,0,0-1.414ZM1,8,.293,7.293a1,1,0,0,0,0,1.414Zm2,2,.707.707a1,1,0,0,0,0-1.414ZM.293,11.293a1,1,0,0,0,1.414,1.414ZM21.707,4.707a1,1,0,1,0-1.414-1.414ZM19,6l-.707-.707a1,1,0,0,0,0,1.414Zm2,2,.707.707a1,1,0,0,0,0-1.414Zm-2,2-.707-.707a1,1,0,0,0,0,1.414Zm1.293,2.707a1,1,0,1,0,1.414-1.414Zm-20-8,2,2L3.707,5.293l-2-2Zm2,.586-2,2L1.707,8.707l2-2Zm-2,3.414,2,2L3.707,9.293l-2-2Zm2,.586-2,2,1.414,1.414,2-2Zm18-6-2,2,1.414,1.414,2-2Zm-2,3.414,2,2,1.414-1.414-2-2Zm2,.586-2,2,1.414,1.414,2-2Zm-2,3.414,2,2,1.414-1.414-2-2ZM8,2h6V0H8Zm6,0h2a2,2,0,0,0-2-2Zm0,0V14h2V2Zm0,12v2a2,2,0,0,0,2-2Zm0,0H8v2h6ZM8,14H6a2,2,0,0,0,2,2Zm0,0V2H6V14ZM8,2V0A2,2,0,0,0,6,2Z" fill="#09090b"/>
</svg>
