<svg id="video-off" xmlns="http://www.w3.org/2000/svg" width="22" height="22" viewBox="0 0 22 22">
  <path id="Vector" d="M9.66,4a1,1,0,0,0,0,2ZM13,5V5Zm2,4.5H14a1,1,0,0,0,1.5.864Zm5.248-3.062.5.864h0ZM21,6.87h0Zm-1,8.2a1,1,0,0,0,2,0ZM16,15a1,1,0,0,0-2,0ZM1,15H1ZM3,5V5ZM5,6A1,1,0,0,0,5,4ZM1.707.293A1,1,0,0,0,.293,1.707ZM20.293,21.707a1,1,0,0,0,1.414-1.414ZM9.66,6H13V4H9.66ZM13,6a1,1,0,0,1,.707.293l1.414-1.414A3,3,0,0,0,13,4Zm.707.293A1,1,0,0,1,14,7h2a3,3,0,0,0-.879-2.121ZM14,7V9.5h2V7Zm1.5,3.364L20.752,7.3,19.744,5.574,14.5,8.636ZM20.752,7.3a.5.5,0,0,1-.25.068l-.007-2a1.5,1.5,0,0,0-.751.2Zm-.25.068a.5.5,0,0,1-.251-.066l1-1.734a1.5,1.5,0,0,0-.752-.2ZM20.251,7.3a.5.5,0,0,1-.184-.183l1.731-1a1.5,1.5,0,0,0-.551-.549Zm-.184-.183A.5.5,0,0,1,20,6.87h2a1.5,1.5,0,0,0-.2-.752ZM20,6.87v8.2h2V6.87ZM14,15a1,1,0,0,1-.293.707l1.414,1.414A3,3,0,0,0,16,15Zm-.293.707A1,1,0,0,1,13,16v2a3,3,0,0,0,2.121-.879ZM13,16H3v2H13ZM3,16a1,1,0,0,1-.707-.293L.879,17.121A3,3,0,0,0,3,18Zm-.707-.293A1,1,0,0,1,2,15H0a3,3,0,0,0,.879,2.121ZM2,15V7H0v8ZM2,7a1,1,0,0,1,.293-.707L.879,4.879A3,3,0,0,0,0,7Zm.293-.707A1,1,0,0,1,3,6V4a3,3,0,0,0-2.121.879ZM3,6H5V4H3ZM.293,1.707l20,20,1.414-1.414-20-20Z" fill="#09090b"/>
</svg>
