<svg id="video" xmlns="http://www.w3.org/2000/svg" width="22" height="14" viewBox="0 0 22 14">
  <path id="Vector" d="M15.555,7.168a1,1,0,1,0-1.109,1.664Zm4.668,4.314-.555.832h0ZM21,11.066h0Zm0-8.2h0Zm-.752-.432.5.864h0ZM14.5,4.636A1,1,0,0,0,15.5,6.364Zm-.051,4.2,5.223,3.482,1.109-1.664L15.555,7.168Zm5.224,3.482a1.5,1.5,0,0,0,.759.25l.1-2a.5.5,0,0,1,.253.083Zm.759.25a1.5,1.5,0,0,0,.78-.176l-.944-1.763a.5.5,0,0,1,.26-.059Zm.78-.176a1.5,1.5,0,0,0,.579-.551l-1.716-1.028a.5.5,0,0,1,.193-.184Zm.579-.551a1.5,1.5,0,0,0,.213-.77H20a.5.5,0,0,1,.071-.257ZM22,11.066V2.87H20v8.2Zm0-8.2a1.5,1.5,0,0,0-.2-.752l-1.731,1A.5.5,0,0,1,20,2.87Zm-.2-.752a1.5,1.5,0,0,0-.551-.549l-1,1.734a.5.5,0,0,1-.184-.183Zm-.551-.549a1.5,1.5,0,0,0-.752-.2l.007,2a.5.5,0,0,1-.251-.066Zm-.752-.2a1.5,1.5,0,0,0-.751.2L20.752,3.3a.5.5,0,0,1-.25.068Zm-.751.2L14.5,4.636,15.5,6.364,20.752,3.3ZM3,2H13V0H3ZM13,2a1,1,0,0,1,1,1h2a3,3,0,0,0-3-3Zm1,1v8h2V3Zm0,8a1,1,0,0,1-1,1v2a3,3,0,0,0,3-3Zm-1,1H3v2H13ZM3,12a1,1,0,0,1-1-1H0a3,3,0,0,0,3,3ZM2,11V3H0v8ZM2,3A1,1,0,0,1,3,2V0A3,3,0,0,0,0,3Z" fill="#09090b"/>
</svg>
