<svg id="view" xmlns="http://www.w3.org/2000/svg" width="20" height="20" viewBox="0 0 20 20">
  <path id="Vector" d="M3,10l-.891-.454a1,1,0,0,0,0,.907Zm14,0,.891.454a1,1,0,0,0,0-.908Zm3,5a1,1,0,0,0-2,0ZM1,17H1Zm1-2a1,1,0,0,0-2,0ZM18,5a1,1,0,0,0,2,0ZM17,1V1ZM3,1V1ZM1,3H1ZM0,5A1,1,0,0,0,2,5Zm3,5,.891.454h0l0-.006.017-.031c.016-.029.041-.076.076-.136.069-.121.175-.3.317-.514A11.325,11.325,0,0,1,5.553,8.19,6.268,6.268,0,0,1,10,6V4A8.249,8.249,0,0,0,4.106,6.81a13.325,13.325,0,0,0-1.474,1.86c-.167.253-.294.466-.381.619-.044.076-.077.138-.1.181l-.028.052-.008.016,0,.005v0h0L3,10Zm7-4a6.268,6.268,0,0,1,4.447,2.191A11.33,11.33,0,0,1,15.7,9.768c.142.215.248.393.317.514.035.06.06.107.076.136l.017.031,0,.006h0L17,10l.891-.454h0v0l0-.005-.008-.016-.028-.052c-.024-.044-.057-.105-.1-.181-.087-.152-.215-.365-.382-.619a13.329,13.329,0,0,0-1.474-1.86A8.25,8.25,0,0,0,10,4Zm7,4-.891-.454h0l0,.006-.017.031c-.016.029-.041.076-.076.136-.069.121-.175.3-.317.514a11.329,11.329,0,0,1-1.25,1.578A6.268,6.268,0,0,1,10,14v2a8.249,8.249,0,0,0,5.894-2.809,13.327,13.327,0,0,0,1.475-1.86c.167-.253.294-.466.382-.619.044-.076.077-.138.1-.181l.028-.052.008-.016,0-.005v0h0L17,10Zm-7,4a6.268,6.268,0,0,1-4.447-2.191A11.325,11.325,0,0,1,4.3,10.232c-.142-.215-.248-.393-.317-.514-.035-.06-.06-.107-.076-.136l-.017-.031,0-.006h0L3,10l-.891.454h0v0l0,.005.008.016.028.052c.024.044.057.105.1.181.087.152.215.365.381.619a13.322,13.322,0,0,0,1.474,1.86A8.249,8.249,0,0,0,10,16Zm0-2a2,2,0,0,0,1.414-.586L10,10h0Zm1.414-.586A2,2,0,0,0,12,10H10ZM12,10a2,2,0,0,0-.586-1.414L10,10h2Zm-.586-1.414A2,2,0,0,0,10,8v2h0ZM10,8a2,2,0,0,0-1.414.586L10,10h0Zm-1.414.586A2,2,0,0,0,8,10h2ZM8,10a2,2,0,0,0,.586,1.414L10,10H8Zm.586,1.414A2,2,0,0,0,10,12V10h0ZM18,15v2h2V15Zm0,2a1,1,0,0,1-.293.707l1.414,1.414A3,3,0,0,0,20,17Zm-.293.707A1,1,0,0,1,17,18v2a3,3,0,0,0,2.121-.879ZM17,18H3v2H17ZM3,18a1,1,0,0,1-.707-.293L.879,19.121A3,3,0,0,0,3,20Zm-.707-.293A1,1,0,0,1,2,17H0a3,3,0,0,0,.879,2.121ZM2,17V15H0v2ZM20,5V3H18V5Zm0-2A3,3,0,0,0,19.121.879L17.707,2.293A1,1,0,0,1,18,3ZM19.121.879A3,3,0,0,0,17,0V2a1,1,0,0,1,.707.293ZM17,0H3V2H17ZM3,0A3,3,0,0,0,.879.879L2.293,2.293A1,1,0,0,1,3,2ZM.879.879A3,3,0,0,0,0,3H2a1,1,0,0,1,.293-.707ZM0,3V5H2V3Z" fill="#09090b"/>
</svg>
