<svg id="volume-1" xmlns="http://www.w3.org/2000/svg" width="17.004" height="16" viewBox="0 0 17.004 16">
  <path id="Vector" d="M10,1h1A1,1,0,0,0,9.375.219ZM5,5V6a1,1,0,0,0,.625-.219ZM1,5V4A1,1,0,0,0,0,5Zm0,6H0a1,1,0,0,0,1,1Zm4,0,.625-.781A1,1,0,0,0,5,10Zm5,4-.625.781A1,1,0,0,0,11,15ZM15.247,3.753a1,1,0,1,0-1.415,1.414Zm-1.415,7.07a1,1,0,0,0,1.415,1.414ZM9.375.219l-5,4L5.625,5.781l5-4ZM5,4H1V6H5ZM0,5v6H2V5Zm1,7H5V10H1Zm3.375-.219,5,4,1.249-1.562-5-4ZM11,15V1H9V15Zm2.833-9.833A4,4,0,0,1,15,7.995h2a6,6,0,0,0-1.757-4.242ZM15,7.995a4,4,0,0,1-1.171,2.828l1.415,1.414A6,6,0,0,0,17,7.995Z" transform="translate(0 0)" fill="#09090b"/>
</svg>
