<svg id="vote" xmlns="http://www.w3.org/2000/svg" width="22" height="16" viewBox="0 0 22 16">
  <path id="Vector" d="M8.707,7.293A1,1,0,0,0,7.293,8.707ZM10,10l-.707.707a1,1,0,0,0,1.414,0Zm4.707-3.293a1,1,0,0,0-1.414-1.414ZM16,1V1Zm2,14v1a1,1,0,0,0,1-1ZM4,15H3a1,1,0,0,0,1,1Zm17,1a1,1,0,0,0,0-2ZM1,14a1,1,0,0,0,0,2ZM7.293,8.707l2,2,1.414-1.414-2-2Zm3.414,2,4-4L13.293,5.293l-4,4ZM5,3A1.006,1.006,0,0,1,6,2V0A3.006,3.006,0,0,0,3,3ZM6,2H16V0H6ZM16,2a1,1,0,0,1,.707.293L18.121.879A3,3,0,0,0,16,0Zm.707.293A1,1,0,0,1,17,3h2A3,3,0,0,0,18.121.879ZM17,3V15h2V3Zm1,11H4v2H18ZM5,15V3H3V15Zm16-1H1v2H21Z" fill="#09090b"/>
</svg>
