<svg id="wallet-minimal" xmlns="http://www.w3.org/2000/svg" width="20" height="20" viewBox="0 0 20 20">
  <path id="Vector" d="M15,11a1,1,0,0,0,0,2Zm.01,2a1,1,0,0,0,0-2ZM5,4A1,1,0,0,0,5,6ZM17,5V5ZM1,17H1ZM3,1V1ZM17,2a1,1,0,0,0,0-2ZM15,13h.01V11H15ZM5,6H17V4H5ZM17,6a1,1,0,0,1,.707.293l1.414-1.414A3,3,0,0,0,17,4Zm.707.293A1,1,0,0,1,18,7h2a3,3,0,0,0-.879-2.121ZM18,7V17h2V7Zm0,10a1,1,0,0,1-.293.707l1.414,1.414A3,3,0,0,0,20,17Zm-.293.707A1,1,0,0,1,17,18v2a3,3,0,0,0,2.121-.879ZM17,18H3v2H17ZM3,18a1,1,0,0,1-.707-.293L.879,19.121A3,3,0,0,0,3,20Zm-.707-.293A1,1,0,0,1,2,17H0a3,3,0,0,0,.879,2.121ZM2,17V3H0V17ZM2,3a1,1,0,0,1,.293-.707L.879.879A3,3,0,0,0,0,3Zm.293-.707A1,1,0,0,1,3,2V0A3,3,0,0,0,.879.879ZM3,2H17V0H3Z" fill="#09090b"/>
</svg>
