<svg id="wallet-cards" xmlns="http://www.w3.org/2000/svg" width="20" height="20" viewBox="0 0 20 20">
  <path id="Vector" d="M0,7A1,1,0,0,0,2,7ZM3,5V5ZM17,5V5Zm1,2a1,1,0,0,0,2,0ZM1,8a1,1,0,0,0,0,2ZM6.1,9.9l-.768.64a1,1,0,0,0,.135.134Zm1.1.9.707-.707q-.035-.035-.074-.067Zm5.7,0-.633-.774a.988.988,0,0,0-.074.067ZM14,9.9l.633.774a.988.988,0,0,0,.074-.067Zm5,.1a1,1,0,0,0,0-2ZM3,2H17V0H3ZM17,2a1,1,0,0,1,1,1h2a3,3,0,0,0-3-3Zm1,1V17h2V3Zm0,14a1,1,0,0,1-1,1v2a3,3,0,0,0,3-3Zm-1,1H3v2H17ZM3,18a1,1,0,0,1-1-1H0a3,3,0,0,0,3,3ZM2,17V3H0V17ZM2,3A1,1,0,0,1,3,2V0A3,3,0,0,0,0,3ZM2,7a1,1,0,0,1,.293-.707L.879,4.879A3,3,0,0,0,0,7Zm.293-.707A1,1,0,0,1,3,6V4a3,3,0,0,0-2.121.879ZM3,6H17V4H3ZM17,6a1,1,0,0,1,.707.293l1.414-1.414A3,3,0,0,0,17,4Zm.707.293A1,1,0,0,1,18,7h2a3,3,0,0,0-.879-2.121ZM1,10H4V8H1Zm3,0a1.731,1.731,0,0,1,1.332.54L6.868,9.26A3.72,3.72,0,0,0,4,8Zm1.467.674,1.1.9,1.266-1.548-1.1-.9Zm1.026.833a4.984,4.984,0,0,0,7.114,0l-1.414-1.414a2.985,2.985,0,0,1-4.286,0Zm7.04.067,1.1-.9L13.367,9.126l-1.1.9Zm1.174-.967A2.123,2.123,0,0,1,16.1,10V8a4.116,4.116,0,0,0-2.807,1.193ZM16.1,10H19V8H16.1Z" fill="#09090b"/>
</svg>
