<svg id="wand-sparkles" xmlns="http://www.w3.org/2000/svg" width="22.002" height="22.003" viewBox="0 0 22.002 22.003">
  <path id="Vector" d="M20.639,2.64l-.707.707.01.009Zm-1.28-1.28-.711.7,0,0ZM18.5,1V1Zm-.86.359.707.707,0,0ZM1.359,17.64l.7.711,0,0Zm0,1.72.707-.707,0,0Zm1.28,1.28.717-.7-.01-.01Zm1.72,0-.707-.707-.009.01ZM20.639,4.36l-.7-.717-.01.01Zm-6.933.933a1,1,0,0,0-1.414,1.414Zm1.586,4.414a1,1,0,1,0,1.414-1.414ZM5,5A1,1,0,1,0,3,5ZM3,9A1,1,0,0,0,5,9Zm16,4a1,1,0,0,0-2,0Zm-2,4a1,1,0,0,0,2,0ZM10,1A1,1,0,0,0,8,1ZM8,3a1,1,0,1,0,2,0ZM6,8A1,1,0,0,0,6,6ZM2,6A1,1,0,0,0,2,8ZM20,16a1,1,0,0,0,0-2Zm-4-2a1,1,0,0,0,0,2ZM10,3a1,1,0,0,0,0-2ZM8,1A1,1,0,0,0,8,3Zm13.347.933L20.066.653,18.652,2.067l1.28,1.28ZM20.07.657a2.21,2.21,0,0,0-.72-.485l-.77,1.846a.21.21,0,0,1,.068.046ZM19.35.172A2.21,2.21,0,0,0,18.5,0V2a.21.21,0,0,1,.081.016ZM18.5,0a2.21,2.21,0,0,0-.851.17l.77,1.846A.21.21,0,0,1,18.5,2Zm-.851.17a2.21,2.21,0,0,0-.72.485L18.35,2.063a.209.209,0,0,1,.068-.046Zm-.716.481L.652,16.933l1.414,1.414,16.28-16.28ZM.655,16.929a2.209,2.209,0,0,0-.485.72l1.846.77a.21.21,0,0,1,.046-.068Zm-.485.72A2.21,2.21,0,0,0,0,18.5H2a.21.21,0,0,1,.016-.081ZM0,18.5a2.21,2.21,0,0,0,.17.851l1.846-.77A.21.21,0,0,1,2,18.5Zm.17.851a2.21,2.21,0,0,0,.485.72l1.407-1.421a.21.21,0,0,1-.046-.068Zm.481.716,1.28,1.28,1.414-1.414-1.28-1.28Zm1.27,1.27a2.2,2.2,0,0,0,.721.492l.778-1.843a.2.2,0,0,1-.066-.045Zm.721.492A2.2,2.2,0,0,0,3.5,22V20a.2.2,0,0,1-.078-.016ZM3.5,22a2.2,2.2,0,0,0,.856-.173l-.778-1.843A.2.2,0,0,1,3.5,20Zm.856-.173a2.2,2.2,0,0,0,.721-.492L3.642,19.943a.2.2,0,0,1-.066.045Zm.711-.483,16.28-16.28L19.932,3.653,3.652,19.933Zm16.27-16.27a2.2,2.2,0,0,0,.493-.721l-1.843-.778a.2.2,0,0,1-.045.066Zm.492-.721A2.2,2.2,0,0,0,22,3.5H20a.2.2,0,0,1-.016.078ZM22,3.5a2.2,2.2,0,0,0-.173-.856l-1.843.778A.2.2,0,0,1,20,3.5Zm-.173-.856a2.2,2.2,0,0,0-.493-.721L19.941,3.357a.2.2,0,0,1,.045.066ZM12.292,6.707l3,3,1.414-1.414-3-3ZM3,5V9H5V5Zm14,8v4h2V13ZM8,1V3h2V1ZM6,6H2V8H6Zm14,8H16v2h4ZM10,1H8V3h2Z" fill="#09090b"/>
</svg>
