<svg id="wand" xmlns="http://www.w3.org/2000/svg" width="21" height="21" viewBox="0 0 21 21">
  <path id="Vector" d="M12,3a1,1,0,0,0,2,0Zm2-2a1,1,0,0,0-2,0ZM12,15a1,1,0,0,0,2,0Zm2-2a1,1,0,0,0-2,0ZM6,7A1,1,0,0,0,6,9ZM8,9A1,1,0,0,0,8,7ZM18,7a1,1,0,0,0,0,2Zm2,2a1,1,0,0,0,0-2Zm-3.493,1.093a1,1,0,1,0-1.414,1.414Zm-.214,2.614a1,1,0,1,0,1.414-1.414ZM13,7a1,1,0,0,0,0,2Zm.01,2a1,1,0,0,0,0-2Zm2.083-4.507a1,1,0,0,0,1.414,1.414Zm2.614.214a1,1,0,1,0-1.414-1.414ZM.293,19.293a1,1,0,0,0,1.414,1.414Zm10.414-7.586a1,1,0,1,0-1.414-1.414Zm-1.214-5.8a1,1,0,0,0,1.414-1.414Zm.214-2.614A1,1,0,1,0,8.293,4.707ZM14,3V1H12V3Zm0,12V13H12v2ZM6,9H8V7H6ZM18,9h2V7H18Zm-2.907,2.507,1.2,1.2,1.414-1.414-1.2-1.2ZM13,9h.01V7H13Zm3.507-3.093,1.2-1.2L16.293,3.293l-1.2,1.2Zm-14.8,14.8,9-9L9.293,10.293l-9,9Zm9.2-16.214-1.2-1.2L8.293,4.707l1.2,1.2Z" fill="#09090b"/>
</svg>
