<svg id="warehouse" xmlns="http://www.w3.org/2000/svg" width="22" height="20.842" viewBox="0 0 22 20.842">
  <path id="Vector" d="M21,6.192h1v0ZM1,17.842H1ZM1,6.192l-1,0v0Zm1.26-1.85.37.929h0Zm8-3.2L9.89.213h0Zm1.48,0,.371-.928h0Zm8,3.2-.371.928h0ZM5,14.842a1,1,0,1,0,0,2Zm12,2a1,1,0,0,0,0-2Zm-12-6a1,1,0,1,0,0,2Zm12,2a1,1,0,1,0,0-2Zm-12-5v-1a1,1,0,0,0-1,1Zm12,0h1a1,1,0,0,0-1-1Zm0,12v1a1,1,0,0,0,1-1Zm-12,0H4a1,1,0,0,0,1,1ZM20,6.192v11.65h2V6.192Zm0,11.65a1,1,0,0,1-.293.707l1.414,1.414A3,3,0,0,0,22,17.842Zm-.293.707a1,1,0,0,1-.707.293v2a3,3,0,0,0,2.121-.879ZM19,18.842H3v2H19Zm-16,0a1,1,0,0,1-.707-.293L.879,19.963A3,3,0,0,0,3,20.842Zm-.707-.293A1,1,0,0,1,2,17.842H0a3,3,0,0,0,.879,2.121ZM2,17.842V6.192H0v11.65ZM2,6.2a1,1,0,0,1,.173-.559L.52,4.511A3,3,0,0,0,0,6.188Zm.173-.559a1,1,0,0,1,.457-.366L1.89,3.413a3,3,0,0,0-1.37,1.1Zm.458-.367,8-3.2L9.889.213l-8,3.2Zm8-3.2a1,1,0,0,1,.74,0L12.11.213a3,3,0,0,0-2.22,0Zm.739,0,8,3.2.743-1.857-8-3.2Zm8,3.2a1,1,0,0,1,.456.366l1.653-1.126a3,3,0,0,0-1.369-1.1Zm.456.366A1,1,0,0,1,20,6.2l2-.008a3,3,0,0,0-.521-1.677ZM5,16.842H17v-2H5Zm0-4H17v-2H5Zm0-4H17v-2H5Zm11-1v12h2v-12Zm1,11H5v2H17Zm-11,1v-12H4v12Z" transform="translate(0 0)" fill="#09090b"/>
</svg>
