<svg id="webcam" xmlns="http://www.w3.org/2000/svg" width="18" height="22" viewBox="0 0 18 22">
  <path id="Vector" d="M4,20a1,1,0,0,0,0,2Zm10,2a1,1,0,0,0,0-2ZM8,21a1,1,0,0,0,2,0ZM16,9a7,7,0,0,1-7,7v2a9,9,0,0,0,9-9ZM9,16A7,7,0,0,1,2,9H0a9,9,0,0,0,9,9ZM2,9A7,7,0,0,1,9,2V0A9,9,0,0,0,0,9ZM9,2a7,7,0,0,1,7,7h2A9,9,0,0,0,9,0Zm2,7a2,2,0,0,1-2,2v2a4,4,0,0,0,4-4ZM9,11A2,2,0,0,1,7,9H5a4,4,0,0,0,4,4ZM7,9A2,2,0,0,1,9,7V5A4,4,0,0,0,5,9ZM9,7a2,2,0,0,1,2,2h2A4,4,0,0,0,9,5ZM4,22H14V20H4Zm6-1V17H8v4Z" fill="#09090b"/>
</svg>
