<svg id="wheat" xmlns="http://www.w3.org/2000/svg" width="22" height="22" viewBox="0 0 22 22">
  <path id="Vector" d="M.293,20.293a1,1,0,0,0,1.414,1.414ZM2.47,11.53l-.707-.707h0ZM4,10l.707-.707a1,1,0,0,0-1.414,0Zm1.53,1.53.708-.706h0ZM6.55,14h0ZM4,18l-.707.707h0ZM2.47,16.47l-.709.706h0ZM1.45,14h0ZM6.47,7.53l-.707-.707h0ZM8,6l.707-.707a1,1,0,0,0-1.414,0ZM9.53,7.53l.708-.706h0ZM10.55,10h0ZM8,14l-.707.707h0ZM6.47,12.47l-.708.706h0ZM5.45,10h0Zm5.02-6.47-.707-.707h0ZM12,2l.707-.707a1,1,0,0,0-1.414,0Zm1.53,1.53.708-.706h0ZM12,10l-.707.707h0ZM10.47,8.47l-.708.706h0ZM19,1V1Zm2,0h1a1,1,0,0,0-1-1ZM17,7V7Zm-6.53,9.47.707-.707h0ZM12,18l.707.707a1,1,0,0,0,0-1.414Zm-1.53,1.53.706.708h0ZM8,20.55v0ZM5.53,19.53l-.707.707h0Zm8.94-7.06.707-.707h0ZM16,14l.707.707a1,1,0,0,0,0-1.414Zm-1.53,1.53.706.709h0Zm-4.94,0-.707.707h0ZM12,11.45v0Zm6.47-2.98.707-.707h0ZM20,10l.707.707a1,1,0,0,0,0-1.414Zm-1.53,1.53.706.708h0ZM16,12.55v0Zm-2.47-1.02-.707.707h0ZM16,7.45v0ZM1.707,21.707l14-14L14.293,6.293l-14,14Zm1.47-9.47,1.53-1.53L3.293,9.293l-1.53,1.53Zm.116-1.53,1.53,1.53,1.414-1.414-1.53-1.53Zm1.529,1.529A2.5,2.5,0,0,1,5.55,14h2a4.5,4.5,0,0,0-1.312-3.176ZM5.55,14a2.5,2.5,0,0,1-.729,1.764l1.417,1.411A4.5,4.5,0,0,0,7.55,14Zm-.727,1.763-1.53,1.53,1.414,1.414,1.53-1.53Zm-.116,1.53-1.53-1.53L1.763,17.177l1.53,1.53ZM3.178,15.764A2.5,2.5,0,0,1,2.45,14h-2a4.5,4.5,0,0,0,1.312,3.176ZM2.45,14a2.5,2.5,0,0,1,.729-1.764L1.761,10.824A4.5,4.5,0,0,0,.45,14ZM7.177,8.237l1.53-1.53L7.293,5.293l-1.53,1.53Zm.116-1.53,1.53,1.53,1.414-1.414-1.53-1.53ZM8.821,8.236A2.5,2.5,0,0,1,9.55,10h2a4.5,4.5,0,0,0-1.312-3.176ZM9.55,10a2.5,2.5,0,0,1-.729,1.764l1.417,1.411A4.5,4.5,0,0,0,11.55,10Zm-.727,1.763-1.53,1.53,1.414,1.414,1.53-1.53Zm-.116,1.53-1.53-1.53L5.763,13.177l1.53,1.53ZM7.178,11.764A2.5,2.5,0,0,1,6.45,10h-2a4.5,4.5,0,0,0,1.312,3.176ZM6.45,10a2.5,2.5,0,0,1,.729-1.764L5.761,6.824A4.5,4.5,0,0,0,4.45,10Zm4.727-5.763,1.53-1.53L11.293,1.293l-1.53,1.53Zm.116-1.53,1.53,1.53,1.414-1.414-1.53-1.53Zm1.529,1.529A2.5,2.5,0,0,1,13.55,6h2a4.5,4.5,0,0,0-1.312-3.176ZM13.55,6a2.5,2.5,0,0,1-.729,1.764l1.417,1.411A4.5,4.5,0,0,0,15.55,6Zm-.727,1.763-1.53,1.53,1.414,1.414,1.53-1.53Zm-.116,1.53-1.53-1.53L9.763,9.177l1.53,1.53ZM11.179,7.764A2.5,2.5,0,0,1,10.45,6h-2A4.5,4.5,0,0,0,9.761,9.176ZM10.45,6a2.5,2.5,0,0,1,.729-1.764L9.761,2.824A4.5,4.5,0,0,0,8.45,6ZM19,2h2V0H19Zm1-1V3h2V1Zm0,2a3,3,0,0,1-.879,2.121l1.414,1.414A5,5,0,0,0,22,3Zm-.879,2.121A3,3,0,0,1,17,6V8a5,5,0,0,0,3.535-1.464ZM17,6H15V8h2ZM16,7V5H14V7Zm0-2a3,3,0,0,1,.879-2.121L15.465,1.464A5,5,0,0,0,14,5Zm.879-2.121A3,3,0,0,1,19,2V0a5,5,0,0,0-3.535,1.464Zm-7.116,14.3,1.53,1.53,1.414-1.414-1.53-1.53Zm1.53.116-1.53,1.53,1.414,1.414,1.53-1.53ZM9.764,18.822A2.5,2.5,0,0,1,8,19.55v2a4.5,4.5,0,0,0,3.176-1.312ZM8,19.55a2.5,2.5,0,0,1-1.764-.729L4.824,20.238A4.5,4.5,0,0,0,8,21.55Zm-1.763-.727-1.53-1.53L3.293,18.707l1.53,1.53Zm0-1.644A2.5,2.5,0,0,1,8,16.45v-2a4.5,4.5,0,0,0-3.176,1.312ZM8,16.45a2.5,2.5,0,0,1,1.764.729l1.411-1.417A4.5,4.5,0,0,0,8,14.45Zm5.763-3.273,1.53,1.53,1.414-1.414-1.53-1.53Zm1.53.116-1.53,1.53,1.414,1.414,1.53-1.53Zm-1.529,1.529A2.5,2.5,0,0,1,12,15.55v2a4.5,4.5,0,0,0,3.176-1.312ZM12,15.55a2.5,2.5,0,0,1-1.764-.729L8.824,16.239A4.5,4.5,0,0,0,12,17.55Zm-1.763-.727-1.53-1.53L7.293,14.707l1.53,1.53Zm0-1.644A2.5,2.5,0,0,1,12,12.45v-2a4.5,4.5,0,0,0-3.176,1.312ZM12,12.45a2.5,2.5,0,0,1,1.764.729l1.411-1.417A4.5,4.5,0,0,0,12,10.45Zm5.763-3.273,1.53,1.53,1.414-1.414-1.53-1.53Zm1.53.116-1.53,1.53,1.414,1.414,1.53-1.53Zm-1.529,1.529A2.5,2.5,0,0,1,16,11.55v2a4.5,4.5,0,0,0,3.176-1.312ZM16,11.55a2.5,2.5,0,0,1-1.764-.729l-1.411,1.417A4.5,4.5,0,0,0,16,13.55Zm-1.763-.727-1.53-1.53-1.414,1.414,1.53,1.53Zm0-1.644A2.5,2.5,0,0,1,16,8.45v-2a4.5,4.5,0,0,0-3.176,1.312ZM16,8.45a2.5,2.5,0,0,1,1.764.729l1.411-1.417A4.5,4.5,0,0,0,16,6.45Z" fill="#09090b"/>
</svg>
