<svg id="whole-word" xmlns="http://www.w3.org/2000/svg" width="22" height="14" viewBox="0 0 22 14">
  <path id="Vector" d="M10,3A1,1,0,0,0,8,3ZM8,9a1,1,0,0,0,2,0Zm6-8a1,1,0,0,0-2,0ZM12,9a1,1,0,0,0,2,0Zm10,2a1,1,0,0,0-2,0ZM2,11a1,1,0,0,0-2,0ZM8,6A2,2,0,0,1,6,8v2a4,4,0,0,0,4-4ZM6,8A2,2,0,0,1,4,6H2a4,4,0,0,0,4,4ZM4,6A2,2,0,0,1,6,4V2A4,4,0,0,0,2,6ZM6,4A2,2,0,0,1,8,6h2A4,4,0,0,0,6,2ZM8,3V9h2V3ZM18,6a2,2,0,0,1-2,2v2a4,4,0,0,0,4-4ZM16,8a2,2,0,0,1-2-2H12a4,4,0,0,0,4,4ZM14,6a2,2,0,0,1,2-2V2a4,4,0,0,0-4,4Zm2-2a2,2,0,0,1,2,2h2a4,4,0,0,0-4-4ZM12,1V9h2V1Zm8,10v1h2V11Zm0,1a.2.2,0,0,1,0-.045.066.066,0,0,1,0-.011.1.1,0,0,1-.008.013.185.185,0,0,1-.042.042l-.013.008.011,0A.2.2,0,0,1,20,12v2a2.071,2.071,0,0,0,2-2Zm0,0H2v2H20ZM2,12a.2.2,0,0,1,.045,0l.011,0L2.042,12a.179.179,0,0,1-.023-.019A.176.176,0,0,1,2,11.958a.1.1,0,0,1-.008-.013.081.081,0,0,1,0,.011A.2.2,0,0,1,2,12H0a2,2,0,0,0,.605,1.395A2,2,0,0,0,2,14Zm0,0V11H0v1Z" transform="translate(0)" fill="#09090b"/>
</svg>
