<svg id="wifi-off" xmlns="http://www.w3.org/2000/svg" width="22" height="22" viewBox="0 0 22 22">
  <path id="Vector" d="M11,18a1,1,0,0,0,0,2Zm.01,2a1,1,0,0,0,0-2ZM6.8,14.715a1,1,0,0,0,1.4,1.428Zm7,1.428a1,1,0,0,0,1.4-1.428Zm-10.5-5a1,1,0,0,0,1.4,1.428Zm6.053-.993a1,1,0,1,0-.366-1.966ZM17.3,12.573a1,1,0,0,0,1.4-1.428Zm-.808-3.1a1,1,0,1,0-1,1.733ZM.333,7.075A1,1,0,1,0,1.667,8.565ZM5.565,6.1a1,1,0,1,0-.776-1.843ZM20.333,8.565a1,1,0,0,0,1.333-1.491ZM9.626,3.06A1,1,0,1,0,9.8,5.052ZM1.707.293A1,1,0,1,0,.293,1.707ZM20.293,21.707a1,1,0,1,0,1.414-1.414ZM11,20h.01V18H11ZM8.2,16.143A4,4,0,0,1,11,15V13a6,6,0,0,0-4.2,1.715ZM11,15a4,4,0,0,1,2.8,1.143l1.4-1.428A6,6,0,0,0,11,13ZM4.7,12.573a9,9,0,0,1,4.653-2.421L8.987,8.186A11,11,0,0,0,3.3,11.145Zm14-1.428A11,11,0,0,0,16.492,9.47l-1,1.733A9,9,0,0,1,17.3,12.573ZM1.667,8.565A14,14,0,0,1,5.565,6.1L4.789,4.255A16,16,0,0,0,.333,7.075Zm20-1.491a16,16,0,0,0-5.605-3.252l-.633,1.9a14,14,0,0,1,4.9,2.846ZM16.061,3.822A16,16,0,0,0,9.626,3.06L9.8,5.052a14,14,0,0,1,5.631.667ZM.293,1.707l20,20,1.414-1.414-20-20Z" transform="translate(0)" fill="#09090b"/>
</svg>
