<svg id="wind" xmlns="http://www.w3.org/2000/svg" width="21.934" height="18" viewBox="0 0 21.934 18">
  <path id="Vector" d="M16.006,3.98A1,1,0,0,0,17.394,5.42ZM18.5,9v1h.026ZM1,8a1,1,0,0,0,0,2ZM7.886.9A1,1,0,1,0,9.314,2.3ZM10,5l.014-1H10ZM1,4A1,1,0,1,0,1,6ZM12.314,15.7a1,1,0,0,0-1.428,1.4ZM13,13v1h.014ZM1,12a1,1,0,0,0,0,2ZM17.394,5.42a1.5,1.5,0,0,1,.624-.361l-.555-1.921a3.5,3.5,0,0,0-1.456.841Zm.624-.361a1.5,1.5,0,0,1,.72-.028l.405-1.959a3.5,3.5,0,0,0-1.68.065Zm.72-.028a1.5,1.5,0,0,1,.65.311L20.66,3.8a3.5,3.5,0,0,0-1.517-.726Zm.65.311a1.5,1.5,0,0,1,.43.578l1.845-.772a3.5,3.5,0,0,0-1-1.35Zm.43.578a1.5,1.5,0,0,1,.11.712l1.992.177a3.5,3.5,0,0,0-.258-1.662Zm.11.712a1.5,1.5,0,0,1-.234.681L21.373,8.4a3.5,3.5,0,0,0,.547-1.59Zm-.234.681a1.5,1.5,0,0,1-.525.493l.979,1.744A3.5,3.5,0,0,0,21.373,8.4Zm-.525.493A1.5,1.5,0,0,1,18.474,8l.053,2a3.5,3.5,0,0,0,1.621-.447ZM18.5,8H1v2H18.5ZM9.314,2.3a1,1,0,0,1,.417-.255L9.138.135A3,3,0,0,0,7.886.9Zm.417-.255a1,1,0,0,1,.488-.027L10.6.055a3,3,0,0,0-1.464.08Zm.488-.027a1,1,0,0,1,.442.208L11.929.679A3,3,0,0,0,10.6.055Zm.442.208a1,1,0,0,1,.291.393L12.8,1.858A3,3,0,0,0,11.929.679Zm.291.393a1,1,0,0,1,.07.484l1.989.206a3,3,0,0,0-.21-1.451Zm.07.484a1,1,0,0,1-.168.459l1.654,1.125a3,3,0,0,0,.5-1.378Zm-.168.459a1,1,0,0,1-.365.325l.923,1.774a3,3,0,0,0,1.1-.974Zm-.365.325A1,1,0,0,1,10.014,4L9.986,6a3,3,0,0,0,1.427-.338ZM10,4H1V6h9Zm.886,13.1a3,3,0,0,0,1.252.764l.594-1.91a1,1,0,0,1-.417-.255Zm1.252.764a3,3,0,0,0,1.464.08l-.382-1.963a1,1,0,0,1-.488-.027Zm1.464.08a3,3,0,0,0,1.327-.624l-1.267-1.547a1,1,0,0,1-.442.208Zm1.327-.624a3,3,0,0,0,.873-1.178l-1.849-.762a1,1,0,0,1-.291.393Zm.873-1.178a3,3,0,0,0,.21-1.451l-1.989.206a1,1,0,0,1-.07.484Zm.21-1.451a3,3,0,0,0-.5-1.378l-1.654,1.125a1,1,0,0,1,.168.459Zm-.5-1.378a3,3,0,0,0-1.1-.974l-.923,1.774a1,1,0,0,1,.365.325Zm-1.1-.974A3,3,0,0,0,12.986,12l.028,2a1,1,0,0,1,.476.113ZM13,12H1v2H13Z" transform="translate(0 0)" fill="#09090b"/>
</svg>
