<svg id="wine-off" xmlns="http://www.w3.org/2000/svg" width="22" height="22" viewBox="0 0 22 22">
  <path id="Vector" d="M7,20a1,1,0,0,0,0,2Zm8,2a1,1,0,0,0,0-2ZM6,9,5,9V9Zm3,1A1,1,0,0,0,9,8Zm5.657-2a1,1,0,0,0,0,2ZM12,14a1,1,0,0,0-2,0Zm-2,7a1,1,0,0,0,2,0ZM7.282,6.529a1,1,0,0,0-1.95-.444Zm6.587,7.741a1,1,0,0,0-.956-1.757ZM6.7,1.644a1,1,0,0,0,1.883.674ZM8,1V0a1,1,0,0,0-.936.648Zm6,0,.936-.351A1,1,0,0,0,14,0Zm.884,8.961a1,1,0,0,0,1.943.474ZM1.707.293A1,1,0,0,0,.293,1.707ZM20.293,21.707a1,1,0,0,0,1.414-1.414ZM7,22h8V20H7ZM6,10H9V8H6ZM16,8H14.657v2H16Zm-6,6v7h2V14ZM5.332,6.085A13.33,13.33,0,0,0,5,9L7,9a11.33,11.33,0,0,1,.282-2.475ZM5,9a6,6,0,0,0,.785,2.967l1.738-.989A4,4,0,0,1,7,9Zm.785,2.967a6,6,0,0,0,2.15,2.191l1.022-1.719a4,4,0,0,1-1.433-1.46Zm2.15,2.191A6,6,0,0,0,10.888,15l.037-2a4,4,0,0,1-1.968-.56ZM10.888,15a6,6,0,0,0,2.982-.729l-.956-1.757A4,4,0,0,1,10.925,13ZM8.58,2.318c.109-.305.229-.627.356-.966L7.064.648c-.129.342-.253.676-.368,1ZM8,2h6V0H8Zm5.064-.649C14.558,5.337,15,7.193,15,9h2c0-2.193-.558-4.337-2.064-8.351ZM15,9a4.046,4.046,0,0,1-.116.961l1.943.474A6.048,6.048,0,0,0,17,9ZM.293,1.707l20,20,1.414-1.414-20-20Z" transform="translate(0)" fill="#09090b"/>
</svg>
