<svg id="wine" xmlns="http://www.w3.org/2000/svg" width="12" height="22" viewBox="0 0 12 22">
  <path id="Vector" d="M2,20a1,1,0,0,0,0,2Zm8,2a1,1,0,0,0,0-2ZM1,9H1ZM5,21a1,1,0,0,0,2,0ZM9,1,9.936.649A1,1,0,0,0,9,0ZM3,1V0a1,1,0,0,0-.936.649ZM2,22h8V20H2ZM1,10H11V8H1Zm4,4v7H7V14Zm1,1a6,6,0,0,0,4.243-1.757L8.828,11.828A4,4,0,0,1,6,13Zm4.243-1.757A6,6,0,0,0,12,9H10a4,4,0,0,1-1.172,2.828ZM12,9c0-2.193-.558-4.337-2.064-8.351l-1.873.7C9.558,5.337,10,7.193,10,9ZM9,0H3V2H9ZM2.064.649C.558,4.663,0,6.807,0,9H2c0-1.807.442-3.663,1.936-7.649ZM0,9a6,6,0,0,0,1.757,4.243l1.414-1.414A4,4,0,0,1,2,9Zm1.757,4.243A6,6,0,0,0,6,15V13a4,4,0,0,1-2.828-1.172Z" fill="#09090b"/>
</svg>
