<svg id="workflow" xmlns="http://www.w3.org/2000/svg" width="20" height="20" viewBox="0 0 20 20">
  <path id="Vector" d="M6,9A1,1,0,0,0,4,9ZM5,13H5Zm6,3a1,1,0,0,0,0-2ZM3,2H7V0H3ZM7,2A1,1,0,0,1,8,3h2A3,3,0,0,0,7,0ZM8,3V7h2V3ZM8,7A1,1,0,0,1,7,8v2a3,3,0,0,0,3-3ZM7,8H3v2H7ZM3,8A1,1,0,0,1,2,7H0a3,3,0,0,0,3,3ZM2,7V3H0V7ZM2,3A1,1,0,0,1,3,2V0A3,3,0,0,0,0,3ZM4,9v4H6V9Zm0,4a3,3,0,0,0,.879,2.121l1.414-1.414A1,1,0,0,1,6,13Zm.879,2.121A3,3,0,0,0,7,16V14a1,1,0,0,1-.707-.293ZM7,16h4V14H7Zm6-4h4V10H13Zm4,0a1,1,0,0,1,1,1h2a3,3,0,0,0-3-3Zm1,1v4h2V13Zm0,4a1,1,0,0,1-1,1v2a3,3,0,0,0,3-3Zm-1,1H13v2h4Zm-4,0a1,1,0,0,1-1-1H10a3,3,0,0,0,3,3Zm-1-1V13H10v4Zm0-4a1,1,0,0,1,1-1V10a3,3,0,0,0-3,3Z" fill="#09090b"/>
</svg>
