<svg id="wrench" xmlns="http://www.w3.org/2000/svg" width="21.005" height="21.005" viewBox="0 0 21.005 21.005">
  <path id="Vector" d="M12.7,5.3,11.994,4.6l-.007.007Zm0,1.4-.714.7.007.007Zm1.6,1.6-.707.707.007.007Zm1.4,0,.7.714.007-.007Zm3.77-3.77.911-.412a1,1,0,0,0-1.618-.295Zm-7.94,7.94.412-.911a1,1,0,0,0-1.119.2Zm-6.91,6.91-.707-.707h0ZM3.121,20v0ZM1,17.884H1Zm.621-1.5-.707-.707h0Zm6.91-6.91.707.707a1,1,0,0,0,.2-1.119Zm7.94-7.94.707.707A1,1,0,0,0,16.884.623Zm-3.76,3.76L13.418,6h0Zm-.724-.69A2,2,0,0,0,11.415,6h2ZM11.415,6a2,2,0,0,0,.572,1.4L13.415,6h-2Zm.579,1.407,1.6,1.6L15.008,7.6,13.408,6ZM13.6,9.018a2,2,0,0,0,1.4.572v-2h0ZM15,9.59a2,2,0,0,0,1.4-.572L15,7.59h0Zm1.407-.579,3.77-3.77L18.764,3.827,14.994,7.6ZM18.56,4.946A5,5,0,0,1,18.924,7.9l1.968.358a7,7,0,0,0-.509-4.141ZM18.924,7.9a5,5,0,0,1-1.383,2.639l1.414,1.414a7,7,0,0,0,1.937-3.695Zm-1.383,2.639A5,5,0,0,1,14.9,11.926l.359,1.968a7,7,0,0,0,3.695-1.937ZM14.9,11.926a5,5,0,0,1-2.958-.364l-.825,1.822a7,7,0,0,0,4.141.509Zm-4.077-.16-6.91,6.91,1.414,1.414,6.91-6.91Zm-6.91,6.91a1.121,1.121,0,0,1-.793.329v2a3.121,3.121,0,0,0,2.207-.914ZM3.121,19a1.121,1.121,0,0,1-.793-.329L.914,20.091A3.121,3.121,0,0,0,3.121,21Zm-.793-.328A1.121,1.121,0,0,1,2,17.884H0a3.121,3.121,0,0,0,.914,2.207ZM2,17.884a1.121,1.121,0,0,1,.328-.793L.914,15.677A3.121,3.121,0,0,0,0,17.884Zm.328-.793,6.91-6.91L7.824,8.767l-6.91,6.91ZM9.442,9.061A5,5,0,0,1,9.079,6.1L7.111,5.745A7,7,0,0,0,7.62,9.886ZM9.079,6.1a5,5,0,0,1,1.383-2.639L9.048,2.05A7,7,0,0,0,7.111,5.745Zm1.383-2.639A5,5,0,0,1,13.1,2.081L12.743.113A7,7,0,0,0,9.048,2.05ZM13.1,2.081a5,5,0,0,1,2.958.364L16.884.623A7,7,0,0,0,12.743.113ZM15.764.827,12,4.587,13.418,6l3.76-3.76ZM12,4.587l-.01.01,1.414,1.414.01-.01Z" transform="translate(0 0)" fill="#09090b"/>
</svg>
