<svg id="zap" xmlns="http://www.w3.org/2000/svg" width="20.007" height="22.005" viewBox="0 0 20.007 22.005">
  <path id="Vector" d="M2,13V12H2Zm-.78-1.63-.718-.7q-.031.032-.059.066Zm9.9-10.2.718.7.038-.042Zm.86.46.953.3.012-.039Zm-1.92,6.02L11,8q.009-.023.016-.046ZM11,9V8h0Zm7,0v1h0Zm.78,1.63.718.7q.031-.032.059-.066Zm-9.9,10.2-.718-.7-.038.042Zm-.86-.46-.953-.3-.011.039Zm1.92-6.02L9.007,14q-.009.023-.016.046ZM9,13v1h0ZM2,12H2L.937,13.7A2,2,0,0,0,2.007,14Zm0,0H2l-1.8.863a2,2,0,0,0,.741.831Zm0,0H2L.014,11.768a2,2,0,0,0,.182,1.1Zm0,0H2L.447,10.743a2,2,0,0,0-.433,1.025Zm-.059.067,9.9-10.2L10.406.476l-9.9,10.2ZM11.879,1.827a.5.5,0,0,1-.287.164L11.229.025a1.5,1.5,0,0,0-.861.493Zm-.287.164a.5.5,0,0,1-.327-.051L12.209.177a1.5,1.5,0,0,0-.98-.152Zm-.327-.051a.5.5,0,0,1-.224-.244L12.88.908a1.5,1.5,0,0,0-.671-.731ZM11.042,1.7a.5.5,0,0,1-.023-.33l1.928.53a1.5,1.5,0,0,0-.068-.99Zm-.011-.369-1.92,6.02,1.905.608,1.92-6.02ZM9.127,7.3a2,2,0,0,0-.111.95L11,8h0Zm-.111.95a2,2,0,0,0,.343.893L11,8h0Zm.343.893a2,2,0,0,0,.718.631L11,8h0Zm.718.631a2,2,0,0,0,.929.226L11,8h0ZM11,10h7V8H11Zm7,0h0L19.07,8.309A2,2,0,0,0,18,8Zm0,0h0l1.8-.863a2,2,0,0,0-.741-.831Zm0,0h0l1.986.235a2,2,0,0,0-.182-1.1Zm0,0h0l1.553,1.26a2,2,0,0,0,.433-1.025Zm.059-.066-9.9,10.2L9.6,21.529l9.9-10.2ZM8.128,20.178a.5.5,0,0,1,.287-.164l.364,1.967a1.5,1.5,0,0,0,.861-.493Zm.287-.164a.5.5,0,0,1,.327.051L7.8,21.828a1.5,1.5,0,0,0,.98.152Zm.327.051a.5.5,0,0,1,.224.244L7.127,21.1a1.5,1.5,0,0,0,.671.731Zm.224.244a.5.5,0,0,1,.023.33l-1.928-.53a1.5,1.5,0,0,0,.068.99Zm.011.369,1.92-6.02-1.905-.608-1.92,6.02Zm1.9-5.974a2,2,0,0,0,.111-.95L9.007,14h0Zm.111-.95a2,2,0,0,0-.343-.893L9.007,14h0Zm-.343-.893a2,2,0,0,0-.718-.632L9.007,14h0Zm-.718-.632A2,2,0,0,0,9,12l.007,2h0ZM9,12H2v2H9Z" transform="translate(0 0)" fill="#09090b"/>
</svg>
